<svg width="450" height="45" viewBox="0 0 450 45" fill="none" xmlns="http://www.w3.org/2000/svg">
<path d="M21.9854 30.1178C20.8854 30.1178 19.6717 30.004 18.3441 29.7764C17.0545 29.5109 15.7649 29.2264 14.4753 28.923C13.2236 28.6195 12.0668 28.354 11.0047 28.1264C9.98063 27.8609 9.16514 27.7282 8.55827 27.7282C7.83761 27.7282 7.40142 27.9937 7.2497 28.5247C7.09798 29.0557 7.07901 29.7764 7.1928 30.6867H1.95851C1.16199 28.7902 0.839588 27.1403 0.991306 25.7369C1.18095 24.2955 1.7499 23.1766 2.69814 22.3801C3.68431 21.5457 4.95495 21.1284 6.51007 21.1284C7.5721 21.1284 8.72895 21.2422 9.98063 21.4698C11.2702 21.6974 12.5219 21.9629 13.7357 22.2663C14.9873 22.5698 16.1252 22.8353 17.1493 23.0628C18.1734 23.2904 18.9889 23.4042 19.5958 23.4042C20.3165 23.4042 20.7527 23.1577 20.9044 22.6646C21.094 22.1336 21.113 21.4129 20.9613 20.5026H26.1387C26.8214 22.1715 27.1248 23.7456 27.049 25.2248C26.9731 26.6662 26.518 27.842 25.6835 28.7523C24.8491 29.6626 23.6163 30.1178 21.9854 30.1178ZM444.249 30.1178C443.149 30.1178 441.935 30.004 440.608 29.7764C439.318 29.5109 438.028 29.2264 436.739 28.923C435.487 28.6195 434.33 28.354 433.268 28.1264C432.244 27.8609 431.429 27.7282 430.822 27.7282C430.101 27.7282 429.665 27.9937 429.513 28.5247C429.362 29.0557 429.343 29.7764 429.456 30.6867H424.222C423.426 28.7902 423.103 27.1403 423.255 25.7369C423.445 24.2955 424.013 23.1766 424.962 22.3801C425.948 21.5457 427.219 21.1284 428.774 21.1284C429.836 21.1284 430.993 21.2422 432.244 21.4698C433.534 21.6974 434.785 21.9629 435.999 22.2663C437.251 22.5698 438.389 22.8353 439.413 23.0628C440.437 23.2904 441.253 23.4042 441.859 23.4042C442.58 23.4042 443.016 23.1577 443.168 22.6646C443.358 22.1336 443.377 21.4129 443.225 20.5026H448.402C449.085 22.1715 449.388 23.7456 449.313 25.2248C449.237 26.6662 448.782 27.842 447.947 28.7523C447.113 29.6626 445.88 30.1178 444.249 30.1178Z" fill="#D1CEED"/>
<path d="M59.7513 44.7965C57.1721 44.7965 54.9153 44.4172 52.9808 43.6586C51.0464 42.9 49.4344 41.838 48.1448 40.4725C46.8552 39.1071 45.888 37.4951 45.2432 35.6365C44.5984 33.74 44.276 31.6729 44.276 29.435C44.276 27.0834 44.5984 24.9404 45.2432 23.0059C45.9259 21.0336 46.9121 19.3268 48.2017 17.8854C49.4913 16.4441 51.0844 15.3252 52.9808 14.5287C54.8773 13.7321 57.0393 13.3339 59.4668 13.3339C61.8943 13.3339 63.9994 13.7321 65.7821 14.5287C67.6027 15.3252 69.063 16.4441 70.163 17.8854C71.3009 19.2888 72.0784 20.9577 72.4956 22.8922L64.9287 25.3386C64.8149 24.1628 64.4925 23.1577 63.9615 22.3232C63.4684 21.4508 62.7857 20.806 61.9133 20.3888C61.0788 19.9336 60.1306 19.7061 59.0686 19.7061C57.9686 19.7061 57.0203 19.9336 56.2238 20.3888C55.4273 20.806 54.7446 21.4319 54.1756 22.2663C53.6446 23.0628 53.2274 24.049 52.9239 25.2248C52.6584 26.3627 52.5257 27.6523 52.5257 29.0936C52.5257 31.1419 52.7912 32.8866 53.3222 34.3279C53.8912 35.7313 54.7066 36.8123 55.7687 37.5709C56.8686 38.2916 58.2151 38.6519 59.8082 38.6519C61.3254 38.6519 62.5391 38.3674 63.4494 37.7985C64.3597 37.1916 65.0235 36.433 65.4407 35.5227C65.8959 34.5745 66.1804 33.6073 66.2941 32.6211L73.4628 34.2142C73.2732 35.6934 72.856 37.0778 72.2112 38.3674C71.6043 39.6571 70.7319 40.776 69.594 41.7242C68.4561 42.6725 67.0717 43.4311 65.4407 44C63.8477 44.531 61.9512 44.7965 59.7513 44.7965ZM91.6922 44.7965C88.6958 44.7965 86.0596 44.2086 83.7839 43.0328C81.5081 41.819 79.7254 40.0553 78.4358 37.7416C77.1462 35.39 76.5014 32.4694 76.5014 28.9799C76.5014 25.4903 77.1462 22.5887 78.4358 20.275C79.7633 17.9613 81.565 16.2355 83.8408 15.0976C86.1545 13.9218 88.7716 13.3339 91.6922 13.3339C94.6886 13.3339 97.3247 13.9218 99.6005 15.0976C101.914 16.2734 103.716 18.0372 105.006 20.3888C106.333 22.7025 106.997 25.6041 106.997 29.0936C106.997 32.6211 106.314 35.5607 104.949 37.9123C103.621 40.226 101.8 41.9518 99.4867 43.0897C97.211 44.2276 94.6128 44.7965 91.6922 44.7965ZM91.9767 38.7088C93.4559 38.7088 94.6886 38.3674 95.6748 37.6847C96.6989 37.002 97.4575 35.9779 97.9506 34.6124C98.4816 33.209 98.7471 31.5211 98.7471 29.5488C98.7471 27.4627 98.4626 25.6989 97.8937 24.2576C97.3627 22.7784 96.5662 21.6594 95.5041 20.9008C94.4421 20.1043 93.0956 19.7061 91.4646 19.7061C90.0612 19.7061 88.8475 20.0474 87.8234 20.7302C86.7993 21.375 86.0217 22.3991 85.4907 23.8025C84.9597 25.1679 84.6942 26.8558 84.6942 28.8661C84.6942 32.0901 85.339 34.5366 86.6286 36.2055C87.9182 37.8744 89.7009 38.7088 91.9767 38.7088ZM126.362 44.7965C123.366 44.7965 120.73 44.2086 118.454 43.0328C116.178 41.819 114.395 40.0553 113.106 37.7416C111.816 35.39 111.171 32.4694 111.171 28.9799C111.171 25.4903 111.816 22.5887 113.106 20.275C114.433 17.9613 116.235 16.2355 118.511 15.0976C120.825 13.9218 123.442 13.3339 126.362 13.3339C129.359 13.3339 131.995 13.9218 134.271 15.0976C136.584 16.2734 138.386 18.0372 139.676 20.3888C141.003 22.7025 141.667 25.6041 141.667 29.0936C141.667 32.6211 140.984 35.5607 139.619 37.9123C138.291 40.226 136.471 41.9518 134.157 43.0897C131.881 44.2276 129.283 44.7965 126.362 44.7965ZM126.647 38.7088C128.126 38.7088 129.359 38.3674 130.345 37.6847C131.369 37.002 132.128 35.9779 132.621 34.6124C133.152 33.209 133.417 31.5211 133.417 29.5488C133.417 27.4627 133.133 25.6989 132.564 24.2576C132.033 22.7784 131.236 21.6594 130.174 20.9008C129.112 20.1043 127.766 19.7061 126.135 19.7061C124.731 19.7061 123.518 20.0474 122.493 20.7302C121.469 21.375 120.692 22.3991 120.161 23.8025C119.63 25.1679 119.364 26.8558 119.364 28.8661C119.364 32.0901 120.009 34.5366 121.299 36.2055C122.588 37.8744 124.371 38.7088 126.647 38.7088ZM147.491 44V29.5488V14.1304H154.262L154.319 24.3145H155.4C155.703 21.7732 156.215 19.7061 156.936 18.113C157.695 16.52 158.738 15.3442 160.065 14.5856C161.393 13.827 163.043 13.4477 165.015 13.4477C165.356 13.4477 165.717 13.4666 166.096 13.5046C166.513 13.5046 166.987 13.5615 167.518 13.6752L167.177 22.3801C166.608 22.1146 165.982 21.9249 165.299 21.8112C164.617 21.6974 164.01 21.6405 163.479 21.6405C162 21.6405 160.729 21.9818 159.667 22.6646C158.605 23.3473 157.732 24.3335 157.05 25.6231C156.405 26.8748 155.969 28.4109 155.741 30.2315V44H147.491ZM182.916 44.7965C180.413 44.7965 178.213 44.1517 176.316 42.8621C174.458 41.5725 173.017 39.7519 171.992 37.4002C170.968 35.0486 170.456 32.2608 170.456 29.0368C170.456 26.0024 170.912 23.3094 171.822 20.9577C172.732 18.6061 174.079 16.7665 175.861 15.439C177.644 14.1114 179.863 13.4477 182.518 13.4477C184.452 13.4477 186.083 13.808 187.411 14.5287C188.738 15.2493 189.819 16.3114 190.654 17.7148C191.526 19.0802 192.209 20.7302 192.702 22.6646H194.011C193.745 21.4508 193.499 20.275 193.271 19.1371C193.081 17.9613 192.93 16.8424 192.816 15.7803C192.702 14.7183 192.645 13.789 192.645 12.9925V3.32046H200.838V29.3212V44H194.011V35.352H192.873C192.456 37.4761 191.811 39.2398 190.938 40.6432C190.066 42.0466 188.947 43.0897 187.582 43.7724C186.254 44.4552 184.699 44.7965 182.916 44.7965ZM185.647 38.083C186.899 38.083 187.961 37.8175 188.833 37.2865C189.706 36.7554 190.426 36.0727 190.995 35.2383C191.564 34.3659 191.981 33.4366 192.247 32.4504C192.512 31.4263 192.645 30.4781 192.645 29.6057V28.5247C192.645 27.804 192.531 27.0644 192.304 26.3058C192.114 25.5093 191.83 24.7317 191.45 23.9731C191.071 23.2146 190.597 22.5508 190.028 21.9818C189.459 21.375 188.795 20.9008 188.037 20.5595C187.278 20.2181 186.444 20.0474 185.533 20.0474C184.168 20.0474 183.011 20.4267 182.063 21.1853C181.115 21.9439 180.375 23.0059 179.844 24.3714C179.313 25.6989 179.047 27.2541 179.047 29.0368C179.047 30.8574 179.313 32.4504 179.844 33.8159C180.413 35.1814 181.19 36.2434 182.177 37.002C183.163 37.7226 184.32 38.083 185.647 38.083ZM208.386 44V14.1304H216.579V44H208.386ZM212.54 9.63574C210.947 9.63574 209.714 9.31334 208.841 8.66854C208.007 7.9858 207.59 6.99963 207.59 5.71002C207.59 4.38249 208.007 3.37735 208.841 2.69462C209.714 2.01189 210.947 1.67052 212.54 1.67052C214.171 1.67052 215.403 2.01189 216.238 2.69462C217.11 3.37735 217.546 4.38249 217.546 5.71002C217.546 6.9617 217.11 7.92891 216.238 8.61164C215.403 9.29438 214.171 9.63574 212.54 9.63574ZM224.166 44V25.9076V14.1304H230.879L230.822 23.0628H231.96C232.453 20.9008 233.155 19.0992 234.065 17.6579C234.976 16.2165 236.113 15.1355 237.479 14.4149C238.882 13.6942 240.532 13.3339 242.429 13.3339C245.88 13.3339 248.497 14.5476 250.28 16.9751C252.101 19.4026 253.011 23.2146 253.011 28.4109V44H244.761V29.3212C244.761 26.1351 244.287 23.8214 243.339 22.3801C242.429 20.9008 241.082 20.1612 239.3 20.1612C237.782 20.1612 236.512 20.6353 235.488 21.5836C234.464 22.5318 233.686 23.7835 233.155 25.3386C232.662 26.8558 232.396 28.5626 232.358 30.4591V44H224.166ZM267.056 44.7965C265.387 44.7965 263.908 44.4741 262.618 43.8293C261.329 43.1466 260.324 42.1794 259.603 40.9277C258.882 39.676 258.522 38.1209 258.522 36.2624C258.522 34.6314 258.825 33.2659 259.432 32.166C260.077 31.066 261.006 30.1746 262.22 29.4919C263.434 28.8092 264.932 28.2402 266.715 27.7851C268.497 27.3299 270.527 26.9317 272.802 26.5903C274.016 26.4006 275.002 26.23 275.761 26.0782C276.557 25.8886 277.145 25.6041 277.525 25.2248C277.904 24.8076 278.094 24.2197 278.094 23.4611C278.094 22.3991 277.714 21.4888 276.956 20.7302C276.197 19.9716 275.002 19.5923 273.371 19.5923C272.271 19.5923 271.247 19.7819 270.299 20.1612C269.389 20.5405 268.592 21.1095 267.909 21.8681C267.265 22.6266 266.791 23.5939 266.487 24.7697L259.261 22.5508C259.717 20.9957 260.361 19.6492 261.196 18.5113C262.068 17.3734 263.111 16.4251 264.325 15.6666C265.539 14.87 266.923 14.2821 268.478 13.9028C270.034 13.5235 271.721 13.3339 273.542 13.3339C276.463 13.3339 278.833 13.808 280.654 14.7562C282.512 15.6666 283.897 17.1079 284.807 19.0802C285.717 21.0146 286.173 23.518 286.173 26.5903V31.7108C286.173 33.0383 286.192 34.3848 286.229 35.7503C286.305 37.1158 286.381 38.5002 286.457 39.9036C286.571 41.2691 286.685 42.6345 286.798 44H279.573C279.421 43.0518 279.269 41.9708 279.118 40.757C279.004 39.5053 278.909 38.2537 278.833 37.002H277.809C277.278 38.4433 276.519 39.7519 275.533 40.9277C274.547 42.1035 273.333 43.0518 271.892 43.7724C270.489 44.4552 268.877 44.7965 267.056 44.7965ZM270.527 38.8795C271.247 38.8795 271.968 38.7467 272.689 38.4812C273.447 38.2157 274.168 37.8554 274.851 37.4002C275.571 36.9072 276.216 36.3003 276.785 35.5796C277.392 34.859 277.885 34.0435 278.264 33.1332L278.15 28.354L279.459 28.6385C278.776 29.1316 277.98 29.5298 277.069 29.8333C276.159 30.0988 275.211 30.3074 274.225 30.4591C273.276 30.6108 272.328 30.7815 271.38 30.9712C270.432 31.1608 269.578 31.4074 268.82 31.7108C268.099 32.0142 267.511 32.4315 267.056 32.9625C266.639 33.4556 266.43 34.1573 266.43 35.0676C266.43 36.2434 266.809 37.1727 267.568 37.8554C268.327 38.5381 269.313 38.8795 270.527 38.8795ZM307.164 44.7965C304.585 44.7965 302.328 44.4172 300.394 43.6586C298.46 42.9 296.848 41.838 295.558 40.4725C294.268 39.1071 293.301 37.4951 292.656 35.6365C292.012 33.74 291.689 31.6729 291.689 29.435C291.689 27.0834 292.012 24.9404 292.656 23.0059C293.339 21.0336 294.325 19.3268 295.615 17.8854C296.904 16.4441 298.497 15.3252 300.394 14.5287C302.29 13.7321 304.452 13.3339 306.88 13.3339C309.307 13.3339 311.413 13.7321 313.195 14.5287C315.016 15.3252 316.476 16.4441 317.576 17.8854C318.714 19.2888 319.492 20.9577 319.909 22.8922L312.342 25.3386C312.228 24.1628 311.906 23.1577 311.375 22.3232C310.882 21.4508 310.199 20.806 309.326 20.3888C308.492 19.9336 307.544 19.7061 306.482 19.7061C305.382 19.7061 304.433 19.9336 303.637 20.3888C302.84 20.806 302.158 21.4319 301.589 22.2663C301.058 23.0628 300.641 24.049 300.337 25.2248C300.072 26.3627 299.939 27.6523 299.939 29.0936C299.939 31.1419 300.204 32.8866 300.735 34.3279C301.304 35.7313 302.12 36.8123 303.182 37.5709C304.282 38.2916 305.628 38.6519 307.221 38.6519C308.738 38.6519 309.952 38.3674 310.863 37.7985C311.773 37.1916 312.437 36.433 312.854 35.5227C313.309 34.5745 313.593 33.6073 313.707 32.6211L320.876 34.2142C320.686 35.6934 320.269 37.0778 319.624 38.3674C319.017 39.6571 318.145 40.776 317.007 41.7242C315.869 42.6725 314.485 43.4311 312.854 44C311.261 44.531 309.364 44.7965 307.164 44.7965ZM325.564 44V14.1304H333.757V44H325.564ZM329.718 9.63574C328.125 9.63574 326.892 9.31334 326.02 8.66854C325.185 7.9858 324.768 6.99963 324.768 5.71002C324.768 4.38249 325.185 3.37735 326.02 2.69462C326.892 2.01189 328.125 1.67052 329.718 1.67052C331.349 1.67052 332.581 2.01189 333.416 2.69462C334.288 3.37735 334.724 4.38249 334.724 5.71002C334.724 6.9617 334.288 7.92891 333.416 8.61164C332.581 9.29438 331.349 9.63574 329.718 9.63574ZM354.885 44.7965C351.888 44.7965 349.252 44.2086 346.976 43.0328C344.701 41.819 342.918 40.0553 341.628 37.7416C340.339 35.39 339.694 32.4694 339.694 28.9799C339.694 25.4903 340.339 22.5887 341.628 20.275C342.956 17.9613 344.757 16.2355 347.033 15.0976C349.347 13.9218 351.964 13.3339 354.885 13.3339C357.881 13.3339 360.517 13.9218 362.793 15.0976C365.107 16.2734 366.908 18.0372 368.198 20.3888C369.525 22.7025 370.189 25.6041 370.189 29.0936C370.189 32.6211 369.507 35.5607 368.141 37.9123C366.814 40.226 364.993 41.9518 362.679 43.0897C360.403 44.2276 357.805 44.7965 354.885 44.7965ZM355.169 38.7088C356.648 38.7088 357.881 38.3674 358.867 37.6847C359.891 37.002 360.65 35.9779 361.143 34.6124C361.674 33.209 361.94 31.5211 361.94 29.5488C361.94 27.4627 361.655 25.6989 361.086 24.2576C360.555 22.7784 359.759 21.6594 358.697 20.9008C357.635 20.1043 356.288 19.7061 354.657 19.7061C353.254 19.7061 352.04 20.0474 351.016 20.7302C349.992 21.375 349.214 22.3991 348.683 23.8025C348.152 25.1679 347.887 26.8558 347.887 28.8661C347.887 32.0901 348.531 34.5366 349.821 36.2055C351.111 37.8744 352.893 38.7088 355.169 38.7088ZM357.445 10.034H351.186L355.454 0.41884H363.589L357.445 10.034ZM376.014 44V25.9076V14.1304H382.727L382.67 23.0628H383.808C384.301 20.9008 385.003 19.0992 385.913 17.6579C386.824 16.2165 387.962 15.1355 389.327 14.4149C390.731 13.6942 392.38 13.3339 394.277 13.3339C397.729 13.3339 400.346 14.5476 402.128 16.9751C403.949 19.4026 404.859 23.2146 404.859 28.4109V44H396.61V29.3212C396.61 26.1351 396.136 23.8214 395.187 22.3801C394.277 20.9008 392.93 20.1612 391.148 20.1612C389.631 20.1612 388.36 20.6353 387.336 21.5836C386.312 22.5318 385.534 23.7835 385.003 25.3386C384.51 26.8558 384.245 28.5626 384.207 30.4591V44H376.014Z" fill="#FAEDC1"/>
</svg>
