<svg width="572" height="53" viewBox="0 0 572 53" fill="none" xmlns="http://www.w3.org/2000/svg">
<path d="M21.2905 29.1178C20.1905 29.1178 18.9768 29.004 17.6493 28.7764C16.3597 28.5109 15.07 28.2264 13.7804 27.923C12.5288 27.6195 11.3719 27.354 10.3099 27.1264C9.28578 26.8609 8.47029 26.7282 7.86342 26.7282C7.14275 26.7282 6.70656 26.9937 6.55484 27.5247C6.40312 28.0557 6.38416 28.7764 6.49795 29.6867H1.26366C0.467135 27.7902 0.144733 26.1403 0.296451 24.7369C0.4861 23.2955 1.05504 22.1766 2.00329 21.3801C2.98946 20.5457 4.2601 20.1284 5.81521 20.1284C6.87724 20.1284 8.0341 20.2422 9.28578 20.4698C10.5754 20.6974 11.8271 20.9629 13.0408 21.2663C14.2925 21.5698 15.4304 21.8353 16.4545 22.0628C17.4786 22.2904 18.2941 22.4042 18.9009 22.4042C19.6216 22.4042 20.0578 22.1577 20.2095 21.6646C20.3992 21.1336 20.4181 20.4129 20.2664 19.5026H25.4438C26.1265 21.1715 26.43 22.7456 26.3541 24.2248C26.2783 25.6662 25.8231 26.842 24.9886 27.7523C24.1542 28.6626 22.9215 29.1178 21.2905 29.1178ZM566.622 29.1178C565.522 29.1178 564.308 29.004 562.98 28.7764C561.691 28.5109 560.401 28.2264 559.112 27.923C557.86 27.6195 556.703 27.354 555.641 27.1264C554.617 26.8609 553.801 26.7282 553.195 26.7282C552.474 26.7282 552.038 26.9937 551.886 27.5247C551.734 28.0557 551.715 28.7764 551.829 29.6867H546.595C545.798 27.7902 545.476 26.1403 545.628 24.7369C545.817 23.2955 546.386 22.1766 547.334 21.3801C548.321 20.5457 549.591 20.1284 551.146 20.1284C552.208 20.1284 553.365 20.2422 554.617 20.4698C555.907 20.6974 557.158 20.9629 558.372 21.2663C559.624 21.5698 560.762 21.8353 561.786 22.0628C562.81 22.2904 563.625 22.4042 564.232 22.4042C564.953 22.4042 565.389 22.1577 565.541 21.6646C565.73 21.1336 565.749 20.4129 565.598 19.5026H570.775C571.458 21.1715 571.761 22.7456 571.685 24.2248C571.609 25.6662 571.154 26.842 570.32 27.7523C569.485 28.6626 568.253 29.1178 566.622 29.1178Z" fill="#D1CEED"/>
<path d="M59.1133 43.7965C56.6479 43.7965 54.448 43.4552 52.5136 42.7724C50.6171 42.0897 49.0051 41.1035 47.6775 39.8139C46.35 38.5243 45.3259 36.9313 44.6052 35.0348C43.9225 33.1383 43.5811 30.9953 43.5811 28.6057C43.5811 26.2541 43.9035 24.0921 44.5483 22.1197C45.2311 20.1095 46.2172 18.3837 47.5069 16.9423C48.7965 15.4631 50.3705 14.3252 52.2291 13.5287C54.0876 12.7321 56.1927 12.3339 58.5444 12.3339C60.8202 12.3339 62.8494 12.7132 64.6321 13.4718C66.4148 14.1924 67.894 15.2924 69.0699 16.7717C70.2836 18.2509 71.156 20.0715 71.687 22.2335C72.2559 24.3576 72.4646 26.804 72.3128 29.5729L48.8723 29.8005V25.3058L67.5906 25.1351L64.689 27.4109C64.9545 25.4006 64.8217 23.7507 64.2907 22.4611C63.7597 21.1715 62.9821 20.2232 61.958 19.6164C60.9719 19.0095 59.8719 18.7061 58.6582 18.7061C57.2168 18.7061 55.9462 19.0854 54.8462 19.844C53.7463 20.6025 52.8929 21.7215 52.286 23.2007C51.6791 24.6421 51.3757 26.3868 51.3757 28.435C51.3757 31.659 52.0774 34.0296 53.4808 35.5468C54.9221 37.064 56.7996 37.8226 59.1133 37.8226C60.1754 37.8226 61.0667 37.6898 61.7874 37.4243C62.546 37.1209 63.1528 36.7416 63.608 36.2865C64.1011 35.8313 64.4804 35.3192 64.7459 34.7503C65.0493 34.1814 65.2959 33.6124 65.4855 33.0435L72.5973 34.5796C72.2559 35.983 71.7439 37.2537 71.0612 38.3915C70.4164 39.4915 69.544 40.4587 68.444 41.2932C67.3441 42.0897 66.0165 42.6966 64.4614 43.1138C62.9442 43.5689 61.1615 43.7965 59.1133 43.7965ZM99.2746 52.5583V44.1948C99.2746 43.2465 99.3315 42.2793 99.4453 41.2932C99.5591 40.2691 99.7108 39.226 99.9004 38.164C100.128 37.1019 100.356 36.0399 100.583 34.9779H99.4453C98.9143 36.7985 98.2126 38.3726 97.3402 39.7001C96.4678 41.0277 95.3678 42.0518 94.0403 42.7724C92.7128 43.4552 91.0818 43.7965 89.1474 43.7965C86.4923 43.7965 84.2734 43.1138 82.4907 41.7483C80.708 40.3829 79.3615 38.5433 78.4512 36.2296C77.5409 33.8779 77.0857 31.2228 77.0857 28.2643C77.0857 25.0024 77.5788 22.1956 78.565 19.844C79.5891 17.4544 81.0494 15.6148 82.9459 14.3252C84.8424 12.9977 87.0992 12.3339 89.7163 12.3339C91.5369 12.3339 93.13 12.6752 94.4955 13.358C95.8609 14.0407 96.9798 15.0459 97.8522 16.3734C98.7246 17.7009 99.3125 19.3888 99.616 21.437H100.754L100.64 13.1873H107.467V28.0368V52.5583H99.2746ZM92.1628 37.2537C93.0731 37.2537 93.8886 37.083 94.6092 36.7416C95.3678 36.3623 96.0316 35.8882 96.6006 35.3192C97.1695 34.7124 97.6436 34.0486 98.0229 33.3279C98.4401 32.6073 98.7436 31.8487 98.9332 31.0522C99.1608 30.2556 99.2746 29.497 99.2746 28.7764V27.6954C99.2746 26.7851 99.1229 25.8179 98.8194 24.7938C98.5539 23.7697 98.1367 22.8404 97.5678 22.0059C97.0367 21.1336 96.335 20.4319 95.4627 19.9008C94.5903 19.3319 93.5282 19.0474 92.2766 19.0474C90.949 19.0474 89.7922 19.4267 88.806 20.1853C87.8198 20.9439 87.0423 22.0059 86.4733 23.3714C85.9423 24.7369 85.6768 26.3679 85.6768 28.2643C85.6768 30.0091 85.9423 31.5642 86.4733 32.9297C87.0044 34.2572 87.744 35.3192 88.6922 36.1158C89.6405 36.8744 90.7973 37.2537 92.1628 37.2537ZM125.143 43.7965C121.653 43.7965 119.017 42.6207 117.235 40.2691C115.49 37.8795 114.617 34.2572 114.617 29.4022V13.1304H122.81V28.3781C122.81 31.2987 123.246 33.4797 124.119 34.921C124.991 36.3244 126.319 37.0261 128.101 37.0261C129.163 37.0261 130.093 36.7606 130.889 36.2296C131.686 35.6985 132.369 34.9589 132.937 34.0107C133.506 33.0624 133.924 31.9435 134.189 30.6539C134.493 29.3643 134.663 27.9799 134.701 26.5006V13.1304H142.894V30.8246V43H136.294L136.237 33.6693H135.213C134.644 36.0209 133.924 37.9554 133.051 39.4725C132.217 40.9518 131.136 42.0518 129.808 42.7724C128.519 43.4552 126.964 43.7965 125.143 43.7965ZM150.408 43V13.1304H158.601V43H150.408ZM154.561 8.63574C152.968 8.63574 151.736 8.31334 150.863 7.66854C150.029 6.9858 149.612 5.99963 149.612 4.71002C149.612 3.38249 150.029 2.37735 150.863 1.69462C151.736 1.01189 152.968 0.670519 154.561 0.670519C156.192 0.670519 157.425 1.01189 158.259 1.69462C159.132 2.37735 159.568 3.38249 159.568 4.71002C159.568 5.9617 159.132 6.92891 158.259 7.61164C157.425 8.29438 156.192 8.63574 154.561 8.63574ZM166.187 52.5583V28.3212V13.1304H172.958L173.015 21.437L174.039 21.4939C174.38 19.4836 174.968 17.7958 175.803 16.4303C176.675 15.0648 177.794 14.0407 179.159 13.358C180.525 12.6752 182.099 12.3339 183.882 12.3339C186.537 12.3339 188.812 12.9977 190.709 14.3252C192.605 15.6148 194.047 17.4544 195.033 19.844C196.057 22.1956 196.569 24.9834 196.569 28.2074C196.569 31.2039 196.114 33.8779 195.204 36.2296C194.293 38.5433 192.928 40.3829 191.107 41.7483C189.324 43.1138 187.087 43.7965 184.394 43.7965C182.497 43.7965 180.885 43.4362 179.558 42.7155C178.268 41.9949 177.187 40.9897 176.315 39.7001C175.48 38.3726 174.778 36.7985 174.209 34.9779H173.129C173.356 36.002 173.565 37.045 173.754 38.1071C173.944 39.1691 174.096 40.2122 174.209 41.2363C174.323 42.2224 174.38 43.1896 174.38 44.1379V52.5583H166.187ZM181.549 37.2537C182.914 37.2537 184.071 36.8744 185.019 36.1158C185.968 35.3572 186.688 34.2951 187.181 32.9297C187.712 31.5642 187.978 30.0091 187.978 28.2643C187.978 26.3679 187.712 24.7558 187.181 23.4283C186.65 22.0628 185.892 21.0008 184.906 20.2422C183.919 19.4836 182.744 19.1043 181.378 19.1043C180.164 19.1043 179.121 19.3698 178.249 19.9008C177.377 20.4319 176.637 21.1336 176.03 22.0059C175.461 22.8783 175.044 23.8266 174.778 24.8507C174.513 25.8368 174.38 26.7851 174.38 27.6954V28.7764C174.38 29.497 174.475 30.2556 174.665 31.0522C174.854 31.8108 175.158 32.5693 175.575 33.3279C175.992 34.0486 176.485 34.7124 177.054 35.3192C177.623 35.8882 178.287 36.3623 179.046 36.7416C179.804 37.083 180.639 37.2537 181.549 37.2537ZM216.176 43.7965C213.18 43.7965 210.544 43.2086 208.268 42.0328C205.992 40.819 204.209 39.0553 202.92 36.7416C201.63 34.39 200.985 31.4694 200.985 27.9799C200.985 24.4903 201.63 21.5887 202.92 19.275C204.247 16.9613 206.049 15.2355 208.325 14.0976C210.639 12.9218 213.256 12.3339 216.176 12.3339C219.173 12.3339 221.809 12.9218 224.085 14.0976C226.398 15.2734 228.2 17.0372 229.49 19.3888C230.817 21.7025 231.481 24.6041 231.481 28.0936C231.481 31.6211 230.798 34.5607 229.433 36.9123C228.105 39.226 226.285 40.9518 223.971 42.0897C221.695 43.2276 219.097 43.7965 216.176 43.7965ZM216.461 37.7088C217.94 37.7088 219.173 37.3674 220.159 36.6847C221.183 36.002 221.942 34.9779 222.435 33.6124C222.966 32.209 223.231 30.5211 223.231 28.5488C223.231 26.4627 222.947 24.6989 222.378 23.2576C221.847 21.7784 221.05 20.6594 219.988 19.9008C218.926 19.1043 217.58 18.7061 215.949 18.7061C214.545 18.7061 213.332 19.0474 212.307 19.7302C211.283 20.375 210.506 21.3991 209.975 22.8025C209.444 24.1679 209.178 25.8558 209.178 27.8661C209.178 31.0901 209.823 33.5366 211.113 35.2055C212.402 36.8744 214.185 37.7088 216.461 37.7088ZM261.285 43.7965C258.781 43.7965 256.581 43.1517 254.685 41.8621C252.826 40.5725 251.385 38.7519 250.361 36.4002C249.337 34.0486 248.825 31.2608 248.825 28.0368C248.825 25.0024 249.28 22.3094 250.19 19.9577C251.101 17.6061 252.447 15.7665 254.23 14.439C256.012 13.1114 258.231 12.4477 260.886 12.4477C262.821 12.4477 264.452 12.808 265.779 13.5287C267.107 14.2493 268.188 15.3114 269.022 16.7148C269.895 18.0802 270.577 19.7302 271.071 21.6646H272.379C272.114 20.4508 271.867 19.275 271.639 18.1371C271.45 16.9613 271.298 15.8424 271.184 14.7803C271.071 13.7183 271.014 12.789 271.014 11.9925V2.32046H279.206V28.3212V43H272.379V34.352H271.241C270.824 36.4761 270.179 38.2398 269.307 39.6432C268.434 41.0466 267.316 42.0897 265.95 42.7724C264.622 43.4552 263.067 43.7965 261.285 43.7965ZM264.016 37.083C265.267 37.083 266.329 36.8175 267.202 36.2865C268.074 35.7554 268.795 35.0727 269.364 34.2383C269.933 33.3659 270.35 32.4366 270.615 31.4504C270.881 30.4263 271.014 29.4781 271.014 28.6057V27.5247C271.014 26.804 270.9 26.0644 270.672 25.3058C270.483 24.5093 270.198 23.7317 269.819 22.9731C269.44 22.2146 268.965 21.5508 268.396 20.9818C267.828 20.375 267.164 19.9008 266.405 19.5595C265.647 19.2181 264.812 19.0474 263.902 19.0474C262.536 19.0474 261.38 19.4267 260.431 20.1853C259.483 20.9439 258.743 22.0059 258.212 23.3714C257.681 24.6989 257.416 26.2541 257.416 28.0368C257.416 29.8574 257.681 31.4504 258.212 32.8159C258.781 34.1814 259.559 35.2434 260.545 36.002C261.531 36.7226 262.688 37.083 264.016 37.083ZM300.637 43.7965C298.172 43.7965 295.972 43.4552 294.037 42.7724C292.141 42.0897 290.529 41.1035 289.201 39.8139C287.874 38.5243 286.85 36.9313 286.129 35.0348C285.446 33.1383 285.105 30.9953 285.105 28.6057C285.105 26.2541 285.427 24.0921 286.072 22.1197C286.755 20.1095 287.741 18.3837 289.031 16.9423C290.32 15.4631 291.894 14.3252 293.753 13.5287C295.611 12.7321 297.716 12.3339 300.068 12.3339C302.344 12.3339 304.373 12.7132 306.156 13.4718C307.938 14.1924 309.418 15.2924 310.594 16.7717C311.807 18.2509 312.68 20.0715 313.211 22.2335C313.78 24.3576 313.988 26.804 313.836 29.5729L290.396 29.8005V25.3058L309.114 25.1351L306.213 27.4109C306.478 25.4006 306.345 23.7507 305.814 22.4611C305.283 21.1715 304.506 20.2232 303.482 19.6164C302.496 19.0095 301.396 18.7061 300.182 18.7061C298.74 18.7061 297.47 19.0854 296.37 19.844C295.27 20.6025 294.417 21.7215 293.81 23.2007C293.203 24.6421 292.899 26.3868 292.899 28.435C292.899 31.659 293.601 34.0296 295.004 35.5468C296.446 37.064 298.323 37.8226 300.637 37.8226C301.699 37.8226 302.59 37.6898 303.311 37.4243C304.07 37.1209 304.676 36.7416 305.132 36.2865C305.625 35.8313 306.004 35.3192 306.27 34.7503C306.573 34.1814 306.82 33.6124 307.009 33.0435L314.121 34.5796C313.78 35.983 313.268 37.2537 312.585 38.3915C311.94 39.4915 311.068 40.4587 309.968 41.2932C308.868 42.0897 307.54 42.6966 305.985 43.1138C304.468 43.5689 302.685 43.7965 300.637 43.7965ZM332.095 43.7965C330.084 43.7965 328.264 43.6069 326.633 43.2276C325.002 42.8483 323.599 42.2983 322.423 41.5776C321.247 40.857 320.299 40.0036 319.578 39.0174C318.857 37.9933 318.383 36.8554 318.156 35.6037L324.414 33.0435C324.566 33.8779 324.983 34.6555 325.666 35.3761C326.348 36.0968 327.259 36.6847 328.397 37.1399C329.572 37.5571 330.976 37.7657 332.607 37.7657C334.352 37.7657 335.698 37.5192 336.646 37.0261C337.595 36.4951 338.069 35.7554 338.069 34.8072C338.069 34.0865 337.803 33.5176 337.272 33.1004C336.741 32.6831 335.964 32.3228 334.939 32.0194C333.915 31.7159 332.683 31.4315 331.241 31.166C329.838 30.8246 328.397 30.4643 326.917 30.085C325.476 29.7057 324.13 29.1746 322.878 28.4919C321.664 27.8092 320.659 26.9178 319.862 25.8179C319.104 24.68 318.725 23.2387 318.725 21.4939C318.725 19.6733 319.218 18.0802 320.204 16.7148C321.19 15.3493 322.631 14.2873 324.528 13.5287C326.424 12.7321 328.738 12.3339 331.469 12.3339C333.934 12.3339 336.096 12.6752 337.955 13.358C339.813 14.0028 341.331 14.951 342.506 16.2027C343.72 17.4165 344.536 18.8767 344.953 20.5836L338.296 22.8025C338.145 21.8922 337.765 21.0956 337.158 20.4129C336.589 19.7302 335.812 19.2181 334.826 18.8767C333.877 18.5354 332.759 18.3647 331.469 18.3647C329.838 18.3647 328.567 18.6302 327.657 19.1612C326.785 19.6922 326.348 20.3939 326.348 21.2663C326.348 21.987 326.633 22.5749 327.202 23.03C327.809 23.4852 328.643 23.8645 329.705 24.1679C330.767 24.4334 332.019 24.7179 333.46 25.0213C334.977 25.3248 336.457 25.6851 337.898 26.1023C339.339 26.4816 340.629 26.9937 341.767 27.6385C342.943 28.2833 343.872 29.1367 344.555 30.1987C345.237 31.2608 345.579 32.6262 345.579 34.2951C345.579 36.2675 345.048 37.9743 343.986 39.4156C342.924 40.819 341.388 41.9 339.377 42.6586C337.367 43.4172 334.939 43.7965 332.095 43.7965ZM358.204 43.7965C356.535 43.7965 355.055 43.4741 353.766 42.8293C352.476 42.1466 351.471 41.1794 350.75 39.9277C350.03 38.676 349.669 37.1209 349.669 35.2624C349.669 33.6314 349.973 32.2659 350.58 31.166C351.224 30.066 352.154 29.1746 353.367 28.4919C354.581 27.8092 356.079 27.2402 357.862 26.7851C359.645 26.3299 361.674 25.9317 363.95 25.5903C365.164 25.4006 366.15 25.23 366.908 25.0782C367.705 24.8886 368.293 24.6041 368.672 24.2248C369.051 23.8076 369.241 23.2197 369.241 22.4611C369.241 21.3991 368.862 20.4888 368.103 19.7302C367.345 18.9716 366.15 18.5923 364.519 18.5923C363.419 18.5923 362.395 18.7819 361.447 19.1612C360.536 19.5405 359.74 20.1095 359.057 20.8681C358.412 21.6266 357.938 22.5939 357.635 23.7697L350.409 21.5508C350.864 19.9957 351.509 18.6492 352.343 17.5113C353.216 16.3734 354.259 15.4251 355.473 14.6666C356.686 13.87 358.071 13.2821 359.626 12.9028C361.181 12.5235 362.869 12.3339 364.689 12.3339C367.61 12.3339 369.981 12.808 371.801 13.7562C373.66 14.6666 375.044 16.1079 375.955 18.0802C376.865 20.0146 377.32 22.518 377.32 25.5903V30.7108C377.32 32.0383 377.339 33.3848 377.377 34.7503C377.453 36.1158 377.529 37.5002 377.605 38.9036C377.718 40.2691 377.832 41.6345 377.946 43H370.72C370.569 42.0518 370.417 40.9708 370.265 39.757C370.151 38.5053 370.057 37.2537 369.981 36.002H368.957C368.426 37.4433 367.667 38.7519 366.681 39.9277C365.695 41.1035 364.481 42.0518 363.04 42.7724C361.636 43.4552 360.024 43.7965 358.204 43.7965ZM361.674 37.8795C362.395 37.8795 363.115 37.7467 363.836 37.4812C364.595 37.2157 365.315 36.8554 365.998 36.4002C366.719 35.9072 367.364 35.3003 367.932 34.5796C368.539 33.859 369.032 33.0435 369.412 32.1332L369.298 27.354L370.607 27.6385C369.924 28.1316 369.127 28.5298 368.217 28.8333C367.307 29.0988 366.358 29.3074 365.372 29.4591C364.424 29.6108 363.476 29.7815 362.528 29.9712C361.579 30.1608 360.726 30.4074 359.967 30.7108C359.247 31.0142 358.659 31.4315 358.204 31.9625C357.786 32.4556 357.578 33.1573 357.578 34.0676C357.578 35.2434 357.957 36.1727 358.716 36.8554C359.474 37.5381 360.46 37.8795 361.674 37.8795ZM384.487 43V28.5488V13.1304H391.257L391.314 23.3145H392.395C392.698 20.7732 393.21 18.7061 393.931 17.113C394.69 15.52 395.733 14.3442 397.06 13.5856C398.388 12.827 400.038 12.4477 402.01 12.4477C402.351 12.4477 402.712 12.4666 403.091 12.5046C403.508 12.5046 403.982 12.5615 404.513 12.6752L404.172 21.3801C403.603 21.1146 402.977 20.9249 402.295 20.8112C401.612 20.6974 401.005 20.6405 400.474 20.6405C398.995 20.6405 397.724 20.9818 396.662 21.6646C395.6 22.3473 394.728 23.3335 394.045 24.6231C393.4 25.8748 392.964 27.4109 392.736 29.2315V43H384.487ZM409.156 43V28.5488V13.1304H415.926L415.983 23.3145H417.064C417.367 20.7732 417.879 18.7061 418.6 17.113C419.359 15.52 420.402 14.3442 421.729 13.5856C423.057 12.827 424.707 12.4477 426.679 12.4477C427.02 12.4477 427.381 12.4666 427.76 12.5046C428.177 12.5046 428.651 12.5615 429.182 12.6752L428.841 21.3801C428.272 21.1146 427.646 20.9249 426.964 20.8112C426.281 20.6974 425.674 20.6405 425.143 20.6405C423.664 20.6405 422.393 20.9818 421.331 21.6646C420.269 22.3473 419.397 23.3335 418.714 24.6231C418.069 25.8748 417.633 27.4109 417.405 29.2315V43H409.156ZM447.254 43.7965C444.258 43.7965 441.622 43.2086 439.346 42.0328C437.07 40.819 435.288 39.0553 433.998 36.7416C432.708 34.39 432.064 31.4694 432.064 27.9799C432.064 24.4903 432.708 21.5887 433.998 19.275C435.326 16.9613 437.127 15.2355 439.403 14.0976C441.717 12.9218 444.334 12.3339 447.254 12.3339C450.251 12.3339 452.887 12.9218 455.163 14.0976C457.476 15.2734 459.278 17.0372 460.568 19.3888C461.895 21.7025 462.559 24.6041 462.559 28.0936C462.559 31.6211 461.876 34.5607 460.511 36.9123C459.183 39.226 457.363 40.9518 455.049 42.0897C452.773 43.2276 450.175 43.7965 447.254 43.7965ZM447.539 37.7088C449.018 37.7088 450.251 37.3674 451.237 36.6847C452.261 36.002 453.02 34.9779 453.513 33.6124C454.044 32.209 454.309 30.5211 454.309 28.5488C454.309 26.4627 454.025 24.6989 453.456 23.2576C452.925 21.7784 452.128 20.6594 451.066 19.9008C450.004 19.1043 448.658 18.7061 447.027 18.7061C445.623 18.7061 444.41 19.0474 443.386 19.7302C442.362 20.375 441.584 21.3991 441.053 22.8025C440.522 24.1679 440.256 25.8558 440.256 27.8661C440.256 31.0901 440.901 33.5366 442.191 35.2055C443.48 36.8744 445.263 37.7088 447.539 37.7088ZM468.384 43V2.32046H476.463V43H468.384ZM483.996 43V2.32046H492.075V43H483.996ZM513.15 43.7965C510.153 43.7965 507.517 43.2086 505.241 42.0328C502.966 40.819 501.183 39.0553 499.893 36.7416C498.604 34.39 497.959 31.4694 497.959 27.9799C497.959 24.4903 498.604 21.5887 499.893 19.275C501.221 16.9613 503.023 15.2355 505.298 14.0976C507.612 12.9218 510.229 12.3339 513.15 12.3339C516.146 12.3339 518.782 12.9218 521.058 14.0976C523.372 15.2734 525.173 17.0372 526.463 19.3888C527.791 21.7025 528.454 24.6041 528.454 28.0936C528.454 31.6211 527.772 34.5607 526.406 36.9123C525.079 39.226 523.258 40.9518 520.944 42.0897C518.669 43.2276 516.07 43.7965 513.15 43.7965ZM513.434 37.7088C514.914 37.7088 516.146 37.3674 517.132 36.6847C518.157 36.002 518.915 34.9779 519.408 33.6124C519.939 32.209 520.205 30.5211 520.205 28.5488C520.205 26.4627 519.92 24.6989 519.351 23.2576C518.82 21.7784 518.024 20.6594 516.962 19.9008C515.9 19.1043 514.553 18.7061 512.922 18.7061C511.519 18.7061 510.305 19.0474 509.281 19.7302C508.257 20.375 507.479 21.3991 506.948 22.8025C506.417 24.1679 506.152 25.8558 506.152 27.8661C506.152 31.0901 506.797 33.5366 508.086 35.2055C509.376 36.8744 511.158 37.7088 513.434 37.7088Z" fill="#FAEDC1"/>
</svg>
