<svg width="476" height="53" viewBox="0 0 476 53" fill="none" xmlns="http://www.w3.org/2000/svg">
<path d="M21.7397 29.1178C20.6397 29.1178 19.426 29.004 18.0985 28.7764C16.8088 28.5109 15.5192 28.2264 14.2296 27.923C12.9779 27.6195 11.8211 27.354 10.7591 27.1264C9.73497 26.8609 8.91948 26.7282 8.3126 26.7282C7.59194 26.7282 7.15575 26.9937 7.00403 27.5247C6.85231 28.0557 6.83335 28.7764 6.94714 29.6867H1.71285C0.916323 27.7902 0.593921 26.1403 0.74564 24.7369C0.935288 23.2955 1.50423 22.1766 2.45247 21.3801C3.43864 20.5457 4.70929 20.1284 6.2644 20.1284C7.32643 20.1284 8.48329 20.2422 9.73496 20.4698C11.0246 20.6974 12.2763 20.9629 13.49 21.2663C14.7417 21.5698 15.8796 21.8353 16.9037 22.0628C17.9278 22.2904 18.7433 22.4042 19.3501 22.4042C20.0708 22.4042 20.507 22.1577 20.6587 21.6646C20.8484 21.1336 20.8673 20.4129 20.7156 19.5026H25.893C26.5757 21.1715 26.8792 22.7456 26.8033 24.2248C26.7274 25.6662 26.2723 26.842 25.4378 27.7523C24.6034 28.6626 23.3707 29.1178 21.7397 29.1178ZM470.173 29.1178C469.073 29.1178 467.859 29.004 466.531 28.7764C465.242 28.5109 463.952 28.2264 462.662 27.923C461.411 27.6195 460.254 27.354 459.192 27.1264C458.168 26.8609 457.352 26.7282 456.745 26.7282C456.025 26.7282 455.589 26.9937 455.437 27.5247C455.285 28.0557 455.266 28.7764 455.38 29.6867H450.146C449.349 27.7902 449.027 26.1403 449.178 24.7369C449.368 23.2955 449.937 22.1766 450.885 21.3801C451.871 20.5457 453.142 20.1284 454.697 20.1284C455.759 20.1284 456.916 20.2422 458.168 20.4698C459.457 20.6974 460.709 20.9629 461.923 21.2663C463.175 21.5698 464.312 21.8353 465.336 22.0628C466.361 22.2904 467.176 22.4042 467.783 22.4042C468.504 22.4042 468.94 22.1577 469.092 21.6646C469.281 21.1336 469.3 20.4129 469.148 19.5026H474.326C475.009 21.1715 475.312 22.7456 475.236 24.2248C475.16 25.6662 474.705 26.842 473.871 27.7523C473.036 28.6626 471.804 29.1178 470.173 29.1178Z" fill="#D1CEED"/>
<path d="M59.5625 43.7965C57.0971 43.7965 54.8972 43.4552 52.9628 42.7724C51.0663 42.0897 49.4543 41.1035 48.1267 39.8139C46.7992 38.5243 45.7751 36.9313 45.0544 35.0348C44.3717 33.1383 44.0303 30.9953 44.0303 28.6057C44.0303 26.2541 44.3527 24.0921 44.9975 22.1197C45.6803 20.1095 46.6664 18.3837 47.956 16.9423C49.2457 15.4631 50.8197 14.3252 52.6783 13.5287C54.5368 12.7321 56.6419 12.3339 58.9936 12.3339C61.2693 12.3339 63.2986 12.7132 65.0813 13.4718C66.864 14.1924 68.3432 15.2924 69.519 16.7717C70.7328 18.2509 71.6052 20.0715 72.1362 22.2335C72.7051 24.3576 72.9138 26.804 72.762 29.5729L49.3215 29.8005V25.3058L68.0398 25.1351L65.1382 27.4109C65.4037 25.4006 65.2709 23.7507 64.7399 22.4611C64.2089 21.1715 63.4313 20.2232 62.4072 19.6164C61.4211 19.0095 60.3211 18.7061 59.1074 18.7061C57.666 18.7061 56.3954 19.0854 55.2954 19.844C54.1955 20.6025 53.3421 21.7215 52.7352 23.2007C52.1283 24.6421 51.8249 26.3868 51.8249 28.435C51.8249 31.659 52.5266 34.0296 53.93 35.5468C55.3713 37.064 57.2488 37.8226 59.5625 37.8226C60.6245 37.8226 61.5159 37.6898 62.2366 37.4243C62.9951 37.1209 63.602 36.7416 64.0572 36.2865C64.5503 35.8313 64.9296 35.3192 65.1951 34.7503C65.4985 34.1814 65.745 33.6124 65.9347 33.0435L73.0465 34.5796C72.7051 35.983 72.1931 37.2537 71.5104 38.3915C70.8656 39.4915 69.9932 40.4587 68.8932 41.2932C67.7932 42.0897 66.4657 42.6966 64.9106 43.1138C63.3934 43.5689 61.6107 43.7965 59.5625 43.7965ZM99.7238 52.5583V44.1948C99.7238 43.2465 99.7807 42.2793 99.8945 41.2932C100.008 40.2691 100.16 39.226 100.35 38.164C100.577 37.1019 100.805 36.0399 101.032 34.9779H99.8945C99.3635 36.7985 98.6618 38.3726 97.7894 39.7001C96.917 41.0277 95.817 42.0518 94.4895 42.7724C93.162 43.4552 91.531 43.7965 89.5966 43.7965C86.9415 43.7965 84.7226 43.1138 82.9399 41.7483C81.1572 40.3829 79.8107 38.5433 78.9004 36.2296C77.9901 33.8779 77.5349 31.2228 77.5349 28.2643C77.5349 25.0024 78.028 22.1956 79.0142 19.844C80.0383 17.4544 81.4986 15.6148 83.3951 14.3252C85.2916 12.9977 87.5484 12.3339 90.1655 12.3339C91.9861 12.3339 93.5792 12.6752 94.9447 13.358C96.3101 14.0407 97.429 15.0459 98.3014 16.3734C99.1738 17.7009 99.7617 19.3888 100.065 21.437H101.203L101.089 13.1873H107.917V28.0368V52.5583H99.7238ZM92.612 37.2537C93.5223 37.2537 94.3378 37.083 95.0584 36.7416C95.817 36.3623 96.4808 35.8882 97.0497 35.3192C97.6187 34.7124 98.0928 34.0486 98.4721 33.3279C98.8893 32.6073 99.1928 31.8487 99.3824 31.0522C99.61 30.2556 99.7238 29.497 99.7238 28.7764V27.6954C99.7238 26.7851 99.5721 25.8179 99.2686 24.7938C99.0031 23.7697 98.5859 22.8404 98.017 22.0059C97.4859 21.1336 96.7842 20.4319 95.9119 19.9008C95.0395 19.3319 93.9774 19.0474 92.7258 19.0474C91.3982 19.0474 90.2414 19.4267 89.2552 20.1853C88.269 20.9439 87.4915 22.0059 86.9225 23.3714C86.3915 24.7369 86.126 26.3679 86.126 28.2643C86.126 30.0091 86.3915 31.5642 86.9225 32.9297C87.4535 34.2572 88.1932 35.3192 89.1414 36.1158C90.0897 36.8744 91.2465 37.2537 92.612 37.2537ZM125.592 43.7965C122.103 43.7965 119.466 42.6207 117.684 40.2691C115.939 37.8795 115.067 34.2572 115.067 29.4022V13.1304H123.259V28.3781C123.259 31.2987 123.696 33.4797 124.568 34.921C125.44 36.3244 126.768 37.0261 128.551 37.0261C129.613 37.0261 130.542 36.7606 131.338 36.2296C132.135 35.6985 132.818 34.9589 133.387 34.0107C133.956 33.0624 134.373 31.9435 134.638 30.6539C134.942 29.3643 135.112 27.9799 135.15 26.5006V13.1304H143.343V30.8246V43H136.743L136.687 33.6693H135.662C135.093 36.0209 134.373 37.9554 133.5 39.4725C132.666 40.9518 131.585 42.0518 130.257 42.7724C128.968 43.4552 127.413 43.7965 125.592 43.7965ZM150.857 43V13.1304H159.05V43H150.857ZM155.011 8.63574C153.417 8.63574 152.185 8.31334 151.312 7.66854C150.478 6.9858 150.061 5.99963 150.061 4.71002C150.061 3.38249 150.478 2.37735 151.312 1.69462C152.185 1.01189 153.417 0.670519 155.011 0.670519C156.642 0.670519 157.874 1.01189 158.709 1.69462C159.581 2.37735 160.017 3.38249 160.017 4.71002C160.017 5.9617 159.581 6.92891 158.709 7.61164C157.874 8.29438 156.642 8.63574 155.011 8.63574ZM166.637 52.5583V28.3212V13.1304H173.407L173.464 21.437L174.488 21.4939C174.829 19.4836 175.417 17.7958 176.252 16.4303C177.124 15.0648 178.243 14.0407 179.609 13.358C180.974 12.6752 182.548 12.3339 184.331 12.3339C186.986 12.3339 189.262 12.9977 191.158 14.3252C193.055 15.6148 194.496 17.4544 195.482 19.844C196.506 22.1956 197.018 24.9834 197.018 28.2074C197.018 31.2039 196.563 33.8779 195.653 36.2296C194.742 38.5433 193.377 40.3829 191.556 41.7483C189.774 43.1138 187.536 43.7965 184.843 43.7965C182.946 43.7965 181.334 43.4362 180.007 42.7155C178.717 41.9949 177.636 40.9897 176.764 39.7001C175.929 38.3726 175.228 36.7985 174.659 34.9779H173.578C173.805 36.002 174.014 37.045 174.204 38.1071C174.393 39.1691 174.545 40.2122 174.659 41.2363C174.772 42.2224 174.829 43.1896 174.829 44.1379V52.5583H166.637ZM181.998 37.2537C183.364 37.2537 184.52 36.8744 185.469 36.1158C186.417 35.3572 187.138 34.2951 187.631 32.9297C188.162 31.5642 188.427 30.0091 188.427 28.2643C188.427 26.3679 188.162 24.7558 187.631 23.4283C187.1 22.0628 186.341 21.0008 185.355 20.2422C184.369 19.4836 183.193 19.1043 181.827 19.1043C180.614 19.1043 179.571 19.3698 178.698 19.9008C177.826 20.4319 177.086 21.1336 176.479 22.0059C175.91 22.8783 175.493 23.8266 175.228 24.8507C174.962 25.8368 174.829 26.7851 174.829 27.6954V28.7764C174.829 29.497 174.924 30.2556 175.114 31.0522C175.303 31.8108 175.607 32.5693 176.024 33.3279C176.441 34.0486 176.934 34.7124 177.503 35.3192C178.072 35.8882 178.736 36.3623 179.495 36.7416C180.253 37.083 181.088 37.2537 181.998 37.2537ZM216.625 43.7965C213.629 43.7965 210.993 43.2086 208.717 42.0328C206.441 40.819 204.659 39.0553 203.369 36.7416C202.079 34.39 201.435 31.4694 201.435 27.9799C201.435 24.4903 202.079 21.5887 203.369 19.275C204.697 16.9613 206.498 15.2355 208.774 14.0976C211.088 12.9218 213.705 12.3339 216.625 12.3339C219.622 12.3339 222.258 12.9218 224.534 14.0976C226.847 15.2734 228.649 17.0372 229.939 19.3888C231.266 21.7025 231.93 24.6041 231.93 28.0936C231.93 31.6211 231.247 34.5607 229.882 36.9123C228.554 39.226 226.734 40.9518 224.42 42.0897C222.144 43.2276 219.546 43.7965 216.625 43.7965ZM216.91 37.7088C218.389 37.7088 219.622 37.3674 220.608 36.6847C221.632 36.002 222.391 34.9779 222.884 33.6124C223.415 32.209 223.68 30.5211 223.68 28.5488C223.68 26.4627 223.396 24.6989 222.827 23.2576C222.296 21.7784 221.499 20.6594 220.437 19.9008C219.375 19.1043 218.029 18.7061 216.398 18.7061C214.994 18.7061 213.781 19.0474 212.757 19.7302C211.733 20.375 210.955 21.3991 210.424 22.8025C209.893 24.1679 209.627 25.8558 209.627 27.8661C209.627 31.0901 210.272 33.5366 211.562 35.2055C212.851 36.8744 214.634 37.7088 216.91 37.7088ZM261.734 43.7965C259.231 43.7965 257.031 43.1517 255.134 41.8621C253.276 40.5725 251.834 38.7519 250.81 36.4002C249.786 34.0486 249.274 31.2608 249.274 28.0368C249.274 25.0024 249.729 22.3094 250.639 19.9577C251.55 17.6061 252.896 15.7665 254.679 14.439C256.462 13.1114 258.681 12.4477 261.336 12.4477C263.27 12.4477 264.901 12.808 266.229 13.5287C267.556 14.2493 268.637 15.3114 269.472 16.7148C270.344 18.0802 271.027 19.7302 271.52 21.6646H272.828C272.563 20.4508 272.316 19.275 272.089 18.1371C271.899 16.9613 271.747 15.8424 271.634 14.7803C271.52 13.7183 271.463 12.789 271.463 11.9925V2.32046H279.656V28.3212V43H272.828V34.352H271.69C271.273 36.4761 270.628 38.2398 269.756 39.6432C268.884 41.0466 267.765 42.0897 266.399 42.7724C265.072 43.4552 263.517 43.7965 261.734 43.7965ZM264.465 37.083C265.716 37.083 266.779 36.8175 267.651 36.2865C268.523 35.7554 269.244 35.0727 269.813 34.2383C270.382 33.3659 270.799 32.4366 271.065 31.4504C271.33 30.4263 271.463 29.4781 271.463 28.6057V27.5247C271.463 26.804 271.349 26.0644 271.121 25.3058C270.932 24.5093 270.647 23.7317 270.268 22.9731C269.889 22.2146 269.415 21.5508 268.846 20.9818C268.277 20.375 267.613 19.9008 266.854 19.5595C266.096 19.2181 265.261 19.0474 264.351 19.0474C262.986 19.0474 261.829 19.4267 260.88 20.1853C259.932 20.9439 259.193 22.0059 258.662 23.3714C258.131 24.6989 257.865 26.2541 257.865 28.0368C257.865 29.8574 258.131 31.4504 258.662 32.8159C259.231 34.1814 260.008 35.2434 260.994 36.002C261.98 36.7226 263.137 37.083 264.465 37.083ZM287.204 43V13.1304H295.397V43H287.204ZM291.357 8.63574C289.764 8.63574 288.531 8.31334 287.659 7.66854C286.825 6.9858 286.407 5.99963 286.407 4.71002C286.407 3.38249 286.825 2.37735 287.659 1.69462C288.531 1.01189 289.764 0.670519 291.357 0.670519C292.988 0.670519 294.221 1.01189 295.055 1.69462C295.928 2.37735 296.364 3.38249 296.364 4.71002C296.364 5.9617 295.928 6.92891 295.055 7.61164C294.221 8.29438 292.988 8.63574 291.357 8.63574ZM314.931 43.7965C312.921 43.7965 311.1 43.6069 309.469 43.2276C307.838 42.8483 306.435 42.2983 305.259 41.5776C304.083 40.857 303.135 40.0036 302.414 39.0174C301.694 37.9933 301.22 36.8554 300.992 35.6037L307.25 33.0435C307.402 33.8779 307.819 34.6555 308.502 35.3761C309.185 36.0968 310.095 36.6847 311.233 37.1399C312.409 37.5571 313.812 37.7657 315.443 37.7657C317.188 37.7657 318.534 37.5192 319.483 37.0261C320.431 36.4951 320.905 35.7554 320.905 34.8072C320.905 34.0865 320.639 33.5176 320.108 33.1004C319.577 32.6831 318.8 32.3228 317.776 32.0194C316.752 31.7159 315.519 31.4315 314.078 31.166C312.674 30.8246 311.233 30.4643 309.754 30.085C308.312 29.7057 306.966 29.1746 305.714 28.4919C304.5 27.8092 303.495 26.9178 302.699 25.8179C301.94 24.68 301.561 23.2387 301.561 21.4939C301.561 19.6733 302.054 18.0802 303.04 16.7148C304.026 15.3493 305.468 14.2873 307.364 13.5287C309.261 12.7321 311.574 12.3339 314.305 12.3339C316.771 12.3339 318.933 12.6752 320.791 13.358C322.65 14.0028 324.167 14.951 325.343 16.2027C326.557 17.4165 327.372 18.8767 327.789 20.5836L321.133 22.8025C320.981 21.8922 320.602 21.0956 319.995 20.4129C319.426 19.7302 318.648 19.2181 317.662 18.8767C316.714 18.5354 315.595 18.3647 314.305 18.3647C312.674 18.3647 311.404 18.6302 310.493 19.1612C309.621 19.6922 309.185 20.3939 309.185 21.2663C309.185 21.987 309.469 22.5749 310.038 23.03C310.645 23.4852 311.479 23.8645 312.542 24.1679C313.604 24.4334 314.855 24.7179 316.297 25.0213C317.814 25.3248 319.293 25.6851 320.734 26.1023C322.176 26.4816 323.465 26.9937 324.603 27.6385C325.779 28.2833 326.708 29.1367 327.391 30.1987C328.074 31.2608 328.415 32.6262 328.415 34.2951C328.415 36.2675 327.884 37.9743 326.822 39.4156C325.76 40.819 324.224 41.9 322.214 42.6586C320.203 43.4172 317.776 43.7965 314.931 43.7965ZM348.091 43.7965C345.625 43.7965 343.425 43.4552 341.491 42.7724C339.595 42.0897 337.983 41.1035 336.655 39.8139C335.327 38.5243 334.303 36.9313 333.583 35.0348C332.9 33.1383 332.559 30.9953 332.559 28.6057C332.559 26.2541 332.881 24.0921 333.526 22.1197C334.209 20.1095 335.195 18.3837 336.484 16.9423C337.774 15.4631 339.348 14.3252 341.207 13.5287C343.065 12.7321 345.17 12.3339 347.522 12.3339C349.798 12.3339 351.827 12.7132 353.61 13.4718C355.392 14.1924 356.871 15.2924 358.047 16.7717C359.261 18.2509 360.133 20.0715 360.664 22.2335C361.233 24.3576 361.442 26.804 361.29 29.5729L337.85 29.8005V25.3058L356.568 25.1351L353.666 27.4109C353.932 25.4006 353.799 23.7507 353.268 22.4611C352.737 21.1715 351.96 20.2232 350.935 19.6164C349.949 19.0095 348.849 18.7061 347.636 18.7061C346.194 18.7061 344.924 19.0854 343.824 19.844C342.724 20.6025 341.87 21.7215 341.263 23.2007C340.657 24.6421 340.353 26.3868 340.353 28.435C340.353 31.659 341.055 34.0296 342.458 35.5468C343.9 37.064 345.777 37.8226 348.091 37.8226C349.153 37.8226 350.044 37.6898 350.765 37.4243C351.523 37.1209 352.13 36.7416 352.585 36.2865C353.079 35.8313 353.458 35.3192 353.723 34.7503C354.027 34.1814 354.273 33.6124 354.463 33.0435L361.575 34.5796C361.233 35.983 360.721 37.2537 360.039 38.3915C359.394 39.4915 358.521 40.4587 357.421 41.2932C356.322 42.0897 354.994 42.6966 353.439 43.1138C351.922 43.5689 350.139 43.7965 348.091 43.7965ZM367.267 43V24.9076V13.1304H373.981L373.924 22.0628H375.062C375.555 19.9008 376.257 18.0992 377.167 16.6579C378.077 15.2165 379.215 14.1355 380.581 13.4149C381.984 12.6942 383.634 12.3339 385.53 12.3339C388.982 12.3339 391.599 13.5476 393.382 15.9751C395.203 18.4026 396.113 22.2146 396.113 27.4109V43H387.863V28.3212C387.863 25.1351 387.389 22.8214 386.441 21.3801C385.53 19.9008 384.184 19.1612 382.401 19.1612C380.884 19.1612 379.613 19.6353 378.589 20.5836C377.565 21.5318 376.788 22.7835 376.257 24.3386C375.764 25.8558 375.498 27.5626 375.46 29.4591V43H367.267ZM387.465 9.31848C386.63 9.31848 385.758 9.16676 384.848 8.86332C383.937 8.55988 383.027 8.21852 382.117 7.83922C381.244 7.422 380.429 7.06166 379.67 6.75823C378.912 6.41686 378.286 6.24618 377.793 6.24618C377.148 6.24618 376.75 6.53065 376.598 7.09959C376.446 7.63061 376.427 8.23748 376.541 8.92021H372.786C372.141 7.59268 371.895 6.32204 372.046 5.10829C372.198 3.89454 372.653 2.92733 373.412 2.20667C374.171 1.44808 375.157 1.06878 376.37 1.06878C377.167 1.06878 378.001 1.2205 378.874 1.52393C379.784 1.82737 380.675 2.16874 381.548 2.54804C382.42 2.92733 383.217 3.2687 383.937 3.57214C384.696 3.87557 385.303 4.02729 385.758 4.02729C386.441 4.02729 386.839 3.74282 386.953 3.17387C387.105 2.567 387.124 1.96013 387.01 1.35325H390.765C391.296 2.64286 391.523 3.9135 391.447 5.16518C391.372 6.37893 391.011 7.38406 390.366 8.18059C389.722 8.93918 388.754 9.31848 387.465 9.31848ZM416.701 43.7965C413.704 43.7965 411.068 43.2086 408.792 42.0328C406.517 40.819 404.734 39.0553 403.444 36.7416C402.155 34.39 401.51 31.4694 401.51 27.9799C401.51 24.4903 402.155 21.5887 403.444 19.275C404.772 16.9613 406.573 15.2355 408.849 14.0976C411.163 12.9218 413.78 12.3339 416.701 12.3339C419.697 12.3339 422.333 12.9218 424.609 14.0976C426.923 15.2734 428.724 17.0372 430.014 19.3888C431.341 21.7025 432.005 24.6041 432.005 28.0936C432.005 31.6211 431.322 34.5607 429.957 36.9123C428.629 39.226 426.809 40.9518 424.495 42.0897C422.219 43.2276 419.621 43.7965 416.701 43.7965ZM416.985 37.7088C418.464 37.7088 419.697 37.3674 420.683 36.6847C421.707 36.002 422.466 34.9779 422.959 33.6124C423.49 32.209 423.756 30.5211 423.756 28.5488C423.756 26.4627 423.471 24.6989 422.902 23.2576C422.371 21.7784 421.575 20.6594 420.513 19.9008C419.451 19.1043 418.104 18.7061 416.473 18.7061C415.07 18.7061 413.856 19.0474 412.832 19.7302C411.808 20.375 411.03 21.3991 410.499 22.8025C409.968 24.1679 409.703 25.8558 409.703 27.8661C409.703 31.0901 410.347 33.5366 411.637 35.2055C412.927 36.8744 414.709 37.7088 416.985 37.7088Z" fill="#FAEDC1"/>
</svg>
