<svg width="970" height="228" viewBox="0 0 970 228" fill="none" xmlns="http://www.w3.org/2000/svg">
<path opacity="0.3" fill-rule="evenodd" clip-rule="evenodd" d="M47.2029 210.038C49.73 207.505 49.7306 203.404 47.2024 200.876C44.6752 198.348 40.5685 198.341 38.0399 200.876L35.2859 203.624L35.2855 203.625C35.0756 203.835 34.742 203.835 34.532 203.625L31.7834 200.876C29.2555 198.342 25.1487 198.342 22.6207 200.876C20.0867 203.404 20.0876 207.505 22.6207 210.038L25.3698 212.787C25.5797 212.997 25.5797 213.331 25.3698 213.541L22.7886 216.122C20.3579 218.553 20.0284 222.539 22.3397 225.153C24.8363 227.98 29.1575 228.078 31.7829 225.453L34.532 222.698C34.7434 222.486 35.0806 222.49 35.2829 222.695L35.2855 222.698L38.0397 225.452C40.5679 227.986 44.6687 227.986 47.202 225.459L47.2029 225.458C49.7302 222.924 49.7302 218.824 47.2029 216.291L47.202 216.29L44.4478 213.541L44.4474 213.541C44.2364 213.329 44.2402 212.992 44.4452 212.79L44.4474 212.788L47.2029 210.038Z" fill="#D1CEED"/>
<path opacity="0.3" fill-rule="evenodd" clip-rule="evenodd" d="M967.203 31.0377C969.73 28.5045 969.731 24.404 967.202 21.8757C964.675 19.3484 960.569 19.3414 958.04 21.8761L955.286 24.6245L955.286 24.6249C955.076 24.8349 954.742 24.8349 954.532 24.6249L951.783 21.8762C949.256 19.3421 945.149 19.342 942.621 21.8757C940.087 24.4041 940.088 28.505 942.621 31.0382L945.37 33.7874C945.58 33.9973 945.58 34.3309 945.37 34.5409L942.789 37.1221C940.358 39.5529 940.028 43.5395 942.34 46.1532C944.836 48.9803 949.158 49.078 951.783 46.4525L954.532 43.6977C954.743 43.4863 955.081 43.4901 955.283 43.6952L955.286 43.6978L958.04 46.452C960.568 48.9864 964.669 48.9858 967.202 46.4586L967.203 46.4576C969.73 43.9241 969.73 39.824 967.203 37.2905L967.202 37.2896L964.448 34.5409L964.447 34.5405C964.236 34.3291 964.24 33.9922 964.445 33.7899L964.447 33.7878L967.203 31.0377Z" fill="#D1CEED"/>
<path opacity="0.3" fill-rule="evenodd" clip-rule="evenodd" d="M16.7121 184.768C16.7093 182.515 14.8844 180.69 12.6336 180.69C10.3837 180.69 8.55257 182.515 8.55525 184.768L8.55279 187.218L8.55279 187.218C8.5528 187.405 8.40431 187.553 8.21739 187.553L5.7704 187.553C3.5172 187.551 1.6891 189.379 1.69163 191.632C1.68916 193.885 3.51495 195.71 5.77008 195.71L8.21749 195.71C8.40441 195.71 8.5529 195.859 8.5529 196.046L8.55293 198.344C8.55295 200.508 10.1808 202.429 12.3731 202.563C14.7428 202.71 16.7098 200.83 16.7097 198.493L16.7072 196.043C16.7072 195.855 16.859 195.707 17.0403 195.708L17.0426 195.708L19.4946 195.708C21.7481 195.711 23.5732 193.885 23.5758 191.632L23.5758 191.632C23.5731 189.379 21.748 187.554 19.4953 187.551L19.4946 187.551L17.045 187.554L17.0447 187.554C16.8566 187.553 16.7084 187.402 16.7096 187.22L16.7096 187.218L16.7121 184.768Z" fill="#D1CEED"/>
<path opacity="0.3" fill-rule="evenodd" clip-rule="evenodd" d="M936.712 5.76779C936.709 3.51534 934.884 1.68979 932.634 1.68976C930.384 1.68973 928.553 3.51459 928.555 5.76841L928.553 8.21766L928.553 8.21801C928.553 8.40493 928.404 8.55342 928.217 8.55342L925.77 8.55339C923.517 8.55063 921.689 10.3786 921.692 12.6317C921.689 14.8851 923.515 16.7102 925.77 16.7102L928.217 16.7102C928.404 16.7102 928.553 16.8587 928.553 17.0456L928.553 19.3435C928.553 21.5075 930.181 23.4287 932.373 23.5633C934.743 23.7105 936.71 21.8305 936.71 19.4931L936.707 17.0432C936.707 16.855 936.859 16.7066 937.04 16.7078L937.043 16.7078L939.495 16.7079C941.748 16.7106 943.573 14.8849 943.576 12.6324L943.576 12.6316C943.573 10.3789 941.748 8.55381 939.495 8.55106L939.495 8.55106L937.045 8.55352L937.045 8.55352C936.857 8.55333 936.708 8.40166 936.71 8.22041L936.71 8.21847L936.712 5.76779Z" fill="#D1CEED"/>
</svg>
