<svg width="110" height="142" viewBox="0 0 110 142" fill="none" xmlns="http://www.w3.org/2000/svg">
<path fill-rule="evenodd" clip-rule="evenodd" d="M25.299 130.318C25.2975 129.064 24.2817 128.048 23.0288 128.048C21.7764 128.048 20.7571 129.064 20.7586 130.318L20.7573 131.682L20.7573 131.682C20.7573 131.786 20.6746 131.869 20.5706 131.869L19.2085 131.869C17.9543 131.867 16.9367 132.885 16.9381 134.139C16.9367 135.393 17.953 136.409 19.2083 136.409L20.5706 136.409C20.6747 136.409 20.7573 136.492 20.7573 136.596L20.7573 137.875C20.7574 139.079 21.6635 140.149 22.8838 140.224C24.2029 140.306 25.2978 139.259 25.2978 137.958L25.2963 136.594C25.2963 136.49 25.3808 136.407 25.4818 136.408L25.483 136.408L26.8479 136.408C28.1023 136.409 29.1182 135.393 29.1197 134.139L29.1197 134.139C29.1182 132.885 28.1023 131.869 26.8483 131.867L26.8479 131.867L25.4844 131.869L25.4842 131.869C25.3795 131.869 25.297 131.784 25.2977 131.683L25.2977 131.682L25.299 130.318Z" fill="#FFFFDB"/>
<path fill-rule="evenodd" clip-rule="evenodd" d="M25.299 3.21058C25.2975 1.95677 24.2817 0.940597 23.0288 0.940582C21.7764 0.940566 20.7571 1.95636 20.7586 3.21092L20.7573 4.57427L20.7573 4.57447C20.7573 4.67852 20.6746 4.76117 20.5706 4.76117L19.2085 4.76115C17.9543 4.75962 16.9367 5.77713 16.9381 7.03132C16.9367 8.28564 17.953 9.30154 19.2083 9.30155L20.5706 9.30157C20.6747 9.30157 20.7573 9.38423 20.7573 9.48827L20.7573 10.7674C20.7574 11.9719 21.6635 13.0414 22.8838 13.1163C24.2029 13.1982 25.2978 12.1517 25.2978 10.8507L25.2963 9.48694C25.2963 9.38218 25.3808 9.29957 25.4818 9.30024L25.483 9.30025L26.8479 9.30026C28.1023 9.30179 29.1182 8.28555 29.1197 7.03171L29.1197 7.03124C29.1182 5.77731 28.1023 4.76139 26.8483 4.75986L26.8479 4.75986L25.4844 4.76123L25.4842 4.76123C25.3795 4.76112 25.297 4.67669 25.2977 4.5758L25.2977 4.57472L25.299 3.21058Z" fill="#FFFFDB"/>
<path fill-rule="evenodd" clip-rule="evenodd" d="M17.6015 15.4637C17.6003 14.4899 16.8113 13.7007 15.8382 13.7006C14.8655 13.7006 14.0738 14.4896 14.075 15.464L14.0739 16.5229L14.0739 16.5231C14.0739 16.6039 14.0097 16.6681 13.9289 16.6681L12.871 16.6681C11.8969 16.6669 11.1065 17.4572 11.1076 18.4313C11.1065 19.4055 11.8959 20.1945 12.8709 20.1946L13.929 20.1946C14.0098 20.1946 14.074 20.2588 14.074 20.3396L14.074 21.333C14.074 22.2686 14.7778 23.0992 15.7256 23.1574C16.7501 23.221 17.6005 22.4082 17.6005 21.3977L17.5994 20.3385C17.5994 20.2572 17.665 20.193 17.7434 20.1935L17.7444 20.1935L18.8045 20.1936C19.7788 20.1947 20.5678 19.4054 20.569 18.4316L20.569 18.4312C20.5678 17.4573 19.7787 16.6682 18.8048 16.6671L18.8045 16.6671L17.7454 16.6681L17.7453 16.6681C17.664 16.668 17.5999 16.6025 17.6004 16.5241L17.6004 16.5233L17.6015 15.4637Z" fill="#FFFFDB"/>
<path fill-rule="evenodd" clip-rule="evenodd" d="M13.1214 115.639C13.1192 113.871 11.6864 112.437 9.91922 112.437C8.15269 112.437 6.71502 113.87 6.71713 115.64L6.7152 117.563L6.7152 117.563C6.7152 117.71 6.59862 117.826 6.45186 117.826L4.53062 117.826C2.76154 117.824 1.32621 119.259 1.3282 121.028C1.32626 122.798 2.75977 124.231 4.53037 124.231L6.45194 124.231C6.59869 124.231 6.71528 124.347 6.71528 124.494L6.7153 126.298C6.71532 127.997 7.99343 129.506 9.71468 129.611C11.5752 129.727 13.1196 128.251 13.1196 126.416L13.1176 124.492C13.1176 124.344 13.2367 124.228 13.3791 124.229L13.3809 124.229L15.3061 124.229C17.0754 124.231 18.5083 122.798 18.5105 121.029L18.5105 121.028C18.5083 119.26 17.0753 117.827 15.3067 117.825L15.3061 117.825L13.3828 117.826L13.3825 117.826C13.2349 117.826 13.1185 117.707 13.1195 117.565L13.1195 117.563L13.1214 115.639Z" fill="#FFFFDB"/>
<path fill-rule="evenodd" clip-rule="evenodd" d="M103.593 77.5508C112.135 86.1133 112.137 99.9734 103.592 108.519C95.0492 117.062 81.1685 117.085 72.6215 108.518L63.3129 99.228L63.3116 99.2267C62.6019 98.517 61.4744 98.517 60.7647 99.2267L51.4742 108.517C42.9298 117.083 29.0486 117.083 20.5036 108.519C11.9387 99.9729 11.9415 86.1115 20.5036 77.5493L29.7957 68.2569C30.5054 67.5472 30.5054 66.4197 29.7957 65.71L21.0713 56.9854C12.8553 48.7691 11.7414 35.2941 19.5539 26.4595C27.9924 16.9039 42.5985 16.5736 51.4726 25.4479L60.7647 34.7591C61.4792 35.4737 62.6189 35.4611 63.3029 34.7679L63.3115 34.7591L72.621 25.4495C81.1665 16.8831 95.0275 16.8854 103.59 25.4274L103.593 25.4306C112.136 33.9939 112.136 47.8527 103.593 56.4161L103.59 56.419L94.2806 65.71L94.2793 65.7112C93.5661 66.4259 93.5791 67.5646 94.2718 68.2482L94.2792 68.2556L103.593 77.5508Z" fill="#FFFFDB"/>
<path fill-rule="evenodd" clip-rule="evenodd" d="M71.1259 58.815C68.7093 58.815 66.7502 62.4861 66.7502 67.0147C66.7502 71.5432 68.7093 75.2144 71.1259 75.2144C73.5425 75.2144 75.5015 71.5432 75.5015 67.0147C75.5015 62.4861 73.5425 58.815 71.1259 58.815ZM56.6188 67.0147C56.6188 71.5439 54.661 75.2144 52.2432 75.2144C49.8253 75.2144 47.8676 71.5439 47.8676 67.0147C47.8676 62.4854 49.8253 58.815 52.2432 58.815C54.661 58.815 56.6188 62.4854 56.6188 67.0147Z" fill="#3D3B80"/>
</svg>
