<svg width="234" height="234" viewBox="0 0 234 234" fill="none" xmlns="http://www.w3.org/2000/svg">
<path fill-rule="evenodd" clip-rule="evenodd" d="M189.92 95.9155C210.679 101.505 223.001 122.839 217.441 143.589C211.883 164.332 190.537 176.705 169.765 171.113L147.179 165.085L147.176 165.084C145.452 164.622 143.717 165.624 143.255 167.348L137.211 189.907C131.67 210.686 110.302 223.024 89.5362 217.435C68.7559 211.891 56.4408 190.551 62.0113 169.76L68.0568 147.197C68.5185 145.474 67.5163 143.738 65.7931 143.277L44.6088 137.6C24.6587 132.254 10.9679 112.501 15.1424 91.9574C19.6399 69.7476 41.8308 56.2578 63.3787 62.0318L85.9584 68.1069C87.6934 68.5719 89.4365 67.5396 89.8734 65.8646L89.879 65.8433L95.9358 43.2383C101.477 22.4562 122.817 10.1406 143.589 15.68L143.597 15.6821C164.358 21.2722 176.675 42.6063 171.136 63.3809L171.134 63.388L165.06 85.9646L165.06 85.9676C164.597 87.7016 165.629 89.443 167.303 89.8797L167.321 89.8844L189.92 95.9155Z" fill="#D1CEED"/>
<path fill-rule="evenodd" clip-rule="evenodd" d="M132.471 93.4691C128.751 95.6169 128.998 103.009 133.023 109.981C137.047 116.952 143.326 120.862 147.046 118.714C150.766 116.566 150.519 109.174 146.494 102.203C142.469 95.2314 136.191 91.3213 132.471 93.4691ZM117.426 118.985C121.452 125.957 121.7 133.348 117.978 135.497C114.256 137.645 107.98 133.735 103.955 126.763C99.9294 119.791 99.681 112.4 103.403 110.251C107.125 108.103 113.401 112.013 117.426 118.985Z" fill="#3D3B80"/>
</svg>
