<svg width="29" height="29" viewBox="0 0 29 29" fill="none" xmlns="http://www.w3.org/2000/svg">
<path opacity="0.3" fill-rule="evenodd" clip-rule="evenodd" d="M26.4825 11.0621C29.0095 8.52892 29.0102 4.42839 26.482 1.90014C23.9547 -0.627201 19.8481 -0.634203 17.3194 1.90048L14.5654 4.6489L14.5651 4.6493C14.3551 4.85926 14.0215 4.85927 13.8116 4.6493L11.0629 1.90062C8.53506 -0.633443 4.42829 -0.633601 1.90021 1.90015C-0.633731 4.42854 -0.632892 8.52945 1.90021 11.0626L4.6493 13.8118C4.85926 14.0217 4.85926 14.3553 4.6493 14.5653L2.06819 17.1465C-0.362564 19.5773 -0.692087 23.5639 1.61923 26.1776C4.1158 29.0047 8.43704 29.1024 11.0625 26.4769L13.8116 23.7222C14.023 23.5108 14.3601 23.5145 14.5625 23.7196L14.565 23.7222L17.3193 26.4764C19.8475 29.0108 23.9483 29.0102 26.4815 26.483L26.4825 26.482C29.0098 23.9486 29.0098 19.8484 26.4825 17.3149L26.4816 17.314L23.7273 14.5653L23.7269 14.5649C23.5159 14.3535 23.5198 14.0166 23.7247 13.8143L23.7269 13.8122L26.4825 11.0621Z" fill="#D1CEED"/>
</svg>
