<svg width="290" height="182" viewBox="0 0 290 182" fill="none" xmlns="http://www.w3.org/2000/svg">
<g style="mix-blend-mode:soft-light">
<mask id="path-1-inside-1_501_275" fill="white">
<path fill-rule="evenodd" clip-rule="evenodd" d="M264.294 0C272.134 0 278.488 6.35488 278.488 14.194V68.7819C278.497 68.9679 278.501 69.1559 278.501 69.3457V73.0407C278.501 75.3672 279.168 77.5435 280.282 78.8559L287.81 87.7246C288.388 88.2398 288.865 88.9826 289.225 89.8605C289.763 91.1065 290.008 92.5624 290 94.0042C290.008 95.446 289.763 96.9018 289.225 98.1478C288.865 99.0257 288.388 99.7686 287.81 100.284L280.282 109.153C279.168 110.465 278.501 112.641 278.501 114.968V118.663C278.501 118.852 278.497 119.041 278.488 119.227V166.888C278.488 174.727 272.134 181.082 264.294 181.082H14.194C6.35489 181.082 -3.05176e-05 174.727 -3.05176e-05 166.888V14.1941C-3.05176e-05 6.3549 6.35489 0 14.194 0H264.294Z"/>
</mask>
<path d="M278.488 68.7819L277.629 68.8214L277.628 68.8016V68.7819H278.488ZM280.282 78.8559L280.937 78.2992H280.937L280.282 78.8559ZM287.81 87.7246L287.238 88.3668L287.193 88.327L287.154 88.2813L287.81 87.7246ZM289.225 89.8605L288.435 90.2013L288.432 90.194L288.429 90.1867L289.225 89.8605ZM290 94.0042L289.14 94.0088L289.14 93.9996L290 94.0042ZM289.225 98.1478L288.429 97.8216L288.432 97.8143L288.435 97.807L289.225 98.1478ZM287.81 100.284L287.154 99.7271L287.193 99.6814L287.238 99.6416L287.81 100.284ZM280.282 109.153L280.937 109.709L280.282 109.153ZM278.488 119.227H277.628V119.207L277.629 119.187L278.488 119.227ZM277.628 14.194C277.628 6.82998 271.658 0.860246 264.294 0.860246V-0.860246C272.609 -0.860246 279.349 5.87978 279.349 14.194H277.628ZM277.628 68.7819V14.194H279.349V68.7819H277.628ZM279.348 68.7424C279.357 68.9416 279.362 69.1428 279.362 69.3457H277.641C277.641 69.1691 277.637 68.9942 277.629 68.8214L279.348 68.7424ZM279.362 69.3457V73.0407H277.641V69.3457H279.362ZM279.362 73.0407C279.362 75.2352 279.996 77.1895 280.937 78.2992L279.626 79.4126C278.34 77.8975 277.641 75.4991 277.641 73.0407H279.362ZM280.937 78.2992L288.466 87.1679L287.154 88.2813L279.626 79.4126L280.937 78.2992ZM288.383 87.0825C289.086 87.7095 289.628 88.5757 290.021 89.5343L288.429 90.1867C288.102 89.3895 287.69 88.7701 287.238 88.3668L288.383 87.0825ZM290.015 89.5197C290.609 90.8961 290.868 92.4739 290.86 94.0088L289.14 93.9996C289.147 92.6509 288.917 91.3169 288.435 90.2013L290.015 89.5197ZM290.86 93.9996C290.868 95.5345 290.609 97.1122 290.015 98.4886L288.435 97.807C288.917 96.6914 289.147 95.3575 289.14 94.0088L290.86 93.9996ZM290.021 98.4739C289.628 99.4326 289.086 100.299 288.383 100.926L287.238 99.6416C287.69 99.2384 288.102 98.6189 288.429 97.8216L290.021 98.4739ZM288.466 100.84L280.937 109.709L279.626 108.596L287.154 99.7271L288.466 100.84ZM280.937 109.709C279.996 110.819 279.362 112.773 279.362 114.968H277.641C277.641 112.509 278.34 110.111 279.626 108.596L280.937 109.709ZM279.362 114.968V118.663H277.641V114.968H279.362ZM279.362 118.663C279.362 118.866 279.357 119.067 279.348 119.266L277.629 119.187C277.637 119.014 277.641 118.839 277.641 118.663H279.362ZM277.628 166.888V119.227H279.349V166.888H277.628ZM264.294 180.222C271.658 180.222 277.628 174.252 277.628 166.888H279.349C279.349 175.202 272.609 181.942 264.294 181.942V180.222ZM14.194 180.222H264.294V181.942H14.194V180.222ZM0.860199 166.888C0.860199 174.252 6.82999 180.222 14.194 180.222V181.942C5.87979 181.942 -0.860291 175.202 -0.860291 166.888H0.860199ZM0.860199 14.1941V166.888H-0.860291V14.1941H0.860199ZM14.194 0.860246C6.82999 0.860246 0.860199 6.83 0.860199 14.1941H-0.860291C-0.860291 5.8798 5.87979 -0.860246 14.194 -0.860246V0.860246ZM264.294 0.860246H14.194V-0.860246H264.294V0.860246Z" fill="#FFFFDC" mask="url(#path-1-inside-1_501_275)"/>
</g>
<path d="M48.1289 52.2507C47.303 52.2507 46.5546 52.1733 45.8836 52.0184C45.2126 51.8636 44.632 51.6313 44.1416 51.3216C43.6513 50.9991 43.2642 50.5926 42.9803 50.1022C42.6964 49.6119 42.5286 49.0441 42.477 48.399L45.2062 47.4893C45.2449 48.0312 45.3997 48.4828 45.6707 48.8441C45.9417 49.2054 46.303 49.4764 46.7546 49.6571C47.2191 49.8248 47.7353 49.9087 48.3031 49.9087C48.845 49.9087 49.2966 49.8442 49.6579 49.7151C50.0321 49.5732 50.3096 49.399 50.4902 49.1925C50.6838 48.9732 50.7806 48.7409 50.7806 48.4957C50.7806 48.2119 50.658 47.9796 50.4128 47.7989C50.1676 47.6054 49.8321 47.4441 49.4063 47.3151C48.9805 47.1731 48.4837 47.0376 47.9159 46.9086C47.2708 46.7537 46.6385 46.586 46.0191 46.4053C45.3997 46.2247 44.8384 45.9924 44.3352 45.7085C43.8319 45.4118 43.4319 45.0375 43.1351 44.5859C42.8512 44.1214 42.7093 43.5407 42.7093 42.8439C42.7093 42.0568 42.9093 41.3729 43.3093 40.7922C43.7093 40.2116 44.2965 39.7599 45.0707 39.4373C45.8449 39.1018 46.7998 38.9341 47.9353 38.9341C49.0579 38.9341 50.0128 39.0954 50.7999 39.418C51.587 39.7406 52.1935 40.1922 52.6193 40.7729C53.0452 41.3406 53.2774 42.0052 53.3161 42.7665L50.5289 43.5601C50.5289 43.1859 50.4644 42.8568 50.3354 42.5729C50.2193 42.2891 50.0515 42.0568 49.8321 41.8761C49.6128 41.6826 49.3418 41.5406 49.0192 41.4503C48.6966 41.3471 48.3289 41.2955 47.9159 41.2955C47.4256 41.2955 47.0062 41.3535 46.6578 41.4697C46.3223 41.5858 46.0707 41.7407 45.903 41.9342C45.7352 42.1149 45.6513 42.3278 45.6513 42.5729C45.6513 42.8826 45.7804 43.1407 46.0385 43.3472C46.3094 43.5407 46.6707 43.7085 47.1224 43.8504C47.5869 43.9794 48.0966 44.1085 48.6515 44.2375C49.2063 44.3537 49.7805 44.502 50.3741 44.6827C50.9677 44.8504 51.5225 45.0763 52.0387 45.3601C52.5548 45.644 52.9677 46.0311 53.2774 46.5215C53.6 46.9989 53.7613 47.6054 53.7613 48.3409C53.7613 49.128 53.5484 49.8184 53.1226 50.4119C52.7097 50.9926 52.0838 51.4442 51.2451 51.7668C50.4064 52.0894 49.3676 52.2507 48.1289 52.2507ZM55.6621 51.9797V41.76H58.7783V51.9797H55.6621ZM57.2299 40.3277C56.6363 40.3277 56.1782 40.2051 55.8556 39.9599C55.546 39.7019 55.3911 39.3406 55.3911 38.876C55.3911 38.3857 55.546 38.0179 55.8556 37.7728C56.1782 37.5147 56.6363 37.3857 57.2299 37.3857C57.8364 37.3857 58.2944 37.5147 58.6041 37.7728C58.9267 38.0179 59.088 38.3792 59.088 38.8567C59.088 39.3341 58.9267 39.7019 58.6041 39.9599C58.2944 40.2051 57.8364 40.3277 57.2299 40.3277ZM65.3231 55.5605C64.1876 55.5605 63.252 55.4702 62.5165 55.2895C61.7939 55.1218 61.2649 54.8637 60.9294 54.5153C60.5939 54.1798 60.4261 53.7669 60.4261 53.2766C60.4261 52.683 60.6584 52.1991 61.1229 51.8249C61.6004 51.4507 62.2972 51.2378 63.2133 51.1862V50.7797C62.5036 50.7797 61.9552 50.7087 61.5681 50.5668C61.1939 50.4248 61.0068 50.1603 61.0068 49.7732C61.0068 49.4119 61.1939 49.0829 61.5681 48.7861C61.9423 48.4893 62.5617 48.257 63.4262 48.0893V47.6828C62.6391 47.6183 62.0133 47.3602 61.5487 46.9086C61.0842 46.4441 60.8519 45.8376 60.8519 45.0892C60.8519 44.4569 61.0326 43.8827 61.3939 43.3665C61.7552 42.8375 62.2972 42.4181 63.0198 42.1084C63.7424 41.7858 64.6456 41.6245 65.7295 41.6245H71.033V43.9665L67.8006 43.5407V44.0053C68.6393 44.1214 69.2393 44.3149 69.6007 44.5859C69.962 44.8569 70.1426 45.2376 70.1426 45.7279C70.1426 46.244 69.962 46.7021 69.6007 47.1021C69.2523 47.5022 68.7555 47.8183 68.1103 48.0506C67.4651 48.2699 66.6973 48.3796 65.807 48.3796C65.6521 48.3796 65.4779 48.3732 65.2844 48.3602C65.1037 48.3473 64.7618 48.3151 64.2585 48.2635C64.0521 48.4441 63.8908 48.599 63.7746 48.728C63.6585 48.8441 63.6004 48.9538 63.6004 49.057C63.6004 49.1345 63.6327 49.199 63.6972 49.2506C63.7617 49.3022 63.8521 49.3409 63.9682 49.3667C64.0972 49.3796 64.2327 49.3861 64.3747 49.3861H67.4909C67.749 49.3861 68.0845 49.4054 68.4974 49.4442C68.9232 49.47 69.3426 49.5667 69.7555 49.7345C70.1813 49.9022 70.5362 50.1732 70.82 50.5474C71.1168 50.9216 71.2652 51.4571 71.2652 52.1539C71.2652 52.9153 71.0523 53.5475 70.6265 54.0508C70.2007 54.5669 69.549 54.9476 68.6716 55.1928C67.7941 55.4379 66.678 55.5605 65.3231 55.5605ZM65.7295 53.083C66.478 53.083 67.0586 53.0443 67.4715 52.9669C67.8845 52.8894 68.1683 52.7669 68.3232 52.5991C68.4909 52.4314 68.5748 52.2249 68.5748 51.9797C68.5748 51.7475 68.5296 51.5668 68.4393 51.4378C68.349 51.2958 68.2329 51.1991 68.0909 51.1474C67.949 51.0958 67.8006 51.0636 67.6457 51.0507C67.5038 51.0378 67.3812 51.0313 67.278 51.0313H64.7811C64.3037 51.0313 63.9488 51.1474 63.7166 51.3797C63.4972 51.5991 63.3875 51.8572 63.3875 52.1539C63.3875 52.3991 63.4649 52.5862 63.6198 52.7152C63.7746 52.8572 64.0198 52.954 64.3553 53.0056C64.7037 53.0572 65.1618 53.083 65.7295 53.083ZM65.5941 46.8312C66.1489 46.8312 66.5618 46.6828 66.8328 46.386C67.1167 46.0892 67.2586 45.715 67.2586 45.2634C67.2586 44.773 67.1167 44.373 66.8328 44.0633C66.5489 43.7407 66.1425 43.5794 65.6134 43.5794C65.0844 43.5794 64.6714 43.7407 64.3747 44.0633C64.0779 44.373 63.9295 44.773 63.9295 45.2634C63.9295 45.5601 63.994 45.8311 64.123 46.0763C64.2521 46.3086 64.4392 46.4957 64.6843 46.6376C64.9295 46.7666 65.2327 46.8312 65.5941 46.8312ZM76.4607 52.2507C75.2477 52.2507 74.3316 51.8442 73.7122 51.0313C73.1057 50.2055 72.8025 48.9538 72.8025 47.2763V41.76H75.9381V46.8699C75.9381 47.8247 76.08 48.5409 76.3639 49.0183C76.6478 49.4829 77.0801 49.7151 77.6607 49.7151C78.0091 49.7151 78.3059 49.6313 78.5511 49.4635C78.8091 49.2829 79.0221 49.0377 79.1898 48.728C79.3705 48.4054 79.4995 48.0377 79.5769 47.6247C79.6672 47.2118 79.7124 46.7602 79.7124 46.2699V41.76H82.8287V47.8377V51.9797H80.3511L80.2931 48.8248H79.906C79.7124 49.6248 79.4672 50.2829 79.1705 50.799C78.8866 51.3023 78.5253 51.67 78.0865 51.9023C77.6478 52.1346 77.1059 52.2507 76.4607 52.2507ZM90.0829 52.2507C89.2312 52.2507 88.4699 52.141 87.7989 51.9217C87.1279 51.6894 86.5537 51.3539 86.0763 50.9152C85.6118 50.4765 85.2569 49.9345 85.0117 49.2893C84.7666 48.6441 84.644 47.9022 84.644 47.0634C84.644 46.2505 84.7601 45.5021 84.9924 44.8182C85.2376 44.1343 85.5795 43.5472 86.0182 43.0568C86.4699 42.5536 87.0183 42.1665 87.6635 41.8955C88.3215 41.6245 89.057 41.489 89.87 41.489C90.6958 41.489 91.4184 41.6245 92.0378 41.8955C92.6701 42.1536 93.1862 42.5407 93.5862 43.0568C93.9992 43.573 94.3024 44.2053 94.496 44.9537C94.6895 45.6892 94.754 46.5344 94.6895 47.4893L86.6957 47.5473V45.9215L92.9088 45.8634L91.8055 46.6183C91.8959 45.9731 91.8572 45.4505 91.6894 45.0505C91.5217 44.6375 91.2765 44.3407 90.9539 44.1601C90.6313 43.9665 90.2829 43.8698 89.9087 43.8698C89.4571 43.8698 89.057 43.9923 88.7086 44.2375C88.3732 44.4827 88.1086 44.8375 87.9151 45.3021C87.7215 45.7666 87.6247 46.3344 87.6247 47.0054C87.6247 48.0635 87.8506 48.8312 88.3022 49.3087C88.7667 49.7861 89.3538 50.0248 90.0635 50.0248C90.4119 50.0248 90.7023 49.9797 90.9345 49.8893C91.1668 49.7861 91.3539 49.6635 91.4958 49.5216C91.6507 49.3667 91.7668 49.199 91.8442 49.0183C91.9346 48.8377 92.0055 48.6635 92.0572 48.4957L94.7669 49.0764C94.6637 49.5538 94.496 49.9861 94.2637 50.3732C94.0443 50.7603 93.7411 51.0958 93.354 51.3797C92.9798 51.6636 92.5217 51.8765 91.9797 52.0184C91.4507 52.1733 90.8184 52.2507 90.0829 52.2507ZM100.894 51.9797V38.0437H103.953V51.9797H100.894ZM111.234 52.2507C110.382 52.2507 109.621 52.141 108.95 51.9217C108.279 51.6894 107.705 51.3539 107.228 50.9152C106.763 50.4765 106.408 49.9345 106.163 49.2893C105.918 48.6441 105.795 47.9022 105.795 47.0634C105.795 46.2505 105.911 45.5021 106.144 44.8182C106.389 44.1343 106.731 43.5472 107.169 43.0568C107.621 42.5536 108.169 42.1665 108.815 41.8955C109.473 41.6245 110.208 41.489 111.021 41.489C111.847 41.489 112.57 41.6245 113.189 41.8955C113.821 42.1536 114.337 42.5407 114.737 43.0568C115.15 43.573 115.454 44.2053 115.647 44.9537C115.841 45.6892 115.905 46.5344 115.841 47.4893L107.847 47.5473V45.9215L114.06 45.8634L112.957 46.6183C113.047 45.9731 113.008 45.4505 112.841 45.0505C112.673 44.6375 112.428 44.3407 112.105 44.1601C111.783 43.9665 111.434 43.8698 111.06 43.8698C110.608 43.8698 110.208 43.9923 109.86 44.2375C109.524 44.4827 109.26 44.8375 109.066 45.3021C108.873 45.7666 108.776 46.3344 108.776 47.0054C108.776 48.0635 109.002 48.8312 109.453 49.3087C109.918 49.7861 110.505 50.0248 111.215 50.0248C111.563 50.0248 111.853 49.9797 112.086 49.8893C112.318 49.7861 112.505 49.6635 112.647 49.5216C112.802 49.3667 112.918 49.199 112.995 49.0183C113.086 48.8377 113.157 48.6635 113.208 48.4957L115.918 49.0764C115.815 49.5538 115.647 49.9861 115.415 50.3732C115.196 50.7603 114.892 51.0958 114.505 51.3797C114.131 51.6636 113.673 51.8765 113.131 52.0184C112.602 52.1733 111.97 52.2507 111.234 52.2507ZM121.665 55.5412C121.149 55.5412 120.62 55.496 120.078 55.4057C119.536 55.3153 119.02 55.1799 118.529 54.9992C118.052 54.8315 117.639 54.6056 117.291 54.3218L118.046 51.5539C118.497 51.9797 119.039 52.2959 119.671 52.5023C120.317 52.7088 120.936 52.812 121.53 52.812C122.213 52.812 122.775 52.6765 123.214 52.4056C123.665 52.1475 124.007 51.7475 124.239 51.2055C124.485 50.6507 124.626 49.9668 124.665 49.1538L124.762 47.4699H124.297C124.181 48.3086 123.975 48.9925 123.678 49.5216C123.394 50.0506 123.026 50.4442 122.575 50.7023C122.136 50.9474 121.613 51.07 121.007 51.07C120.259 51.07 119.633 50.8829 119.13 50.5087C118.626 50.1345 118.246 49.5732 117.988 48.8248C117.742 48.0635 117.62 47.1215 117.62 45.9989V41.76H120.755V45.2247C120.755 46.4118 120.872 47.2634 121.104 47.7796C121.349 48.2828 121.73 48.5344 122.246 48.5344C122.517 48.5344 122.762 48.457 122.981 48.3022C123.201 48.1473 123.388 47.928 123.543 47.6441C123.697 47.3602 123.814 47.0183 123.891 46.6183C123.981 46.2053 124.026 45.7473 124.026 45.244V41.76H127.143V49.27C127.143 50.0829 127.065 50.8249 126.91 51.4958C126.769 52.1668 126.549 52.754 126.252 53.2572C125.968 53.7604 125.607 54.1798 125.168 54.5153C124.73 54.8637 124.22 55.1218 123.639 55.2895C123.059 55.4573 122.401 55.5412 121.665 55.5412ZM134.37 52.2507C133.518 52.2507 132.757 52.141 132.086 51.9217C131.415 51.6894 130.841 51.3539 130.363 50.9152C129.899 50.4765 129.544 49.9345 129.299 49.2893C129.054 48.6441 128.931 47.9022 128.931 47.0634C128.931 46.2505 129.047 45.5021 129.28 44.8182C129.525 44.1343 129.867 43.5472 130.305 43.0568C130.757 42.5536 131.305 42.1665 131.951 41.8955C132.609 41.6245 133.344 41.489 134.157 41.489C134.983 41.489 135.706 41.6245 136.325 41.8955C136.957 42.1536 137.473 42.5407 137.873 43.0568C138.286 43.573 138.59 44.2053 138.783 44.9537C138.977 45.6892 139.041 46.5344 138.977 47.4893L130.983 47.5473V45.9215L137.196 45.8634L136.093 46.6183C136.183 45.9731 136.144 45.4505 135.977 45.0505C135.809 44.6375 135.564 44.3407 135.241 44.1601C134.918 43.9665 134.57 43.8698 134.196 43.8698C133.744 43.8698 133.344 43.9923 132.996 44.2375C132.66 44.4827 132.396 44.8375 132.202 45.3021C132.009 45.7666 131.912 46.3344 131.912 47.0054C131.912 48.0635 132.138 48.8312 132.589 49.3087C133.054 49.7861 133.641 50.0248 134.351 50.0248C134.699 50.0248 134.989 49.9797 135.222 49.8893C135.454 49.7861 135.641 49.6635 135.783 49.5216C135.938 49.3667 136.054 49.199 136.131 49.0183C136.222 48.8377 136.293 48.6635 136.344 48.4957L139.054 49.0764C138.951 49.5538 138.783 49.9861 138.551 50.3732C138.331 50.7603 138.028 51.0958 137.641 51.3797C137.267 51.6636 136.809 51.8765 136.267 52.0184C135.738 52.1733 135.106 52.2507 134.37 52.2507ZM140.872 51.9797V45.8247V41.76H143.388L143.427 44.7601H143.814C143.982 44.0375 144.22 43.431 144.53 42.9407C144.84 42.4504 145.233 42.0891 145.711 41.8568C146.188 41.6116 146.749 41.489 147.395 41.489C148.595 41.489 149.504 41.9084 150.124 42.7471C150.756 43.5859 151.072 44.9214 151.072 46.7537V51.9797H147.937V47.1021C147.937 46.044 147.782 45.2763 147.472 44.7988C147.175 44.3085 146.73 44.0633 146.137 44.0633C145.646 44.0633 145.24 44.2117 144.917 44.5085C144.607 44.8053 144.375 45.1988 144.22 45.6892C144.065 46.1795 143.988 46.7279 143.988 47.3344V51.9797H140.872ZM157.045 52.2507C156.193 52.2507 155.445 52.0378 154.8 51.612C154.167 51.1733 153.671 50.5539 153.309 49.7538C152.948 48.9409 152.767 47.9731 152.767 46.8505C152.767 45.8182 152.922 44.9021 153.232 44.102C153.542 43.302 154 42.6762 154.606 42.2245C155.225 41.76 155.987 41.5277 156.89 41.5277C157.535 41.5277 158.077 41.6439 158.516 41.8761C158.968 42.1084 159.342 42.4568 159.639 42.9213C159.935 43.3859 160.174 43.973 160.355 44.6827H160.839C160.748 44.244 160.664 43.8311 160.587 43.4439C160.51 43.0439 160.445 42.6762 160.393 42.3407C160.355 41.9923 160.335 41.689 160.335 41.431V38.0437H163.471V46.986V51.9797H160.916L160.877 48.9603H160.451C160.31 49.7345 160.084 50.3668 159.774 50.8571C159.477 51.3346 159.097 51.6894 158.632 51.9217C158.18 52.141 157.651 52.2507 157.045 52.2507ZM158.168 49.7345C158.568 49.7345 158.903 49.6506 159.174 49.4829C159.458 49.3022 159.684 49.0764 159.851 48.8054C160.019 48.5344 160.142 48.2441 160.219 47.9344C160.297 47.6247 160.335 47.3344 160.335 47.0634V46.657C160.335 46.4118 160.303 46.1666 160.239 45.9215C160.174 45.6763 160.077 45.4376 159.948 45.2053C159.832 44.973 159.684 44.7666 159.503 44.5859C159.322 44.4053 159.109 44.2633 158.864 44.1601C158.632 44.0569 158.374 44.0053 158.09 44.0053C157.664 44.0053 157.297 44.1214 156.987 44.3537C156.69 44.5859 156.458 44.915 156.29 45.3408C156.135 45.7666 156.058 46.2699 156.058 46.8505C156.058 47.4312 156.142 47.9409 156.309 48.3796C156.477 48.8054 156.722 49.1409 157.045 49.3861C157.367 49.6184 157.742 49.7345 158.168 49.7345ZM170.582 52.2507C169.55 52.2507 168.634 52.0507 167.834 51.6507C167.047 51.2507 166.427 50.6507 165.976 49.8506C165.524 49.0506 165.298 48.0506 165.298 46.8505C165.298 45.6505 165.524 44.6569 165.976 43.8698C166.427 43.0697 167.053 42.4762 167.853 42.0891C168.653 41.689 169.57 41.489 170.602 41.489C171.634 41.489 172.55 41.689 173.35 42.0891C174.15 42.4891 174.776 43.0891 175.228 43.8891C175.679 44.6762 175.905 45.6698 175.905 46.8699C175.905 48.0957 175.673 49.1087 175.208 49.9087C174.744 50.7087 174.105 51.3023 173.292 51.6894C172.492 52.0636 171.589 52.2507 170.582 52.2507ZM170.679 49.9861C171.144 49.9861 171.531 49.8829 171.841 49.6764C172.15 49.4571 172.383 49.128 172.537 48.6893C172.692 48.2506 172.77 47.7086 172.77 47.0634C172.77 46.3795 172.686 45.8053 172.518 45.3408C172.35 44.8633 172.099 44.502 171.763 44.2569C171.441 43.9988 171.021 43.8698 170.505 43.8698C170.066 43.8698 169.686 43.9794 169.363 44.1988C169.053 44.4053 168.821 44.7279 168.666 45.1666C168.511 45.6053 168.434 46.1537 168.434 46.8118C168.434 47.8699 168.628 48.6635 169.015 49.1925C169.415 49.7216 169.97 49.9861 170.679 49.9861ZM182.04 55.2508V46.986V41.76H184.595L184.634 44.6633L184.982 44.7021C185.098 43.9794 185.305 43.3794 185.602 42.902C185.898 42.4246 186.279 42.0697 186.744 41.8374C187.221 41.6052 187.763 41.489 188.369 41.489C189.273 41.489 190.047 41.7084 190.692 42.1471C191.35 42.5858 191.853 43.2117 192.202 44.0246C192.55 44.8375 192.724 45.8118 192.724 46.9473C192.724 47.9538 192.57 48.857 192.26 49.6571C191.963 50.4571 191.505 51.0894 190.886 51.5539C190.279 52.0184 189.505 52.2507 188.563 52.2507C187.931 52.2507 187.395 52.141 186.956 51.9217C186.518 51.6894 186.144 51.3539 185.834 50.9152C185.537 50.4765 185.285 49.928 185.079 49.27H184.711C184.789 49.6184 184.86 49.9732 184.924 50.3345C184.989 50.6958 185.04 51.0442 185.079 51.3797C185.131 51.7152 185.156 52.0378 185.156 52.3475V55.2508H182.04ZM187.421 49.7926C187.847 49.7926 188.208 49.6764 188.505 49.4442C188.815 49.2119 189.053 48.8828 189.221 48.457C189.389 48.0312 189.473 47.5344 189.473 46.9667C189.473 46.3602 189.382 45.844 189.202 45.4182C189.034 44.9795 188.789 44.644 188.466 44.4117C188.144 44.1665 187.769 44.044 187.344 44.044C186.944 44.044 186.602 44.1343 186.318 44.3149C186.047 44.4827 185.821 44.7085 185.64 44.9924C185.473 45.2634 185.35 45.5537 185.273 45.8634C185.195 46.1731 185.156 46.4634 185.156 46.7344V47.1602C185.156 47.4054 185.189 47.6505 185.253 47.8957C185.318 48.1409 185.414 48.3796 185.544 48.6119C185.673 48.8312 185.827 49.0312 186.008 49.2119C186.189 49.3925 186.395 49.5345 186.627 49.6377C186.873 49.7409 187.137 49.7926 187.421 49.7926ZM196.991 52.2507C196.423 52.2507 195.92 52.141 195.481 51.9217C195.043 51.6894 194.701 51.3604 194.456 50.9345C194.21 50.4958 194.088 49.9668 194.088 49.3474C194.088 48.7667 194.197 48.2893 194.417 47.9151C194.649 47.528 194.978 47.2247 195.404 47.0054C195.843 46.7731 196.365 46.586 196.972 46.4441C197.578 46.2892 198.269 46.1537 199.043 46.0376C199.417 45.9731 199.727 45.915 199.972 45.8634C200.23 45.7989 200.423 45.7021 200.553 45.5731C200.682 45.444 200.746 45.2569 200.746 45.0117C200.746 44.6891 200.63 44.4117 200.398 44.1795C200.165 43.9472 199.791 43.8311 199.275 43.8311C198.914 43.8311 198.585 43.8956 198.288 44.0246C198.004 44.1536 197.759 44.3407 197.552 44.5859C197.346 44.8311 197.191 45.1279 197.088 45.4763L194.339 44.6633C194.507 44.1214 194.739 43.6504 195.036 43.2504C195.346 42.8504 195.714 42.5213 196.139 42.2633C196.565 41.9923 197.049 41.7987 197.591 41.6826C198.146 41.5536 198.733 41.489 199.352 41.489C200.385 41.489 201.224 41.6568 201.869 41.9923C202.527 42.3149 203.011 42.8246 203.32 43.5214C203.643 44.2053 203.804 45.0892 203.804 46.1731V47.7409C203.804 48.2054 203.811 48.6764 203.824 49.1538C203.849 49.6184 203.875 50.0893 203.901 50.5668C203.94 51.0313 203.985 51.5023 204.037 51.9797H201.288C201.236 51.683 201.185 51.3281 201.133 50.9152C201.082 50.4894 201.043 50.0571 201.017 49.6184H200.649C200.469 50.1087 200.204 50.5603 199.856 50.9732C199.52 51.3733 199.107 51.6894 198.617 51.9217C198.14 52.141 197.598 52.2507 196.991 52.2507ZM198.404 50.0442C198.636 50.0442 198.869 50.0055 199.101 49.928C199.346 49.8377 199.578 49.7216 199.798 49.5796C200.017 49.4248 200.217 49.2377 200.398 49.0183C200.578 48.799 200.714 48.5603 200.804 48.3022L200.765 46.7731L201.191 46.8699C200.946 47.0247 200.675 47.1473 200.378 47.2376C200.082 47.328 199.778 47.3989 199.469 47.4505C199.172 47.5022 198.875 47.5602 198.578 47.6247C198.294 47.6764 198.036 47.7473 197.804 47.8377C197.585 47.928 197.41 48.0506 197.281 48.2054C197.152 48.3602 197.088 48.5732 197.088 48.8441C197.088 49.2054 197.21 49.4958 197.456 49.7151C197.701 49.9345 198.017 50.0442 198.404 50.0442ZM206.102 51.9797V47.2376V41.76H208.657L208.715 45.2247H209.102C209.193 44.3214 209.36 43.6052 209.606 43.0762C209.864 42.5342 210.225 42.1407 210.69 41.8955C211.167 41.6503 211.754 41.5277 212.451 41.5277C212.554 41.5277 212.67 41.5342 212.799 41.5471C212.928 41.5471 213.077 41.56 213.244 41.5858L213.128 44.915C212.922 44.8117 212.696 44.7472 212.451 44.7214C212.219 44.6827 212.012 44.6633 211.832 44.6633C211.328 44.6633 210.89 44.7601 210.515 44.9537C210.154 45.1472 209.864 45.444 209.644 45.844C209.438 46.244 209.302 46.7473 209.238 47.3538V51.9797H206.102ZM216.989 52.2507C216.422 52.2507 215.918 52.141 215.48 51.9217C215.041 51.6894 214.699 51.3604 214.454 50.9345C214.209 50.4958 214.086 49.9668 214.086 49.3474C214.086 48.7667 214.196 48.2893 214.415 47.9151C214.647 47.528 214.976 47.2247 215.402 47.0054C215.841 46.7731 216.363 46.586 216.97 46.4441C217.576 46.2892 218.267 46.1537 219.041 46.0376C219.415 45.9731 219.725 45.915 219.97 45.8634C220.228 45.7989 220.422 45.7021 220.551 45.5731C220.68 45.444 220.744 45.2569 220.744 45.0117C220.744 44.6891 220.628 44.4117 220.396 44.1795C220.164 43.9472 219.789 43.8311 219.273 43.8311C218.912 43.8311 218.583 43.8956 218.286 44.0246C218.002 44.1536 217.757 44.3407 217.551 44.5859C217.344 44.8311 217.189 45.1279 217.086 45.4763L214.338 44.6633C214.505 44.1214 214.738 43.6504 215.034 43.2504C215.344 42.8504 215.712 42.5213 216.138 42.2633C216.563 41.9923 217.047 41.7987 217.589 41.6826C218.144 41.5536 218.731 41.489 219.351 41.489C220.383 41.489 221.222 41.6568 221.867 41.9923C222.525 42.3149 223.009 42.8246 223.319 43.5214C223.641 44.2053 223.802 45.0892 223.802 46.1731V47.7409C223.802 48.2054 223.809 48.6764 223.822 49.1538C223.848 49.6184 223.873 50.0893 223.899 50.5668C223.938 51.0313 223.983 51.5023 224.035 51.9797H221.286C221.235 51.683 221.183 51.3281 221.131 50.9152C221.08 50.4894 221.041 50.0571 221.015 49.6184H220.648C220.467 50.1087 220.202 50.5603 219.854 50.9732C219.518 51.3733 219.106 51.6894 218.615 51.9217C218.138 52.141 217.596 52.2507 216.989 52.2507ZM218.402 50.0442C218.635 50.0442 218.867 50.0055 219.099 49.928C219.344 49.8377 219.577 49.7216 219.796 49.5796C220.015 49.4248 220.215 49.2377 220.396 49.0183C220.577 48.799 220.712 48.5603 220.802 48.3022L220.764 46.7731L221.189 46.8699C220.944 47.0247 220.673 47.1473 220.377 47.2376C220.08 47.328 219.777 47.3989 219.467 47.4505C219.17 47.5022 218.873 47.5602 218.576 47.6247C218.293 47.6764 218.035 47.7473 217.802 47.8377C217.583 47.928 217.409 48.0506 217.28 48.2054C217.151 48.3602 217.086 48.5732 217.086 48.8441C217.086 49.2054 217.209 49.4958 217.454 49.7151C217.699 49.9345 218.015 50.0442 218.402 50.0442ZM46.6578 76.2507C45.8062 76.2507 45.0578 76.0378 44.4126 75.612C43.7803 75.1733 43.2835 74.5539 42.9222 73.7538C42.5609 72.9409 42.3803 71.9731 42.3803 70.8505C42.3803 69.8182 42.5351 68.9021 42.8448 68.102C43.1545 67.302 43.6126 66.6762 44.219 66.2245C44.8384 65.76 45.5997 65.5277 46.503 65.5277C47.1482 65.5277 47.6901 65.6439 48.1289 65.8761C48.5805 66.1084 48.9547 66.4568 49.2515 66.9213C49.5483 67.3859 49.787 67.973 49.9676 68.6827H50.4515C50.3612 68.244 50.2773 67.8311 50.1999 67.4439C50.1225 67.0439 50.058 66.6762 50.0063 66.3407C49.9676 65.9923 49.9483 65.689 49.9483 65.431V62.0437H53.0839V70.986V75.9797H50.5289L50.4902 72.9603H50.0644C49.9225 73.7345 49.6967 74.3668 49.387 74.8571C49.0902 75.3346 48.7095 75.6894 48.245 75.9217C47.7934 76.141 47.2643 76.2507 46.6578 76.2507ZM47.7805 73.7345C48.1805 73.7345 48.516 73.6506 48.7869 73.4829C49.0708 73.3022 49.2966 73.0764 49.4644 72.8054C49.6321 72.5344 49.7547 72.2441 49.8321 71.9344C49.9096 71.6247 49.9483 71.3344 49.9483 71.0634V70.657C49.9483 70.4118 49.916 70.1666 49.8515 69.9215C49.787 69.6763 49.6902 69.4376 49.5612 69.2053C49.445 68.973 49.2966 68.7666 49.116 68.5859C48.9353 68.4053 48.7224 68.2633 48.4773 68.1601C48.245 68.0569 47.9869 68.0053 47.703 68.0053C47.2772 68.0053 46.9095 68.1214 46.5998 68.3537C46.303 68.5859 46.0707 68.915 45.903 69.3408C45.7481 69.7666 45.6707 70.2699 45.6707 70.8505C45.6707 71.4312 45.7546 71.9409 45.9223 72.3796C46.0901 72.8054 46.3352 73.1409 46.6578 73.3861C46.9804 73.6184 47.3546 73.7345 47.7805 73.7345ZM60.3502 76.2507C59.4986 76.2507 58.7373 76.141 58.0663 75.9217C57.3953 75.6894 56.8211 75.3539 56.3436 74.9152C55.8791 74.4765 55.5242 73.9345 55.2791 73.2893C55.0339 72.6441 54.9113 71.9022 54.9113 71.0634C54.9113 70.2505 55.0274 69.5021 55.2597 68.8182C55.5049 68.1343 55.8468 67.5472 56.2855 67.0568C56.7372 66.5536 57.2856 66.1665 57.9308 65.8955C58.5889 65.6245 59.3244 65.489 60.1373 65.489C60.9631 65.489 61.6857 65.6245 62.3051 65.8955C62.9374 66.1536 63.4536 66.5407 63.8536 67.0568C64.2665 67.573 64.5697 68.2053 64.7633 68.9537C64.9568 69.6892 65.0214 70.5344 64.9568 71.4893L56.963 71.5473V69.9215L63.1761 69.8634L62.0729 70.6183C62.1632 69.9731 62.1245 69.4505 61.9567 69.0505C61.789 68.6375 61.5438 68.3407 61.2212 68.1601C60.8986 67.9665 60.5502 67.8698 60.176 67.8698C59.7244 67.8698 59.3244 67.9923 58.976 68.2375C58.6405 68.4827 58.3759 68.8375 58.1824 69.3021C57.9888 69.7666 57.8921 70.3344 57.8921 71.0054C57.8921 72.0635 58.1179 72.8312 58.5695 73.3087C59.034 73.7861 59.6212 74.0248 60.3309 74.0248C60.6793 74.0248 60.9696 73.9797 61.2019 73.8893C61.4341 73.7861 61.6212 73.6635 61.7632 73.5216C61.918 73.3667 62.0341 73.199 62.1116 73.0183C62.2019 72.8377 62.2729 72.6635 62.3245 72.4957L65.0343 73.0764C64.931 73.5538 64.7633 73.9861 64.531 74.3732C64.3116 74.7603 64.0084 75.0958 63.6213 75.3797C63.2471 75.6636 62.789 75.8765 62.2471 76.0184C61.718 76.1733 61.0857 76.2507 60.3502 76.2507ZM71.1273 76.2507C70.4434 76.2507 69.824 76.1862 69.2692 76.0572C68.7143 75.941 68.2304 75.7668 67.8175 75.5346C67.4046 75.3023 67.0627 75.0249 66.7917 74.7023C66.5336 74.3668 66.353 73.999 66.2497 73.599L68.5724 72.5732C68.6627 72.7925 68.8176 73.0183 69.0369 73.2506C69.2692 73.47 69.5724 73.6506 69.9466 73.7926C70.3337 73.9345 70.7983 74.0055 71.3402 74.0055C71.8564 74.0055 72.2564 73.9345 72.5403 73.7926C72.8371 73.6377 72.9854 73.4184 72.9854 73.1345C72.9854 72.928 72.9016 72.7667 72.7338 72.6506C72.579 72.5215 72.3403 72.4119 72.0177 72.3215C71.6951 72.2183 71.2951 72.1215 70.8176 72.0312C70.3273 71.928 69.8305 71.8118 69.3273 71.6828C68.824 71.5409 68.353 71.3538 67.9143 71.1215C67.4756 70.8763 67.1207 70.5602 66.8497 70.1731C66.5917 69.7731 66.4626 69.2698 66.4626 68.6633C66.4626 68.0311 66.6304 67.4827 66.9659 67.0181C67.3014 66.5407 67.7982 66.1665 68.4563 65.8955C69.1272 65.6245 69.9402 65.489 70.8951 65.489C71.7467 65.489 72.4951 65.5987 73.1403 65.8181C73.7855 66.0374 74.321 66.3536 74.7468 66.7665C75.1855 67.1665 75.4888 67.6504 75.6565 68.2182L73.1596 69.1085C73.0951 68.8246 72.9596 68.5795 72.7532 68.373C72.5596 68.1665 72.308 68.0117 71.9983 67.9085C71.7015 67.7923 71.3467 67.7343 70.9338 67.7343C70.4305 67.7343 70.037 67.8117 69.7531 67.9665C69.4821 68.1214 69.3466 68.3278 69.3466 68.5859C69.3466 68.7924 69.4369 68.9666 69.6176 69.1085C69.8111 69.2376 70.0821 69.3472 70.4305 69.4376C70.7789 69.5279 71.1918 69.6247 71.6693 69.7279C72.1725 69.8311 72.6693 69.9537 73.1596 70.0957C73.6629 70.2247 74.1145 70.4053 74.5145 70.6376C74.9275 70.857 75.25 71.1538 75.4823 71.528C75.7275 71.8893 75.8501 72.3602 75.8501 72.9409C75.8501 73.6248 75.6694 74.2184 75.3081 74.7216C74.9468 75.212 74.4113 75.5926 73.7016 75.8636C73.0048 76.1217 72.1467 76.2507 71.1273 76.2507ZM82.5023 76.2507C81.6249 76.2507 80.8507 76.1281 80.1797 75.883C79.5087 75.6378 78.9474 75.2894 78.4957 74.8378C78.0441 74.3732 77.6957 73.8184 77.4505 73.1732C77.2183 72.528 77.1021 71.8054 77.1021 71.0054C77.1021 70.1795 77.2183 69.4311 77.4505 68.7601C77.6957 68.0891 78.0441 67.5085 78.4957 67.0181C78.9474 66.5278 79.5022 66.1536 80.1603 65.8955C80.8184 65.6245 81.5733 65.489 82.4249 65.489C83.2765 65.489 84.0121 65.6245 84.6314 65.8955C85.2508 66.1665 85.7541 66.5471 86.1412 67.0375C86.5412 67.5278 86.8122 68.0956 86.9541 68.7408L84.0701 69.7085C84.0314 69.2827 83.9282 68.9343 83.7604 68.6633C83.5927 68.3924 83.3733 68.1988 83.1023 68.0827C82.8443 67.9536 82.5604 67.8891 82.2507 67.8891C81.9281 67.8891 81.6442 67.9536 81.3991 68.0827C81.1539 68.2117 80.9474 68.4053 80.7797 68.6633C80.6119 68.9214 80.4829 69.2376 80.3926 69.6118C80.3022 69.9731 80.2571 70.3924 80.2571 70.8699C80.2571 71.5538 80.341 72.128 80.5087 72.5925C80.6894 73.0441 80.9474 73.3861 81.2829 73.6184C81.6313 73.8506 82.0507 73.9668 82.541 73.9668C83.0443 73.9668 83.4378 73.8635 83.7217 73.6571C84.0056 73.4506 84.2121 73.199 84.3411 72.9022C84.4701 72.5925 84.5476 72.2893 84.5734 71.9925L87.2831 72.5925C87.2315 73.07 87.1025 73.5345 86.896 73.9861C86.7025 74.4248 86.4121 74.8184 86.025 75.1668C85.6379 75.5023 85.154 75.7668 84.5734 75.9604C84.0056 76.1539 83.3153 76.2507 82.5023 76.2507ZM92.2438 76.2507C91.0308 76.2507 90.1147 75.8442 89.4953 75.0313C88.8888 74.2055 88.5856 72.9538 88.5856 71.2763V65.76H91.7212V70.8699C91.7212 71.8247 91.8631 72.5409 92.147 73.0183C92.4309 73.4829 92.8631 73.7151 93.4438 73.7151C93.7922 73.7151 94.089 73.6313 94.3342 73.4635C94.5922 73.2829 94.8051 73.0377 94.9729 72.728C95.1535 72.4054 95.2826 72.0377 95.36 71.6247C95.4503 71.2118 95.4955 70.7602 95.4955 70.2699V65.76H98.6117V71.8377V75.9797H96.1342L96.0762 72.8248H95.689C95.4955 73.6248 95.2503 74.2829 94.9535 74.799C94.6697 75.3023 94.3084 75.67 93.8696 75.9023C93.4309 76.1346 92.8889 76.2507 92.2438 76.2507ZM107.472 76.2507C106.827 76.2507 106.26 76.1281 105.769 75.883C105.292 75.6378 104.898 75.27 104.589 74.7797C104.292 74.2894 104.092 73.6829 103.988 72.9603H103.621L103.563 75.9797H101.008V70.9667V62.0437H104.124V65.431C104.124 65.7407 104.098 66.0697 104.047 66.4181C104.008 66.7536 103.95 67.1084 103.872 67.4827C103.808 67.8569 103.737 68.2569 103.659 68.6827H104.105C104.285 67.9859 104.524 67.4052 104.821 66.9407C105.118 66.4762 105.485 66.1278 105.924 65.8955C106.376 65.6503 106.905 65.5277 107.511 65.5277C108.363 65.5277 109.098 65.7471 109.718 66.1858C110.35 66.6246 110.84 67.2504 111.189 68.0633C111.537 68.8633 111.711 69.8247 111.711 70.9473C111.711 72.0312 111.537 72.9732 111.189 73.7732C110.853 74.5603 110.369 75.1733 109.737 75.612C109.105 76.0378 108.35 76.2507 107.472 76.2507ZM106.311 73.7345C106.737 73.7345 107.111 73.6184 107.434 73.3861C107.756 73.1409 108.002 72.8054 108.169 72.3796C108.35 71.9409 108.44 71.4312 108.44 70.8505C108.44 70.2569 108.356 69.7537 108.189 69.3408C108.021 68.915 107.782 68.5859 107.472 68.3537C107.176 68.1214 106.814 68.0053 106.389 68.0053C106.105 68.0053 105.84 68.0569 105.595 68.1601C105.363 68.2633 105.156 68.4053 104.976 68.5859C104.795 68.7666 104.64 68.973 104.511 69.2053C104.382 69.4247 104.285 69.6634 104.221 69.9215C104.156 70.1666 104.124 70.4118 104.124 70.657V71.0634C104.124 71.3344 104.163 71.6247 104.24 71.9344C104.318 72.2441 104.44 72.5344 104.608 72.8054C104.789 73.0764 105.014 73.3022 105.285 73.4829C105.569 73.6506 105.911 73.7345 106.311 73.7345ZM113.559 75.9797V71.2376V65.76H116.114L116.172 69.2247H116.559C116.649 68.3214 116.817 67.6052 117.062 67.0762C117.32 66.5342 117.681 66.1407 118.146 65.8955C118.623 65.6503 119.21 65.5277 119.907 65.5277C120.01 65.5277 120.127 65.5342 120.256 65.5471C120.385 65.5471 120.533 65.56 120.701 65.5858L120.585 68.915C120.378 68.8117 120.152 68.7472 119.907 68.7214C119.675 68.6827 119.468 68.6633 119.288 68.6633C118.785 68.6633 118.346 68.7601 117.972 68.9537C117.61 69.1472 117.32 69.444 117.101 69.844C116.894 70.244 116.759 70.7473 116.694 71.3538V75.9797H113.559ZM122.197 75.9797V65.76H125.313V75.9797H122.197ZM123.765 64.3277C123.171 64.3277 122.713 64.2051 122.39 63.9599C122.081 63.7019 121.926 63.3406 121.926 62.876C121.926 62.3857 122.081 62.0179 122.39 61.7728C122.713 61.5147 123.171 61.3857 123.765 61.3857C124.371 61.3857 124.829 61.5147 125.139 61.7728C125.461 62.0179 125.623 62.3792 125.623 62.8567C125.623 63.3341 125.461 63.7019 125.139 63.9599C124.829 64.2051 124.371 64.3277 123.765 64.3277ZM127.735 75.9797V71.2376V65.76H130.29L130.348 69.2247H130.735C130.825 68.3214 130.993 67.6052 131.238 67.0762C131.496 66.5342 131.858 66.1407 132.322 65.8955C132.8 65.6503 133.387 65.5277 134.084 65.5277C134.187 65.5277 134.303 65.5342 134.432 65.5471C134.561 65.5471 134.709 65.56 134.877 65.5858L134.761 68.915C134.555 68.8117 134.329 68.7472 134.084 68.7214C133.851 68.6827 133.645 68.6633 133.464 68.6633C132.961 68.6633 132.522 68.7601 132.148 68.9537C131.787 69.1472 131.496 69.444 131.277 69.844C131.071 70.244 130.935 70.7473 130.871 71.3538V75.9797H127.735ZM145.502 76.2507C144.625 76.2507 143.851 76.1281 143.18 75.883C142.509 75.6378 141.947 75.2894 141.496 74.8378C141.044 74.3732 140.696 73.8184 140.451 73.1732C140.218 72.528 140.102 71.8054 140.102 71.0054C140.102 70.1795 140.218 69.4311 140.451 68.7601C140.696 68.0891 141.044 67.5085 141.496 67.0181C141.947 66.5278 142.502 66.1536 143.16 65.8955C143.818 65.6245 144.573 65.489 145.425 65.489C146.277 65.489 147.012 65.6245 147.631 65.8955C148.251 66.1665 148.754 66.5471 149.141 67.0375C149.541 67.5278 149.812 68.0956 149.954 68.7408L147.07 69.7085C147.031 69.2827 146.928 68.9343 146.76 68.6633C146.593 68.3924 146.373 68.1988 146.102 68.0827C145.844 67.9536 145.56 67.8891 145.251 67.8891C144.928 67.8891 144.644 67.9536 144.399 68.0827C144.154 68.2117 143.947 68.4053 143.78 68.6633C143.612 68.9214 143.483 69.2376 143.393 69.6118C143.302 69.9731 143.257 70.3924 143.257 70.8699C143.257 71.5538 143.341 72.128 143.509 72.5925C143.689 73.0441 143.947 73.3861 144.283 73.6184C144.631 73.8506 145.051 73.9668 145.541 73.9668C146.044 73.9668 146.438 73.8635 146.722 73.6571C147.006 73.4506 147.212 73.199 147.341 72.9022C147.47 72.5925 147.548 72.2893 147.573 71.9925L150.283 72.5925C150.232 73.07 150.103 73.5345 149.896 73.9861C149.702 74.4248 149.412 74.8184 149.025 75.1668C148.638 75.5023 148.154 75.7668 147.573 75.9604C147.006 76.1539 146.315 76.2507 145.502 76.2507ZM156.444 76.2507C155.412 76.2507 154.495 76.0507 153.695 75.6507C152.908 75.2507 152.289 74.6507 151.837 73.8506C151.386 73.0506 151.16 72.0506 151.16 70.8505C151.16 69.6505 151.386 68.6569 151.837 67.8698C152.289 67.0697 152.915 66.4762 153.715 66.0891C154.515 65.689 155.431 65.489 156.463 65.489C157.495 65.489 158.412 65.689 159.212 66.0891C160.012 66.4891 160.638 67.0891 161.089 67.8891C161.541 68.6762 161.767 69.6698 161.767 70.8699C161.767 72.0957 161.534 73.1087 161.07 73.9087C160.605 74.7087 159.967 75.3023 159.154 75.6894C158.354 76.0636 157.45 76.2507 156.444 76.2507ZM156.541 73.9861C157.005 73.9861 157.392 73.8829 157.702 73.6764C158.012 73.4571 158.244 73.128 158.399 72.6893C158.554 72.2506 158.631 71.7086 158.631 71.0634C158.631 70.3795 158.547 69.8053 158.379 69.3408C158.212 68.8633 157.96 68.502 157.625 68.2569C157.302 67.9988 156.883 67.8698 156.366 67.8698C155.928 67.8698 155.547 67.9794 155.224 68.1988C154.915 68.4053 154.682 68.7279 154.528 69.1666C154.373 69.6053 154.295 70.1537 154.295 70.8118C154.295 71.8699 154.489 72.6635 154.876 73.1925C155.276 73.7216 155.831 73.9861 156.541 73.9861ZM157.431 64.4245H155.089L156.56 61.0566H159.599L157.431 64.4245ZM163.592 75.9797V69.3795V65.76H166.05L166.089 68.7601H166.476C166.657 68.0246 166.895 67.4181 167.192 66.9407C167.489 66.4504 167.85 66.0891 168.276 65.8568C168.702 65.6116 169.199 65.489 169.766 65.489C170.36 65.489 170.85 65.6181 171.237 65.8761C171.637 66.1213 171.954 66.4891 172.186 66.9794C172.418 67.4568 172.573 68.0504 172.65 68.7601H172.979C173.186 67.9988 173.457 67.3794 173.792 66.902C174.128 66.4116 174.528 66.0568 174.992 65.8374C175.457 65.6052 175.96 65.489 176.502 65.489C177.083 65.489 177.586 65.6052 178.012 65.8374C178.451 66.0568 178.812 66.3923 179.096 66.8439C179.392 67.2826 179.612 67.8375 179.754 68.5085C179.896 69.1666 179.967 69.9344 179.967 70.8118V75.9797H176.831V71.1989C176.831 70.515 176.773 69.9473 176.657 69.4956C176.554 69.044 176.386 68.7085 176.154 68.4891C175.921 68.2569 175.625 68.1407 175.263 68.1407C174.85 68.1407 174.496 68.2762 174.199 68.5472C173.915 68.8182 173.696 69.1988 173.541 69.6892C173.386 70.1666 173.308 70.7086 173.308 71.3151V75.9797H170.25V71.257C170.25 70.5473 170.186 69.9666 170.057 69.515C169.941 69.0634 169.76 68.7214 169.515 68.4891C169.282 68.2569 168.986 68.1407 168.624 68.1407C168.211 68.1407 167.863 68.2762 167.579 68.5472C167.295 68.8182 167.076 69.1988 166.921 69.6892C166.779 70.1666 166.708 70.7086 166.708 71.3151V75.9797H163.592ZM186.933 76.2507C185.9 76.2507 184.984 76.0507 184.184 75.6507C183.397 75.2507 182.778 74.6507 182.326 73.8506C181.874 73.0506 181.649 72.0506 181.649 70.8505C181.649 69.6505 181.874 68.6569 182.326 67.8698C182.778 67.0697 183.403 66.4762 184.203 66.0891C185.003 65.689 185.92 65.489 186.952 65.489C187.984 65.489 188.9 65.689 189.7 66.0891C190.5 66.4891 191.126 67.0891 191.578 67.8891C192.03 68.6762 192.255 69.6698 192.255 70.8699C192.255 72.0957 192.023 73.1087 191.559 73.9087C191.094 74.7087 190.455 75.3023 189.642 75.6894C188.842 76.0636 187.939 76.2507 186.933 76.2507ZM187.029 73.9861C187.494 73.9861 187.881 73.8829 188.191 73.6764C188.5 73.4571 188.733 73.128 188.887 72.6893C189.042 72.2506 189.12 71.7086 189.12 71.0634C189.12 70.3795 189.036 69.8053 188.868 69.3408C188.7 68.8633 188.449 68.502 188.113 68.2569C187.791 67.9988 187.371 67.8698 186.855 67.8698C186.416 67.8698 186.036 67.9794 185.713 68.1988C185.403 68.4053 185.171 68.7279 185.016 69.1666C184.862 69.6053 184.784 70.1537 184.784 70.8118C184.784 71.8699 184.978 72.6635 185.365 73.1925C185.765 73.7216 186.32 73.9861 187.029 73.9861ZM42.9222 103.251V94.986V89.76H45.4771L45.5159 92.6633L45.8643 92.7021C45.9804 91.9794 46.1868 91.3794 46.4836 90.902C46.7804 90.4246 47.1611 90.0697 47.6256 89.8374C48.103 89.6052 48.645 89.489 49.2515 89.489C50.1547 89.489 50.929 89.7084 51.5741 90.1471C52.2322 90.5858 52.7355 91.2117 53.0839 92.0246C53.4323 92.8375 53.6065 93.8118 53.6065 94.9473C53.6065 95.9538 53.4516 96.857 53.1419 97.6571C52.8452 98.4571 52.3871 99.0894 51.7677 99.5539C51.1612 100.018 50.387 100.251 49.445 100.251C48.8127 100.251 48.2772 100.141 47.8385 99.9217C47.3998 99.6894 47.0256 99.3539 46.7159 98.9152C46.4191 98.4765 46.1675 97.928 45.961 97.27H45.5933C45.6707 97.6184 45.7417 97.9732 45.8062 98.3345C45.8707 98.6958 45.9223 99.0442 45.961 99.3797C46.0126 99.7152 46.0385 100.038 46.0385 100.347V103.251H42.9222ZM48.3031 97.7926C48.7289 97.7926 49.0902 97.6764 49.387 97.4442C49.6967 97.2119 49.9354 96.8828 50.1031 96.457C50.2709 96.0312 50.3547 95.5344 50.3547 94.9667C50.3547 94.3602 50.2644 93.844 50.0838 93.4182C49.916 92.9795 49.6708 92.644 49.3483 92.4117C49.0257 92.1665 48.6515 92.044 48.2256 92.044C47.8256 92.044 47.4837 92.1343 47.1998 92.3149C46.9288 92.4827 46.703 92.7085 46.5223 92.9924C46.3546 93.2634 46.232 93.5537 46.1546 93.8634C46.0772 94.1731 46.0385 94.4634 46.0385 94.7344V95.1602C46.0385 95.4054 46.0707 95.6505 46.1352 95.8957C46.1998 96.1409 46.2965 96.3796 46.4256 96.6119C46.5546 96.8312 46.7094 97.0312 46.8901 97.2119C47.0707 97.3925 47.2772 97.5345 47.5095 97.6377C47.7546 97.7409 48.0192 97.7926 48.3031 97.7926ZM55.4731 99.9797V95.2376V89.76H58.028L58.0861 93.2247H58.4732C58.5635 92.3214 58.7313 91.6052 58.9764 91.0762C59.2345 90.5342 59.5958 90.1407 60.0603 89.8955C60.5378 89.6503 61.1249 89.5277 61.8217 89.5277C61.9249 89.5277 62.0411 89.5342 62.1701 89.5471C62.2991 89.5471 62.4475 89.56 62.6153 89.5858L62.4991 92.915C62.2927 92.8117 62.0669 92.7472 61.8217 92.7214C61.5894 92.6827 61.383 92.6633 61.2023 92.6633C60.6991 92.6633 60.2603 92.7601 59.8861 92.9537C59.5248 93.1472 59.2345 93.444 59.0151 93.844C58.8087 94.244 58.6732 94.7473 58.6087 95.3538V99.9797H55.4731ZM68.8146 100.251C67.7823 100.251 66.8662 100.051 66.0661 99.6507C65.279 99.2507 64.6596 98.6507 64.208 97.8506C63.7564 97.0506 63.5306 96.0506 63.5306 94.8505C63.5306 93.6505 63.7564 92.6569 64.208 91.8698C64.6596 91.0697 65.2855 90.4762 66.0855 90.0891C66.8855 89.689 67.8017 89.489 68.834 89.489C69.8663 89.489 70.7824 89.689 71.5825 90.0891C72.3825 90.4891 73.0083 91.0891 73.46 91.8891C73.9116 92.6762 74.1374 93.6698 74.1374 94.8699C74.1374 96.0957 73.9051 97.1087 73.4406 97.9087C72.9761 98.7087 72.3373 99.3023 71.5244 99.6894C70.7244 100.064 69.8211 100.251 68.8146 100.251ZM68.9114 97.9861C69.3759 97.9861 69.7631 97.8829 70.0727 97.6764C70.3824 97.4571 70.6147 97.128 70.7695 96.6893C70.9244 96.2506 71.0018 95.7086 71.0018 95.0634C71.0018 94.3795 70.9179 93.8053 70.7502 93.3408C70.5824 92.8633 70.3308 92.502 69.9953 92.2569C69.6727 91.9988 69.2534 91.8698 68.7372 91.8698C68.2985 91.8698 67.9178 91.9794 67.5952 92.1988C67.2855 92.4053 67.0533 92.7279 66.8984 93.1666C66.7436 93.6053 66.6662 94.1537 66.6662 94.8118C66.6662 95.8699 66.8597 96.6635 67.2468 97.1925C67.6468 97.7216 68.2017 97.9861 68.9114 97.9861ZM79.95 100.231C78.7499 100.231 77.866 99.9152 77.2983 99.2829C76.7305 98.6378 76.4466 97.6119 76.4466 96.2054V92.1988H74.9949L75.053 89.7794H76.0982C76.5111 89.7665 76.8208 89.7019 77.0273 89.5858C77.2466 89.4697 77.3821 89.2503 77.4337 88.9277L77.6854 87.4954H79.4467V89.76H81.9049V92.2956H79.4467V96.0699C79.4467 96.5086 79.55 96.8312 79.7564 97.0377C79.9758 97.2442 80.3048 97.3474 80.7435 97.3474C80.9887 97.3474 81.221 97.3216 81.4403 97.27C81.6597 97.2183 81.8404 97.1474 81.9823 97.057V99.941C81.5694 100.07 81.1887 100.147 80.8403 100.173C80.5048 100.212 80.208 100.231 79.95 100.231ZM88.6464 100.251C87.7947 100.251 87.0334 100.141 86.3624 99.9217C85.6914 99.6894 85.1172 99.3539 84.6398 98.9152C84.1752 98.4765 83.8204 97.9345 83.5752 97.2893C83.33 96.6441 83.2074 95.9022 83.2074 95.0634C83.2074 94.2505 83.3236 93.5021 83.5558 92.8182C83.801 92.1343 84.143 91.5472 84.5817 91.0568C85.0333 90.5536 85.5817 90.1665 86.2269 89.8955C86.885 89.6245 87.6205 89.489 88.4334 89.489C89.2593 89.489 89.9819 89.6245 90.6013 89.8955C91.2335 90.1536 91.7497 90.5407 92.1497 91.0568C92.5626 91.573 92.8659 92.2053 93.0594 92.9537C93.253 93.6892 93.3175 94.5344 93.253 95.4893L85.2591 95.5473V93.9215L91.4723 93.8634L90.369 94.6183C90.4593 93.9731 90.4206 93.4505 90.2529 93.0505C90.0851 92.6375 89.8399 92.3407 89.5174 92.1601C89.1948 91.9665 88.8464 91.8698 88.4722 91.8698C88.0205 91.8698 87.6205 91.9923 87.2721 92.2375C86.9366 92.4827 86.6721 92.8375 86.4785 93.3021C86.285 93.7666 86.1882 94.3344 86.1882 95.0054C86.1882 96.0635 86.414 96.8312 86.8656 97.3087C87.3302 97.7861 87.9173 98.0248 88.627 98.0248C88.9754 98.0248 89.2657 97.9797 89.498 97.8893C89.7303 97.7861 89.9174 97.6635 90.0593 97.5216C90.2141 97.3667 90.3303 97.199 90.4077 97.0183C90.498 96.8377 90.569 96.6635 90.6206 96.4957L93.3304 97.0764C93.2272 97.5538 93.0594 97.9861 92.8271 98.3732C92.6078 98.7603 92.3045 99.0958 91.9174 99.3797C91.5432 99.6636 91.0851 99.8765 90.5432 100.018C90.0141 100.173 89.3819 100.251 88.6464 100.251ZM99.2709 103.561C98.1354 103.561 97.1998 103.47 96.4643 103.29C95.7417 103.122 95.2127 102.864 94.8772 102.515C94.5417 102.18 94.3739 101.767 94.3739 101.277C94.3739 100.683 94.6062 100.199 95.0707 99.8249C95.5482 99.4507 96.245 99.2378 97.1611 99.1862V98.7797C96.4514 98.7797 95.903 98.7087 95.5159 98.5668C95.1417 98.4248 94.9546 98.1603 94.9546 97.7732C94.9546 97.4119 95.1417 97.0829 95.5159 96.7861C95.8901 96.4893 96.5095 96.257 97.374 96.0893V95.6828C96.5869 95.6183 95.9611 95.3602 95.4965 94.9086C95.032 94.4441 94.7997 93.8376 94.7997 93.0892C94.7997 92.4569 94.9804 91.8827 95.3417 91.3665C95.703 90.8375 96.245 90.4181 96.9676 90.1084C97.6902 89.7858 98.5934 89.6245 99.6773 89.6245H104.981V91.9665L101.748 91.5407V92.0053C102.587 92.1214 103.187 92.3149 103.548 92.5859C103.91 92.8569 104.09 93.2376 104.09 93.7279C104.09 94.244 103.91 94.7021 103.548 95.1021C103.2 95.5022 102.703 95.8183 102.058 96.0506C101.413 96.2699 100.645 96.3796 99.7548 96.3796C99.5999 96.3796 99.4257 96.3732 99.2322 96.3602C99.0515 96.3473 98.7096 96.3151 98.2063 96.2635C97.9999 96.4441 97.8386 96.599 97.7224 96.728C97.6063 96.8441 97.5482 96.9538 97.5482 97.057C97.5482 97.1345 97.5805 97.199 97.645 97.2506C97.7095 97.3022 97.7999 97.3409 97.916 97.3667C98.045 97.3796 98.1805 97.3861 98.3225 97.3861H101.439C101.697 97.3861 102.032 97.4054 102.445 97.4442C102.871 97.47 103.29 97.5667 103.703 97.7345C104.129 97.9022 104.484 98.1732 104.768 98.5474C105.065 98.9216 105.213 99.4571 105.213 100.154C105.213 100.915 105 101.548 104.574 102.051C104.148 102.567 103.497 102.948 102.619 103.193C101.742 103.438 100.626 103.561 99.2709 103.561ZM99.6773 101.083C100.426 101.083 101.006 101.044 101.419 100.967C101.832 100.889 102.116 100.767 102.271 100.599C102.439 100.431 102.523 100.225 102.523 99.9797C102.523 99.7475 102.477 99.5668 102.387 99.4378C102.297 99.2958 102.181 99.1991 102.039 99.1474C101.897 99.0958 101.748 99.0636 101.594 99.0507C101.452 99.0378 101.329 99.0313 101.226 99.0313H98.7289C98.2515 99.0313 97.8966 99.1474 97.6644 99.3797C97.445 99.5991 97.3353 99.8572 97.3353 100.154C97.3353 100.399 97.4127 100.586 97.5676 100.715C97.7224 100.857 97.9676 100.954 98.3031 101.006C98.6515 101.057 99.1096 101.083 99.6773 101.083ZM99.5419 94.8312C100.097 94.8312 100.51 94.6828 100.781 94.386C101.064 94.0892 101.206 93.715 101.206 93.2634C101.206 92.773 101.064 92.373 100.781 92.0633C100.497 91.7407 100.09 91.5794 99.5612 91.5794C99.0322 91.5794 98.6192 91.7407 98.3225 92.0633C98.0257 92.373 97.8773 92.773 97.8773 93.2634C97.8773 93.5601 97.9418 93.8311 98.0708 94.0763C98.1999 94.3086 98.387 94.4957 98.6321 94.6376C98.8773 94.7666 99.1806 94.8312 99.5419 94.8312ZM111.555 100.251C110.704 100.251 109.942 100.141 109.271 99.9217C108.601 99.6894 108.026 99.3539 107.549 98.9152C107.084 98.4765 106.729 97.9345 106.484 97.2893C106.239 96.6441 106.117 95.9022 106.117 95.0634C106.117 94.2505 106.233 93.5021 106.465 92.8182C106.71 92.1343 107.052 91.5472 107.491 91.0568C107.942 90.5536 108.491 90.1665 109.136 89.8955C109.794 89.6245 110.53 89.489 111.343 89.489C112.168 89.489 112.891 89.6245 113.51 89.8955C114.143 90.1536 114.659 90.5407 115.059 91.0568C115.472 91.573 115.775 92.2053 115.969 92.9537C116.162 93.6892 116.227 94.5344 116.162 95.4893L108.168 95.5473V93.9215L114.381 93.8634L113.278 94.6183C113.368 93.9731 113.33 93.4505 113.162 93.0505C112.994 92.6375 112.749 92.3407 112.426 92.1601C112.104 91.9665 111.755 91.8698 111.381 91.8698C110.93 91.8698 110.53 91.9923 110.181 92.2375C109.846 92.4827 109.581 92.8375 109.388 93.3021C109.194 93.7666 109.097 94.3344 109.097 95.0054C109.097 96.0635 109.323 96.8312 109.775 97.3087C110.239 97.7861 110.826 98.0248 111.536 98.0248C111.884 98.0248 112.175 97.9797 112.407 97.8893C112.639 97.7861 112.826 97.6635 112.968 97.5216C113.123 97.3667 113.239 97.199 113.317 97.0183C113.407 96.8377 113.478 96.6635 113.53 96.4957L116.239 97.0764C116.136 97.5538 115.969 97.9861 115.736 98.3732C115.517 98.7603 115.214 99.0958 114.827 99.3797C114.452 99.6636 113.994 99.8765 113.452 100.018C112.923 100.173 112.291 100.251 111.555 100.251ZM118.057 99.9797V95.2376V89.76H120.612L120.67 93.2247H121.057C121.148 92.3214 121.315 91.6052 121.561 91.0762C121.819 90.5342 122.18 90.1407 122.645 89.8955C123.122 89.6503 123.709 89.5277 124.406 89.5277C124.509 89.5277 124.625 89.5342 124.754 89.5471C124.883 89.5471 125.032 89.56 125.199 89.5858L125.083 92.915C124.877 92.8117 124.651 92.7472 124.406 92.7214C124.174 92.6827 123.967 92.6633 123.786 92.6633C123.283 92.6633 122.845 92.7601 122.47 92.9537C122.109 93.1472 121.819 93.444 121.599 93.844C121.393 94.244 121.257 94.7473 121.193 95.3538V99.9797H118.057ZM130.985 100.231C129.785 100.231 128.901 99.9152 128.333 99.2829C127.766 98.6378 127.482 97.6119 127.482 96.2054V92.1988H126.03L126.088 89.7794H127.133C127.546 89.7665 127.856 89.7019 128.062 89.5858C128.282 89.4697 128.417 89.2503 128.469 88.9277L128.72 87.4954H130.482V89.76H132.94V92.2956H130.482V96.0699C130.482 96.5086 130.585 96.8312 130.792 97.0377C131.011 97.2442 131.34 97.3474 131.779 97.3474C132.024 97.3474 132.256 97.3216 132.475 97.27C132.695 97.2183 132.875 97.1474 133.017 97.057V99.941C132.604 100.07 132.224 100.147 131.875 100.173C131.54 100.212 131.243 100.231 130.985 100.231ZM139.681 100.251C138.83 100.251 138.069 100.141 137.398 99.9217C136.727 99.6894 136.152 99.3539 135.675 98.9152C135.21 98.4765 134.855 97.9345 134.61 97.2893C134.365 96.6441 134.243 95.9022 134.243 95.0634C134.243 94.2505 134.359 93.5021 134.591 92.8182C134.836 92.1343 135.178 91.5472 135.617 91.0568C136.068 90.5536 136.617 90.1665 137.262 89.8955C137.92 89.6245 138.656 89.489 139.469 89.489C140.294 89.489 141.017 89.6245 141.636 89.8955C142.269 90.1536 142.785 90.5407 143.185 91.0568C143.598 91.573 143.901 92.2053 144.095 92.9537C144.288 93.6892 144.353 94.5344 144.288 95.4893L136.294 95.5473V93.9215L142.507 93.8634L141.404 94.6183C141.494 93.9731 141.456 93.4505 141.288 93.0505C141.12 92.6375 140.875 92.3407 140.552 92.1601C140.23 91.9665 139.881 91.8698 139.507 91.8698C139.056 91.8698 138.656 91.9923 138.307 92.2375C137.972 92.4827 137.707 92.8375 137.514 93.3021C137.32 93.7666 137.223 94.3344 137.223 95.0054C137.223 96.0635 137.449 96.8312 137.901 97.3087C138.365 97.7861 138.952 98.0248 139.662 98.0248C140.011 98.0248 140.301 97.9797 140.533 97.8893C140.765 97.7861 140.952 97.6635 141.094 97.5216C141.249 97.3667 141.365 97.199 141.443 97.0183C141.533 96.8377 141.604 96.6635 141.656 96.4957L144.366 97.0764C144.262 97.5538 144.095 97.9861 143.862 98.3732C143.643 98.7603 143.34 99.0958 142.953 99.3797C142.578 99.6636 142.12 99.8765 141.578 100.018C141.049 100.173 140.417 100.251 139.681 100.251ZM155.351 100.251C154.499 100.251 153.738 100.141 153.067 99.9217C152.396 99.6894 151.822 99.3539 151.345 98.9152C150.88 98.4765 150.525 97.9345 150.28 97.2893C150.035 96.6441 149.912 95.9022 149.912 95.0634C149.912 94.2505 150.028 93.5021 150.261 92.8182C150.506 92.1343 150.848 91.5472 151.286 91.0568C151.738 90.5536 152.287 90.1665 152.932 89.8955C153.59 89.6245 154.325 89.489 155.138 89.489C155.964 89.489 156.687 89.6245 157.306 89.8955C157.938 90.1536 158.454 90.5407 158.854 91.0568C159.267 91.573 159.571 92.2053 159.764 92.9537C159.958 93.6892 160.022 94.5344 159.958 95.4893L151.964 95.5473V93.9215L158.177 93.8634L157.074 94.6183C157.164 93.9731 157.125 93.4505 156.958 93.0505C156.79 92.6375 156.545 92.3407 156.222 92.1601C155.9 91.9665 155.551 91.8698 155.177 91.8698C154.725 91.8698 154.325 91.9923 153.977 92.2375C153.641 92.4827 153.377 92.8375 153.183 93.3021C152.99 93.7666 152.893 94.3344 152.893 95.0054C152.893 96.0635 153.119 96.8312 153.57 97.3087C154.035 97.7861 154.622 98.0248 155.332 98.0248C155.68 98.0248 155.971 97.9797 156.203 97.8893C156.435 97.7861 156.622 97.6635 156.764 97.5216C156.919 97.3667 157.035 97.199 157.112 97.0183C157.203 96.8377 157.274 96.6635 157.325 96.4957L160.035 97.0764C159.932 97.5538 159.764 97.9861 159.532 98.3732C159.313 98.7603 159.009 99.0958 158.622 99.3797C158.248 99.6636 157.79 99.8765 157.248 100.018C156.719 100.173 156.087 100.251 155.351 100.251ZM161.853 99.9797V93.8247V89.76H164.369L164.408 92.7601H164.795C164.963 92.0375 165.201 91.431 165.511 90.9407C165.821 90.4504 166.214 90.0891 166.692 89.8568C167.169 89.6116 167.731 89.489 168.376 89.489C169.576 89.489 170.486 89.9084 171.105 90.7471C171.737 91.5859 172.053 92.9214 172.053 94.7537V99.9797H168.918V95.1021C168.918 94.044 168.763 93.2763 168.453 92.7988C168.156 92.3085 167.711 92.0633 167.118 92.0633C166.627 92.0633 166.221 92.2117 165.898 92.5085C165.589 92.8053 165.356 93.1988 165.201 93.6892C165.047 94.1795 164.969 94.7279 164.969 95.3344V99.9797H161.853ZM182.587 100.231C181.387 100.231 180.503 99.9152 179.936 99.2829C179.368 98.6378 179.084 97.6119 179.084 96.2054V92.1988H177.632L177.69 89.7794H178.736C179.148 89.7665 179.458 89.7019 179.665 89.5858C179.884 89.4697 180.019 89.2503 180.071 88.9277L180.323 87.4954H182.084V89.76H184.542V92.2956H182.084V96.0699C182.084 96.5086 182.187 96.8312 182.394 97.0377C182.613 97.2442 182.942 97.3474 183.381 97.3474C183.626 97.3474 183.858 97.3216 184.078 97.27C184.297 97.2183 184.478 97.1474 184.62 97.057V99.941C184.207 100.07 183.826 100.147 183.478 100.173C183.142 100.212 182.845 100.231 182.587 100.231ZM189.967 100.251C188.754 100.251 187.837 99.8442 187.218 99.0313C186.612 98.2055 186.308 96.9538 186.308 95.2763V89.76H189.444V94.8699C189.444 95.8247 189.586 96.5409 189.87 97.0183C190.154 97.4829 190.586 97.7151 191.167 97.7151C191.515 97.7151 191.812 97.6313 192.057 97.4635C192.315 97.2829 192.528 97.0377 192.696 96.728C192.876 96.4054 193.005 96.0377 193.083 95.6247C193.173 95.2118 193.218 94.7602 193.218 94.2699V89.76H196.335V95.8377V99.9797H193.857L193.799 96.8248H193.412C193.218 97.6248 192.973 98.2829 192.676 98.799C192.392 99.3023 192.031 99.67 191.592 99.9023C191.154 100.135 190.612 100.251 189.967 100.251ZM202.911 100.251C202.227 100.251 201.608 100.186 201.053 100.057C200.498 99.941 200.014 99.7668 199.602 99.5346C199.189 99.3023 198.847 99.0249 198.576 98.7023C198.318 98.3668 198.137 97.999 198.034 97.599L200.356 96.5732C200.447 96.7925 200.602 97.0183 200.821 97.2506C201.053 97.47 201.356 97.6506 201.731 97.7926C202.118 97.9345 202.582 98.0055 203.124 98.0055C203.64 98.0055 204.04 97.9345 204.324 97.7926C204.621 97.6377 204.769 97.4184 204.769 97.1345C204.769 96.928 204.686 96.7667 204.518 96.6506C204.363 96.5215 204.124 96.4119 203.802 96.3215C203.479 96.2183 203.079 96.1215 202.602 96.0312C202.111 95.928 201.615 95.8118 201.111 95.6828C200.608 95.5409 200.137 95.3538 199.698 95.1215C199.26 94.8763 198.905 94.5602 198.634 94.1731C198.376 93.7731 198.247 93.2698 198.247 92.6633C198.247 92.0311 198.414 91.4827 198.75 91.0181C199.085 90.5407 199.582 90.1665 200.24 89.8955C200.911 89.6245 201.724 89.489 202.679 89.489C203.531 89.489 204.279 89.5987 204.924 89.8181C205.57 90.0374 206.105 90.3536 206.531 90.7665C206.97 91.1665 207.273 91.6504 207.441 92.2182L204.944 93.1085C204.879 92.8246 204.744 92.5795 204.537 92.373C204.344 92.1665 204.092 92.0117 203.782 91.9085C203.486 91.7923 203.131 91.7343 202.718 91.7343C202.215 91.7343 201.821 91.8117 201.537 91.9665C201.266 92.1214 201.131 92.3278 201.131 92.5859C201.131 92.7924 201.221 92.9666 201.402 93.1085C201.595 93.2376 201.866 93.3472 202.215 93.4376C202.563 93.5279 202.976 93.6247 203.453 93.7279C203.957 93.8311 204.453 93.9537 204.944 94.0957C205.447 94.2247 205.899 94.4053 206.299 94.6376C206.711 94.857 207.034 95.1538 207.266 95.528C207.512 95.8893 207.634 96.3602 207.634 96.9409C207.634 97.6248 207.453 98.2184 207.092 98.7216C206.731 99.212 206.195 99.5926 205.486 99.8636C204.789 100.122 203.931 100.251 202.911 100.251ZM47.7417 124.251C46.8643 124.251 46.0901 124.128 45.4191 123.883C44.7481 123.638 44.1868 123.289 43.7351 122.838C43.2835 122.373 42.9351 121.818 42.6899 121.173C42.4577 120.528 42.3415 119.805 42.3415 119.005C42.3415 118.18 42.4577 117.431 42.6899 116.76C42.9351 116.089 43.2835 115.508 43.7351 115.018C44.1868 114.528 44.7416 114.154 45.3997 113.895C46.0578 113.625 46.8127 113.489 47.6643 113.489C48.516 113.489 49.2515 113.625 49.8709 113.895C50.4902 114.166 50.9935 114.547 51.3806 115.037C51.7806 115.528 52.0516 116.096 52.1935 116.741L49.3095 117.709C49.2708 117.283 49.1676 116.934 48.9999 116.663C48.8321 116.392 48.6127 116.199 48.3418 116.083C48.0837 115.954 47.7998 115.889 47.4901 115.889C47.1675 115.889 46.8836 115.954 46.6385 116.083C46.3933 116.212 46.1868 116.405 46.0191 116.663C45.8514 116.921 45.7223 117.238 45.632 117.612C45.5417 117.973 45.4965 118.392 45.4965 118.87C45.4965 119.554 45.5804 120.128 45.7481 120.593C45.9288 121.044 46.1868 121.386 46.5223 121.618C46.8707 121.851 47.2901 121.967 47.7805 121.967C48.2837 121.967 48.6773 121.864 48.9611 121.657C49.245 121.451 49.4515 121.199 49.5805 120.902C49.7096 120.593 49.787 120.289 49.8128 119.992L52.5226 120.593C52.4709 121.07 52.3419 121.534 52.1355 121.986C51.9419 122.425 51.6516 122.818 51.2645 123.167C50.8773 123.502 50.3935 123.767 49.8128 123.96C49.245 124.154 48.5547 124.251 47.7417 124.251ZM57.4832 124.251C56.2702 124.251 55.3541 123.844 54.7347 123.031C54.1282 122.205 53.825 120.954 53.825 119.276V113.76H56.9606V118.87C56.9606 119.825 57.1025 120.541 57.3864 121.018C57.6703 121.483 58.1026 121.715 58.6832 121.715C59.0316 121.715 59.3284 121.631 59.5736 121.464C59.8316 121.283 60.0446 121.038 60.2123 120.728C60.393 120.405 60.522 120.038 60.5994 119.625C60.6897 119.212 60.7349 118.76 60.7349 118.27V113.76H63.8511V119.838V123.98H61.3736L61.3156 120.825H60.9285C60.7349 121.625 60.4897 122.283 60.1929 122.799C59.9091 123.302 59.5478 123.67 59.109 123.902C58.6703 124.135 58.1284 124.251 57.4832 124.251ZM71.1054 124.251C70.2537 124.251 69.4924 124.141 68.8214 123.922C68.1504 123.689 67.5762 123.354 67.0988 122.915C66.6343 122.476 66.2794 121.935 66.0342 121.289C65.7891 120.644 65.6665 119.902 65.6665 119.063C65.6665 118.25 65.7826 117.502 66.0149 116.818C66.2601 116.134 66.602 115.547 67.0407 115.057C67.4924 114.554 68.0408 114.166 68.6859 113.895C69.344 113.625 70.0795 113.489 70.8925 113.489C71.7183 113.489 72.4409 113.625 73.0603 113.895C73.6926 114.154 74.2087 114.541 74.6087 115.057C75.0217 115.573 75.3249 116.205 75.5185 116.954C75.712 117.689 75.7765 118.534 75.712 119.489L67.7182 119.547V117.921L73.9313 117.863L72.828 118.618C72.9184 117.973 72.8797 117.45 72.7119 117.05C72.5442 116.638 72.299 116.341 71.9764 116.16C71.6538 115.967 71.3054 115.87 70.9312 115.87C70.4796 115.87 70.0795 115.992 69.7311 116.238C69.3957 116.483 69.1311 116.838 68.9376 117.302C68.744 117.767 68.6472 118.334 68.6472 119.005C68.6472 120.063 68.8731 120.831 69.3247 121.309C69.7892 121.786 70.3763 122.025 71.086 122.025C71.4344 122.025 71.7248 121.98 71.957 121.889C72.1893 121.786 72.3764 121.664 72.5183 121.522C72.6732 121.367 72.7893 121.199 72.8667 121.018C72.9571 120.838 73.028 120.663 73.0797 120.496L75.7894 121.076C75.6862 121.554 75.5185 121.986 75.2862 122.373C75.0668 122.76 74.7636 123.096 74.3765 123.38C74.0023 123.664 73.5442 123.877 73.0022 124.018C72.4732 124.173 71.8409 124.251 71.1054 124.251ZM77.6072 123.98V117.825V113.76H80.1234L80.1621 116.76H80.5492C80.717 116.038 80.9557 115.431 81.2654 114.941C81.5751 114.45 81.9686 114.089 82.4461 113.857C82.9235 113.612 83.4848 113.489 84.13 113.489C85.3301 113.489 86.2398 113.908 86.8591 114.747C87.4914 115.586 87.8076 116.921 87.8076 118.754V123.98H84.672V119.102C84.672 118.044 84.5171 117.276 84.2074 116.799C83.9106 116.308 83.4655 116.063 82.8719 116.063C82.3816 116.063 81.9751 116.212 81.6525 116.508C81.3428 116.805 81.1105 117.199 80.9557 117.689C80.8009 118.18 80.7234 118.728 80.7234 119.334V123.98H77.6072ZM93.9941 124.231C92.794 124.231 91.9101 123.915 91.3424 123.283C90.7746 122.638 90.4907 121.612 90.4907 120.205V116.199H89.0391L89.0971 113.779H90.1423C90.5552 113.766 90.8649 113.702 91.0714 113.586C91.2908 113.47 91.4262 113.25 91.4779 112.928L91.7295 111.495H93.4908V113.76H95.949V116.296H93.4908V120.07C93.4908 120.509 93.5941 120.831 93.8005 121.038C94.0199 121.244 94.3489 121.347 94.7877 121.347C95.0328 121.347 95.2651 121.322 95.4845 121.27C95.7038 121.218 95.8845 121.147 96.0264 121.057V123.941C95.6135 124.07 95.2328 124.147 94.8844 124.173C94.5489 124.212 94.2521 124.231 93.9941 124.231ZM100.27 124.251C99.7023 124.251 99.1991 124.141 98.7604 123.922C98.3217 123.689 97.9797 123.36 97.7345 122.935C97.4894 122.496 97.3668 121.967 97.3668 121.347C97.3668 120.767 97.4765 120.289 97.6958 119.915C97.9281 119.528 98.2571 119.225 98.683 119.005C99.1217 118.773 99.6443 118.586 100.251 118.444C100.857 118.289 101.548 118.154 102.322 118.038C102.696 117.973 103.006 117.915 103.251 117.863C103.509 117.799 103.702 117.702 103.832 117.573C103.961 117.444 104.025 117.257 104.025 117.012C104.025 116.689 103.909 116.412 103.677 116.179C103.444 115.947 103.07 115.831 102.554 115.831C102.193 115.831 101.864 115.896 101.567 116.025C101.283 116.154 101.038 116.341 100.831 116.586C100.625 116.831 100.47 117.128 100.367 117.476L97.6184 116.663C97.7861 116.121 98.0184 115.65 98.3152 115.25C98.6249 114.85 98.9926 114.521 99.4185 114.263C99.8443 113.992 100.328 113.799 100.87 113.683C101.425 113.554 102.012 113.489 102.631 113.489C103.664 113.489 104.503 113.657 105.148 113.992C105.806 114.315 106.29 114.825 106.599 115.521C106.922 116.205 107.083 117.089 107.083 118.173V119.741C107.083 120.205 107.09 120.676 107.103 121.154C107.128 121.618 107.154 122.089 107.18 122.567C107.219 123.031 107.264 123.502 107.316 123.98H104.567C104.515 123.683 104.464 123.328 104.412 122.915C104.361 122.489 104.322 122.057 104.296 121.618H103.928C103.748 122.109 103.483 122.56 103.135 122.973C102.799 123.373 102.386 123.689 101.896 123.922C101.419 124.141 100.877 124.251 100.27 124.251ZM101.683 122.044C101.915 122.044 102.148 122.005 102.38 121.928C102.625 121.838 102.857 121.722 103.077 121.58C103.296 121.425 103.496 121.238 103.677 121.018C103.857 120.799 103.993 120.56 104.083 120.302L104.044 118.773L104.47 118.87C104.225 119.025 103.954 119.147 103.657 119.238C103.361 119.328 103.057 119.399 102.748 119.451C102.451 119.502 102.154 119.56 101.857 119.625C101.573 119.676 101.315 119.747 101.083 119.838C100.864 119.928 100.689 120.051 100.56 120.205C100.431 120.36 100.367 120.573 100.367 120.844C100.367 121.205 100.489 121.496 100.735 121.715C100.98 121.935 101.296 122.044 101.683 122.044ZM113.562 124.251C112.878 124.251 112.259 124.186 111.704 124.057C111.149 123.941 110.665 123.767 110.252 123.535C109.839 123.302 109.497 123.025 109.226 122.702C108.968 122.367 108.788 121.999 108.684 121.599L111.007 120.573C111.097 120.793 111.252 121.018 111.472 121.251C111.704 121.47 112.007 121.651 112.381 121.793C112.768 121.935 113.233 122.005 113.775 122.005C114.291 122.005 114.691 121.935 114.975 121.793C115.272 121.638 115.42 121.418 115.42 121.134C115.42 120.928 115.336 120.767 115.169 120.651C115.014 120.522 114.775 120.412 114.452 120.322C114.13 120.218 113.73 120.122 113.252 120.031C112.762 119.928 112.265 119.812 111.762 119.683C111.259 119.541 110.788 119.354 110.349 119.121C109.91 118.876 109.555 118.56 109.285 118.173C109.026 117.773 108.897 117.27 108.897 116.663C108.897 116.031 109.065 115.483 109.401 115.018C109.736 114.541 110.233 114.166 110.891 113.895C111.562 113.625 112.375 113.489 113.33 113.489C114.181 113.489 114.93 113.599 115.575 113.818C116.22 114.037 116.756 114.354 117.182 114.766C117.62 115.167 117.924 115.65 118.091 116.218L115.594 117.109C115.53 116.825 115.394 116.579 115.188 116.373C114.994 116.167 114.743 116.012 114.433 115.908C114.136 115.792 113.781 115.734 113.369 115.734C112.865 115.734 112.472 115.812 112.188 115.967C111.917 116.121 111.781 116.328 111.781 116.586C111.781 116.792 111.872 116.967 112.052 117.109C112.246 117.238 112.517 117.347 112.865 117.438C113.214 117.528 113.627 117.625 114.104 117.728C114.607 117.831 115.104 117.954 115.594 118.096C116.098 118.225 116.549 118.405 116.949 118.638C117.362 118.857 117.685 119.154 117.917 119.528C118.162 119.889 118.285 120.36 118.285 120.941C118.285 121.625 118.104 122.218 117.743 122.722C117.382 123.212 116.846 123.593 116.136 123.864C115.44 124.122 114.581 124.251 113.562 124.251ZM128.049 124.251C127.198 124.251 126.449 124.038 125.804 123.612C125.172 123.173 124.675 122.554 124.314 121.754C123.952 120.941 123.772 119.973 123.772 118.851C123.772 117.818 123.927 116.902 124.236 116.102C124.546 115.302 125.004 114.676 125.611 114.225C126.23 113.76 126.991 113.528 127.895 113.528C128.54 113.528 129.082 113.644 129.52 113.876C129.972 114.108 130.346 114.457 130.643 114.921C130.94 115.386 131.179 115.973 131.359 116.683H131.843C131.753 116.244 131.669 115.831 131.591 115.444C131.514 115.044 131.45 114.676 131.398 114.341C131.359 113.992 131.34 113.689 131.34 113.431V110.044H134.475V118.986V123.98H131.921L131.882 120.96H131.456C131.314 121.734 131.088 122.367 130.779 122.857C130.482 123.335 130.101 123.689 129.637 123.922C129.185 124.141 128.656 124.251 128.049 124.251ZM129.172 121.734C129.572 121.734 129.908 121.651 130.179 121.483C130.462 121.302 130.688 121.076 130.856 120.805C131.024 120.534 131.146 120.244 131.224 119.934C131.301 119.625 131.34 119.334 131.34 119.063V118.657C131.34 118.412 131.308 118.167 131.243 117.921C131.179 117.676 131.082 117.438 130.953 117.205C130.837 116.973 130.688 116.767 130.508 116.586C130.327 116.405 130.114 116.263 129.869 116.16C129.637 116.057 129.378 116.005 129.095 116.005C128.669 116.005 128.301 116.121 127.991 116.354C127.695 116.586 127.462 116.915 127.295 117.341C127.14 117.767 127.062 118.27 127.062 118.851C127.062 119.431 127.146 119.941 127.314 120.38C127.482 120.805 127.727 121.141 128.049 121.386C128.372 121.618 128.746 121.734 129.172 121.734ZM141.742 124.251C140.89 124.251 140.129 124.141 139.458 123.922C138.787 123.689 138.213 123.354 137.735 122.915C137.271 122.476 136.916 121.935 136.671 121.289C136.425 120.644 136.303 119.902 136.303 119.063C136.303 118.25 136.419 117.502 136.651 116.818C136.896 116.134 137.238 115.547 137.677 115.057C138.129 114.554 138.677 114.166 139.322 113.895C139.98 113.625 140.716 113.489 141.529 113.489C142.355 113.489 143.077 113.625 143.697 113.895C144.329 114.154 144.845 114.541 145.245 115.057C145.658 115.573 145.961 116.205 146.155 116.954C146.348 117.689 146.413 118.534 146.348 119.489L138.355 119.547V117.921L144.568 117.863L143.464 118.618C143.555 117.973 143.516 117.45 143.348 117.05C143.181 116.638 142.935 116.341 142.613 116.16C142.29 115.967 141.942 115.87 141.568 115.87C141.116 115.87 140.716 115.992 140.368 116.238C140.032 116.483 139.768 116.838 139.574 117.302C139.38 117.767 139.284 118.334 139.284 119.005C139.284 120.063 139.509 120.831 139.961 121.309C140.426 121.786 141.013 122.025 141.722 122.025C142.071 122.025 142.361 121.98 142.593 121.889C142.826 121.786 143.013 121.664 143.155 121.522C143.31 121.367 143.426 121.199 143.503 121.018C143.593 120.838 143.664 120.663 143.716 120.496L146.426 121.076C146.323 121.554 146.155 121.986 145.923 122.373C145.703 122.76 145.4 123.096 145.013 123.38C144.639 123.664 144.181 123.877 143.639 124.018C143.11 124.173 142.477 124.251 141.742 124.251ZM152.553 123.98V119.238V113.76H155.108L155.166 117.225H155.553C155.644 116.321 155.811 115.605 156.057 115.076C156.315 114.534 156.676 114.141 157.14 113.895C157.618 113.65 158.205 113.528 158.902 113.528C159.005 113.528 159.121 113.534 159.25 113.547C159.379 113.547 159.528 113.56 159.695 113.586L159.579 116.915C159.373 116.812 159.147 116.747 158.902 116.721C158.67 116.683 158.463 116.663 158.282 116.663C157.779 116.663 157.34 116.76 156.966 116.954C156.605 117.147 156.315 117.444 156.095 117.844C155.889 118.244 155.753 118.747 155.689 119.354V123.98H152.553ZM166.05 124.251C165.198 124.251 164.437 124.141 163.766 123.922C163.095 123.689 162.52 123.354 162.043 122.915C161.578 122.476 161.224 121.935 160.978 121.289C160.733 120.644 160.611 119.902 160.611 119.063C160.611 118.25 160.727 117.502 160.959 116.818C161.204 116.134 161.546 115.547 161.985 115.057C162.437 114.554 162.985 114.166 163.63 113.895C164.288 113.625 165.024 113.489 165.837 113.489C166.663 113.489 167.385 113.625 168.005 113.895C168.637 114.154 169.153 114.541 169.553 115.057C169.966 115.573 170.269 116.205 170.463 116.954C170.656 117.689 170.721 118.534 170.656 119.489L162.662 119.547V117.921L168.876 117.863L167.772 118.618C167.863 117.973 167.824 117.45 167.656 117.05C167.488 116.638 167.243 116.341 166.921 116.16C166.598 115.967 166.25 115.87 165.875 115.87C165.424 115.87 165.024 115.992 164.675 116.238C164.34 116.483 164.075 116.838 163.882 117.302C163.688 117.767 163.591 118.334 163.591 119.005C163.591 120.063 163.817 120.831 164.269 121.309C164.733 121.786 165.321 122.025 166.03 122.025C166.379 122.025 166.669 121.98 166.901 121.889C167.134 121.786 167.321 121.664 167.463 121.522C167.617 121.367 167.734 121.199 167.811 121.018C167.901 120.838 167.972 120.663 168.024 120.496L170.734 121.076C170.63 121.554 170.463 121.986 170.23 122.373C170.011 122.76 169.708 123.096 169.321 123.38C168.946 123.664 168.488 123.877 167.946 124.018C167.417 124.173 166.785 124.251 166.05 124.251ZM176.438 124.251C175.587 124.251 174.838 124.038 174.193 123.612C173.561 123.173 173.064 122.554 172.703 121.754C172.341 120.941 172.161 119.973 172.161 118.851C172.161 117.818 172.316 116.902 172.625 116.102C172.935 115.302 173.393 114.676 173.999 114.225C174.619 113.76 175.38 113.528 176.283 113.528C176.929 113.528 177.471 113.644 177.909 113.876C178.361 114.108 178.735 114.457 179.032 114.921C179.329 115.386 179.567 115.973 179.748 116.683H180.232C180.142 116.244 180.058 115.831 179.98 115.444C179.903 115.044 179.838 114.676 179.787 114.341C179.748 113.992 179.729 113.689 179.729 113.431V110.044H182.864V118.986V123.98H180.309L180.271 120.96H179.845C179.703 121.734 179.477 122.367 179.167 122.857C178.871 123.335 178.49 123.689 178.025 123.922C177.574 124.141 177.045 124.251 176.438 124.251ZM177.561 121.734C177.961 121.734 178.296 121.651 178.567 121.483C178.851 121.302 179.077 121.076 179.245 120.805C179.413 120.534 179.535 120.244 179.613 119.934C179.69 119.625 179.729 119.334 179.729 119.063V118.657C179.729 118.412 179.696 118.167 179.632 117.921C179.567 117.676 179.471 117.438 179.342 117.205C179.225 116.973 179.077 116.767 178.896 116.586C178.716 116.405 178.503 116.263 178.258 116.16C178.025 116.057 177.767 116.005 177.483 116.005C177.058 116.005 176.69 116.121 176.38 116.354C176.083 116.586 175.851 116.915 175.683 117.341C175.529 117.767 175.451 118.27 175.451 118.851C175.451 119.431 175.535 119.941 175.703 120.38C175.87 120.805 176.116 121.141 176.438 121.386C176.761 121.618 177.135 121.734 177.561 121.734ZM190.131 124.251C189.279 124.251 188.518 124.141 187.847 123.922C187.176 123.689 186.601 123.354 186.124 122.915C185.659 122.476 185.305 121.935 185.059 121.289C184.814 120.644 184.692 119.902 184.692 119.063C184.692 118.25 184.808 117.502 185.04 116.818C185.285 116.134 185.627 115.547 186.066 115.057C186.518 114.554 187.066 114.166 187.711 113.895C188.369 113.625 189.105 113.489 189.918 113.489C190.744 113.489 191.466 113.625 192.086 113.895C192.718 114.154 193.234 114.541 193.634 115.057C194.047 115.573 194.35 116.205 194.544 116.954C194.737 117.689 194.802 118.534 194.737 119.489L186.743 119.547V117.921L192.957 117.863L191.853 118.618C191.944 117.973 191.905 117.45 191.737 117.05C191.569 116.638 191.324 116.341 191.002 116.16C190.679 115.967 190.331 115.87 189.956 115.87C189.505 115.87 189.105 115.992 188.756 116.238C188.421 116.483 188.156 116.838 187.963 117.302C187.769 117.767 187.672 118.334 187.672 119.005C187.672 120.063 187.898 120.831 188.35 121.309C188.814 121.786 189.402 122.025 190.111 122.025C190.46 122.025 190.75 121.98 190.982 121.889C191.215 121.786 191.402 121.664 191.544 121.522C191.698 121.367 191.815 121.199 191.892 121.018C191.982 120.838 192.053 120.663 192.105 120.496L194.815 121.076C194.711 121.554 194.544 121.986 194.311 122.373C194.092 122.76 193.789 123.096 193.402 123.38C193.028 123.664 192.569 123.877 192.027 124.018C191.498 124.173 190.866 124.251 190.131 124.251ZM200.908 124.251C200.224 124.251 199.604 124.186 199.05 124.057C198.495 123.941 198.011 123.767 197.598 123.535C197.185 123.302 196.843 123.025 196.572 122.702C196.314 122.367 196.133 121.999 196.03 121.599L198.353 120.573C198.443 120.793 198.598 121.018 198.817 121.251C199.05 121.47 199.353 121.651 199.727 121.793C200.114 121.935 200.579 122.005 201.121 122.005C201.637 122.005 202.037 121.935 202.321 121.793C202.617 121.638 202.766 121.418 202.766 121.134C202.766 120.928 202.682 120.767 202.514 120.651C202.359 120.522 202.121 120.412 201.798 120.322C201.475 120.218 201.075 120.122 200.598 120.031C200.108 119.928 199.611 119.812 199.108 119.683C198.604 119.541 198.133 119.354 197.695 119.121C197.256 118.876 196.901 118.56 196.63 118.173C196.372 117.773 196.243 117.27 196.243 116.663C196.243 116.031 196.411 115.483 196.746 115.018C197.082 114.541 197.579 114.166 198.237 113.895C198.908 113.625 199.721 113.489 200.675 113.489C201.527 113.489 202.276 113.599 202.921 113.818C203.566 114.037 204.101 114.354 204.527 114.766C204.966 115.167 205.269 115.65 205.437 116.218L202.94 117.109C202.876 116.825 202.74 116.579 202.534 116.373C202.34 116.167 202.088 116.012 201.779 115.908C201.482 115.792 201.127 115.734 200.714 115.734C200.211 115.734 199.817 115.812 199.533 115.967C199.263 116.121 199.127 116.328 199.127 116.586C199.127 116.792 199.217 116.967 199.398 117.109C199.592 117.238 199.863 117.347 200.211 117.438C200.559 117.528 200.972 117.625 201.45 117.728C201.953 117.831 202.45 117.954 202.94 118.096C203.443 118.225 203.895 118.405 204.295 118.638C204.708 118.857 205.03 119.154 205.263 119.528C205.508 119.889 205.63 120.36 205.63 120.941C205.63 121.625 205.45 122.218 205.089 122.722C204.727 123.212 204.192 123.593 203.482 123.864C202.785 124.122 201.927 124.251 200.908 124.251ZM47.103 148.251C46.4191 148.251 45.7997 148.186 45.2449 148.057C44.69 147.941 44.2061 147.767 43.7932 147.535C43.3803 147.302 43.0383 147.025 42.7674 146.702C42.5093 146.367 42.3286 145.999 42.2254 145.599L44.5481 144.573C44.6384 144.793 44.7932 145.018 45.0126 145.251C45.2449 145.47 45.5481 145.651 45.9223 145.793C46.3094 145.935 46.774 146.005 47.3159 146.005C47.8321 146.005 48.2321 145.935 48.516 145.793C48.8127 145.638 48.9611 145.418 48.9611 145.134C48.9611 144.928 48.8773 144.767 48.7095 144.651C48.5547 144.522 48.316 144.412 47.9934 144.322C47.6708 144.218 47.2708 144.122 46.7933 144.031C46.303 143.928 45.8062 143.812 45.3029 143.683C44.7997 143.541 44.3287 143.354 43.89 143.121C43.4513 142.876 43.0964 142.56 42.8254 142.173C42.5674 141.773 42.4383 141.27 42.4383 140.663C42.4383 140.031 42.6061 139.483 42.9416 139.018C43.2771 138.541 43.7739 138.166 44.4319 137.895C45.1029 137.625 45.9159 137.489 46.8707 137.489C47.7224 137.489 48.4708 137.599 49.116 137.818C49.7612 138.037 50.2967 138.354 50.7225 138.766C51.1612 139.167 51.4645 139.65 51.6322 140.218L49.1353 141.109C49.0708 140.825 48.9353 140.579 48.7289 140.373C48.5353 140.167 48.2837 140.012 47.974 139.908C47.6772 139.792 47.3224 139.734 46.9095 139.734C46.4062 139.734 46.0126 139.812 45.7288 139.967C45.4578 140.121 45.3223 140.328 45.3223 140.586C45.3223 140.792 45.4126 140.967 45.5933 141.109C45.7868 141.238 46.0578 141.347 46.4062 141.438C46.7546 141.528 47.1675 141.625 47.645 141.728C48.1482 141.831 48.645 141.954 49.1353 142.096C49.6386 142.225 50.0902 142.405 50.4902 142.638C50.9031 142.857 51.2257 143.154 51.458 143.528C51.7032 143.889 51.8258 144.36 51.8258 144.941C51.8258 145.625 51.6451 146.218 51.2838 146.722C50.9225 147.212 50.387 147.593 49.6773 147.864C48.9805 148.122 48.1224 148.251 47.103 148.251ZM58.4186 148.251C57.3863 148.251 56.4701 148.051 55.6701 147.651C54.883 147.251 54.2636 146.651 53.812 145.851C53.3603 145.051 53.1345 144.051 53.1345 142.851C53.1345 141.65 53.3603 140.657 53.812 139.87C54.2636 139.07 54.8894 138.476 55.6895 138.089C56.4895 137.689 57.4057 137.489 58.4379 137.489C59.4702 137.489 60.3864 137.689 61.1864 138.089C61.9865 138.489 62.6123 139.089 63.0639 139.889C63.5155 140.676 63.7414 141.67 63.7414 142.87C63.7414 144.096 63.5091 145.109 63.0446 145.909C62.58 146.709 61.9413 147.302 61.1284 147.689C60.3283 148.064 59.4251 148.251 58.4186 148.251ZM58.5154 145.986C58.9799 145.986 59.367 145.883 59.6767 145.676C59.9864 145.457 60.2187 145.128 60.3735 144.689C60.5283 144.251 60.6058 143.709 60.6058 143.063C60.6058 142.38 60.5219 141.805 60.3541 141.341C60.1864 140.863 59.9348 140.502 59.5993 140.257C59.2767 139.999 58.8573 139.87 58.3412 139.87C57.9024 139.87 57.5218 139.979 57.1992 140.199C56.8895 140.405 56.6572 140.728 56.5024 141.167C56.3475 141.605 56.2701 142.154 56.2701 142.812C56.2701 143.87 56.4637 144.663 56.8508 145.193C57.2508 145.722 57.8057 145.986 58.5154 145.986ZM70.3862 148.251C69.5088 148.251 68.7345 148.128 68.0635 147.883C67.3926 147.638 66.8312 147.289 66.3796 146.838C65.928 146.373 65.5796 145.818 65.3344 145.173C65.1021 144.528 64.986 143.805 64.986 143.005C64.986 142.18 65.1021 141.431 65.3344 140.76C65.5796 140.089 65.928 139.508 66.3796 139.018C66.8312 138.528 67.3861 138.154 68.0442 137.895C68.7023 137.625 69.4571 137.489 70.3088 137.489C71.1604 137.489 71.8959 137.625 72.5153 137.895C73.1347 138.166 73.6379 138.547 74.0251 139.037C74.4251 139.528 74.696 140.096 74.838 140.741L71.954 141.709C71.9153 141.283 71.8121 140.934 71.6443 140.663C71.4766 140.392 71.2572 140.199 70.9862 140.083C70.7282 139.954 70.4443 139.889 70.1346 139.889C69.812 139.889 69.5281 139.954 69.2829 140.083C69.0378 140.212 68.8313 140.405 68.6636 140.663C68.4958 140.921 68.3668 141.238 68.2765 141.612C68.1861 141.973 68.141 142.392 68.141 142.87C68.141 143.554 68.2248 144.128 68.3926 144.593C68.5732 145.044 68.8313 145.386 69.1668 145.618C69.5152 145.851 69.9346 145.967 70.4249 145.967C70.9282 145.967 71.3217 145.864 71.6056 145.657C71.8895 145.451 72.096 145.199 72.225 144.902C72.354 144.593 72.4314 144.289 72.4573 143.992L75.167 144.593C75.1154 145.07 74.9864 145.534 74.7799 145.986C74.5864 146.425 74.296 146.818 73.9089 147.167C73.5218 147.502 73.0379 147.767 72.4573 147.96C71.8895 148.154 71.1991 148.251 70.3862 148.251ZM76.6243 147.98V137.76H79.7405V147.98H76.6243ZM78.1921 136.328C77.5985 136.328 77.1404 136.205 76.8178 135.96C76.5082 135.702 76.3533 135.341 76.3533 134.876C76.3533 134.386 76.5082 134.018 76.8178 133.773C77.1404 133.515 77.5985 133.386 78.1921 133.386C78.7986 133.386 79.2566 133.515 79.5663 133.773C79.8889 134.018 80.0502 134.379 80.0502 134.857C80.0502 135.334 79.8889 135.702 79.5663 135.96C79.2566 136.205 78.7986 136.328 78.1921 136.328ZM84.5626 148.251C83.9949 148.251 83.4916 148.141 83.0529 147.922C82.6142 147.689 82.2722 147.36 82.0271 146.935C81.7819 146.496 81.6593 145.967 81.6593 145.347C81.6593 144.767 81.769 144.289 81.9883 143.915C82.2206 143.528 82.5497 143.225 82.9755 143.005C83.4142 142.773 83.9368 142.586 84.5433 142.444C85.1498 142.289 85.8401 142.154 86.6143 142.038C86.9885 141.973 87.2982 141.915 87.5434 141.863C87.8015 141.799 87.995 141.702 88.1241 141.573C88.2531 141.444 88.3176 141.257 88.3176 141.012C88.3176 140.689 88.2015 140.412 87.9692 140.179C87.7369 139.947 87.3627 139.831 86.8466 139.831C86.4853 139.831 86.1562 139.896 85.8595 140.025C85.5756 140.154 85.3304 140.341 85.1239 140.586C84.9175 140.831 84.7626 141.128 84.6594 141.476L81.9109 140.663C82.0787 140.121 82.3109 139.65 82.6077 139.25C82.9174 138.85 83.2852 138.521 83.711 138.263C84.1368 137.992 84.6207 137.799 85.1627 137.683C85.7175 137.554 86.3046 137.489 86.924 137.489C87.9563 137.489 88.795 137.657 89.4402 137.992C90.0983 138.315 90.5822 138.825 90.8919 139.521C91.2145 140.205 91.3758 141.089 91.3758 142.173V143.741C91.3758 144.205 91.3822 144.676 91.3951 145.154C91.4209 145.618 91.4468 146.089 91.4726 146.567C91.5113 147.031 91.5564 147.502 91.608 147.98H88.8596C88.8079 147.683 88.7563 147.328 88.7047 146.915C88.6531 146.489 88.6144 146.057 88.5886 145.618H88.2208C88.0402 146.109 87.7757 146.56 87.4273 146.973C87.0918 147.373 86.6788 147.689 86.1885 147.922C85.7111 148.141 85.1691 148.251 84.5626 148.251ZM85.9756 146.044C86.2079 146.044 86.4401 146.005 86.6724 145.928C86.9176 145.838 87.1498 145.722 87.3692 145.58C87.5885 145.425 87.7886 145.238 87.9692 145.018C88.1499 144.799 88.2853 144.56 88.3757 144.302L88.337 142.773L88.7628 142.87C88.5176 143.025 88.2466 143.147 87.9499 143.238C87.6531 143.328 87.3498 143.399 87.0401 143.451C86.7434 143.502 86.4466 143.56 86.1498 143.625C85.8659 143.676 85.6078 143.747 85.3756 143.838C85.1562 143.928 84.982 144.051 84.853 144.205C84.7239 144.36 84.6594 144.573 84.6594 144.844C84.6594 145.205 84.782 145.496 85.0272 145.715C85.2723 145.935 85.5885 146.044 85.9756 146.044ZM93.6738 147.98V134.044H96.732V147.98H93.6738ZM104.014 148.251C103.162 148.251 102.401 148.141 101.73 147.922C101.059 147.689 100.484 147.354 100.007 146.915C99.5425 146.476 99.1876 145.935 98.9424 145.289C98.6973 144.644 98.5747 143.902 98.5747 143.063C98.5747 142.25 98.6908 141.502 98.9231 140.818C99.1683 140.134 99.5102 139.547 99.9489 139.057C100.401 138.554 100.949 138.166 101.594 137.895C102.252 137.625 102.988 137.489 103.801 137.489C104.627 137.489 105.349 137.625 105.969 137.895C106.601 138.154 107.117 138.541 107.517 139.057C107.93 139.573 108.233 140.205 108.427 140.954C108.62 141.689 108.685 142.534 108.62 143.489L100.626 143.547V141.921L106.84 141.863L105.736 142.618C105.827 141.973 105.788 141.45 105.62 141.05C105.452 140.638 105.207 140.341 104.885 140.16C104.562 139.967 104.214 139.87 103.839 139.87C103.388 139.87 102.988 139.992 102.639 140.238C102.304 140.483 102.039 140.838 101.846 141.302C101.652 141.767 101.555 142.334 101.555 143.005C101.555 144.063 101.781 144.831 102.233 145.309C102.697 145.786 103.285 146.025 103.994 146.025C104.343 146.025 104.633 145.98 104.865 145.889C105.098 145.786 105.285 145.664 105.427 145.522C105.581 145.367 105.698 145.199 105.775 145.018C105.865 144.838 105.936 144.663 105.988 144.496L108.698 145.076C108.594 145.554 108.427 145.986 108.194 146.373C107.975 146.76 107.672 147.096 107.285 147.38C106.91 147.664 106.452 147.877 105.91 148.018C105.381 148.173 104.749 148.251 104.014 148.251ZM114.791 148.251C114.107 148.251 113.487 148.186 112.933 148.057C112.378 147.941 111.894 147.767 111.481 147.535C111.068 147.302 110.726 147.025 110.455 146.702C110.197 146.367 110.016 145.999 109.913 145.599L112.236 144.573C112.326 144.793 112.481 145.018 112.7 145.251C112.933 145.47 113.236 145.651 113.61 145.793C113.997 145.935 114.462 146.005 115.004 146.005C115.52 146.005 115.92 145.935 116.204 145.793C116.5 145.638 116.649 145.418 116.649 145.134C116.649 144.928 116.565 144.767 116.397 144.651C116.242 144.522 116.004 144.412 115.681 144.322C115.358 144.218 114.958 144.122 114.481 144.031C113.991 143.928 113.494 143.812 112.991 143.683C112.487 143.541 112.016 143.354 111.578 143.121C111.139 142.876 110.784 142.56 110.513 142.173C110.255 141.773 110.126 141.27 110.126 140.663C110.126 140.031 110.294 139.483 110.629 139.018C110.965 138.541 111.462 138.166 112.12 137.895C112.791 137.625 113.604 137.489 114.558 137.489C115.41 137.489 116.158 137.599 116.804 137.818C117.449 138.037 117.984 138.354 118.41 138.766C118.849 139.167 119.152 139.65 119.32 140.218L116.823 141.109C116.759 140.825 116.623 140.579 116.417 140.373C116.223 140.167 115.971 140.012 115.662 139.908C115.365 139.792 115.01 139.734 114.597 139.734C114.094 139.734 113.7 139.812 113.416 139.967C113.145 140.121 113.01 140.328 113.01 140.586C113.01 140.792 113.1 140.967 113.281 141.109C113.475 141.238 113.746 141.347 114.094 141.438C114.442 141.528 114.855 141.625 115.333 141.728C115.836 141.831 116.333 141.954 116.823 142.096C117.326 142.225 117.778 142.405 118.178 142.638C118.591 142.857 118.913 143.154 119.146 143.528C119.391 143.889 119.513 144.36 119.513 144.941C119.513 145.625 119.333 146.218 118.971 146.722C118.61 147.212 118.075 147.593 117.365 147.864C116.668 148.122 115.81 148.251 114.791 148.251Z" fill="#D1CEED"/>
<path d="M126.962 138.544L125.944 128.177H130.439L129.471 138.544H126.962Z" fill="#FAEDC1"/>
<path fill-rule="evenodd" clip-rule="evenodd" d="M131.158 142.633C131.771 142.042 131.771 141.085 131.158 140.495C130.545 139.906 129.549 139.904 128.936 140.495L128.268 141.136C128.217 141.185 128.136 141.185 128.085 141.136L127.418 140.495C126.805 139.904 125.809 139.904 125.196 140.495C124.582 141.085 124.582 142.042 125.196 142.633L125.863 143.274C125.914 143.323 125.914 143.401 125.863 143.45L125.237 144.052C124.648 144.619 124.568 145.549 125.128 146.159C125.734 146.818 126.782 146.841 127.418 146.229L128.085 145.586C128.136 145.537 128.218 145.538 128.267 145.585L128.268 145.586L128.936 146.228C129.549 146.82 130.543 146.82 131.158 146.23L131.158 146.23C131.771 145.639 131.771 144.682 131.158 144.091L131.158 144.091L130.49 143.45C130.439 143.4 130.439 143.322 130.489 143.275L130.49 143.274L131.158 142.633Z" fill="#FAEDC1"/>
<path d="M33.5339 51.242H36.042L37.0105 61.5076H32.5157L33.5339 51.242Z" fill="#FAEDC1"/>
<path fill-rule="evenodd" clip-rule="evenodd" d="M37.8215 45.5676C38.4343 44.9825 38.4345 44.0353 37.8214 43.4513C37.2085 42.8675 36.2125 42.8658 35.5993 43.4513L34.9314 44.0862C34.8805 44.1347 34.7995 44.1348 34.7486 44.0863L34.082 43.4514C33.469 42.866 32.4731 42.866 31.86 43.4513C31.2455 44.0353 31.2457 44.9826 31.86 45.5677L32.5267 46.2028C32.5776 46.2513 32.5776 46.3283 32.5267 46.3768L31.9007 46.9731C31.3112 47.5346 31.2313 48.4555 31.7918 49.0592C32.3973 49.7123 33.4452 49.7348 34.0819 49.1284L34.7486 48.492C34.7999 48.4432 34.8817 48.4441 34.9307 48.4914L34.9314 48.492L35.5993 49.1283C36.2124 49.7137 37.2069 49.7135 37.8212 49.1298L37.8215 49.1295C38.4344 48.5443 38.4344 47.5972 37.8215 47.012L37.8213 47.0118L37.1533 46.3768C37.1021 46.328 37.103 46.2501 37.1527 46.2034L37.1532 46.2029L37.8215 45.5676Z" fill="#FAEDC1"/>
</svg>
