<svg width="943" height="404" viewBox="0 0 943 404" fill="none" xmlns="http://www.w3.org/2000/svg">
<path fill-rule="evenodd" clip-rule="evenodd" d="M58.9146 348.426C58.911 345.526 56.5614 343.176 53.6635 343.176C50.7667 343.176 48.4092 345.525 48.4126 348.427L48.4094 351.581L48.4095 351.581C48.4095 351.822 48.2183 352.013 47.9776 352.013L44.8271 352.013C41.9261 352.009 39.5724 354.363 39.5756 357.264C39.5725 360.165 41.9232 362.515 44.8267 362.515L47.9777 362.515C48.2184 362.515 48.4096 362.706 48.4096 362.947L48.4096 365.905C48.4097 368.691 50.5056 371.165 53.3281 371.338C56.3791 371.528 58.9116 369.107 58.9116 366.098L58.9083 362.944C58.9083 362.701 59.1037 362.51 59.3372 362.512L59.3402 362.512L62.4971 362.512C65.3985 362.515 67.7483 360.165 67.7518 357.265L67.7518 357.264C67.7482 354.363 65.3984 352.013 62.4981 352.01L62.4971 352.01L59.3433 352.013L59.3428 352.013C59.1007 352.013 58.9099 351.817 58.9114 351.584L58.9114 351.582L58.9146 348.426Z" fill="#FFFFDB"/>
<path fill-rule="evenodd" clip-rule="evenodd" d="M58.9146 54.4263C58.911 51.5263 56.5614 49.1758 53.6635 49.1758C50.7667 49.1758 48.4092 51.5253 48.4126 54.4271L48.4094 57.5805L48.4095 57.581C48.4095 57.8216 48.2183 58.0128 47.9776 58.0128L44.8271 58.0128C41.9261 58.0092 39.5724 60.3628 39.5756 63.2637C39.5725 66.1649 41.9232 68.5147 44.8267 68.5147L47.9777 68.5148C48.2184 68.5148 48.4096 68.706 48.4096 68.9466L48.4096 71.9052C48.4097 74.6913 50.5056 77.1649 53.3281 77.3383C56.3791 77.5277 58.9116 75.1071 58.9116 72.0978L58.9083 68.9436C58.9083 68.7012 59.1037 68.5102 59.3372 68.5117L59.3402 68.5117L62.4971 68.5118C65.3985 68.5153 67.7483 66.1647 67.7518 63.2646L67.7518 63.2635C67.7482 60.3632 65.3984 58.0133 62.4981 58.0098L62.4971 58.0098L59.3433 58.013L59.3428 58.013C59.1007 58.0127 58.9099 57.8174 58.9114 57.5841L58.9114 57.5816L58.9146 54.4263Z" fill="#FFFFDB"/>
<path fill-rule="evenodd" clip-rule="evenodd" d="M41.11 82.7679C41.1073 80.5155 39.2823 78.6899 37.0316 78.6899C34.7816 78.6899 32.9505 80.5147 32.9532 82.7685L32.9507 85.2178L32.9507 85.2181C32.9507 85.4051 32.8023 85.5535 32.6153 85.5535L30.1684 85.5535C27.9152 85.5508 26.0871 87.3787 26.0896 89.6319C26.0871 91.8852 27.9129 93.7103 30.168 93.7103L32.6154 93.7103C32.8024 93.7103 32.9508 93.8588 32.9508 94.0458L32.9509 96.3436C32.9509 98.5076 34.5788 100.429 36.771 100.563C39.1407 100.711 41.1077 98.8306 41.1077 96.4933L41.1052 94.0434C41.1052 93.8552 41.2569 93.7067 41.4383 93.7079L41.4406 93.708L43.8925 93.708C46.146 93.7107 47.9711 91.8851 47.9738 89.6325L47.9738 89.6317C47.971 87.379 46.146 85.5539 43.8933 85.5512L43.8925 85.5512L41.443 85.5536L41.4426 85.5536C41.2546 85.5535 41.1063 85.4018 41.1075 85.2205L41.1075 85.2186L41.11 82.7679Z" fill="#FFFFDB"/>
<path fill-rule="evenodd" clip-rule="evenodd" d="M30.7475 314.474C30.7425 310.384 27.4283 307.068 23.3408 307.068C19.2548 307.068 15.9295 310.382 15.9344 314.475L15.9299 318.923L15.9299 318.924C15.9299 319.263 15.6603 319.533 15.3208 319.533L10.877 319.533C6.78509 319.528 3.46518 322.848 3.46977 326.939C3.46529 331.032 6.78099 334.346 10.8764 334.346L15.321 334.346C15.6604 334.346 15.9301 334.616 15.9301 334.955L15.9302 339.128C15.9302 343.058 18.8865 346.547 22.8677 346.792C27.1712 347.059 30.7433 343.645 30.7433 339.4L30.7387 334.951C30.7387 334.609 31.0142 334.34 31.3436 334.342L31.3478 334.342L35.8007 334.342C39.8931 334.347 43.2075 331.031 43.2124 326.941L43.2124 326.939C43.2074 322.848 39.893 319.534 35.802 319.529L35.8006 319.529L31.3521 319.533L31.3515 319.533C31.01 319.533 30.7408 319.258 30.743 318.928L30.743 318.925L30.7475 314.474Z" fill="#FFFFDB"/>
<path fill-rule="evenodd" clip-rule="evenodd" d="M240.009 226.376C259.766 246.181 259.771 278.239 240.005 298.005C220.247 317.764 188.141 317.819 168.371 298.002L146.841 276.515L146.838 276.512C145.196 274.87 142.588 274.87 140.947 276.512L119.458 298.001C99.6946 317.813 67.5874 317.814 47.8227 298.005C28.012 278.238 28.0186 246.177 47.8227 226.372L69.3153 204.879C70.9568 203.237 70.9568 200.629 69.3153 198.988L49.1359 178.808C30.132 159.803 27.5558 128.636 45.6259 108.201C65.1443 86.099 98.9283 85.335 119.454 105.861L140.947 127.398C142.599 129.051 145.235 129.022 146.818 127.419L146.838 127.398L168.37 105.865C188.136 86.0509 220.197 86.0562 240.002 105.814L240.009 105.821C259.768 125.628 259.768 157.684 240.009 177.491L240.002 177.498L218.469 198.988L218.466 198.991C216.817 200.644 216.847 203.277 218.449 204.859L218.466 204.876L240.009 226.376Z" fill="#FFFFDB"/>
<path fill-rule="evenodd" clip-rule="evenodd" d="M164.912 183.04C159.323 183.04 154.791 191.531 154.791 202.005C154.791 212.48 159.323 220.971 164.912 220.971C170.502 220.971 175.033 212.48 175.033 202.005C175.033 191.531 170.502 183.04 164.912 183.04ZM131.357 202.005C131.357 212.482 126.829 220.971 121.237 220.971C115.644 220.971 111.116 212.482 111.116 202.005C111.116 191.529 115.644 183.04 121.237 183.04C126.829 183.04 131.357 191.529 131.357 202.005Z" fill="#3D3B80"/>
<g style="mix-blend-mode:soft-light">
<mask id="path-7-inside-1_374_226" fill="white">
<path fill-rule="evenodd" clip-rule="evenodd" d="M354.08 0C335.855 0 321.08 14.7746 321.08 33V153.462C321.061 153.875 321.052 154.292 321.052 154.713V162.956C321.052 168.147 319.565 173.002 317.08 175.93L300.283 195.717C298.994 196.866 297.93 198.523 297.127 200.481C295.927 203.261 295.381 206.509 295.398 209.727C295.381 212.944 295.927 216.192 297.127 218.973C297.93 220.93 298.994 222.587 300.283 223.736L317.08 243.523C319.565 246.451 321.052 251.307 321.052 256.497V264.741C321.052 265.161 321.061 265.578 321.08 265.991V371C321.08 389.225 335.855 404 354.08 404H909.398C927.623 404 942.398 389.225 942.398 371V33C942.398 14.7746 927.623 0 909.398 0H354.08Z"/>
</mask>
<path d="M321.08 153.462L323.078 153.553L323.08 153.508V153.462H321.08ZM317.08 175.93L315.555 174.636L317.08 175.93ZM300.283 195.717L301.614 197.21L301.718 197.117L301.808 197.011L300.283 195.717ZM297.127 200.481L298.964 201.273L298.971 201.256L298.978 201.239L297.127 200.481ZM295.398 209.727L297.398 209.737L297.398 209.727L297.398 209.716L295.398 209.727ZM297.127 218.973L298.978 218.214L298.971 218.197L298.964 218.18L297.127 218.973ZM300.283 223.736L301.808 222.442L301.718 222.336L301.614 222.243L300.283 223.736ZM317.08 243.523L315.555 244.817L317.08 243.523ZM321.08 265.991H323.08V265.945L323.078 265.9L321.08 265.991ZM323.08 33C323.08 15.8792 336.959 2 354.08 2V-2C334.75 -2 319.08 13.67 319.08 33H323.08ZM323.08 153.462V33H319.08V153.462H323.08ZM319.082 153.371C319.062 153.814 319.052 154.261 319.052 154.713H323.052C323.052 154.322 323.061 153.936 323.078 153.553L319.082 153.371ZM319.052 154.713V162.956H323.052V154.713H319.052ZM319.052 162.956C319.052 167.84 317.64 172.179 315.555 174.636L318.604 177.224C321.49 173.825 323.052 168.453 323.052 162.956H319.052ZM315.555 174.636L298.758 194.423L301.808 197.011L318.604 177.224L315.555 174.636ZM298.952 194.224C297.371 195.633 296.156 197.577 295.277 199.722L298.978 201.239C299.703 199.469 300.617 198.099 301.614 197.21L298.952 194.224ZM295.291 199.688C293.96 202.771 293.38 206.304 293.398 209.737L297.398 209.716C297.382 206.715 297.895 203.75 298.964 201.273L295.291 199.688ZM293.398 209.716C293.38 213.15 293.96 216.682 295.291 219.765L298.964 218.18C297.895 215.703 297.382 212.738 297.398 209.737L293.398 209.716ZM295.277 219.731C296.156 221.877 297.371 223.82 298.952 225.229L301.614 222.243C300.617 221.354 299.703 219.984 298.978 218.214L295.277 219.731ZM298.758 225.031L315.555 244.817L318.604 242.229L301.808 222.442L298.758 225.031ZM315.555 244.817C317.64 247.274 319.052 251.613 319.052 256.497H323.052C323.052 251 321.49 245.628 318.604 242.229L315.555 244.817ZM319.052 256.497V264.741H323.052V256.497H319.052ZM319.052 264.741C319.052 265.192 319.062 265.639 319.082 266.082L323.078 265.9C323.061 265.518 323.052 265.131 323.052 264.741H319.052ZM323.08 371V265.991H319.08V371H323.08ZM354.08 402C336.959 402 323.08 388.121 323.08 371H319.08C319.08 390.33 334.75 406 354.08 406V402ZM909.398 402H354.08V406H909.398V402ZM940.398 371C940.398 388.121 926.518 402 909.398 402V406C928.728 406 944.398 390.33 944.398 371H940.398ZM940.398 33V371H944.398V33H940.398ZM909.398 2C926.519 2 940.398 15.8792 940.398 33H944.398C944.398 13.67 928.728 -2 909.398 -2V2ZM354.08 2H909.398V-2H354.08V2Z" fill="#FFFFDC" mask="url(#path-7-inside-1_374_226)"/>
</g>
<path d="M471.025 82.5796C469.814 82.5796 468.423 82.445 466.853 82.1758C465.282 81.8618 463.712 81.5253 462.142 81.1663C460.616 80.7626 459.226 80.4261 457.969 80.1569C456.713 79.8428 455.749 79.6858 455.076 79.6858C454.089 79.6858 453.528 80.0447 453.393 80.7626C453.259 81.4355 453.259 82.3104 453.393 83.3871H446.798C445.677 80.9645 445.205 78.8334 445.385 76.9939C445.609 75.1545 446.35 73.7188 447.606 72.687C448.862 71.6102 450.432 71.0718 452.317 71.0718C453.573 71.0718 454.941 71.2064 456.422 71.4756C457.947 71.7448 459.45 72.0813 460.931 72.4851C462.411 72.844 463.757 73.158 464.968 73.4272C466.18 73.6964 467.122 73.831 467.795 73.831C468.692 73.831 469.23 73.4945 469.41 72.8215C469.589 72.1486 469.589 71.2737 469.41 70.197H476.072C476.97 72.3056 477.373 74.3245 477.284 76.2537C477.239 78.138 476.7 79.6634 475.669 80.8299C474.637 81.9963 473.089 82.5796 471.025 82.5796ZM667.658 147.58C666.446 147.58 665.056 147.445 663.485 147.176C661.915 146.862 660.345 146.525 658.775 146.166C657.249 145.763 655.858 145.426 654.602 145.157C653.346 144.843 652.381 144.686 651.708 144.686C650.721 144.686 650.161 145.045 650.026 145.763C649.891 146.436 649.891 147.31 650.026 148.387H643.431C642.309 145.964 641.838 143.833 642.018 141.994C642.242 140.155 642.982 138.719 644.239 137.687C645.495 136.61 647.065 136.072 648.949 136.072C650.206 136.072 651.574 136.206 653.054 136.476C654.58 136.745 656.083 137.081 657.563 137.485C659.044 137.844 660.39 138.158 661.601 138.427C662.812 138.696 663.755 138.831 664.428 138.831C665.325 138.831 665.863 138.495 666.043 137.822C666.222 137.149 666.222 136.274 666.043 135.197H672.705C673.602 137.306 674.006 139.325 673.916 141.254C673.872 143.138 673.333 144.663 672.301 145.83C671.269 146.996 669.722 147.58 667.658 147.58Z" fill="#FFFFDB"/>
<path d="M522.9 110.373V100.346C522.9 99.2692 522.967 98.17 523.102 97.0484C523.281 95.8819 523.505 94.6706 523.775 93.4144C524.044 92.1133 524.313 90.8347 524.582 89.5784H523.169C522.451 91.8665 521.554 93.7957 520.477 95.366C519.445 96.8914 518.144 98.0354 516.574 98.7981C515.049 99.5608 513.164 99.9422 510.921 99.9422C507.78 99.9422 505.133 99.1346 502.98 97.5195C500.871 95.9043 499.279 93.706 498.202 90.9244C497.125 88.1428 496.587 85.0023 496.587 81.5028C496.587 77.5548 497.192 74.1675 498.404 71.341C499.615 68.5146 501.365 66.3386 503.653 64.8132C505.941 63.2878 508.633 62.5251 511.729 62.5251C513.837 62.5251 515.699 62.9289 517.314 63.7365C518.974 64.4992 520.32 65.6881 521.352 67.3032C522.429 68.9183 523.147 71.0045 523.505 73.5618H524.919V63.5346H533.802V81.2336V110.373H522.9ZM515.093 91.3955C516.08 91.3955 516.978 91.216 517.785 90.8571C518.593 90.4982 519.311 90.0047 519.939 89.3766C520.567 88.7485 521.105 88.0531 521.554 87.2904C522.003 86.4828 522.339 85.6528 522.563 84.8004C522.788 83.948 522.9 83.0955 522.9 82.2431V80.7626C522.9 79.8204 522.765 78.811 522.496 77.7342C522.227 76.6126 521.801 75.5807 521.217 74.6386C520.634 73.6515 519.849 72.8664 518.862 72.2832C517.92 71.6551 516.753 71.341 515.363 71.341C513.882 71.341 512.581 71.7672 511.459 72.6197C510.338 73.4272 509.485 74.5937 508.902 76.1191C508.319 77.6445 508.027 79.4615 508.027 81.5701C508.027 83.4993 508.296 85.2042 508.835 86.6847C509.418 88.1652 510.226 89.3317 511.257 90.1841C512.334 90.9917 513.613 91.3955 515.093 91.3955ZM554.355 99.9422C550.138 99.9422 546.953 98.5289 544.799 95.7025C542.691 92.8311 541.636 88.4793 541.636 82.6469V63.4673H552.538V81.2336C552.538 84.5536 553.032 87.0436 554.019 88.7036C555.006 90.3187 556.509 91.1263 558.528 91.1263C559.739 91.1263 560.771 90.8347 561.623 90.2514C562.521 89.6233 563.261 88.7709 563.844 87.6941C564.472 86.5725 564.921 85.2939 565.19 83.8582C565.504 82.4226 565.661 80.8523 565.661 79.1474V63.4673H576.496V84.5985V99H567.882L567.68 88.0306H566.334C565.661 90.8122 564.809 93.1003 563.777 94.8949C562.79 96.6446 561.534 97.9233 560.008 98.7308C558.483 99.5384 556.599 99.9422 554.355 99.9422ZM601.718 99.9422C598.757 99.9422 596.11 99.5608 593.777 98.7981C591.444 97.9905 589.448 96.8241 587.788 95.2987C586.172 93.7733 584.939 91.889 584.086 89.6457C583.234 87.4025 582.808 84.8228 582.808 81.9066C582.808 79.0801 583.211 76.478 584.019 74.1002C584.871 71.7224 586.06 69.681 587.586 67.9762C589.156 66.2265 591.063 64.8805 593.306 63.9384C595.594 62.9962 598.151 62.5251 600.978 62.5251C603.849 62.5251 606.362 62.9962 608.515 63.9384C610.713 64.8357 612.508 66.1816 613.899 67.9762C615.334 69.7708 616.389 71.9691 617.062 74.5713C617.735 77.1285 617.959 80.0672 617.735 83.3871L589.941 83.589V77.9361L611.543 77.7342L607.707 80.3588C608.021 78.1156 607.887 76.2985 607.304 74.9077C606.72 73.4721 605.868 72.4402 604.746 71.8121C603.625 71.1391 602.413 70.8026 601.112 70.8026C599.542 70.8026 598.151 71.2289 596.94 72.0813C595.773 72.9337 594.854 74.1675 594.181 75.7826C593.508 77.3977 593.171 79.3718 593.171 81.7047C593.171 85.3836 593.956 88.0531 595.527 89.713C597.142 91.373 599.183 92.203 601.651 92.203C602.862 92.203 603.872 92.046 604.679 91.7319C605.487 91.373 606.137 90.9468 606.631 90.4533C607.169 89.9149 607.573 89.3317 607.842 88.7036C608.156 88.0755 608.403 87.4698 608.582 86.8866L618.004 88.9055C617.645 90.5655 617.062 92.0684 616.254 93.4144C615.491 94.7603 614.437 95.9268 613.091 96.9138C611.79 97.9008 610.197 98.6411 608.313 99.1346C606.474 99.673 604.275 99.9422 601.718 99.9422ZM604.073 58.8238H595.931L601.045 47.1142H611.611L604.073 58.8238ZM569.318 164.942C566.357 164.942 563.71 164.561 561.377 163.798C559.044 162.991 557.048 161.824 555.388 160.299C553.773 158.773 552.539 156.889 551.687 154.646C550.834 152.403 550.408 149.823 550.408 146.907C550.408 144.08 550.812 141.478 551.619 139.1C552.472 136.722 553.661 134.681 555.186 132.976C556.756 131.226 558.663 129.881 560.906 128.938C563.194 127.996 565.752 127.525 568.578 127.525C571.449 127.525 573.962 127.996 576.115 128.938C578.314 129.836 580.108 131.182 581.499 132.976C582.935 134.771 583.989 136.969 584.662 139.571C585.335 142.129 585.559 145.067 585.335 148.387L557.541 148.589V142.936L579.144 142.734L575.308 145.359C575.622 143.116 575.487 141.299 574.904 139.908C574.321 138.472 573.468 137.44 572.347 136.812C571.225 136.139 570.014 135.803 568.713 135.803C567.142 135.803 565.752 136.229 564.54 137.081C563.374 137.934 562.454 139.167 561.781 140.783C561.108 142.398 560.772 144.372 560.772 146.705C560.772 150.384 561.557 153.053 563.127 154.713C564.742 156.373 566.783 157.203 569.251 157.203C570.462 157.203 571.472 157.046 572.279 156.732C573.087 156.373 573.737 155.947 574.231 155.453C574.769 154.915 575.173 154.332 575.442 153.704C575.756 153.075 576.003 152.47 576.183 151.887L585.604 153.905C585.245 155.565 584.662 157.068 583.854 158.414C583.092 159.76 582.037 160.927 580.691 161.914C579.39 162.901 577.798 163.641 575.913 164.135C574.074 164.673 571.876 164.942 569.318 164.942ZM606.789 164.942C604.411 164.942 602.258 164.718 600.328 164.269C598.399 163.865 596.717 163.26 595.281 162.452C593.846 161.645 592.657 160.68 591.714 159.558C590.817 158.392 590.189 157.113 589.83 155.722L597.906 152.156C598.22 152.918 598.758 153.704 599.521 154.511C600.328 155.274 601.383 155.902 602.684 156.395C604.03 156.889 605.645 157.136 607.529 157.136C609.324 157.136 610.715 156.889 611.702 156.395C612.734 155.857 613.249 155.094 613.249 154.107C613.249 153.39 612.958 152.829 612.375 152.425C611.836 151.976 611.006 151.595 609.885 151.281C608.763 150.922 607.372 150.586 605.712 150.271C604.007 149.913 602.28 149.509 600.53 149.06C598.781 148.567 597.143 147.916 595.618 147.109C594.092 146.256 592.859 145.157 591.916 143.811C591.019 142.42 590.57 140.67 590.57 138.562C590.57 136.363 591.154 134.457 592.32 132.842C593.487 131.182 595.214 129.881 597.502 128.938C599.835 127.996 602.661 127.525 605.981 127.525C608.942 127.525 611.545 127.906 613.788 128.669C616.031 129.432 617.893 130.531 619.373 131.967C620.899 133.358 621.953 135.04 622.536 137.014L613.855 140.11C613.631 139.123 613.16 138.27 612.442 137.552C611.769 136.835 610.894 136.296 609.817 135.937C608.785 135.533 607.552 135.332 606.116 135.332C604.366 135.332 602.998 135.601 602.011 136.139C601.069 136.678 600.598 137.395 600.598 138.293C600.598 139.01 600.912 139.616 601.54 140.11C602.213 140.558 603.155 140.94 604.366 141.254C605.578 141.568 607.013 141.904 608.673 142.263C610.423 142.622 612.15 143.048 613.855 143.542C615.605 143.99 617.175 144.619 618.566 145.426C620.002 146.189 621.123 147.221 621.931 148.522C622.783 149.778 623.209 151.415 623.209 153.434C623.209 155.812 622.581 157.876 621.325 159.626C620.069 161.331 618.207 162.654 615.739 163.596C613.317 164.494 610.333 164.942 606.789 164.942Z" fill="#B6B4E6"/>
<path d="M394.223 77.2669C394.218 79.1705 392.642 80.7463 390.739 80.7514C388.835 80.7565 387.268 79.1892 387.273 77.2856L387.279 75.0279C387.28 74.6737 386.993 74.3867 386.639 74.3877L384.514 74.3934C382.655 74.3984 381.042 73.0083 380.915 71.1493C380.809 69.1353 382.408 67.4488 384.4 67.4434L386.68 67.4594C387.034 67.4585 387.322 67.1699 387.323 66.8158L387.329 64.5137C387.335 62.6101 388.91 61.0343 390.814 61.0292C392.718 61.0241 394.285 62.5914 394.28 64.495L394.251 66.775C394.251 67.1291 394.538 67.4161 394.892 67.4151L397.172 67.3869C399.075 67.3817 400.643 68.9491 400.637 70.8527C400.632 72.7563 399.056 74.3321 397.153 74.3372L394.873 74.3655C394.519 74.3664 394.23 74.655 394.229 75.0091L394.223 77.2669Z" fill="#FFFFDB"/>
<path d="M694.848 147.512C692.343 147.514 690.275 145.447 690.277 142.941C690.279 140.435 692.35 138.365 694.856 138.363L697.828 138.36C698.294 138.36 698.673 137.981 698.674 137.515L698.676 134.717C698.678 132.27 700.515 130.141 702.963 129.964C705.615 129.817 707.828 131.913 707.826 134.535L707.794 137.537C707.794 138.003 708.172 138.381 708.638 138.381L711.669 138.378C714.175 138.376 716.242 140.444 716.24 142.949C716.238 145.455 714.167 147.526 711.661 147.528L708.66 147.501C708.194 147.502 707.815 147.881 707.815 148.347L707.841 151.348C707.839 153.854 705.769 155.925 703.263 155.927C700.757 155.929 698.69 153.862 698.692 151.356L698.665 148.354C698.665 147.888 698.287 147.51 697.821 147.51L694.848 147.512Z" fill="#FFFFDB"/>
<path d="M394.422 237.672C392.31 237.672 390.422 237.4 388.758 236.856C387.094 236.28 385.67 235.448 384.486 234.36C383.334 233.272 382.454 231.928 381.846 230.328C381.238 228.728 380.934 226.888 380.934 224.808C380.934 222.792 381.222 220.936 381.798 219.24C382.406 217.544 383.254 216.088 384.342 214.872C385.462 213.624 386.822 212.664 388.422 211.992C390.054 211.32 391.878 210.984 393.894 210.984C395.942 210.984 397.734 211.32 399.27 211.992C400.838 212.632 402.118 213.592 403.11 214.872C404.134 216.152 404.886 217.72 405.366 219.576C405.846 221.4 406.006 223.496 405.846 225.864L386.022 226.008V221.976L401.43 221.832L398.694 223.704C398.918 222.104 398.822 220.808 398.406 219.816C397.99 218.792 397.382 218.056 396.582 217.608C395.782 217.128 394.918 216.888 393.99 216.888C392.87 216.888 391.878 217.192 391.014 217.8C390.182 218.408 389.526 219.288 389.046 220.44C388.566 221.592 388.326 223 388.326 224.664C388.326 227.288 388.886 229.192 390.006 230.376C391.158 231.56 392.614 232.152 394.374 232.152C395.238 232.152 395.958 232.04 396.534 231.816C397.11 231.56 397.574 231.256 397.926 230.904C398.31 230.52 398.598 230.104 398.79 229.656C399.014 229.208 399.19 228.776 399.318 228.36L406.038 229.8C405.782 230.984 405.366 232.056 404.79 233.016C404.246 233.976 403.494 234.808 402.534 235.512C401.606 236.216 400.47 236.744 399.126 237.096C397.814 237.48 396.246 237.672 394.422 237.672ZM410.546 237V202.44H418.13V237H410.546ZM440.779 237.672C439.371 237.672 438.123 237.4 437.035 236.856C435.947 236.28 435.099 235.464 434.491 234.408C433.883 233.32 433.579 232.008 433.579 230.472C433.579 229.032 433.851 227.848 434.395 226.92C434.971 225.96 435.787 225.208 436.843 224.664C437.931 224.088 439.227 223.624 440.731 223.272C442.235 222.888 443.947 222.552 445.867 222.264C446.795 222.104 447.563 221.96 448.171 221.832C448.811 221.672 449.291 221.432 449.611 221.112C449.931 220.792 450.091 220.328 450.091 219.72C450.091 218.92 449.803 218.232 449.227 217.656C448.651 217.08 447.723 216.792 446.443 216.792C445.547 216.792 444.731 216.952 443.995 217.272C443.291 217.592 442.683 218.056 442.171 218.664C441.659 219.272 441.275 220.008 441.019 220.872L434.203 218.856C434.619 217.512 435.195 216.344 435.931 215.352C436.699 214.36 437.611 213.544 438.667 212.904C439.723 212.232 440.923 211.752 442.267 211.464C443.643 211.144 445.099 210.984 446.635 210.984C449.195 210.984 451.275 211.4 452.875 212.232C454.507 213.032 455.707 214.296 456.475 216.024C457.275 217.72 457.675 219.912 457.675 222.6V226.488C457.675 227.64 457.691 228.808 457.723 229.992C457.787 231.144 457.851 232.312 457.915 233.496C458.011 234.648 458.123 235.816 458.251 237H451.435C451.307 236.264 451.179 235.384 451.051 234.36C450.923 233.304 450.827 232.232 450.763 231.144H449.851C449.403 232.36 448.747 233.48 447.883 234.504C447.051 235.496 446.027 236.28 444.811 236.856C443.627 237.4 442.283 237.672 440.779 237.672ZM444.283 232.2C444.859 232.2 445.435 232.104 446.011 231.912C446.619 231.688 447.195 231.4 447.739 231.048C448.283 230.664 448.779 230.2 449.227 229.656C449.675 229.112 450.011 228.52 450.235 227.88L450.139 224.088L451.195 224.328C450.587 224.712 449.915 225.016 449.179 225.24C448.443 225.464 447.691 225.64 446.923 225.768C446.187 225.896 445.451 226.04 444.715 226.2C444.011 226.328 443.371 226.504 442.795 226.728C442.251 226.952 441.819 227.256 441.499 227.64C441.179 228.024 441.019 228.552 441.019 229.224C441.019 230.12 441.323 230.84 441.931 231.384C442.539 231.928 443.323 232.2 444.283 232.2ZM472.062 237.672C469.054 237.672 466.782 236.664 465.246 234.648C463.742 232.6 462.99 229.496 462.99 225.336V211.656H470.766V224.328C470.766 226.696 471.118 228.472 471.822 229.656C472.526 230.808 473.598 231.384 475.038 231.384C475.902 231.384 476.638 231.176 477.246 230.76C477.886 230.312 478.414 229.704 478.83 228.936C479.278 228.136 479.598 227.224 479.79 226.2C480.014 225.176 480.126 224.056 480.126 222.84V211.656H487.854V226.728V237H481.71L481.566 229.176H480.606C480.126 231.16 479.518 232.792 478.782 234.072C478.078 235.32 477.182 236.232 476.094 236.808C475.006 237.384 473.662 237.672 472.062 237.672ZM503.684 237.624C500.708 237.624 498.516 236.84 497.108 235.272C495.7 233.672 494.996 231.128 494.996 227.64V217.704H491.396L491.54 211.704H494.132C495.156 211.672 495.924 211.512 496.436 211.224C496.98 210.936 497.316 210.392 497.444 209.592L498.068 206.04H502.436V211.656H508.532V217.944H502.436V227.304C502.436 228.392 502.692 229.192 503.204 229.704C503.748 230.216 504.564 230.472 505.652 230.472C506.26 230.472 506.836 230.408 507.38 230.28C507.924 230.152 508.372 229.976 508.724 229.752V236.904C507.7 237.224 506.756 237.416 505.892 237.48C505.06 237.576 504.324 237.624 503.684 237.624ZM524.866 237.672C522.306 237.672 520.034 237.176 518.05 236.184C516.098 235.192 514.562 233.704 513.442 231.72C512.322 229.736 511.762 227.256 511.762 224.28C511.762 221.304 512.322 218.84 513.442 216.888C514.562 214.904 516.114 213.432 518.098 212.472C520.082 211.48 522.354 210.984 524.914 210.984C527.474 210.984 529.746 211.48 531.73 212.472C533.714 213.464 535.266 214.952 536.386 216.936C537.506 218.888 538.066 221.352 538.066 224.328C538.066 227.368 537.49 229.88 536.338 231.864C535.186 233.848 533.602 235.32 531.586 236.28C529.602 237.208 527.362 237.672 524.866 237.672ZM525.106 232.056C526.258 232.056 527.218 231.8 527.986 231.288C528.754 230.744 529.33 229.928 529.714 228.84C530.098 227.752 530.29 226.408 530.29 224.808C530.29 223.112 530.082 221.688 529.666 220.536C529.25 219.352 528.626 218.456 527.794 217.848C526.994 217.208 525.954 216.888 524.674 216.888C523.586 216.888 522.642 217.16 521.842 217.704C521.074 218.216 520.498 219.016 520.114 220.104C519.73 221.192 519.538 222.552 519.538 224.184C519.538 226.808 520.018 228.776 520.978 230.088C521.97 231.4 523.346 232.056 525.106 232.056ZM554.544 237.672C552.368 237.672 550.448 237.368 548.784 236.76C547.12 236.152 545.728 235.288 544.608 234.168C543.488 233.016 542.624 231.64 542.016 230.04C541.44 228.44 541.152 226.648 541.152 224.664C541.152 222.616 541.44 220.76 542.016 219.096C542.624 217.432 543.488 215.992 544.608 214.776C545.728 213.56 547.104 212.632 548.736 211.992C550.368 211.32 552.24 210.984 554.352 210.984C556.464 210.984 558.288 211.32 559.824 211.992C561.36 212.664 562.608 213.608 563.568 214.824C564.56 216.04 565.232 217.448 565.584 219.048L558.432 221.448C558.336 220.392 558.08 219.528 557.664 218.856C557.248 218.184 556.704 217.704 556.032 217.416C555.392 217.096 554.688 216.936 553.92 216.936C553.12 216.936 552.416 217.096 551.808 217.416C551.2 217.736 550.688 218.216 550.272 218.856C549.856 219.496 549.536 220.28 549.312 221.208C549.088 222.104 548.976 223.144 548.976 224.328C548.976 226.024 549.184 227.448 549.6 228.6C550.048 229.72 550.688 230.568 551.52 231.144C552.384 231.72 553.424 232.008 554.64 232.008C555.888 232.008 556.864 231.752 557.568 231.24C558.272 230.728 558.784 230.104 559.104 229.368C559.424 228.6 559.616 227.848 559.68 227.112L566.4 228.6C566.272 229.784 565.952 230.936 565.44 232.056C564.96 233.144 564.24 234.12 563.28 234.984C562.32 235.816 561.12 236.472 559.68 236.952C558.272 237.432 556.56 237.672 554.544 237.672ZM578.702 237.672C575.694 237.672 573.422 236.664 571.886 234.648C570.382 232.6 569.63 229.496 569.63 225.336V211.656H577.406V224.328C577.406 226.696 577.758 228.472 578.462 229.656C579.166 230.808 580.238 231.384 581.678 231.384C582.542 231.384 583.278 231.176 583.886 230.76C584.526 230.312 585.054 229.704 585.47 228.936C585.918 228.136 586.238 227.224 586.43 226.2C586.654 225.176 586.766 224.056 586.766 222.84V211.656H594.494V226.728V237H588.35L588.206 229.176H587.246C586.766 231.16 586.158 232.792 585.422 234.072C584.718 235.32 583.822 236.232 582.734 236.808C581.646 237.384 580.302 237.672 578.702 237.672ZM600.436 237V211.656H608.164V237H600.436ZM604.324 208.104C602.852 208.104 601.716 207.8 600.916 207.192C600.148 206.552 599.764 205.656 599.764 204.504C599.764 203.288 600.148 202.376 600.916 201.768C601.716 201.128 602.852 200.808 604.324 200.808C605.828 200.808 606.964 201.128 607.732 201.768C608.532 202.376 608.932 203.272 608.932 204.456C608.932 205.64 608.532 206.552 607.732 207.192C606.964 207.8 605.828 208.104 604.324 208.104ZM623.435 237.672C621.323 237.672 619.467 237.144 617.867 236.088C616.299 235 615.067 233.464 614.171 231.48C613.275 229.464 612.827 227.064 612.827 224.28C612.827 221.72 613.211 219.448 613.979 217.464C614.747 215.48 615.883 213.928 617.387 212.808C618.923 211.656 620.811 211.08 623.051 211.08C624.651 211.08 625.995 211.368 627.083 211.944C628.203 212.52 629.131 213.384 629.867 214.536C630.603 215.688 631.195 217.144 631.643 218.904H632.843C632.619 217.816 632.411 216.792 632.219 215.832C632.027 214.84 631.867 213.928 631.739 213.096C631.643 212.232 631.595 211.48 631.595 210.84V202.44H639.371V224.616V237H633.035L632.939 229.512H631.883C631.531 231.432 630.971 233 630.203 234.216C629.467 235.4 628.523 236.28 627.371 236.856C626.251 237.4 624.939 237.672 623.435 237.672ZM626.219 231.432C627.211 231.432 628.043 231.224 628.715 230.808C629.419 230.36 629.979 229.8 630.395 229.128C630.811 228.456 631.115 227.736 631.307 226.968C631.499 226.2 631.595 225.48 631.595 224.808V223.8C631.595 223.192 631.515 222.584 631.355 221.976C631.195 221.368 630.955 220.776 630.635 220.2C630.347 219.624 629.979 219.112 629.531 218.664C629.083 218.216 628.555 217.864 627.947 217.608C627.371 217.352 626.731 217.224 626.027 217.224C624.971 217.224 624.059 217.512 623.291 218.088C622.555 218.664 621.979 219.48 621.563 220.536C621.179 221.592 620.987 222.84 620.987 224.28C620.987 225.72 621.195 226.984 621.611 228.072C622.027 229.128 622.635 229.96 623.435 230.568C624.235 231.144 625.163 231.432 626.219 231.432ZM651.294 237.672C649.886 237.672 648.638 237.4 647.55 236.856C646.462 236.28 645.614 235.464 645.006 234.408C644.398 233.32 644.094 232.008 644.094 230.472C644.094 229.032 644.366 227.848 644.91 226.92C645.486 225.96 646.302 225.208 647.358 224.664C648.446 224.088 649.742 223.624 651.246 223.272C652.75 222.888 654.462 222.552 656.382 222.264C657.31 222.104 658.078 221.96 658.686 221.832C659.326 221.672 659.806 221.432 660.126 221.112C660.446 220.792 660.606 220.328 660.606 219.72C660.606 218.92 660.318 218.232 659.742 217.656C659.166 217.08 658.238 216.792 656.958 216.792C656.062 216.792 655.246 216.952 654.51 217.272C653.806 217.592 653.198 218.056 652.686 218.664C652.174 219.272 651.79 220.008 651.534 220.872L644.718 218.856C645.134 217.512 645.71 216.344 646.446 215.352C647.214 214.36 648.126 213.544 649.182 212.904C650.238 212.232 651.438 211.752 652.782 211.464C654.158 211.144 655.614 210.984 657.15 210.984C659.71 210.984 661.79 211.4 663.39 212.232C665.022 213.032 666.222 214.296 666.99 216.024C667.79 217.72 668.19 219.912 668.19 222.6V226.488C668.19 227.64 668.206 228.808 668.238 229.992C668.302 231.144 668.366 232.312 668.43 233.496C668.526 234.648 668.638 235.816 668.766 237H661.95C661.822 236.264 661.694 235.384 661.566 234.36C661.438 233.304 661.342 232.232 661.278 231.144H660.366C659.918 232.36 659.262 233.48 658.398 234.504C657.566 235.496 656.542 236.28 655.326 236.856C654.142 237.4 652.798 237.672 651.294 237.672ZM654.798 232.2C655.374 232.2 655.95 232.104 656.526 231.912C657.134 231.688 657.71 231.4 658.254 231.048C658.798 230.664 659.294 230.2 659.742 229.656C660.19 229.112 660.526 228.52 660.75 227.88L660.654 224.088L661.71 224.328C661.102 224.712 660.43 225.016 659.694 225.24C658.958 225.464 658.206 225.64 657.438 225.768C656.702 225.896 655.966 226.04 655.23 226.2C654.526 226.328 653.886 226.504 653.31 226.728C652.766 226.952 652.334 227.256 652.014 227.64C651.694 228.024 651.534 228.552 651.534 229.224C651.534 230.12 651.838 230.84 652.446 231.384C653.054 231.928 653.838 232.2 654.798 232.2ZM683.247 237.672C681.135 237.672 679.279 237.144 677.679 236.088C676.111 235 674.879 233.464 673.983 231.48C673.087 229.464 672.639 227.064 672.639 224.28C672.639 221.72 673.023 219.448 673.791 217.464C674.559 215.48 675.695 213.928 677.199 212.808C678.735 211.656 680.623 211.08 682.863 211.08C684.463 211.08 685.807 211.368 686.895 211.944C688.015 212.52 688.943 213.384 689.679 214.536C690.415 215.688 691.007 217.144 691.455 218.904H692.655C692.431 217.816 692.223 216.792 692.031 215.832C691.839 214.84 691.679 213.928 691.551 213.096C691.455 212.232 691.407 211.48 691.407 210.84V202.44H699.183V224.616V237H692.847L692.751 229.512H691.695C691.343 231.432 690.783 233 690.015 234.216C689.279 235.4 688.335 236.28 687.183 236.856C686.063 237.4 684.751 237.672 683.247 237.672ZM686.031 231.432C687.023 231.432 687.855 231.224 688.527 230.808C689.231 230.36 689.791 229.8 690.207 229.128C690.623 228.456 690.927 227.736 691.119 226.968C691.311 226.2 691.407 225.48 691.407 224.808V223.8C691.407 223.192 691.327 222.584 691.167 221.976C691.007 221.368 690.767 220.776 690.447 220.2C690.159 219.624 689.791 219.112 689.343 218.664C688.895 218.216 688.367 217.864 687.759 217.608C687.183 217.352 686.543 217.224 685.839 217.224C684.783 217.224 683.871 217.512 683.103 218.088C682.367 218.664 681.791 219.48 681.375 220.536C680.991 221.592 680.799 222.84 680.799 224.28C680.799 225.72 681.007 226.984 681.423 228.072C681.839 229.128 682.447 229.96 683.247 230.568C684.047 231.144 684.975 231.432 686.031 231.432ZM716.819 237.672C714.259 237.672 711.987 237.176 710.003 236.184C708.051 235.192 706.515 233.704 705.395 231.72C704.275 229.736 703.715 227.256 703.715 224.28C703.715 221.304 704.275 218.84 705.395 216.888C706.515 214.904 708.067 213.432 710.051 212.472C712.035 211.48 714.307 210.984 716.867 210.984C719.427 210.984 721.699 211.48 723.683 212.472C725.667 213.464 727.219 214.952 728.339 216.936C729.459 218.888 730.019 221.352 730.019 224.328C730.019 227.368 729.443 229.88 728.291 231.864C727.139 233.848 725.555 235.32 723.539 236.28C721.555 237.208 719.315 237.672 716.819 237.672ZM717.059 232.056C718.211 232.056 719.171 231.8 719.939 231.288C720.707 230.744 721.283 229.928 721.667 228.84C722.051 227.752 722.243 226.408 722.243 224.808C722.243 223.112 722.035 221.688 721.619 220.536C721.203 219.352 720.579 218.456 719.747 217.848C718.947 217.208 717.907 216.888 716.627 216.888C715.539 216.888 714.595 217.16 713.795 217.704C713.027 218.216 712.451 219.016 712.067 220.104C711.683 221.192 711.491 222.552 711.491 224.184C711.491 226.808 711.971 228.776 712.931 230.088C713.923 231.4 715.299 232.056 717.059 232.056Z" fill="#FFFFDB"/>
<path d="M426.321 92.2605C426.492 93.9843 426.363 95.4207 425.935 96.5699C425.549 97.7191 424.971 98.6836 424.2 99.4634C423.471 100.202 422.657 100.859 421.758 101.433C420.901 101.967 420.065 102.5 419.251 103.034C418.437 103.568 417.773 104.204 417.259 104.942C416.745 105.64 416.488 106.523 416.488 107.59C416.488 109.026 416.938 110.073 417.837 110.729C418.78 111.345 419.98 111.653 421.436 111.653C422.422 111.653 423.45 111.53 424.521 111.284C425.592 111.078 426.685 110.791 427.799 110.422C428.913 110.011 429.962 109.56 430.948 109.067L431.398 117.44C430.198 117.973 428.956 118.425 427.67 118.794C426.385 119.164 425.1 119.43 423.814 119.595C422.572 119.8 421.351 119.902 420.151 119.902C418.309 119.902 416.552 119.677 414.881 119.225C413.21 118.774 411.732 118.076 410.447 117.132C409.204 116.229 408.219 115.08 407.49 113.684C406.762 112.33 406.398 110.709 406.398 108.821C406.398 107.097 406.676 105.661 407.233 104.512C407.833 103.362 408.583 102.377 409.483 101.557C410.382 100.736 411.325 100.017 412.31 99.4018C413.339 98.7451 414.303 98.109 415.202 97.4934C416.102 96.8367 416.809 96.0979 417.323 95.2771C417.88 94.4562 418.137 93.4507 418.094 92.2605H426.321Z" fill="#FFFFDB"/>
<path fill-rule="evenodd" clip-rule="evenodd" d="M429.916 77.5531C431.502 76.0301 431.502 73.5648 429.915 72.0448C428.329 70.5254 425.752 70.5211 424.165 72.045L422.436 73.6974C422.305 73.8236 422.095 73.8239 421.963 73.6977L420.238 72.0451C418.652 70.5216 416.074 70.5215 414.487 72.0448C412.897 73.5649 412.898 76.0304 414.487 77.5534L416.213 79.2062C416.345 79.3325 416.345 79.533 416.213 79.6593L414.593 81.2111C413.067 82.6725 412.86 85.0693 414.311 86.6407C415.878 88.3404 418.59 88.3991 420.238 86.8207L421.963 85.1645C422.096 85.0374 422.308 85.0396 422.435 85.1629L422.436 85.1645L424.165 86.8204C425.752 88.3441 428.325 88.3437 429.915 86.8243L429.916 86.8238C431.502 85.3006 431.502 82.8355 429.916 81.3124L429.915 81.3118L428.187 79.6593C428.054 79.5321 428.056 79.3294 428.185 79.2078L428.186 79.2065L429.916 77.5531Z" fill="#FFFFDB"/>
<path d="M733.363 149.601C733.199 147.832 733.302 146.393 733.671 145.282C734.082 144.131 734.637 143.185 735.335 142.445C736.033 141.663 736.792 141.005 737.614 140.471C738.476 139.895 739.297 139.34 740.078 138.805C740.858 138.27 741.495 137.654 741.987 136.954C742.48 136.214 742.726 135.309 742.726 134.24C742.726 132.801 742.295 131.773 741.433 131.156C740.612 130.498 739.482 130.169 738.045 130.169C737.142 130.169 736.156 130.292 735.088 130.539C734.062 130.744 733.014 131.053 731.947 131.464C730.92 131.834 729.914 132.266 728.928 132.76L728.497 124.37C729.688 123.794 730.879 123.342 732.07 123.013C733.302 122.643 734.534 122.375 735.766 122.211C736.998 122.005 738.168 121.902 739.277 121.902C741.084 121.902 742.768 122.129 744.328 122.581C745.889 123.033 747.264 123.732 748.455 124.678C749.687 125.583 750.652 126.735 751.35 128.133C752.048 129.49 752.397 131.115 752.397 133.006C752.397 134.734 752.11 136.173 751.535 137.325C751.001 138.476 750.303 139.463 749.441 140.286C748.578 141.108 747.675 141.848 746.73 142.506C745.786 143.123 744.882 143.761 744.02 144.419C743.158 145.036 742.46 145.755 741.926 146.578C741.433 147.4 741.207 148.408 741.248 149.601H733.363Z" fill="#FFFFDB"/>
<path fill-rule="evenodd" clip-rule="evenodd" d="M744.328 160.471C745.848 158.945 745.849 156.474 744.328 154.951C742.808 153.429 740.337 153.424 738.816 154.951L737.159 156.607C737.033 156.734 736.832 156.734 736.706 156.607L735.052 154.951C733.532 153.425 731.061 153.425 729.541 154.951C728.016 156.474 728.017 158.945 729.541 160.471L731.194 162.127C731.321 162.254 731.321 162.455 731.194 162.581L729.642 164.136C728.179 165.601 727.981 168.002 729.371 169.577C730.873 171.28 733.473 171.339 735.052 169.757L736.706 168.098C736.833 167.97 737.036 167.973 737.158 168.096L737.159 168.098L738.816 169.757C740.337 171.284 742.804 171.283 744.328 169.761L744.328 169.76C745.848 168.234 745.848 165.764 744.328 164.238L744.328 164.237L742.671 162.581C742.544 162.454 742.546 162.251 742.669 162.129L742.671 162.127L744.328 160.471Z" fill="#FFFFDB"/>
<path d="M561.898 342V334.1H581.198C585.664 334.1 589.331 333.067 592.198 331C595.131 328.867 597.331 325.967 598.798 322.3C600.264 318.567 600.998 314.2 600.998 309.2C600.998 305 600.564 301.333 599.698 298.2C598.831 295.067 597.464 292.467 595.598 290.4C593.798 288.267 591.464 286.667 588.598 285.6C585.798 284.467 582.431 283.9 578.498 283.9H561.898V276H578.298C585.698 276 591.764 277.3 596.498 279.9C601.298 282.5 604.798 286.233 606.998 291.1C609.264 295.9 610.398 301.7 610.398 308.5C610.398 313.167 609.898 317.333 608.898 321C607.898 324.6 606.464 327.733 604.598 330.4C602.798 333.067 600.698 335.267 598.298 337C595.898 338.667 593.264 339.933 590.398 340.8C587.531 341.6 584.531 342 581.398 342H561.898ZM557.098 342V276H566.298V342H557.098ZM623.699 342V276H632.999V342H623.699ZM674.106 343.3C668.773 343.3 664.006 342.033 659.806 339.5C655.606 336.967 652.306 333.2 649.906 328.2C647.506 323.2 646.306 316.933 646.306 309.4C646.306 304 646.94 299.2 648.206 295C649.54 290.733 651.473 287.1 654.006 284.1C656.606 281.033 659.773 278.7 663.506 277.1C667.24 275.5 671.54 274.7 676.406 274.7C680.006 274.7 683.273 275.167 686.206 276.1C689.206 277.033 691.806 278.4 694.006 280.2C696.206 281.933 697.973 284.1 699.306 286.7C700.64 289.3 701.44 292.3 701.706 295.7L692.906 297.9C692.706 294.3 691.806 291.4 690.206 289.2C688.606 287 686.573 285.4 684.106 284.4C681.706 283.333 679.073 282.8 676.206 282.8C672.273 282.8 668.773 283.7 665.706 285.5C662.64 287.3 660.206 290.167 658.406 294.1C656.673 297.967 655.806 302.967 655.806 309.1C655.806 313.9 656.34 317.967 657.406 321.3C658.473 324.633 659.94 327.333 661.806 329.4C663.673 331.4 665.806 332.867 668.206 333.8C670.673 334.733 673.273 335.2 676.006 335.2C679.606 335.2 682.64 334.533 685.106 333.2C687.64 331.867 689.64 329.833 691.106 327.1C692.64 324.367 693.606 320.967 694.006 316.9H679.506V309.6H702.906V319.6L703.006 342H695.506L697.206 323.8H695.806C695.006 328.133 693.673 331.733 691.806 334.6C690.006 337.467 687.64 339.633 684.706 341.1C681.773 342.567 678.24 343.3 674.106 343.3ZM716.668 342V276H725.968V342H716.668ZM755.675 342V276H764.875V342H755.675ZM735.875 284V276H784.675V284H735.875ZM781.681 342L804.981 276H818.081L841.281 342H831.381L811.981 283.7H810.981L791.581 342H781.681ZM792.681 327.3V320.2H831.481V327.3H792.681ZM851.336 342V276H860.536V342H851.336ZM854.236 342V333.9H890.936V342H854.236Z" fill="#D1CEED"/>
</svg>
