<svg width="489" height="305" viewBox="0 0 489 305" fill="none" xmlns="http://www.w3.org/2000/svg">
<g style="mix-blend-mode:soft-light">
<mask id="path-1-inside-1_434_37" fill="white">
<path fill-rule="evenodd" clip-rule="evenodd" d="M52.7686 0C34.5432 0 19.7686 14.7746 19.7686 33V115.749C19.7544 116.06 19.7472 116.375 19.7472 116.692V122.91C19.7472 126.825 18.626 130.487 16.7513 132.695L4.08256 147.619C3.11018 148.486 2.30738 149.736 1.70209 151.213C0.797217 153.31 0.385037 155.76 0.398001 158.186C0.385037 160.613 0.797217 163.063 1.70209 165.16C2.30738 166.637 3.11018 167.886 4.08256 168.753L16.7513 183.677C18.626 185.886 19.7472 189.548 19.7472 193.463V199.681C19.7472 199.998 19.7544 200.312 19.7686 200.623V271.717C19.7686 289.943 34.5432 304.717 52.7686 304.717H455.398C473.623 304.717 488.398 289.942 488.398 271.717V33C488.398 14.7746 473.623 0 455.398 0H52.7686Z"/>
</mask>
<path d="M19.7686 115.749L21.7665 115.841L21.7686 115.795V115.749H19.7686ZM16.7513 132.695L18.276 133.99L18.276 133.99L16.7513 132.695ZM4.08256 147.619L5.41332 149.112L5.51721 149.02L5.60728 148.914L4.08256 147.619ZM1.70209 151.213L3.5384 152.005L3.54571 151.988L3.55271 151.971L1.70209 151.213ZM0.398001 158.186L2.39797 158.197L2.39803 158.186L2.39797 158.176L0.398001 158.186ZM1.70209 165.16L3.55271 164.401L3.54571 164.384L3.5384 164.367L1.70209 165.16ZM4.08256 168.753L5.60728 167.459L5.51721 167.353L5.41332 167.26L4.08256 168.753ZM16.7513 183.677L15.2266 184.972H15.2266L16.7513 183.677ZM19.7686 200.623H21.7686V200.578L21.7665 200.532L19.7686 200.623ZM21.7686 33C21.7686 15.8792 35.6478 2 52.7686 2V-2C33.4387 -2 17.7686 13.6701 17.7686 33H21.7686ZM21.7686 115.749V33H17.7686V115.749H21.7686ZM17.7707 115.658C17.7551 116 17.7472 116.344 17.7472 116.692H21.7472C21.7472 116.405 21.7537 116.121 21.7665 115.841L17.7707 115.658ZM17.7472 116.692V122.91H21.7472V116.692H17.7472ZM17.7472 122.91C17.7472 126.518 16.7012 129.664 15.2266 131.401L18.276 133.99C20.5508 131.31 21.7472 127.131 21.7472 122.91H17.7472ZM15.2266 131.401L2.55783 146.325L5.60728 148.914L18.276 133.99L15.2266 131.401ZM2.75179 146.126C1.48755 147.253 0.533647 148.79 -0.148528 150.454L3.55271 151.971C4.08112 150.682 4.73281 149.719 5.41332 149.112L2.75179 146.126ZM-0.134222 150.42C-1.16992 152.82 -1.61609 155.554 -1.60197 158.197L2.39797 158.176C2.38616 155.966 2.76435 153.799 3.5384 152.005L-0.134222 150.42ZM-1.60197 158.176C-1.61609 160.819 -1.16992 163.552 -0.134222 165.952L3.5384 164.367C2.76435 162.574 2.38616 160.407 2.39797 158.197L-1.60197 158.176ZM-0.148528 165.918C0.533647 167.583 1.48755 169.119 2.75179 170.246L5.41332 167.26C4.73281 166.654 4.08112 165.691 3.55271 164.401L-0.148528 165.918ZM2.55783 170.048L15.2266 184.972L18.276 182.383L5.60728 167.459L2.55783 170.048ZM15.2266 184.972C16.7012 186.709 17.7472 189.855 17.7472 193.463H21.7472C21.7472 189.241 20.5508 185.063 18.276 182.383L15.2266 184.972ZM17.7472 193.463V199.681H21.7472V193.463H17.7472ZM17.7472 199.681C17.7472 200.028 17.7551 200.373 17.7707 200.714L21.7665 200.532C21.7537 200.251 21.7472 199.967 21.7472 199.681H17.7472ZM21.7686 271.717V200.623H17.7686V271.717H21.7686ZM52.7686 302.717C35.6478 302.717 21.7686 288.838 21.7686 271.717H17.7686C17.7686 291.047 33.4387 306.717 52.7686 306.717V302.717ZM455.398 302.717H52.7686V306.717H455.398V302.717ZM486.398 271.717C486.398 288.838 472.518 302.717 455.398 302.717V306.717C474.728 306.717 490.398 291.047 490.398 271.717H486.398ZM486.398 33V271.717H490.398V33H486.398ZM455.398 2C472.518 2 486.398 15.8792 486.398 33H490.398C490.398 13.67 474.728 -2 455.398 -2V2ZM52.7686 2H455.398V-2H52.7686V2Z" fill="#FFFFDC" mask="url(#path-1-inside-1_434_37)"/>
</g>
<path d="M87.9997 110.594C85.8997 111.014 84.1077 111.28 82.6237 111.392C81.1677 111.504 79.8657 111.504 78.7177 111.392C77.5977 111.28 76.5057 111.112 75.4417 110.888C74.3777 110.664 73.2297 110.44 71.9977 110.216C70.7657 109.992 69.3097 109.824 67.6297 109.712C65.9497 109.6 63.8917 109.6 61.4557 109.712V104.21C62.2117 104.266 63.1497 104.28 64.2697 104.252C65.4177 104.252 66.6357 104.196 67.9237 104.084C69.2397 104 70.5417 103.874 71.8297 103.706C73.1177 103.538 74.2937 103.328 75.3577 103.076C76.4497 102.796 77.3037 102.474 77.9197 102.11V101.564C75.6237 102.236 73.5657 102.558 71.7457 102.53C69.9537 102.502 68.3857 102.18 67.0417 101.564C65.7257 100.948 64.6477 100.08 63.8077 98.96C62.9677 97.84 62.3377 96.524 61.9177 95.012C61.4977 93.5 61.2877 91.848 61.2877 90.056C61.2877 88.012 61.5677 86.122 62.1277 84.386C62.6877 82.622 63.5277 81.096 64.6477 79.808C65.7677 78.52 67.1677 77.512 68.8477 76.784C70.5277 76.056 72.5017 75.692 74.7697 75.692C77.5697 75.692 79.9497 76.266 81.9097 77.414C83.8977 78.562 85.4097 80.2 86.4457 82.328C87.5097 84.456 88.0417 87.004 88.0417 89.972C88.0417 92.66 87.6637 94.914 86.9077 96.734C86.1517 98.526 85.1017 99.982 83.7577 101.102C82.4417 102.222 80.8737 103.09 79.0537 103.706C77.2617 104.294 75.3157 104.714 73.2157 104.966V105.554C74.7557 105.722 76.1557 105.862 77.4157 105.974C78.6757 106.086 79.8797 106.142 81.0277 106.142C82.1757 106.142 83.3097 106.072 84.4297 105.932C85.5497 105.792 86.7397 105.554 87.9997 105.218V110.594ZM74.8117 99.338C76.2677 99.338 77.4717 99.016 78.4237 98.372C79.3757 97.7 80.0757 96.706 80.5237 95.39C80.9997 94.074 81.2377 92.422 81.2377 90.434C81.2377 88.39 80.9857 86.682 80.4817 85.31C80.0057 83.938 79.2637 82.902 78.2557 82.202C77.2757 81.474 76.0437 81.11 74.5597 81.11C73.1597 81.11 71.9697 81.46 70.9897 82.16C70.0377 82.832 69.3237 83.84 68.8477 85.184C68.3717 86.528 68.1337 88.208 68.1337 90.224C68.1337 92.24 68.3717 93.934 68.8477 95.306C69.3517 96.65 70.1077 97.658 71.1157 98.33C72.1237 99.002 73.3557 99.338 74.8117 99.338ZM100.16 104.588C97.5283 104.588 95.5403 103.706 94.1963 101.942C92.8803 100.15 92.2223 97.434 92.2223 93.794V81.824H99.0263V92.912C99.0263 94.984 99.3343 96.538 99.9503 97.574C100.566 98.582 101.504 99.086 102.764 99.086C103.52 99.086 104.164 98.904 104.696 98.54C105.256 98.148 105.718 97.616 106.082 96.944C106.474 96.244 106.754 95.446 106.922 94.55C107.118 93.654 107.216 92.674 107.216 91.61V81.824H113.978V95.012V104H108.602L108.476 97.154H107.636C107.216 98.89 106.684 100.318 106.04 101.438C105.424 102.53 104.64 103.328 103.688 103.832C102.736 104.336 101.56 104.588 100.16 104.588ZM129.719 104.588C127.871 104.588 126.219 104.35 124.763 103.874C123.307 103.37 122.061 102.642 121.025 101.69C120.017 100.738 119.247 99.562 118.715 98.162C118.183 96.762 117.917 95.152 117.917 93.332C117.917 91.568 118.169 89.944 118.673 88.46C119.205 86.976 119.947 85.702 120.899 84.638C121.879 83.546 123.069 82.706 124.469 82.118C125.897 81.53 127.493 81.236 129.257 81.236C131.049 81.236 132.617 81.53 133.961 82.118C135.333 82.678 136.453 83.518 137.321 84.638C138.217 85.758 138.875 87.13 139.295 88.754C139.715 90.35 139.855 92.184 139.715 94.256L122.369 94.382V90.854L135.851 90.728L133.457 92.366C133.653 90.966 133.569 89.832 133.205 88.964C132.841 88.068 132.309 87.424 131.609 87.032C130.909 86.612 130.153 86.402 129.341 86.402C128.361 86.402 127.493 86.668 126.737 87.2C126.009 87.732 125.435 88.502 125.015 89.51C124.595 90.518 124.385 91.75 124.385 93.206C124.385 95.502 124.875 97.168 125.855 98.204C126.863 99.24 128.137 99.758 129.677 99.758C130.433 99.758 131.063 99.66 131.567 99.464C132.071 99.24 132.477 98.974 132.785 98.666C133.121 98.33 133.373 97.966 133.541 97.574C133.737 97.182 133.891 96.804 134.003 96.44L139.883 97.7C139.659 98.736 139.295 99.674 138.791 100.514C138.315 101.354 137.657 102.082 136.817 102.698C136.005 103.314 135.011 103.776 133.835 104.084C132.687 104.42 131.315 104.588 129.719 104.588ZM143.828 104V93.71V81.824H149.372L149.498 89.342H150.338C150.534 87.382 150.898 85.828 151.43 84.68C151.99 83.504 152.774 82.65 153.782 82.118C154.818 81.586 156.092 81.32 157.604 81.32C157.828 81.32 158.08 81.334 158.36 81.362C158.64 81.362 158.962 81.39 159.326 81.446L159.074 88.67C158.626 88.446 158.136 88.306 157.604 88.25C157.1 88.166 156.652 88.124 156.26 88.124C155.168 88.124 154.216 88.334 153.404 88.754C152.62 89.174 151.99 89.818 151.514 90.686C151.066 91.554 150.772 92.646 150.632 93.962V104H143.828ZM173.114 104.588C171.266 104.588 169.614 104.35 168.158 103.874C166.702 103.37 165.456 102.642 164.42 101.69C163.412 100.738 162.642 99.562 162.11 98.162C161.578 96.762 161.312 95.152 161.312 93.332C161.312 91.568 161.564 89.944 162.068 88.46C162.6 86.976 163.342 85.702 164.294 84.638C165.274 83.546 166.464 82.706 167.864 82.118C169.292 81.53 170.888 81.236 172.652 81.236C174.444 81.236 176.012 81.53 177.356 82.118C178.728 82.678 179.848 83.518 180.716 84.638C181.612 85.758 182.27 87.13 182.69 88.754C183.11 90.35 183.25 92.184 183.11 94.256L165.764 94.382V90.854L179.246 90.728L176.852 92.366C177.048 90.966 176.964 89.832 176.6 88.964C176.236 88.068 175.704 87.424 175.004 87.032C174.304 86.612 173.548 86.402 172.736 86.402C171.756 86.402 170.888 86.668 170.132 87.2C169.404 87.732 168.83 88.502 168.41 89.51C167.99 90.518 167.78 91.75 167.78 93.206C167.78 95.502 168.27 97.168 169.25 98.204C170.258 99.24 171.532 99.758 173.072 99.758C173.828 99.758 174.458 99.66 174.962 99.464C175.466 99.24 175.872 98.974 176.18 98.666C176.516 98.33 176.768 97.966 176.936 97.574C177.132 97.182 177.286 96.804 177.398 96.44L183.278 97.7C183.054 98.736 182.69 99.674 182.186 100.514C181.71 101.354 181.052 102.082 180.212 102.698C179.4 103.314 178.406 103.776 177.23 104.084C176.082 104.42 174.71 104.588 173.114 104.588ZM187.222 104V89.678V81.824H192.556L192.64 88.334H193.48C193.872 86.738 194.39 85.422 195.034 84.386C195.678 83.322 196.462 82.538 197.386 82.034C198.31 81.502 199.388 81.236 200.62 81.236C201.908 81.236 202.972 81.516 203.812 82.076C204.68 82.608 205.366 83.406 205.87 84.47C206.374 85.506 206.71 86.794 206.878 88.334H207.592C208.04 86.682 208.628 85.338 209.356 84.302C210.084 83.238 210.952 82.468 211.96 81.992C212.968 81.488 214.06 81.236 215.236 81.236C216.496 81.236 217.588 81.488 218.512 81.992C219.464 82.468 220.248 83.196 220.864 84.176C221.508 85.128 221.984 86.332 222.292 87.788C222.6 89.216 222.754 90.882 222.754 92.786V104H215.95V93.626C215.95 92.142 215.824 90.91 215.572 89.93C215.348 88.95 214.984 88.222 214.48 87.746C213.976 87.242 213.332 86.99 212.548 86.99C211.652 86.99 210.882 87.284 210.238 87.872C209.622 88.46 209.146 89.286 208.81 90.35C208.474 91.386 208.306 92.562 208.306 93.878V104H201.67V93.752C201.67 92.212 201.53 90.952 201.25 89.972C200.998 88.992 200.606 88.25 200.074 87.746C199.57 87.242 198.926 86.99 198.142 86.99C197.246 86.99 196.49 87.284 195.874 87.872C195.258 88.46 194.782 89.286 194.446 90.35C194.138 91.386 193.984 92.562 193.984 93.878V104H187.222ZM237.87 104.588C235.63 104.588 233.642 104.154 231.906 103.286C230.198 102.418 228.854 101.116 227.874 99.38C226.894 97.644 226.404 95.474 226.404 92.87C226.404 90.266 226.894 88.11 227.874 86.402C228.854 84.666 230.212 83.378 231.948 82.538C233.684 81.67 235.672 81.236 237.912 81.236C240.152 81.236 242.14 81.67 243.876 82.538C245.612 83.406 246.97 84.708 247.95 86.444C248.93 88.152 249.42 90.308 249.42 92.912C249.42 95.572 248.916 97.77 247.908 99.506C246.9 101.242 245.514 102.53 243.75 103.37C242.014 104.182 240.054 104.588 237.87 104.588ZM238.08 99.674C239.088 99.674 239.928 99.45 240.6 99.002C241.272 98.526 241.776 97.812 242.112 96.86C242.448 95.908 242.616 94.732 242.616 93.332C242.616 91.848 242.434 90.602 242.07 89.594C241.706 88.558 241.16 87.774 240.432 87.242C239.732 86.682 238.822 86.402 237.702 86.402C236.75 86.402 235.924 86.64 235.224 87.116C234.552 87.564 234.048 88.264 233.712 89.216C233.376 90.168 233.208 91.358 233.208 92.786C233.208 95.082 233.628 96.804 234.468 97.952C235.336 99.1 236.54 99.674 238.08 99.674ZM262.699 104.588C261.215 104.588 259.871 104.448 258.667 104.168C257.463 103.916 256.413 103.538 255.517 103.034C254.621 102.53 253.879 101.928 253.291 101.228C252.731 100.5 252.339 99.702 252.115 98.834L257.155 96.608C257.351 97.084 257.687 97.574 258.163 98.078C258.667 98.554 259.325 98.946 260.137 99.254C260.977 99.562 261.985 99.716 263.161 99.716C264.281 99.716 265.149 99.562 265.765 99.254C266.409 98.918 266.731 98.442 266.731 97.826C266.731 97.378 266.549 97.028 266.185 96.776C265.849 96.496 265.331 96.258 264.631 96.062C263.931 95.838 263.063 95.628 262.027 95.432C260.963 95.208 259.885 94.956 258.793 94.676C257.701 94.368 256.679 93.962 255.727 93.458C254.775 92.926 254.005 92.24 253.417 91.4C252.857 90.532 252.577 89.44 252.577 88.124C252.577 86.752 252.941 85.562 253.669 84.554C254.397 83.518 255.475 82.706 256.903 82.118C258.359 81.53 260.123 81.236 262.195 81.236C264.043 81.236 265.667 81.474 267.067 81.95C268.467 82.426 269.629 83.112 270.553 84.008C271.505 84.876 272.163 85.926 272.527 87.158L267.109 89.09C266.969 88.474 266.675 87.942 266.227 87.494C265.807 87.046 265.261 86.71 264.589 86.486C263.945 86.234 263.175 86.108 262.279 86.108C261.187 86.108 260.333 86.276 259.717 86.612C259.129 86.948 258.835 87.396 258.835 87.956C258.835 88.404 259.031 88.782 259.423 89.09C259.843 89.37 260.431 89.608 261.187 89.804C261.943 90 262.839 90.21 263.875 90.434C264.967 90.658 266.045 90.924 267.109 91.232C268.201 91.512 269.181 91.904 270.049 92.408C270.945 92.884 271.645 93.528 272.149 94.34C272.681 95.124 272.947 96.146 272.947 97.406C272.947 98.89 272.555 100.178 271.771 101.27C270.987 102.334 269.825 103.16 268.285 103.748C266.773 104.308 264.911 104.588 262.699 104.588Z" fill="#D1CEED"/>
<path d="M299.314 110.318V104.748C299.314 104.15 299.351 103.539 299.426 102.916C299.526 102.268 299.65 101.595 299.8 100.897C299.949 100.174 300.099 99.4639 300.248 98.7661H299.463C299.065 100.037 298.566 101.109 297.968 101.981C297.395 102.829 296.672 103.464 295.8 103.888C294.952 104.312 293.905 104.523 292.659 104.523C290.915 104.523 289.444 104.075 288.248 103.178C287.076 102.28 286.192 101.059 285.593 99.5138C284.995 97.9685 284.696 96.2239 284.696 94.2798C284.696 92.0865 285.033 90.2048 285.706 88.6346C286.378 87.0645 287.351 85.8557 288.622 85.0083C289.893 84.1609 291.388 83.7372 293.108 83.7372C294.279 83.7372 295.314 83.9615 296.211 84.4101C297.133 84.8338 297.881 85.4943 298.454 86.3915C299.052 87.2888 299.451 88.4477 299.65 89.8684H300.435V84.2979H305.37V94.1303V110.318H299.314ZM294.977 99.7755C295.525 99.7755 296.024 99.6758 296.473 99.4764C296.921 99.277 297.32 99.0028 297.669 98.6539C298.018 98.305 298.317 97.9187 298.566 97.495C298.815 97.0463 299.002 96.5852 299.127 96.1117C299.251 95.6382 299.314 95.1646 299.314 94.6911V93.8686C299.314 93.3452 299.239 92.7844 299.089 92.1862C298.94 91.5632 298.703 90.9899 298.379 90.4665C298.055 89.9182 297.619 89.482 297.071 89.158C296.547 88.8091 295.899 88.6346 295.127 88.6346C294.304 88.6346 293.581 88.8714 292.958 89.345C292.335 89.7936 291.862 90.4416 291.538 91.289C291.214 92.1364 291.052 93.1458 291.052 94.3172C291.052 95.3889 291.201 96.336 291.5 97.1585C291.824 97.981 292.273 98.629 292.846 99.1025C293.444 99.5511 294.155 99.7755 294.977 99.7755ZM316.788 104.523C314.445 104.523 312.676 103.738 311.48 102.168C310.308 100.573 309.722 98.1554 309.722 94.9154V84.2606H315.779V94.1303C315.779 95.9746 316.053 97.3579 316.601 98.28C317.15 99.1773 317.985 99.6259 319.106 99.6259C319.779 99.6259 320.352 99.4639 320.826 99.1399C321.324 98.791 321.736 98.3174 322.06 97.7193C322.408 97.0962 322.658 96.3859 322.807 95.5883C322.982 94.7908 323.069 93.9184 323.069 92.9713V84.2606H329.088V95.9995V104H324.303L324.191 97.9062H323.443C323.069 99.4515 322.595 100.723 322.022 101.719C321.474 102.692 320.776 103.402 319.929 103.85C319.081 104.299 318.034 104.523 316.788 104.523ZM343.1 104.523C341.455 104.523 339.984 104.312 338.688 103.888C337.392 103.439 336.283 102.791 335.361 101.944C334.464 101.096 333.778 100.05 333.305 98.8034C332.831 97.5573 332.594 96.1242 332.594 94.5041C332.594 92.9339 332.819 91.4884 333.267 90.1674C333.741 88.8465 334.401 87.7125 335.249 86.7654C336.121 85.7934 337.18 85.0456 338.426 84.5223C339.698 83.9989 341.118 83.7372 342.688 83.7372C344.283 83.7372 345.679 83.9989 346.875 84.5223C348.097 85.0207 349.094 85.7684 349.866 86.7654C350.664 87.7623 351.25 88.9836 351.623 90.4291C351.997 91.8498 352.122 93.4823 351.997 95.3266L336.557 95.4388V92.2984L348.558 92.1862L346.427 93.6443C346.601 92.3981 346.527 91.3887 346.203 90.6161C345.879 89.8185 345.405 89.2453 344.782 88.8963C344.159 88.5225 343.486 88.3356 342.763 88.3356C341.891 88.3356 341.118 88.5723 340.445 89.0459C339.797 89.5194 339.286 90.2048 338.912 91.1021C338.539 91.9993 338.352 93.096 338.352 94.392C338.352 96.4357 338.788 97.9187 339.66 98.8408C340.557 99.763 341.691 100.224 343.062 100.224C343.735 100.224 344.296 100.137 344.745 99.9624C345.193 99.763 345.555 99.5262 345.829 99.2521C346.128 98.953 346.352 98.629 346.502 98.28C346.676 97.9311 346.813 97.5947 346.913 97.2706L352.147 98.3922C351.947 99.3144 351.623 100.149 351.175 100.897C350.751 101.645 350.165 102.293 349.418 102.841C348.695 103.389 347.81 103.801 346.763 104.075C345.741 104.374 344.52 104.523 343.1 104.523ZM71.0245 146.523C69.3297 146.523 67.8343 146.287 66.5383 145.813C65.2423 145.34 64.1581 144.667 63.2858 143.794C62.4135 142.897 61.7405 141.825 61.267 140.579C60.8183 139.333 60.594 137.937 60.594 136.392C60.594 134.797 60.8183 133.351 61.267 132.055C61.7405 130.759 62.4135 129.638 63.2858 128.691C64.1581 127.744 65.2298 127.021 66.5009 126.522C67.772 125.999 69.23 125.737 70.875 125.737C72.5199 125.737 73.9406 125.999 75.1369 126.522C76.3333 127.046 77.3053 127.781 78.053 128.728C78.8256 129.675 79.349 130.772 79.6232 132.018L74.0527 133.887C73.978 133.065 73.7786 132.392 73.4546 131.868C73.1306 131.345 72.7069 130.971 72.1835 130.747C71.685 130.498 71.1367 130.373 70.5385 130.373C69.9154 130.373 69.3671 130.498 68.8936 130.747C68.42 130.996 68.0212 131.37 67.6972 131.868C67.3732 132.367 67.124 132.977 66.9495 133.7C66.7751 134.398 66.6878 135.208 66.6878 136.13C66.6878 137.451 66.8498 138.56 67.1738 139.458C67.5228 140.33 68.0212 140.99 68.6693 141.439C69.3422 141.888 70.1522 142.112 71.0993 142.112C72.0713 142.112 72.8315 141.913 73.3798 141.514C73.9281 141.115 74.3269 140.629 74.5761 140.056C74.8254 139.458 74.9749 138.872 75.0248 138.299L80.2587 139.458C80.159 140.38 79.9098 141.277 79.511 142.149C79.1371 142.997 78.5764 143.757 77.8287 144.43C77.081 145.078 76.1463 145.589 75.0248 145.963C73.9281 146.336 72.5947 146.523 71.0245 146.523ZM89.8402 146.523C87.4973 146.523 85.7278 145.738 84.5314 144.168C83.36 142.573 82.7743 140.155 82.7743 136.915V126.261H88.8307V136.13C88.8307 137.975 89.1049 139.358 89.6532 140.28C90.2015 141.177 91.0365 141.626 92.158 141.626C92.831 141.626 93.4042 141.464 93.8778 141.14C94.3762 140.791 94.7875 140.317 95.1115 139.719C95.4604 139.096 95.7096 138.386 95.8592 137.588C96.0337 136.791 96.1209 135.918 96.1209 134.971V126.261H102.14V138V146H97.3546L97.2424 139.906H96.4947C96.1209 141.451 95.6473 142.723 95.0741 143.719C94.5258 144.692 93.8279 145.402 92.9805 145.85C92.1331 146.299 91.0863 146.523 89.8402 146.523ZM106.768 146V126.261H112.787V146H106.768ZM109.796 123.494C108.65 123.494 107.765 123.257 107.142 122.784C106.543 122.285 106.244 121.587 106.244 120.69C106.244 119.743 106.543 119.033 107.142 118.559C107.765 118.061 108.65 117.811 109.796 117.811C110.967 117.811 111.852 118.061 112.45 118.559C113.073 119.033 113.385 119.731 113.385 120.653C113.385 121.575 113.073 122.285 112.45 122.784C111.852 123.257 110.967 123.494 109.796 123.494ZM124.68 146.523C123.035 146.523 121.59 146.112 120.344 145.29C119.122 144.442 118.163 143.246 117.465 141.701C116.767 140.131 116.418 138.261 116.418 136.093C116.418 134.099 116.717 132.329 117.315 130.784C117.914 129.239 118.798 128.03 119.97 127.158C121.166 126.261 122.637 125.812 124.381 125.812C125.627 125.812 126.674 126.036 127.522 126.485C128.394 126.933 129.117 127.606 129.69 128.504C130.263 129.401 130.724 130.535 131.073 131.906H132.008C131.833 131.058 131.671 130.261 131.522 129.513C131.372 128.74 131.248 128.03 131.148 127.382C131.073 126.709 131.036 126.123 131.036 125.625V119.083H137.092V136.355V146H132.157L132.083 140.168H131.26C130.986 141.663 130.55 142.885 129.952 143.832C129.378 144.754 128.643 145.439 127.746 145.888C126.874 146.312 125.852 146.523 124.68 146.523ZM126.849 141.663C127.621 141.663 128.269 141.501 128.793 141.177C129.341 140.828 129.777 140.392 130.101 139.869C130.425 139.345 130.662 138.785 130.812 138.186C130.961 137.588 131.036 137.028 131.036 136.504V135.719C131.036 135.245 130.974 134.772 130.849 134.298C130.724 133.825 130.537 133.364 130.288 132.915C130.064 132.467 129.777 132.068 129.428 131.719C129.079 131.37 128.668 131.096 128.195 130.896C127.746 130.697 127.247 130.597 126.699 130.597C125.877 130.597 125.166 130.822 124.568 131.27C123.995 131.719 123.546 132.354 123.222 133.177C122.923 133.999 122.774 134.971 122.774 136.093C122.774 137.214 122.936 138.199 123.26 139.046C123.584 139.869 124.057 140.517 124.68 140.99C125.303 141.439 126.026 141.663 126.849 141.663ZM151.127 146.523C149.482 146.523 148.012 146.312 146.716 145.888C145.42 145.439 144.311 144.791 143.388 143.944C142.491 143.096 141.806 142.05 141.332 140.803C140.859 139.557 140.622 138.124 140.622 136.504C140.622 134.934 140.846 133.488 141.295 132.167C141.768 130.846 142.429 129.712 143.276 128.765C144.149 127.793 145.208 127.046 146.454 126.522C147.725 125.999 149.146 125.737 150.716 125.737C152.311 125.737 153.707 125.999 154.903 126.522C156.124 127.021 157.121 127.768 157.894 128.765C158.692 129.762 159.277 130.984 159.651 132.429C160.025 133.85 160.15 135.482 160.025 137.327L144.585 137.439V134.298L156.585 134.186L154.455 135.644C154.629 134.398 154.554 133.389 154.23 132.616C153.906 131.819 153.433 131.245 152.81 130.896C152.186 130.522 151.514 130.336 150.791 130.336C149.918 130.336 149.146 130.572 148.473 131.046C147.825 131.519 147.314 132.205 146.94 133.102C146.566 133.999 146.379 135.096 146.379 136.392C146.379 138.436 146.815 139.919 147.688 140.841C148.585 141.763 149.719 142.224 151.09 142.224C151.763 142.224 152.324 142.137 152.772 141.962C153.221 141.763 153.582 141.526 153.856 141.252C154.155 140.953 154.38 140.629 154.529 140.28C154.704 139.931 154.841 139.595 154.941 139.271L160.174 140.392C159.975 141.314 159.651 142.149 159.202 142.897C158.779 143.645 158.193 144.293 157.445 144.841C156.723 145.389 155.838 145.801 154.791 146.075C153.769 146.374 152.548 146.523 151.127 146.523ZM171.943 146.523C170.622 146.523 169.426 146.399 168.354 146.15C167.283 145.925 166.348 145.589 165.55 145.14C164.753 144.692 164.092 144.156 163.569 143.533C163.07 142.885 162.722 142.174 162.522 141.402L167.008 139.42C167.183 139.844 167.482 140.28 167.906 140.729C168.354 141.152 168.94 141.501 169.663 141.775C170.41 142.05 171.308 142.187 172.354 142.187C173.351 142.187 174.124 142.05 174.672 141.775C175.246 141.476 175.532 141.053 175.532 140.504C175.532 140.106 175.37 139.794 175.046 139.57C174.747 139.32 174.286 139.109 173.663 138.934C173.04 138.735 172.267 138.548 171.345 138.373C170.398 138.174 169.438 137.95 168.466 137.7C167.494 137.426 166.585 137.065 165.737 136.616C164.89 136.143 164.204 135.532 163.681 134.784C163.183 134.012 162.933 133.04 162.933 131.868C162.933 130.647 163.257 129.588 163.905 128.691C164.553 127.768 165.513 127.046 166.784 126.522C168.08 125.999 169.65 125.737 171.495 125.737C173.14 125.737 174.585 125.949 175.831 126.373C177.077 126.796 178.112 127.407 178.934 128.205C179.782 128.977 180.367 129.912 180.691 131.008L175.869 132.728C175.744 132.18 175.482 131.706 175.084 131.308C174.71 130.909 174.224 130.61 173.626 130.41C173.052 130.186 172.367 130.074 171.569 130.074C170.597 130.074 169.837 130.223 169.289 130.522C168.765 130.822 168.504 131.22 168.504 131.719C168.504 132.118 168.678 132.454 169.027 132.728C169.401 132.977 169.924 133.189 170.597 133.364C171.27 133.538 172.068 133.725 172.99 133.925C173.962 134.124 174.922 134.361 175.869 134.635C176.841 134.884 177.713 135.233 178.486 135.682C179.283 136.105 179.906 136.679 180.355 137.401C180.828 138.099 181.065 139.009 181.065 140.131C181.065 141.451 180.716 142.598 180.018 143.57C179.321 144.517 178.286 145.252 176.915 145.776C175.57 146.274 173.912 146.523 171.943 146.523ZM200.412 146.486C198.094 146.486 196.386 145.875 195.29 144.654C194.193 143.408 193.645 141.427 193.645 138.71V130.971H190.841L190.953 126.298H192.972C193.769 126.273 194.368 126.148 194.766 125.924C195.19 125.7 195.452 125.276 195.551 124.653L196.038 121.886H199.44V126.261H204.187V131.158H199.44V138.448C199.44 139.296 199.639 139.919 200.038 140.317C200.461 140.716 201.097 140.916 201.944 140.916C202.418 140.916 202.867 140.866 203.29 140.766C203.714 140.666 204.063 140.529 204.337 140.355V145.925C203.539 146.174 202.804 146.324 202.131 146.374C201.483 146.449 200.91 146.486 200.412 146.486ZM214.665 146.523C212.322 146.523 210.552 145.738 209.356 144.168C208.185 142.573 207.599 140.155 207.599 136.915V126.261H213.655V136.13C213.655 137.975 213.929 139.358 214.478 140.28C215.026 141.177 215.861 141.626 216.983 141.626C217.656 141.626 218.229 141.464 218.702 141.14C219.201 140.791 219.612 140.317 219.936 139.719C220.285 139.096 220.534 138.386 220.684 137.588C220.858 136.791 220.945 135.918 220.945 134.971V126.261H226.964V138V146H222.179L222.067 139.906H221.319C220.945 141.451 220.472 142.723 219.899 143.719C219.35 144.692 218.652 145.402 217.805 145.85C216.958 146.299 215.911 146.523 214.665 146.523ZM71.0993 188.523C69.4544 188.523 67.9839 188.312 66.6878 187.888C65.3918 187.439 64.2827 186.791 63.3605 185.944C62.4633 185.096 61.7779 184.05 61.3044 182.803C60.8308 181.557 60.594 180.124 60.594 178.504C60.594 176.934 60.8183 175.488 61.267 174.167C61.7405 172.846 62.401 171.712 63.2484 170.765C64.1207 169.793 65.18 169.046 66.4261 168.522C67.6972 167.999 69.1179 167.737 70.6881 167.737C72.2832 167.737 73.6789 167.999 74.8752 168.522C76.0965 169.021 77.0934 169.768 77.866 170.765C78.6636 171.762 79.2493 172.984 79.6232 174.429C79.997 175.85 80.1216 177.482 79.997 179.327L64.5569 179.439V176.298L76.5576 176.186L74.4266 177.644C74.6011 176.398 74.5263 175.389 74.2023 174.616C73.8783 173.819 73.4047 173.245 72.7816 172.896C72.1586 172.522 71.4856 172.336 70.7628 172.336C69.8905 172.336 69.1179 172.572 68.4449 173.046C67.7969 173.519 67.286 174.205 66.9122 175.102C66.5383 175.999 66.3514 177.096 66.3514 178.392C66.3514 180.436 66.7875 181.919 67.6599 182.841C68.5571 183.763 69.6911 184.224 71.0619 184.224C71.7349 184.224 72.2956 184.137 72.7443 183.962C73.1929 183.763 73.5543 183.526 73.8284 183.252C74.1275 182.953 74.3518 182.629 74.5014 182.28C74.6758 181.931 74.8129 181.595 74.9126 181.271L80.1466 182.392C79.9472 183.314 79.6232 184.149 79.1745 184.897C78.7508 185.645 78.1651 186.293 77.4174 186.841C76.6946 187.389 75.8099 187.801 74.7631 188.075C73.7412 188.374 72.5199 188.523 71.0993 188.523ZM81.0937 188L87.5988 178.13L81.1311 168.261H88.0474L91.2999 175.513H92.0103L95.2628 168.261H102.179L95.674 178.13L102.216 188H95.3375L92.0103 180.672H91.2999L88.0474 188H81.0937ZM104.942 194.318V178.355V168.261H109.877L109.952 173.868L110.625 173.943C110.849 172.547 111.248 171.388 111.821 170.466C112.394 169.544 113.13 168.859 114.027 168.41C114.949 167.961 115.996 167.737 117.167 167.737C118.912 167.737 120.407 168.161 121.654 169.008C122.925 169.856 123.897 171.064 124.57 172.635C125.243 174.205 125.579 176.087 125.579 178.28C125.579 180.224 125.28 181.969 124.682 183.514C124.109 185.059 123.224 186.28 122.027 187.178C120.856 188.075 119.361 188.523 117.541 188.523C116.32 188.523 115.286 188.312 114.438 187.888C113.591 187.439 112.868 186.791 112.27 185.944C111.697 185.096 111.211 184.037 110.812 182.766H110.102C110.251 183.439 110.388 184.124 110.513 184.822C110.637 185.52 110.737 186.193 110.812 186.841C110.912 187.489 110.961 188.112 110.961 188.71V194.318H104.942ZM115.335 183.775C116.158 183.775 116.856 183.551 117.429 183.103C118.027 182.654 118.488 182.018 118.812 181.196C119.136 180.373 119.298 179.414 119.298 178.317C119.298 177.146 119.124 176.149 118.775 175.326C118.451 174.479 117.977 173.831 117.354 173.382C116.731 172.909 116.008 172.672 115.186 172.672C114.413 172.672 113.753 172.846 113.205 173.195C112.681 173.519 112.245 173.956 111.896 174.504C111.572 175.027 111.335 175.588 111.186 176.186C111.036 176.784 110.961 177.345 110.961 177.869V178.691C110.961 179.165 111.024 179.638 111.148 180.112C111.273 180.585 111.46 181.046 111.709 181.495C111.958 181.919 112.257 182.305 112.606 182.654C112.955 183.003 113.354 183.277 113.803 183.476C114.276 183.676 114.787 183.775 115.335 183.775ZM138.641 188.523C136.996 188.523 135.526 188.312 134.23 187.888C132.934 187.439 131.825 186.791 130.902 185.944C130.005 185.096 129.32 184.05 128.846 182.803C128.373 181.557 128.136 180.124 128.136 178.504C128.136 176.934 128.36 175.488 128.809 174.167C129.282 172.846 129.943 171.712 130.79 170.765C131.663 169.793 132.722 169.046 133.968 168.522C135.239 167.999 136.66 167.737 138.23 167.737C139.825 167.737 141.221 167.999 142.417 168.522C143.638 169.021 144.635 169.768 145.408 170.765C146.205 171.762 146.791 172.984 147.165 174.429C147.539 175.85 147.663 177.482 147.539 179.327L132.099 179.439V176.298L144.099 176.186L141.968 177.644C142.143 176.398 142.068 175.389 141.744 174.616C141.42 173.819 140.947 173.245 140.323 172.896C139.7 172.522 139.027 172.336 138.305 172.336C137.432 172.336 136.66 172.572 135.987 173.046C135.339 173.519 134.828 174.205 134.454 175.102C134.08 175.999 133.893 177.096 133.893 178.392C133.893 180.436 134.329 181.919 135.202 182.841C136.099 183.763 137.233 184.224 138.604 184.224C139.277 184.224 139.837 184.137 140.286 183.962C140.735 183.763 141.096 183.526 141.37 183.252C141.669 182.953 141.894 182.629 142.043 182.28C142.218 181.931 142.355 181.595 142.454 181.271L147.688 182.392C147.489 183.314 147.165 184.149 146.716 184.897C146.293 185.645 145.707 186.293 144.959 186.841C144.236 187.389 143.352 187.801 142.305 188.075C141.283 188.374 140.062 188.523 138.641 188.523ZM151.199 188V178.841V168.261H156.134L156.246 174.953H156.994C157.169 173.208 157.493 171.825 157.966 170.803C158.465 169.756 159.162 168.996 160.06 168.522C160.982 168.049 162.116 167.812 163.462 167.812C163.661 167.812 163.885 167.824 164.135 167.849C164.384 167.849 164.671 167.874 164.995 167.924L164.77 174.354C164.371 174.155 163.935 174.03 163.462 173.981C163.013 173.906 162.614 173.868 162.265 173.868C161.293 173.868 160.446 174.055 159.723 174.429C159.025 174.803 158.465 175.376 158.041 176.149C157.642 176.921 157.38 177.894 157.256 179.065V188H151.199ZM167.884 188V168.261H173.903V188H167.884ZM170.912 165.494C169.766 165.494 168.881 165.257 168.258 164.784C167.66 164.285 167.361 163.587 167.361 162.69C167.361 161.743 167.66 161.033 168.258 160.559C168.881 160.061 169.766 159.811 170.912 159.811C172.084 159.811 172.968 160.061 173.567 160.559C174.19 161.033 174.501 161.731 174.501 162.653C174.501 163.575 174.19 164.285 173.567 164.784C172.968 165.257 172.084 165.494 170.912 165.494ZM187.965 188.523C186.32 188.523 184.849 188.312 183.553 187.888C182.257 187.439 181.148 186.791 180.226 185.944C179.329 185.096 178.644 184.05 178.17 182.803C177.696 181.557 177.46 180.124 177.46 178.504C177.46 176.934 177.684 175.488 178.133 174.167C178.606 172.846 179.267 171.712 180.114 170.765C180.986 169.793 182.046 169.046 183.292 168.522C184.563 167.999 185.983 167.737 187.554 167.737C189.149 167.737 190.544 167.999 191.741 168.522C192.962 169.021 193.959 169.768 194.732 170.765C195.529 171.762 196.115 172.984 196.489 174.429C196.863 175.85 196.987 177.482 196.863 179.327L181.422 179.439V176.298L193.423 176.186L191.292 177.644C191.467 176.398 191.392 175.389 191.068 174.616C190.744 173.819 190.27 173.245 189.647 172.896C189.024 172.522 188.351 172.336 187.628 172.336C186.756 172.336 185.983 172.572 185.311 173.046C184.663 173.519 184.152 174.205 183.778 175.102C183.404 175.999 183.217 177.096 183.217 178.392C183.217 180.436 183.653 181.919 184.525 182.841C185.423 183.763 186.557 184.224 187.928 184.224C188.6 184.224 189.161 184.137 189.61 183.962C190.058 183.763 190.42 183.526 190.694 183.252C190.993 182.953 191.217 182.629 191.367 182.28C191.541 181.931 191.679 181.595 191.778 181.271L197.012 182.392C196.813 183.314 196.489 184.149 196.04 184.897C195.616 185.645 195.031 186.293 194.283 186.841C193.56 187.389 192.675 187.801 191.629 188.075C190.607 188.374 189.386 188.523 187.965 188.523ZM200.523 188V176.111V168.261H205.383L205.458 174.055H206.206C206.53 172.66 206.991 171.488 207.589 170.541C208.187 169.594 208.947 168.896 209.869 168.447C210.792 167.974 211.876 167.737 213.122 167.737C215.44 167.737 217.197 168.547 218.393 170.167C219.615 171.787 220.225 174.367 220.225 177.906V188H214.169V178.579C214.169 176.535 213.87 175.052 213.272 174.13C212.698 173.183 211.838 172.709 210.692 172.709C209.745 172.709 208.96 172.996 208.337 173.569C207.739 174.143 207.29 174.903 206.991 175.85C206.692 176.797 206.542 177.856 206.542 179.028V188H200.523ZM233.855 188.523C232.16 188.523 230.665 188.287 229.369 187.813C228.073 187.34 226.989 186.667 226.116 185.794C225.244 184.897 224.571 183.825 224.098 182.579C223.649 181.333 223.425 179.937 223.425 178.392C223.425 176.797 223.649 175.351 224.098 174.055C224.571 172.759 225.244 171.638 226.116 170.691C226.989 169.744 228.06 169.021 229.331 168.522C230.603 167.999 232.061 167.737 233.706 167.737C235.35 167.737 236.771 167.999 237.967 168.522C239.164 169.046 240.136 169.781 240.884 170.728C241.656 171.675 242.18 172.772 242.454 174.018L236.883 175.887C236.809 175.065 236.609 174.392 236.285 173.868C235.961 173.345 235.537 172.971 235.014 172.747C234.516 172.498 233.967 172.373 233.369 172.373C232.746 172.373 232.198 172.498 231.724 172.747C231.251 172.996 230.852 173.37 230.528 173.868C230.204 174.367 229.955 174.977 229.78 175.7C229.606 176.398 229.518 177.208 229.518 178.13C229.518 179.451 229.68 180.56 230.004 181.458C230.353 182.33 230.852 182.99 231.5 183.439C232.173 183.888 232.983 184.112 233.93 184.112C234.902 184.112 235.662 183.913 236.21 183.514C236.759 183.115 237.157 182.629 237.407 182.056C237.656 181.458 237.805 180.872 237.855 180.299L243.089 181.458C242.99 182.38 242.74 183.277 242.342 184.149C241.968 184.997 241.407 185.757 240.659 186.43C239.911 187.078 238.977 187.589 237.855 187.963C236.759 188.336 235.425 188.523 233.855 188.523ZM245.904 188V168.261H251.923V188H245.904ZM248.932 165.494C247.786 165.494 246.901 165.257 246.278 164.784C245.68 164.285 245.381 163.587 245.381 162.69C245.381 161.743 245.68 161.033 246.278 160.559C246.901 160.061 247.786 159.811 248.932 159.811C250.104 159.811 250.988 160.061 251.587 160.559C252.21 161.033 252.521 161.731 252.521 162.653C252.521 163.575 252.21 164.285 251.587 164.784C250.988 165.257 250.104 165.494 248.932 165.494ZM261.237 188.523C260.14 188.523 259.168 188.312 258.321 187.888C257.473 187.439 256.813 186.804 256.339 185.981C255.866 185.134 255.629 184.112 255.629 182.916C255.629 181.794 255.841 180.872 256.265 180.149C256.713 179.401 257.349 178.816 258.171 178.392C259.019 177.943 260.028 177.582 261.2 177.308C262.371 177.009 263.704 176.747 265.2 176.523C265.923 176.398 266.521 176.286 266.994 176.186C267.493 176.062 267.867 175.875 268.116 175.625C268.365 175.376 268.49 175.015 268.49 174.541C268.49 173.918 268.265 173.382 267.817 172.934C267.368 172.485 266.645 172.261 265.648 172.261C264.951 172.261 264.315 172.385 263.742 172.635C263.193 172.884 262.72 173.245 262.321 173.719C261.922 174.192 261.623 174.766 261.424 175.439L256.115 173.868C256.439 172.822 256.888 171.912 257.461 171.139C258.059 170.367 258.769 169.731 259.592 169.233C260.414 168.709 261.349 168.335 262.396 168.111C263.468 167.862 264.602 167.737 265.798 167.737C267.792 167.737 269.412 168.061 270.658 168.709C271.929 169.332 272.864 170.317 273.462 171.663C274.085 172.984 274.397 174.691 274.397 176.784V179.813C274.397 180.71 274.409 181.62 274.434 182.542C274.484 183.439 274.534 184.349 274.583 185.271C274.658 186.168 274.745 187.078 274.845 188H269.536C269.437 187.427 269.337 186.741 269.237 185.944C269.138 185.121 269.063 184.286 269.013 183.439H268.303C267.954 184.386 267.443 185.258 266.77 186.056C266.122 186.829 265.324 187.439 264.377 187.888C263.455 188.312 262.408 188.523 261.237 188.523ZM263.966 184.261C264.415 184.261 264.863 184.187 265.312 184.037C265.785 183.863 266.234 183.638 266.658 183.364C267.081 183.065 267.468 182.704 267.817 182.28C268.166 181.856 268.427 181.395 268.602 180.897L268.527 177.943L269.35 178.13C268.876 178.429 268.353 178.666 267.779 178.841C267.206 179.015 266.62 179.152 266.022 179.252C265.449 179.352 264.876 179.464 264.302 179.588C263.754 179.688 263.256 179.825 262.807 180C262.383 180.174 262.047 180.411 261.798 180.71C261.548 181.009 261.424 181.42 261.424 181.944C261.424 182.641 261.661 183.202 262.134 183.626C262.608 184.05 263.218 184.261 263.966 184.261ZM291.795 188.523C290.698 188.523 289.726 188.312 288.879 187.888C288.032 187.439 287.371 186.804 286.898 185.981C286.424 185.134 286.187 184.112 286.187 182.916C286.187 181.794 286.399 180.872 286.823 180.149C287.271 179.401 287.907 178.816 288.729 178.392C289.577 177.943 290.586 177.582 291.758 177.308C292.929 177.009 294.262 176.747 295.758 176.523C296.481 176.398 297.079 176.286 297.552 176.186C298.051 176.062 298.425 175.875 298.674 175.625C298.923 175.376 299.048 175.015 299.048 174.541C299.048 173.918 298.823 173.382 298.375 172.934C297.926 172.485 297.203 172.261 296.206 172.261C295.509 172.261 294.873 172.385 294.3 172.635C293.752 172.884 293.278 173.245 292.879 173.719C292.48 174.192 292.181 174.766 291.982 175.439L286.673 173.868C286.997 172.822 287.446 171.912 288.019 171.139C288.617 170.367 289.328 169.731 290.15 169.233C290.973 168.709 291.907 168.335 292.954 168.111C294.026 167.862 295.16 167.737 296.356 167.737C298.35 167.737 299.97 168.061 301.216 168.709C302.487 169.332 303.422 170.317 304.02 171.663C304.643 172.984 304.955 174.691 304.955 176.784V179.813C304.955 180.71 304.967 181.62 304.992 182.542C305.042 183.439 305.092 184.349 305.142 185.271C305.216 186.168 305.304 187.078 305.403 188H300.095C299.995 187.427 299.895 186.741 299.795 185.944C299.696 185.121 299.621 184.286 299.571 183.439H298.861C298.512 184.386 298.001 185.258 297.328 186.056C296.68 186.829 295.882 187.439 294.935 187.888C294.013 188.312 292.966 188.523 291.795 188.523ZM294.524 184.261C294.973 184.261 295.421 184.187 295.87 184.037C296.344 183.863 296.792 183.638 297.216 183.364C297.64 183.065 298.026 182.704 298.375 182.28C298.724 181.856 298.985 181.395 299.16 180.897L299.085 177.943L299.908 178.13C299.434 178.429 298.911 178.666 298.337 178.841C297.764 179.015 297.178 179.152 296.58 179.252C296.007 179.352 295.434 179.464 294.861 179.588C294.312 179.688 293.814 179.825 293.365 180C292.941 180.174 292.605 180.411 292.356 180.71C292.107 181.009 291.982 181.42 291.982 181.944C291.982 182.641 292.219 183.202 292.692 183.626C293.166 184.05 293.776 184.261 294.524 184.261ZM309.393 188V161.083H315.3V188H309.393ZM337.689 188.523C336.044 188.523 334.573 188.312 333.277 187.888C331.981 187.439 330.872 186.791 329.95 185.944C329.053 185.096 328.367 184.05 327.894 182.803C327.42 181.557 327.183 180.124 327.183 178.504C327.183 176.934 327.408 175.488 327.856 174.167C328.33 172.846 328.99 171.712 329.838 170.765C330.71 169.793 331.769 169.046 333.016 168.522C334.287 167.999 335.707 167.737 337.277 167.737C338.873 167.737 340.268 167.999 341.465 168.522C342.686 169.021 343.683 169.768 344.455 170.765C345.253 171.762 345.839 172.984 346.213 174.429C346.586 175.85 346.711 177.482 346.586 179.327L331.146 179.439V176.298L343.147 176.186L341.016 177.644C341.19 176.398 341.116 175.389 340.792 174.616C340.468 173.819 339.994 173.245 339.371 172.896C338.748 172.522 338.075 172.336 337.352 172.336C336.48 172.336 335.707 172.572 335.034 173.046C334.386 173.519 333.875 174.205 333.502 175.102C333.128 175.999 332.941 177.096 332.941 178.392C332.941 180.436 333.377 181.919 334.249 182.841C335.146 183.763 336.281 184.224 337.651 184.224C338.324 184.224 338.885 184.137 339.334 183.962C339.782 183.763 340.144 183.526 340.418 183.252C340.717 182.953 340.941 182.629 341.091 182.28C341.265 181.931 341.402 181.595 341.502 181.271L346.736 182.392C346.537 183.314 346.213 184.149 345.764 184.897C345.34 185.645 344.755 186.293 344.007 186.841C343.284 187.389 342.399 187.801 341.352 188.075C340.331 188.374 339.109 188.523 337.689 188.523ZM358.505 188.523C357.184 188.523 355.987 188.399 354.916 188.15C353.844 187.925 352.909 187.589 352.112 187.14C351.314 186.692 350.654 186.156 350.13 185.533C349.632 184.885 349.283 184.174 349.084 183.402L353.57 181.42C353.744 181.844 354.043 182.28 354.467 182.729C354.916 183.152 355.501 183.501 356.224 183.775C356.972 184.05 357.869 184.187 358.916 184.187C359.913 184.187 360.685 184.05 361.234 183.775C361.807 183.476 362.094 183.053 362.094 182.504C362.094 182.106 361.932 181.794 361.608 181.57C361.309 181.32 360.848 181.109 360.224 180.934C359.601 180.735 358.829 180.548 357.907 180.373C356.959 180.174 356 179.95 355.028 179.7C354.056 179.426 353.146 179.065 352.299 178.616C351.451 178.143 350.766 177.532 350.243 176.784C349.744 176.012 349.495 175.04 349.495 173.868C349.495 172.647 349.819 171.588 350.467 170.691C351.115 169.768 352.074 169.046 353.346 168.522C354.642 167.999 356.212 167.737 358.056 167.737C359.701 167.737 361.147 167.949 362.393 168.373C363.639 168.796 364.673 169.407 365.496 170.205C366.343 170.977 366.929 171.912 367.253 173.008L362.43 174.728C362.306 174.18 362.044 173.706 361.645 173.308C361.271 172.909 360.785 172.61 360.187 172.41C359.614 172.186 358.928 172.074 358.131 172.074C357.159 172.074 356.399 172.223 355.85 172.522C355.327 172.822 355.065 173.22 355.065 173.719C355.065 174.118 355.24 174.454 355.589 174.728C355.962 174.977 356.486 175.189 357.159 175.364C357.832 175.538 358.629 175.725 359.551 175.925C360.523 176.124 361.483 176.361 362.43 176.635C363.402 176.884 364.274 177.233 365.047 177.682C365.845 178.105 366.468 178.679 366.916 179.401C367.39 180.099 367.627 181.009 367.627 182.131C367.627 183.451 367.278 184.598 366.58 185.57C365.882 186.517 364.848 187.252 363.477 187.776C362.131 188.274 360.474 188.523 358.505 188.523ZM378.649 188.486C376.331 188.486 374.624 187.875 373.527 186.654C372.431 185.408 371.882 183.427 371.882 180.71V172.971H369.078L369.19 168.298H371.209C372.007 168.273 372.605 168.148 373.004 167.924C373.427 167.7 373.689 167.276 373.789 166.653L374.275 163.886H377.677V168.261H382.425V173.158H377.677V180.448C377.677 181.296 377.876 181.919 378.275 182.317C378.699 182.716 379.334 182.916 380.182 182.916C380.655 182.916 381.104 182.866 381.528 182.766C381.951 182.666 382.3 182.529 382.574 182.355V187.925C381.777 188.174 381.042 188.324 380.369 188.374C379.721 188.449 379.147 188.486 378.649 188.486ZM390.771 188.523C389.675 188.523 388.702 188.312 387.855 187.888C387.008 187.439 386.347 186.804 385.874 185.981C385.4 185.134 385.163 184.112 385.163 182.916C385.163 181.794 385.375 180.872 385.799 180.149C386.248 179.401 386.883 178.816 387.706 178.392C388.553 177.943 389.562 177.582 390.734 177.308C391.905 177.009 393.239 176.747 394.734 176.523C395.457 176.398 396.055 176.286 396.528 176.186C397.027 176.062 397.401 175.875 397.65 175.625C397.899 175.376 398.024 175.015 398.024 174.541C398.024 173.918 397.8 173.382 397.351 172.934C396.902 172.485 396.18 172.261 395.183 172.261C394.485 172.261 393.849 172.385 393.276 172.635C392.728 172.884 392.254 173.245 391.855 173.719C391.457 174.192 391.157 174.766 390.958 175.439L385.649 173.868C385.973 172.822 386.422 171.912 386.995 171.139C387.593 170.367 388.304 169.731 389.126 169.233C389.949 168.709 390.883 168.335 391.93 168.111C393.002 167.862 394.136 167.737 395.332 167.737C397.326 167.737 398.946 168.061 400.192 168.709C401.463 169.332 402.398 170.317 402.996 171.663C403.619 172.984 403.931 174.691 403.931 176.784V179.813C403.931 180.71 403.943 181.62 403.968 182.542C404.018 183.439 404.068 184.349 404.118 185.271C404.192 186.168 404.28 187.078 404.379 188H399.071C398.971 187.427 398.871 186.741 398.772 185.944C398.672 185.121 398.597 184.286 398.547 183.439H397.837C397.488 184.386 396.977 185.258 396.304 186.056C395.656 186.829 394.859 187.439 393.912 187.888C392.989 188.312 391.943 188.523 390.771 188.523ZM393.5 184.261C393.949 184.261 394.398 184.187 394.846 184.037C395.32 183.863 395.768 183.638 396.192 183.364C396.616 183.065 397.002 182.704 397.351 182.28C397.7 181.856 397.962 181.395 398.136 180.897L398.061 177.943L398.884 178.13C398.41 178.429 397.887 178.666 397.314 178.841C396.74 179.015 396.155 179.152 395.556 179.252C394.983 179.352 394.41 179.464 393.837 179.588C393.288 179.688 392.79 179.825 392.341 180C391.918 180.174 391.581 180.411 391.332 180.71C391.083 181.009 390.958 181.42 390.958 181.944C390.958 182.641 391.195 183.202 391.668 183.626C392.142 184.05 392.753 184.261 393.5 184.261ZM408.369 188V178.841V168.261H413.304L413.416 174.953H414.164C414.339 173.208 414.663 171.825 415.136 170.803C415.635 169.756 416.332 168.996 417.23 168.522C418.152 168.049 419.286 167.812 420.632 167.812C420.831 167.812 421.055 167.824 421.305 167.849C421.554 167.849 421.841 167.874 422.165 167.924L421.94 174.354C421.541 174.155 421.105 174.03 420.632 173.981C420.183 173.906 419.784 173.868 419.435 173.868C418.463 173.868 417.616 174.055 416.893 174.429C416.195 174.803 415.635 175.376 415.211 176.149C414.812 176.921 414.55 177.894 414.426 179.065V188H408.369ZM71.0993 230.523C69.4544 230.523 67.9839 230.312 66.6878 229.888C65.3918 229.439 64.2827 228.791 63.3605 227.944C62.4633 227.096 61.7779 226.05 61.3044 224.803C60.8308 223.557 60.594 222.124 60.594 220.504C60.594 218.934 60.8183 217.488 61.267 216.167C61.7405 214.846 62.401 213.712 63.2484 212.765C64.1207 211.793 65.18 211.046 66.4261 210.522C67.6972 209.999 69.1179 209.737 70.6881 209.737C72.2832 209.737 73.6789 209.999 74.8752 210.522C76.0965 211.021 77.0934 211.768 77.866 212.765C78.6636 213.762 79.2493 214.984 79.6232 216.429C79.997 217.85 80.1216 219.482 79.997 221.327L64.5569 221.439V218.298L76.5576 218.186L74.4266 219.644C74.6011 218.398 74.5263 217.389 74.2023 216.616C73.8783 215.819 73.4047 215.245 72.7816 214.896C72.1586 214.522 71.4856 214.336 70.7628 214.336C69.8905 214.336 69.1179 214.572 68.4449 215.046C67.7969 215.519 67.286 216.205 66.9122 217.102C66.5383 217.999 66.3514 219.096 66.3514 220.392C66.3514 222.436 66.7875 223.919 67.6599 224.841C68.5571 225.763 69.6911 226.224 71.0619 226.224C71.7349 226.224 72.2956 226.137 72.7443 225.962C73.1929 225.763 73.5543 225.526 73.8284 225.252C74.1275 224.953 74.3518 224.629 74.5014 224.28C74.6758 223.931 74.8129 223.595 74.9126 223.271L80.1466 224.392C79.9472 225.314 79.6232 226.149 79.1745 226.897C78.7508 227.645 78.1651 228.293 77.4174 228.841C76.6946 229.389 75.8099 229.801 74.7631 230.075C73.7412 230.374 72.5199 230.523 71.0993 230.523ZM83.6576 230V218.111V210.261H88.5176L88.5924 216.055H89.3401C89.6641 214.66 90.1252 213.488 90.7234 212.541C91.3215 211.594 92.0817 210.896 93.0039 210.447C93.9261 209.974 95.0102 209.737 96.2564 209.737C98.5743 209.737 100.331 210.547 101.528 212.167C102.749 213.787 103.36 216.367 103.36 219.906V230H97.3032V220.579C97.3032 218.535 97.0041 217.052 96.4059 216.13C95.8327 215.183 94.9728 214.709 93.8264 214.709C92.8793 214.709 92.0942 214.996 91.4711 215.569C90.8729 216.143 90.4243 216.903 90.1252 217.85C89.8261 218.797 89.6766 219.856 89.6766 221.028V230H83.6576ZM116.266 230V205.326H122.397V230H116.266ZM127.322 230V218.111V210.261H132.183L132.257 216.055H133.005C133.329 214.66 133.79 213.488 134.388 212.541C134.986 211.594 135.747 210.896 136.669 210.447C137.591 209.974 138.675 209.737 139.921 209.737C142.239 209.737 143.996 210.547 145.193 212.167C146.414 213.787 147.024 216.367 147.024 219.906V230H140.968V220.579C140.968 218.535 140.669 217.052 140.071 216.13C139.498 215.183 138.638 214.709 137.491 214.709C136.544 214.709 135.759 214.996 135.136 215.569C134.538 216.143 134.089 216.903 133.79 217.85C133.491 218.797 133.341 219.856 133.341 221.028V230H127.322ZM158.974 230.486C156.656 230.486 154.949 229.875 153.852 228.654C152.755 227.408 152.207 225.427 152.207 222.71V214.971H149.403L149.515 210.298H151.534C152.332 210.273 152.93 210.148 153.329 209.924C153.752 209.7 154.014 209.276 154.114 208.653L154.6 205.886H158.002V210.261H162.75V215.158H158.002V222.448C158.002 223.296 158.201 223.919 158.6 224.317C159.024 224.716 159.659 224.916 160.507 224.916C160.98 224.916 161.429 224.866 161.852 224.766C162.276 224.666 162.625 224.529 162.899 224.355V229.925C162.102 230.174 161.366 230.324 160.693 230.374C160.045 230.449 159.472 230.486 158.974 230.486ZM175.771 230.523C174.126 230.523 172.655 230.312 171.359 229.888C170.063 229.439 168.954 228.791 168.032 227.944C167.135 227.096 166.449 226.05 165.976 224.803C165.502 223.557 165.266 222.124 165.266 220.504C165.266 218.934 165.49 217.488 165.939 216.167C166.412 214.846 167.073 213.712 167.92 212.765C168.792 211.793 169.852 211.046 171.098 210.522C172.369 209.999 173.789 209.737 175.36 209.737C176.955 209.737 178.35 209.999 179.547 210.522C180.768 211.021 181.765 211.768 182.538 212.765C183.335 213.762 183.921 214.984 184.295 216.429C184.669 217.85 184.793 219.482 184.669 221.327L169.228 221.439V218.298L181.229 218.186L179.098 219.644C179.273 218.398 179.198 217.389 178.874 216.616C178.55 215.819 178.076 215.245 177.453 214.896C176.83 214.522 176.157 214.336 175.434 214.336C174.562 214.336 173.789 214.572 173.117 215.046C172.468 215.519 171.958 216.205 171.584 217.102C171.21 217.999 171.023 219.096 171.023 220.392C171.023 222.436 171.459 223.919 172.331 224.841C173.229 225.763 174.363 226.224 175.733 226.224C176.406 226.224 176.967 226.137 177.416 225.962C177.864 225.763 178.226 225.526 178.5 225.252C178.799 224.953 179.023 224.629 179.173 224.28C179.347 223.931 179.484 223.595 179.584 223.271L184.818 224.392C184.619 225.314 184.295 226.149 183.846 226.897C183.422 227.645 182.837 228.293 182.089 228.841C181.366 229.389 180.481 229.801 179.435 230.075C178.413 230.374 177.192 230.523 175.771 230.523ZM188.329 230V220.841V210.261H193.264L193.376 216.953H194.124C194.298 215.208 194.622 213.825 195.096 212.803C195.594 211.756 196.292 210.996 197.189 210.522C198.112 210.049 199.246 209.812 200.592 209.812C200.791 209.812 201.015 209.824 201.264 209.849C201.514 209.849 201.8 209.874 202.124 209.924L201.9 216.354C201.501 216.155 201.065 216.03 200.592 215.981C200.143 215.906 199.744 215.868 199.395 215.868C198.423 215.868 197.576 216.055 196.853 216.429C196.155 216.803 195.594 217.376 195.171 218.149C194.772 218.921 194.51 219.894 194.386 221.065V230H188.329ZM205.014 230V218.111V210.261H209.874L209.949 216.055H210.696C211.02 214.66 211.481 213.488 212.08 212.541C212.678 211.594 213.438 210.896 214.36 210.447C215.282 209.974 216.366 209.737 217.613 209.737C219.931 209.737 221.688 210.547 222.884 212.167C224.105 213.787 224.716 216.367 224.716 219.906V230H218.659V220.579C218.659 218.535 218.36 217.052 217.762 216.13C217.189 215.183 216.329 214.709 215.183 214.709C214.235 214.709 213.45 214.996 212.827 215.569C212.229 216.143 211.781 216.903 211.481 217.85C211.182 218.797 211.033 219.856 211.033 221.028V230H205.014ZM238.42 230.523C236.776 230.523 235.305 230.312 234.009 229.888C232.713 229.439 231.604 228.791 230.682 227.944C229.784 227.096 229.099 226.05 228.626 224.803C228.152 223.557 227.915 222.124 227.915 220.504C227.915 218.934 228.139 217.488 228.588 216.167C229.062 214.846 229.722 213.712 230.57 212.765C231.442 211.793 232.501 211.046 233.747 210.522C235.018 209.999 236.439 209.737 238.009 209.737C239.604 209.737 241 209.999 242.196 210.522C243.418 211.021 244.415 211.768 245.187 212.765C245.985 213.762 246.57 214.984 246.944 216.429C247.318 217.85 247.443 219.482 247.318 221.327L231.878 221.439V218.298L243.879 218.186L241.748 219.644C241.922 218.398 241.847 217.389 241.523 216.616C241.199 215.819 240.726 215.245 240.103 214.896C239.48 214.522 238.807 214.336 238.084 214.336C237.212 214.336 236.439 214.572 235.766 215.046C235.118 215.519 234.607 216.205 234.233 217.102C233.859 217.999 233.673 219.096 233.673 220.392C233.673 222.436 234.109 223.919 234.981 224.841C235.878 225.763 237.012 226.224 238.383 226.224C239.056 226.224 239.617 226.137 240.065 225.962C240.514 225.763 240.875 225.526 241.15 225.252C241.449 224.953 241.673 224.629 241.823 224.28C241.997 223.931 242.134 223.595 242.234 223.271L247.468 224.392C247.268 225.314 246.944 226.149 246.496 226.897C246.072 227.645 245.486 228.293 244.739 228.841C244.016 229.389 243.131 229.801 242.084 230.075C241.062 230.374 239.841 230.523 238.42 230.523ZM258.68 230.486C256.362 230.486 254.655 229.875 253.558 228.654C252.462 227.408 251.913 225.427 251.913 222.71V214.971H249.109L249.222 210.298H251.24C252.038 210.273 252.636 210.148 253.035 209.924C253.459 209.7 253.72 209.276 253.82 208.653L254.306 205.886H257.708V210.261H262.456V215.158H257.708V222.448C257.708 223.296 257.907 223.919 258.306 224.317C258.73 224.716 259.365 224.916 260.213 224.916C260.686 224.916 261.135 224.866 261.559 224.766C261.982 224.666 262.331 224.529 262.606 224.355V229.925C261.808 230.174 261.073 230.324 260.4 230.374C259.752 230.449 259.179 230.486 258.68 230.486Z" fill="#FAEDC1"/>
</svg>
