<svg width="675" height="421" viewBox="0 0 675 421" fill="none" xmlns="http://www.w3.org/2000/svg">
<g style="mix-blend-mode:soft-light">
<mask id="path-1-inside-1_434_38" fill="white">
<path fill-rule="evenodd" clip-rule="evenodd" d="M614.86 0C633.085 0 647.86 14.7746 647.86 33V159.914C647.88 160.346 647.89 160.782 647.89 161.223V169.813C647.89 175.222 649.439 180.282 652.029 183.333L669.532 203.952C670.876 205.15 671.985 206.877 672.821 208.918C674.071 211.815 674.641 215.2 674.623 218.552C674.641 221.904 674.071 225.289 672.821 228.186C671.985 230.227 670.876 231.954 669.532 233.151L652.029 253.77C649.439 256.822 647.89 261.881 647.89 267.29V275.881C647.89 276.321 647.88 276.758 647.86 277.189V388C647.86 406.225 633.085 421 614.86 421H33.3975C15.1722 421 0.397522 406.225 0.397522 388V33C0.397522 14.7746 15.1721 0 33.3975 0H614.86Z"/>
</mask>
<path d="M647.86 159.914L645.862 160.006L645.86 159.96V159.914H647.86ZM652.029 183.333L650.504 184.628L650.504 184.628L652.029 183.333ZM669.532 203.952L668.201 205.446L668.097 205.353L668.007 205.247L669.532 203.952ZM672.821 208.918L670.985 209.71L670.977 209.693L670.97 209.676L672.821 208.918ZM674.623 218.552L672.623 218.563L672.623 218.552L672.623 218.541L674.623 218.552ZM672.821 228.186L670.97 227.428L670.977 227.411L670.985 227.394L672.821 228.186ZM669.532 233.151L668.007 231.857L668.097 231.751L668.201 231.658L669.532 233.151ZM652.029 253.77L650.504 252.476L650.504 252.476L652.029 253.77ZM647.86 277.189H645.86V277.144L645.862 277.098L647.86 277.189ZM645.86 33C645.86 15.8792 631.981 2 614.86 2V-2C634.19 -2 649.86 13.67 649.86 33H645.86ZM645.86 159.914V33H649.86V159.914H645.86ZM649.858 159.823C649.879 160.285 649.89 160.752 649.89 161.223H645.89C645.89 160.813 645.88 160.407 645.862 160.006L649.858 159.823ZM649.89 161.223V169.813H645.89V161.223H649.89ZM649.89 169.813C649.89 174.915 651.363 179.459 653.553 182.039L650.504 184.628C647.514 181.105 645.89 175.529 645.89 169.813H649.89ZM653.553 182.039L671.057 202.658L668.007 205.247L650.504 184.628L653.553 182.039ZM670.863 202.459C672.498 203.917 673.759 205.931 674.672 208.159L670.97 209.676C670.211 207.823 669.253 206.383 668.201 205.446L670.863 202.459ZM674.657 208.125C676.038 211.325 676.642 214.994 676.623 218.563L672.623 218.541C672.639 215.405 672.104 212.304 670.985 209.71L674.657 208.125ZM676.623 218.541C676.642 222.11 676.038 225.778 674.657 228.978L670.985 227.394C672.104 224.8 672.639 221.698 672.623 218.563L676.623 218.541ZM674.672 228.944C673.759 231.173 672.498 233.187 670.863 234.644L668.201 231.658C669.253 230.721 670.211 229.281 670.97 227.428L674.672 228.944ZM671.057 234.446L653.553 255.065L650.504 252.476L668.007 231.857L671.057 234.446ZM653.553 255.065C651.363 257.645 649.89 262.188 649.89 267.29H645.89C645.89 261.575 647.514 255.999 650.504 252.476L653.553 255.065ZM649.89 267.29V275.881H645.89V267.29H649.89ZM649.89 275.881C649.89 276.352 649.879 276.819 649.858 277.281L645.862 277.098C645.88 276.697 645.89 276.291 645.89 275.881H649.89ZM645.86 388V277.189H649.86V388H645.86ZM614.86 419C631.981 419 645.86 405.121 645.86 388H649.86C649.86 407.33 634.19 423 614.86 423V419ZM33.3975 419H614.86V423H33.3975V419ZM2.39752 388C2.39752 405.121 16.2767 419 33.3975 419V423C14.0676 423 -1.60248 407.33 -1.60248 388H2.39752ZM2.39752 33V388H-1.60248V33H2.39752ZM33.3975 2C16.2767 2 2.39752 15.8792 2.39752 33H-1.60248C-1.60248 13.67 14.0676 -2 33.3975 -2V2ZM614.86 2H33.3975V-2H614.86V2Z" fill="#FFFFDC" mask="url(#path-1-inside-1_434_38)"/>
</g>
<path d="M112.293 121.63C110.373 121.63 108.633 121.45 107.073 121.09C105.513 120.73 104.163 120.19 103.023 119.47C101.883 118.72 100.983 117.775 100.323 116.635C99.6627 115.495 99.2727 114.175 99.1527 112.675L105.498 110.56C105.588 111.82 105.948 112.87 106.578 113.71C107.208 114.55 108.048 115.18 109.098 115.6C110.178 115.99 111.378 116.185 112.698 116.185C113.958 116.185 115.008 116.035 115.848 115.735C116.718 115.405 117.363 115 117.783 114.52C118.233 114.01 118.458 113.47 118.458 112.9C118.458 112.24 118.173 111.7 117.603 111.28C117.033 110.83 116.253 110.455 115.263 110.155C114.273 109.825 113.118 109.51 111.798 109.21C110.298 108.85 108.828 108.46 107.388 108.04C105.948 107.62 104.643 107.08 103.473 106.42C102.303 105.73 101.373 104.86 100.683 103.81C100.023 102.73 99.6927 101.38 99.6927 99.76C99.6927 97.93 100.158 96.34 101.088 94.99C102.018 93.64 103.383 92.59 105.183 91.84C106.983 91.06 109.203 90.67 111.843 90.67C114.453 90.67 116.673 91.045 118.503 91.795C120.333 92.545 121.743 93.595 122.733 94.945C123.723 96.265 124.263 97.81 124.353 99.58L117.873 101.425C117.873 100.555 117.723 99.79 117.423 99.13C117.153 98.47 116.763 97.93 116.253 97.51C115.743 97.06 115.113 96.73 114.363 96.52C113.613 96.28 112.758 96.16 111.798 96.16C110.658 96.16 109.683 96.295 108.873 96.565C108.093 96.835 107.508 97.195 107.118 97.645C106.728 98.065 106.533 98.56 106.533 99.13C106.533 99.85 106.833 100.45 107.433 100.93C108.063 101.38 108.903 101.77 109.953 102.1C111.033 102.4 112.218 102.7 113.508 103C114.798 103.27 116.133 103.615 117.513 104.035C118.893 104.425 120.183 104.95 121.383 105.61C122.583 106.27 123.543 107.17 124.263 108.31C125.013 109.42 125.388 110.83 125.388 112.54C125.388 114.37 124.893 115.975 123.903 117.355C122.943 118.705 121.488 119.755 119.538 120.505C117.588 121.255 115.173 121.63 112.293 121.63ZM129.807 121V97.24H137.052V121H129.807ZM133.452 93.91C132.072 93.91 131.007 93.625 130.257 93.055C129.537 92.455 129.177 91.615 129.177 90.535C129.177 89.395 129.537 88.54 130.257 87.97C131.007 87.37 132.072 87.07 133.452 87.07C134.862 87.07 135.927 87.37 136.647 87.97C137.397 88.54 137.772 89.38 137.772 90.49C137.772 91.6 137.397 92.455 136.647 93.055C135.927 93.625 134.862 93.91 133.452 93.91ZM152.268 129.325C149.628 129.325 147.453 129.115 145.743 128.695C144.063 128.305 142.833 127.705 142.053 126.895C141.273 126.115 140.883 125.155 140.883 124.015C140.883 122.635 141.423 121.51 142.503 120.64C143.613 119.77 145.233 119.275 147.363 119.155V118.21C145.713 118.21 144.438 118.045 143.538 117.715C142.668 117.385 142.233 116.77 142.233 115.87C142.233 115.03 142.668 114.265 143.538 113.575C144.408 112.885 145.848 112.345 147.858 111.955V111.01C146.028 110.86 144.573 110.26 143.493 109.21C142.413 108.13 141.873 106.72 141.873 104.98C141.873 103.51 142.293 102.175 143.133 100.975C143.973 99.745 145.233 98.77 146.913 98.05C148.593 97.3 150.693 96.925 153.213 96.925H165.543V102.37L158.028 101.38V102.46C159.978 102.73 161.373 103.18 162.213 103.81C163.053 104.44 163.473 105.325 163.473 106.465C163.473 107.665 163.053 108.73 162.213 109.66C161.403 110.59 160.248 111.325 158.748 111.865C157.248 112.375 155.463 112.63 153.393 112.63C153.033 112.63 152.628 112.615 152.178 112.585C151.758 112.555 150.963 112.48 149.793 112.36C149.313 112.78 148.938 113.14 148.668 113.44C148.398 113.71 148.263 113.965 148.263 114.205C148.263 114.385 148.338 114.535 148.488 114.655C148.638 114.775 148.848 114.865 149.118 114.925C149.418 114.955 149.733 114.97 150.063 114.97H157.308C157.908 114.97 158.688 115.015 159.648 115.105C160.638 115.165 161.613 115.39 162.573 115.78C163.563 116.17 164.388 116.8 165.048 117.67C165.738 118.54 166.083 119.785 166.083 121.405C166.083 123.175 165.588 124.645 164.598 125.815C163.608 127.015 162.093 127.9 160.053 128.47C158.013 129.04 155.418 129.325 152.268 129.325ZM153.213 123.565C154.953 123.565 156.303 123.475 157.263 123.295C158.223 123.115 158.883 122.83 159.243 122.44C159.633 122.05 159.828 121.57 159.828 121C159.828 120.46 159.723 120.04 159.513 119.74C159.303 119.41 159.033 119.185 158.703 119.065C158.373 118.945 158.028 118.87 157.668 118.84C157.338 118.81 157.053 118.795 156.813 118.795H151.008C149.898 118.795 149.073 119.065 148.533 119.605C148.023 120.115 147.768 120.715 147.768 121.405C147.768 121.975 147.948 122.41 148.308 122.71C148.668 123.04 149.238 123.265 150.018 123.385C150.828 123.505 151.893 123.565 153.213 123.565ZM152.898 109.03C154.188 109.03 155.148 108.685 155.778 107.995C156.438 107.305 156.768 106.435 156.768 105.385C156.768 104.245 156.438 103.315 155.778 102.595C155.118 101.845 154.173 101.47 152.943 101.47C151.713 101.47 150.753 101.845 150.063 102.595C149.373 103.315 149.028 104.245 149.028 105.385C149.028 106.075 149.178 106.705 149.478 107.275C149.778 107.815 150.213 108.25 150.783 108.58C151.353 108.88 152.058 109.03 152.898 109.03ZM178.162 121.63C175.342 121.63 173.212 120.685 171.772 118.795C170.362 116.875 169.657 113.965 169.657 110.065V97.24H176.947V109.12C176.947 111.34 177.277 113.005 177.937 114.115C178.597 115.195 179.602 115.735 180.952 115.735C181.762 115.735 182.452 115.54 183.022 115.15C183.622 114.73 184.117 114.16 184.507 113.44C184.927 112.69 185.227 111.835 185.407 110.875C185.617 109.915 185.722 108.865 185.722 107.725V97.24H192.967V111.37V121H187.207L187.072 113.665H186.172C185.722 115.525 185.152 117.055 184.462 118.255C183.802 119.425 182.962 120.28 181.942 120.82C180.922 121.36 179.662 121.63 178.162 121.63ZM209.832 121.63C207.852 121.63 206.082 121.375 204.522 120.865C202.962 120.325 201.627 119.545 200.517 118.525C199.437 117.505 198.612 116.245 198.042 114.745C197.472 113.245 197.187 111.52 197.187 109.57C197.187 107.68 197.457 105.94 197.997 104.35C198.567 102.76 199.362 101.395 200.382 100.255C201.432 99.085 202.707 98.185 204.207 97.555C205.737 96.925 207.447 96.61 209.337 96.61C211.257 96.61 212.937 96.925 214.377 97.555C215.847 98.155 217.047 99.055 217.977 100.255C218.937 101.455 219.642 102.925 220.092 104.665C220.542 106.375 220.692 108.34 220.542 110.56L201.957 110.695V106.915L216.402 106.78L213.837 108.535C214.047 107.035 213.957 105.82 213.567 104.89C213.177 103.93 212.607 103.24 211.857 102.82C211.107 102.37 210.297 102.145 209.427 102.145C208.377 102.145 207.447 102.43 206.637 103C205.857 103.57 205.242 104.395 204.792 105.475C204.342 106.555 204.117 107.875 204.117 109.435C204.117 111.895 204.642 113.68 205.692 114.79C206.772 115.9 208.137 116.455 209.787 116.455C210.597 116.455 211.272 116.35 211.812 116.14C212.352 115.9 212.787 115.615 213.117 115.285C213.477 114.925 213.747 114.535 213.927 114.115C214.137 113.695 214.302 113.29 214.422 112.9L220.722 114.25C220.482 115.36 220.092 116.365 219.552 117.265C219.042 118.165 218.337 118.945 217.437 119.605C216.567 120.265 215.502 120.76 214.242 121.09C213.012 121.45 211.542 121.63 209.832 121.63ZM234.968 121V88.6H242.078V121H234.968ZM259.007 121.63C257.027 121.63 255.257 121.375 253.697 120.865C252.137 120.325 250.802 119.545 249.692 118.525C248.612 117.505 247.787 116.245 247.217 114.745C246.647 113.245 246.362 111.52 246.362 109.57C246.362 107.68 246.632 105.94 247.172 104.35C247.742 102.76 248.537 101.395 249.557 100.255C250.607 99.085 251.882 98.185 253.382 97.555C254.912 96.925 256.622 96.61 258.512 96.61C260.432 96.61 262.112 96.925 263.552 97.555C265.022 98.155 266.222 99.055 267.152 100.255C268.112 101.455 268.817 102.925 269.267 104.665C269.717 106.375 269.867 108.34 269.717 110.56L251.132 110.695V106.915L265.577 106.78L263.012 108.535C263.222 107.035 263.132 105.82 262.742 104.89C262.352 103.93 261.782 103.24 261.032 102.82C260.282 102.37 259.472 102.145 258.602 102.145C257.552 102.145 256.622 102.43 255.812 103C255.032 103.57 254.417 104.395 253.967 105.475C253.517 106.555 253.292 107.875 253.292 109.435C253.292 111.895 253.817 113.68 254.867 114.79C255.947 115.9 257.312 116.455 258.962 116.455C259.772 116.455 260.447 116.35 260.987 116.14C261.527 115.9 261.962 115.615 262.292 115.285C262.652 114.925 262.922 114.535 263.102 114.115C263.312 113.695 263.477 113.29 263.597 112.9L269.897 114.25C269.657 115.36 269.267 116.365 268.727 117.265C268.217 118.165 267.512 118.945 266.612 119.605C265.742 120.265 264.677 120.76 263.417 121.09C262.187 121.45 260.717 121.63 259.007 121.63ZM283.258 129.28C282.058 129.28 280.828 129.175 279.568 128.965C278.308 128.755 277.108 128.44 275.968 128.02C274.858 127.63 273.898 127.105 273.088 126.445L274.843 120.01C275.893 121 277.153 121.735 278.623 122.215C280.123 122.695 281.563 122.935 282.943 122.935C284.533 122.935 285.838 122.62 286.858 121.99C287.908 121.39 288.703 120.46 289.243 119.2C289.813 117.91 290.143 116.32 290.233 114.43L290.458 110.515H289.378C289.108 112.465 288.628 114.055 287.938 115.285C287.278 116.515 286.423 117.43 285.373 118.03C284.353 118.6 283.138 118.885 281.728 118.885C279.988 118.885 278.533 118.45 277.363 117.58C276.193 116.71 275.308 115.405 274.708 113.665C274.138 111.895 273.853 109.705 273.853 107.095V97.24H281.143V105.295C281.143 108.055 281.413 110.035 281.953 111.235C282.523 112.405 283.408 112.99 284.608 112.99C285.238 112.99 285.808 112.81 286.318 112.45C286.828 112.09 287.263 111.58 287.623 110.92C287.983 110.26 288.253 109.465 288.433 108.535C288.643 107.575 288.748 106.51 288.748 105.34V97.24H295.993V114.7C295.993 116.59 295.813 118.315 295.453 119.875C295.123 121.435 294.613 122.8 293.923 123.97C293.263 125.14 292.423 126.115 291.403 126.895C290.383 127.705 289.198 128.305 287.848 128.695C286.498 129.085 284.968 129.28 283.258 129.28ZM312.796 121.63C310.816 121.63 309.046 121.375 307.486 120.865C305.926 120.325 304.591 119.545 303.481 118.525C302.401 117.505 301.576 116.245 301.006 114.745C300.436 113.245 300.151 111.52 300.151 109.57C300.151 107.68 300.421 105.94 300.961 104.35C301.531 102.76 302.326 101.395 303.346 100.255C304.396 99.085 305.671 98.185 307.171 97.555C308.701 96.925 310.411 96.61 312.301 96.61C314.221 96.61 315.901 96.925 317.341 97.555C318.811 98.155 320.011 99.055 320.941 100.255C321.901 101.455 322.606 102.925 323.056 104.665C323.506 106.375 323.656 108.34 323.506 110.56L304.921 110.695V106.915L319.366 106.78L316.801 108.535C317.011 107.035 316.921 105.82 316.531 104.89C316.141 103.93 315.571 103.24 314.821 102.82C314.071 102.37 313.261 102.145 312.391 102.145C311.341 102.145 310.411 102.43 309.601 103C308.821 103.57 308.206 104.395 307.756 105.475C307.306 106.555 307.081 107.875 307.081 109.435C307.081 111.895 307.606 113.68 308.656 114.79C309.736 115.9 311.101 116.455 312.751 116.455C313.561 116.455 314.236 116.35 314.776 116.14C315.316 115.9 315.751 115.615 316.081 115.285C316.441 114.925 316.711 114.535 316.891 114.115C317.101 113.695 317.266 113.29 317.386 112.9L323.686 114.25C323.446 115.36 323.056 116.365 322.516 117.265C322.006 118.165 321.301 118.945 320.401 119.605C319.531 120.265 318.466 120.76 317.206 121.09C315.976 121.45 314.506 121.63 312.796 121.63ZM327.912 121V106.69V97.24H333.762L333.852 104.215H334.752C335.142 102.535 335.697 101.125 336.417 99.985C337.137 98.845 338.052 98.005 339.162 97.465C340.272 96.895 341.577 96.61 343.077 96.61C345.867 96.61 347.982 97.585 349.422 99.535C350.892 101.485 351.627 104.59 351.627 108.85V121H344.337V109.66C344.337 107.2 343.977 105.415 343.257 104.305C342.567 103.165 341.532 102.595 340.152 102.595C339.012 102.595 338.067 102.94 337.317 103.63C336.597 104.32 336.057 105.235 335.697 106.375C335.337 107.515 335.157 108.79 335.157 110.2V121H327.912ZM365.513 121.63C363.533 121.63 361.793 121.135 360.293 120.145C358.823 119.125 357.668 117.685 356.828 115.825C355.988 113.935 355.568 111.685 355.568 109.075C355.568 106.675 355.928 104.545 356.648 102.685C357.368 100.825 358.433 99.37 359.843 98.32C361.283 97.24 363.053 96.7 365.153 96.7C366.653 96.7 367.913 96.97 368.933 97.51C369.983 98.05 370.853 98.86 371.543 99.94C372.233 101.02 372.788 102.385 373.208 104.035H374.333C374.123 103.015 373.928 102.055 373.748 101.155C373.568 100.225 373.418 99.37 373.298 98.59C373.208 97.78 373.163 97.075 373.163 96.475V88.6H380.453V109.39V121H374.513L374.423 113.98H373.433C373.103 115.78 372.578 117.25 371.858 118.39C371.168 119.5 370.283 120.325 369.203 120.865C368.153 121.375 366.923 121.63 365.513 121.63ZM368.123 115.78C369.053 115.78 369.833 115.585 370.463 115.195C371.123 114.775 371.648 114.25 372.038 113.62C372.428 112.99 372.713 112.315 372.893 111.595C373.073 110.875 373.163 110.2 373.163 109.57V108.625C373.163 108.055 373.088 107.485 372.938 106.915C372.788 106.345 372.563 105.79 372.263 105.25C371.993 104.71 371.648 104.23 371.228 103.81C370.808 103.39 370.313 103.06 369.743 102.82C369.203 102.58 368.603 102.46 367.943 102.46C366.953 102.46 366.098 102.73 365.378 103.27C364.688 103.81 364.148 104.575 363.758 105.565C363.398 106.555 363.218 107.725 363.218 109.075C363.218 110.425 363.413 111.61 363.803 112.63C364.193 113.62 364.763 114.4 365.513 114.97C366.263 115.51 367.133 115.78 368.123 115.78ZM396.987 121.63C394.587 121.63 392.457 121.165 390.597 120.235C388.767 119.305 387.327 117.91 386.277 116.05C385.227 114.19 384.702 111.865 384.702 109.075C384.702 106.285 385.227 103.975 386.277 102.145C387.327 100.285 388.782 98.905 390.642 98.005C392.502 97.075 394.632 96.61 397.032 96.61C399.432 96.61 401.562 97.075 403.422 98.005C405.282 98.935 406.737 100.33 407.787 102.19C408.837 104.02 409.362 106.33 409.362 109.12C409.362 111.97 408.822 114.325 407.742 116.185C406.662 118.045 405.177 119.425 403.287 120.325C401.427 121.195 399.327 121.63 396.987 121.63ZM397.212 116.365C398.292 116.365 399.192 116.125 399.912 115.645C400.632 115.135 401.172 114.37 401.532 113.35C401.892 112.33 402.072 111.07 402.072 109.57C402.072 107.98 401.877 106.645 401.487 105.565C401.097 104.455 400.512 103.615 399.732 103.045C398.982 102.445 398.007 102.145 396.807 102.145C395.787 102.145 394.902 102.4 394.152 102.91C393.432 103.39 392.892 104.14 392.532 105.16C392.172 106.18 391.992 107.455 391.992 108.985C391.992 111.445 392.442 113.29 393.342 114.52C394.272 115.75 395.562 116.365 397.212 116.365ZM423.625 128.605V109.39V97.24H429.565L429.655 103.99L430.465 104.08C430.735 102.4 431.215 101.005 431.905 99.895C432.595 98.785 433.48 97.96 434.56 97.42C435.67 96.88 436.93 96.61 438.34 96.61C440.44 96.61 442.24 97.12 443.74 98.14C445.27 99.16 446.44 100.615 447.25 102.505C448.06 104.395 448.465 106.66 448.465 109.3C448.465 111.64 448.105 113.74 447.385 115.6C446.695 117.46 445.63 118.93 444.19 120.01C442.78 121.09 440.98 121.63 438.79 121.63C437.32 121.63 436.075 121.375 435.055 120.865C434.035 120.325 433.165 119.545 432.445 118.525C431.755 117.505 431.17 116.23 430.69 114.7H429.835C430.015 115.51 430.18 116.335 430.33 117.175C430.48 118.015 430.6 118.825 430.69 119.605C430.81 120.385 430.87 121.135 430.87 121.855V128.605H423.625ZM436.135 115.915C437.125 115.915 437.965 115.645 438.655 115.105C439.375 114.565 439.93 113.8 440.32 112.81C440.71 111.82 440.905 110.665 440.905 109.345C440.905 107.935 440.695 106.735 440.275 105.745C439.885 104.725 439.315 103.945 438.565 103.405C437.815 102.835 436.945 102.55 435.955 102.55C435.025 102.55 434.23 102.76 433.57 103.18C432.94 103.57 432.415 104.095 431.995 104.755C431.605 105.385 431.32 106.06 431.14 106.78C430.96 107.5 430.87 108.175 430.87 108.805V109.795C430.87 110.365 430.945 110.935 431.095 111.505C431.245 112.075 431.47 112.63 431.77 113.17C432.07 113.68 432.43 114.145 432.85 114.565C433.27 114.985 433.75 115.315 434.29 115.555C434.86 115.795 435.475 115.915 436.135 115.915ZM458.385 121.63C457.065 121.63 455.895 121.375 454.875 120.865C453.855 120.325 453.06 119.56 452.49 118.57C451.92 117.55 451.635 116.32 451.635 114.88C451.635 113.53 451.89 112.42 452.4 111.55C452.94 110.65 453.705 109.945 454.695 109.435C455.715 108.895 456.93 108.46 458.34 108.13C459.75 107.77 461.355 107.455 463.155 107.185C464.025 107.035 464.745 106.9 465.315 106.78C465.915 106.63 466.365 106.405 466.665 106.105C466.965 105.805 467.115 105.37 467.115 104.8C467.115 104.05 466.845 103.405 466.305 102.865C465.765 102.325 464.895 102.055 463.695 102.055C462.855 102.055 462.09 102.205 461.4 102.505C460.74 102.805 460.17 103.24 459.69 103.81C459.21 104.38 458.85 105.07 458.61 105.88L452.22 103.99C452.61 102.73 453.15 101.635 453.84 100.705C454.56 99.775 455.415 99.01 456.405 98.41C457.395 97.78 458.52 97.33 459.78 97.06C461.07 96.76 462.435 96.61 463.875 96.61C466.275 96.61 468.225 97 469.725 97.78C471.255 98.53 472.38 99.715 473.1 101.335C473.85 102.925 474.225 104.98 474.225 107.5V111.145C474.225 112.225 474.24 113.32 474.27 114.43C474.33 115.51 474.39 116.605 474.45 117.715C474.54 118.795 474.645 119.89 474.765 121H468.375C468.255 120.31 468.135 119.485 468.015 118.525C467.895 117.535 467.805 116.53 467.745 115.51H466.89C466.47 116.65 465.855 117.7 465.045 118.66C464.265 119.59 463.305 120.325 462.165 120.865C461.055 121.375 459.795 121.63 458.385 121.63ZM461.67 116.5C462.21 116.5 462.75 116.41 463.29 116.23C463.86 116.02 464.4 115.75 464.91 115.42C465.42 115.06 465.885 114.625 466.305 114.115C466.725 113.605 467.04 113.05 467.25 112.45L467.16 108.895L468.15 109.12C467.58 109.48 466.95 109.765 466.26 109.975C465.57 110.185 464.865 110.35 464.145 110.47C463.455 110.59 462.765 110.725 462.075 110.875C461.415 110.995 460.815 111.16 460.275 111.37C459.765 111.58 459.36 111.865 459.06 112.225C458.76 112.585 458.61 113.08 458.61 113.71C458.61 114.55 458.895 115.225 459.465 115.735C460.035 116.245 460.77 116.5 461.67 116.5ZM479.568 121V109.975V97.24H485.508L485.643 105.295H486.543C486.753 103.195 487.143 101.53 487.713 100.3C488.313 99.04 489.153 98.125 490.233 97.555C491.343 96.985 492.708 96.7 494.328 96.7C494.568 96.7 494.838 96.715 495.138 96.745C495.438 96.745 495.783 96.775 496.173 96.835L495.903 104.575C495.423 104.335 494.898 104.185 494.328 104.125C493.788 104.035 493.308 103.99 492.888 103.99C491.718 103.99 490.698 104.215 489.828 104.665C488.988 105.115 488.313 105.805 487.803 106.735C487.323 107.665 487.008 108.835 486.858 110.245V121H479.568ZM504.879 121.63C503.559 121.63 502.389 121.375 501.369 120.865C500.349 120.325 499.554 119.56 498.984 118.57C498.414 117.55 498.129 116.32 498.129 114.88C498.129 113.53 498.384 112.42 498.894 111.55C499.434 110.65 500.199 109.945 501.189 109.435C502.209 108.895 503.424 108.46 504.834 108.13C506.244 107.77 507.849 107.455 509.649 107.185C510.519 107.035 511.239 106.9 511.809 106.78C512.409 106.63 512.859 106.405 513.159 106.105C513.459 105.805 513.609 105.37 513.609 104.8C513.609 104.05 513.339 103.405 512.799 102.865C512.259 102.325 511.389 102.055 510.189 102.055C509.349 102.055 508.584 102.205 507.894 102.505C507.234 102.805 506.664 103.24 506.184 103.81C505.704 104.38 505.344 105.07 505.104 105.88L498.714 103.99C499.104 102.73 499.644 101.635 500.334 100.705C501.054 99.775 501.909 99.01 502.899 98.41C503.889 97.78 505.014 97.33 506.274 97.06C507.564 96.76 508.929 96.61 510.369 96.61C512.769 96.61 514.719 97 516.219 97.78C517.749 98.53 518.874 99.715 519.594 101.335C520.344 102.925 520.719 104.98 520.719 107.5V111.145C520.719 112.225 520.734 113.32 520.764 114.43C520.824 115.51 520.884 116.605 520.944 117.715C521.034 118.795 521.139 119.89 521.259 121H514.869C514.749 120.31 514.629 119.485 514.509 118.525C514.389 117.535 514.299 116.53 514.239 115.51H513.384C512.964 116.65 512.349 117.7 511.539 118.66C510.759 119.59 509.799 120.325 508.659 120.865C507.549 121.375 506.289 121.63 504.879 121.63ZM508.164 116.5C508.704 116.5 509.244 116.41 509.784 116.23C510.354 116.02 510.894 115.75 511.404 115.42C511.914 115.06 512.379 114.625 512.799 114.115C513.219 113.605 513.534 113.05 513.744 112.45L513.654 108.895L514.644 109.12C514.074 109.48 513.444 109.765 512.754 109.975C512.064 110.185 511.359 110.35 510.639 110.47C509.949 110.59 509.259 110.725 508.569 110.875C507.909 110.995 507.309 111.16 506.769 111.37C506.259 111.58 505.854 111.865 505.554 112.225C505.254 112.585 505.104 113.08 505.104 113.71C505.104 114.55 505.389 115.225 505.959 115.735C506.529 116.245 507.264 116.5 508.164 116.5ZM108.873 176.63C106.893 176.63 105.153 176.135 103.653 175.145C102.183 174.125 101.028 172.685 100.188 170.825C99.3477 168.935 98.9277 166.685 98.9277 164.075C98.9277 161.675 99.2877 159.545 100.008 157.685C100.728 155.825 101.793 154.37 103.203 153.32C104.643 152.24 106.413 151.7 108.513 151.7C110.013 151.7 111.273 151.97 112.293 152.51C113.343 153.05 114.213 153.86 114.903 154.94C115.593 156.02 116.148 157.385 116.568 159.035H117.693C117.483 158.015 117.288 157.055 117.108 156.155C116.928 155.225 116.778 154.37 116.658 153.59C116.568 152.78 116.523 152.075 116.523 151.475V143.6H123.813V164.39V176H117.873L117.783 168.98H116.793C116.463 170.78 115.938 172.25 115.218 173.39C114.528 174.5 113.643 175.325 112.563 175.865C111.513 176.375 110.283 176.63 108.873 176.63ZM111.483 170.78C112.413 170.78 113.193 170.585 113.823 170.195C114.483 169.775 115.008 169.25 115.398 168.62C115.788 167.99 116.073 167.315 116.253 166.595C116.433 165.875 116.523 165.2 116.523 164.57V163.625C116.523 163.055 116.448 162.485 116.298 161.915C116.148 161.345 115.923 160.79 115.623 160.25C115.353 159.71 115.008 159.23 114.588 158.81C114.168 158.39 113.673 158.06 113.103 157.82C112.563 157.58 111.963 157.46 111.303 157.46C110.313 157.46 109.458 157.73 108.738 158.27C108.048 158.81 107.508 159.575 107.118 160.565C106.758 161.555 106.578 162.725 106.578 164.075C106.578 165.425 106.773 166.61 107.163 167.63C107.553 168.62 108.123 169.4 108.873 169.97C109.623 170.51 110.493 170.78 111.483 170.78ZM140.706 176.63C138.726 176.63 136.956 176.375 135.396 175.865C133.836 175.325 132.501 174.545 131.391 173.525C130.311 172.505 129.486 171.245 128.916 169.745C128.346 168.245 128.061 166.52 128.061 164.57C128.061 162.68 128.331 160.94 128.871 159.35C129.441 157.76 130.236 156.395 131.256 155.255C132.306 154.085 133.581 153.185 135.081 152.555C136.611 151.925 138.321 151.61 140.211 151.61C142.131 151.61 143.811 151.925 145.251 152.555C146.721 153.155 147.921 154.055 148.851 155.255C149.811 156.455 150.516 157.925 150.966 159.665C151.416 161.375 151.566 163.34 151.416 165.56L132.831 165.695V161.915L147.276 161.78L144.711 163.535C144.921 162.035 144.831 160.82 144.441 159.89C144.051 158.93 143.481 158.24 142.731 157.82C141.981 157.37 141.171 157.145 140.301 157.145C139.251 157.145 138.321 157.43 137.511 158C136.731 158.57 136.116 159.395 135.666 160.475C135.216 161.555 134.991 162.875 134.991 164.435C134.991 166.895 135.516 168.68 136.566 169.79C137.646 170.9 139.011 171.455 140.661 171.455C141.471 171.455 142.146 171.35 142.686 171.14C143.226 170.9 143.661 170.615 143.991 170.285C144.351 169.925 144.621 169.535 144.801 169.115C145.011 168.695 145.176 168.29 145.296 167.9L151.596 169.25C151.356 170.36 150.966 171.365 150.426 172.265C149.916 173.165 149.211 173.945 148.311 174.605C147.441 175.265 146.376 175.76 145.116 176.09C143.886 176.45 142.416 176.63 140.706 176.63ZM165.762 176.63C164.172 176.63 162.732 176.48 161.442 176.18C160.152 175.91 159.027 175.505 158.067 174.965C157.107 174.425 156.312 173.78 155.682 173.03C155.082 172.25 154.662 171.395 154.422 170.465L159.822 168.08C160.032 168.59 160.392 169.115 160.902 169.655C161.442 170.165 162.147 170.585 163.017 170.915C163.917 171.245 164.997 171.41 166.257 171.41C167.457 171.41 168.387 171.245 169.047 170.915C169.737 170.555 170.082 170.045 170.082 169.385C170.082 168.905 169.887 168.53 169.497 168.26C169.137 167.96 168.582 167.705 167.832 167.495C167.082 167.255 166.152 167.03 165.042 166.82C163.902 166.58 162.747 166.31 161.577 166.01C160.407 165.68 159.312 165.245 158.292 164.705C157.272 164.135 156.447 163.4 155.817 162.5C155.217 161.57 154.917 160.4 154.917 158.99C154.917 157.52 155.307 156.245 156.087 155.165C156.867 154.055 158.022 153.185 159.552 152.555C161.112 151.925 163.002 151.61 165.222 151.61C167.202 151.61 168.942 151.865 170.442 152.375C171.942 152.885 173.187 153.62 174.177 154.58C175.197 155.51 175.902 156.635 176.292 157.955L170.487 160.025C170.337 159.365 170.022 158.795 169.542 158.315C169.092 157.835 168.507 157.475 167.787 157.235C167.097 156.965 166.272 156.83 165.312 156.83C164.142 156.83 163.227 157.01 162.567 157.37C161.937 157.73 161.622 158.21 161.622 158.81C161.622 159.29 161.832 159.695 162.252 160.025C162.702 160.325 163.332 160.58 164.142 160.79C164.952 161 165.912 161.225 167.022 161.465C168.192 161.705 169.347 161.99 170.487 162.32C171.657 162.62 172.707 163.04 173.637 163.58C174.597 164.09 175.347 164.78 175.887 165.65C176.457 166.49 176.742 167.585 176.742 168.935C176.742 170.525 176.322 171.905 175.482 173.075C174.642 174.215 173.397 175.1 171.747 175.73C170.127 176.33 168.132 176.63 165.762 176.63ZM192.208 176.63C190.168 176.63 188.368 176.345 186.808 175.775C185.248 175.205 183.943 174.395 182.893 173.345C181.843 172.265 181.033 170.975 180.463 169.475C179.923 167.975 179.653 166.295 179.653 164.435C179.653 162.515 179.923 160.775 180.463 159.215C181.033 157.655 181.843 156.305 182.893 155.165C183.943 154.025 185.233 153.155 186.763 152.555C188.293 151.925 190.048 151.61 192.028 151.61C194.008 151.61 195.718 151.925 197.158 152.555C198.598 153.185 199.768 154.07 200.668 155.21C201.598 156.35 202.228 157.67 202.558 159.17L195.853 161.42C195.763 160.43 195.523 159.62 195.133 158.99C194.743 158.36 194.233 157.91 193.603 157.64C193.003 157.34 192.343 157.19 191.623 157.19C190.873 157.19 190.213 157.34 189.643 157.64C189.073 157.94 188.593 158.39 188.203 158.99C187.813 159.59 187.513 160.325 187.303 161.195C187.093 162.035 186.988 163.01 186.988 164.12C186.988 165.71 187.183 167.045 187.573 168.125C187.993 169.175 188.593 169.97 189.373 170.51C190.183 171.05 191.158 171.32 192.298 171.32C193.468 171.32 194.383 171.08 195.043 170.6C195.703 170.12 196.183 169.535 196.483 168.845C196.783 168.125 196.963 167.42 197.023 166.73L203.323 168.125C203.203 169.235 202.903 170.315 202.423 171.365C201.973 172.385 201.298 173.3 200.398 174.11C199.498 174.89 198.373 175.505 197.023 175.955C195.703 176.405 194.098 176.63 192.208 176.63ZM214.856 176.63C212.036 176.63 209.906 175.685 208.466 173.795C207.056 171.875 206.351 168.965 206.351 165.065V152.24H213.641V164.12C213.641 166.34 213.971 168.005 214.631 169.115C215.291 170.195 216.296 170.735 217.646 170.735C218.456 170.735 219.146 170.54 219.716 170.15C220.316 169.73 220.811 169.16 221.201 168.44C221.621 167.69 221.921 166.835 222.101 165.875C222.311 164.915 222.416 163.865 222.416 162.725V152.24H229.661V166.37V176H223.901L223.766 168.665H222.866C222.416 170.525 221.846 172.055 221.156 173.255C220.496 174.425 219.656 175.28 218.636 175.82C217.616 176.36 216.356 176.63 214.856 176.63ZM250.262 176.63C248.762 176.63 247.442 176.345 246.302 175.775C245.192 175.205 244.277 174.35 243.557 173.21C242.867 172.07 242.402 170.66 242.162 168.98H241.307L241.172 176H235.232V164.345V143.6H242.477V151.475C242.477 152.195 242.417 152.96 242.297 153.77C242.207 154.55 242.072 155.375 241.892 156.245C241.742 157.115 241.577 158.045 241.397 159.035H242.432C242.852 157.415 243.407 156.065 244.097 154.985C244.787 153.905 245.642 153.095 246.662 152.555C247.712 151.985 248.942 151.7 250.352 151.7C252.332 151.7 254.042 152.21 255.482 153.23C256.952 154.25 258.092 155.705 258.902 157.595C259.712 159.455 260.117 161.69 260.117 164.3C260.117 166.82 259.712 169.01 258.902 170.87C258.122 172.7 256.997 174.125 255.527 175.145C254.057 176.135 252.302 176.63 250.262 176.63ZM247.562 170.78C248.552 170.78 249.422 170.51 250.172 169.97C250.922 169.4 251.492 168.62 251.882 167.63C252.302 166.61 252.512 165.425 252.512 164.075C252.512 162.695 252.317 161.525 251.927 160.565C251.537 159.575 250.982 158.81 250.262 158.27C249.572 157.73 248.732 157.46 247.742 157.46C247.082 157.46 246.467 157.58 245.897 157.82C245.357 158.06 244.877 158.39 244.457 158.81C244.037 159.23 243.677 159.71 243.377 160.25C243.077 160.76 242.852 161.315 242.702 161.915C242.552 162.485 242.477 163.055 242.477 163.625V164.57C242.477 165.2 242.567 165.875 242.747 166.595C242.927 167.315 243.212 167.99 243.602 168.62C244.022 169.25 244.547 169.775 245.177 170.195C245.837 170.585 246.632 170.78 247.562 170.78ZM264.411 176V164.975V152.24H270.351L270.486 160.295H271.386C271.596 158.195 271.986 156.53 272.556 155.3C273.156 154.04 273.996 153.125 275.076 152.555C276.186 151.985 277.551 151.7 279.171 151.7C279.411 151.7 279.681 151.715 279.981 151.745C280.281 151.745 280.626 151.775 281.016 151.835L280.746 159.575C280.266 159.335 279.741 159.185 279.171 159.125C278.631 159.035 278.151 158.99 277.731 158.99C276.561 158.99 275.541 159.215 274.671 159.665C273.831 160.115 273.156 160.805 272.646 161.735C272.166 162.665 271.851 163.835 271.701 165.245V176H264.411ZM284.494 176V152.24H291.739V176H284.494ZM288.139 148.91C286.759 148.91 285.694 148.625 284.944 148.055C284.224 147.455 283.864 146.615 283.864 145.535C283.864 144.395 284.224 143.54 284.944 142.97C285.694 142.37 286.759 142.07 288.139 142.07C289.549 142.07 290.614 142.37 291.334 142.97C292.084 143.54 292.459 144.38 292.459 145.49C292.459 146.6 292.084 147.455 291.334 148.055C290.614 148.625 289.549 148.91 288.139 148.91ZM297.37 176V164.975V152.24H303.31L303.445 160.295H304.345C304.555 158.195 304.945 156.53 305.515 155.3C306.115 154.04 306.955 153.125 308.035 152.555C309.145 151.985 310.51 151.7 312.13 151.7C312.37 151.7 312.64 151.715 312.94 151.745C313.24 151.745 313.585 151.775 313.975 151.835L313.705 159.575C313.225 159.335 312.7 159.185 312.13 159.125C311.59 159.035 311.11 158.99 310.69 158.99C309.52 158.99 308.5 159.215 307.63 159.665C306.79 160.115 306.115 160.805 305.605 161.735C305.125 162.665 304.81 163.835 304.66 165.245V176H297.37ZM338.678 176.63C336.638 176.63 334.838 176.345 333.278 175.775C331.718 175.205 330.413 174.395 329.363 173.345C328.313 172.265 327.503 170.975 326.933 169.475C326.393 167.975 326.123 166.295 326.123 164.435C326.123 162.515 326.393 160.775 326.933 159.215C327.503 157.655 328.313 156.305 329.363 155.165C330.413 154.025 331.703 153.155 333.233 152.555C334.763 151.925 336.518 151.61 338.498 151.61C340.478 151.61 342.188 151.925 343.628 152.555C345.068 153.185 346.238 154.07 347.138 155.21C348.068 156.35 348.698 157.67 349.028 159.17L342.323 161.42C342.233 160.43 341.993 159.62 341.603 158.99C341.213 158.36 340.703 157.91 340.073 157.64C339.473 157.34 338.813 157.19 338.093 157.19C337.343 157.19 336.683 157.34 336.113 157.64C335.543 157.94 335.063 158.39 334.673 158.99C334.283 159.59 333.983 160.325 333.773 161.195C333.563 162.035 333.458 163.01 333.458 164.12C333.458 165.71 333.653 167.045 334.043 168.125C334.463 169.175 335.063 169.97 335.843 170.51C336.653 171.05 337.628 171.32 338.768 171.32C339.938 171.32 340.853 171.08 341.513 170.6C342.173 170.12 342.653 169.535 342.953 168.845C343.253 168.125 343.433 167.42 343.493 166.73L349.793 168.125C349.673 169.235 349.373 170.315 348.893 171.365C348.443 172.385 347.768 173.3 346.868 174.11C345.968 174.89 344.843 175.505 343.493 175.955C342.173 176.405 340.568 176.63 338.678 176.63ZM364.116 176.63C361.716 176.63 359.586 176.165 357.726 175.235C355.896 174.305 354.456 172.91 353.406 171.05C352.356 169.19 351.831 166.865 351.831 164.075C351.831 161.285 352.356 158.975 353.406 157.145C354.456 155.285 355.911 153.905 357.771 153.005C359.631 152.075 361.761 151.61 364.161 151.61C366.561 151.61 368.691 152.075 370.551 153.005C372.411 153.935 373.866 155.33 374.916 157.19C375.966 159.02 376.491 161.33 376.491 164.12C376.491 166.97 375.951 169.325 374.871 171.185C373.791 173.045 372.306 174.425 370.416 175.325C368.556 176.195 366.456 176.63 364.116 176.63ZM364.341 171.365C365.421 171.365 366.321 171.125 367.041 170.645C367.761 170.135 368.301 169.37 368.661 168.35C369.021 167.33 369.201 166.07 369.201 164.57C369.201 162.98 369.006 161.645 368.616 160.565C368.226 159.455 367.641 158.615 366.861 158.045C366.111 157.445 365.136 157.145 363.936 157.145C362.916 157.145 362.031 157.4 361.281 157.91C360.561 158.39 360.021 159.14 359.661 160.16C359.301 161.18 359.121 162.455 359.121 163.985C359.121 166.445 359.571 168.29 360.471 169.52C361.401 170.75 362.691 171.365 364.341 171.365ZM366.411 149.135H360.966L364.386 141.305H371.451L366.411 149.135ZM380.735 176V160.655V152.24H386.45L386.54 159.215H387.44C387.86 157.505 388.415 156.095 389.105 154.985C389.795 153.845 390.635 153.005 391.625 152.465C392.615 151.895 393.77 151.61 395.09 151.61C396.47 151.61 397.61 151.91 398.51 152.51C399.44 153.08 400.175 153.935 400.715 155.075C401.255 156.185 401.615 157.565 401.795 159.215H402.56C403.04 157.445 403.67 156.005 404.45 154.895C405.23 153.755 406.16 152.93 407.24 152.42C408.32 151.88 409.49 151.61 410.75 151.61C412.1 151.61 413.27 151.88 414.26 152.42C415.28 152.93 416.12 153.71 416.78 154.76C417.47 155.78 417.98 157.07 418.31 158.63C418.64 160.16 418.805 161.945 418.805 163.985V176H411.515V164.885C411.515 163.295 411.38 161.975 411.11 160.925C410.87 159.875 410.48 159.095 409.94 158.585C409.4 158.045 408.71 157.775 407.87 157.775C406.91 157.775 406.085 158.09 405.395 158.72C404.735 159.35 404.225 160.235 403.865 161.375C403.505 162.485 403.325 163.745 403.325 165.155V176H396.215V165.02C396.215 163.37 396.065 162.02 395.765 160.97C395.495 159.92 395.075 159.125 394.505 158.585C393.965 158.045 393.275 157.775 392.435 157.775C391.475 157.775 390.665 158.09 390.005 158.72C389.345 159.35 388.835 160.235 388.475 161.375C388.145 162.485 387.98 163.745 387.98 165.155V176H380.735ZM435 176.63C432.6 176.63 430.47 176.165 428.61 175.235C426.78 174.305 425.34 172.91 424.29 171.05C423.24 169.19 422.715 166.865 422.715 164.075C422.715 161.285 423.24 158.975 424.29 157.145C425.34 155.285 426.795 153.905 428.655 153.005C430.515 152.075 432.645 151.61 435.045 151.61C437.445 151.61 439.575 152.075 441.435 153.005C443.295 153.935 444.75 155.33 445.8 157.19C446.85 159.02 447.375 161.33 447.375 164.12C447.375 166.97 446.835 169.325 445.755 171.185C444.675 173.045 443.19 174.425 441.3 175.325C439.44 176.195 437.34 176.63 435 176.63ZM435.225 171.365C436.305 171.365 437.205 171.125 437.925 170.645C438.645 170.135 439.185 169.37 439.545 168.35C439.905 167.33 440.085 166.07 440.085 164.57C440.085 162.98 439.89 161.645 439.5 160.565C439.11 159.455 438.525 158.615 437.745 158.045C436.995 157.445 436.02 157.145 434.82 157.145C433.8 157.145 432.915 157.4 432.165 157.91C431.445 158.39 430.905 159.14 430.545 160.16C430.185 161.18 430.005 162.455 430.005 163.985C430.005 166.445 430.455 168.29 431.355 169.52C432.285 170.75 433.575 171.365 435.225 171.365ZM100.188 238.605V219.39V207.24H106.128L106.218 213.99L107.028 214.08C107.298 212.4 107.778 211.005 108.468 209.895C109.158 208.785 110.043 207.96 111.123 207.42C112.233 206.88 113.493 206.61 114.903 206.61C117.003 206.61 118.803 207.12 120.303 208.14C121.833 209.16 123.003 210.615 123.813 212.505C124.623 214.395 125.028 216.66 125.028 219.3C125.028 221.64 124.668 223.74 123.948 225.6C123.258 227.46 122.193 228.93 120.753 230.01C119.343 231.09 117.543 231.63 115.353 231.63C113.883 231.63 112.638 231.375 111.618 230.865C110.598 230.325 109.728 229.545 109.008 228.525C108.318 227.505 107.733 226.23 107.253 224.7H106.398C106.578 225.51 106.743 226.335 106.893 227.175C107.043 228.015 107.163 228.825 107.253 229.605C107.373 230.385 107.433 231.135 107.433 231.855V238.605H100.188ZM112.698 225.915C113.688 225.915 114.528 225.645 115.218 225.105C115.938 224.565 116.493 223.8 116.883 222.81C117.273 221.82 117.468 220.665 117.468 219.345C117.468 217.935 117.258 216.735 116.838 215.745C116.448 214.725 115.878 213.945 115.128 213.405C114.378 212.835 113.508 212.55 112.518 212.55C111.588 212.55 110.793 212.76 110.133 213.18C109.503 213.57 108.978 214.095 108.558 214.755C108.168 215.385 107.883 216.06 107.703 216.78C107.523 217.5 107.433 218.175 107.433 218.805V219.795C107.433 220.365 107.508 220.935 107.658 221.505C107.808 222.075 108.033 222.63 108.333 223.17C108.633 223.68 108.993 224.145 109.413 224.565C109.833 224.985 110.313 225.315 110.853 225.555C111.423 225.795 112.038 225.915 112.698 225.915ZM129.367 231V219.975V207.24H135.307L135.442 215.295H136.342C136.552 213.195 136.942 211.53 137.512 210.3C138.112 209.04 138.952 208.125 140.032 207.555C141.142 206.985 142.507 206.7 144.127 206.7C144.367 206.7 144.637 206.715 144.937 206.745C145.237 206.745 145.582 206.775 145.972 206.835L145.702 214.575C145.222 214.335 144.697 214.185 144.127 214.125C143.587 214.035 143.107 213.99 142.687 213.99C141.517 213.99 140.497 214.215 139.627 214.665C138.787 215.115 138.112 215.805 137.602 216.735C137.122 217.665 136.807 218.835 136.657 220.245V231H129.367ZM160.385 231.63C157.985 231.63 155.855 231.165 153.995 230.235C152.165 229.305 150.725 227.91 149.675 226.05C148.625 224.19 148.1 221.865 148.1 219.075C148.1 216.285 148.625 213.975 149.675 212.145C150.725 210.285 152.18 208.905 154.04 208.005C155.9 207.075 158.03 206.61 160.43 206.61C162.83 206.61 164.96 207.075 166.82 208.005C168.68 208.935 170.135 210.33 171.185 212.19C172.235 214.02 172.76 216.33 172.76 219.12C172.76 221.97 172.22 224.325 171.14 226.185C170.06 228.045 168.575 229.425 166.685 230.325C164.825 231.195 162.725 231.63 160.385 231.63ZM160.61 226.365C161.69 226.365 162.59 226.125 163.31 225.645C164.03 225.135 164.57 224.37 164.93 223.35C165.29 222.33 165.47 221.07 165.47 219.57C165.47 217.98 165.275 216.645 164.885 215.565C164.495 214.455 163.91 213.615 163.13 213.045C162.38 212.445 161.405 212.145 160.205 212.145C159.185 212.145 158.3 212.4 157.55 212.91C156.83 213.39 156.29 214.14 155.93 215.16C155.57 216.18 155.39 217.455 155.39 218.985C155.39 221.445 155.84 223.29 156.74 224.52C157.67 225.75 158.96 226.365 160.61 226.365ZM186.274 231.585C183.484 231.585 181.429 230.85 180.109 229.38C178.789 227.88 178.129 225.495 178.129 222.225V212.91H174.754L174.889 207.285H177.319C178.279 207.255 178.999 207.105 179.479 206.835C179.989 206.565 180.304 206.055 180.424 205.305L181.009 201.975H185.104V207.24H190.819V213.135H185.104V221.91C185.104 222.93 185.344 223.68 185.824 224.16C186.334 224.64 187.099 224.88 188.119 224.88C188.689 224.88 189.229 224.82 189.739 224.7C190.249 224.58 190.669 224.415 190.999 224.205V230.91C190.039 231.21 189.154 231.39 188.344 231.45C187.564 231.54 186.874 231.585 186.274 231.585ZM206.492 231.63C204.512 231.63 202.742 231.375 201.182 230.865C199.622 230.325 198.287 229.545 197.177 228.525C196.097 227.505 195.272 226.245 194.702 224.745C194.132 223.245 193.847 221.52 193.847 219.57C193.847 217.68 194.117 215.94 194.657 214.35C195.227 212.76 196.022 211.395 197.042 210.255C198.092 209.085 199.367 208.185 200.867 207.555C202.397 206.925 204.107 206.61 205.997 206.61C207.917 206.61 209.597 206.925 211.037 207.555C212.507 208.155 213.707 209.055 214.637 210.255C215.597 211.455 216.302 212.925 216.752 214.665C217.202 216.375 217.352 218.34 217.202 220.56L198.617 220.695V216.915L213.062 216.78L210.497 218.535C210.707 217.035 210.617 215.82 210.227 214.89C209.837 213.93 209.267 213.24 208.517 212.82C207.767 212.37 206.957 212.145 206.087 212.145C205.037 212.145 204.107 212.43 203.297 213C202.517 213.57 201.902 214.395 201.452 215.475C201.002 216.555 200.777 217.875 200.777 219.435C200.777 221.895 201.302 223.68 202.352 224.79C203.432 225.9 204.797 226.455 206.447 226.455C207.257 226.455 207.932 226.35 208.472 226.14C209.012 225.9 209.447 225.615 209.777 225.285C210.137 224.925 210.407 224.535 210.587 224.115C210.797 223.695 210.962 223.29 211.082 222.9L217.382 224.25C217.142 225.36 216.752 226.365 216.212 227.265C215.702 228.165 214.997 228.945 214.097 229.605C213.227 230.265 212.162 230.76 210.902 231.09C209.672 231.45 208.202 231.63 206.492 231.63ZM231.194 239.325C228.554 239.325 226.379 239.115 224.669 238.695C222.989 238.305 221.759 237.705 220.979 236.895C220.199 236.115 219.809 235.155 219.809 234.015C219.809 232.635 220.349 231.51 221.429 230.64C222.539 229.77 224.159 229.275 226.289 229.155V228.21C224.639 228.21 223.364 228.045 222.464 227.715C221.594 227.385 221.159 226.77 221.159 225.87C221.159 225.03 221.594 224.265 222.464 223.575C223.334 222.885 224.774 222.345 226.784 221.955V221.01C224.954 220.86 223.499 220.26 222.419 219.21C221.339 218.13 220.799 216.72 220.799 214.98C220.799 213.51 221.219 212.175 222.059 210.975C222.899 209.745 224.159 208.77 225.839 208.05C227.519 207.3 229.619 206.925 232.139 206.925H244.469V212.37L236.954 211.38V212.46C238.904 212.73 240.299 213.18 241.139 213.81C241.979 214.44 242.399 215.325 242.399 216.465C242.399 217.665 241.979 218.73 241.139 219.66C240.329 220.59 239.174 221.325 237.674 221.865C236.174 222.375 234.389 222.63 232.319 222.63C231.959 222.63 231.554 222.615 231.104 222.585C230.684 222.555 229.889 222.48 228.719 222.36C228.239 222.78 227.864 223.14 227.594 223.44C227.324 223.71 227.189 223.965 227.189 224.205C227.189 224.385 227.264 224.535 227.414 224.655C227.564 224.775 227.774 224.865 228.044 224.925C228.344 224.955 228.659 224.97 228.989 224.97H236.234C236.834 224.97 237.614 225.015 238.574 225.105C239.564 225.165 240.539 225.39 241.499 225.78C242.489 226.17 243.314 226.8 243.974 227.67C244.664 228.54 245.009 229.785 245.009 231.405C245.009 233.175 244.514 234.645 243.524 235.815C242.534 237.015 241.019 237.9 238.979 238.47C236.939 239.04 234.344 239.325 231.194 239.325ZM232.139 233.565C233.879 233.565 235.229 233.475 236.189 233.295C237.149 233.115 237.809 232.83 238.169 232.44C238.559 232.05 238.754 231.57 238.754 231C238.754 230.46 238.649 230.04 238.439 229.74C238.229 229.41 237.959 229.185 237.629 229.065C237.299 228.945 236.954 228.87 236.594 228.84C236.264 228.81 235.979 228.795 235.739 228.795H229.934C228.824 228.795 227.999 229.065 227.459 229.605C226.949 230.115 226.694 230.715 226.694 231.405C226.694 231.975 226.874 232.41 227.234 232.71C227.594 233.04 228.164 233.265 228.944 233.385C229.754 233.505 230.819 233.565 232.139 233.565ZM231.824 219.03C233.114 219.03 234.074 218.685 234.704 217.995C235.364 217.305 235.694 216.435 235.694 215.385C235.694 214.245 235.364 213.315 234.704 212.595C234.044 211.845 233.099 211.47 231.869 211.47C230.639 211.47 229.679 211.845 228.989 212.595C228.299 213.315 227.954 214.245 227.954 215.385C227.954 216.075 228.104 216.705 228.404 217.275C228.704 217.815 229.139 218.25 229.709 218.58C230.279 218.88 230.984 219.03 231.824 219.03ZM259.754 231.63C257.774 231.63 256.004 231.375 254.444 230.865C252.884 230.325 251.549 229.545 250.439 228.525C249.359 227.505 248.534 226.245 247.964 224.745C247.394 223.245 247.109 221.52 247.109 219.57C247.109 217.68 247.379 215.94 247.919 214.35C248.489 212.76 249.284 211.395 250.304 210.255C251.354 209.085 252.629 208.185 254.129 207.555C255.659 206.925 257.369 206.61 259.259 206.61C261.179 206.61 262.859 206.925 264.299 207.555C265.769 208.155 266.969 209.055 267.899 210.255C268.859 211.455 269.564 212.925 270.014 214.665C270.464 216.375 270.614 218.34 270.464 220.56L251.879 220.695V216.915L266.324 216.78L263.759 218.535C263.969 217.035 263.879 215.82 263.489 214.89C263.099 213.93 262.529 213.24 261.779 212.82C261.029 212.37 260.219 212.145 259.349 212.145C258.299 212.145 257.369 212.43 256.559 213C255.779 213.57 255.164 214.395 254.714 215.475C254.264 216.555 254.039 217.875 254.039 219.435C254.039 221.895 254.564 223.68 255.614 224.79C256.694 225.9 258.059 226.455 259.709 226.455C260.519 226.455 261.194 226.35 261.734 226.14C262.274 225.9 262.709 225.615 263.039 225.285C263.399 224.925 263.669 224.535 263.849 224.115C264.059 223.695 264.224 223.29 264.344 222.9L270.644 224.25C270.404 225.36 270.014 226.365 269.474 227.265C268.964 228.165 268.259 228.945 267.359 229.605C266.489 230.265 265.424 230.76 264.164 231.09C262.934 231.45 261.464 231.63 259.754 231.63ZM274.87 231V219.975V207.24H280.81L280.945 215.295H281.845C282.055 213.195 282.445 211.53 283.015 210.3C283.615 209.04 284.455 208.125 285.535 207.555C286.645 206.985 288.01 206.7 289.63 206.7C289.87 206.7 290.14 206.715 290.44 206.745C290.74 206.745 291.085 206.775 291.475 206.835L291.205 214.575C290.725 214.335 290.2 214.185 289.63 214.125C289.09 214.035 288.61 213.99 288.19 213.99C287.02 213.99 286 214.215 285.13 214.665C284.29 215.115 283.615 215.805 283.105 216.735C282.625 217.665 282.31 218.835 282.16 220.245V231H274.87ZM304.926 231.585C302.136 231.585 300.081 230.85 298.761 229.38C297.441 227.88 296.781 225.495 296.781 222.225V212.91H293.406L293.541 207.285H295.971C296.931 207.255 297.651 207.105 298.131 206.835C298.641 206.565 298.956 206.055 299.076 205.305L299.661 201.975H303.756V207.24H309.471V213.135H303.756V221.91C303.756 222.93 303.996 223.68 304.476 224.16C304.986 224.64 305.751 224.88 306.771 224.88C307.341 224.88 307.881 224.82 308.391 224.7C308.901 224.58 309.321 224.415 309.651 224.205V230.91C308.691 231.21 307.806 231.39 306.996 231.45C306.216 231.54 305.526 231.585 304.926 231.585ZM325.145 231.63C323.165 231.63 321.395 231.375 319.835 230.865C318.275 230.325 316.94 229.545 315.83 228.525C314.75 227.505 313.925 226.245 313.355 224.745C312.785 223.245 312.5 221.52 312.5 219.57C312.5 217.68 312.77 215.94 313.31 214.35C313.88 212.76 314.675 211.395 315.695 210.255C316.745 209.085 318.02 208.185 319.52 207.555C321.05 206.925 322.76 206.61 324.65 206.61C326.57 206.61 328.25 206.925 329.69 207.555C331.16 208.155 332.36 209.055 333.29 210.255C334.25 211.455 334.955 212.925 335.405 214.665C335.855 216.375 336.005 218.34 335.855 220.56L317.27 220.695V216.915L331.715 216.78L329.15 218.535C329.36 217.035 329.27 215.82 328.88 214.89C328.49 213.93 327.92 213.24 327.17 212.82C326.42 212.37 325.61 212.145 324.74 212.145C323.69 212.145 322.76 212.43 321.95 213C321.17 213.57 320.555 214.395 320.105 215.475C319.655 216.555 319.43 217.875 319.43 219.435C319.43 221.895 319.955 223.68 321.005 224.79C322.085 225.9 323.45 226.455 325.1 226.455C325.91 226.455 326.585 226.35 327.125 226.14C327.665 225.9 328.1 225.615 328.43 225.285C328.79 224.925 329.06 224.535 329.24 224.115C329.45 223.695 329.615 223.29 329.735 222.9L336.035 224.25C335.795 225.36 335.405 226.365 334.865 227.265C334.355 228.165 333.65 228.945 332.75 229.605C331.88 230.265 330.815 230.76 329.555 231.09C328.325 231.45 326.855 231.63 325.145 231.63ZM361.575 231.63C359.595 231.63 357.825 231.375 356.265 230.865C354.705 230.325 353.37 229.545 352.26 228.525C351.18 227.505 350.355 226.245 349.785 224.745C349.215 223.245 348.93 221.52 348.93 219.57C348.93 217.68 349.2 215.94 349.74 214.35C350.31 212.76 351.105 211.395 352.125 210.255C353.175 209.085 354.45 208.185 355.95 207.555C357.48 206.925 359.19 206.61 361.08 206.61C363 206.61 364.68 206.925 366.12 207.555C367.59 208.155 368.79 209.055 369.72 210.255C370.68 211.455 371.385 212.925 371.835 214.665C372.285 216.375 372.435 218.34 372.285 220.56L353.7 220.695V216.915L368.145 216.78L365.58 218.535C365.79 217.035 365.7 215.82 365.31 214.89C364.92 213.93 364.35 213.24 363.6 212.82C362.85 212.37 362.04 212.145 361.17 212.145C360.12 212.145 359.19 212.43 358.38 213C357.6 213.57 356.985 214.395 356.535 215.475C356.085 216.555 355.86 217.875 355.86 219.435C355.86 221.895 356.385 223.68 357.435 224.79C358.515 225.9 359.88 226.455 361.53 226.455C362.34 226.455 363.015 226.35 363.555 226.14C364.095 225.9 364.53 225.615 364.86 225.285C365.22 224.925 365.49 224.535 365.67 224.115C365.88 223.695 366.045 223.29 366.165 222.9L372.465 224.25C372.225 225.36 371.835 226.365 371.295 227.265C370.785 228.165 370.08 228.945 369.18 229.605C368.31 230.265 367.245 230.76 365.985 231.09C364.755 231.45 363.285 231.63 361.575 231.63ZM376.692 231V216.69V207.24H382.542L382.632 214.215H383.532C383.922 212.535 384.477 211.125 385.197 209.985C385.917 208.845 386.832 208.005 387.942 207.465C389.052 206.895 390.357 206.61 391.857 206.61C394.647 206.61 396.762 207.585 398.202 209.535C399.672 211.485 400.407 214.59 400.407 218.85V231H393.117V219.66C393.117 217.2 392.757 215.415 392.037 214.305C391.347 213.165 390.312 212.595 388.932 212.595C387.792 212.595 386.847 212.94 386.097 213.63C385.377 214.32 384.837 215.235 384.477 216.375C384.117 217.515 383.937 218.79 383.937 220.2V231H376.692ZM424.897 231.585C422.107 231.585 420.052 230.85 418.732 229.38C417.412 227.88 416.752 225.495 416.752 222.225V212.91H413.377L413.512 207.285H415.942C416.902 207.255 417.622 207.105 418.102 206.835C418.612 206.565 418.927 206.055 419.047 205.305L419.632 201.975H423.727V207.24H429.442V213.135H423.727V221.91C423.727 222.93 423.967 223.68 424.447 224.16C424.957 224.64 425.722 224.88 426.742 224.88C427.312 224.88 427.852 224.82 428.362 224.7C428.872 224.58 429.292 224.415 429.622 224.205V230.91C428.662 231.21 427.777 231.39 426.967 231.45C426.187 231.54 425.497 231.585 424.897 231.585ZM442.053 231.63C439.233 231.63 437.103 230.685 435.663 228.795C434.253 226.875 433.548 223.965 433.548 220.065V207.24H440.838V219.12C440.838 221.34 441.168 223.005 441.828 224.115C442.488 225.195 443.493 225.735 444.843 225.735C445.653 225.735 446.343 225.54 446.913 225.15C447.513 224.73 448.008 224.16 448.398 223.44C448.818 222.69 449.118 221.835 449.298 220.875C449.508 219.915 449.613 218.865 449.613 217.725V207.24H456.858V221.37V231H451.098L450.963 223.665H450.063C449.613 225.525 449.043 227.055 448.353 228.255C447.693 229.425 446.853 230.28 445.833 230.82C444.813 231.36 443.553 231.63 442.053 231.63ZM472.149 231.63C470.559 231.63 469.119 231.48 467.829 231.18C466.539 230.91 465.414 230.505 464.454 229.965C463.494 229.425 462.699 228.78 462.069 228.03C461.469 227.25 461.049 226.395 460.809 225.465L466.209 223.08C466.419 223.59 466.779 224.115 467.289 224.655C467.829 225.165 468.534 225.585 469.404 225.915C470.304 226.245 471.384 226.41 472.644 226.41C473.844 226.41 474.774 226.245 475.434 225.915C476.124 225.555 476.469 225.045 476.469 224.385C476.469 223.905 476.274 223.53 475.884 223.26C475.524 222.96 474.969 222.705 474.219 222.495C473.469 222.255 472.539 222.03 471.429 221.82C470.289 221.58 469.134 221.31 467.964 221.01C466.794 220.68 465.699 220.245 464.679 219.705C463.659 219.135 462.834 218.4 462.204 217.5C461.604 216.57 461.304 215.4 461.304 213.99C461.304 212.52 461.694 211.245 462.474 210.165C463.254 209.055 464.409 208.185 465.939 207.555C467.499 206.925 469.389 206.61 471.609 206.61C473.589 206.61 475.329 206.865 476.829 207.375C478.329 207.885 479.574 208.62 480.564 209.58C481.584 210.51 482.289 211.635 482.679 212.955L476.874 215.025C476.724 214.365 476.409 213.795 475.929 213.315C475.479 212.835 474.894 212.475 474.174 212.235C473.484 211.965 472.659 211.83 471.699 211.83C470.529 211.83 469.614 212.01 468.954 212.37C468.324 212.73 468.009 213.21 468.009 213.81C468.009 214.29 468.219 214.695 468.639 215.025C469.089 215.325 469.719 215.58 470.529 215.79C471.339 216 472.299 216.225 473.409 216.465C474.579 216.705 475.734 216.99 476.874 217.32C478.044 217.62 479.094 218.04 480.024 218.58C480.984 219.09 481.734 219.78 482.274 220.65C482.844 221.49 483.129 222.585 483.129 223.935C483.129 225.525 482.709 226.905 481.869 228.075C481.029 229.215 479.784 230.1 478.134 230.73C476.514 231.33 474.519 231.63 472.149 231.63ZM111.393 286.63C109.353 286.63 107.553 286.345 105.993 285.775C104.433 285.205 103.128 284.395 102.078 283.345C101.028 282.265 100.218 280.975 99.6477 279.475C99.1077 277.975 98.8377 276.295 98.8377 274.435C98.8377 272.515 99.1077 270.775 99.6477 269.215C100.218 267.655 101.028 266.305 102.078 265.165C103.128 264.025 104.418 263.155 105.948 262.555C107.478 261.925 109.233 261.61 111.213 261.61C113.193 261.61 114.903 261.925 116.343 262.555C117.783 263.185 118.953 264.07 119.853 265.21C120.783 266.35 121.413 267.67 121.743 269.17L115.038 271.42C114.948 270.43 114.708 269.62 114.318 268.99C113.928 268.36 113.418 267.91 112.788 267.64C112.188 267.34 111.528 267.19 110.808 267.19C110.058 267.19 109.398 267.34 108.828 267.64C108.258 267.94 107.778 268.39 107.388 268.99C106.998 269.59 106.698 270.325 106.488 271.195C106.278 272.035 106.173 273.01 106.173 274.12C106.173 275.71 106.368 277.045 106.758 278.125C107.178 279.175 107.778 279.97 108.558 280.51C109.368 281.05 110.343 281.32 111.483 281.32C112.653 281.32 113.568 281.08 114.228 280.6C114.888 280.12 115.368 279.535 115.668 278.845C115.968 278.125 116.148 277.42 116.208 276.73L122.508 278.125C122.388 279.235 122.088 280.315 121.608 281.365C121.158 282.385 120.483 283.3 119.583 284.11C118.683 284.89 117.558 285.505 116.208 285.955C114.888 286.405 113.283 286.63 111.393 286.63ZM134.041 286.63C131.221 286.63 129.091 285.685 127.651 283.795C126.241 281.875 125.536 278.965 125.536 275.065V262.24H132.826V274.12C132.826 276.34 133.156 278.005 133.816 279.115C134.476 280.195 135.481 280.735 136.831 280.735C137.641 280.735 138.331 280.54 138.901 280.15C139.501 279.73 139.996 279.16 140.386 278.44C140.806 277.69 141.106 276.835 141.286 275.875C141.496 274.915 141.601 273.865 141.601 272.725V262.24H148.846V276.37V286H143.086L142.951 278.665H142.051C141.601 280.525 141.031 282.055 140.341 283.255C139.681 284.425 138.841 285.28 137.821 285.82C136.801 286.36 135.541 286.63 134.041 286.63ZM165.711 286.63C163.731 286.63 161.961 286.375 160.401 285.865C158.841 285.325 157.506 284.545 156.396 283.525C155.316 282.505 154.491 281.245 153.921 279.745C153.351 278.245 153.066 276.52 153.066 274.57C153.066 272.68 153.336 270.94 153.876 269.35C154.446 267.76 155.241 266.395 156.261 265.255C157.311 264.085 158.586 263.185 160.086 262.555C161.616 261.925 163.326 261.61 165.216 261.61C167.136 261.61 168.816 261.925 170.256 262.555C171.726 263.155 172.926 264.055 173.856 265.255C174.816 266.455 175.521 267.925 175.971 269.665C176.421 271.375 176.571 273.34 176.421 275.56L157.836 275.695V271.915L172.281 271.78L169.716 273.535C169.926 272.035 169.836 270.82 169.446 269.89C169.056 268.93 168.486 268.24 167.736 267.82C166.986 267.37 166.176 267.145 165.306 267.145C164.256 267.145 163.326 267.43 162.516 268C161.736 268.57 161.121 269.395 160.671 270.475C160.221 271.555 159.996 272.875 159.996 274.435C159.996 276.895 160.521 278.68 161.571 279.79C162.651 280.9 164.016 281.455 165.666 281.455C166.476 281.455 167.151 281.35 167.691 281.14C168.231 280.9 168.666 280.615 168.996 280.285C169.356 279.925 169.626 279.535 169.806 279.115C170.016 278.695 170.181 278.29 170.301 277.9L176.601 279.25C176.361 280.36 175.971 281.365 175.431 282.265C174.921 283.165 174.216 283.945 173.316 284.605C172.446 285.265 171.381 285.76 170.121 286.09C168.891 286.45 167.421 286.63 165.711 286.63ZM180.827 286V271.69V262.24H186.677L186.767 269.215H187.667C188.057 267.535 188.612 266.125 189.332 264.985C190.052 263.845 190.967 263.005 192.077 262.465C193.187 261.895 194.492 261.61 195.992 261.61C198.782 261.61 200.897 262.585 202.337 264.535C203.807 266.485 204.542 269.59 204.542 273.85V286H197.252V274.66C197.252 272.2 196.892 270.415 196.172 269.305C195.482 268.165 194.447 267.595 193.067 267.595C191.927 267.595 190.982 267.94 190.232 268.63C189.512 269.32 188.972 270.235 188.612 271.375C188.252 272.515 188.072 273.79 188.072 275.2V286H180.827ZM218.925 286.585C216.135 286.585 214.08 285.85 212.76 284.38C211.44 282.88 210.78 280.495 210.78 277.225V267.91H207.405L207.54 262.285H209.97C210.93 262.255 211.65 262.105 212.13 261.835C212.64 261.565 212.955 261.055 213.075 260.305L213.66 256.975H217.755V262.24H223.47V268.135H217.755V276.91C217.755 277.93 217.995 278.68 218.475 279.16C218.985 279.64 219.75 279.88 220.77 279.88C221.34 279.88 221.88 279.82 222.39 279.7C222.9 279.58 223.32 279.415 223.65 279.205V285.91C222.69 286.21 221.805 286.39 220.995 286.45C220.215 286.54 219.525 286.585 218.925 286.585ZM233.517 286.63C232.197 286.63 231.027 286.375 230.007 285.865C228.987 285.325 228.192 284.56 227.622 283.57C227.052 282.55 226.767 281.32 226.767 279.88C226.767 278.53 227.022 277.42 227.532 276.55C228.072 275.65 228.837 274.945 229.827 274.435C230.847 273.895 232.062 273.46 233.472 273.13C234.882 272.77 236.487 272.455 238.287 272.185C239.157 272.035 239.877 271.9 240.447 271.78C241.047 271.63 241.497 271.405 241.797 271.105C242.097 270.805 242.247 270.37 242.247 269.8C242.247 269.05 241.977 268.405 241.437 267.865C240.897 267.325 240.027 267.055 238.827 267.055C237.987 267.055 237.222 267.205 236.532 267.505C235.872 267.805 235.302 268.24 234.822 268.81C234.342 269.38 233.982 270.07 233.742 270.88L227.352 268.99C227.742 267.73 228.282 266.635 228.972 265.705C229.692 264.775 230.547 264.01 231.537 263.41C232.527 262.78 233.652 262.33 234.912 262.06C236.202 261.76 237.567 261.61 239.007 261.61C241.407 261.61 243.357 262 244.857 262.78C246.387 263.53 247.512 264.715 248.232 266.335C248.982 267.925 249.357 269.98 249.357 272.5V276.145C249.357 277.225 249.372 278.32 249.402 279.43C249.462 280.51 249.522 281.605 249.582 282.715C249.672 283.795 249.777 284.89 249.897 286H243.507C243.387 285.31 243.267 284.485 243.147 283.525C243.027 282.535 242.937 281.53 242.877 280.51H242.022C241.602 281.65 240.987 282.7 240.177 283.66C239.397 284.59 238.437 285.325 237.297 285.865C236.187 286.375 234.927 286.63 233.517 286.63ZM236.802 281.5C237.342 281.5 237.882 281.41 238.422 281.23C238.992 281.02 239.532 280.75 240.042 280.42C240.552 280.06 241.017 279.625 241.437 279.115C241.857 278.605 242.172 278.05 242.382 277.45L242.292 273.895L243.282 274.12C242.712 274.48 242.082 274.765 241.392 274.975C240.702 275.185 239.997 275.35 239.277 275.47C238.587 275.59 237.897 275.725 237.207 275.875C236.547 275.995 235.947 276.16 235.407 276.37C234.897 276.58 234.492 276.865 234.192 277.225C233.892 277.585 233.742 278.08 233.742 278.71C233.742 279.55 234.027 280.225 234.597 280.735C235.167 281.245 235.902 281.5 236.802 281.5ZM264.419 286.63C262.829 286.63 261.389 286.48 260.099 286.18C258.809 285.91 257.684 285.505 256.724 284.965C255.764 284.425 254.969 283.78 254.339 283.03C253.739 282.25 253.319 281.395 253.079 280.465L258.479 278.08C258.689 278.59 259.049 279.115 259.559 279.655C260.099 280.165 260.804 280.585 261.674 280.915C262.574 281.245 263.654 281.41 264.914 281.41C266.114 281.41 267.044 281.245 267.704 280.915C268.394 280.555 268.739 280.045 268.739 279.385C268.739 278.905 268.544 278.53 268.154 278.26C267.794 277.96 267.239 277.705 266.489 277.495C265.739 277.255 264.809 277.03 263.699 276.82C262.559 276.58 261.404 276.31 260.234 276.01C259.064 275.68 257.969 275.245 256.949 274.705C255.929 274.135 255.104 273.4 254.474 272.5C253.874 271.57 253.574 270.4 253.574 268.99C253.574 267.52 253.964 266.245 254.744 265.165C255.524 264.055 256.679 263.185 258.209 262.555C259.769 261.925 261.659 261.61 263.879 261.61C265.859 261.61 267.599 261.865 269.099 262.375C270.599 262.885 271.844 263.62 272.834 264.58C273.854 265.51 274.559 266.635 274.949 267.955L269.144 270.025C268.994 269.365 268.679 268.795 268.199 268.315C267.749 267.835 267.164 267.475 266.444 267.235C265.754 266.965 264.929 266.83 263.969 266.83C262.799 266.83 261.884 267.01 261.224 267.37C260.594 267.73 260.279 268.21 260.279 268.81C260.279 269.29 260.489 269.695 260.909 270.025C261.359 270.325 261.989 270.58 262.799 270.79C263.609 271 264.569 271.225 265.679 271.465C266.849 271.705 268.004 271.99 269.144 272.32C270.314 272.62 271.364 273.04 272.294 273.58C273.254 274.09 274.004 274.78 274.544 275.65C275.114 276.49 275.399 277.585 275.399 278.935C275.399 280.525 274.979 281.905 274.139 283.075C273.299 284.215 272.054 285.1 270.404 285.73C268.784 286.33 266.789 286.63 264.419 286.63ZM298.101 286.63C296.121 286.63 294.381 286.135 292.881 285.145C291.411 284.125 290.256 282.685 289.416 280.825C288.576 278.935 288.156 276.685 288.156 274.075C288.156 271.675 288.516 269.545 289.236 267.685C289.956 265.825 291.021 264.37 292.431 263.32C293.871 262.24 295.641 261.7 297.741 261.7C299.241 261.7 300.501 261.97 301.521 262.51C302.571 263.05 303.441 263.86 304.131 264.94C304.821 266.02 305.376 267.385 305.796 269.035H306.921C306.711 268.015 306.516 267.055 306.336 266.155C306.156 265.225 306.006 264.37 305.886 263.59C305.796 262.78 305.751 262.075 305.751 261.475V253.6H313.041V274.39V286H307.101L307.011 278.98H306.021C305.691 280.78 305.166 282.25 304.446 283.39C303.756 284.5 302.871 285.325 301.791 285.865C300.741 286.375 299.511 286.63 298.101 286.63ZM300.711 280.78C301.641 280.78 302.421 280.585 303.051 280.195C303.711 279.775 304.236 279.25 304.626 278.62C305.016 277.99 305.301 277.315 305.481 276.595C305.661 275.875 305.751 275.2 305.751 274.57V273.625C305.751 273.055 305.676 272.485 305.526 271.915C305.376 271.345 305.151 270.79 304.851 270.25C304.581 269.71 304.236 269.23 303.816 268.81C303.396 268.39 302.901 268.06 302.331 267.82C301.791 267.58 301.191 267.46 300.531 267.46C299.541 267.46 298.686 267.73 297.966 268.27C297.276 268.81 296.736 269.575 296.346 270.565C295.986 271.555 295.806 272.725 295.806 274.075C295.806 275.425 296.001 276.61 296.391 277.63C296.781 278.62 297.351 279.4 298.101 279.97C298.851 280.51 299.721 280.78 300.711 280.78ZM329.935 286.63C327.955 286.63 326.185 286.375 324.625 285.865C323.065 285.325 321.73 284.545 320.62 283.525C319.54 282.505 318.715 281.245 318.145 279.745C317.575 278.245 317.29 276.52 317.29 274.57C317.29 272.68 317.56 270.94 318.1 269.35C318.67 267.76 319.465 266.395 320.485 265.255C321.535 264.085 322.81 263.185 324.31 262.555C325.84 261.925 327.55 261.61 329.44 261.61C331.36 261.61 333.04 261.925 334.48 262.555C335.95 263.155 337.15 264.055 338.08 265.255C339.04 266.455 339.745 267.925 340.195 269.665C340.645 271.375 340.795 273.34 340.645 275.56L322.06 275.695V271.915L336.505 271.78L333.94 273.535C334.15 272.035 334.06 270.82 333.67 269.89C333.28 268.93 332.71 268.24 331.96 267.82C331.21 267.37 330.4 267.145 329.53 267.145C328.48 267.145 327.55 267.43 326.74 268C325.96 268.57 325.345 269.395 324.895 270.475C324.445 271.555 324.22 272.875 324.22 274.435C324.22 276.895 324.745 278.68 325.795 279.79C326.875 280.9 328.24 281.455 329.89 281.455C330.7 281.455 331.375 281.35 331.915 281.14C332.455 280.9 332.89 280.615 333.22 280.285C333.58 279.925 333.85 279.535 334.03 279.115C334.24 278.695 334.405 278.29 334.525 277.9L340.825 279.25C340.585 280.36 340.195 281.365 339.655 282.265C339.145 283.165 338.44 283.945 337.54 284.605C336.67 285.265 335.605 285.76 334.345 286.09C333.115 286.45 331.645 286.63 329.935 286.63ZM355.071 286V274.975V262.24H361.011L361.146 270.295H362.046C362.256 268.195 362.646 266.53 363.216 265.3C363.816 264.04 364.656 263.125 365.736 262.555C366.846 261.985 368.211 261.7 369.831 261.7C370.071 261.7 370.341 261.715 370.641 261.745C370.941 261.745 371.286 261.775 371.676 261.835L371.406 269.575C370.926 269.335 370.401 269.185 369.831 269.125C369.291 269.035 368.811 268.99 368.391 268.99C367.221 268.99 366.201 269.215 365.331 269.665C364.491 270.115 363.816 270.805 363.306 271.735C362.826 272.665 362.511 273.835 362.361 275.245V286H355.071ZM386.449 286.63C384.469 286.63 382.699 286.375 381.139 285.865C379.579 285.325 378.244 284.545 377.134 283.525C376.054 282.505 375.229 281.245 374.659 279.745C374.089 278.245 373.804 276.52 373.804 274.57C373.804 272.68 374.074 270.94 374.614 269.35C375.184 267.76 375.979 266.395 376.999 265.255C378.049 264.085 379.324 263.185 380.824 262.555C382.354 261.925 384.064 261.61 385.954 261.61C387.874 261.61 389.554 261.925 390.994 262.555C392.464 263.155 393.664 264.055 394.594 265.255C395.554 266.455 396.259 267.925 396.709 269.665C397.159 271.375 397.309 273.34 397.159 275.56L378.574 275.695V271.915L393.019 271.78L390.454 273.535C390.664 272.035 390.574 270.82 390.184 269.89C389.794 268.93 389.224 268.24 388.474 267.82C387.724 267.37 386.914 267.145 386.044 267.145C384.994 267.145 384.064 267.43 383.254 268C382.474 268.57 381.859 269.395 381.409 270.475C380.959 271.555 380.734 272.875 380.734 274.435C380.734 276.895 381.259 278.68 382.309 279.79C383.389 280.9 384.754 281.455 386.404 281.455C387.214 281.455 387.889 281.35 388.429 281.14C388.969 280.9 389.404 280.615 389.734 280.285C390.094 279.925 390.364 279.535 390.544 279.115C390.754 278.695 390.919 278.29 391.039 277.9L397.339 279.25C397.099 280.36 396.709 281.365 396.169 282.265C395.659 283.165 394.954 283.945 394.054 284.605C393.184 285.265 392.119 285.76 390.859 286.09C389.629 286.45 388.159 286.63 386.449 286.63ZM410.601 286.63C408.621 286.63 406.881 286.135 405.381 285.145C403.911 284.125 402.756 282.685 401.916 280.825C401.076 278.935 400.656 276.685 400.656 274.075C400.656 271.675 401.016 269.545 401.736 267.685C402.456 265.825 403.521 264.37 404.931 263.32C406.371 262.24 408.141 261.7 410.241 261.7C411.741 261.7 413.001 261.97 414.021 262.51C415.071 263.05 415.941 263.86 416.631 264.94C417.321 266.02 417.876 267.385 418.296 269.035H419.421C419.211 268.015 419.016 267.055 418.836 266.155C418.656 265.225 418.506 264.37 418.386 263.59C418.296 262.78 418.251 262.075 418.251 261.475V253.6H425.541V274.39V286H419.601L419.511 278.98H418.521C418.191 280.78 417.666 282.25 416.946 283.39C416.256 284.5 415.371 285.325 414.291 285.865C413.241 286.375 412.011 286.63 410.601 286.63ZM413.211 280.78C414.141 280.78 414.921 280.585 415.551 280.195C416.211 279.775 416.736 279.25 417.126 278.62C417.516 277.99 417.801 277.315 417.981 276.595C418.161 275.875 418.251 275.2 418.251 274.57V273.625C418.251 273.055 418.176 272.485 418.026 271.915C417.876 271.345 417.651 270.79 417.351 270.25C417.081 269.71 416.736 269.23 416.316 268.81C415.896 268.39 415.401 268.06 414.831 267.82C414.291 267.58 413.691 267.46 413.031 267.46C412.041 267.46 411.186 267.73 410.466 268.27C409.776 268.81 409.236 269.575 408.846 270.565C408.486 271.555 408.306 272.725 408.306 274.075C408.306 275.425 408.501 276.61 408.891 277.63C409.281 278.62 409.851 279.4 410.601 279.97C411.351 280.51 412.221 280.78 413.211 280.78ZM442.435 286.63C440.455 286.63 438.685 286.375 437.125 285.865C435.565 285.325 434.23 284.545 433.12 283.525C432.04 282.505 431.215 281.245 430.645 279.745C430.075 278.245 429.79 276.52 429.79 274.57C429.79 272.68 430.06 270.94 430.6 269.35C431.17 267.76 431.965 266.395 432.985 265.255C434.035 264.085 435.31 263.185 436.81 262.555C438.34 261.925 440.05 261.61 441.94 261.61C443.86 261.61 445.54 261.925 446.98 262.555C448.45 263.155 449.65 264.055 450.58 265.255C451.54 266.455 452.245 267.925 452.695 269.665C453.145 271.375 453.295 273.34 453.145 275.56L434.56 275.695V271.915L449.005 271.78L446.44 273.535C446.65 272.035 446.56 270.82 446.17 269.89C445.78 268.93 445.21 268.24 444.46 267.82C443.71 267.37 442.9 267.145 442.03 267.145C440.98 267.145 440.05 267.43 439.24 268C438.46 268.57 437.845 269.395 437.395 270.475C436.945 271.555 436.72 272.875 436.72 274.435C436.72 276.895 437.245 278.68 438.295 279.79C439.375 280.9 440.74 281.455 442.39 281.455C443.2 281.455 443.875 281.35 444.415 281.14C444.955 280.9 445.39 280.615 445.72 280.285C446.08 279.925 446.35 279.535 446.53 279.115C446.74 278.695 446.905 278.29 447.025 277.9L453.325 279.25C453.085 280.36 452.695 281.365 452.155 282.265C451.645 283.165 450.94 283.945 450.04 284.605C449.17 285.265 448.105 285.76 446.845 286.09C445.615 286.45 444.145 286.63 442.435 286.63ZM467.491 286.63C465.901 286.63 464.461 286.48 463.171 286.18C461.881 285.91 460.756 285.505 459.796 284.965C458.836 284.425 458.041 283.78 457.411 283.03C456.811 282.25 456.391 281.395 456.151 280.465L461.551 278.08C461.761 278.59 462.121 279.115 462.631 279.655C463.171 280.165 463.876 280.585 464.746 280.915C465.646 281.245 466.726 281.41 467.986 281.41C469.186 281.41 470.116 281.245 470.776 280.915C471.466 280.555 471.811 280.045 471.811 279.385C471.811 278.905 471.616 278.53 471.226 278.26C470.866 277.96 470.311 277.705 469.561 277.495C468.811 277.255 467.881 277.03 466.771 276.82C465.631 276.58 464.476 276.31 463.306 276.01C462.136 275.68 461.041 275.245 460.021 274.705C459.001 274.135 458.176 273.4 457.546 272.5C456.946 271.57 456.646 270.4 456.646 268.99C456.646 267.52 457.036 266.245 457.816 265.165C458.596 264.055 459.751 263.185 461.281 262.555C462.841 261.925 464.731 261.61 466.951 261.61C468.931 261.61 470.671 261.865 472.171 262.375C473.671 262.885 474.916 263.62 475.906 264.58C476.926 265.51 477.631 266.635 478.021 267.955L472.216 270.025C472.066 269.365 471.751 268.795 471.271 268.315C470.821 267.835 470.236 267.475 469.516 267.235C468.826 266.965 468.001 266.83 467.041 266.83C465.871 266.83 464.956 267.01 464.296 267.37C463.666 267.73 463.351 268.21 463.351 268.81C463.351 269.29 463.561 269.695 463.981 270.025C464.431 270.325 465.061 270.58 465.871 270.79C466.681 271 467.641 271.225 468.751 271.465C469.921 271.705 471.076 271.99 472.216 272.32C473.386 272.62 474.436 273.04 475.366 273.58C476.326 274.09 477.076 274.78 477.616 275.65C478.186 276.49 478.471 277.585 478.471 278.935C478.471 280.525 478.051 281.905 477.211 283.075C476.371 284.215 475.126 285.1 473.476 285.73C471.856 286.33 469.861 286.63 467.491 286.63ZM109.908 341.63C108.318 341.63 106.878 341.48 105.588 341.18C104.298 340.91 103.173 340.505 102.213 339.965C101.253 339.425 100.458 338.78 99.8277 338.03C99.2277 337.25 98.8077 336.395 98.5677 335.465L103.968 333.08C104.178 333.59 104.538 334.115 105.048 334.655C105.588 335.165 106.293 335.585 107.163 335.915C108.063 336.245 109.143 336.41 110.403 336.41C111.603 336.41 112.533 336.245 113.193 335.915C113.883 335.555 114.228 335.045 114.228 334.385C114.228 333.905 114.033 333.53 113.643 333.26C113.283 332.96 112.728 332.705 111.978 332.495C111.228 332.255 110.298 332.03 109.188 331.82C108.048 331.58 106.893 331.31 105.723 331.01C104.553 330.68 103.458 330.245 102.438 329.705C101.418 329.135 100.593 328.4 99.9627 327.5C99.3627 326.57 99.0627 325.4 99.0627 323.99C99.0627 322.52 99.4527 321.245 100.233 320.165C101.013 319.055 102.168 318.185 103.698 317.555C105.258 316.925 107.148 316.61 109.368 316.61C111.348 316.61 113.088 316.865 114.588 317.375C116.088 317.885 117.333 318.62 118.323 319.58C119.343 320.51 120.048 321.635 120.438 322.955L114.633 325.025C114.483 324.365 114.168 323.795 113.688 323.315C113.238 322.835 112.653 322.475 111.933 322.235C111.243 321.965 110.418 321.83 109.458 321.83C108.288 321.83 107.373 322.01 106.713 322.37C106.083 322.73 105.768 323.21 105.768 323.81C105.768 324.29 105.978 324.695 106.398 325.025C106.848 325.325 107.478 325.58 108.288 325.79C109.098 326 110.058 326.225 111.168 326.465C112.338 326.705 113.493 326.99 114.633 327.32C115.803 327.62 116.853 328.04 117.783 328.58C118.743 329.09 119.493 329.78 120.033 330.65C120.603 331.49 120.888 332.585 120.888 333.935C120.888 335.525 120.468 336.905 119.628 338.075C118.788 339.215 117.543 340.1 115.893 340.73C114.273 341.33 112.278 341.63 109.908 341.63ZM136.215 341.63C133.815 341.63 131.685 341.165 129.825 340.235C127.995 339.305 126.555 337.91 125.505 336.05C124.455 334.19 123.93 331.865 123.93 329.075C123.93 326.285 124.455 323.975 125.505 322.145C126.555 320.285 128.01 318.905 129.87 318.005C131.73 317.075 133.86 316.61 136.26 316.61C138.66 316.61 140.79 317.075 142.65 318.005C144.51 318.935 145.965 320.33 147.015 322.19C148.065 324.02 148.59 326.33 148.59 329.12C148.59 331.97 148.05 334.325 146.97 336.185C145.89 338.045 144.405 339.425 142.515 340.325C140.655 341.195 138.555 341.63 136.215 341.63ZM136.44 336.365C137.52 336.365 138.42 336.125 139.14 335.645C139.86 335.135 140.4 334.37 140.76 333.35C141.12 332.33 141.3 331.07 141.3 329.57C141.3 327.98 141.105 326.645 140.715 325.565C140.325 324.455 139.74 323.615 138.96 323.045C138.21 322.445 137.235 322.145 136.035 322.145C135.015 322.145 134.13 322.4 133.38 322.91C132.66 323.39 132.12 324.14 131.76 325.16C131.4 326.18 131.22 327.455 131.22 328.985C131.22 331.445 131.67 333.29 132.57 334.52C133.5 335.75 134.79 336.365 136.44 336.365ZM164.039 341.63C161.999 341.63 160.199 341.345 158.639 340.775C157.079 340.205 155.774 339.395 154.724 338.345C153.674 337.265 152.864 335.975 152.294 334.475C151.754 332.975 151.484 331.295 151.484 329.435C151.484 327.515 151.754 325.775 152.294 324.215C152.864 322.655 153.674 321.305 154.724 320.165C155.774 319.025 157.064 318.155 158.594 317.555C160.124 316.925 161.879 316.61 163.859 316.61C165.839 316.61 167.549 316.925 168.989 317.555C170.429 318.185 171.599 319.07 172.499 320.21C173.429 321.35 174.059 322.67 174.389 324.17L167.684 326.42C167.594 325.43 167.354 324.62 166.964 323.99C166.574 323.36 166.064 322.91 165.434 322.64C164.834 322.34 164.174 322.19 163.454 322.19C162.704 322.19 162.044 322.34 161.474 322.64C160.904 322.94 160.424 323.39 160.034 323.99C159.644 324.59 159.344 325.325 159.134 326.195C158.924 327.035 158.819 328.01 158.819 329.12C158.819 330.71 159.014 332.045 159.404 333.125C159.824 334.175 160.424 334.97 161.204 335.51C162.014 336.05 162.989 336.32 164.129 336.32C165.299 336.32 166.214 336.08 166.874 335.6C167.534 335.12 168.014 334.535 168.314 333.845C168.614 333.125 168.794 332.42 168.854 331.73L175.154 333.125C175.034 334.235 174.734 335.315 174.254 336.365C173.804 337.385 173.129 338.3 172.229 339.11C171.329 339.89 170.204 340.505 168.854 340.955C167.534 341.405 165.929 341.63 164.039 341.63ZM178.542 341V317.24H185.787V341H178.542ZM182.187 313.91C180.807 313.91 179.742 313.625 178.992 313.055C178.272 312.455 177.912 311.615 177.912 310.535C177.912 309.395 178.272 308.54 178.992 307.97C179.742 307.37 180.807 307.07 182.187 307.07C183.597 307.07 184.662 307.37 185.382 307.97C186.132 308.54 186.507 309.38 186.507 310.49C186.507 311.6 186.132 312.455 185.382 313.055C184.662 313.625 183.597 313.91 182.187 313.91ZM196.998 341.63C195.678 341.63 194.508 341.375 193.488 340.865C192.468 340.325 191.673 339.56 191.103 338.57C190.533 337.55 190.248 336.32 190.248 334.88C190.248 333.53 190.503 332.42 191.013 331.55C191.553 330.65 192.318 329.945 193.308 329.435C194.328 328.895 195.543 328.46 196.953 328.13C198.363 327.77 199.968 327.455 201.768 327.185C202.638 327.035 203.358 326.9 203.928 326.78C204.528 326.63 204.978 326.405 205.278 326.105C205.578 325.805 205.728 325.37 205.728 324.8C205.728 324.05 205.458 323.405 204.918 322.865C204.378 322.325 203.508 322.055 202.308 322.055C201.468 322.055 200.703 322.205 200.013 322.505C199.353 322.805 198.783 323.24 198.303 323.81C197.823 324.38 197.463 325.07 197.223 325.88L190.833 323.99C191.223 322.73 191.763 321.635 192.453 320.705C193.173 319.775 194.028 319.01 195.018 318.41C196.008 317.78 197.133 317.33 198.393 317.06C199.683 316.76 201.048 316.61 202.488 316.61C204.888 316.61 206.838 317 208.338 317.78C209.868 318.53 210.993 319.715 211.713 321.335C212.463 322.925 212.838 324.98 212.838 327.5V331.145C212.838 332.225 212.853 333.32 212.883 334.43C212.943 335.51 213.003 336.605 213.063 337.715C213.153 338.795 213.258 339.89 213.378 341H206.988C206.868 340.31 206.748 339.485 206.628 338.525C206.508 337.535 206.418 336.53 206.358 335.51H205.503C205.083 336.65 204.468 337.7 203.658 338.66C202.878 339.59 201.918 340.325 200.778 340.865C199.668 341.375 198.408 341.63 196.998 341.63ZM200.283 336.5C200.823 336.5 201.363 336.41 201.903 336.23C202.473 336.02 203.013 335.75 203.523 335.42C204.033 335.06 204.498 334.625 204.918 334.115C205.338 333.605 205.653 333.05 205.863 332.45L205.773 328.895L206.763 329.12C206.193 329.48 205.563 329.765 204.873 329.975C204.183 330.185 203.478 330.35 202.758 330.47C202.068 330.59 201.378 330.725 200.688 330.875C200.028 330.995 199.428 331.16 198.888 331.37C198.378 331.58 197.973 331.865 197.673 332.225C197.373 332.585 197.223 333.08 197.223 333.71C197.223 334.55 197.508 335.225 198.078 335.735C198.648 336.245 199.383 336.5 200.283 336.5ZM218.181 341V308.6H225.291V341H218.181ZM242.22 341.63C240.24 341.63 238.47 341.375 236.91 340.865C235.35 340.325 234.015 339.545 232.905 338.525C231.825 337.505 231 336.245 230.43 334.745C229.86 333.245 229.575 331.52 229.575 329.57C229.575 327.68 229.845 325.94 230.385 324.35C230.955 322.76 231.75 321.395 232.77 320.255C233.82 319.085 235.095 318.185 236.595 317.555C238.125 316.925 239.835 316.61 241.725 316.61C243.645 316.61 245.325 316.925 246.765 317.555C248.235 318.155 249.435 319.055 250.365 320.255C251.325 321.455 252.03 322.925 252.48 324.665C252.93 326.375 253.08 328.34 252.93 330.56L234.345 330.695V326.915L248.79 326.78L246.225 328.535C246.435 327.035 246.345 325.82 245.955 324.89C245.565 323.93 244.995 323.24 244.245 322.82C243.495 322.37 242.685 322.145 241.815 322.145C240.765 322.145 239.835 322.43 239.025 323C238.245 323.57 237.63 324.395 237.18 325.475C236.73 326.555 236.505 327.875 236.505 329.435C236.505 331.895 237.03 333.68 238.08 334.79C239.16 335.9 240.525 336.455 242.175 336.455C242.985 336.455 243.66 336.35 244.2 336.14C244.74 335.9 245.175 335.615 245.505 335.285C245.865 334.925 246.135 334.535 246.315 334.115C246.525 333.695 246.69 333.29 246.81 332.9L253.11 334.25C252.87 335.36 252.48 336.365 251.94 337.265C251.43 338.165 250.725 338.945 249.825 339.605C248.955 340.265 247.89 340.76 246.63 341.09C245.4 341.45 243.93 341.63 242.22 341.63ZM267.276 341.63C265.686 341.63 264.246 341.48 262.956 341.18C261.666 340.91 260.541 340.505 259.581 339.965C258.621 339.425 257.826 338.78 257.196 338.03C256.596 337.25 256.176 336.395 255.936 335.465L261.336 333.08C261.546 333.59 261.906 334.115 262.416 334.655C262.956 335.165 263.661 335.585 264.531 335.915C265.431 336.245 266.511 336.41 267.771 336.41C268.971 336.41 269.901 336.245 270.561 335.915C271.251 335.555 271.596 335.045 271.596 334.385C271.596 333.905 271.401 333.53 271.011 333.26C270.651 332.96 270.096 332.705 269.346 332.495C268.596 332.255 267.666 332.03 266.556 331.82C265.416 331.58 264.261 331.31 263.091 331.01C261.921 330.68 260.826 330.245 259.806 329.705C258.786 329.135 257.961 328.4 257.331 327.5C256.731 326.57 256.431 325.4 256.431 323.99C256.431 322.52 256.821 321.245 257.601 320.165C258.381 319.055 259.536 318.185 261.066 317.555C262.626 316.925 264.516 316.61 266.736 316.61C268.716 316.61 270.456 316.865 271.956 317.375C273.456 317.885 274.701 318.62 275.691 319.58C276.711 320.51 277.416 321.635 277.806 322.955L272.001 325.025C271.851 324.365 271.536 323.795 271.056 323.315C270.606 322.835 270.021 322.475 269.301 322.235C268.611 321.965 267.786 321.83 266.826 321.83C265.656 321.83 264.741 322.01 264.081 322.37C263.451 322.73 263.136 323.21 263.136 323.81C263.136 324.29 263.346 324.695 263.766 325.025C264.216 325.325 264.846 325.58 265.656 325.79C266.466 326 267.426 326.225 268.536 326.465C269.706 326.705 270.861 326.99 272.001 327.32C273.171 327.62 274.221 328.04 275.151 328.58C276.111 329.09 276.861 329.78 277.401 330.65C277.971 331.49 278.256 332.585 278.256 333.935C278.256 335.525 277.836 336.905 276.996 338.075C276.156 339.215 274.911 340.1 273.261 340.73C271.641 341.33 269.646 341.63 267.276 341.63Z" fill="#D1CEED"/>
<path d="M295.575 322.104L293.207 298H303.657L301.406 322.104H295.575Z" fill="#FAEDC1"/>
<path fill-rule="evenodd" clip-rule="evenodd" d="M305.329 331.608C306.754 330.234 306.754 328.01 305.328 326.639C303.904 325.268 301.588 325.265 300.162 326.639L298.61 328.13C298.491 328.244 298.303 328.244 298.185 328.13L296.635 326.639C295.21 325.265 292.894 325.265 291.469 326.639C290.04 328.011 290.041 330.235 291.469 331.609L293.019 333.1C293.137 333.214 293.137 333.395 293.019 333.508L291.564 334.908C290.193 336.227 290.007 338.389 291.31 339.807C292.718 341.34 295.154 341.393 296.635 339.969L298.185 338.475C298.304 338.36 298.494 338.362 298.608 338.473L298.609 338.475L300.162 339.969C301.588 341.343 303.9 341.343 305.328 339.972L305.329 339.972C306.754 338.598 306.754 336.374 305.329 335L305.328 334.999L303.775 333.508C303.656 333.394 303.658 333.211 303.774 333.101L303.775 333.1L305.329 331.608Z" fill="#FAEDC1"/>
<path d="M78.3607 119.133H84.1918L86.4435 143H75.9936L78.3607 119.133Z" fill="#FAEDC1"/>
<path fill-rule="evenodd" clip-rule="evenodd" d="M88.329 105.941C89.7538 104.58 89.7542 102.378 88.3287 101.02C86.9038 99.6632 84.5884 99.6594 83.1627 101.021L81.61 102.497C81.4916 102.609 81.3033 102.61 81.1849 102.497L79.6352 101.021C78.2099 99.6598 75.8944 99.6598 74.469 101.02C73.0404 102.378 73.0408 104.581 74.469 105.941L76.019 107.418C76.1374 107.53 76.1374 107.709 76.019 107.822L74.5637 109.208C73.1932 110.514 73.0075 112.655 74.3106 114.059C75.7182 115.577 78.1546 115.629 79.6349 114.219L81.1849 112.74C81.3041 112.626 81.4942 112.628 81.6083 112.738L81.6097 112.74L83.1626 114.219C84.5881 115.58 86.9002 115.58 88.3285 114.223L88.329 114.222C89.7539 112.861 89.7539 110.659 88.329 109.299L88.3285 109.298L86.7756 107.822C86.6566 107.709 86.6586 107.528 86.7741 107.419L86.7754 107.418L88.329 105.941Z" fill="#FAEDC1"/>
</svg>
