<svg width="290" height="181" viewBox="0 0 290 181" fill="none" xmlns="http://www.w3.org/2000/svg">
<g style="mix-blend-mode:soft-light">
<mask id="path-1-inside-1_501_264" fill="white">
<path fill-rule="evenodd" clip-rule="evenodd" d="M31.1015 0C20.278 0 11.5038 8.77423 11.5038 19.5978V68.7406C11.4954 68.9252 11.4911 69.1117 11.4911 69.2999V72.9925C11.4911 75.3174 10.8252 77.4924 9.71193 78.8039L2.18843 87.6667C1.61079 88.1816 1.13392 88.924 0.774401 89.8014C0.237189 91.0465 -0.00752076 92.5014 0.000175879 93.9422C-0.00752075 95.383 0.237189 96.8379 0.774401 98.083C1.13392 98.9604 1.61079 99.7028 2.18843 100.218L9.71193 109.081C10.8252 110.392 11.4911 112.567 11.4911 114.892V118.584C11.4911 118.773 11.4954 118.959 11.5038 119.144V161.365C11.5038 172.188 20.278 180.963 31.1015 180.963H270.211C281.035 180.963 289.809 172.188 289.809 161.365V19.5977C289.809 8.7742 281.035 0 270.211 0H31.1015Z"/>
</mask>
<path d="M11.5038 68.7406L12.6903 68.7947L12.6915 68.7677V68.7406H11.5038ZM9.71193 78.8039L8.80644 78.0352L8.80644 78.0352L9.71193 78.8039ZM2.18843 87.6667L2.9787 88.5534L3.04042 88.4984L3.09392 88.4354L2.18843 87.6667ZM0.774401 89.8014L1.86497 90.2719L1.86931 90.2619L1.87346 90.2517L0.774401 89.8014ZM0.000175879 93.9422L1.18797 93.9485L1.1879 93.9358L0.000175879 93.9422ZM0.774401 98.083L1.87346 97.6327L1.86931 97.6225L1.86497 97.6124L0.774401 98.083ZM2.18843 100.218L3.09392 99.449L3.04042 99.386L2.9787 99.331L2.18843 100.218ZM9.71193 109.081L8.80644 109.849L8.80644 109.849L9.71193 109.081ZM11.5038 119.144H12.6915V119.117L12.6903 119.09L11.5038 119.144ZM12.6915 19.5978C12.6915 9.4302 20.934 1.18774 31.1015 1.18774V-1.18774C19.622 -1.18774 10.3161 8.11826 10.3161 19.5978H12.6915ZM12.6915 68.7406V19.5978H10.3161V68.7406H12.6915ZM10.3173 68.6865C10.3081 68.8891 10.3034 69.0937 10.3034 69.2999H12.6788C12.6788 69.1297 12.6827 68.9612 12.6903 68.7947L10.3173 68.6865ZM10.3034 69.2999V72.9925H12.6788V69.2999H10.3034ZM10.3034 72.9925C10.3034 75.1352 9.68217 77.0036 8.80644 78.0352L10.6174 79.5725C11.9683 77.9811 12.6788 75.4996 12.6788 72.9925H10.3034ZM8.80644 78.0352L1.28294 86.8981L3.09392 88.4354L10.6174 79.5725L8.80644 78.0352ZM1.39816 86.78C0.647135 87.4494 0.0805119 88.3622 -0.324659 89.3511L1.87346 90.2517C2.18732 89.4857 2.57444 88.9137 2.9787 88.5534L1.39816 86.78ZM-0.316164 89.3309C-0.93104 90.756 -1.19593 92.3792 -1.18755 93.9485L1.1879 93.9358C1.18089 92.6236 1.40542 91.3371 1.86497 90.2719L-0.316164 89.3309ZM-1.18755 93.9358C-1.19593 95.5052 -0.93104 97.1284 -0.316164 98.5535L1.86497 97.6124C1.40542 96.5473 1.18089 95.2608 1.1879 93.9485L-1.18755 93.9358ZM-0.324659 98.5333C0.0805119 99.5222 0.647135 100.435 1.39816 101.104L2.9787 99.331C2.57444 98.9707 2.18732 98.3987 1.87346 97.6327L-0.324659 98.5333ZM1.28294 100.986L8.80644 109.849L10.6174 108.312L3.09392 99.449L1.28294 100.986ZM8.80644 109.849C9.68217 110.881 10.3034 112.749 10.3034 114.892H12.6788C12.6788 112.385 11.9683 109.903 10.6174 108.312L8.80644 109.849ZM10.3034 114.892V118.584H12.6788V114.892H10.3034ZM10.3034 118.584C10.3034 118.791 10.3081 118.995 10.3173 119.198L12.6903 119.09C12.6827 118.923 12.6788 118.755 12.6788 118.584H10.3034ZM12.6915 161.365V119.144H10.3161V161.365H12.6915ZM31.1015 179.775C20.934 179.775 12.6915 171.532 12.6915 161.365H10.3161C10.3161 172.844 19.622 182.15 31.1015 182.15V179.775ZM270.211 179.775H31.1015V182.15H270.211V179.775ZM288.621 161.365C288.621 171.532 280.379 179.775 270.211 179.775V182.15C281.691 182.15 290.997 172.844 290.997 161.365H288.621ZM288.621 19.5977V161.365H290.997V19.5977H288.621ZM270.211 1.18774C280.379 1.18774 288.621 9.43018 288.621 19.5977H290.997C290.997 8.11823 281.691 -1.18774 270.211 -1.18774V1.18774ZM31.1015 1.18774H270.211V-1.18774H31.1015V1.18774Z" fill="#FFFFDC" mask="url(#path-1-inside-1_501_264)"/>
</g>
<path d="M52.0242 65.7053C50.7771 65.9547 49.7129 66.1127 48.8316 66.1792C47.9669 66.2457 47.1937 66.2457 46.5119 66.1792C45.8468 66.1127 45.1983 66.0129 44.5664 65.8799C43.9345 65.7469 43.2528 65.6138 42.5211 65.4808C41.7895 65.3478 40.9248 65.248 39.9271 65.1815C38.9294 65.115 37.7072 65.115 36.2605 65.1815V61.914C36.7095 61.9473 37.2665 61.9556 37.9317 61.939C38.6134 61.939 39.3368 61.9057 40.1017 61.8392C40.8832 61.7893 41.6564 61.7145 42.4213 61.6147C43.1862 61.5149 43.8846 61.3902 44.5165 61.2406C45.165 61.0743 45.6722 60.8831 46.038 60.6669V60.3426C44.6745 60.7417 43.4523 60.9329 42.3714 60.9163C41.3072 60.8997 40.376 60.7085 39.5779 60.3426C38.7963 59.9768 38.1562 59.4613 37.6573 58.7962C37.1584 58.1311 36.7843 57.3495 36.5349 56.4516C36.2855 55.5537 36.1607 54.5726 36.1607 53.5084C36.1607 52.2945 36.327 51.1721 36.6596 50.1411C36.9922 49.0935 37.491 48.1873 38.1562 47.4224C38.8213 46.6575 39.6527 46.0589 40.6504 45.6265C41.6481 45.1942 42.8204 44.978 44.1673 44.978C45.8301 44.978 47.2436 45.3189 48.4075 46.0007C49.5882 46.6824 50.4861 47.6552 51.1013 48.9189C51.7332 50.1827 52.0492 51.6959 52.0492 53.4585C52.0492 55.0548 51.8247 56.3934 51.3757 57.4742C50.9267 58.5385 50.3032 59.4031 49.505 60.0683C48.7235 60.7334 47.7923 61.2489 46.7115 61.6147C45.6472 61.9639 44.4916 62.2133 43.2444 62.363V62.7122C44.159 62.812 44.9904 62.8951 45.7387 62.9616C46.487 63.0281 47.202 63.0614 47.8838 63.0614C48.5655 63.0614 49.239 63.0198 49.9041 62.9367C50.5692 62.8535 51.2759 62.7122 52.0242 62.5126V65.7053ZM44.1923 59.0207C45.0569 59.0207 45.7719 58.8295 46.3373 58.447C46.9027 58.0479 47.3184 57.4576 47.5844 56.6761C47.8671 55.8945 48.0085 54.9135 48.0085 53.7329C48.0085 52.519 47.8588 51.5047 47.5595 50.6899C47.2768 49.8751 46.8362 49.2598 46.2375 48.8441C45.6556 48.4118 44.9239 48.1956 44.0426 48.1956C43.2112 48.1956 42.5045 48.4035 41.9225 48.8192C41.3571 49.2183 40.9331 49.8169 40.6504 50.615C40.3677 51.4132 40.2264 52.4109 40.2264 53.6081C40.2264 54.8054 40.3677 55.8114 40.6504 56.6262C40.9497 57.4244 41.3987 58.023 41.9973 58.4221C42.5959 58.8211 43.3276 59.0207 44.1923 59.0207ZM59.2461 62.1385C57.683 62.1385 56.5024 61.6147 55.7042 60.5671C54.9227 59.5029 54.5319 57.89 54.5319 55.7283V48.6196H58.5726V55.2045C58.5726 56.435 58.7555 57.3578 59.1214 57.9731C59.4872 58.5717 60.0442 58.871 60.7925 58.871C61.2415 58.871 61.6239 58.7629 61.9399 58.5468C62.2724 58.314 62.5468 57.998 62.763 57.599C62.9958 57.1832 63.1621 56.7093 63.2618 56.1772C63.3782 55.6451 63.4364 55.0631 63.4364 54.4312V48.6196H67.4522V56.4516V61.7893H64.2595L64.1847 57.7237H63.6858C63.4364 58.7546 63.1205 59.6027 62.738 60.2678C62.3722 60.9163 61.9066 61.3902 61.3412 61.6895C60.7759 61.9888 60.0775 62.1385 59.2461 62.1385ZM76.8004 62.1385C75.7029 62.1385 74.7218 61.9972 73.8572 61.7145C72.9925 61.4152 72.2525 60.9828 71.6373 60.4175C71.0386 59.8521 70.5814 59.1537 70.2654 58.3223C69.9495 57.4909 69.7915 56.5347 69.7915 55.4539C69.7915 54.4063 69.9412 53.4419 70.2405 52.5606C70.5564 51.6793 70.9971 50.9227 71.5624 50.2908C72.1444 49.6423 72.8511 49.1434 73.6826 48.7942C74.5306 48.445 75.4784 48.2704 76.526 48.2704C77.5902 48.2704 78.5214 48.445 79.3196 48.7942C80.1344 49.1268 80.7995 49.6256 81.315 50.2908C81.8471 50.9559 82.2379 51.7707 82.4873 52.7352C82.7367 53.683 82.8198 54.7721 82.7367 56.0026L72.4354 56.0775V53.9823L80.442 53.9075L79.0203 54.8802C79.1367 54.0488 79.0868 53.3753 78.8706 52.8599C78.6544 52.3278 78.3385 51.9453 77.9228 51.7125C77.5071 51.4631 77.0581 51.3384 76.5759 51.3384C75.9939 51.3384 75.4784 51.4963 75.0295 51.8123C74.5971 52.1282 74.2562 52.5855 74.0068 53.1841C73.7574 53.7827 73.6327 54.5144 73.6327 55.3791C73.6327 56.7426 73.9237 57.732 74.5057 58.3472C75.1043 58.9625 75.8609 59.2701 76.7754 59.2701C77.2244 59.2701 77.5985 59.2119 77.8978 59.0955C78.1972 58.9625 78.4383 58.8045 78.6212 58.6216C78.8207 58.4221 78.9704 58.2059 79.0701 57.9731C79.1865 57.7403 79.278 57.5158 79.3445 57.2996L82.8365 58.0479C82.7035 58.6632 82.4873 59.2202 82.188 59.7191C81.9053 60.2179 81.5145 60.6503 81.0157 61.0161C80.5334 61.3819 79.9431 61.6563 79.2447 61.8392C78.563 62.0387 77.7482 62.1385 76.8004 62.1385ZM85.1789 61.7893V55.6784V48.6196H88.4714L88.5462 53.0843H89.045C89.1614 51.9204 89.3776 50.9975 89.6935 50.3157C90.0261 49.6173 90.4917 49.1102 91.0903 48.7942C91.7056 48.4783 92.4622 48.3203 93.3601 48.3203C93.4931 48.3203 93.6428 48.3286 93.8091 48.3453C93.9753 48.3453 94.1666 48.3619 94.3827 48.3951L94.2331 52.6853C93.967 52.5522 93.676 52.4691 93.3601 52.4358C93.0608 52.386 92.7947 52.361 92.5619 52.361C91.9134 52.361 91.3481 52.4857 90.8658 52.7352C90.4002 52.9846 90.0261 53.367 89.7434 53.8825C89.4774 54.398 89.3028 55.0465 89.2196 55.828V61.7893H85.1789ZM102.571 62.1385C101.474 62.1385 100.493 61.9972 99.6279 61.7145C98.7632 61.4152 98.0233 60.9828 97.408 60.4175C96.8094 59.8521 96.3521 59.1537 96.0362 58.3223C95.7202 57.4909 95.5623 56.5347 95.5623 55.4539C95.5623 54.4063 95.7119 53.4419 96.0112 52.5606C96.3272 51.6793 96.7678 50.9227 97.3332 50.2908C97.9152 49.6423 98.6219 49.1434 99.4533 48.7942C100.301 48.445 101.249 48.2704 102.297 48.2704C103.361 48.2704 104.292 48.445 105.09 48.7942C105.905 49.1268 106.57 49.6256 107.086 50.2908C107.618 50.9559 108.009 51.7707 108.258 52.7352C108.507 53.683 108.591 54.7721 108.507 56.0026L98.2062 56.0775V53.9823L106.213 53.9075L104.791 54.8802C104.907 54.0488 104.858 53.3753 104.641 52.8599C104.425 52.3278 104.109 51.9453 103.694 51.7125C103.278 51.4631 102.829 51.3384 102.347 51.3384C101.765 51.3384 101.249 51.4963 100.8 51.8123C100.368 52.1282 100.027 52.5855 99.7775 53.1841C99.5281 53.7827 99.4034 54.5144 99.4034 55.3791C99.4034 56.7426 99.6944 57.732 100.276 58.3472C100.875 58.9625 101.632 59.2701 102.546 59.2701C102.995 59.2701 103.369 59.2119 103.669 59.0955C103.968 58.9625 104.209 58.8045 104.392 58.6216C104.591 58.4221 104.741 58.2059 104.841 57.9731C104.957 57.7403 105.049 57.5158 105.115 57.2996L108.607 58.0479C108.474 58.6632 108.258 59.2202 107.959 59.7191C107.676 60.2179 107.285 60.6503 106.786 61.0161C106.304 61.3819 105.714 61.6563 105.015 61.8392C104.334 62.0387 103.519 62.1385 102.571 62.1385ZM110.95 61.7893V53.2839V48.6196H114.117L114.167 52.4857H114.666C114.899 51.5379 115.207 50.7564 115.589 50.1411C115.971 49.5092 116.437 49.0437 116.986 48.7443C117.535 48.4284 118.175 48.2704 118.906 48.2704C119.671 48.2704 120.303 48.4367 120.802 48.7693C121.317 49.0852 121.725 49.5591 122.024 50.191C122.323 50.8063 122.523 51.5712 122.623 52.4857H123.047C123.313 51.5047 123.662 50.7065 124.094 50.0912C124.527 49.4594 125.042 49.0021 125.641 48.7194C126.239 48.4201 126.888 48.2704 127.586 48.2704C128.335 48.2704 128.983 48.4201 129.532 48.7194C130.097 49.0021 130.563 49.4344 130.929 50.0164C131.311 50.5818 131.594 51.2968 131.777 52.1615C131.96 53.0095 132.051 53.9989 132.051 55.1296V61.7893H128.01V55.6285C128.01 54.7472 127.936 54.0155 127.786 53.4335C127.653 52.8516 127.437 52.4192 127.137 52.1365C126.838 51.8372 126.456 51.6876 125.99 51.6876C125.458 51.6876 125.001 51.8622 124.618 52.2114C124.252 52.5606 123.97 53.0511 123.77 53.683C123.571 54.2982 123.471 54.9966 123.471 55.7781V61.7893H119.53V55.7033C119.53 54.7888 119.447 54.0405 119.28 53.4585C119.131 52.8765 118.898 52.4358 118.582 52.1365C118.283 51.8372 117.9 51.6876 117.435 51.6876C116.903 51.6876 116.454 51.8622 116.088 52.2114C115.722 52.5606 115.439 53.0511 115.24 53.683C115.057 54.2982 114.965 54.9966 114.965 55.7781V61.7893H110.95ZM141.028 62.1385C139.697 62.1385 138.517 61.8808 137.486 61.3653C136.472 60.8498 135.673 60.0766 135.091 59.0456C134.509 58.0147 134.218 56.726 134.218 55.1795C134.218 53.6331 134.509 52.3527 135.091 51.3384C135.673 50.3074 136.48 49.5425 137.511 49.0437C138.542 48.5282 139.722 48.2704 141.053 48.2704C142.383 48.2704 143.564 48.5282 144.594 49.0437C145.625 49.5591 146.432 50.3324 147.014 51.3633C147.596 52.3776 147.887 53.658 147.887 55.2045C147.887 56.7842 147.588 58.0895 146.989 59.1205C146.39 60.1514 145.567 60.9163 144.52 61.4152C143.489 61.8974 142.325 62.1385 141.028 62.1385ZM141.152 59.2202C141.751 59.2202 142.25 59.0872 142.649 58.8211C143.048 58.5385 143.347 58.1144 143.547 57.5491C143.746 56.9837 143.846 56.2853 143.846 55.4539C143.846 54.5726 143.738 53.8326 143.522 53.234C143.306 52.6188 142.982 52.1532 142.549 51.8372C142.133 51.5047 141.593 51.3384 140.928 51.3384C140.363 51.3384 139.872 51.4797 139.456 51.7624C139.057 52.0284 138.758 52.4442 138.558 53.0095C138.359 53.5749 138.259 54.2816 138.259 55.1296C138.259 56.4932 138.508 57.5158 139.007 58.1976C139.523 58.8793 140.238 59.2202 141.152 59.2202ZM155.773 62.1385C154.892 62.1385 154.093 62.0554 153.378 61.8891C152.663 61.7394 152.04 61.5149 151.508 61.2156C150.976 60.9163 150.535 60.5588 150.186 60.1431C149.853 59.7108 149.62 59.2369 149.487 58.7214L152.48 57.3994C152.597 57.6821 152.796 57.9731 153.079 58.2724C153.378 58.5551 153.769 58.7879 154.251 58.9708C154.75 59.1537 155.349 59.2452 156.047 59.2452C156.712 59.2452 157.228 59.1537 157.594 58.9708C157.976 58.7713 158.167 58.4886 158.167 58.1227C158.167 57.8567 158.059 57.6488 157.843 57.4992C157.644 57.3329 157.336 57.1916 156.92 57.0752C156.504 56.9421 155.989 56.8174 155.374 56.701C154.742 56.568 154.102 56.4183 153.453 56.2521C152.805 56.0691 152.198 55.828 151.632 55.5287C151.067 55.2128 150.61 54.8054 150.261 54.3065C149.928 53.7911 149.762 53.1425 149.762 52.361C149.762 51.5462 149.978 50.8395 150.41 50.2409C150.843 49.6256 151.483 49.1434 152.331 48.7942C153.195 48.445 154.243 48.2704 155.474 48.2704C156.571 48.2704 157.535 48.4118 158.367 48.6945C159.198 48.9771 159.888 49.3845 160.437 49.9166C161.002 50.4321 161.393 51.0557 161.609 51.7873L158.392 52.9347C158.309 52.5689 158.134 52.2529 157.868 51.9869C157.619 51.7208 157.294 51.5213 156.895 51.3883C156.513 51.2386 156.056 51.1638 155.523 51.1638C154.875 51.1638 154.368 51.2635 154.002 51.4631C153.653 51.6626 153.478 51.9287 153.478 52.2612C153.478 52.5273 153.595 52.7518 153.827 52.9347C154.077 53.101 154.426 53.2423 154.875 53.3587C155.324 53.4751 155.856 53.5998 156.471 53.7329C157.12 53.8659 157.76 54.0239 158.392 54.2068C159.04 54.373 159.622 54.6058 160.138 54.9052C160.67 55.1878 161.086 55.5703 161.385 56.0525C161.701 56.5181 161.859 57.125 161.859 57.8733C161.859 58.7546 161.626 59.5195 161.16 60.168C160.695 60.7999 160.005 61.2905 159.09 61.6397C158.192 61.9722 157.086 62.1385 155.773 62.1385Z" fill="#D1CEED"/>
<path d="M177.517 65.5415V62.2333C177.517 61.8781 177.54 61.5155 177.584 61.1454C177.643 60.7606 177.717 60.361 177.806 59.9465C177.895 59.5173 177.984 59.0955 178.073 58.681H177.606C177.369 59.4359 177.073 60.0723 176.718 60.5904C176.378 61.0936 175.949 61.4711 175.43 61.7227C174.927 61.9743 174.306 62.1001 173.566 62.1001C172.529 62.1001 171.656 61.8337 170.946 61.3009C170.25 60.768 169.725 60.0427 169.369 59.1251C169.014 58.2074 168.836 57.1713 168.836 56.0168C168.836 54.7143 169.036 53.5968 169.436 52.6643C169.836 51.7318 170.413 51.0139 171.168 50.5107C171.923 50.0074 172.811 49.7558 173.832 49.7558C174.528 49.7558 175.142 49.889 175.675 50.1554C176.222 50.4071 176.666 50.7993 177.007 51.3321C177.362 51.865 177.599 52.5533 177.717 53.3969H178.184V50.0888H181.114V55.928V65.5415H177.517ZM174.942 59.2805C175.268 59.2805 175.564 59.2213 175.83 59.1029C176.097 58.9844 176.333 58.8216 176.541 58.6144C176.748 58.4072 176.925 58.1778 177.073 57.9262C177.221 57.6597 177.332 57.3859 177.406 57.1047C177.48 56.8235 177.517 56.5422 177.517 56.261V55.7726C177.517 55.4617 177.473 55.1287 177.384 54.7735C177.295 54.4034 177.155 54.063 176.962 53.7522C176.77 53.4265 176.511 53.1675 176.185 52.9751C175.875 52.7679 175.49 52.6643 175.031 52.6643C174.542 52.6643 174.113 52.8049 173.743 53.0861C173.373 53.3525 173.092 53.7374 172.899 54.2406C172.707 54.7439 172.611 55.3433 172.611 56.039C172.611 56.6754 172.7 57.2379 172.877 57.7263C173.07 58.2148 173.336 58.5996 173.677 58.8808C174.032 59.1473 174.454 59.2805 174.942 59.2805ZM187.895 62.1001C186.504 62.1001 185.453 61.6339 184.742 60.7014C184.047 59.7541 183.699 58.3184 183.699 56.3942V50.0666H187.296V55.928C187.296 57.0233 187.458 57.8447 187.784 58.3924C188.11 58.9252 188.605 59.1917 189.272 59.1917C189.671 59.1917 190.012 59.0955 190.293 58.903C190.589 58.6958 190.833 58.4146 191.026 58.0594C191.233 57.6893 191.381 57.2675 191.47 56.7938C191.573 56.3202 191.625 55.8022 191.625 55.2397V50.0666H195.199V57.0381V61.7893H192.358L192.291 58.1704H191.847C191.625 59.0881 191.344 59.8429 191.003 60.435C190.678 61.0122 190.263 61.4341 189.76 61.7005C189.257 61.9669 188.635 62.1001 187.895 62.1001ZM203.521 62.1001C202.544 62.1001 201.67 61.9743 200.901 61.7227C200.131 61.4563 199.472 61.0714 198.925 60.5682C198.392 60.0649 197.985 59.4433 197.704 58.7032C197.422 57.9632 197.282 57.1121 197.282 56.15C197.282 55.2175 197.415 54.359 197.681 53.5746C197.963 52.7901 198.355 52.1166 198.858 51.5542C199.376 50.9769 200.005 50.5329 200.745 50.222C201.5 49.9112 202.344 49.7558 203.276 49.7558C204.224 49.7558 205.053 49.9112 205.763 50.222C206.488 50.5181 207.08 50.9621 207.539 51.5542C208.013 52.1462 208.361 52.8715 208.583 53.73C208.805 54.5736 208.879 55.5431 208.805 56.6384L199.635 56.705V54.8401L206.762 54.7735L205.497 55.6393C205.6 54.8993 205.556 54.2998 205.363 53.841C205.171 53.3673 204.89 53.0269 204.52 52.8197C204.15 52.5977 203.75 52.4867 203.321 52.4867C202.803 52.4867 202.344 52.6273 201.944 52.9085C201.559 53.1897 201.256 53.5968 201.034 54.1296C200.812 54.6625 200.701 55.3137 200.701 56.0834C200.701 57.2971 200.96 58.1778 201.478 58.7254C202.011 59.2731 202.684 59.5469 203.498 59.5469C203.898 59.5469 204.231 59.4951 204.497 59.3915C204.764 59.2731 204.979 59.1325 205.141 58.9696C205.319 58.792 205.452 58.5996 205.541 58.3924C205.645 58.1852 205.726 57.9854 205.785 57.7929L208.893 58.459C208.775 59.0067 208.583 59.5025 208.316 59.9465C208.065 60.3906 207.717 60.7754 207.273 61.101C206.843 61.4267 206.318 61.6709 205.696 61.8337C205.09 62.0113 204.364 62.1001 203.521 62.1001ZM41.9432 87.1001C40.9367 87.1001 40.0486 86.9595 39.2789 86.6783C38.5092 86.3971 37.8654 85.9974 37.3473 85.4794C36.8293 84.9465 36.4297 84.3101 36.1484 83.57C35.882 82.8299 35.7488 82.0011 35.7488 81.0834C35.7488 80.1361 35.882 79.2776 36.1484 78.5079C36.4297 77.7383 36.8293 77.0722 37.3473 76.5098C37.8654 75.9473 38.5018 75.5181 39.2567 75.222C40.0116 74.9112 40.8775 74.7558 41.8544 74.7558C42.8312 74.7558 43.6749 74.9112 44.3854 75.222C45.0959 75.5329 45.6731 75.9695 46.1171 76.532C46.576 77.0944 46.8868 77.7457 47.0496 78.4857L43.7415 79.5958C43.6971 79.1074 43.5787 78.7078 43.3863 78.3969C43.1939 78.0861 42.9423 77.8641 42.6314 77.7309C42.3354 77.5829 42.0098 77.5089 41.6545 77.5089C41.2845 77.5089 40.9589 77.5829 40.6776 77.7309C40.3964 77.8789 40.1596 78.1009 39.9672 78.3969C39.7748 78.693 39.6268 79.0556 39.5231 79.4848C39.4195 79.8993 39.3677 80.3803 39.3677 80.928C39.3677 81.7124 39.4639 82.3711 39.6564 82.9039C39.8636 83.422 40.1596 83.8142 40.5444 84.0807C40.9441 84.3471 41.4251 84.4803 41.9876 84.4803C42.5648 84.4803 43.0163 84.3619 43.3419 84.1251C43.6675 83.8882 43.9043 83.5996 44.0524 83.2592C44.2004 82.9039 44.2892 82.5561 44.3188 82.2157L47.4271 82.9039C47.3679 83.4516 47.2198 83.9844 46.983 84.5025C46.761 85.0057 46.428 85.4572 45.9839 85.8568C45.5399 86.2417 44.9848 86.5451 44.3188 86.7671C43.6675 86.9891 42.8756 87.1001 41.9432 87.1001ZM53.1172 87.1001C51.7259 87.1001 50.675 86.6339 49.9645 85.7014C49.2689 84.7541 48.921 83.3184 48.921 81.3942V75.0666H52.5178V80.928C52.5178 82.0233 52.6806 82.8447 53.0062 83.3924C53.3318 83.9252 53.8277 84.1917 54.4937 84.1917C54.8934 84.1917 55.2338 84.0955 55.515 83.903C55.8111 83.6958 56.0553 83.4146 56.2477 83.0594C56.4549 82.6893 56.6029 82.2675 56.6917 81.7938C56.7953 81.3202 56.8471 80.8022 56.8471 80.2397V75.0666H60.4217V82.0381V86.7893H57.5798L57.5132 83.1704H57.0692C56.8471 84.0881 56.5659 84.8429 56.2255 85.435C55.8999 86.0122 55.4854 86.4341 54.9822 86.7005C54.4789 86.9669 53.8573 87.1001 53.1172 87.1001ZM63.17 86.7893V75.0666H66.7446V86.7893H63.17ZM64.9684 73.4237C64.2875 73.4237 63.7621 73.2831 63.3921 73.0018C63.0368 72.7058 62.8592 72.2914 62.8592 71.7585C62.8592 71.1961 63.0368 70.7742 63.3921 70.493C63.7621 70.197 64.2875 70.049 64.9684 70.049C65.6641 70.049 66.1895 70.197 66.5448 70.493C66.9148 70.7742 67.0998 71.1887 67.0998 71.7363C67.0998 72.284 66.9148 72.7058 66.5448 73.0018C66.1895 73.2831 65.6641 73.4237 64.9684 73.4237ZM73.8078 87.1001C72.8309 87.1001 71.9724 86.8559 71.2323 86.3675C70.5071 85.8642 69.9372 85.1538 69.5228 84.2361C69.1083 83.3036 68.9011 82.1935 68.9011 80.9058C68.9011 79.7217 69.0787 78.6708 69.434 77.7531C69.7892 76.8354 70.3147 76.1175 71.0103 75.5995C71.7208 75.0666 72.5941 74.8002 73.6302 74.8002C74.3702 74.8002 74.9919 74.9334 75.4951 75.1998C76.0132 75.4663 76.4424 75.8659 76.7828 76.3988C77.1233 76.9316 77.3971 77.6051 77.6043 78.4191H78.1594C78.0558 77.9159 77.9596 77.4422 77.8707 76.9982C77.7819 76.5394 77.7079 76.1175 77.6487 75.7327C77.6043 75.3331 77.5821 74.9852 77.5821 74.6892V70.8038H81.1788V81.0612V86.7893H78.2482L78.2038 83.3258H77.7153C77.5525 84.2139 77.2935 84.9391 76.9383 85.5016C76.5978 86.0492 76.1612 86.4563 75.6283 86.7227C75.1103 86.9743 74.5034 87.1001 73.8078 87.1001ZM75.0955 84.2139C75.5543 84.2139 75.9392 84.1177 76.25 83.9252C76.5756 83.718 76.8346 83.459 77.0271 83.1482C77.2195 82.8373 77.3601 82.5043 77.4489 82.1491C77.5377 81.7938 77.5821 81.4608 77.5821 81.15V80.6837C77.5821 80.4025 77.5451 80.1213 77.4711 79.8401C77.3971 79.5588 77.2861 79.285 77.1381 79.0186C77.0049 78.7522 76.8346 78.5153 76.6274 78.3081C76.4202 78.1009 76.176 77.9381 75.8948 77.8197C75.6283 77.7013 75.3323 77.6421 75.0067 77.6421C74.5182 77.6421 74.0964 77.7753 73.7412 78.0417C73.4007 78.3081 73.1343 78.6856 72.9419 79.174C72.7643 79.6625 72.6755 80.2397 72.6755 80.9058C72.6755 81.5718 72.7717 82.1565 72.9641 82.6597C73.1565 83.1482 73.4377 83.533 73.8078 83.8142C74.1778 84.0807 74.607 84.2139 75.0955 84.2139ZM89.5138 87.1001C88.5369 87.1001 87.6636 86.9743 86.894 86.7227C86.1243 86.4563 85.4656 86.0714 84.918 85.5682C84.3851 85.0649 83.9781 84.4433 83.6969 83.7032C83.4156 82.9632 83.275 82.1121 83.275 81.15C83.275 80.2175 83.4082 79.359 83.6747 78.5746C83.9559 77.7901 84.3481 77.1166 84.8514 76.5542C85.3694 75.9769 85.9985 75.5329 86.7386 75.222C87.4934 74.9112 88.3371 74.7558 89.2696 74.7558C90.2169 74.7558 91.0457 74.9112 91.7562 75.222C92.4815 75.5181 93.0735 75.9621 93.5324 76.5542C94.006 77.1462 94.3539 77.8715 94.5759 78.73C94.7979 79.5736 94.8719 80.5431 94.7979 81.6384L85.6284 81.705V79.8401L92.7553 79.7735L91.4898 80.6393C91.5934 79.8993 91.549 79.2998 91.3566 78.841C91.1642 78.3673 90.8829 78.0269 90.5129 77.8197C90.1429 77.5977 89.7432 77.4867 89.314 77.4867C88.7959 77.4867 88.3371 77.6273 87.9375 77.9085C87.5526 78.1897 87.2492 78.5968 87.0272 79.1296C86.8052 79.6625 86.6941 80.3137 86.6941 81.0834C86.6941 82.2971 86.9532 83.1778 87.4712 83.7254C88.0041 84.2731 88.6775 84.5469 89.4916 84.5469C89.8912 84.5469 90.2243 84.4951 90.4907 84.3915C90.7571 84.2731 90.9717 84.1325 91.1346 83.9696C91.3122 83.792 91.4454 83.5996 91.5342 83.3924C91.6378 83.1852 91.7192 82.9854 91.7784 82.7929L94.8867 83.459C94.7683 84.0067 94.5759 84.5025 94.3094 84.9465C94.0578 85.3906 93.71 85.7754 93.266 86.101C92.8367 86.4267 92.3113 86.6709 91.6896 86.8337C91.0827 87.0113 90.3575 87.1001 89.5138 87.1001ZM101.876 87.1001C101.091 87.1001 100.381 87.0261 99.7444 86.8781C99.108 86.7449 98.5529 86.5451 98.0793 86.2787C97.6056 86.0122 97.2134 85.694 96.9026 85.324C96.6065 84.9391 96.3993 84.5173 96.2809 84.0585L98.9452 82.8817C99.0488 83.1334 99.2264 83.3924 99.478 83.6588C99.7444 83.9104 100.092 84.1177 100.522 84.2805C100.966 84.4433 101.498 84.5247 102.12 84.5247C102.712 84.5247 103.171 84.4433 103.497 84.2805C103.837 84.1029 104.007 83.8512 104.007 83.5256C104.007 83.2888 103.911 83.1038 103.719 82.9706C103.541 82.8225 103.267 82.6967 102.897 82.5931C102.527 82.4747 102.068 82.3637 101.521 82.2601C100.958 82.1417 100.388 82.0085 99.811 81.8605C99.2338 81.6976 98.6935 81.483 98.1903 81.2166C97.687 80.9354 97.28 80.5727 96.9692 80.1287C96.6732 79.6699 96.5251 79.0926 96.5251 78.3969C96.5251 77.6717 96.7176 77.0426 97.1024 76.5098C97.4872 75.9621 98.0571 75.5329 98.8119 75.222C99.5816 74.9112 100.514 74.7558 101.609 74.7558C102.586 74.7558 103.445 74.8816 104.185 75.1332C104.925 75.3849 105.539 75.7475 106.028 76.2211C106.531 76.68 106.879 77.235 107.071 77.8863L104.207 78.9076C104.133 78.582 103.978 78.3007 103.741 78.0639C103.519 77.8271 103.23 77.6495 102.875 77.5311C102.534 77.3978 102.127 77.3312 101.654 77.3312C101.077 77.3312 100.625 77.42 100.299 77.5977C99.9887 77.7753 99.8332 78.0121 99.8332 78.3081C99.8332 78.5449 99.9369 78.7448 100.144 78.9076C100.366 79.0556 100.677 79.1814 101.077 79.285C101.476 79.3886 101.95 79.4996 102.497 79.618C103.075 79.7365 103.645 79.8771 104.207 80.0399C104.784 80.1879 105.302 80.3951 105.761 80.6615C106.235 80.9132 106.605 81.2536 106.871 81.6828C107.153 82.0973 107.293 82.6375 107.293 83.3036C107.293 84.0881 107.086 84.7689 106.671 85.3462C106.257 85.9086 105.643 86.3453 104.829 86.6561C104.029 86.9521 103.045 87.1001 101.876 87.1001ZM118.782 87.0779C117.406 87.0779 116.392 86.7153 115.741 85.99C115.089 85.25 114.764 84.0733 114.764 82.4599V77.8641H113.099L113.165 75.0888H114.364C114.838 75.074 115.193 75 115.43 74.8668C115.681 74.7336 115.837 74.482 115.896 74.1119L116.185 72.469H118.205V75.0666H121.025V77.9751H118.205V82.3045C118.205 82.8077 118.323 83.1778 118.56 83.4146C118.812 83.6514 119.189 83.7698 119.693 83.7698C119.974 83.7698 120.24 83.7402 120.492 83.681C120.744 83.6218 120.951 83.5404 121.114 83.4368V86.7449C120.64 86.8929 120.203 86.9817 119.804 87.0113C119.419 87.0557 119.078 87.0779 118.782 87.0779ZM127.247 87.1001C125.856 87.1001 124.805 86.6339 124.094 85.7014C123.399 84.7541 123.051 83.3184 123.051 81.3942V75.0666H126.647V80.928C126.647 82.0233 126.81 82.8447 127.136 83.3924C127.461 83.9252 127.957 84.1917 128.623 84.1917C129.023 84.1917 129.363 84.0955 129.645 83.903C129.941 83.6958 130.185 83.4146 130.377 83.0594C130.585 82.6893 130.733 82.2675 130.821 81.7938C130.925 81.3202 130.977 80.8022 130.977 80.2397V75.0666H134.551V82.0381V86.7893H131.709L131.643 83.1704H131.199C130.977 84.0881 130.696 84.8429 130.355 85.435C130.03 86.0122 129.615 86.4341 129.112 86.7005C128.609 86.9669 127.987 87.1001 127.247 87.1001ZM41.9876 112.1C41.0107 112.1 40.1374 111.974 39.3677 111.723C38.5981 111.456 37.9394 111.071 37.3917 110.568C36.8589 110.065 36.4519 109.443 36.1706 108.703C35.8894 107.963 35.7488 107.112 35.7488 106.15C35.7488 105.218 35.882 104.359 36.1484 103.575C36.4297 102.79 36.8219 102.117 37.3251 101.554C37.8432 100.977 38.4722 100.533 39.2123 100.222C39.9672 99.9112 40.8109 99.7558 41.7433 99.7558C42.6906 99.7558 43.5195 99.9112 44.23 100.222C44.9552 100.518 45.5473 100.962 46.0061 101.554C46.4798 102.146 46.8276 102.871 47.0496 103.73C47.2717 104.574 47.3457 105.543 47.2717 106.638L38.1022 106.705V104.84L45.2291 104.773L43.9635 105.639C44.0672 104.899 44.0228 104.3 43.8303 103.841C43.6379 103.367 43.3567 103.027 42.9867 102.82C42.6166 102.598 42.217 102.487 41.7878 102.487C41.2697 102.487 40.8109 102.627 40.4112 102.908C40.0264 103.19 39.723 103.597 39.5009 104.13C39.2789 104.662 39.1679 105.314 39.1679 106.083C39.1679 107.297 39.4269 108.178 39.945 108.725C40.4778 109.273 41.1513 109.547 41.9654 109.547C42.365 109.547 42.698 109.495 42.9645 109.391C43.2309 109.273 43.4455 109.132 43.6083 108.97C43.7859 108.792 43.9191 108.6 44.008 108.392C44.1116 108.185 44.193 107.985 44.2522 107.793L47.3605 108.459C47.2421 109.007 47.0496 109.502 46.7832 109.947C46.5316 110.391 46.1838 110.775 45.7397 111.101C45.3105 111.427 44.785 111.671 44.1634 111.834C43.5565 112.011 42.8312 112.1 41.9876 112.1ZM47.923 111.789L51.7861 105.928L47.9452 100.067H52.0525L53.9841 104.374H54.406L56.3375 100.067H60.4449L56.5818 105.928L60.4671 111.789H56.3819L54.406 107.438H53.9841L52.0525 111.789H47.923ZM62.086 115.541V106.061V100.067H65.0166L65.061 103.397L65.4607 103.441C65.5939 102.612 65.8307 101.924 66.1711 101.377C66.5116 100.829 66.9482 100.422 67.4811 100.155C68.0287 99.889 68.6504 99.7558 69.346 99.7558C70.3821 99.7558 71.2702 100.007 72.0103 100.511C72.7651 101.014 73.3424 101.732 73.742 102.664C74.1417 103.597 74.3415 104.714 74.3415 106.017C74.3415 107.171 74.1639 108.207 73.8086 109.125C73.4682 110.043 72.9428 110.768 72.2323 111.301C71.5366 111.834 70.6485 112.1 69.568 112.1C68.8428 112.1 68.2285 111.974 67.7253 111.723C67.222 111.456 66.7928 111.071 66.4376 110.568C66.0971 110.065 65.8085 109.436 65.5717 108.681H65.1498C65.2387 109.081 65.3201 109.488 65.3941 109.902C65.4681 110.317 65.5273 110.716 65.5717 111.101C65.6309 111.486 65.6605 111.856 65.6605 112.211V115.541H62.086ZM68.2581 109.28C68.7466 109.28 69.161 109.147 69.5014 108.881C69.8567 108.614 70.1305 108.237 70.3229 107.749C70.5153 107.26 70.6115 106.69 70.6115 106.039C70.6115 105.343 70.5079 104.751 70.3007 104.263C70.1083 103.76 69.8271 103.375 69.457 103.108C69.087 102.827 68.6578 102.686 68.1693 102.686C67.7105 102.686 67.3182 102.79 66.9926 102.997C66.6818 103.19 66.4228 103.449 66.2155 103.774C66.0231 104.085 65.8825 104.418 65.7937 104.773C65.7049 105.129 65.6605 105.462 65.6605 105.773V106.261C65.6605 106.542 65.6975 106.823 65.7715 107.105C65.8455 107.386 65.9565 107.66 66.1045 107.926C66.2525 108.178 66.4302 108.407 66.6374 108.614C66.8446 108.822 67.0814 108.984 67.3478 109.103C67.6291 109.221 67.9325 109.28 68.2581 109.28ZM82.0987 112.1C81.1218 112.1 80.2485 111.974 79.4788 111.723C78.7092 111.456 78.0505 111.071 77.5028 110.568C76.97 110.065 76.563 109.443 76.2817 108.703C76.0005 107.963 75.8599 107.112 75.8599 106.15C75.8599 105.218 75.9931 104.359 76.2595 103.575C76.5408 102.79 76.933 102.117 77.4362 101.554C77.9543 100.977 78.5833 100.533 79.3234 100.222C80.0783 99.9112 80.922 99.7558 81.8544 99.7558C82.8017 99.7558 83.6306 99.9112 84.3411 100.222C85.0663 100.518 85.6584 100.962 86.1172 101.554C86.5909 102.146 86.9387 102.871 87.1607 103.73C87.3828 104.574 87.4568 105.543 87.3828 106.638L78.2133 106.705V104.84L85.3402 104.773L84.0747 105.639C84.1783 104.899 84.1339 104.3 83.9414 103.841C83.749 103.367 83.4678 103.027 83.0978 102.82C82.7277 102.598 82.3281 102.487 81.8989 102.487C81.3808 102.487 80.922 102.627 80.5223 102.908C80.1375 103.19 79.8341 103.597 79.612 104.13C79.39 104.662 79.279 105.314 79.279 106.083C79.279 107.297 79.538 108.178 80.0561 108.725C80.5889 109.273 81.2624 109.547 82.0765 109.547C82.4761 109.547 82.8091 109.495 83.0756 109.391C83.342 109.273 83.5566 109.132 83.7194 108.97C83.897 108.792 84.0302 108.6 84.1191 108.392C84.2227 108.185 84.3041 107.985 84.3633 107.793L87.4716 108.459C87.3532 109.007 87.1607 109.502 86.8943 109.947C86.6427 110.391 86.2949 110.775 85.8508 111.101C85.4216 111.427 84.8961 111.671 84.2745 111.834C83.6676 112.011 82.9423 112.1 82.0987 112.1ZM89.5566 111.789V106.35V100.067H92.4873L92.5539 104.041H92.998C93.1016 103.005 93.294 102.183 93.5752 101.576C93.8712 100.955 94.2857 100.503 94.8185 100.222C95.3662 99.9408 96.0396 99.8002 96.8389 99.8002C96.9573 99.8002 97.0905 99.8076 97.2386 99.8224C97.3866 99.8224 97.5568 99.8372 97.7492 99.8668L97.616 103.686C97.3792 103.567 97.1201 103.493 96.8389 103.464C96.5725 103.419 96.3357 103.397 96.1285 103.397C95.5512 103.397 95.048 103.508 94.6187 103.73C94.2043 103.952 93.8712 104.292 93.6196 104.751C93.3828 105.21 93.2274 105.787 93.1534 106.483V111.789H89.5566ZM99.4652 111.789V100.067H103.04V111.789H99.4652ZM101.264 98.4237C100.583 98.4237 100.057 98.2831 99.6872 98.0018C99.332 97.7058 99.1543 97.2914 99.1543 96.7585C99.1543 96.1961 99.332 95.7742 99.6872 95.493C100.057 95.197 100.583 95.049 101.264 95.049C101.959 95.049 102.485 95.197 102.84 95.493C103.21 95.7742 103.395 96.1887 103.395 96.7363C103.395 97.284 103.21 97.7058 102.84 98.0018C102.485 98.2831 101.959 98.4237 101.264 98.4237ZM111.391 112.1C110.414 112.1 109.54 111.974 108.771 111.723C108.001 111.456 107.342 111.071 106.795 110.568C106.262 110.065 105.855 109.443 105.574 108.703C105.292 107.963 105.152 107.112 105.152 106.15C105.152 105.218 105.285 104.359 105.551 103.575C105.833 102.79 106.225 102.117 106.728 101.554C107.246 100.977 107.875 100.533 108.615 100.222C109.37 99.9112 110.214 99.7558 111.146 99.7558C112.094 99.7558 112.923 99.9112 113.633 100.222C114.358 100.518 114.95 100.962 115.409 101.554C115.883 102.146 116.231 102.871 116.453 103.73C116.675 104.574 116.749 105.543 116.675 106.638L107.505 106.705V104.84L114.632 104.773L113.367 105.639C113.47 104.899 113.426 104.3 113.233 103.841C113.041 103.367 112.76 103.027 112.39 102.82C112.02 102.598 111.62 102.487 111.191 102.487C110.673 102.487 110.214 102.627 109.814 102.908C109.429 103.19 109.126 103.597 108.904 104.13C108.682 104.662 108.571 105.314 108.571 106.083C108.571 107.297 108.83 108.178 109.348 108.725C109.881 109.273 110.554 109.547 111.368 109.547C111.768 109.547 112.101 109.495 112.368 109.391C112.634 109.273 112.849 109.132 113.011 108.97C113.189 108.792 113.322 108.6 113.411 108.392C113.515 108.185 113.596 107.985 113.655 107.793L116.764 108.459C116.645 109.007 116.453 109.502 116.186 109.947C115.935 110.391 115.587 110.775 115.143 111.101C114.714 111.427 114.188 111.671 113.566 111.834C112.96 112.011 112.234 112.1 111.391 112.1ZM118.849 111.789V104.729V100.067H121.735L121.779 103.508H122.223C122.416 102.679 122.69 101.983 123.045 101.421C123.4 100.859 123.851 100.444 124.399 100.178C124.947 99.8964 125.591 99.7558 126.331 99.7558C127.707 99.7558 128.751 100.237 129.461 101.199C130.186 102.161 130.549 103.693 130.549 105.795V111.789H126.952V106.194C126.952 104.981 126.775 104.1 126.419 103.552C126.079 102.99 125.568 102.709 124.888 102.709C124.325 102.709 123.859 102.879 123.489 103.219C123.134 103.56 122.867 104.011 122.69 104.574C122.512 105.136 122.423 105.765 122.423 106.461V111.789H118.849ZM138.643 112.1C137.637 112.1 136.749 111.96 135.979 111.678C135.21 111.397 134.566 110.997 134.048 110.479C133.53 109.947 133.13 109.31 132.849 108.57C132.582 107.83 132.449 107.001 132.449 106.083C132.449 105.136 132.582 104.278 132.849 103.508C133.13 102.738 133.53 102.072 134.048 101.51C134.566 100.947 135.202 100.518 135.957 100.222C136.712 99.9112 137.578 99.7558 138.555 99.7558C139.532 99.7558 140.375 99.9112 141.086 100.222C141.796 100.533 142.373 100.97 142.817 101.532C143.276 102.094 143.587 102.746 143.75 103.486L140.442 104.596C140.397 104.107 140.279 103.708 140.087 103.397C139.894 103.086 139.643 102.864 139.332 102.731C139.036 102.583 138.71 102.509 138.355 102.509C137.985 102.509 137.659 102.583 137.378 102.731C137.097 102.879 136.86 103.101 136.667 103.397C136.475 103.693 136.327 104.056 136.223 104.485C136.12 104.899 136.068 105.38 136.068 105.928C136.068 106.712 136.164 107.371 136.357 107.904C136.564 108.422 136.86 108.814 137.245 109.081C137.644 109.347 138.125 109.48 138.688 109.48C139.265 109.48 139.717 109.362 140.042 109.125C140.368 108.888 140.605 108.6 140.753 108.259C140.901 107.904 140.989 107.556 141.019 107.216L144.127 107.904C144.068 108.452 143.92 108.984 143.683 109.502C143.461 110.006 143.128 110.457 142.684 110.857C142.24 111.242 141.685 111.545 141.019 111.767C140.368 111.989 139.576 112.1 138.643 112.1ZM145.799 111.789V100.067H149.373V111.789H145.799ZM147.597 98.4237C146.916 98.4237 146.391 98.2831 146.021 98.0018C145.666 97.7058 145.488 97.2914 145.488 96.7585C145.488 96.1961 145.666 95.7742 146.021 95.493C146.391 95.197 146.916 95.049 147.597 95.049C148.293 95.049 148.818 95.197 149.174 95.493C149.544 95.7742 149.729 96.1887 149.729 96.7363C149.729 97.284 149.544 97.7058 149.174 98.0018C148.818 98.2831 148.293 98.4237 147.597 98.4237ZM154.905 112.1C154.253 112.1 153.676 111.974 153.173 111.723C152.67 111.456 152.277 111.079 151.996 110.59C151.715 110.087 151.574 109.48 151.574 108.77C151.574 108.104 151.7 107.556 151.952 107.127C152.218 106.683 152.596 106.335 153.084 106.083C153.587 105.817 154.187 105.602 154.883 105.44C155.578 105.262 156.37 105.106 157.258 104.973C157.687 104.899 158.043 104.833 158.324 104.773C158.62 104.699 158.842 104.588 158.99 104.44C159.138 104.292 159.212 104.078 159.212 103.797C159.212 103.427 159.079 103.108 158.812 102.842C158.546 102.575 158.117 102.442 157.525 102.442C157.11 102.442 156.733 102.516 156.392 102.664C156.067 102.812 155.785 103.027 155.549 103.308C155.312 103.589 155.134 103.93 155.016 104.329L151.863 103.397C152.055 102.775 152.322 102.235 152.662 101.776C153.018 101.317 153.439 100.94 153.928 100.644C154.416 100.333 154.971 100.111 155.593 99.9778C156.229 99.8298 156.903 99.7558 157.613 99.7558C158.797 99.7558 159.76 99.9482 160.5 100.333C161.254 100.703 161.81 101.288 162.165 102.087C162.535 102.871 162.72 103.885 162.72 105.129V106.927C162.72 107.46 162.727 108 162.742 108.548C162.772 109.081 162.801 109.621 162.831 110.169C162.875 110.701 162.927 111.242 162.986 111.789H159.834C159.774 111.449 159.715 111.042 159.656 110.568C159.597 110.08 159.552 109.584 159.523 109.081H159.101C158.894 109.643 158.59 110.161 158.191 110.635C157.806 111.094 157.332 111.456 156.77 111.723C156.222 111.974 155.6 112.1 154.905 112.1ZM156.525 109.569C156.792 109.569 157.058 109.525 157.325 109.436C157.606 109.332 157.872 109.199 158.124 109.036C158.376 108.859 158.605 108.644 158.812 108.392C159.019 108.141 159.175 107.867 159.279 107.571L159.234 105.817L159.723 105.928C159.441 106.106 159.13 106.246 158.79 106.35C158.45 106.453 158.102 106.535 157.747 106.594C157.406 106.653 157.066 106.72 156.725 106.794C156.4 106.853 156.104 106.934 155.837 107.038C155.586 107.142 155.386 107.282 155.238 107.46C155.09 107.638 155.016 107.882 155.016 108.193C155.016 108.607 155.156 108.94 155.438 109.192C155.719 109.443 156.081 109.569 156.525 109.569ZM173.052 112.1C172.401 112.1 171.824 111.974 171.321 111.723C170.817 111.456 170.425 111.079 170.144 110.59C169.863 110.087 169.722 109.48 169.722 108.77C169.722 108.104 169.848 107.556 170.099 107.127C170.366 106.683 170.743 106.335 171.232 106.083C171.735 105.817 172.334 105.602 173.03 105.44C173.726 105.262 174.518 105.106 175.406 104.973C175.835 104.899 176.19 104.833 176.471 104.773C176.767 104.699 176.989 104.588 177.137 104.44C177.285 104.292 177.359 104.078 177.359 103.797C177.359 103.427 177.226 103.108 176.96 102.842C176.693 102.575 176.264 102.442 175.672 102.442C175.258 102.442 174.88 102.516 174.54 102.664C174.214 102.812 173.933 103.027 173.696 103.308C173.459 103.589 173.282 103.93 173.163 104.329L170.011 103.397C170.203 102.775 170.469 102.235 170.81 101.776C171.165 101.317 171.587 100.94 172.075 100.644C172.564 100.333 173.119 100.111 173.741 99.9778C174.377 99.8298 175.05 99.7558 175.761 99.7558C176.945 99.7558 177.907 99.9482 178.647 100.333C179.402 100.703 179.957 101.288 180.312 102.087C180.682 102.871 180.867 103.885 180.867 105.129V106.927C180.867 107.46 180.875 108 180.89 108.548C180.919 109.081 180.949 109.621 180.978 110.169C181.023 110.701 181.075 111.242 181.134 111.789H177.981C177.922 111.449 177.863 111.042 177.803 110.568C177.744 110.08 177.7 109.584 177.67 109.081H177.248C177.041 109.643 176.738 110.161 176.338 110.635C175.953 111.094 175.48 111.456 174.917 111.723C174.37 111.974 173.748 112.1 173.052 112.1ZM174.673 109.569C174.939 109.569 175.206 109.525 175.472 109.436C175.754 109.332 176.02 109.199 176.272 109.036C176.523 108.859 176.753 108.644 176.96 108.392C177.167 108.141 177.322 107.867 177.426 107.571L177.382 105.817L177.87 105.928C177.589 106.106 177.278 106.246 176.938 106.35C176.597 106.453 176.249 106.535 175.894 106.594C175.554 106.653 175.213 106.72 174.873 106.794C174.547 106.853 174.251 106.934 173.985 107.038C173.733 107.142 173.533 107.282 173.385 107.46C173.237 107.638 173.163 107.882 173.163 108.193C173.163 108.607 173.304 108.94 173.585 109.192C173.866 109.443 174.229 109.569 174.673 109.569ZM183.503 111.789V95.8038H187.011V111.789H183.503ZM200.307 112.1C199.33 112.1 198.457 111.974 197.687 111.723C196.918 111.456 196.259 111.071 195.711 110.568C195.179 110.065 194.771 109.443 194.49 108.703C194.209 107.963 194.068 107.112 194.068 106.15C194.068 105.218 194.202 104.359 194.468 103.575C194.749 102.79 195.142 102.117 195.645 101.554C196.163 100.977 196.792 100.533 197.532 100.222C198.287 99.9112 199.13 99.7558 200.063 99.7558C201.01 99.7558 201.839 99.9112 202.55 100.222C203.275 100.518 203.867 100.962 204.326 101.554C204.799 102.146 205.147 102.871 205.369 103.73C205.591 104.574 205.665 105.543 205.591 106.638L196.422 106.705V104.84L203.549 104.773L202.283 105.639C202.387 104.899 202.342 104.3 202.15 103.841C201.958 103.367 201.676 103.027 201.306 102.82C200.936 102.598 200.537 102.487 200.107 102.487C199.589 102.487 199.13 102.627 198.731 102.908C198.346 103.19 198.043 103.597 197.821 104.13C197.599 104.662 197.488 105.314 197.488 106.083C197.488 107.297 197.747 108.178 198.265 108.725C198.797 109.273 199.471 109.547 200.285 109.547C200.685 109.547 201.018 109.495 201.284 109.391C201.55 109.273 201.765 109.132 201.928 108.97C202.106 108.792 202.239 108.6 202.328 108.392C202.431 108.185 202.513 107.985 202.572 107.793L205.68 108.459C205.562 109.007 205.369 109.502 205.103 109.947C204.851 110.391 204.503 110.775 204.059 111.101C203.63 111.427 203.105 111.671 202.483 111.834C201.876 112.011 201.151 112.1 200.307 112.1ZM212.669 112.1C211.885 112.1 211.174 112.026 210.538 111.878C209.901 111.745 209.346 111.545 208.873 111.279C208.399 111.012 208.007 110.694 207.696 110.324C207.4 109.939 207.193 109.517 207.074 109.058L209.739 107.882C209.842 108.133 210.02 108.392 210.271 108.659C210.538 108.91 210.886 109.118 211.315 109.28C211.759 109.443 212.292 109.525 212.913 109.525C213.505 109.525 213.964 109.443 214.29 109.28C214.63 109.103 214.801 108.851 214.801 108.526C214.801 108.289 214.704 108.104 214.512 107.971C214.334 107.823 214.061 107.697 213.691 107.593C213.32 107.475 212.862 107.364 212.314 107.26C211.752 107.142 211.182 107.008 210.604 106.86C210.027 106.698 209.487 106.483 208.984 106.217C208.48 105.935 208.073 105.573 207.763 105.129C207.467 104.67 207.319 104.093 207.319 103.397C207.319 102.672 207.511 102.043 207.896 101.51C208.281 100.962 208.85 100.533 209.605 100.222C210.375 99.9112 211.307 99.7558 212.403 99.7558C213.38 99.7558 214.238 99.8816 214.978 100.133C215.718 100.385 216.333 100.747 216.821 101.221C217.324 101.68 217.672 102.235 217.864 102.886L215 103.908C214.926 103.582 214.771 103.301 214.534 103.064C214.312 102.827 214.024 102.649 213.668 102.531C213.328 102.398 212.921 102.331 212.447 102.331C211.87 102.331 211.418 102.42 211.093 102.598C210.782 102.775 210.627 103.012 210.627 103.308C210.627 103.545 210.73 103.745 210.937 103.908C211.159 104.056 211.47 104.181 211.87 104.285C212.27 104.389 212.743 104.5 213.291 104.618C213.868 104.736 214.438 104.877 215 105.04C215.578 105.188 216.096 105.395 216.555 105.662C217.028 105.913 217.398 106.254 217.665 106.683C217.946 107.097 218.087 107.638 218.087 108.304C218.087 109.088 217.879 109.769 217.465 110.346C217.05 110.909 216.436 111.345 215.622 111.656C214.823 111.952 213.839 112.1 212.669 112.1ZM224.632 112.078C223.256 112.078 222.242 111.715 221.591 110.99C220.939 110.25 220.614 109.073 220.614 107.46V102.864H218.949L219.015 100.089H220.214C220.688 100.074 221.043 100 221.28 99.8668C221.531 99.7336 221.687 99.482 221.746 99.1119L222.035 97.469H224.055V100.067H226.875V102.975H224.055V107.304C224.055 107.808 224.173 108.178 224.41 108.415C224.662 108.651 225.039 108.77 225.543 108.77C225.824 108.77 226.09 108.74 226.342 108.681C226.593 108.622 226.801 108.54 226.964 108.437V111.745C226.49 111.893 226.053 111.982 225.654 112.011C225.269 112.056 224.928 112.078 224.632 112.078ZM231.831 112.1C231.18 112.1 230.603 111.974 230.1 111.723C229.596 111.456 229.204 111.079 228.923 110.59C228.642 110.087 228.501 109.48 228.501 108.77C228.501 108.104 228.627 107.556 228.878 107.127C229.145 106.683 229.522 106.335 230.011 106.083C230.514 105.817 231.113 105.602 231.809 105.44C232.505 105.262 233.297 105.106 234.185 104.973C234.614 104.899 234.969 104.833 235.25 104.773C235.546 104.699 235.768 104.588 235.916 104.44C236.064 104.292 236.138 104.078 236.138 103.797C236.138 103.427 236.005 103.108 235.739 102.842C235.472 102.575 235.043 102.442 234.451 102.442C234.037 102.442 233.659 102.516 233.319 102.664C232.993 102.812 232.712 103.027 232.475 103.308C232.238 103.589 232.061 103.93 231.942 104.329L228.79 103.397C228.982 102.775 229.248 102.235 229.589 101.776C229.944 101.317 230.366 100.94 230.854 100.644C231.343 100.333 231.898 100.111 232.52 99.9778C233.156 99.8298 233.829 99.7558 234.54 99.7558C235.724 99.7558 236.686 99.9482 237.426 100.333C238.181 100.703 238.736 101.288 239.091 102.087C239.461 102.871 239.646 103.885 239.646 105.129V106.927C239.646 107.46 239.654 108 239.669 108.548C239.698 109.081 239.728 109.621 239.757 110.169C239.802 110.701 239.854 111.242 239.913 111.789H236.76C236.701 111.449 236.642 111.042 236.583 110.568C236.523 110.08 236.479 109.584 236.449 109.081H236.027C235.82 109.643 235.517 110.161 235.117 110.635C234.732 111.094 234.259 111.456 233.696 111.723C233.149 111.974 232.527 112.1 231.831 112.1ZM233.452 109.569C233.718 109.569 233.985 109.525 234.251 109.436C234.533 109.332 234.799 109.199 235.051 109.036C235.302 108.859 235.532 108.644 235.739 108.392C235.946 108.141 236.101 107.867 236.205 107.571L236.161 105.817L236.649 105.928C236.368 106.106 236.057 106.246 235.717 106.35C235.376 106.453 235.028 106.535 234.673 106.594C234.333 106.653 233.992 106.72 233.652 106.794C233.326 106.853 233.03 106.934 232.764 107.038C232.512 107.142 232.312 107.282 232.164 107.46C232.016 107.638 231.942 107.882 231.942 108.193C231.942 108.607 232.083 108.94 232.364 109.192C232.645 109.443 233.008 109.569 233.452 109.569ZM242.282 111.789V106.35V100.067H245.213L245.28 104.041H245.724C245.827 103.005 246.02 102.183 246.301 101.576C246.597 100.955 247.011 100.503 247.544 100.222C248.092 99.9408 248.765 99.8002 249.565 99.8002C249.683 99.8002 249.816 99.8076 249.964 99.8224C250.112 99.8224 250.283 99.8372 250.475 99.8668L250.342 103.686C250.105 103.567 249.846 103.493 249.565 103.464C249.298 103.419 249.061 103.397 248.854 103.397C248.277 103.397 247.774 103.508 247.344 103.73C246.93 103.952 246.597 104.292 246.345 104.751C246.109 105.21 245.953 105.787 245.879 106.483V111.789H242.282ZM41.9876 137.1C41.0107 137.1 40.1374 136.974 39.3677 136.723C38.5981 136.456 37.9394 136.071 37.3917 135.568C36.8589 135.065 36.4519 134.443 36.1706 133.703C35.8894 132.963 35.7488 132.112 35.7488 131.15C35.7488 130.218 35.882 129.359 36.1484 128.575C36.4297 127.79 36.8219 127.117 37.3251 126.554C37.8432 125.977 38.4722 125.533 39.2123 125.222C39.9672 124.911 40.8109 124.756 41.7433 124.756C42.6906 124.756 43.5195 124.911 44.23 125.222C44.9552 125.518 45.5473 125.962 46.0061 126.554C46.4798 127.146 46.8276 127.871 47.0496 128.73C47.2717 129.574 47.3457 130.543 47.2717 131.638L38.1022 131.705V129.84L45.2291 129.773L43.9635 130.639C44.0672 129.899 44.0228 129.3 43.8303 128.841C43.6379 128.367 43.3567 128.027 42.9867 127.82C42.6166 127.598 42.217 127.487 41.7878 127.487C41.2697 127.487 40.8109 127.627 40.4112 127.908C40.0264 128.19 39.723 128.597 39.5009 129.13C39.2789 129.662 39.1679 130.314 39.1679 131.083C39.1679 132.297 39.4269 133.178 39.945 133.725C40.4778 134.273 41.1513 134.547 41.9654 134.547C42.365 134.547 42.698 134.495 42.9645 134.391C43.2309 134.273 43.4455 134.132 43.6083 133.97C43.7859 133.792 43.9191 133.6 44.008 133.392C44.1116 133.185 44.193 132.985 44.2522 132.793L47.3605 133.459C47.2421 134.007 47.0496 134.502 46.7832 134.947C46.5316 135.391 46.1838 135.775 45.7397 136.101C45.3105 136.427 44.785 136.671 44.1634 136.834C43.5565 137.011 42.8312 137.1 41.9876 137.1ZM49.4455 136.789V129.729V125.067H52.3318L52.3762 128.508H52.8203C53.0127 127.679 53.2865 126.983 53.6417 126.421C53.997 125.859 54.4484 125.444 54.9961 125.178C55.5437 124.896 56.1876 124.756 56.9276 124.756C58.3042 124.756 59.3477 125.237 60.0581 126.199C60.7834 127.161 61.146 128.693 61.146 130.795V136.789H57.5493V131.194C57.5493 129.981 57.3717 129.1 57.0164 128.552C56.676 127.99 56.1654 127.709 55.4845 127.709C54.922 127.709 54.4558 127.879 54.0858 128.219C53.7305 128.56 53.4641 129.011 53.2865 129.574C53.1089 130.136 53.0201 130.765 53.0201 131.461V136.789H49.4455ZM68.8109 136.789V122.136H72.4521V136.789H68.8109ZM75.3768 136.789V129.729V125.067H78.2631L78.3075 128.508H78.7515C78.944 127.679 79.2178 126.983 79.573 126.421C79.9282 125.859 80.3797 125.444 80.9273 125.178C81.475 124.896 82.1189 124.756 82.8589 124.756C84.2354 124.756 85.2789 125.237 85.9894 126.199C86.7147 127.161 87.0773 128.693 87.0773 130.795V136.789H83.4806V131.194C83.4806 129.981 83.303 129.1 82.9477 128.552C82.6073 127.99 82.0966 127.709 81.4158 127.709C80.8533 127.709 80.3871 127.879 80.0171 128.219C79.6618 128.56 79.3954 129.011 79.2178 129.574C79.0402 130.136 78.9514 130.765 78.9514 131.461V136.789H75.3768ZM94.1736 137.078C92.7971 137.078 91.7832 136.715 91.132 135.99C90.4807 135.25 90.1551 134.073 90.1551 132.46V127.864H88.4899L88.5565 125.089H89.7554C90.2291 125.074 90.5843 125 90.8211 124.867C91.0727 124.734 91.2282 124.482 91.2874 124.112L91.576 122.469H93.5964V125.067H96.416V127.975H93.5964V132.304C93.5964 132.808 93.7148 133.178 93.9516 133.415C94.2032 133.651 94.5807 133.77 95.0839 133.77C95.3651 133.77 95.6316 133.74 95.8832 133.681C96.1348 133.622 96.342 133.54 96.5048 133.437V136.745C96.0312 136.893 95.5946 136.982 95.1949 137.011C94.8101 137.056 94.4697 137.078 94.1736 137.078ZM104.149 137.1C103.172 137.1 102.299 136.974 101.529 136.723C100.759 136.456 100.101 136.071 99.5531 135.568C99.0203 135.065 98.6132 134.443 98.332 133.703C98.0508 132.963 97.9102 132.112 97.9102 131.15C97.9102 130.218 98.0434 129.359 98.3098 128.575C98.591 127.79 98.9833 127.117 99.4865 126.554C100.005 125.977 100.634 125.533 101.374 125.222C102.129 124.911 102.972 124.756 103.905 124.756C104.852 124.756 105.681 124.911 106.391 125.222C107.117 125.518 107.709 125.962 108.168 126.554C108.641 127.146 108.989 127.871 109.211 128.73C109.433 129.574 109.507 130.543 109.433 131.638L100.264 131.705V129.84L107.39 129.773L106.125 130.639C106.229 129.899 106.184 129.3 105.992 128.841C105.799 128.367 105.518 128.027 105.148 127.82C104.778 127.598 104.378 127.487 103.949 127.487C103.431 127.487 102.972 127.627 102.573 127.908C102.188 128.19 101.884 128.597 101.662 129.13C101.44 129.662 101.329 130.314 101.329 131.083C101.329 132.297 101.588 133.178 102.106 133.725C102.639 134.273 103.313 134.547 104.127 134.547C104.526 134.547 104.859 134.495 105.126 134.391C105.392 134.273 105.607 134.132 105.77 133.97C105.947 133.792 106.081 133.6 106.169 133.392C106.273 133.185 106.354 132.985 106.414 132.793L109.522 133.459C109.403 134.007 109.211 134.502 108.945 134.947C108.693 135.391 108.345 135.775 107.901 136.101C107.472 136.427 106.946 136.671 106.325 136.834C105.718 137.011 104.993 137.1 104.149 137.1ZM111.607 136.789V131.35V125.067H114.538L114.604 129.041H115.048C115.152 128.005 115.344 127.183 115.625 126.576C115.922 125.955 116.336 125.503 116.869 125.222C117.416 124.941 118.09 124.8 118.889 124.8C119.008 124.8 119.141 124.808 119.289 124.822C119.437 124.822 119.607 124.837 119.799 124.867L119.666 128.686C119.429 128.567 119.17 128.493 118.889 128.464C118.623 128.419 118.386 128.397 118.179 128.397C117.601 128.397 117.098 128.508 116.669 128.73C116.255 128.952 115.922 129.292 115.67 129.751C115.433 130.21 115.278 130.787 115.204 131.483V136.789H111.607ZM121.515 136.789V129.729V125.067H124.402L124.446 128.508H124.89C125.083 127.679 125.356 126.983 125.712 126.421C126.067 125.859 126.518 125.444 127.066 125.178C127.614 124.896 128.257 124.756 128.998 124.756C130.374 124.756 131.418 125.237 132.128 126.199C132.853 127.161 133.216 128.693 133.216 130.795V136.789H129.619V131.194C129.619 129.981 129.442 129.1 129.086 128.552C128.746 127.99 128.235 127.709 127.554 127.709C126.992 127.709 126.526 127.879 126.156 128.219C125.8 128.56 125.534 129.011 125.356 129.574C125.179 130.136 125.09 130.765 125.09 131.461V136.789H121.515ZM141.355 137.1C140.378 137.1 139.505 136.974 138.735 136.723C137.965 136.456 137.307 136.071 136.759 135.568C136.226 135.065 135.819 134.443 135.538 133.703C135.257 132.963 135.116 132.112 135.116 131.15C135.116 130.218 135.249 129.359 135.516 128.575C135.797 127.79 136.189 127.117 136.692 126.554C137.21 125.977 137.839 125.533 138.579 125.222C139.334 124.911 140.178 124.756 141.11 124.756C142.058 124.756 142.887 124.911 143.597 125.222C144.322 125.518 144.914 125.962 145.373 126.554C145.847 127.146 146.195 127.871 146.417 128.73C146.639 129.574 146.713 130.543 146.639 131.638L137.469 131.705V129.84L144.596 129.773L143.331 130.639C143.434 129.899 143.39 129.3 143.197 128.841C143.005 128.367 142.724 128.027 142.354 127.82C141.984 127.598 141.584 127.487 141.155 127.487C140.637 127.487 140.178 127.627 139.778 127.908C139.394 128.19 139.09 128.597 138.868 129.13C138.646 129.662 138.535 130.314 138.535 131.083C138.535 132.297 138.794 133.178 139.312 133.725C139.845 134.273 140.518 134.547 141.332 134.547C141.732 134.547 142.065 134.495 142.332 134.391C142.598 134.273 142.813 134.132 142.975 133.97C143.153 133.792 143.286 133.6 143.375 133.392C143.479 133.185 143.56 132.985 143.619 132.793L146.728 133.459C146.609 134.007 146.417 134.502 146.15 134.947C145.899 135.391 145.551 135.775 145.107 136.101C144.678 136.427 144.152 136.671 143.53 136.834C142.924 137.011 142.198 137.1 141.355 137.1ZM153.386 137.078C152.01 137.078 150.996 136.715 150.345 135.99C149.693 135.25 149.368 134.073 149.368 132.46V127.864H147.703L147.769 125.089H148.968C149.442 125.074 149.797 125 150.034 124.867C150.285 124.734 150.441 124.482 150.5 124.112L150.789 122.469H152.809V125.067H155.629V127.975H152.809V132.304C152.809 132.808 152.927 133.178 153.164 133.415C153.416 133.651 153.793 133.77 154.297 133.77C154.578 133.77 154.844 133.74 155.096 133.681C155.347 133.622 155.555 133.54 155.718 133.437V136.745C155.244 136.893 154.807 136.982 154.408 137.011C154.023 137.056 153.682 137.078 153.386 137.078Z" fill="#FAEDC1"/>
</svg>
