<svg width="291" height="182" viewBox="0 0 291 182" fill="none" xmlns="http://www.w3.org/2000/svg">
<g style="mix-blend-mode:soft-light">
<mask id="path-1-inside-1_501_249" fill="white">
<path fill-rule="evenodd" clip-rule="evenodd" d="M26.3935 0C18.1963 0 11.5511 6.64512 11.5511 14.8423V69.0228C11.5427 69.2082 11.5383 69.3956 11.5383 69.5848V73.2925C11.5383 75.6271 10.8697 77.8109 9.75186 79.1278L2.19748 88.0271C1.61739 88.5441 1.13851 89.2896 0.777492 90.1708C0.238145 91.421 -0.00753803 92.8817 0.000188777 94.3284C-0.00753785 95.775 0.238133 97.2356 0.777451 98.4858C1.13847 99.367 1.61738 100.113 2.1975 100.63L9.75186 109.529C10.8697 110.846 11.5383 113.03 11.5383 115.364V119.072C11.5383 119.261 11.5427 119.449 11.5511 119.634V166.864C11.5511 175.061 18.1962 181.706 26.3934 181.706H276.158C284.355 181.706 291 175.061 291 166.864V14.8424C291 6.64515 284.355 0 276.158 0H26.3935Z"/>
</mask>
<path d="M11.5511 69.0228L12.4497 69.0638L12.4507 69.0433V69.0228H11.5511ZM9.75186 79.1278L10.4376 79.71L9.75186 79.1278ZM2.19748 88.0271L2.79598 88.6986L2.84272 88.6569L2.88325 88.6092L2.19748 88.0271ZM0.777492 90.1708L1.60344 90.5271L1.60673 90.5195L1.60988 90.5118L0.777492 90.1708ZM0.000188777 94.3284L0.899764 94.3332L0.899712 94.3236L0.000188777 94.3284ZM0.777451 98.4858L1.60984 98.1448L1.60669 98.1371L1.60341 98.1295L0.777451 98.4858ZM2.1975 100.63L2.88327 100.048L2.84275 99.9998L2.796 99.9581L2.1975 100.63ZM9.75186 109.529L9.06609 110.111H9.06609L9.75186 109.529ZM11.5511 119.634H12.4507V119.613L12.4497 119.593L11.5511 119.634ZM12.4507 14.8423C12.4507 7.14193 18.6931 0.899536 26.3935 0.899536V-0.899536C17.6995 -0.899536 10.6516 6.14832 10.6516 14.8423H12.4507ZM12.4507 69.0228V14.8423H10.6516V69.0228H12.4507ZM10.6525 68.9817C10.6434 69.1809 10.6388 69.382 10.6388 69.5848H12.4379C12.4379 69.4093 12.4419 69.2355 12.4497 69.0638L10.6525 68.9817ZM10.6388 69.5848V73.2925H12.4379V69.5848H10.6388ZM10.6388 73.2925C10.6388 75.4891 10.004 77.4408 9.06609 78.5457L10.4376 79.71C11.7355 78.1811 12.4379 75.7651 12.4379 73.2925H10.6388ZM9.06609 78.5457L1.51171 87.4449L2.88325 88.6092L10.4376 79.71L9.06609 78.5457ZM1.59897 87.3555C0.887554 87.9896 0.340695 88.8642 -0.0548936 89.8298L1.60988 90.5118C1.93632 89.7151 2.34722 89.0985 2.79598 88.6986L1.59897 87.3555ZM-0.0484612 89.8145C-0.646615 91.201 -0.907581 92.7892 -0.899335 94.3332L0.899712 94.3236C0.892505 92.9743 1.12291 91.641 1.60344 90.5271L-0.0484612 89.8145ZM-0.899335 94.3236C-0.907581 95.8675 -0.646628 97.4557 -0.0485062 98.8421L1.60341 98.1295C1.12289 97.0156 0.892506 95.6824 0.899712 94.3332L-0.899335 94.3236ZM-0.0549383 98.8268C0.34066 99.7924 0.887542 100.667 1.599 101.301L2.796 99.9581C2.34722 99.5582 1.93629 98.9416 1.60984 98.1448L-0.0549383 98.8268ZM1.51173 101.212L9.06609 110.111L10.4376 108.947L2.88327 100.048L1.51173 101.212ZM9.06609 110.111C10.004 111.216 10.6388 113.168 10.6388 115.364H12.4379C12.4379 112.892 11.7355 110.476 10.4376 108.947L9.06609 110.111ZM10.6388 115.364V119.072H12.4379V115.364H10.6388ZM10.6388 119.072C10.6388 119.275 10.6434 119.476 10.6525 119.675L12.4497 119.593C12.4419 119.421 12.4379 119.247 12.4379 119.072H10.6388ZM12.4507 166.864V119.634H10.6516V166.864H12.4507ZM26.3934 180.807C18.693 180.807 12.4507 174.564 12.4507 166.864H10.6516C10.6516 175.558 17.6994 182.606 26.3934 182.606V180.807ZM276.158 180.807H26.3934V182.606H276.158V180.807ZM290.1 166.864C290.1 174.564 283.858 180.807 276.158 180.807V182.606C284.852 182.606 291.9 175.558 291.9 166.864H290.1ZM290.1 14.8424V166.864H291.9V14.8424H290.1ZM276.158 0.899536C283.858 0.899536 290.1 7.14195 290.1 14.8424H291.9C291.9 6.14835 284.852 -0.899536 276.158 -0.899536V0.899536ZM26.3935 0.899536H276.158V-0.899536H26.3935V0.899536Z" fill="#FFFFDC" mask="url(#path-1-inside-1_501_249)"/>
</g>
<path d="M78.9916 36.4044C78.4468 36.4044 77.8212 36.3439 77.115 36.2228C76.4087 36.0816 75.7025 35.9302 74.9962 35.7688C74.3101 35.5872 73.6846 35.4358 73.1196 35.3148C72.5546 35.1735 72.1208 35.1029 71.8181 35.1029C71.3741 35.1029 71.1219 35.2643 71.0614 35.5872C71.0008 35.8899 71.0008 36.2833 71.0614 36.7676H68.0951C67.5907 35.678 67.3788 34.7195 67.4595 33.8922C67.5604 33.0648 67.8933 32.4191 68.4583 31.955C69.0233 31.4707 69.7296 31.2286 70.5771 31.2286C71.1421 31.2286 71.7575 31.2891 72.4234 31.4102C73.1095 31.5313 73.7855 31.6826 74.4514 31.8642C75.1173 32.0256 75.7226 32.1669 76.2675 32.288C76.8123 32.409 77.236 32.4696 77.5387 32.4696C77.9423 32.4696 78.1844 32.3182 78.2652 32.0156C78.3459 31.7129 78.3459 31.3194 78.2652 30.8351H81.2617C81.6653 31.7835 81.8469 32.6915 81.8065 33.5592C81.7863 34.4067 81.5442 35.0928 81.0801 35.6174C80.616 36.1421 79.9198 36.4044 78.9916 36.4044ZM167.431 65.4044C166.886 65.4044 166.26 65.3439 165.554 65.2228C164.848 65.0816 164.142 64.9302 163.435 64.7688C162.749 64.5872 162.124 64.4358 161.559 64.3148C160.994 64.1735 160.56 64.1029 160.257 64.1029C159.813 64.1029 159.561 64.2643 159.501 64.5872C159.44 64.8899 159.44 65.2833 159.501 65.7676H156.534C156.03 64.678 155.818 63.7195 155.899 62.8922C156 62.0648 156.333 61.4191 156.898 60.955C157.463 60.4707 158.169 60.2286 159.016 60.2286C159.581 60.2286 160.197 60.2891 160.863 60.4102C161.549 60.5313 162.225 60.6826 162.891 60.8642C163.556 61.0256 164.162 61.1669 164.707 61.288C165.251 61.409 165.675 61.4696 165.978 61.4696C166.381 61.4696 166.624 61.3182 166.704 61.0156C166.785 60.7129 166.785 60.3194 166.704 59.8351H169.701C170.104 60.7835 170.286 61.6915 170.246 62.5592C170.226 63.4067 169.983 64.0928 169.519 64.6174C169.055 65.1421 168.359 65.4044 167.431 65.4044Z" fill="#FFFFDB"/>
<path d="M102.323 48.9051V44.3952C102.323 43.9109 102.353 43.4165 102.414 42.912C102.495 42.3874 102.596 41.8426 102.717 41.2776C102.838 40.6924 102.959 40.1173 103.08 39.5523H102.444C102.121 40.5814 101.718 41.4491 101.234 42.1553C100.769 42.8414 100.184 43.356 99.478 43.699C98.792 44.042 97.9444 44.2135 96.9355 44.2135C95.523 44.2135 94.3325 43.8503 93.3639 43.1239C92.4155 42.3975 91.6992 41.4087 91.2149 40.1576C90.7306 38.9066 90.4884 37.4941 90.4884 35.9201C90.4884 34.1444 90.7609 32.6209 91.3057 31.3497C91.8505 30.0784 92.6375 29.0997 93.6666 28.4137C94.6957 27.7276 95.9064 27.3846 97.2987 27.3846C98.2471 27.3846 99.0845 27.5662 99.811 27.9294C100.558 28.2724 101.163 28.8072 101.627 29.5336C102.111 30.26 102.434 31.1983 102.596 32.3485H103.231V27.8386H107.227V35.7991V48.9051H102.323ZM98.8121 40.3695C99.2561 40.3695 99.6596 40.2888 100.023 40.1274C100.386 39.9659 100.709 39.744 100.991 39.4615C101.274 39.179 101.516 38.8662 101.718 38.5232C101.92 38.16 102.071 37.7866 102.172 37.4033C102.273 37.0199 102.323 36.6365 102.323 36.2531V35.5872C102.323 35.1634 102.263 34.7094 102.142 34.2251C102.021 33.7207 101.829 33.2565 101.567 32.8328C101.304 32.3889 100.951 32.0357 100.507 31.7734C100.083 31.4909 99.5587 31.3497 98.9332 31.3497C98.2673 31.3497 97.6821 31.5414 97.1777 31.9248C96.6732 32.288 96.2898 32.8126 96.0275 33.4987C95.7652 34.1848 95.634 35.002 95.634 35.9504C95.634 36.8181 95.7551 37.5849 95.9972 38.2508C96.2595 38.9167 96.6227 39.4413 97.0869 39.8247C97.5711 40.1879 98.1462 40.3695 98.8121 40.3695ZM116.471 44.2135C114.574 44.2135 113.141 43.5779 112.173 42.3067C111.224 41.0152 110.75 39.0579 110.75 36.4347V27.8083H115.654V35.7991C115.654 37.2923 115.876 38.4122 116.32 39.1588C116.763 39.8852 117.439 40.2484 118.347 40.2484C118.892 40.2484 119.356 40.1173 119.74 39.855C120.143 39.5725 120.476 39.1891 120.739 38.7048C121.021 38.2003 121.223 37.6252 121.344 36.9795C121.485 36.3338 121.556 35.6275 121.556 34.8607V27.8083H126.429V37.3125V43.7898H122.555L122.464 38.8561H121.859C121.556 40.1072 121.173 41.1363 120.708 41.9434C120.264 42.7304 119.699 43.3055 119.013 43.6687C118.327 44.0319 117.48 44.2135 116.471 44.2135ZM137.773 44.2135C136.441 44.2135 135.251 44.042 134.202 43.699C133.152 43.3358 132.254 42.8111 131.508 42.1251C130.781 41.439 130.226 40.5915 129.843 39.5825C129.46 38.5736 129.268 37.4133 129.268 36.1017C129.268 34.8305 129.449 33.6601 129.813 32.5907C130.196 31.5212 130.731 30.6031 131.417 29.8363C132.123 29.0493 132.981 28.4439 133.99 28.0202C135.019 27.5964 136.169 27.3846 137.44 27.3846C138.732 27.3846 139.862 27.5964 140.83 28.0202C141.819 28.4238 142.626 29.0291 143.252 29.8363C143.897 30.6434 144.372 31.6322 144.674 32.8025C144.977 33.9527 145.078 35.2744 144.977 36.7676L132.476 36.8584V34.3159L142.192 34.2251L140.467 35.4056C140.608 34.3966 140.548 33.5794 140.285 32.9539C140.023 32.3081 139.64 31.844 139.135 31.5615C138.631 31.2589 138.086 31.1075 137.501 31.1075C136.794 31.1075 136.169 31.2992 135.624 31.6826C135.099 32.066 134.686 32.6209 134.383 33.3473C134.08 34.0738 133.929 34.9616 133.929 36.0109C133.929 37.6656 134.282 38.8662 134.988 39.6128C135.715 40.3594 136.633 40.7327 137.743 40.7327C138.288 40.7327 138.742 40.6621 139.105 40.5209C139.468 40.3594 139.761 40.1677 139.983 39.9458C140.225 39.7036 140.406 39.4413 140.528 39.1588C140.669 38.8763 140.78 38.6039 140.86 38.3416L145.098 39.2496C144.937 39.9962 144.674 40.6722 144.311 41.2776C143.968 41.8829 143.494 42.4076 142.888 42.8515C142.303 43.2954 141.587 43.6284 140.739 43.8503C139.912 44.0925 138.923 44.2135 137.773 44.2135ZM138.833 25.7198H135.17L137.47 20.4532H142.223L138.833 25.7198ZM123.201 73.2135C121.869 73.2135 120.678 73.042 119.629 72.699C118.58 72.3358 117.682 71.8111 116.935 71.1251C116.209 70.439 115.654 69.5915 115.271 68.5825C114.887 67.5736 114.695 66.4133 114.695 65.1017C114.695 63.8305 114.877 62.6601 115.24 61.5907C115.624 60.5212 116.158 59.6031 116.845 58.8363C117.551 58.0493 118.408 57.4439 119.417 57.0202C120.446 56.5964 121.597 56.3846 122.868 56.3846C124.159 56.3846 125.289 56.5964 126.258 57.0202C127.247 57.4238 128.054 58.0291 128.679 58.8363C129.325 59.6434 129.799 60.6322 130.102 61.8025C130.405 62.9527 130.505 64.2744 130.405 65.7676L117.904 65.8584V63.3159L127.62 63.2251L125.895 64.4056C126.036 63.3966 125.975 62.5794 125.713 61.9539C125.451 61.3081 125.067 60.844 124.563 60.5615C124.058 60.2589 123.514 60.1075 122.928 60.1075C122.222 60.1075 121.597 60.2992 121.052 60.6826C120.527 61.066 120.113 61.6209 119.811 62.3473C119.508 63.0738 119.357 63.9616 119.357 65.0109C119.357 66.6656 119.71 67.8662 120.416 68.6128C121.143 69.3594 122.061 69.7327 123.171 69.7327C123.715 69.7327 124.169 69.6621 124.533 69.5209C124.896 69.3594 125.188 69.1677 125.41 68.9458C125.652 68.7036 125.834 68.4413 125.955 68.1588C126.096 67.8763 126.207 67.6039 126.288 67.3416L130.526 68.2496C130.364 68.9962 130.102 69.6722 129.739 70.2776C129.396 70.8829 128.921 71.4076 128.316 71.8515C127.731 72.2954 127.015 72.6284 126.167 72.8503C125.34 73.0925 124.351 73.2135 123.201 73.2135ZM140.054 73.2135C138.984 73.2135 138.016 73.1127 137.148 72.9109C136.28 72.7293 135.524 72.4568 134.878 72.0936C134.232 71.7304 133.698 71.2966 133.274 70.7921C132.87 70.2675 132.588 69.6924 132.426 69.0668L136.059 67.4626C136.2 67.8057 136.442 68.1588 136.785 68.522C137.148 68.865 137.622 69.1476 138.208 69.3695C138.813 69.5915 139.539 69.7025 140.387 69.7025C141.194 69.7025 141.82 69.5915 142.263 69.3695C142.728 69.1274 142.96 68.7843 142.96 68.3404C142.96 68.0175 142.828 67.7653 142.566 67.5837C142.324 67.3819 141.951 67.2104 141.446 67.0692C140.942 66.9077 140.316 66.7564 139.57 66.6151C138.803 66.4537 138.026 66.2721 137.239 66.0703C136.452 65.8483 135.715 65.5558 135.029 65.1925C134.343 64.8091 133.788 64.3148 133.365 63.7094C132.961 63.0839 132.759 62.2969 132.759 61.3485C132.759 60.3598 133.022 59.5022 133.546 58.7757C134.071 58.0291 134.848 57.4439 135.877 57.0202C136.926 56.5964 138.197 56.3846 139.691 56.3846C141.022 56.3846 142.193 56.5561 143.202 56.8991C144.211 57.2422 145.048 57.7365 145.714 58.3822C146.4 59.0078 146.874 59.7645 147.137 60.6523L143.232 62.0447C143.131 61.6007 142.919 61.2173 142.596 60.8945C142.294 60.5716 141.9 60.3295 141.416 60.1681C140.952 59.9864 140.397 59.8956 139.751 59.8956C138.964 59.8956 138.349 60.0167 137.905 60.2589C137.481 60.501 137.269 60.8239 137.269 61.2274C137.269 61.5503 137.41 61.8227 137.693 62.0447C137.996 62.2465 138.419 62.418 138.964 62.5592C139.509 62.7005 140.155 62.8518 140.901 63.0132C141.688 63.1747 142.465 63.3664 143.232 63.5883C144.019 63.7901 144.725 64.0726 145.351 64.4358C145.996 64.7789 146.501 65.243 146.864 65.8282C147.248 66.3932 147.439 67.1297 147.439 68.0377C147.439 69.1072 147.157 70.0354 146.592 70.8224C146.027 71.5892 145.189 72.1844 144.08 72.6082C142.99 73.0118 141.648 73.2135 140.054 73.2135Z" fill="#B6B4E6"/>
<path d="M44.4487 34.7522C44.4463 35.6083 43.7376 36.3171 42.8814 36.3194C42.0252 36.3217 41.3203 35.6168 41.3226 34.7606L41.3253 33.7451C41.3258 33.5858 41.1967 33.4568 41.0374 33.4572L40.0817 33.4598C39.2454 33.462 38.5204 32.8368 38.4629 32.0007C38.4155 31.0949 39.1344 30.3363 40.0304 30.3339L41.0558 30.3411C41.2151 30.3407 41.3448 30.2109 41.3453 30.0516L41.3481 29.0162C41.3504 28.16 42.0591 27.4513 42.9153 27.449C43.7715 27.4467 44.4764 28.1516 44.4741 29.0078L44.4614 30.0332C44.4609 30.1925 44.59 30.3216 44.7493 30.3212L45.7748 30.3084C46.6309 30.3061 47.3359 31.0111 47.3336 31.8673C47.3313 32.7234 46.6225 33.4322 45.7663 33.4345L44.7409 33.4472C44.5816 33.4476 44.4518 33.5774 44.4514 33.7367L44.4487 34.7522Z" fill="#FFFFDB"/>
<path d="M179.66 66.3464C178.533 66.3473 177.603 65.4175 177.604 64.2905C177.605 63.1634 178.537 62.2321 179.664 62.2312L181 62.2301C181.21 62.2299 181.381 62.0594 181.381 61.8497L181.382 60.5916C181.383 59.4907 182.209 58.5333 183.31 58.4538C184.503 58.3873 185.498 59.3301 185.497 60.5096L185.483 61.8595C185.483 62.0692 185.653 62.2395 185.863 62.2393L187.226 62.2382C188.353 62.2373 189.282 63.167 189.282 64.2941C189.281 65.4212 188.349 66.3525 187.222 66.3534L185.872 66.3414C185.663 66.3415 185.492 66.512 185.492 66.7217L185.504 68.0716C185.503 69.1987 184.572 70.1299 183.445 70.1309C182.318 70.1318 181.388 69.202 181.389 68.0749L181.377 66.7251C181.377 66.5154 181.207 66.3451 180.997 66.3453L179.66 66.3464Z" fill="#FFFFDB"/>
<path d="M44.5378 107.356C43.5879 107.356 42.7388 107.234 41.9903 106.989C41.2419 106.73 40.6015 106.356 40.0689 105.867C39.5508 105.377 39.155 104.773 38.8816 104.053C38.6081 103.334 38.4714 102.506 38.4714 101.571C38.4714 100.664 38.6009 99.829 38.86 99.0662C39.1334 98.3034 39.5148 97.6485 40.0042 97.1016C40.5079 96.5403 41.1196 96.1085 41.8392 95.8063C42.5732 95.504 43.3936 95.3529 44.3004 95.3529C45.2215 95.3529 46.0275 95.504 46.7183 95.8063C47.4235 96.0941 47.9993 96.5259 48.4454 97.1016C48.906 97.6773 49.2442 98.3825 49.4601 99.2173C49.676 100.038 49.748 100.98 49.676 102.045L40.7598 102.11V100.297L47.6898 100.232L46.4592 101.074C46.56 100.354 46.5168 99.7714 46.3297 99.3253C46.1426 98.8647 45.8691 98.5337 45.5093 98.3322C45.1495 98.1163 44.7609 98.0083 44.3435 98.0083C43.8398 98.0083 43.3936 98.1451 43.005 98.4185C42.6308 98.692 42.3358 99.0878 42.1199 99.6059C41.904 100.124 41.796 100.757 41.796 101.506C41.796 102.686 42.0479 103.542 42.5517 104.075C43.0698 104.607 43.7247 104.874 44.5162 104.874C44.9048 104.874 45.2287 104.823 45.4877 104.722C45.7468 104.607 45.9555 104.471 46.1138 104.312C46.2865 104.14 46.4161 103.952 46.5024 103.751C46.6032 103.549 46.6823 103.355 46.7399 103.168L49.7623 103.816C49.6472 104.348 49.4601 104.83 49.201 105.262C48.9564 105.694 48.6181 106.068 48.1864 106.385C47.769 106.701 47.258 106.939 46.6535 107.097C46.0634 107.27 45.3582 107.356 44.5378 107.356ZM51.7898 107.054V91.5101H55.2009V107.054H51.7898ZM65.3878 107.356C64.7545 107.356 64.1932 107.234 63.7039 106.989C63.2145 106.73 62.8331 106.363 62.5597 105.888C62.2862 105.399 62.1495 104.809 62.1495 104.118C62.1495 103.47 62.2718 102.938 62.5165 102.52C62.7755 102.089 63.1426 101.75 63.6175 101.506C64.1069 101.247 64.6898 101.038 65.3662 100.88C66.0427 100.707 66.8127 100.556 67.6762 100.426C68.0936 100.354 68.439 100.29 68.7125 100.232C69.0003 100.16 69.2162 100.052 69.3602 99.9082C69.5041 99.7642 69.576 99.5555 69.576 99.2821C69.576 98.9223 69.4465 98.6128 69.1874 98.3538C68.9284 98.0947 68.511 97.9652 67.9353 97.9652C67.5323 97.9652 67.1653 98.0371 66.8343 98.181C66.5176 98.325 66.2442 98.5337 66.0139 98.8071C65.7836 99.0806 65.6109 99.4116 65.4957 99.8002L62.4301 98.8935C62.6172 98.289 62.8763 97.7637 63.2073 97.3175C63.5527 96.8713 63.9629 96.5043 64.4379 96.2165C64.9128 95.9142 65.4526 95.6983 66.0571 95.5688C66.6759 95.4249 67.3308 95.3529 68.0216 95.3529C69.173 95.3529 70.1086 95.54 70.8282 95.9142C71.5622 96.274 72.1019 96.8425 72.4474 97.6197C72.8072 98.3825 72.9871 99.3684 72.9871 100.577V102.326C72.9871 102.844 72.9943 103.37 73.0087 103.902C73.0375 104.42 73.0662 104.946 73.095 105.478C73.1382 105.996 73.1886 106.522 73.2461 107.054H70.1805C70.123 106.723 70.0654 106.327 70.0078 105.867C69.9502 105.392 69.9071 104.91 69.8783 104.42H69.4681C69.2666 104.967 68.9716 105.471 68.583 105.931C68.2087 106.378 67.7482 106.73 67.2013 106.989C66.6687 107.234 66.0642 107.356 65.3878 107.356ZM66.9638 104.895C67.2229 104.895 67.4819 104.852 67.741 104.766C68.0144 104.665 68.2735 104.535 68.5182 104.377C68.7629 104.204 68.9859 103.996 69.1874 103.751C69.3889 103.506 69.5401 103.24 69.6408 102.952L69.5976 101.247L70.0726 101.355C69.7991 101.527 69.4969 101.664 69.1659 101.765C68.8348 101.866 68.4966 101.945 68.1512 102.002C67.8201 102.06 67.4891 102.125 67.1581 102.197C66.8414 102.254 66.5536 102.333 66.2945 102.434C66.0499 102.535 65.8556 102.672 65.7116 102.844C65.5677 103.017 65.4957 103.254 65.4957 103.557C65.4957 103.96 65.6325 104.284 65.9059 104.528C66.1794 104.773 66.532 104.895 66.9638 104.895ZM79.4578 107.356C78.1049 107.356 77.0831 106.903 76.3922 105.996C75.7158 105.075 75.3775 103.679 75.3775 101.808V95.6552H78.8749V101.355C78.8749 102.42 79.0333 103.218 79.3499 103.751C79.6665 104.269 80.1487 104.528 80.7964 104.528C81.185 104.528 81.516 104.435 81.7894 104.248C82.0773 104.046 82.3148 103.773 82.5019 103.427C82.7034 103.067 82.8473 102.657 82.9337 102.197C83.0344 101.736 83.0848 101.232 83.0848 100.685V95.6552H86.5606V102.434V107.054H83.7972L83.7324 103.535H83.3007C83.0848 104.427 82.8113 105.161 82.4803 105.737C82.1636 106.298 81.7607 106.709 81.2713 106.968C80.782 107.227 80.1775 107.356 79.4578 107.356ZM93.6804 107.335C92.3418 107.335 91.356 106.982 90.7227 106.277C90.0894 105.557 89.7728 104.413 89.7728 102.844V98.3753H88.1536L88.2184 95.6767H89.3842C89.8447 95.6623 90.1902 95.5904 90.4204 95.4609C90.6651 95.3313 90.8162 95.0866 90.8738 94.7268L91.1545 93.1293H93.119V95.6552H95.8608V98.4833H93.119V102.693C93.119 103.182 93.2342 103.542 93.4645 103.773C93.7091 104.003 94.0762 104.118 94.5655 104.118C94.839 104.118 95.098 104.089 95.3427 104.032C95.5874 103.974 95.7889 103.895 95.9472 103.794V107.011C95.4866 107.155 95.062 107.241 94.6734 107.27C94.2992 107.313 93.9682 107.335 93.6804 107.335ZM103.207 107.356C102.056 107.356 101.034 107.133 100.142 106.687C99.2639 106.241 98.573 105.572 98.0693 104.679C97.5656 103.787 97.3137 102.672 97.3137 101.333C97.3137 99.9945 97.5656 98.8863 98.0693 98.0083C98.573 97.116 99.2711 96.4539 100.163 96.0222C101.056 95.576 102.078 95.3529 103.229 95.3529C104.38 95.3529 105.402 95.576 106.295 96.0222C107.187 96.4683 107.885 97.1376 108.389 98.0299C108.893 98.9079 109.144 100.016 109.144 101.355C109.144 102.722 108.885 103.852 108.367 104.744C107.849 105.636 107.137 106.298 106.23 106.73C105.338 107.148 104.33 107.356 103.207 107.356ZM103.315 104.83C103.834 104.83 104.265 104.715 104.611 104.485C104.956 104.24 105.215 103.873 105.388 103.384C105.561 102.895 105.647 102.29 105.647 101.571C105.647 100.808 105.553 100.167 105.366 99.6491C105.179 99.1166 104.899 98.7136 104.524 98.4401C104.165 98.1523 103.697 98.0083 103.121 98.0083C102.632 98.0083 102.207 98.1307 101.847 98.3753C101.502 98.6056 101.243 98.9654 101.07 99.4548C100.897 99.9441 100.811 100.556 100.811 101.29C100.811 102.47 101.027 103.355 101.459 103.945C101.905 104.535 102.524 104.83 103.315 104.83ZM116.556 107.356C115.577 107.356 114.714 107.22 113.965 106.946C113.217 106.673 112.591 106.284 112.087 105.78C111.583 105.262 111.195 104.643 110.921 103.924C110.662 103.204 110.533 102.398 110.533 101.506C110.533 100.585 110.662 99.7498 110.921 99.0014C111.195 98.253 111.583 97.6053 112.087 97.0584C112.591 96.5115 113.21 96.0941 113.944 95.8063C114.678 95.504 115.52 95.3529 116.47 95.3529C117.42 95.3529 118.24 95.504 118.931 95.8063C119.622 96.1085 120.183 96.5331 120.615 97.08C121.061 97.6269 121.363 98.2602 121.521 98.9798L118.305 100.059C118.261 99.5843 118.146 99.1957 117.959 98.8935C117.772 98.5912 117.527 98.3753 117.225 98.2458C116.937 98.1019 116.621 98.0299 116.275 98.0299C115.915 98.0299 115.599 98.1019 115.325 98.2458C115.052 98.3897 114.822 98.6056 114.635 98.8935C114.447 99.1813 114.304 99.534 114.203 99.9513C114.102 100.354 114.052 100.822 114.052 101.355C114.052 102.117 114.145 102.758 114.332 103.276C114.534 103.78 114.822 104.161 115.196 104.42C115.584 104.679 116.052 104.809 116.599 104.809C117.16 104.809 117.599 104.694 117.916 104.463C118.233 104.233 118.463 103.952 118.607 103.621C118.751 103.276 118.837 102.938 118.866 102.607L121.888 103.276C121.831 103.809 121.687 104.327 121.457 104.83C121.241 105.32 120.917 105.759 120.485 106.147C120.053 106.522 119.514 106.817 118.866 107.032C118.233 107.248 117.463 107.356 116.556 107.356ZM127.421 107.356C126.069 107.356 125.047 106.903 124.356 105.996C123.679 105.075 123.341 103.679 123.341 101.808V95.6552H126.839V101.355C126.839 102.42 126.997 103.218 127.313 103.751C127.63 104.269 128.112 104.528 128.76 104.528C129.149 104.528 129.48 104.435 129.753 104.248C130.041 104.046 130.278 103.773 130.465 103.427C130.667 103.067 130.811 102.657 130.897 102.197C130.998 101.736 131.048 101.232 131.048 100.685V95.6552H134.524V102.434V107.054H131.761L131.696 103.535H131.264C131.048 104.427 130.775 105.161 130.444 105.737C130.127 106.298 129.724 106.709 129.235 106.968C128.746 107.227 128.141 107.356 127.421 107.356ZM137.197 107.054V95.6552H140.672V107.054H137.197ZM138.945 94.0576C138.283 94.0576 137.772 93.9208 137.412 93.6474C137.067 93.3595 136.894 92.9565 136.894 92.4384C136.894 91.8915 137.067 91.4813 137.412 91.2078C137.772 90.92 138.283 90.7761 138.945 90.7761C139.622 90.7761 140.133 90.92 140.478 91.2078C140.838 91.4813 141.018 91.8843 141.018 92.4168C141.018 92.9493 140.838 93.3595 140.478 93.6474C140.133 93.9208 139.622 94.0576 138.945 94.0576ZM147.541 107.356C146.591 107.356 145.756 107.119 145.036 106.644C144.331 106.155 143.777 105.464 143.374 104.571C142.971 103.665 142.769 102.585 142.769 101.333C142.769 100.182 142.942 99.1597 143.288 98.2674C143.633 97.3751 144.144 96.677 144.82 96.1733C145.511 95.6552 146.36 95.3961 147.368 95.3961C148.087 95.3961 148.692 95.5256 149.181 95.7847C149.685 96.0438 150.102 96.4324 150.433 96.9505C150.764 97.4686 151.031 98.1235 151.232 98.9151H151.772C151.671 98.4257 151.578 97.9652 151.491 97.5334C151.405 97.0872 151.333 96.677 151.275 96.3028C151.232 95.9142 151.211 95.576 151.211 95.2881V91.5101H154.708V101.484V107.054H151.858L151.815 103.686H151.34C151.182 104.55 150.93 105.255 150.585 105.802C150.254 106.334 149.829 106.73 149.311 106.989C148.807 107.234 148.217 107.356 147.541 107.356ZM148.793 104.55C149.239 104.55 149.613 104.456 149.915 104.269C150.232 104.068 150.484 103.816 150.671 103.514C150.858 103.211 150.995 102.887 151.081 102.542C151.167 102.197 151.211 101.873 151.211 101.571V101.117C151.211 100.844 151.175 100.57 151.103 100.297C151.031 100.023 150.923 99.757 150.779 99.498C150.649 99.2389 150.484 99.0086 150.282 98.8071C150.081 98.6056 149.843 98.4473 149.57 98.3322C149.311 98.217 149.023 98.1595 148.706 98.1595C148.231 98.1595 147.821 98.289 147.476 98.5481C147.145 98.8071 146.886 99.1741 146.699 99.6491C146.526 100.124 146.44 100.685 146.44 101.333C146.44 101.981 146.533 102.549 146.72 103.039C146.907 103.514 147.181 103.888 147.541 104.161C147.9 104.42 148.318 104.55 148.793 104.55ZM160.071 107.356C159.438 107.356 158.876 107.234 158.387 106.989C157.898 106.73 157.516 106.363 157.243 105.888C156.969 105.399 156.833 104.809 156.833 104.118C156.833 103.47 156.955 102.938 157.2 102.52C157.459 102.089 157.826 101.75 158.301 101.506C158.79 101.247 159.373 101.038 160.049 100.88C160.726 100.707 161.496 100.556 162.359 100.426C162.777 100.354 163.122 100.29 163.396 100.232C163.684 100.16 163.899 100.052 164.043 99.9082C164.187 99.7642 164.259 99.5555 164.259 99.2821C164.259 98.9223 164.13 98.6128 163.871 98.3538C163.612 98.0947 163.194 97.9652 162.619 97.9652C162.216 97.9652 161.849 98.0371 161.517 98.181C161.201 98.325 160.927 98.5337 160.697 98.8071C160.467 99.0806 160.294 99.4116 160.179 99.8002L157.113 98.8935C157.3 98.289 157.56 97.7637 157.891 97.3175C158.236 96.8713 158.646 96.5043 159.121 96.2165C159.596 95.9142 160.136 95.6983 160.74 95.5688C161.359 95.4249 162.014 95.3529 162.705 95.3529C163.856 95.3529 164.792 95.54 165.511 95.9142C166.245 96.274 166.785 96.8425 167.131 97.6197C167.49 98.3825 167.67 99.3684 167.67 100.577V102.326C167.67 102.844 167.678 103.37 167.692 103.902C167.721 104.42 167.749 104.946 167.778 105.478C167.821 105.996 167.872 106.522 167.929 107.054H164.864C164.806 106.723 164.749 106.327 164.691 105.867C164.633 105.392 164.59 104.91 164.562 104.42H164.151C163.95 104.967 163.655 105.471 163.266 105.931C162.892 106.378 162.431 106.73 161.885 106.989C161.352 107.234 160.747 107.356 160.071 107.356ZM161.647 104.895C161.906 104.895 162.165 104.852 162.424 104.766C162.698 104.665 162.957 104.535 163.201 104.377C163.446 104.204 163.669 103.996 163.871 103.751C164.072 103.506 164.223 103.24 164.324 102.952L164.281 101.247L164.756 101.355C164.482 101.527 164.18 101.664 163.849 101.765C163.518 101.866 163.18 101.945 162.834 102.002C162.503 102.06 162.172 102.125 161.841 102.197C161.525 102.254 161.237 102.333 160.978 102.434C160.733 102.535 160.539 102.672 160.395 102.844C160.251 103.017 160.179 103.254 160.179 103.557C160.179 103.96 160.316 104.284 160.589 104.528C160.863 104.773 161.215 104.895 161.647 104.895ZM174.442 107.356C173.492 107.356 172.658 107.119 171.938 106.644C171.233 106.155 170.679 105.464 170.276 104.571C169.873 103.665 169.671 102.585 169.671 101.333C169.671 100.182 169.844 99.1597 170.189 98.2674C170.535 97.3751 171.046 96.677 171.722 96.1733C172.413 95.6552 173.262 95.3961 174.27 95.3961C174.989 95.3961 175.594 95.5256 176.083 95.7847C176.587 96.0438 177.004 96.4324 177.335 96.9505C177.666 97.4686 177.933 98.1235 178.134 98.9151H178.674C178.573 98.4257 178.479 97.9652 178.393 97.5334C178.307 97.0872 178.235 96.677 178.177 96.3028C178.134 95.9142 178.112 95.576 178.112 95.2881V91.5101H181.61V101.484V107.054H178.76L178.717 103.686H178.242C178.084 104.55 177.832 105.255 177.486 105.802C177.155 106.334 176.731 106.73 176.213 106.989C175.709 107.234 175.119 107.356 174.442 107.356ZM175.694 104.55C176.141 104.55 176.515 104.456 176.817 104.269C177.134 104.068 177.386 103.816 177.573 103.514C177.76 103.211 177.897 102.887 177.983 102.542C178.069 102.197 178.112 101.873 178.112 101.571V101.117C178.112 100.844 178.076 100.57 178.004 100.297C177.933 100.023 177.825 99.757 177.681 99.498C177.551 99.2389 177.386 99.0086 177.184 98.8071C176.983 98.6056 176.745 98.4473 176.472 98.3322C176.213 98.217 175.925 98.1595 175.608 98.1595C175.133 98.1595 174.723 98.289 174.378 98.5481C174.047 98.8071 173.787 99.1741 173.6 99.6491C173.428 100.124 173.341 100.685 173.341 101.333C173.341 101.981 173.435 102.549 173.622 103.039C173.809 103.514 174.082 103.888 174.442 104.161C174.802 104.42 175.22 104.55 175.694 104.55ZM189.542 107.356C188.39 107.356 187.369 107.133 186.476 106.687C185.598 106.241 184.907 105.572 184.404 104.679C183.9 103.787 183.648 102.672 183.648 101.333C183.648 99.9945 183.9 98.8863 184.404 98.0083C184.907 97.116 185.606 96.4539 186.498 96.0222C187.39 95.576 188.412 95.3529 189.563 95.3529C190.715 95.3529 191.737 95.576 192.629 96.0222C193.521 96.4683 194.219 97.1376 194.723 98.0299C195.227 98.9079 195.479 100.016 195.479 101.355C195.479 102.722 195.22 103.852 194.702 104.744C194.183 105.636 193.471 106.298 192.564 106.73C191.672 107.148 190.665 107.356 189.542 107.356ZM189.65 104.83C190.168 104.83 190.6 104.715 190.945 104.485C191.291 104.24 191.55 103.873 191.722 103.384C191.895 102.895 191.981 102.29 191.981 101.571C191.981 100.808 191.888 100.167 191.701 99.6491C191.514 99.1166 191.233 98.7136 190.859 98.4401C190.499 98.1523 190.031 98.0083 189.456 98.0083C188.966 98.0083 188.542 98.1307 188.182 98.3753C187.836 98.6056 187.577 98.9654 187.405 99.4548C187.232 99.9441 187.146 100.556 187.146 101.29C187.146 102.47 187.361 103.355 187.793 103.945C188.239 104.535 188.858 104.83 189.65 104.83Z" fill="#FFFFDB"/>
</svg>
