<svg width="103" height="103" viewBox="0 0 103 103" fill="none" xmlns="http://www.w3.org/2000/svg">
<path fill-rule="evenodd" clip-rule="evenodd" d="M96.1202 40.1512C105.292 30.9567 105.295 16.0734 96.1185 6.8969C86.9455 -2.27633 72.04 -2.30174 62.8621 6.8981L52.8664 16.8738L52.8649 16.8752C52.1029 17.6373 50.8921 17.6373 50.13 16.8752L40.1537 6.89862C30.9785 -2.29899 16.0726 -2.29956 6.89675 6.8969C-2.30043 16.0739 -2.29738 30.9586 6.89676 40.1529L16.8748 50.1312C17.6369 50.8933 17.6369 52.1041 16.8748 52.8662L7.50642 62.2348C-1.3162 71.0577 -2.51224 85.5274 5.87691 95.0143C14.9384 105.275 30.6228 105.63 40.152 96.1005L50.13 86.1019C50.8973 85.3346 52.1211 85.3482 52.8556 86.0925L52.8649 86.1019L62.8616 96.0988C72.038 105.298 86.9222 105.295 96.1168 96.1226L96.1202 96.1191C105.293 86.9236 105.293 72.0417 96.1202 62.8462L96.1171 62.8431L86.1201 52.8662L86.1188 52.8649C85.3529 52.0975 85.3669 50.8746 86.1107 50.1406L86.1187 50.1327L96.1202 40.1512Z" fill="#39377F"/>
</svg>
