<svg width="647" height="405" viewBox="0 0 647 405" fill="none" xmlns="http://www.w3.org/2000/svg">
<g style="mix-blend-mode:soft-light">
<mask id="path-1-inside-1_316_690" fill="white">
<path fill-rule="evenodd" clip-rule="evenodd" d="M58.6824 0.0976562C40.457 0.0976562 25.6824 14.8723 25.6824 33.0977V153.56C25.6635 153.972 25.6539 154.389 25.6539 154.81V163.054C25.6539 168.244 24.1674 173.1 21.6819 176.028L4.88536 195.815C3.59629 196.964 2.53203 198.62 1.72955 200.578C0.529732 203.358 -0.016798 206.607 0.000392862 209.824C-0.016798 213.041 0.529732 216.29 1.72955 219.07C2.53203 221.028 3.59629 222.685 4.88536 223.834L21.6819 243.621C24.1674 246.549 25.6539 251.404 25.6539 256.595V264.838C25.6539 265.259 25.6635 265.676 25.6824 266.089V371.098C25.6824 389.323 40.4569 404.098 58.6823 404.098H614C632.225 404.098 647 389.323 647 371.098V33.0977C647 14.8723 632.225 0.0976562 614 0.0976562H58.6824Z"/>
</mask>
<path d="M25.6824 153.56L27.6803 153.651L27.6824 153.606V153.56H25.6824ZM21.6819 176.028L20.1572 174.733L21.6819 176.028ZM4.88536 195.815L6.21614 197.308L6.32002 197.215L6.41008 197.109L4.88536 195.815ZM1.72955 200.578L3.56584 201.371L3.57315 201.354L3.58015 201.337L1.72955 200.578ZM0.000392862 209.824L2.00036 209.835L2.00042 209.824L2.00036 209.814L0.000392862 209.824ZM1.72955 219.07L3.58015 218.312L3.57315 218.295L3.56584 218.278L1.72955 219.07ZM4.88536 223.834L6.41008 222.54L6.32002 222.434L6.21614 222.341L4.88536 223.834ZM21.6819 243.621L20.1572 244.915L21.6819 243.621ZM25.6824 266.089H27.6824V266.043L27.6803 265.997L25.6824 266.089ZM27.6824 33.0977C27.6824 15.9768 41.5615 2.09766 58.6824 2.09766V-1.90234C39.3524 -1.90234 23.6824 13.7677 23.6824 33.0977H27.6824ZM27.6824 153.56V33.0977H23.6824V153.56H27.6824ZM23.6845 153.469C23.6642 153.912 23.6539 154.359 23.6539 154.81H27.6539C27.6539 154.42 27.6628 154.033 27.6803 153.651L23.6845 153.469ZM23.6539 154.81V163.054H27.6539V154.81H23.6539ZM23.6539 163.054C23.6539 167.937 22.2426 172.277 20.1572 174.733L23.2067 177.322C26.0922 173.923 27.6539 168.551 27.6539 163.054H23.6539ZM20.1572 174.733L3.36064 194.52L6.41008 197.109L23.2067 177.322L20.1572 174.733ZM3.55457 194.322C1.97368 195.731 0.758309 197.674 -0.121046 199.82L3.58015 201.337C4.30574 199.566 5.21891 198.196 6.21614 197.308L3.55457 194.322ZM-0.106737 199.786C-1.4374 202.869 -2.01793 206.401 -1.99958 209.835L2.00036 209.814C1.98433 206.813 2.49687 203.848 3.56584 201.371L-0.106737 199.786ZM-1.99958 209.814C-2.01793 213.247 -1.4374 216.779 -0.106737 219.863L3.56584 218.278C2.49686 215.801 1.98433 212.836 2.00036 209.835L-1.99958 209.814ZM-0.121046 219.829C0.758309 221.974 1.97368 223.918 3.55457 225.327L6.21614 222.341C5.21891 221.452 4.30574 220.082 3.58015 218.312L-0.121046 219.829ZM3.36064 225.128L20.1572 244.915L23.2067 242.326L6.41008 222.54L3.36064 225.128ZM20.1572 244.915C22.2426 247.372 23.6539 251.711 23.6539 256.595H27.6539C27.6539 251.097 26.0922 245.726 23.2067 242.326L20.1572 244.915ZM23.6539 256.595V264.838H27.6539V256.595H23.6539ZM23.6539 264.838C23.6539 265.289 23.6642 265.737 23.6845 266.18L27.6803 265.997C27.6628 265.615 27.6539 265.229 27.6539 264.838H23.6539ZM27.6824 371.098V266.089H23.6824V371.098H27.6824ZM58.6823 402.098C41.5615 402.098 27.6824 388.219 27.6824 371.098H23.6824C23.6824 390.428 39.3524 406.098 58.6823 406.098V402.098ZM614 402.098H58.6823V406.098H614V402.098ZM645 371.098C645 388.218 631.121 402.098 614 402.098V406.098C633.33 406.098 649 390.428 649 371.098H645ZM645 33.0977V371.098H649V33.0977H645ZM614 2.09766C631.121 2.09766 645 15.9768 645 33.0977H649C649 13.7677 633.33 -1.90234 614 -1.90234V2.09766ZM58.6824 2.09766H614V-1.90234H58.6824V2.09766Z" fill="#FFFFDC" mask="url(#path-1-inside-1_316_690)"/>
</g>
<path d="M175.627 93.6772C174.416 93.6772 173.025 93.5426 171.455 93.2735C169.884 92.9594 168.314 92.6229 166.744 92.264C165.219 91.8602 163.828 91.5237 162.572 91.2546C161.315 90.9405 160.351 90.7835 159.678 90.7835C158.691 90.7835 158.13 91.1424 157.995 91.8602C157.861 92.5332 157.861 93.4081 157.995 94.4848H151.4C150.279 92.0621 149.808 89.9311 149.987 88.0916C150.211 86.2522 150.952 84.8165 152.208 83.7846C153.464 82.7079 155.034 82.1695 156.919 82.1695C158.175 82.1695 159.543 82.3041 161.024 82.5733C162.549 82.8425 164.052 83.1789 165.533 83.5827C167.013 83.9416 168.359 84.2557 169.57 84.5249C170.782 84.7941 171.724 84.9287 172.397 84.9287C173.294 84.9287 173.833 84.5922 174.012 83.9192C174.191 83.2462 174.191 82.3714 174.012 81.2946H180.674C181.572 83.4033 181.975 85.4222 181.886 87.3513C181.841 89.2357 181.302 90.761 180.271 91.9275C179.239 93.094 177.691 93.6772 175.627 93.6772ZM372.26 158.677C371.049 158.677 369.658 158.543 368.087 158.273C366.517 157.959 364.947 157.623 363.377 157.264C361.851 156.86 360.461 156.524 359.204 156.255C357.948 155.941 356.984 155.783 356.311 155.783C355.324 155.783 354.763 156.142 354.628 156.86C354.494 157.533 354.494 158.408 354.628 159.485H348.033C346.911 157.062 346.44 154.931 346.62 153.092C346.844 151.252 347.584 149.816 348.841 148.785C350.097 147.708 351.667 147.169 353.551 147.169C354.808 147.169 356.176 147.304 357.656 147.573C359.182 147.842 360.685 148.179 362.165 148.583C363.646 148.942 364.992 149.256 366.203 149.525C367.415 149.794 368.357 149.929 369.03 149.929C369.927 149.929 370.465 149.592 370.645 148.919C370.824 148.246 370.824 147.371 370.645 146.295H377.307C378.204 148.403 378.608 150.422 378.518 152.351C378.474 154.236 377.935 155.761 376.903 156.928C375.871 158.094 374.324 158.677 372.26 158.677Z" fill="#FFFFDB"/>
<path d="M227.502 121.471V111.444C227.502 110.367 227.569 109.268 227.704 108.146C227.883 106.98 228.108 105.768 228.377 104.512C228.646 103.211 228.915 101.932 229.184 100.676H227.771C227.053 102.964 226.156 104.893 225.079 106.464C224.047 107.989 222.746 109.133 221.176 109.896C219.651 110.658 217.766 111.04 215.523 111.04C212.383 111.04 209.736 110.232 207.582 108.617C205.473 107.002 203.881 104.804 202.804 102.022C201.727 99.2404 201.189 96.0999 201.189 92.6005C201.189 88.6524 201.794 85.2651 203.006 82.4387C204.217 79.6122 205.967 77.4363 208.255 75.9109C210.543 74.3855 213.235 73.6228 216.331 73.6228C218.439 73.6228 220.301 74.0266 221.916 74.8341C223.576 75.5968 224.922 76.7857 225.954 78.4009C227.031 80.016 227.749 82.1022 228.108 84.6595H229.521V74.6322H238.404V92.3313V121.471H227.502ZM219.695 102.493C220.682 102.493 221.58 102.314 222.387 101.955C223.195 101.596 223.913 101.102 224.541 100.474C225.169 99.8461 225.707 99.1507 226.156 98.388C226.605 97.5805 226.941 96.7505 227.165 95.898C227.39 95.0456 227.502 94.1932 227.502 93.3408V91.8602C227.502 90.9181 227.367 89.9086 227.098 88.8319C226.829 87.7103 226.403 86.6784 225.819 85.7362C225.236 84.7492 224.451 83.9641 223.464 83.3808C222.522 82.7527 221.355 82.4387 219.965 82.4387C218.484 82.4387 217.183 82.8649 216.061 83.7173C214.94 84.5249 214.087 85.6914 213.504 87.2167C212.921 88.7421 212.629 90.5592 212.629 92.6678C212.629 94.597 212.898 96.3018 213.437 97.7823C214.02 99.2629 214.828 100.429 215.86 101.282C216.936 102.089 218.215 102.493 219.695 102.493ZM258.957 111.04C254.74 111.04 251.555 109.627 249.401 106.8C247.293 103.929 246.238 99.5769 246.238 93.7445V74.565H257.14V92.3313C257.14 95.6513 257.634 98.1413 258.621 99.8012C259.608 101.416 261.111 102.224 263.13 102.224C264.341 102.224 265.373 101.932 266.225 101.349C267.123 100.721 267.863 99.8685 268.446 98.7918C269.074 97.6702 269.523 96.3915 269.792 94.9559C270.106 93.5202 270.263 91.95 270.263 90.2451V74.565H281.098V95.6961V110.098H272.484L272.282 99.1283H270.936C270.263 101.91 269.411 104.198 268.379 105.993C267.392 107.742 266.136 109.021 264.61 109.828C263.085 110.636 261.201 111.04 258.957 111.04ZM306.32 111.04C303.359 111.04 300.712 110.658 298.379 109.896C296.046 109.088 294.05 107.922 292.39 106.396C290.775 104.871 289.541 102.987 288.688 100.743C287.836 98.5002 287.41 95.9205 287.41 93.0043C287.41 90.1778 287.813 87.5757 288.621 85.1978C289.473 82.82 290.662 80.7787 292.188 79.0738C293.758 77.3241 295.665 75.9782 297.908 75.036C300.196 74.0939 302.753 73.6228 305.58 73.6228C308.451 73.6228 310.964 74.0939 313.117 75.036C315.315 75.9333 317.11 77.2793 318.501 79.0738C319.936 80.8684 320.991 83.0668 321.664 85.6689C322.337 88.2262 322.561 91.1648 322.337 94.4848L294.543 94.6867V89.0338L316.145 88.8319L312.309 91.4564C312.624 89.2132 312.489 87.3962 311.906 86.0054C311.322 84.5697 310.47 83.5379 309.348 82.9098C308.227 82.2368 307.015 81.9003 305.714 81.9003C304.144 81.9003 302.753 82.3265 301.542 83.1789C300.376 84.0314 299.456 85.2651 298.783 86.8803C298.11 88.4954 297.773 90.4694 297.773 92.8024C297.773 96.4813 298.559 99.1507 300.129 100.811C301.744 102.471 303.785 103.301 306.253 103.301C307.464 103.301 308.474 103.144 309.281 102.83C310.089 102.471 310.739 102.044 311.233 101.551C311.771 101.013 312.175 100.429 312.444 99.8012C312.758 99.1731 313.005 98.5675 313.184 97.9842L322.606 100.003C322.247 101.663 321.664 103.166 320.856 104.512C320.093 105.858 319.039 107.024 317.693 108.011C316.392 108.998 314.799 109.739 312.915 110.232C311.076 110.771 308.877 111.04 306.32 111.04ZM308.675 69.9215H300.533L305.647 58.2118H316.213L308.675 69.9215ZM273.92 176.04C270.959 176.04 268.312 175.658 265.979 174.896C263.646 174.088 261.65 172.922 259.99 171.396C258.375 169.871 257.141 167.987 256.289 165.743C255.436 163.5 255.01 160.92 255.01 158.004C255.01 155.178 255.414 152.576 256.221 150.198C257.074 147.82 258.263 145.779 259.788 144.074C261.358 142.324 263.265 140.978 265.508 140.036C267.796 139.094 270.354 138.623 273.18 138.623C276.051 138.623 278.564 139.094 280.717 140.036C282.916 140.933 284.71 142.279 286.101 144.074C287.537 145.868 288.591 148.067 289.264 150.669C289.937 153.226 290.161 156.165 289.937 159.485L262.143 159.687V154.034L283.746 153.832L279.91 156.456C280.224 154.213 280.089 152.396 279.506 151.005C278.923 149.57 278.07 148.538 276.949 147.91C275.827 147.237 274.616 146.9 273.315 146.9C271.744 146.9 270.354 147.327 269.142 148.179C267.976 149.031 267.056 150.265 266.383 151.88C265.71 153.495 265.374 155.469 265.374 157.802C265.374 161.481 266.159 164.151 267.729 165.811C269.344 167.471 271.386 168.301 273.853 168.301C275.064 168.301 276.074 168.144 276.881 167.83C277.689 167.471 278.34 167.044 278.833 166.551C279.371 166.013 279.775 165.429 280.044 164.801C280.358 164.173 280.605 163.567 280.785 162.984L290.206 165.003C289.847 166.663 289.264 168.166 288.456 169.512C287.694 170.858 286.639 172.024 285.294 173.011C283.992 173.998 282.4 174.739 280.515 175.232C278.676 175.771 276.478 176.04 273.92 176.04ZM311.391 176.04C309.013 176.04 306.86 175.815 304.931 175.367C303.001 174.963 301.319 174.357 299.883 173.55C298.448 172.742 297.259 171.778 296.317 170.656C295.419 169.49 294.791 168.211 294.432 166.82L302.508 163.253C302.822 164.016 303.36 164.801 304.123 165.609C304.931 166.372 305.985 167 307.286 167.493C308.632 167.987 310.247 168.233 312.131 168.233C313.926 168.233 315.317 167.987 316.304 167.493C317.336 166.955 317.851 166.192 317.851 165.205C317.851 164.487 317.56 163.926 316.977 163.523C316.438 163.074 315.608 162.693 314.487 162.379C313.365 162.02 311.974 161.683 310.314 161.369C308.609 161.01 306.882 160.606 305.132 160.158C303.383 159.664 301.745 159.014 300.22 158.206C298.694 157.354 297.461 156.255 296.518 154.909C295.621 153.518 295.172 151.768 295.172 149.659C295.172 147.461 295.756 145.554 296.922 143.939C298.089 142.279 299.816 140.978 302.104 140.036C304.437 139.094 307.263 138.623 310.583 138.623C313.545 138.623 316.147 139.004 318.39 139.767C320.633 140.53 322.495 141.629 323.976 143.064C325.501 144.455 326.555 146.138 327.138 148.112L318.457 151.207C318.233 150.22 317.762 149.368 317.044 148.65C316.371 147.932 315.496 147.394 314.419 147.035C313.387 146.631 312.154 146.429 310.718 146.429C308.968 146.429 307.6 146.698 306.613 147.237C305.671 147.775 305.2 148.493 305.2 149.39C305.2 150.108 305.514 150.714 306.142 151.207C306.815 151.656 307.757 152.037 308.968 152.351C310.18 152.665 311.615 153.002 313.275 153.361C315.025 153.72 316.752 154.146 318.457 154.639C320.207 155.088 321.777 155.716 323.168 156.524C324.604 157.286 325.725 158.318 326.533 159.619C327.385 160.876 327.811 162.513 327.811 164.532C327.811 166.91 327.183 168.974 325.927 170.723C324.671 172.428 322.809 173.752 320.341 174.694C317.919 175.591 314.935 176.04 311.391 176.04Z" fill="#B6B4E6"/>
<path d="M98.8255 88.3645C98.8204 90.2681 97.2446 91.8439 95.341 91.8491C93.4374 91.8542 91.87 90.2869 91.8752 88.3833L91.8813 86.1255C91.8822 85.7713 91.5952 85.4844 91.2411 85.4853L89.1161 85.4911C87.2568 85.4961 85.6447 84.1059 85.5169 82.247C85.4117 80.233 87.0099 78.5464 89.0021 78.5411L91.2819 78.5571C91.636 78.5561 91.9246 78.2676 91.9255 77.9134L91.9317 75.6114C91.9369 73.7078 93.5127 72.132 95.4163 72.1269C97.3199 72.1217 98.8872 73.6891 98.8821 75.5927L98.8538 77.8726C98.8528 78.2268 99.1398 78.5137 99.494 78.5128L101.774 78.4845C103.678 78.4794 105.245 80.0467 105.24 81.9503C105.235 83.8539 103.659 85.4297 101.755 85.4349L99.4752 85.4631C99.1211 85.4641 98.8326 85.7526 98.8316 86.1068L98.8255 88.3645Z" fill="#FFFFDB"/>
<path d="M399.451 158.61C396.945 158.612 394.877 156.545 394.879 154.039C394.881 151.533 396.952 149.463 399.458 149.461L402.43 149.458C402.896 149.458 403.275 149.079 403.276 148.612L403.278 145.815C403.28 143.367 405.117 141.239 407.565 141.062C410.217 140.914 412.43 143.01 412.428 145.633L412.396 148.634C412.396 149.1 412.774 149.479 413.241 149.479L416.271 149.476C418.777 149.474 420.844 151.541 420.842 154.047C420.84 156.553 418.769 158.624 416.264 158.626L413.262 158.599C412.796 158.599 412.417 158.978 412.417 159.445L412.443 162.446C412.441 164.952 410.371 167.022 407.865 167.024C405.359 167.026 403.292 164.959 403.294 162.453L403.267 159.452C403.267 158.986 402.889 158.607 402.423 158.608L399.451 158.61Z" fill="#FFFFDB"/>
<path d="M318.397 291.356V247.933H307.479V236.01L324.672 236.889V234.63C322.078 233.877 319.903 232.789 318.146 231.367C316.389 229.861 315.092 228.104 314.255 226.096C313.502 224.088 313.126 221.913 313.126 219.57C313.126 215.972 314.004 212.877 315.761 210.283C317.518 207.689 319.987 205.681 323.166 204.259C326.345 202.753 330.11 202 334.461 202C338.059 202 341.322 202.46 344.25 203.38C347.262 204.301 349.688 205.43 351.529 206.769L350.274 221.327C348.433 219.821 346.3 218.65 343.873 217.813C341.447 216.893 339.104 216.432 336.845 216.432C334.252 216.432 332.118 217.185 330.445 218.691C328.772 220.114 327.935 222.456 327.935 225.719C327.935 227.811 328.448 229.458 329.064 230.865C330.492 234.122 335.355 241.99 348.383 245.803L348.191 247.933H333.833V291.356H318.397Z" fill="#D1CEED"/>
<path fill-rule="evenodd" clip-rule="evenodd" d="M378.44 244.217C380.668 241.984 380.668 238.369 378.439 236.14C376.212 233.913 372.591 233.906 370.362 236.141L367.935 238.564L367.934 238.564C367.749 238.749 367.455 238.749 367.27 238.564L364.847 236.141C362.619 233.907 358.998 233.907 356.77 236.14C354.536 238.369 354.537 241.984 356.77 244.218L359.193 246.641C359.378 246.826 359.378 247.12 359.193 247.305L356.918 249.581C354.775 251.723 354.485 255.238 356.522 257.542C358.723 260.034 362.532 260.12 364.847 257.806L367.27 255.377C367.456 255.191 367.754 255.194 367.932 255.375L367.934 255.377L370.362 257.805C372.591 260.039 376.206 260.039 378.439 257.811L378.44 257.81C380.668 255.577 380.668 251.962 378.44 249.729L378.439 249.728L376.011 247.305L376.011 247.305C375.825 247.119 375.828 246.822 376.009 246.643L376.011 246.641L378.44 244.217Z" fill="#D1CEED"/>
<path d="M408.021 291.356L453.883 208.526H464.3L477.674 291.356H470.144L458.502 215.052H457.247L415.677 291.356H408.021ZM424.384 271.276L425.639 264.875H471.195L469.94 271.276H424.384Z" fill="#D1CEED"/>
<path d="M384.291 291.356L400.535 208.526H407.814L391.57 291.356H384.291Z" fill="#D1CEED"/>
<path d="M266.384 292.987C259.942 292.987 254.253 291.69 249.316 289.097C244.38 286.419 240.49 282.529 237.645 277.425C234.884 272.238 233.503 265.879 233.503 258.349C233.503 250.652 234.926 244.293 237.77 239.273C240.699 234.17 244.631 230.363 249.567 227.853C254.504 225.343 260.067 224.088 266.259 224.088C272.701 224.088 278.39 225.385 283.327 227.978C288.263 230.572 292.153 234.463 294.998 239.65C297.843 244.753 299.265 251.112 299.265 258.726C299.265 266.423 297.843 272.823 294.998 277.927C292.153 283.031 288.221 286.838 283.201 289.348C278.265 291.774 272.659 292.987 266.384 292.987ZM267.012 280.939C270.526 280.939 273.496 280.144 275.922 278.555C278.349 276.881 280.189 274.413 281.444 271.15C282.783 267.887 283.452 263.997 283.452 259.479C283.452 254.71 282.741 250.652 281.319 247.305C279.98 243.875 278.014 241.239 275.42 239.399C272.91 237.558 269.731 236.638 265.882 236.638C262.536 236.638 259.607 237.474 257.097 239.148C254.587 240.737 252.663 243.122 251.324 246.301C250.069 249.481 249.442 253.413 249.442 258.098C249.442 265.461 250.99 271.108 254.085 275.041C257.265 278.973 261.573 280.939 267.012 280.939Z" fill="#D1CEED"/>
<path d="M187.763 292.987C182.325 292.987 177.472 292.443 173.205 291.356C168.938 290.352 165.299 288.762 162.287 286.587C159.359 284.328 157.1 281.608 155.51 278.429C153.92 275.166 153.084 271.359 153 267.009L167.056 262.867C166.972 266.883 167.809 270.23 169.566 272.907C171.323 275.501 173.833 277.425 177.096 278.68C180.443 279.935 184.249 280.563 188.516 280.563C192.616 280.563 196.046 280.061 198.807 279.057C201.652 278.053 203.785 276.714 205.208 275.041C206.63 273.284 207.341 271.318 207.341 269.142C207.341 266.716 206.463 264.792 204.706 263.369C202.949 261.863 200.564 260.65 197.552 259.73C194.624 258.726 191.277 257.805 187.512 256.969C183.413 256.048 179.397 255.044 175.464 253.957C171.616 252.869 168.102 251.405 164.922 249.564C161.743 247.724 159.191 245.381 157.267 242.536C155.426 239.608 154.506 235.927 154.506 231.492C154.506 226.472 155.761 222.164 158.271 218.566C160.781 214.885 164.42 212.04 169.189 210.032C174.042 207.94 179.815 206.895 186.508 206.895C193.118 206.895 198.891 207.899 203.827 209.907C208.764 211.831 212.612 214.675 215.373 218.44C218.134 222.205 219.598 226.64 219.766 231.743L205.333 235.759C205.333 232.998 204.873 230.614 203.953 228.606C203.116 226.514 201.861 224.799 200.188 223.46C198.514 222.038 196.506 220.992 194.164 220.323C191.905 219.654 189.311 219.319 186.383 219.319C182.953 219.319 179.941 219.779 177.347 220.699C174.837 221.62 172.913 222.917 171.574 224.59C170.235 226.18 169.566 228.062 169.566 230.237C169.566 232.915 170.57 235.048 172.578 236.638C174.586 238.228 177.221 239.524 180.484 240.528C183.831 241.449 187.47 242.369 191.403 243.289C195 244.042 198.598 244.963 202.196 246.05C205.877 247.138 209.266 248.56 212.361 250.317C215.457 252.074 217.925 254.459 219.766 257.471C221.69 260.399 222.652 264.122 222.652 268.64C222.652 273.493 221.355 277.76 218.762 281.441C216.168 285.122 212.278 287.967 207.09 289.975C201.903 291.983 195.461 292.987 187.763 292.987Z" fill="#D1CEED"/>
<path d="M159.428 350.918C160.961 350.918 161.925 350.326 161.925 349.362C161.925 348.42 161.553 347.982 159.165 347.369C156.864 346.777 155.353 345.967 155.353 343.951C155.353 341.957 157.127 340.621 159.975 340.621C161.925 340.621 163.327 341.191 164.379 341.957L163.327 343.513C162.429 342.921 161.399 342.483 160.041 342.483C158.464 342.483 157.85 342.987 157.85 343.754C157.85 344.63 158.486 344.959 160.786 345.594C163.043 346.208 164.532 346.996 164.532 349.187C164.532 351.707 162.079 352.78 159.428 352.78C157.281 352.78 155.747 352.079 154.674 351.159L155.966 349.669C156.864 350.392 158.069 350.918 159.428 350.918ZM172.98 335.253C173.923 335.253 174.58 335.933 174.58 336.809C174.58 337.685 173.923 338.343 172.98 338.343C172.016 338.343 171.381 337.685 171.381 336.809C171.381 335.933 172.016 335.253 172.98 335.253ZM174.667 340.928V350.699H177.822V352.495H168.774V350.699H172.214V342.724H168.884V340.928H174.667ZM185.701 350.918C187.234 350.918 188.198 350.326 188.198 349.362C188.198 348.42 187.826 347.982 185.438 347.369C183.137 346.777 181.626 345.967 181.626 343.951C181.626 341.957 183.4 340.621 186.248 340.621C188.198 340.621 189.6 341.191 190.652 341.957L189.6 343.513C188.702 342.921 187.672 342.483 186.314 342.483C184.737 342.483 184.123 342.987 184.123 343.754C184.123 344.63 184.759 344.959 187.059 345.594C189.316 346.208 190.805 346.996 190.805 349.187C190.805 351.707 188.352 352.78 185.701 352.78C183.554 352.78 182.02 352.079 180.947 351.159L182.239 349.669C183.137 350.392 184.342 350.918 185.701 350.918ZM204.292 351.882C203.438 352.43 202.211 352.78 200.918 352.78C198.224 352.78 196.8 351.268 196.8 348.99V342.724H194.236V340.928H196.8V338.343L199.253 338.058V340.928H203.175L202.89 342.724H199.253V348.968C199.253 350.217 199.845 350.808 201.269 350.808C202.101 350.808 202.824 350.589 203.416 350.261L204.292 351.882ZM209.805 347.5C209.958 349.866 211.294 350.874 212.959 350.874C214.077 350.874 215.019 350.524 216.005 349.866L217.056 351.356C215.983 352.232 214.471 352.78 212.85 352.78C209.235 352.78 207.263 350.326 207.263 346.712C207.263 343.25 209.257 340.621 212.543 340.621C215.61 340.621 217.538 342.812 217.538 346.405C217.538 346.799 217.516 347.215 217.473 347.5H209.805ZM212.565 342.439C211.032 342.439 209.936 343.513 209.783 345.835H215.15C215.106 343.644 214.208 342.439 212.565 342.439ZM228.878 340.621C230.193 340.621 231.179 341.344 231.179 343.907V352.495H229.01V344.236C229.01 343.031 228.922 342.527 228.243 342.527C227.673 342.527 227.104 342.856 226.534 343.688V352.495H224.54V344.236C224.54 343.031 224.453 342.527 223.774 342.527C223.182 342.527 222.634 342.856 222.065 343.688V352.495H219.874V340.928H221.714L221.889 342.177C222.547 341.256 223.248 340.621 224.365 340.621C225.241 340.621 226.008 340.993 226.337 342.089C226.994 341.213 227.761 340.621 228.878 340.621ZM242.891 349.669C242.891 350.567 243.154 350.918 243.767 351.115L243.198 352.78C242.08 352.649 241.226 352.189 240.81 351.181C239.955 352.254 238.597 352.78 237.129 352.78C234.763 352.78 233.317 351.334 233.317 349.187C233.317 346.777 235.289 345.397 238.816 345.397H240.459V344.652C240.459 343.14 239.517 342.549 237.896 342.549C237.129 342.549 235.99 342.724 234.829 343.14L234.215 341.41C235.661 340.862 237.085 340.621 238.268 340.621C241.379 340.621 242.891 342.067 242.891 344.499V349.669ZM237.852 350.984C238.86 350.984 239.89 350.436 240.459 349.494V346.931H239.101C236.801 346.931 235.902 347.741 235.902 349.1C235.902 350.326 236.56 350.984 237.852 350.984ZM267.105 335.998L269.558 336.283V352.495H267.389L267.214 351.071C266.447 352.167 265.33 352.78 263.972 352.78C260.992 352.78 259.612 350.348 259.612 346.712C259.612 343.184 261.343 340.621 264.191 340.621C265.396 340.621 266.36 341.059 267.105 341.892V335.998ZM264.826 342.505C263.183 342.505 262.219 343.82 262.219 346.712C262.219 349.669 263.095 350.918 264.629 350.918C265.724 350.918 266.535 350.173 267.105 349.253V343.798C266.535 342.987 265.768 342.505 264.826 342.505ZM275.487 347.5C275.64 349.866 276.977 350.874 278.642 350.874C279.759 350.874 280.701 350.524 281.687 349.866L282.739 351.356C281.665 352.232 280.153 352.78 278.532 352.78C274.917 352.78 272.946 350.326 272.946 346.712C272.946 343.25 274.939 340.621 278.225 340.621C281.293 340.621 283.221 342.812 283.221 346.405C283.221 346.799 283.199 347.215 283.155 347.5H275.487ZM278.247 342.439C276.714 342.439 275.618 343.513 275.465 345.835H280.833C280.789 343.644 279.891 342.439 278.247 342.439ZM304.367 340.621C307.741 340.621 309.581 343.009 309.581 346.69C309.581 350.37 307.697 352.78 304.345 352.78C300.971 352.78 299.109 350.458 299.109 346.712C299.109 343.097 300.993 340.621 304.367 340.621ZM304.367 342.527C302.592 342.527 301.694 343.842 301.694 346.712C301.694 349.582 302.57 350.896 304.345 350.896C306.12 350.896 306.996 349.582 306.996 346.69C306.996 343.842 306.12 342.527 304.367 342.527ZM319.256 334.728L320.286 336.678L315.488 338.627L314.765 337.335L319.256 334.728ZM319.168 340.928V350.699H322.323V352.495H313.275V350.699H316.715V342.724H313.385V340.928H319.168ZM332.787 335.998L335.241 336.283V352.495H333.072L332.896 351.071C332.13 352.167 331.012 352.78 329.654 352.78C326.674 352.78 325.294 350.348 325.294 346.712C325.294 343.184 327.025 340.621 329.873 340.621C331.078 340.621 332.042 341.059 332.787 341.892V335.998ZM330.508 342.505C328.865 342.505 327.901 343.82 327.901 346.712C327.901 349.669 328.778 350.918 330.311 350.918C331.407 350.918 332.217 350.173 332.787 349.253V343.798C332.217 342.987 331.45 342.505 330.508 342.505ZM347.983 349.669C347.983 350.567 348.246 350.918 348.859 351.115L348.289 352.78C347.172 352.649 346.318 352.189 345.901 351.181C345.047 352.254 343.689 352.78 342.221 352.78C339.855 352.78 338.409 351.334 338.409 349.187C338.409 346.777 340.381 345.397 343.908 345.397H345.551V344.652C345.551 343.14 344.609 342.549 342.988 342.549C342.221 342.549 341.082 342.724 339.92 343.14L339.307 341.41C340.753 340.862 342.177 340.621 343.36 340.621C346.471 340.621 347.983 342.067 347.983 344.499V349.669ZM342.944 350.984C343.952 350.984 344.981 350.436 345.551 349.494V346.931H344.193C341.892 346.931 340.994 347.741 340.994 349.1C340.994 350.326 341.651 350.984 342.944 350.984ZM372.437 335.998C373.861 335.998 374.935 336.261 375.899 336.678L375.154 338.386C374.387 338.058 373.533 337.904 372.678 337.904C371.167 337.904 370.444 338.474 370.444 339.701V341.76H374.321L374.037 343.579H370.444V352.495H367.99V343.579H365.361V341.76H367.99V339.679C367.99 337.488 369.764 335.998 372.437 335.998ZM380.579 347.5C380.732 349.866 382.068 350.874 383.733 350.874C384.851 350.874 385.793 350.524 386.779 349.866L387.83 351.356C386.757 352.232 385.245 352.78 383.624 352.78C380.009 352.78 378.037 350.326 378.037 346.712C378.037 343.25 380.031 340.621 383.317 340.621C386.384 340.621 388.312 342.812 388.312 346.405C388.312 346.799 388.29 347.215 388.247 347.5H380.579ZM383.339 342.439C381.805 342.439 380.71 343.513 380.557 345.835H385.924C385.88 343.644 384.982 342.439 383.339 342.439ZM399.652 340.621C400.967 340.621 401.953 341.344 401.953 343.907V352.495H399.784V344.236C399.784 343.031 399.696 342.527 399.017 342.527C398.447 342.527 397.878 342.856 397.308 343.688V352.495H395.314V344.236C395.314 343.031 395.227 342.527 394.548 342.527C393.956 342.527 393.408 342.856 392.839 343.688V352.495H390.648V340.928H392.488L392.663 342.177C393.321 341.256 394.022 340.621 395.139 340.621C396.015 340.621 396.782 340.993 397.111 342.089C397.768 341.213 398.535 340.621 399.652 340.621ZM409.437 335.253C410.379 335.253 411.036 335.933 411.036 336.809C411.036 337.685 410.379 338.343 409.437 338.343C408.473 338.343 407.837 337.685 407.837 336.809C407.837 335.933 408.473 335.253 409.437 335.253ZM411.124 340.928V350.699H414.278V352.495H405.23V350.699H408.67V342.724H405.34V340.928H411.124ZM417.95 352.495V340.928H420.076L420.251 342.439C421.215 341.256 422.595 340.621 423.997 340.621C426.144 340.621 427.218 341.892 427.218 344.061V352.495H424.764V345.288C424.764 343.272 424.523 342.505 423.121 342.505C421.982 342.505 421.018 343.316 420.404 344.192V352.495H417.95ZM435.71 335.253C436.652 335.253 437.309 335.933 437.309 336.809C437.309 337.685 436.652 338.343 435.71 338.343C434.746 338.343 434.11 337.685 434.11 336.809C434.11 335.933 434.746 335.253 435.71 335.253ZM437.397 340.928V350.699H440.551V352.495H431.503V350.699H434.943V342.724H431.613V340.928H437.397ZM448.43 350.918C449.963 350.918 450.927 350.326 450.927 349.362C450.927 348.42 450.555 347.982 448.167 347.369C445.867 346.777 444.355 345.967 444.355 343.951C444.355 341.957 446.129 340.621 448.978 340.621C450.927 340.621 452.329 341.191 453.381 341.957L452.329 343.513C451.431 342.921 450.402 342.483 449.043 342.483C447.466 342.483 446.852 342.987 446.852 343.754C446.852 344.63 447.488 344.959 449.788 345.594C452.045 346.208 453.534 346.996 453.534 349.187C453.534 351.707 451.081 352.78 448.43 352.78C446.283 352.78 444.749 352.079 443.676 351.159L444.968 349.669C445.867 350.392 447.071 350.918 448.43 350.918ZM467.021 351.882C466.167 352.43 464.94 352.78 463.648 352.78C460.953 352.78 459.529 351.268 459.529 348.99V342.724H456.965V340.928H459.529V338.343L461.983 338.058V340.928H465.904L465.619 342.724H461.983V348.968C461.983 350.217 462.574 350.808 463.998 350.808C464.831 350.808 465.554 350.589 466.145 350.261L467.021 351.882ZM479.347 349.669C479.347 350.567 479.61 350.918 480.224 351.115L479.654 352.78C478.537 352.649 477.682 352.189 477.266 351.181C476.412 352.254 475.053 352.78 473.585 352.78C471.219 352.78 469.773 351.334 469.773 349.187C469.773 346.777 471.745 345.397 475.272 345.397H476.915V344.652C476.915 343.14 475.973 342.549 474.352 342.549C473.585 342.549 472.446 342.724 471.285 343.14L470.672 341.41C472.118 340.862 473.542 340.621 474.725 340.621C477.836 340.621 479.347 342.067 479.347 344.499V349.669ZM474.308 350.984C475.316 350.984 476.346 350.436 476.915 349.494V346.931H475.557C473.257 346.931 472.359 347.741 472.359 349.1C472.359 350.326 473.016 350.984 474.308 350.984Z" fill="#D1CEED"/>
<path d="M130.923 103.358C131.094 105.082 130.966 106.518 130.537 107.668C130.152 108.817 129.573 109.781 128.802 110.561C128.074 111.3 127.26 111.956 126.36 112.531C125.503 113.065 124.668 113.598 123.853 114.132C123.039 114.665 122.375 115.301 121.861 116.04C121.347 116.738 121.09 117.62 121.09 118.687C121.09 120.124 121.54 121.17 122.44 121.827C123.382 122.443 124.582 122.751 126.039 122.751C127.024 122.751 128.052 122.627 129.123 122.381C130.195 122.176 131.287 121.889 132.401 121.519C133.515 121.109 134.565 120.657 135.55 120.165L136 128.537C134.8 129.071 133.558 129.522 132.272 129.892C130.987 130.261 129.702 130.528 128.416 130.692C127.174 130.897 125.953 131 124.753 131C122.911 131 121.154 130.774 119.483 130.323C117.812 129.871 116.334 129.174 115.049 128.23C113.806 127.327 112.821 126.178 112.093 124.782C111.364 123.428 111 121.807 111 119.919C111 118.195 111.278 116.758 111.835 115.609C112.435 114.46 113.185 113.475 114.085 112.654C114.985 111.833 115.927 111.115 116.913 110.499C117.941 109.843 118.905 109.207 119.805 108.591C120.704 107.934 121.411 107.196 121.925 106.375C122.482 105.554 122.74 104.548 122.697 103.358H130.923Z" fill="#FFFFDB"/>
<path fill-rule="evenodd" clip-rule="evenodd" d="M134.518 88.6508C136.104 87.1278 136.104 84.6625 134.518 83.1425C132.932 81.623 130.354 81.6188 128.767 83.1427L127.039 84.7951C126.907 84.9213 126.697 84.9215 126.566 84.7953L124.84 83.1428C123.254 81.6193 120.676 81.6192 119.09 83.1425C117.499 84.6626 117.5 87.1281 119.09 88.6511L120.815 90.3039C120.947 90.4301 120.947 90.6307 120.815 90.7569L119.195 92.3088C117.67 93.7702 117.463 96.167 118.913 97.7384C120.48 99.4381 123.192 99.4968 124.84 97.9183L126.566 96.2621C126.698 96.135 126.91 96.1373 127.037 96.2606L127.038 96.2621L128.767 97.918C130.354 99.4418 132.928 99.4414 134.517 97.922L134.518 97.9214C136.104 96.3983 136.104 93.9332 134.518 92.41L134.518 92.4095L132.789 90.7569C132.656 90.6298 132.659 90.427 132.787 90.3054L132.789 90.3041L134.518 88.6508Z" fill="#FFFFDB"/>
<path d="M437.966 160.698C437.802 158.93 437.904 157.49 438.274 156.38C438.685 155.228 439.239 154.283 439.937 153.542C440.635 152.761 441.395 152.103 442.216 151.568C443.079 150.993 443.9 150.437 444.68 149.903C445.461 149.368 446.097 148.751 446.59 148.052C447.083 147.312 447.329 146.407 447.329 145.338C447.329 143.898 446.898 142.87 446.035 142.253C445.214 141.595 444.085 141.266 442.648 141.266C441.744 141.266 440.758 141.39 439.691 141.636C438.664 141.842 437.617 142.15 436.549 142.562C435.523 142.932 434.517 143.364 433.531 143.857L433.1 135.468C434.291 134.892 435.482 134.439 436.672 134.11C437.904 133.74 439.136 133.473 440.368 133.308C441.6 133.103 442.771 133 443.879 133C445.686 133 447.37 133.226 448.931 133.679C450.491 134.131 451.867 134.83 453.058 135.776C454.29 136.681 455.255 137.832 455.953 139.231C456.651 140.588 457 142.212 457 144.104C457 145.831 456.713 147.271 456.138 148.422C455.604 149.574 454.906 150.561 454.043 151.383C453.181 152.206 452.277 152.946 451.333 153.604C450.388 154.221 449.485 154.858 448.623 155.516C447.76 156.133 447.062 156.853 446.528 157.675C446.035 158.498 445.81 159.506 445.851 160.698H437.966Z" fill="#FFFFDB"/>
<path fill-rule="evenodd" clip-rule="evenodd" d="M448.931 171.568C450.451 170.042 450.451 167.572 448.93 166.049C447.41 164.526 444.94 164.522 443.419 166.049L441.762 167.705C441.636 167.831 441.435 167.832 441.308 167.705L439.655 166.049C438.134 164.523 435.664 164.522 434.143 166.049C432.619 167.572 432.619 170.043 434.143 171.569L435.797 173.225C435.923 173.351 435.923 173.552 435.797 173.679L434.244 175.234C432.782 176.698 432.584 179.1 433.974 180.675C435.476 182.378 438.075 182.437 439.655 180.855L441.308 179.195C441.436 179.068 441.638 179.07 441.76 179.194L441.762 179.195L443.419 180.855C444.939 182.381 447.406 182.381 448.93 180.858L448.931 180.858C450.451 179.332 450.451 176.862 448.931 175.335L448.93 175.335L447.273 173.679C447.146 173.551 447.148 173.348 447.272 173.226L447.273 173.225L448.931 171.568Z" fill="#FFFFDB"/>
</svg>
