<svg width="263" height="939" viewBox="0 0 263 939" fill="none" xmlns="http://www.w3.org/2000/svg">
<g filter="url(#filter0_d_489_726)">
<rect x="4" y="2" width="255" height="931" rx="15.4485" fill="#39377F"/>
</g>
<path fill-rule="evenodd" clip-rule="evenodd" d="M239.637 30.8949C239.635 29.4357 238.453 28.2531 236.995 28.2531C235.537 28.253 234.351 29.4352 234.352 30.8953L234.351 32.482L234.351 32.4822C234.351 32.6033 234.255 32.6995 234.134 32.6995L232.548 32.6995C231.089 32.6977 229.904 33.8819 229.906 35.3416C229.904 36.8014 231.087 37.9837 232.548 37.9837L234.134 37.9837C234.255 37.9837 234.351 38.0799 234.351 38.201L234.351 39.6896C234.351 41.0915 235.406 42.3362 236.826 42.4234C238.361 42.5187 239.635 41.3007 239.635 39.7866L239.634 38.1995C239.634 38.0775 239.732 37.9814 239.849 37.9822L239.851 37.9822L241.439 37.9822C242.899 37.984 244.082 36.8013 244.083 35.342L244.083 35.3415C244.081 33.8821 242.899 32.6998 241.44 32.698L241.439 32.698L239.852 32.6996L239.852 32.6996C239.73 32.6995 239.634 32.6012 239.635 32.4838L239.635 32.4825L239.637 30.8949Z" fill="#FFFFDB"/>
<path fill-rule="evenodd" clip-rule="evenodd" d="M12.5398 904.63C12.5416 906.089 13.7239 907.272 15.1819 907.272C16.6395 907.272 17.8258 906.089 17.824 904.629L17.8256 903.043L17.8256 903.042C17.8256 902.921 17.9218 902.825 18.0429 902.825L19.6281 902.825C21.0878 902.827 22.2721 901.643 22.2705 900.183C22.2721 898.723 21.0893 897.541 19.6283 897.541L18.0428 897.541C17.9217 897.541 17.8255 897.445 17.8255 897.324L17.8255 895.835C17.8255 894.433 16.7709 893.189 15.3507 893.101C13.8156 893.006 12.5413 894.224 12.5413 895.738L12.543 897.325C12.543 897.447 12.4447 897.543 12.3272 897.542L12.3257 897.542L10.7372 897.542C9.27734 897.541 8.09501 898.723 8.09326 900.183L8.09326 900.183C8.09504 901.643 9.27739 902.825 10.7367 902.827L10.7372 902.827L12.3241 902.825L12.3243 902.825C12.4461 902.825 12.5422 902.923 12.5414 903.041L12.5414 903.042L12.5398 904.63Z" fill="#FFFFDB"/>
<path fill-rule="evenodd" clip-rule="evenodd" d="M225.464 13.8115C225.462 11.7533 223.794 10.0852 221.737 10.0851C219.681 10.0851 218.008 11.7526 218.011 13.8121L218.008 16.0501L218.008 16.0504C218.008 16.2212 217.873 16.3569 217.702 16.3569L215.466 16.3569C213.407 16.3543 211.737 18.0247 211.739 20.0835C211.737 22.1426 213.405 23.8102 215.466 23.8103L217.702 23.8103C217.873 23.8103 218.009 23.946 218.009 24.1168L218.009 26.2165C218.009 28.1939 219.496 29.9494 221.499 30.0724C223.665 30.2069 225.462 28.489 225.462 26.3532L225.46 24.1146C225.46 23.9426 225.598 23.807 225.764 23.8081L225.766 23.8081L228.007 23.8081C230.066 23.8107 231.734 22.1424 231.736 20.0841L231.736 20.0834C231.734 18.025 230.066 16.3573 228.007 16.3547L228.007 16.3547L225.768 16.357L225.768 16.357C225.596 16.3568 225.461 16.2182 225.462 16.0526L225.462 16.0508L225.464 13.8115Z" fill="#FFFFDB"/>
<path fill-rule="evenodd" clip-rule="evenodd" d="M26.7124 921.713C26.7149 923.771 28.3825 925.44 30.4391 925.44C32.495 925.44 34.1682 923.772 34.1658 921.713L34.168 919.475L34.168 919.474C34.168 919.303 34.3037 919.168 34.4745 919.168L36.7105 919.168C38.7694 919.17 40.4398 917.5 40.4375 915.441C40.4398 913.382 38.7714 911.714 36.7108 911.714L34.4744 911.714C34.3036 911.714 34.1679 911.579 34.1679 911.408L34.1679 909.308C34.1679 907.331 32.6804 905.575 30.6772 905.452C28.5118 905.318 26.7145 907.036 26.7145 909.171L26.7168 911.41C26.7168 911.582 26.5781 911.718 26.4124 911.717L26.4103 911.717L24.1698 911.717C22.1106 911.714 20.443 913.382 20.4405 915.441L20.4405 915.441C20.443 917.5 22.1107 919.167 24.1691 919.17L24.1698 919.17L26.4081 919.168L26.4084 919.168C26.5803 919.168 26.7157 919.306 26.7146 919.472L26.7146 919.474L26.7124 921.713Z" fill="#FFFFDB"/>
<defs>
<filter id="filter0_d_489_726" x="0.39535" y="0.45515" width="262.209" height="938.209" filterUnits="userSpaceOnUse" color-interpolation-filters="sRGB">
<feFlood flood-opacity="0" result="BackgroundImageFix"/>
<feColorMatrix in="SourceAlpha" type="matrix" values="0 0 0 0 0 0 0 0 0 0 0 0 0 0 0 0 0 0 127 0" result="hardAlpha"/>
<feOffset dy="2.0598"/>
<feGaussianBlur stdDeviation="1.80233"/>
<feComposite in2="hardAlpha" operator="out"/>
<feColorMatrix type="matrix" values="0 0 0 0 0.168627 0 0 0 0 0.160784 0 0 0 0 0.407843 0 0 0 0.5 0"/>
<feBlend mode="normal" in2="BackgroundImageFix" result="effect1_dropShadow_489_726"/>
<feBlend mode="normal" in="SourceGraphic" in2="effect1_dropShadow_489_726" result="shape"/>
</filter>
</defs>
</svg>
