<svg width="291" height="207" viewBox="0 0 291 207" fill="none" xmlns="http://www.w3.org/2000/svg">
<g style="mix-blend-mode:soft-light">
<mask id="path-1-inside-1_487_696" fill="white">
<path fill-rule="evenodd" clip-rule="evenodd" d="M25.8547 0C17.6575 0 11.0124 6.64516 11.0124 14.8424V76.7567C10.7079 77.6904 10.2801 78.5061 9.75192 79.1282L2.19827 88.0266C1.61693 88.5444 1.13719 89.2918 0.775827 90.1752C0.237691 91.4245 -0.00746309 92.8836 0.000243168 94.3286C-0.00746308 95.7737 0.237691 97.2328 0.775827 98.4821C1.13719 99.3655 1.61693 100.113 2.19827 100.631L9.75192 109.529C10.2801 110.151 10.7079 110.967 11.0124 111.901V192.006C11.0124 200.203 17.6575 206.848 25.8547 206.848H276.158C284.355 206.848 291 200.203 291 192.006V14.8424C291 6.64515 284.355 0 276.158 0H25.8547Z"/>
</mask>
<path d="M11.0124 76.7567L11.8676 77.0356L11.9119 76.8997V76.7567H11.0124ZM9.75192 79.1282L10.4377 79.7104H10.4377L9.75192 79.1282ZM2.19827 88.0266L2.7966 88.6983L2.84345 88.6565L2.88404 88.6087L2.19827 88.0266ZM0.775827 90.1752L1.60198 90.5311L1.60526 90.5234L1.60839 90.5158L0.775827 90.1752ZM0.000243168 94.3286L0.899818 94.3334L0.899767 94.3238L0.000243168 94.3286ZM0.775827 98.4821L1.60839 98.1415L1.60526 98.1339L1.60198 98.1262L0.775827 98.4821ZM2.19827 100.631L2.88404 100.049L2.84345 100.001L2.7966 99.959L2.19827 100.631ZM9.75192 109.529L10.4377 108.947H10.4377L9.75192 109.529ZM11.0124 111.901H11.9119V111.758L11.8676 111.622L11.0124 111.901ZM11.9119 14.8424C11.9119 7.14196 18.1543 0.899537 25.8547 0.899537V-0.899537C17.1607 -0.899537 10.1128 6.14836 10.1128 14.8424H11.9119ZM11.9119 76.7567V14.8424H10.1128V76.7567H11.9119ZM10.1571 76.4779C9.87997 77.3279 9.50193 78.0327 9.06615 78.5461L10.4377 79.7104C11.0582 78.9794 11.5359 78.0529 11.8676 77.0356L10.1571 76.4779ZM9.06615 78.5461L1.5125 87.4444L2.88404 88.6087L10.4377 79.7104L9.06615 78.5461ZM1.59995 87.3549C0.886959 87.99 0.339183 88.8667 -0.0567403 89.8346L1.60839 90.5158C1.9352 89.7169 2.3469 89.0988 2.7966 88.6983L1.59995 87.3549ZM-0.0503217 89.8193C-0.647095 91.2047 -0.907506 92.7911 -0.899281 94.3334L0.899767 94.3238C0.892579 92.976 1.12248 91.6442 1.60198 90.5311L-0.0503217 89.8193ZM-0.899281 94.3238C-0.907506 95.8661 -0.647095 97.4526 -0.0503217 98.838L1.60198 98.1262C1.12248 97.0131 0.892579 95.6813 0.899767 94.3334L-0.899281 94.3238ZM-0.0567402 98.8227C0.339183 99.7905 0.886959 100.667 1.59995 101.302L2.7966 99.959C2.3469 99.5584 1.9352 98.9404 1.60839 98.1415L-0.0567402 98.8227ZM1.5125 101.213L9.06615 110.111L10.4377 108.947L2.88404 100.049L1.5125 101.213ZM9.06615 110.111C9.50193 110.625 9.87997 111.329 10.1571 112.179L11.8676 111.622C11.5359 110.604 11.0582 109.678 10.4377 108.947L9.06615 110.111ZM11.9119 192.006V111.901H10.1128V192.006H11.9119ZM25.8547 205.949C18.1543 205.949 11.9119 199.706 11.9119 192.006H10.1128C10.1128 200.7 17.1607 207.748 25.8547 207.748V205.949ZM276.158 205.949H25.8547V207.748H276.158V205.949ZM290.101 192.006C290.101 199.706 283.858 205.949 276.158 205.949V207.748C284.852 207.748 291.9 200.7 291.9 192.006H290.101ZM290.101 14.8424V192.006H291.9V14.8424H290.101ZM276.158 0.899537C283.858 0.899537 290.101 7.14195 290.101 14.8424H291.9C291.9 6.14835 284.852 -0.899537 276.158 -0.899537V0.899537ZM25.8547 0.899537H276.158V-0.899537H25.8547V0.899537Z" fill="#FFFFDC" mask="url(#path-1-inside-1_487_696)"/>
</g>
<path d="M78.9916 41.3522C78.4468 41.3522 77.8212 41.2916 77.115 41.1706C76.4087 41.0293 75.7025 40.878 74.9962 40.7165C74.3101 40.5349 73.6846 40.3836 73.1196 40.2625C72.5546 40.1213 72.1208 40.0506 71.8181 40.0506C71.3742 40.0506 71.1219 40.2121 71.0614 40.5349C71.0009 40.8376 71.0009 41.2311 71.0614 41.7154H68.0951C67.5907 40.6257 67.3788 39.6672 67.4595 38.8399C67.5604 38.0126 67.8933 37.3669 68.4583 36.9028C69.0233 36.4185 69.7296 36.1763 70.5771 36.1763C71.1421 36.1763 71.7576 36.2369 72.4234 36.3579C73.1095 36.479 73.7855 36.6304 74.4514 36.812C75.1173 36.9734 75.7227 37.1146 76.2675 37.2357C76.8123 37.3568 77.2361 37.4173 77.5387 37.4173C77.9423 37.4173 78.1844 37.266 78.2652 36.9633C78.3459 36.6606 78.3459 36.2671 78.2652 35.7829H81.2617C81.6653 36.7313 81.8469 37.6393 81.8065 38.507C81.7863 39.3545 81.5442 40.0406 81.0801 40.5652C80.616 41.0898 79.9198 41.3522 78.9916 41.3522ZM167.431 70.3522C166.886 70.3522 166.26 70.2916 165.554 70.1706C164.848 70.0293 164.142 69.878 163.435 69.7165C162.749 69.5349 162.124 69.3836 161.559 69.2625C160.994 69.1213 160.56 69.0506 160.257 69.0506C159.813 69.0506 159.561 69.2121 159.501 69.5349C159.44 69.8376 159.44 70.2311 159.501 70.7154H156.534C156.03 69.6257 155.818 68.6672 155.899 67.8399C156 67.0126 156.333 66.3669 156.898 65.9028C157.463 65.4185 158.169 65.1763 159.016 65.1763C159.581 65.1763 160.197 65.2369 160.863 65.3579C161.549 65.479 162.225 65.6304 162.891 65.812C163.557 65.9734 164.162 66.1146 164.707 66.2357C165.252 66.3568 165.675 66.4173 165.978 66.4173C166.382 66.4173 166.624 66.266 166.704 65.9633C166.785 65.6606 166.785 65.2671 166.704 64.7829H169.701C170.104 65.7313 170.286 66.6393 170.246 67.507C170.226 68.3545 169.983 69.0406 169.519 69.5652C169.055 70.0898 168.359 70.3522 167.431 70.3522Z" fill="#FFFFDB"/>
<path d="M102.323 53.8528V49.3429C102.323 48.8586 102.354 48.3642 102.414 47.8598C102.495 47.3351 102.596 46.7903 102.717 46.2253C102.838 45.6401 102.959 45.065 103.08 44.5H102.444C102.121 45.5291 101.718 46.3968 101.234 47.1031C100.769 47.7892 100.184 48.3037 99.478 48.6467C98.792 48.9898 97.9445 49.1613 96.9355 49.1613C95.523 49.1613 94.3325 48.7981 93.3639 48.0717C92.4155 47.3452 91.6992 46.3565 91.2149 45.1054C90.7306 43.8543 90.4885 42.4418 90.4885 40.8679C90.4885 39.0922 90.7609 37.5687 91.3057 36.2974C91.8505 35.0262 92.6375 34.0475 93.6666 33.3614C94.6957 32.6753 95.9064 32.3323 97.2988 32.3323C98.2471 32.3323 99.0846 32.5139 99.811 32.8771C100.558 33.2202 101.163 33.7549 101.627 34.4813C102.111 35.2078 102.434 36.1461 102.596 37.2963H103.231V32.7863H107.227V40.7468V53.8528H102.323ZM98.8121 45.3173C99.2561 45.3173 99.6597 45.2366 100.023 45.0751C100.386 44.9137 100.709 44.6917 100.991 44.4092C101.274 44.1267 101.516 43.814 101.718 43.4709C101.92 43.1077 102.071 42.7344 102.172 42.351C102.273 41.9676 102.323 41.5842 102.323 41.2008V40.5349C102.323 40.1112 102.263 39.6572 102.142 39.1729C102.021 38.6684 101.829 38.2043 101.567 37.7805C101.304 37.3366 100.951 36.9835 100.507 36.7212C100.083 36.4387 99.5588 36.2974 98.9332 36.2974C98.2673 36.2974 97.6821 36.4891 97.1777 36.8725C96.6732 37.2357 96.2898 37.7604 96.0275 38.4464C95.7652 39.1325 95.634 39.9497 95.634 40.8981C95.634 41.7658 95.7551 42.5326 95.9972 43.1985C96.2596 43.8644 96.6228 44.3891 97.0869 44.7724C97.5712 45.1357 98.1463 45.3173 98.8121 45.3173ZM116.471 49.1613C114.574 49.1613 113.141 48.5257 112.173 47.2544C111.224 45.963 110.75 44.0057 110.75 41.3824V32.7561H115.654V40.7468C115.654 42.24 115.876 43.3599 116.32 44.1065C116.763 44.833 117.439 45.1962 118.348 45.1962C118.892 45.1962 119.356 45.065 119.74 44.8027C120.143 44.5202 120.476 44.1368 120.739 43.6525C121.021 43.1481 121.223 42.573 121.344 41.9273C121.485 41.2815 121.556 40.5753 121.556 39.8085V32.7561H126.429V42.2602V48.7375H122.555L122.464 43.8039H121.859C121.556 45.0549 121.173 46.0841 120.708 46.8912C120.264 47.6782 119.699 48.2533 119.013 48.6165C118.327 48.9797 117.48 49.1613 116.471 49.1613ZM137.773 49.1613C136.441 49.1613 135.251 48.9898 134.202 48.6467C133.152 48.2835 132.254 47.7589 131.508 47.0728C130.781 46.3867 130.226 45.5392 129.843 44.5303C129.46 43.5214 129.268 42.3611 129.268 41.0495C129.268 39.7782 129.449 38.6079 129.813 37.5384C130.196 36.4689 130.731 35.5508 131.417 34.784C132.123 33.997 132.981 33.3917 133.99 32.9679C135.019 32.5442 136.169 32.3323 137.44 32.3323C138.732 32.3323 139.862 32.5442 140.83 32.9679C141.819 33.3715 142.626 33.9769 143.252 34.784C143.897 35.5912 144.372 36.5799 144.674 37.7503C144.977 38.9005 145.078 40.2222 144.977 41.7154L132.476 41.8062V39.2637L142.192 39.1729L140.467 40.3533C140.608 39.3444 140.548 38.5272 140.285 37.9016C140.023 37.2559 139.64 36.7918 139.135 36.5093C138.631 36.2066 138.086 36.0553 137.501 36.0553C136.795 36.0553 136.169 36.247 135.624 36.6304C135.1 37.0138 134.686 37.5687 134.383 38.2951C134.08 39.0215 133.929 39.9094 133.929 40.9587C133.929 42.6133 134.282 43.814 134.989 44.5606C135.715 45.3072 136.633 45.6805 137.743 45.6805C138.288 45.6805 138.742 45.6099 139.105 45.4686C139.468 45.3072 139.761 45.1155 139.983 44.8935C140.225 44.6514 140.406 44.3891 140.528 44.1065C140.669 43.824 140.78 43.5516 140.861 43.2893L145.098 44.1974C144.937 44.944 144.674 45.6199 144.311 46.2253C143.968 46.8307 143.494 47.3553 142.888 47.7992C142.303 48.2432 141.587 48.5761 140.739 48.7981C139.912 49.0402 138.923 49.1613 137.773 49.1613ZM138.833 30.6676H135.17L137.47 25.4009H142.223L138.833 30.6676ZM123.201 78.1613C121.869 78.1613 120.678 77.9898 119.629 77.6467C118.58 77.2835 117.682 76.7589 116.935 76.0728C116.209 75.3867 115.654 74.5392 115.271 73.5303C114.887 72.5214 114.696 71.3611 114.696 70.0495C114.696 68.7782 114.877 67.6079 115.24 66.5384C115.624 65.4689 116.158 64.5508 116.845 63.784C117.551 62.997 118.408 62.3917 119.417 61.9679C120.446 61.5442 121.597 61.3323 122.868 61.3323C124.159 61.3323 125.289 61.5442 126.258 61.9679C127.247 62.3715 128.054 62.9769 128.679 63.784C129.325 64.5912 129.799 65.5799 130.102 66.7503C130.405 67.9005 130.505 69.2222 130.405 70.7154L117.904 70.8062V68.2637L127.62 68.1729L125.895 69.3533C126.036 68.3444 125.975 67.5272 125.713 66.9016C125.451 66.2559 125.067 65.7918 124.563 65.5093C124.058 65.2066 123.514 65.0553 122.928 65.0553C122.222 65.0553 121.597 65.247 121.052 65.6304C120.527 66.0138 120.113 66.5687 119.811 67.2951C119.508 68.0215 119.357 68.9094 119.357 69.9587C119.357 71.6133 119.71 72.814 120.416 73.5606C121.143 74.3072 122.061 74.6805 123.171 74.6805C123.715 74.6805 124.169 74.6099 124.533 74.4686C124.896 74.3072 125.188 74.1155 125.41 73.8935C125.653 73.6514 125.834 73.3891 125.955 73.1065C126.096 72.824 126.207 72.5516 126.288 72.2893L130.526 73.1974C130.364 73.944 130.102 74.6199 129.739 75.2253C129.396 75.8307 128.921 76.3553 128.316 76.7992C127.731 77.2432 127.015 77.5761 126.167 77.7981C125.34 78.0402 124.351 78.1613 123.201 78.1613ZM140.054 78.1613C138.984 78.1613 138.016 78.0604 137.148 77.8586C136.281 77.677 135.524 77.4046 134.878 77.0414C134.232 76.6782 133.698 76.2443 133.274 75.7399C132.87 75.2152 132.588 74.6401 132.426 74.0146L136.059 72.4104C136.2 72.7534 136.442 73.1065 136.785 73.4698C137.148 73.8128 137.622 74.0953 138.208 74.3173C138.813 74.5392 139.539 74.6502 140.387 74.6502C141.194 74.6502 141.82 74.5392 142.263 74.3173C142.728 74.0751 142.96 73.7321 142.96 73.2882C142.96 72.9653 142.828 72.7131 142.566 72.5315C142.324 72.3297 141.951 72.1582 141.446 72.0169C140.942 71.8555 140.316 71.7041 139.57 71.5629C138.803 71.4015 138.026 71.2198 137.239 71.0181C136.452 70.7961 135.716 70.5035 135.029 70.1403C134.343 69.7569 133.788 69.2625 133.365 68.6572C132.961 68.0316 132.759 67.2447 132.759 66.2963C132.759 65.3075 133.022 64.4499 133.546 63.7235C134.071 62.9769 134.848 62.3917 135.877 61.9679C136.926 61.5442 138.197 61.3323 139.691 61.3323C141.022 61.3323 142.193 61.5038 143.202 61.8469C144.211 62.1899 145.048 62.6843 145.714 63.33C146.4 63.9555 146.874 64.7122 147.137 65.6001L143.232 66.9924C143.131 66.5485 142.919 66.1651 142.596 65.8422C142.294 65.5194 141.9 65.2772 141.416 65.1158C140.952 64.9342 140.397 64.8434 139.751 64.8434C138.964 64.8434 138.349 64.9645 137.905 65.2066C137.481 65.4488 137.269 65.7716 137.269 66.1752C137.269 66.498 137.411 66.7705 137.693 66.9924C137.996 67.1942 138.419 67.3657 138.964 67.507C139.509 67.6482 140.155 67.7996 140.901 67.961C141.688 68.1224 142.465 68.3141 143.232 68.5361C144.019 68.7379 144.725 69.0204 145.351 69.3836C145.997 69.7266 146.501 70.1907 146.864 70.7759C147.248 71.3409 147.439 72.0774 147.439 72.9855C147.439 74.0549 147.157 74.9832 146.592 75.7701C146.027 76.5369 145.189 77.1322 144.08 77.5559C142.99 77.9595 141.648 78.1613 140.054 78.1613Z" fill="#B6B4E6"/>
<path d="M44.4487 39.6995C44.4463 40.5557 43.7376 41.2644 42.8814 41.2667C42.0252 41.269 41.3203 40.5641 41.3226 39.7079L41.3253 38.6925C41.3258 38.5332 41.1967 38.4041 41.0374 38.4045L40.0817 38.4071C39.2454 38.4094 38.5204 37.7841 38.4629 36.948C38.4155 36.0422 39.1344 35.2836 40.0304 35.2812L41.0558 35.2884C41.2151 35.288 41.3448 35.1582 41.3453 34.9989L41.348 33.9635C41.3504 33.1074 42.0591 32.3986 42.9153 32.3963C43.7715 32.394 44.4764 33.0989 44.4741 33.9551L44.4614 34.9806C44.4609 35.1399 44.59 35.2689 44.7493 35.2685L45.7748 35.2558C46.6309 35.2535 47.3359 35.9584 47.3336 36.8146C47.3313 37.6708 46.6225 38.3795 45.7663 38.3818L44.7409 38.3945C44.5816 38.395 44.4518 38.5247 44.4514 38.684L44.4487 39.6995Z" fill="#FFFFDB"/>
<path d="M179.66 71.2938C178.533 71.2947 177.603 70.3649 177.604 69.2378C177.605 68.1108 178.537 67.1795 179.664 67.1786L181 67.1775C181.21 67.1773 181.381 67.0068 181.381 66.7971L181.382 65.539C181.383 64.4381 182.209 63.4807 183.31 63.4012C184.503 63.3347 185.498 64.2775 185.497 65.457L185.483 66.8069C185.483 67.0166 185.653 67.1868 185.863 67.1867L187.226 67.1856C188.353 67.1847 189.282 68.1144 189.282 69.2415C189.281 70.3686 188.349 71.2998 187.222 71.3008L185.872 71.2887C185.663 71.2889 185.492 71.4594 185.492 71.6691L185.504 73.019C185.503 74.1461 184.572 75.0773 183.445 75.0782C182.318 75.0792 181.388 74.1494 181.389 73.0223L181.377 71.6725C181.377 71.4628 181.207 71.2925 180.997 71.2927L179.66 71.2938Z" fill="#FFFFDB"/>
<path d="M143.205 130.999V111.469H138.294V106.106L146.027 106.501V105.485C144.86 105.147 143.882 104.658 143.092 104.018C142.302 103.341 141.718 102.55 141.342 101.647C141.003 100.744 140.834 99.7656 140.834 98.712C140.834 97.0939 141.229 95.7015 142.019 94.535C142.81 93.3684 143.92 92.4653 145.35 91.8256C146.78 91.1482 148.473 90.8096 150.43 90.8096C152.048 90.8096 153.515 91.0165 154.833 91.4305C156.187 91.8444 157.278 92.3524 158.106 92.9545L157.542 99.5022C156.714 98.8249 155.754 98.298 154.663 97.9217C153.572 97.5078 152.518 97.3008 151.502 97.3008C150.336 97.3008 149.376 97.6395 148.623 98.3168C147.871 98.9566 147.495 100.01 147.495 101.478C147.495 102.419 147.725 103.159 148.003 103.792C148.645 105.257 150.832 108.796 156.692 110.511L156.605 111.469H150.148V130.999H143.205Z" fill="#D1CEED"/>
<path fill-rule="evenodd" clip-rule="evenodd" d="M170.21 109.797C171.212 108.793 171.212 107.167 170.21 106.165C169.208 105.163 167.58 105.16 166.577 106.165L165.485 107.254L165.485 107.255C165.402 107.338 165.27 107.338 165.186 107.255L164.097 106.165C163.094 105.16 161.466 105.16 160.464 106.165C159.459 107.167 159.459 108.793 160.464 109.797L161.554 110.887C161.637 110.971 161.637 111.103 161.554 111.186L160.53 112.21C159.566 113.173 159.436 114.754 160.352 115.79C161.342 116.911 163.055 116.95 164.096 115.909L165.186 114.817C165.27 114.733 165.404 114.734 165.484 114.816L165.485 114.817L166.577 115.909C167.579 116.914 169.205 116.913 170.21 115.911L170.21 115.911C171.212 114.906 171.212 113.281 170.21 112.276L170.21 112.276L169.118 111.186L169.118 111.186C169.034 111.102 169.035 110.969 169.117 110.888L169.118 110.888L170.21 109.797Z" fill="#D1CEED"/>
<path d="M183.515 130.999L204.143 93.7449H208.828L214.843 130.999H211.456L206.22 96.68H205.656L186.959 130.999H183.515ZM190.875 121.968L191.439 119.089H211.929L211.364 121.968H190.875Z" fill="#D1CEED"/>
<path d="M172.842 130.999L180.148 93.7449H183.422L176.116 130.999H172.842Z" fill="#D1CEED"/>
<path d="M119.811 131.732C116.914 131.732 114.355 131.149 112.135 129.982C109.914 128.778 108.165 127.029 106.885 124.733C105.643 122.4 105.022 119.54 105.022 116.153C105.022 112.691 105.662 109.831 106.942 107.574C108.259 105.278 110.027 103.566 112.248 102.437C114.468 101.308 116.97 100.744 119.755 100.744C122.652 100.744 125.211 101.327 127.431 102.493C129.652 103.66 131.401 105.41 132.681 107.743C133.96 110.038 134.6 112.898 134.6 116.323C134.6 119.785 133.96 122.663 132.681 124.959C131.401 127.254 129.633 128.966 127.375 130.095C125.155 131.187 122.634 131.732 119.811 131.732ZM120.093 126.314C121.674 126.314 123.01 125.956 124.101 125.241C125.192 124.488 126.02 123.378 126.585 121.911C127.187 120.443 127.488 118.693 127.488 116.661C127.488 114.516 127.168 112.691 126.528 111.186C125.926 109.643 125.042 108.458 123.875 107.63C122.746 106.802 121.316 106.388 119.585 106.388C118.08 106.388 116.763 106.765 115.634 107.517C114.505 108.232 113.64 109.305 113.038 110.735C112.473 112.164 112.191 113.933 112.191 116.04C112.191 119.352 112.887 121.892 114.28 123.661C115.71 125.429 117.647 126.314 120.093 126.314Z" fill="#D1CEED"/>
<path d="M84.4504 131.732C82.0044 131.732 79.8218 131.488 77.9027 130.999C75.9835 130.547 74.3466 129.832 72.9919 128.854C71.6749 127.838 70.6588 126.615 69.9439 125.185C69.2289 123.717 68.8526 122.005 68.8149 120.048L75.1369 118.185C75.0992 119.992 75.4755 121.497 76.2658 122.701C77.056 123.868 78.1849 124.733 79.6525 125.298C81.1577 125.862 82.8699 126.144 84.7891 126.144C86.6329 126.144 88.1758 125.919 89.4176 125.467C90.697 125.015 91.6566 124.413 92.2963 123.661C92.936 122.87 93.2559 121.986 93.2559 121.008C93.2559 119.917 92.8608 119.051 92.0705 118.411C91.2803 117.734 90.2078 117.188 88.8531 116.774C87.5361 116.323 86.0309 115.909 84.3375 115.533C82.4936 115.119 80.6873 114.667 78.9187 114.178C77.1877 113.689 75.6072 113.03 74.1773 112.202C72.7473 111.374 71.5996 110.321 70.7341 109.041C69.9062 107.724 69.4923 106.069 69.4923 104.074C69.4923 101.816 70.0567 99.8783 71.1857 98.2602C72.3146 96.6044 73.9515 95.325 76.0964 94.4219C78.279 93.4811 80.8755 93.0107 83.8859 93.0107C86.8587 93.0107 89.4552 93.4623 91.6754 94.3654C93.8956 95.2309 95.6266 96.5104 96.8684 98.2037C98.1102 99.8971 98.7688 101.892 98.844 104.187L92.3528 105.993C92.3528 104.751 92.1458 103.679 91.7319 102.776C91.3556 101.835 90.7911 101.064 90.0385 100.462C89.2859 99.8219 88.3828 99.3515 87.3291 99.0504C86.3131 98.7494 85.1465 98.5989 83.8295 98.5989C82.2866 98.5989 80.9319 98.8058 79.7654 99.2198C78.6365 99.6337 77.771 100.217 77.1689 100.97C76.5668 101.685 76.2658 102.531 76.2658 103.51C76.2658 104.714 76.7173 105.673 77.6205 106.388C78.5236 107.103 79.709 107.687 81.1765 108.138C82.6818 108.552 84.3187 108.966 86.0873 109.38C87.7054 109.719 89.3235 110.133 90.9416 110.622C92.5974 111.111 94.1214 111.751 95.5137 112.541C96.9061 113.331 98.0162 114.404 98.844 115.758C99.7095 117.075 100.142 118.75 100.142 120.782C100.142 122.965 99.559 124.884 98.3925 126.539C97.2259 128.195 95.4761 129.475 93.143 130.378C90.8099 131.281 87.9124 131.732 84.4504 131.732Z" fill="#D1CEED"/>
<path d="M74.4337 165.391C75.7137 165.391 76.5182 164.898 76.5182 164.093C76.5182 163.307 76.2074 162.941 74.2143 162.429C72.2944 161.935 71.0327 161.259 71.0327 159.577C71.0327 157.913 72.5138 156.797 74.8908 156.797C76.5182 156.797 77.6884 157.273 78.5661 157.913L77.6884 159.211C76.9388 158.717 76.0794 158.352 74.9457 158.352C73.6292 158.352 73.1172 158.772 73.1172 159.412C73.1172 160.143 73.6475 160.418 75.5674 160.948C77.4507 161.46 78.6941 162.118 78.6941 163.947C78.6941 166.05 76.6462 166.945 74.4337 166.945C72.6418 166.945 71.3619 166.36 70.4659 165.592L71.5447 164.349C72.2944 164.952 73.3001 165.391 74.4337 165.391ZM85.7449 152.318C86.5312 152.318 87.0797 152.884 87.0797 153.616C87.0797 154.347 86.5312 154.896 85.7449 154.896C84.9404 154.896 84.4101 154.347 84.4101 153.616C84.4101 152.884 84.9404 152.318 85.7449 152.318ZM87.1529 157.053V165.208H89.7859V166.708H82.2342V165.208H85.105V158.553H82.3257V157.053H87.1529ZM96.3613 165.391C97.6413 165.391 98.4458 164.898 98.4458 164.093C98.4458 163.307 98.135 162.941 96.1419 162.429C94.222 161.935 92.9603 161.259 92.9603 159.577C92.9603 157.913 94.4414 156.797 96.8185 156.797C98.4458 156.797 99.6161 157.273 100.494 157.913L99.6161 159.211C98.8664 158.717 98.007 158.352 96.8733 158.352C95.5568 158.352 95.0448 158.772 95.0448 159.412C95.0448 160.143 95.5751 160.418 97.495 160.948C99.3784 161.46 100.622 162.118 100.622 163.947C100.622 166.05 98.5738 166.945 96.3613 166.945C94.5694 166.945 93.2895 166.36 92.3935 165.592L93.4723 164.349C94.222 164.952 95.2277 165.391 96.3613 165.391ZM111.878 166.196C111.165 166.653 110.141 166.945 109.062 166.945C106.813 166.945 105.625 165.684 105.625 163.782V158.553H103.485V157.053H105.625V154.896L107.673 154.658V157.053H110.946L110.708 158.553H107.673V163.764C107.673 164.806 108.166 165.3 109.355 165.3C110.05 165.3 110.653 165.117 111.147 164.843L111.878 166.196ZM116.479 162.539C116.607 164.514 117.722 165.355 119.112 165.355C120.044 165.355 120.831 165.062 121.653 164.514L122.531 165.757C121.635 166.488 120.373 166.945 119.02 166.945C116.003 166.945 114.358 164.898 114.358 161.881C114.358 158.992 116.022 156.797 118.764 156.797C121.324 156.797 122.933 158.626 122.933 161.625C122.933 161.954 122.915 162.301 122.878 162.539H116.479ZM118.783 158.315C117.503 158.315 116.588 159.211 116.46 161.149H120.94C120.904 159.321 120.154 158.315 118.783 158.315ZM132.398 156.797C133.495 156.797 134.318 157.401 134.318 159.54V166.708H132.507V159.814C132.507 158.809 132.434 158.388 131.868 158.388C131.392 158.388 130.917 158.662 130.441 159.357V166.708H128.777V159.814C128.777 158.809 128.704 158.388 128.137 158.388C127.644 158.388 127.187 158.662 126.711 159.357V166.708H124.883V157.053H126.419L126.565 158.096C127.113 157.328 127.699 156.797 128.631 156.797C129.362 156.797 130.002 157.108 130.277 158.022C130.825 157.291 131.465 156.797 132.398 156.797ZM144.093 164.349C144.093 165.099 144.312 165.391 144.824 165.556L144.349 166.945C143.416 166.836 142.703 166.452 142.356 165.611C141.643 166.507 140.509 166.945 139.284 166.945C137.309 166.945 136.102 165.739 136.102 163.947C136.102 161.935 137.748 160.783 140.692 160.783H142.063V160.162C142.063 158.9 141.277 158.406 139.924 158.406C139.284 158.406 138.333 158.553 137.364 158.9L136.852 157.456C138.059 156.998 139.247 156.797 140.235 156.797C142.831 156.797 144.093 158.004 144.093 160.034V164.349ZM139.887 165.446C140.729 165.446 141.588 164.989 142.063 164.203V162.063H140.93C139.01 162.063 138.26 162.74 138.26 163.874C138.26 164.898 138.809 165.446 139.887 165.446ZM164.302 152.939L166.35 153.177V166.708H164.54L164.393 165.519C163.753 166.433 162.821 166.945 161.687 166.945C159.2 166.945 158.048 164.916 158.048 161.881C158.048 158.937 159.493 156.797 161.87 156.797C162.876 156.797 163.68 157.163 164.302 157.858V152.939ZM162.4 158.37C161.029 158.37 160.224 159.467 160.224 161.881C160.224 164.349 160.956 165.391 162.236 165.391C163.15 165.391 163.826 164.77 164.302 164.002V159.449C163.826 158.772 163.186 158.37 162.4 158.37ZM171.298 162.539C171.426 164.514 172.541 165.355 173.931 165.355C174.863 165.355 175.65 165.062 176.472 164.514L177.35 165.757C176.454 166.488 175.193 166.945 173.839 166.945C170.822 166.945 169.177 164.898 169.177 161.881C169.177 158.992 170.841 156.797 173.583 156.797C176.143 156.797 177.752 158.626 177.752 161.625C177.752 161.954 177.734 162.301 177.698 162.539H171.298ZM173.602 158.315C172.322 158.315 171.408 159.211 171.28 161.149H175.759C175.723 159.321 174.973 158.315 173.602 158.315ZM74.7994 178.797C77.6153 178.797 79.1512 180.79 79.1512 183.862C79.1512 186.934 77.5787 188.945 74.7811 188.945C71.9653 188.945 70.411 187.007 70.411 183.881C70.411 180.864 71.9835 178.797 74.7994 178.797ZM74.7994 180.388C73.3183 180.388 72.5687 181.485 72.5687 183.881C72.5687 186.276 73.3001 187.373 74.7811 187.373C76.2622 187.373 76.9936 186.276 76.9936 183.862C76.9936 181.485 76.2622 180.388 74.7994 180.388ZM87.226 173.879L88.0854 175.506L84.081 177.133L83.4776 176.055L87.226 173.879ZM87.1529 179.053V187.208H89.7859V188.708H82.2342V187.208H85.105V180.553H82.3257V179.053H87.1529ZM98.519 174.939L100.567 175.177V188.708H98.7567L98.6104 187.519C97.9704 188.433 97.0379 188.945 95.9042 188.945C93.4175 188.945 92.2655 186.916 92.2655 183.881C92.2655 180.937 93.71 178.797 96.0871 178.797C97.0927 178.797 97.8973 179.163 98.519 179.858V174.939ZM96.6173 180.37C95.246 180.37 94.4414 181.467 94.4414 183.881C94.4414 186.349 95.1728 187.391 96.4528 187.391C97.367 187.391 98.0436 186.77 98.519 186.002V181.449C98.0436 180.772 97.4036 180.37 96.6173 180.37ZM111.202 186.349C111.202 187.099 111.421 187.391 111.933 187.556L111.458 188.945C110.525 188.836 109.812 188.452 109.464 187.611C108.751 188.507 107.618 188.945 106.393 188.945C104.418 188.945 103.211 187.739 103.211 185.947C103.211 183.935 104.857 182.783 107.801 182.783H109.172V182.162C109.172 180.9 108.386 180.406 107.033 180.406C106.393 180.406 105.442 180.553 104.473 180.9L103.961 179.456C105.168 178.998 106.356 178.797 107.343 178.797C109.94 178.797 111.202 180.004 111.202 182.034V186.349ZM106.996 187.446C107.837 187.446 108.697 186.989 109.172 186.203V184.063H108.038C106.118 184.063 105.369 184.74 105.369 185.874C105.369 186.898 105.917 187.446 106.996 187.446ZM131.612 174.939C132.8 174.939 133.696 175.159 134.501 175.506L133.879 176.932C133.239 176.658 132.526 176.53 131.813 176.53C130.551 176.53 129.948 177.005 129.948 178.029V179.748H133.184L132.946 181.266H129.948V188.708H127.9V181.266H125.706V179.748H127.9V178.011C127.9 176.183 129.381 174.939 131.612 174.939ZM138.406 184.539C138.534 186.514 139.65 187.355 141.039 187.355C141.972 187.355 142.758 187.062 143.581 186.514L144.459 187.757C143.563 188.488 142.301 188.945 140.948 188.945C137.931 188.945 136.285 186.898 136.285 183.881C136.285 180.992 137.949 178.797 140.692 178.797C143.252 178.797 144.861 180.626 144.861 183.625C144.861 183.954 144.843 184.301 144.806 184.539H138.406ZM140.71 180.315C139.43 180.315 138.516 181.211 138.388 183.149H142.868C142.831 181.321 142.082 180.315 140.71 180.315ZM154.325 178.797C155.423 178.797 156.245 179.401 156.245 181.54V188.708H154.435V181.814C154.435 180.809 154.362 180.388 153.795 180.388C153.32 180.388 152.844 180.662 152.369 181.357V188.708H150.705V181.814C150.705 180.809 150.632 180.388 150.065 180.388C149.571 180.388 149.114 180.662 148.639 181.357V188.708H146.81V179.053H148.346L148.493 180.096C149.041 179.328 149.626 178.797 150.559 178.797C151.29 178.797 151.93 179.108 152.204 180.022C152.753 179.291 153.393 178.797 154.325 178.797ZM162.492 174.318C163.278 174.318 163.826 174.884 163.826 175.616C163.826 176.347 163.278 176.896 162.492 176.896C161.687 176.896 161.157 176.347 161.157 175.616C161.157 174.884 161.687 174.318 162.492 174.318ZM163.9 179.053V187.208H166.533V188.708H158.981V187.208H161.852V180.553H159.072V179.053H163.9ZM169.597 188.708V179.053H171.371L171.517 180.315C172.322 179.328 173.474 178.797 174.644 178.797C176.436 178.797 177.332 179.858 177.332 181.668V188.708H175.284V182.692C175.284 181.01 175.083 180.37 173.913 180.37C172.962 180.37 172.157 181.046 171.645 181.778V188.708H169.597ZM184.419 174.318C185.206 174.318 185.754 174.884 185.754 175.616C185.754 176.347 185.206 176.896 184.419 176.896C183.615 176.896 183.084 176.347 183.084 175.616C183.084 174.884 183.615 174.318 184.419 174.318ZM185.827 179.053V187.208H188.46V188.708H180.909V187.208H183.779V180.553H181V179.053H185.827ZM195.036 187.391C196.316 187.391 197.12 186.898 197.12 186.093C197.12 185.307 196.809 184.941 194.816 184.429C192.896 183.935 191.635 183.259 191.635 181.577C191.635 179.913 193.116 178.797 195.493 178.797C197.12 178.797 198.29 179.273 199.168 179.913L198.29 181.211C197.541 180.717 196.681 180.352 195.548 180.352C194.231 180.352 193.719 180.772 193.719 181.412C193.719 182.143 194.249 182.418 196.169 182.948C198.053 183.46 199.296 184.118 199.296 185.947C199.296 188.05 197.248 188.945 195.036 188.945C193.244 188.945 191.964 188.36 191.068 187.592L192.147 186.349C192.896 186.952 193.902 187.391 195.036 187.391ZM210.552 188.196C209.839 188.653 208.815 188.945 207.737 188.945C205.487 188.945 204.299 187.684 204.299 185.782V180.553H202.16V179.053H204.299V176.896L206.347 176.658V179.053H209.62L209.382 180.553H206.347V185.764C206.347 186.806 206.841 187.3 208.029 187.3C208.724 187.3 209.327 187.117 209.821 186.843L210.552 188.196ZM220.84 186.349C220.84 187.099 221.059 187.391 221.571 187.556L221.096 188.945C220.163 188.836 219.45 188.452 219.103 187.611C218.389 188.507 217.256 188.945 216.031 188.945C214.056 188.945 212.849 187.739 212.849 185.947C212.849 183.935 214.495 182.783 217.439 182.783H218.81V182.162C218.81 180.9 218.024 180.406 216.671 180.406C216.031 180.406 215.08 180.553 214.111 180.9L213.599 179.456C214.806 178.998 215.994 178.797 216.982 178.797C219.578 178.797 220.84 180.004 220.84 182.034V186.349ZM216.634 187.446C217.475 187.446 218.335 186.989 218.81 186.203V184.063H217.676C215.756 184.063 215.007 184.74 215.007 185.874C215.007 186.898 215.555 187.446 216.634 187.446Z" fill="#D1CEED"/>
<path d="M58.8852 46.4434C58.9623 47.2187 58.9045 47.8648 58.7118 48.3816C58.5384 48.8985 58.2782 49.3323 57.9314 49.683C57.6038 50.0153 57.2376 50.3106 56.833 50.5691C56.4476 50.809 56.0718 51.049 55.7056 51.289C55.3395 51.529 55.0408 51.8151 54.8096 52.1473C54.5783 52.4612 54.4627 52.858 54.4627 53.338C54.4627 53.9841 54.665 54.4548 55.0697 54.7501C55.4937 55.027 56.0332 55.1655 56.6884 55.1655C57.1316 55.1655 57.5941 55.1101 58.0759 54.9993C58.5576 54.907 59.049 54.7778 59.5501 54.6117C60.0511 54.4271 60.5232 54.224 60.9664 54.0025L61.1688 57.7682C60.6292 58.0082 60.0704 58.2113 59.4923 58.3774C58.9141 58.5435 58.336 58.6635 57.7579 58.7374C57.1991 58.8297 56.6499 58.8758 56.1103 58.8758C55.2817 58.8758 54.4916 58.7743 53.7401 58.5712C52.9885 58.3682 52.3237 58.0544 51.7456 57.6298C51.1868 57.2237 50.7435 56.7068 50.416 56.0792C50.0884 55.47 49.9246 54.7409 49.9246 53.8918C49.9246 53.1165 50.0498 52.4704 50.3003 51.9535C50.5701 51.4367 50.9073 50.9936 51.312 50.6244C51.7167 50.2552 52.1406 49.9322 52.5839 49.6553C53.0463 49.36 53.4799 49.0738 53.8846 48.797C54.2893 48.5016 54.6072 48.1693 54.8385 47.8001C55.089 47.431 55.2046 46.9787 55.1853 46.4434H58.8852Z" fill="#FFFFDB"/>
<path fill-rule="evenodd" clip-rule="evenodd" d="M60.5022 39.8285C61.2156 39.1435 61.2158 38.0347 60.5021 37.351C59.7887 36.6676 58.6295 36.6657 57.9157 37.3511L57.1383 38.0943C57.079 38.1511 56.9847 38.1512 56.9254 38.0944L56.1496 37.3511C55.436 36.6659 54.2767 36.6659 53.5631 37.351C52.8478 38.0347 52.848 39.1436 53.5631 39.8286L54.3391 40.572C54.3984 40.6288 54.3984 40.719 54.3391 40.7757L53.6105 41.4737C52.9243 42.131 52.8313 43.209 53.4837 43.9158C54.1885 44.6802 55.4083 44.7067 56.1494 43.9967L56.9254 43.2518C56.9851 43.1947 57.0803 43.1957 57.1374 43.2511L57.1381 43.2518L57.9156 43.9966C58.6293 44.6819 59.7869 44.6817 60.502 43.9984L60.5022 43.9981C61.2157 43.313 61.2157 42.2043 60.5022 41.5193L60.502 41.519L59.7245 40.7757C59.6649 40.7186 59.6659 40.6274 59.7238 40.5727L59.7244 40.5721L60.5022 39.8285Z" fill="#FFFFDB"/>
<path d="M196.984 72.2332C196.91 71.4378 196.956 70.7904 197.122 70.291C197.307 69.7731 197.556 69.3476 197.87 69.0147C198.184 68.6632 198.526 68.3673 198.895 68.1268C199.283 67.8679 199.652 67.6182 200.003 67.3777C200.354 67.1372 200.641 66.8598 200.862 66.5453C201.084 66.2124 201.195 65.8054 201.195 65.3245C201.195 64.6771 201.001 64.2147 200.613 63.9372C200.244 63.6413 199.736 63.4933 199.089 63.4933C198.683 63.4933 198.24 63.5488 197.759 63.6598C197.298 63.7523 196.827 63.891 196.346 64.076C195.885 64.2424 195.432 64.4367 194.989 64.6586L194.795 60.8852C195.33 60.6263 195.866 60.4228 196.402 60.2748C196.956 60.1083 197.51 59.9881 198.064 59.9141C198.618 59.8216 199.145 59.7754 199.643 59.7754C200.456 59.7754 201.213 59.8771 201.915 60.0806C202.617 60.2841 203.236 60.5985 203.771 61.0239C204.325 61.4309 204.759 61.9488 205.073 62.5777C205.387 63.1881 205.544 63.9187 205.544 64.7696C205.544 65.5465 205.415 66.1939 205.157 66.7118C204.916 67.2297 204.602 67.6736 204.215 68.0436C203.827 68.4135 203.42 68.7465 202.996 69.0424C202.571 69.3199 202.164 69.6066 201.777 69.9025C201.389 70.18 201.075 70.5037 200.835 70.8736C200.613 71.2436 200.511 71.6968 200.53 72.2332H196.984Z" fill="#FFFFDB"/>
<path fill-rule="evenodd" clip-rule="evenodd" d="M201.915 77.1222C202.599 76.4358 202.599 75.3248 201.915 74.6397C201.231 73.9549 200.12 73.953 199.436 74.6398L198.691 75.3845C198.634 75.4414 198.544 75.4415 198.487 75.3846L197.743 74.6398C197.059 73.9532 195.948 73.9532 195.264 74.6397C194.579 75.3248 194.579 76.436 195.264 77.1224L196.008 77.8673C196.065 77.9242 196.065 78.0145 196.008 78.0714L195.31 78.7708C194.652 79.4295 194.563 80.5097 195.188 81.2179C195.864 81.9839 197.033 82.0104 197.743 81.299L198.487 80.5526C198.544 80.4953 198.635 80.4963 198.69 80.5519L198.691 80.5526L199.436 81.2989C200.12 81.9856 201.229 81.9854 201.915 81.3006L201.915 81.3004C202.599 80.6139 202.599 79.5029 201.915 78.8165L201.915 78.8162L201.17 78.0714C201.113 78.0141 201.114 77.9228 201.169 77.868L201.17 77.8674L201.915 77.1222Z" fill="#FFFFDB"/>
</svg>
