<svg width="320" height="251" viewBox="0 0 320 251" fill="none" xmlns="http://www.w3.org/2000/svg">
<path d="M172.303 113.653C150.352 141.135 190.656 183.679 193.874 189.114L125.91 195.635C124.82 174.674 164.16 152.528 137.742 130.888C116.329 113.347 90.8757 120.433 78.4274 145.328C70.3315 161.518 72.6672 180.574 62.2366 200.759C51.8059 220.944 -16.6938 243.655 -8.28701 140.246C-1.07756 51.5648 1.67666 -88 1.67666 -88L331 -88L321.29 72.351C333.589 99.3679 286.617 192.216 238.312 127.006C222.9 106.2 189.86 91.671 172.303 113.653Z" fill="url(#paint0_linear_521_71)"/>
<path fill-rule="evenodd" clip-rule="evenodd" d="M114.484 191.451C115.399 191.45 116.141 190.708 116.141 189.794C116.141 188.879 115.399 188.135 114.484 188.137L113.488 188.136L113.488 188.136C113.412 188.136 113.352 188.075 113.352 187.999L113.352 187.005C113.353 186.09 112.611 185.347 111.695 185.348C110.78 185.347 110.038 186.089 110.038 187.005L110.038 187.999C110.038 188.075 109.978 188.136 109.902 188.136L108.968 188.136C108.089 188.136 107.308 188.797 107.254 189.688C107.194 190.651 107.958 191.45 108.907 191.45L109.903 191.449C109.979 191.449 110.039 191.51 110.039 191.584L110.039 191.585L110.039 192.581C110.038 193.497 110.78 194.238 111.695 194.239L111.695 194.239C112.61 194.238 113.352 193.497 113.353 192.581L113.353 192.581L113.352 191.586L113.352 191.586C113.352 191.509 113.414 191.449 113.487 191.45L113.488 191.45L114.484 191.451Z" fill="#FFFFDB"/>
<path fill-rule="evenodd" clip-rule="evenodd" d="M79.4045 151.415C80.3197 151.413 81.0614 150.672 81.0614 149.757C81.0614 148.843 80.32 148.099 79.4043 148.1L78.4091 148.099L78.409 148.099C78.3331 148.099 78.2727 148.039 78.2727 147.963L78.2727 146.969C78.2739 146.053 77.5312 145.311 76.6157 145.312C75.7002 145.311 74.9587 146.053 74.9587 146.969L74.9586 147.963C74.9586 148.039 74.8983 148.099 74.8224 148.099L73.8887 148.099C73.0095 148.1 72.2289 148.761 72.1742 149.652C72.1145 150.614 72.8783 151.414 73.8279 151.414L74.8233 151.413C74.8998 151.413 74.9601 151.474 74.9596 151.548L74.9596 151.549L74.9596 152.545C74.9585 153.461 75.7002 154.202 76.6154 154.203L76.6158 154.203C77.531 154.202 78.2726 153.461 78.2737 152.545L78.2737 152.545L78.2727 151.55L78.2727 151.55C78.2728 151.473 78.3344 151.413 78.408 151.414L78.4088 151.414L79.4045 151.415Z" fill="#FFFFDB"/>
<path fill-rule="evenodd" clip-rule="evenodd" d="M207.261 191.451C208.176 191.45 208.918 190.708 208.918 189.794C208.918 188.879 208.176 188.135 207.261 188.137L206.266 188.136L206.265 188.136C206.189 188.136 206.129 188.075 206.129 187.999L206.129 187.005C206.13 186.09 205.388 185.347 204.472 185.348C203.557 185.347 202.815 186.089 202.815 187.005L202.815 187.999C202.815 188.075 202.755 188.136 202.679 188.136L201.745 188.136C200.866 188.136 200.085 188.797 200.031 189.688C199.971 190.651 200.735 191.45 201.684 191.45L202.68 191.449C202.756 191.449 202.817 191.51 202.816 191.584L202.816 191.585L202.816 192.581C202.815 193.497 203.557 194.238 204.472 194.239L204.472 194.239C205.387 194.238 206.129 193.497 206.13 192.581L206.13 192.581L206.129 191.586L206.129 191.586C206.129 191.509 206.191 191.449 206.264 191.45L206.265 191.45L207.261 191.451Z" fill="#FFFFDB"/>
<path opacity="0.3" fill-rule="evenodd" clip-rule="evenodd" d="M44.4916 210.466C45.295 211.178 46.5955 211.178 47.3974 210.466C48.1989 209.753 48.2011 208.595 47.3973 207.882L46.5256 207.106L46.5255 207.106C46.4589 207.047 46.4589 206.953 46.5255 206.894L47.3972 206.119C48.2009 205.406 48.2009 204.248 47.3974 203.536C46.5955 202.821 45.2949 202.822 44.4915 203.536L43.6196 204.311C43.553 204.37 43.4472 204.37 43.3806 204.311L42.562 203.583C41.7911 202.898 40.5267 202.805 39.6978 203.456C38.8012 204.16 38.7702 205.378 39.6029 206.119L40.4765 206.894C40.5436 206.953 40.5424 207.048 40.4774 207.105L40.4765 207.106L39.603 207.882C38.7992 208.595 38.7994 209.751 39.6009 210.465L39.6012 210.466C40.4047 211.178 41.7051 211.178 42.5086 210.466L42.5089 210.465L43.3806 209.689L43.3807 209.689C43.4478 209.629 43.5546 209.63 43.6188 209.688L43.6195 209.689L44.4916 210.466Z" fill="#4E4D98"/>
<path fill-rule="evenodd" clip-rule="evenodd" d="M198.317 185.832C199.027 185.831 199.604 185.255 199.604 184.545C199.604 183.835 199.028 183.257 198.316 183.258L197.544 183.257L197.543 183.257C197.484 183.257 197.438 183.21 197.438 183.151L197.438 182.379C197.438 181.668 196.862 181.091 196.151 181.092C195.44 181.091 194.864 181.667 194.864 182.379L194.864 183.151C194.864 183.21 194.817 183.257 194.758 183.257L194.033 183.257C193.35 183.257 192.743 183.771 192.701 184.463C192.655 185.211 193.248 185.831 193.985 185.831L194.759 185.83C194.818 185.83 194.865 185.878 194.864 185.936L194.864 185.936L194.864 186.71C194.863 187.421 195.44 187.997 196.15 187.998L196.151 187.998C196.862 187.997 197.437 187.421 197.438 186.71L197.438 186.71L197.438 185.937L197.438 185.937C197.438 185.878 197.486 185.831 197.543 185.831L197.543 185.831L198.317 185.832Z" fill="#FFFFDB"/>
<path opacity="0.3" fill-rule="evenodd" clip-rule="evenodd" d="M272.163 146.659C272.873 146.659 273.45 146.083 273.45 145.372C273.45 144.662 272.874 144.084 272.162 144.085L271.39 144.085L271.389 144.085C271.33 144.085 271.284 144.038 271.284 143.979L271.284 143.207C271.284 142.495 270.708 141.919 269.997 141.919C269.285 141.919 268.71 142.495 268.71 143.206L268.71 143.979C268.71 144.038 268.663 144.085 268.604 144.085L267.879 144.085C267.196 144.085 266.589 144.598 266.547 145.29C266.5 146.038 267.094 146.659 267.831 146.659L268.604 146.658C268.664 146.658 268.711 146.706 268.71 146.763L268.71 146.764L268.71 147.537C268.709 148.249 269.286 148.825 269.996 148.825L269.997 148.825C270.707 148.824 271.283 148.249 271.284 147.538L271.284 147.537L271.284 146.764L271.284 146.764C271.284 146.705 271.331 146.658 271.389 146.659L271.389 146.659L272.163 146.659Z" fill="#51509A"/>
<path opacity="0.3" fill-rule="evenodd" clip-rule="evenodd" d="M278.492 142.399C279.295 143.2 280.596 143.201 281.397 142.399C282.199 141.597 282.201 140.295 281.397 139.493L280.526 138.619L280.525 138.619C280.459 138.553 280.459 138.447 280.525 138.38L281.397 137.509C282.201 136.707 282.201 135.404 281.397 134.603C280.595 133.799 279.295 133.799 278.491 134.603L277.62 135.474C277.553 135.541 277.447 135.541 277.381 135.474L276.562 134.656C275.791 133.885 274.527 133.78 273.698 134.514C272.801 135.305 272.77 136.676 273.603 137.508L274.477 138.38C274.544 138.447 274.542 138.554 274.477 138.618L274.477 138.619L273.603 139.493C272.799 140.295 272.799 141.595 273.601 142.399L273.601 142.399C274.405 143.2 275.705 143.2 276.509 142.399L276.509 142.399L277.381 141.525L277.381 141.525C277.448 141.458 277.555 141.459 277.619 141.524L277.619 141.525L278.492 142.399Z" fill="#51509A"/>
<path opacity="0.3" fill-rule="evenodd" clip-rule="evenodd" d="M52.2547 201.27C52.9655 201.269 53.5415 200.693 53.5416 199.983C53.5416 199.273 52.9657 198.695 52.2545 198.696L51.4816 198.695L51.4814 198.695C51.4225 198.695 51.3756 198.649 51.3756 198.59L51.3756 197.817C51.3765 197.106 50.7996 196.529 50.0886 196.53C49.3775 196.529 48.8016 197.106 48.8016 197.817L48.8016 198.59C48.8016 198.649 48.7547 198.695 48.6957 198.695L47.9706 198.695C47.2877 198.695 46.6814 199.209 46.639 199.901C46.5925 200.649 47.1858 201.269 47.9234 201.269L48.6965 201.269C48.7559 201.269 48.8027 201.317 48.8023 201.374L48.8023 201.375L48.8023 202.148C48.8015 202.859 49.3776 203.435 50.0884 203.436L50.0887 203.436C50.7995 203.435 51.3755 202.859 51.3763 202.149L51.3763 202.148L51.3756 201.375L51.3756 201.375C51.3756 201.316 51.4235 201.269 51.4807 201.269L51.4813 201.269L52.2547 201.27Z" fill="#4E4D98"/>
<path fill-rule="evenodd" clip-rule="evenodd" d="M125.198 182.562C126.489 182.56 127.535 181.515 127.535 180.225C127.535 178.935 126.489 177.886 125.198 177.887L123.794 177.886L123.794 177.886C123.687 177.886 123.602 177.801 123.602 177.694L123.602 176.292C123.603 175 122.556 173.953 121.264 173.954C119.973 173.953 118.927 174.999 118.927 176.291L118.927 177.694C118.927 177.801 118.842 177.886 118.735 177.886L117.418 177.886C116.178 177.886 115.077 178.819 115 180.075C114.915 181.433 115.993 182.561 117.332 182.561L118.736 182.559C118.844 182.559 118.929 182.646 118.928 182.75L118.928 182.751L118.928 184.157C118.927 185.448 119.973 186.494 121.264 186.496L121.264 186.496C122.555 186.494 123.601 185.448 123.603 184.157L123.603 184.157L123.602 182.753L123.602 182.753C123.602 182.645 123.689 182.56 123.792 182.561L123.794 182.561L125.198 182.562Z" fill="#FFFFDB"/>
<path fill-rule="evenodd" clip-rule="evenodd" d="M210.102 111.332C210.994 112.223 212.439 112.223 213.33 111.332C214.221 110.441 214.223 108.994 213.33 108.103L212.362 107.133L212.362 107.133C212.288 107.059 212.288 106.941 212.362 106.867L213.33 105.898C214.223 105.008 214.223 103.56 213.33 102.67C212.439 101.777 210.994 101.777 210.102 102.67L209.133 103.638C209.059 103.712 208.941 103.712 208.867 103.638L207.958 102.729C207.101 101.872 205.696 101.756 204.775 102.571C203.779 103.45 203.745 104.973 204.67 105.898L205.641 106.867C205.715 106.941 205.714 107.06 205.642 107.132L205.641 107.133L204.67 108.103C203.777 108.994 203.777 110.439 204.668 111.332L204.668 111.332C205.561 112.223 207.006 112.223 207.898 111.332L207.899 111.332L208.867 110.361L208.867 110.361C208.942 110.287 209.061 110.288 209.132 110.36L209.133 110.361L210.102 111.332Z" fill="#FFFFDE"/>
<path fill-rule="evenodd" clip-rule="evenodd" d="M128.676 207.292C122.442 201.042 122.44 190.926 128.678 184.688C134.913 178.453 145.044 178.435 151.283 184.689L158.077 191.47L158.078 191.471C158.596 191.989 159.419 191.989 159.937 191.471L166.719 184.689C172.955 178.437 183.087 178.437 189.324 184.688C195.576 190.926 195.574 201.043 189.324 207.293L182.542 214.076C182.024 214.594 182.024 215.417 182.542 215.935L188.91 222.303C194.907 228.3 195.72 238.136 190.018 244.584C183.858 251.559 173.197 251.8 166.72 245.322L159.937 238.526C159.416 238.005 158.584 238.014 158.085 238.52L158.078 238.526L151.283 245.321C145.046 251.574 134.929 251.572 128.679 245.337L128.676 245.335C122.441 239.085 122.441 228.969 128.676 222.718L128.679 222.716L135.474 215.935L135.475 215.934C135.995 215.412 135.986 214.581 135.48 214.082L135.475 214.077L128.676 207.292Z" fill="#FFFFDB"/>
<path fill-rule="evenodd" clip-rule="evenodd" d="M152.375 220.968C154.138 220.968 155.568 218.288 155.568 214.983C155.568 211.677 154.138 208.997 152.375 208.997C150.611 208.997 149.181 211.677 149.181 214.983C149.181 218.288 150.611 220.968 152.375 220.968ZM162.963 214.983C162.963 211.677 164.392 208.997 166.157 208.997C167.922 208.997 169.351 211.677 169.351 214.983C169.351 218.288 167.922 220.968 166.157 220.968C164.392 220.968 162.963 218.288 162.963 214.983Z" fill="#3D3B80"/>
<defs>
<linearGradient id="paint0_linear_521_71" x1="176.637" y1="190.135" x2="141.302" y2="-142.349" gradientUnits="userSpaceOnUse">
<stop stop-color="#B6B4E6"/>
<stop offset="1" stop-color="#F0EFFC"/>
</linearGradient>
</defs>
</svg>
