<svg width="1233" height="201" viewBox="0 0 1233 201" fill="none" xmlns="http://www.w3.org/2000/svg">
<path fill-rule="evenodd" clip-rule="evenodd" d="M24.6996 197.623C28.2712 201.186 34.0525 201.187 37.6171 197.623C41.1803 194.06 41.1902 188.27 37.6166 184.705L33.7416 180.822L33.741 180.821C33.445 180.525 33.445 180.055 33.741 179.759L37.6164 175.884C41.1891 172.32 41.1894 166.529 37.6171 162.965C34.0523 159.393 28.2704 159.394 24.6989 162.965L20.8229 166.841C20.5269 167.137 20.0566 167.137 19.7605 166.841L16.1214 163.202C12.6942 159.775 7.07349 159.31 3.38839 162.569C-0.597457 166.089 -0.735227 172.181 2.96643 175.883L6.85034 179.759C7.1484 180.057 7.14312 180.532 6.854 180.818L6.85032 180.821L2.9671 184.704C-0.606136 188.269 -0.605181 194.051 2.95787 197.622L2.9592 197.623C6.53114 201.187 12.3119 201.187 15.8839 197.623L15.8851 197.622L19.7605 193.739L19.7611 193.738C20.0592 193.441 20.5342 193.446 20.8193 193.735L20.8224 193.738L24.6996 197.623Z" fill="#FFFFDB"/>
<path fill-rule="evenodd" clip-rule="evenodd" d="M413.66 175.883C417.222 172.311 417.223 166.53 413.659 162.965C410.096 159.402 404.306 159.392 400.741 162.966L396.858 166.841L396.857 166.841C396.561 167.137 396.091 167.137 395.795 166.841L391.92 162.966C388.356 159.393 382.566 159.393 379.001 162.965C375.429 166.53 375.43 172.312 379.001 175.883L382.877 179.759C383.173 180.055 383.173 180.526 382.877 180.822L379.238 184.461C375.811 187.888 375.346 193.509 378.605 197.194C382.125 201.18 388.218 201.318 391.919 197.616L395.795 193.732C396.093 193.434 396.568 193.439 396.854 193.728L396.857 193.732L400.74 197.615C404.305 201.188 410.087 201.187 413.658 197.624L413.66 197.623C417.223 194.051 417.223 188.27 413.66 184.698L413.658 184.697L409.775 180.822L409.775 180.821C409.477 180.523 409.483 180.048 409.771 179.763L409.775 179.76L413.66 175.883Z" fill="#FFFFDB"/>
<path fill-rule="evenodd" clip-rule="evenodd" d="M844.337 175.883C847.9 172.311 847.901 166.53 844.337 162.965C840.773 159.402 834.984 159.392 831.418 162.966L827.536 166.841L827.535 166.841C827.239 167.137 826.769 167.137 826.473 166.841L822.597 162.966C819.033 159.393 813.243 159.393 809.679 162.965C806.106 166.53 806.108 172.312 809.679 175.883L813.555 179.759C813.851 180.055 813.851 180.526 813.555 180.822L809.916 184.461C806.489 187.888 806.024 193.509 809.283 197.194C812.803 201.18 818.895 201.318 822.597 197.616L826.473 193.732C826.771 193.434 827.246 193.439 827.531 193.728L827.535 193.732L831.418 197.615C834.983 201.188 840.764 201.187 844.336 197.624L844.337 197.623C847.901 194.051 847.901 188.27 844.337 184.698L844.336 184.697L840.453 180.822L840.452 180.821C840.155 180.523 840.16 180.048 840.449 179.763L840.452 179.76L844.337 175.883Z" fill="#FFFFDB"/>
<path fill-rule="evenodd" clip-rule="evenodd" d="M1230.34 175.883C1233.9 172.311 1233.9 166.53 1230.34 162.965C1226.77 159.402 1220.98 159.392 1217.42 162.966L1213.54 166.841L1213.54 166.841C1213.24 167.137 1212.77 167.137 1212.47 166.841L1208.6 162.966C1205.03 159.393 1199.24 159.393 1195.68 162.965C1192.11 166.53 1192.11 172.312 1195.68 175.883L1199.55 179.759C1199.85 180.055 1199.85 180.526 1199.55 180.822L1195.92 184.461C1192.49 187.888 1192.02 193.509 1195.28 197.194C1198.8 201.18 1204.9 201.318 1208.6 197.616L1212.47 193.732C1212.77 193.434 1213.25 193.439 1213.53 193.728L1213.54 193.732L1217.42 197.615C1220.98 201.188 1226.76 201.187 1230.34 197.624L1230.34 197.623C1233.9 194.051 1233.9 188.27 1230.34 184.698L1230.34 184.697L1226.45 180.822L1226.45 180.821C1226.15 180.523 1226.16 180.048 1226.45 179.763L1226.45 179.76L1230.34 175.883Z" fill="#FFFFDB"/>
<g clip-path="url(#clip0_434_30)">
<path d="M617 0C617 57.1875 552 103.564 471.79 103.564H125.412C66.998 103.564 19.6138 137.34 19.6138 179.019" stroke="#FFFFDB" stroke-miterlimit="10"/>
<path d="M488.307 103C475.307 104 395.807 104.5 395.807 180" stroke="#FFFFDB"/>
</g>
<g clip-path="url(#clip1_434_30)">
<path d="M618.307 1C618.307 58.1875 683.307 104.564 763.517 104.564H1109.9C1168.31 104.564 1215.69 138.34 1215.69 180.019" stroke="#FFFFDB" stroke-miterlimit="10"/>
<path d="M737 103C750 104 829.5 104.5 829.5 180" stroke="#FFFFDB"/>
</g>
<defs>
<clipPath id="clip0_434_30">
<rect width="600" height="179" fill="white" transform="translate(18.3069)"/>
</clipPath>
<clipPath id="clip1_434_30">
<rect width="600" height="179" fill="white" transform="matrix(-1 0 0 1 1217 1)"/>
</clipPath>
</defs>
</svg>
