<svg width="947" height="1802" viewBox="0 0 947 1802" fill="none" xmlns="http://www.w3.org/2000/svg">
<path d="M375.5 628.5C405 848.5 914.498 909 927.5 1280.5C932.5 1394.17 868 1543.5 625.5 1665.5C388.592 1784.69 90.8333 1796.5 -5 1802V1H25.5L588.5 0C507.5 68.8334 349.3 233.2 364.5 340C379.7 446.8 474.833 429.167 520.5 407L585.5 474.5L531.501 561.5C485.834 539.333 361.164 521.581 375.5 628.5Z" fill="url(#paint0_linear_434_28)"/>
<path fill-rule="evenodd" clip-rule="evenodd" d="M370.35 303.475C370.345 299.384 367.031 296.069 362.943 296.069C358.857 296.069 355.532 299.383 355.537 303.476L355.532 307.924L355.532 307.924C355.532 308.264 355.263 308.533 354.923 308.533L350.479 308.533C346.387 308.528 343.067 311.848 343.072 315.94C343.068 320.032 346.383 323.346 350.479 323.346L354.923 323.346C355.263 323.346 355.532 323.616 355.532 323.956L355.532 328.129C355.533 332.058 358.489 335.548 362.47 335.792C366.773 336.059 370.346 332.645 370.346 328.4L370.341 323.951C370.341 323.609 370.617 323.34 370.946 323.342L370.95 323.342L375.403 323.342C379.495 323.347 382.81 320.032 382.815 315.941L382.815 315.939C382.81 311.848 379.495 308.534 375.404 308.529L375.403 308.529L370.954 308.534L370.954 308.534C370.612 308.533 370.343 308.258 370.345 307.929L370.345 307.925L370.35 303.475Z" fill="#DBDAFF"/>
<path fill-rule="evenodd" clip-rule="evenodd" d="M931.35 1275.47C931.345 1271.38 928.031 1268.07 923.943 1268.07C919.857 1268.07 916.532 1271.38 916.537 1275.48L916.532 1279.92L916.532 1279.92C916.532 1280.26 916.263 1280.53 915.923 1280.53L911.479 1280.53C907.387 1280.53 904.067 1283.85 904.072 1287.94C904.068 1292.03 907.383 1295.35 911.479 1295.35L915.923 1295.35C916.263 1295.35 916.532 1295.62 916.532 1295.96L916.532 1300.13C916.533 1304.06 919.489 1307.55 923.47 1307.79C927.773 1308.06 931.346 1304.64 931.346 1300.4L931.341 1295.95C931.341 1295.61 931.617 1295.34 931.946 1295.34L931.95 1295.34L936.403 1295.34C940.495 1295.35 943.81 1292.03 943.815 1287.94L943.815 1287.94C943.81 1283.85 940.495 1280.53 936.404 1280.53L936.403 1280.53L931.954 1280.53L931.954 1280.53C931.612 1280.53 931.343 1280.26 931.345 1279.93L931.345 1279.93L931.35 1275.47Z" fill="#DBDAFF"/>
<path fill-rule="evenodd" clip-rule="evenodd" d="M455.35 738.475C455.345 734.384 452.031 731.069 447.943 731.069C443.857 731.069 440.532 734.383 440.537 738.476L440.532 742.924L440.532 742.924C440.532 743.264 440.263 743.533 439.923 743.533L435.479 743.533C431.387 743.528 428.067 746.848 428.072 750.94C428.068 755.032 431.383 758.346 435.479 758.346L439.923 758.346C440.263 758.346 440.532 758.616 440.532 758.956L440.532 763.129C440.533 767.058 443.489 770.548 447.47 770.792C451.773 771.059 455.346 767.645 455.346 763.4L455.341 758.951C455.341 758.609 455.617 758.34 455.946 758.342L455.95 758.342L460.403 758.342C464.495 758.347 467.81 755.032 467.815 750.941L467.815 750.939C467.81 746.848 464.495 743.534 460.404 743.529L460.403 743.529L455.954 743.534L455.954 743.534C455.612 743.533 455.343 743.258 455.345 742.929L455.345 742.925L455.35 738.475Z" fill="#DBDAFF"/>
<path opacity="0.3" fill-rule="evenodd" clip-rule="evenodd" d="M784.551 1063.5C784.554 1065.75 786.379 1067.57 788.63 1067.57C790.88 1067.57 792.711 1065.75 792.708 1063.5L792.711 1061.05L792.711 1061.05C792.711 1060.86 792.859 1060.71 793.046 1060.71L795.493 1060.71C797.746 1060.71 799.574 1058.88 799.572 1056.63C799.574 1054.38 797.748 1052.55 795.493 1052.55L793.046 1052.55C792.859 1052.55 792.711 1052.4 792.711 1052.22L792.711 1049.92C792.71 1047.76 791.083 1045.83 788.89 1045.7C786.521 1045.55 784.554 1047.43 784.554 1049.77L784.556 1052.22C784.556 1052.41 784.404 1052.56 784.223 1052.56L784.221 1052.56L781.769 1052.56C779.515 1052.55 777.69 1054.38 777.688 1056.63L777.688 1056.63C777.69 1058.88 779.515 1060.71 781.768 1060.71L781.769 1060.71L784.218 1060.71L784.219 1060.71C784.407 1060.71 784.555 1060.86 784.554 1061.04L784.554 1061.05L784.551 1063.5Z" fill="#51509A"/>
<path opacity="0.3" fill-rule="evenodd" clip-rule="evenodd" d="M354.234 1712.3C352.282 1711.18 349.789 1711.85 348.663 1713.8C347.538 1715.75 348.203 1718.24 350.156 1719.37L352.276 1720.6L352.276 1720.6C352.438 1720.69 352.493 1720.89 352.399 1721.05L351.176 1723.17C350.047 1725.12 350.716 1727.62 352.668 1728.74C354.618 1729.87 357.112 1729.2 358.239 1727.25L359.463 1725.13C359.557 1724.97 359.76 1724.92 359.921 1725.01L361.911 1726.16C363.786 1727.24 366.263 1726.79 367.476 1724.96C368.788 1722.98 368.144 1720.34 366.119 1719.17L363.996 1717.95C363.833 1717.85 363.781 1717.65 363.873 1717.49L363.874 1717.49L365.1 1715.36C366.229 1713.41 365.56 1710.92 363.611 1709.79L363.61 1709.79C361.658 1708.67 359.165 1709.34 358.036 1711.29L358.036 1711.29L356.813 1713.41L356.813 1713.41C356.719 1713.57 356.513 1713.62 356.357 1713.53L356.355 1713.53L354.234 1712.3Z" fill="#51509A"/>
<path opacity="0.3" fill-rule="evenodd" clip-rule="evenodd" d="M798.092 1083.12C795.65 1085.57 795.65 1089.53 798.093 1091.97C800.535 1094.42 804.504 1094.42 806.947 1091.97L809.608 1089.32L809.609 1089.32C809.812 1089.11 810.134 1089.11 810.337 1089.32L812.993 1091.97C815.436 1094.42 819.404 1094.42 821.847 1091.97C824.296 1089.53 824.295 1085.57 821.847 1083.12L819.191 1080.46C818.988 1080.26 818.988 1079.94 819.191 1079.73L821.685 1077.24C824.034 1074.89 824.352 1071.04 822.119 1068.51C819.706 1065.78 815.53 1065.69 812.993 1068.22L810.337 1070.89C810.133 1071.09 809.807 1071.09 809.611 1070.89L809.609 1070.89L806.947 1068.22C804.504 1065.77 800.541 1065.78 798.093 1068.22L798.092 1068.22C795.65 1070.67 795.65 1074.63 798.092 1077.08L798.093 1077.08L800.755 1079.73L800.755 1079.73C800.959 1079.94 800.955 1080.26 800.757 1080.46L800.755 1080.46L798.092 1083.12Z" fill="#51509A"/>
<path opacity="0.3" fill-rule="evenodd" clip-rule="evenodd" d="M330.469 1714.22C329.57 1710.88 326.139 1708.9 322.801 1709.79C319.465 1710.69 317.475 1714.12 318.374 1717.46L319.344 1721.09L319.344 1721.09C319.418 1721.37 319.257 1721.65 318.98 1721.72L315.352 1722.7C312.009 1723.59 310.025 1727.02 310.924 1730.36C311.816 1733.71 315.248 1735.69 318.592 1734.79L322.221 1733.82C322.498 1733.75 322.777 1733.91 322.851 1734.18L323.764 1737.59C324.624 1740.8 327.801 1743 331.105 1742.33C334.678 1741.61 336.847 1738.04 335.919 1734.57L334.942 1730.94C334.867 1730.66 335.033 1730.38 335.302 1730.31L335.306 1730.31L338.941 1729.34C342.284 1728.44 344.265 1725.01 343.374 1721.67L343.373 1721.67C342.474 1718.33 339.043 1716.35 335.702 1717.24L335.7 1717.24L332.069 1718.22L332.069 1718.22C331.79 1718.29 331.51 1718.13 331.44 1717.86L331.439 1717.85L330.469 1714.22Z" fill="#51509A"/>
<path fill-rule="evenodd" clip-rule="evenodd" d="M523.517 613.426C523.513 610.526 521.164 608.176 518.266 608.176C515.369 608.176 513.011 610.525 513.015 613.427L513.012 616.581L513.012 616.581C513.012 616.822 512.821 617.013 512.58 617.013L509.429 617.013C506.528 617.009 504.175 619.363 504.178 622.264C504.175 625.165 506.525 627.515 509.429 627.515L512.58 627.515C512.821 627.515 513.012 627.706 513.012 627.947L513.012 630.905C513.012 633.691 515.108 636.165 517.93 636.338C520.981 636.528 523.514 634.107 523.514 631.098L523.511 627.944C523.511 627.701 523.706 627.51 523.94 627.512L523.942 627.512L527.099 627.512C530.001 627.515 532.351 625.165 532.354 622.265L532.354 622.264C532.351 619.363 530.001 617.013 527.1 617.01L527.099 617.01L523.946 617.013L523.945 617.013C523.703 617.013 523.512 616.817 523.514 616.584L523.514 616.582L523.517 613.426Z" fill="#FFFFDB"/>
<path fill-rule="evenodd" clip-rule="evenodd" d="M523.517 319.426C523.513 316.526 521.164 314.176 518.266 314.176C515.369 314.176 513.011 316.525 513.015 319.427L513.012 322.581L513.012 322.581C513.012 322.822 512.821 323.013 512.58 323.013L509.429 323.013C506.528 323.009 504.175 325.363 504.178 328.264C504.175 331.165 506.525 333.515 509.429 333.515L512.58 333.515C512.821 333.515 513.012 333.706 513.012 333.947L513.012 336.905C513.012 339.691 515.108 342.165 517.93 342.338C520.981 342.528 523.514 340.107 523.514 337.098L523.511 333.944C523.511 333.701 523.706 333.51 523.94 333.512L523.942 333.512L527.099 333.512C530.001 333.515 532.351 331.165 532.354 328.265L532.354 328.264C532.351 325.363 530.001 323.013 527.1 323.01L527.099 323.01L523.946 323.013L523.945 323.013C523.703 323.013 523.512 322.817 523.514 322.584L523.514 322.582L523.517 319.426Z" fill="#FFFFDB"/>
<path fill-rule="evenodd" clip-rule="evenodd" d="M505.712 347.768C505.71 345.515 503.885 343.69 501.634 343.69C499.384 343.69 497.553 345.515 497.555 347.769L497.553 350.218L497.553 350.218C497.553 350.405 497.405 350.554 497.218 350.554L494.771 350.554C492.517 350.551 490.689 352.379 490.692 354.632C490.689 356.885 492.515 358.71 494.77 358.71L497.218 358.71C497.405 358.71 497.553 358.859 497.553 359.046L497.553 361.344C497.553 363.508 499.181 365.429 501.373 365.563C503.743 365.711 505.71 363.831 505.71 361.493L505.707 359.043C505.707 358.855 505.859 358.707 506.041 358.708L506.043 358.708L508.495 358.708C510.748 358.711 512.573 356.885 512.576 354.633L512.576 354.632C512.573 352.379 510.748 350.554 508.496 350.551L508.495 350.551L506.045 350.554L506.045 350.554C505.857 350.553 505.709 350.402 505.71 350.221L505.71 350.219L505.712 347.768Z" fill="#FFFFDB"/>
<path fill-rule="evenodd" clip-rule="evenodd" d="M495.35 579.474C495.345 575.384 492.031 572.068 487.943 572.068C483.857 572.068 480.532 575.382 480.537 579.475L480.532 583.923L480.532 583.924C480.532 584.263 480.263 584.533 479.923 584.533L475.479 584.533C471.387 584.528 468.067 587.848 468.072 591.939C468.068 596.032 471.383 599.346 475.479 599.346L479.923 599.346C480.263 599.346 480.532 599.616 480.532 599.955L480.532 604.128C480.533 608.058 483.489 611.547 487.47 611.792C491.773 612.059 495.346 608.645 495.346 604.4L495.341 599.951C495.341 599.609 495.617 599.34 495.946 599.342L495.95 599.342L500.403 599.342C504.495 599.347 507.81 596.031 507.815 591.941L507.815 591.939C507.81 587.848 504.495 584.534 500.404 584.529L500.403 584.529L495.954 584.533L495.954 584.533C495.612 584.533 495.343 584.258 495.345 583.928L495.345 583.925L495.35 579.474Z" fill="#FFFFDB"/>
<path fill-rule="evenodd" clip-rule="evenodd" d="M704.611 491.376C724.368 511.181 724.373 543.239 704.608 563.005C684.849 582.764 652.743 582.819 632.974 563.002L611.443 541.515L611.44 541.512C609.798 539.87 607.191 539.87 605.549 541.512L584.06 563.001C564.297 582.813 532.19 582.814 512.425 563.005C492.614 543.238 492.621 511.177 512.425 491.372L533.918 469.879C535.559 468.237 535.559 465.629 533.918 463.988L513.738 443.808C494.734 424.803 492.158 393.636 510.228 373.201C529.747 351.099 563.531 350.335 584.056 370.861L605.549 392.398C607.202 394.051 609.838 394.022 611.42 392.419L611.44 392.398L632.973 370.865C652.739 351.051 684.799 351.056 704.604 370.814L704.611 370.821C724.37 390.628 724.37 422.684 704.611 442.491L704.605 442.498L683.071 463.988L683.068 463.991C681.419 465.644 681.449 468.277 683.051 469.859L683.068 469.876L704.611 491.376Z" fill="#FFFFDB"/>
<path fill-rule="evenodd" clip-rule="evenodd" d="M629.515 448.04C623.925 448.04 619.394 456.531 619.394 467.005C619.394 477.48 623.925 485.971 629.515 485.971C635.104 485.971 639.635 477.48 639.635 467.005C639.635 456.531 635.104 448.04 629.515 448.04ZM595.96 467.005C595.96 477.482 591.431 485.971 585.839 485.971C580.246 485.971 575.718 477.482 575.718 467.005C575.718 456.529 580.246 448.04 585.839 448.04C591.431 448.04 595.96 456.529 595.96 467.005Z" fill="#3D3B80"/>
<defs>
<linearGradient id="paint0_linear_434_28" x1="181.417" y1="1275.79" x2="947.099" y2="240.698" gradientUnits="userSpaceOnUse">
<stop stop-color="#B8B7E6"/>
<stop offset="0.991875" stop-color="#E4E3F7"/>
</linearGradient>
</defs>
</svg>
