<svg width="15" height="15" viewBox="0 0 15 15" fill="none" xmlns="http://www.w3.org/2000/svg">
<path fill-rule="evenodd" clip-rule="evenodd" d="M9.15273 13.9981C10.4917 15.3338 12.6592 15.3342 13.9956 13.9978C15.3315 12.662 15.3352 10.4913 13.9954 9.15467L12.5427 7.69898L12.5424 7.69877C12.4315 7.58779 12.4315 7.41147 12.5424 7.30049L13.9953 5.84762C15.3348 4.51143 15.3349 2.34067 13.9956 1.00438C12.6591 -0.335015 10.4915 -0.334572 9.15249 1.00438L7.69933 2.4575C7.58835 2.56848 7.41202 2.56848 7.30104 2.4575L5.93667 1.09317C4.65179 -0.191683 2.54455 -0.365862 1.16297 0.855859C-0.331357 2.17549 -0.383008 4.45962 1.00478 5.84737L2.46089 7.30049C2.57263 7.41223 2.57065 7.59045 2.46226 7.69741L2.46088 7.69877L1.00503 9.1546C-0.334611 10.491 -0.334253 12.6586 1.00157 13.9976L1.00207 13.9981C2.34122 15.334 4.50849 15.334 5.84764 13.9981L5.8481 13.9976L7.30104 12.5418L7.30123 12.5416C7.41299 12.43 7.59107 12.4321 7.69797 12.5404L7.69912 12.5416L9.15273 13.9981Z" fill="#FFFFDB"/>
</svg>
