<svg width="523" height="739" viewBox="0 0 523 739" fill="none" xmlns="http://www.w3.org/2000/svg">
<g filter="url(#filter0_d_434_29)">
<rect x="8" y="4" width="507" height="723" rx="30.7028" fill="#39377F"/>
</g>
<path fill-rule="evenodd" clip-rule="evenodd" d="M476.517 61.4265C476.513 58.5265 474.164 56.1761 471.266 56.176C468.369 56.176 466.011 58.5255 466.015 61.4273L466.012 64.5808L466.012 64.5812C466.012 64.8219 465.821 65.0131 465.58 65.0131L462.429 65.013C459.528 65.0095 457.175 67.363 457.178 70.2639C457.175 73.1652 459.525 75.515 462.429 75.515L465.58 75.515C465.821 75.515 466.012 75.7062 466.012 75.9469L466.012 78.9054C466.012 81.6916 468.108 84.1652 470.93 84.3385C473.981 84.5279 476.514 82.1074 476.514 79.0981L476.511 75.9438C476.511 75.7015 476.706 75.5104 476.94 75.5119L476.942 75.512L480.099 75.512C483.001 75.5155 485.351 73.165 485.354 70.2648L485.354 70.2637C485.351 67.3634 483.001 65.0136 480.1 65.01L480.099 65.01L476.946 65.0132L476.945 65.0132C476.703 65.013 476.512 64.8177 476.514 64.5843L476.514 64.5818L476.517 61.4265Z" fill="#FFFFDB"/>
<path fill-rule="evenodd" clip-rule="evenodd" d="M39.01 660.101C39.0135 663.001 41.3632 665.351 44.261 665.351C47.1578 665.351 49.5154 663.002 49.5119 660.1L49.5151 656.947L49.5151 656.946C49.5151 656.705 49.7063 656.514 49.9469 656.514L53.0975 656.514C55.9985 656.518 58.3522 654.164 58.3489 651.263C58.3521 648.362 56.0014 646.012 53.0979 646.012L49.9468 646.012C49.7062 646.012 49.515 645.821 49.515 645.58L49.5149 642.622C49.5149 639.836 47.419 637.362 44.5964 637.189C41.5455 636.999 39.0129 639.42 39.013 642.429L39.0162 645.584C39.0162 645.826 38.8208 646.017 38.5873 646.015L38.5844 646.015L35.4274 646.015C32.526 646.012 30.1762 648.362 30.1728 651.263L30.1728 651.264C30.1763 654.164 32.5261 656.514 35.4265 656.517L35.4275 656.517L38.5813 656.514L38.5817 656.514C38.8238 656.514 39.0147 656.71 39.0132 656.943L39.0131 656.946L39.01 660.101Z" fill="#FFFFDB"/>
<path fill-rule="evenodd" clip-rule="evenodd" d="M448.35 27.4745C448.345 23.384 445.031 20.0687 440.943 20.0687C436.857 20.0686 433.532 23.3826 433.537 27.4757L433.532 31.9236L433.532 31.9242C433.532 32.2637 433.263 32.5333 432.923 32.5333L428.479 32.5333C424.387 32.5283 421.067 35.8479 421.072 39.9397C421.068 44.032 424.383 47.3463 428.479 47.3464L432.923 47.3464C433.263 47.3464 433.532 47.6161 433.532 47.9555L433.532 52.1286C433.533 56.0585 436.489 59.5475 440.47 59.792C444.773 60.0591 448.346 56.645 448.346 52.4003L448.341 47.9512C448.341 47.6094 448.617 47.3399 448.946 47.3421L448.95 47.3421L453.403 47.3421C457.495 47.3471 460.81 44.0317 460.815 39.941L460.815 39.9395C460.81 35.8485 457.495 32.5341 453.404 32.5291L453.403 32.5291L448.954 32.5335L448.954 32.5335C448.612 32.5332 448.343 32.2577 448.345 31.9286L448.345 31.9251L448.35 27.4745Z" fill="#FFFFDB"/>
<path fill-rule="evenodd" clip-rule="evenodd" d="M67.1771 694.053C67.1821 698.143 70.4963 701.459 74.5837 701.459C78.6697 701.459 81.995 698.145 81.9902 694.052L81.9946 689.604L81.9946 689.603C81.9946 689.264 82.2643 688.994 82.6037 688.994L87.0476 688.994C91.1395 688.999 94.4594 685.679 94.4548 681.588C94.4593 677.495 91.1436 674.181 87.0482 674.181L82.6036 674.181C82.2641 674.181 81.9944 673.911 81.9944 673.572L81.9944 669.399C81.9943 665.469 79.0381 661.98 75.0568 661.735C70.7534 661.468 67.1813 664.882 67.1813 669.127L67.1859 673.576C67.1859 673.918 66.9103 674.187 66.581 674.185L66.5768 674.185L62.1239 674.185C58.0315 674.18 54.7171 677.496 54.7122 681.586L54.7122 681.588C54.7172 685.679 58.0316 688.993 62.1226 688.998L62.124 688.998L66.5724 688.994L66.573 688.994C66.9145 688.994 67.1838 689.27 67.1816 689.599L67.1816 689.602L67.1771 694.053Z" fill="#FFFFDB"/>
<defs>
<filter id="filter0_d_434_29" x="0.836022" y="0.929724" width="521.328" height="737.328" filterUnits="userSpaceOnUse" color-interpolation-filters="sRGB">
<feFlood flood-opacity="0" result="BackgroundImageFix"/>
<feColorMatrix in="SourceAlpha" type="matrix" values="0 0 0 0 0 0 0 0 0 0 0 0 0 0 0 0 0 0 127 0" result="hardAlpha"/>
<feOffset dy="4.0937"/>
<feGaussianBlur stdDeviation="3.58199"/>
<feComposite in2="hardAlpha" operator="out"/>
<feColorMatrix type="matrix" values="0 0 0 0 0.168627 0 0 0 0 0.160784 0 0 0 0 0.407843 0 0 0 0.5 0"/>
<feBlend mode="normal" in2="BackgroundImageFix" result="effect1_dropShadow_434_29"/>
<feBlend mode="normal" in="SourceGraphic" in2="effect1_dropShadow_434_29" result="shape"/>
</filter>
</defs>
</svg>
