<svg width="89" height="25" viewBox="0 0 89 25" fill="none" xmlns="http://www.w3.org/2000/svg">
<path d="M42.8319 23.6569V12.412H40.0044V9.32451L44.4569 9.55201V8.96701C43.7852 8.77202 43.2219 8.49035 42.7669 8.12202C42.3119 7.73203 41.976 7.27703 41.7594 6.75703C41.5644 6.23704 41.4669 5.67371 41.4669 5.06705C41.4669 4.13539 41.6944 3.33373 42.1494 2.66207C42.6044 1.99041 43.2435 1.47041 44.0669 1.10209C44.8902 0.712089 45.8652 0.51709 46.9918 0.51709C47.9235 0.51709 48.7685 0.636256 49.5268 0.874586C50.3068 1.11292 50.9351 1.40541 51.4118 1.75208L51.0868 5.52205C50.6101 5.13205 50.0576 4.82872 49.4293 4.61205C48.801 4.37372 48.1943 4.25456 47.6093 4.25456C46.9377 4.25456 46.3852 4.44955 45.9518 4.83955C45.5185 5.20788 45.3018 5.81454 45.3018 6.65954C45.3018 7.2012 45.4347 7.62774 45.5943 7.99202C45.964 8.83544 47.2234 10.873 50.5972 11.8605L50.5474 12.412H46.8293V23.6569H42.8319Z" fill="#D7D7C8"/>
<path fill-rule="evenodd" clip-rule="evenodd" d="M58.3803 11.4497C58.9572 10.8714 58.9573 9.9353 58.3802 9.35814C57.8032 8.78119 56.8657 8.77959 56.2885 9.35822L55.6598 9.98564L55.6597 9.98573C55.6118 10.0337 55.5356 10.0337 55.4877 9.98573L54.8602 9.35825C54.2832 8.77976 53.3457 8.77973 52.7685 9.35814C52.1901 9.93534 52.1903 10.8715 52.7685 11.4498L53.3961 12.0774C53.444 12.1253 53.444 12.2015 53.3961 12.2494L52.8069 12.8386C52.252 13.3936 52.1767 14.3036 52.7044 14.9003C53.2743 15.5457 54.2608 15.568 54.8601 14.9686L55.4877 14.3398C55.536 14.2915 55.6129 14.2924 55.6591 14.3392L55.6597 14.3398L56.2885 14.9685C56.8656 15.5471 57.8018 15.5469 58.3801 14.97L58.3803 14.9698C58.9572 14.3915 58.9572 13.4555 58.3803 12.8771L58.3801 12.8769L57.7513 12.2494L57.7512 12.2493C57.7031 12.201 57.7039 12.1241 57.7507 12.078L57.7512 12.0775L58.3803 11.4497Z" fill="#D7D7C8"/>
<path d="M66.0409 23.6571L77.9175 2.20728H80.615L84.0782 23.6571H82.1283L79.1135 3.89726H78.7885L68.0234 23.6571H66.0409ZM70.2782 18.4571L70.6032 16.7996H82.4006L82.0756 18.4571H70.2782Z" fill="#D7D7C8"/>
<path d="M59.8959 23.6571L64.1025 2.20728H65.9875L61.7809 23.6571H59.8959Z" fill="#D7D7C8"/>
<path d="M29.3621 24.0794C27.6938 24.0794 26.2205 23.7436 24.9421 23.0719C23.6638 22.3786 22.6563 21.3711 21.9197 20.0494C21.2047 18.7061 20.8472 17.0595 20.8472 15.1095C20.8472 13.1162 21.2155 11.4695 21.9522 10.1695C22.7105 8.84787 23.7288 7.86204 25.0071 7.21205C26.2855 6.56206 27.7263 6.23706 29.3296 6.23706C30.9979 6.23706 32.4712 6.57289 33.7496 7.24455C35.0279 7.91621 36.0354 8.9237 36.772 10.267C37.5087 11.5887 37.877 13.2353 37.877 15.207C37.877 17.2003 37.5087 18.8578 36.772 20.1794C36.0354 21.5011 35.017 22.4869 33.7171 23.1369C32.4387 23.7652 30.9871 24.0794 29.3621 24.0794ZM29.5246 20.9594C30.4346 20.9594 31.2037 20.7536 31.8321 20.3419C32.4604 19.9086 32.9371 19.2694 33.2621 18.4245C33.6087 17.5795 33.7821 16.572 33.7821 15.402C33.7821 14.167 33.5979 13.1162 33.2296 12.2495C32.8829 11.3612 32.3737 10.6787 31.7021 10.202C31.0521 9.72536 30.2288 9.48703 29.2321 9.48703C28.3654 9.48703 27.6071 9.7037 26.9571 10.137C26.3071 10.5487 25.8088 11.1662 25.4621 11.9895C25.1371 12.8128 24.9746 13.8312 24.9746 15.0445C24.9746 16.9511 25.3755 18.4136 26.1771 19.4319C27.0004 20.4503 28.1163 20.9594 29.5246 20.9594Z" fill="#D7D7C8"/>
<path d="M9.00242 24.0795C7.5941 24.0795 6.33744 23.9386 5.23245 23.657C4.12746 23.397 3.18497 22.9853 2.40498 22.422C1.64665 21.837 1.06166 21.1328 0.649994 20.3095C0.238331 19.4645 0.0216664 18.4787 0 17.352L3.63997 16.2795C3.6183 17.3195 3.83497 18.1862 4.28996 18.8795C4.74496 19.5512 5.39495 20.0495 6.23995 20.3745C7.1066 20.6995 8.09243 20.862 9.19742 20.862C10.2591 20.862 11.1474 20.732 11.8624 20.472C12.5991 20.212 13.1516 19.8653 13.5199 19.432C13.8882 18.977 14.0724 18.4679 14.0724 17.9045C14.0724 17.2762 13.8449 16.7779 13.3899 16.4095C12.9349 16.0195 12.3174 15.7054 11.5374 15.467C10.7791 15.2071 9.91241 14.9687 8.93742 14.7521C7.87576 14.5137 6.83577 14.2537 5.81745 13.9721C4.82079 13.6904 3.9108 13.3112 3.08747 12.8346C2.26415 12.3579 1.60332 11.7512 1.10499 11.0146C0.628328 10.2563 0.389997 9.30294 0.389997 8.15461C0.389997 6.85462 0.714994 5.7388 1.36499 4.80714C2.01498 3.85382 2.95747 3.11716 4.19246 2.59716C5.44912 2.0555 6.94411 1.78467 8.67742 1.78467C10.3891 1.78467 11.8841 2.04467 13.1624 2.56466C14.4407 3.06299 15.4374 3.79965 16.1524 4.77464C16.8674 5.74963 17.2465 6.89796 17.2898 8.21961L13.5524 9.2596C13.5524 8.54461 13.4332 7.92711 13.1949 7.40712C12.9782 6.86546 12.6532 6.42129 12.2199 6.07463C11.7866 5.7063 11.2666 5.43547 10.6599 5.26214C10.0749 5.08881 9.40325 5.00214 8.64493 5.00214C7.7566 5.00214 6.97661 5.12131 6.30494 5.35964C5.65495 5.59797 5.15662 5.9338 4.80996 6.36713C4.46329 6.77879 4.28996 7.26629 4.28996 7.82962C4.28996 8.52294 4.54996 9.07544 5.06996 9.4871C5.58995 9.89876 6.27245 10.2346 7.11744 10.4946C7.9841 10.7329 8.92659 10.9713 9.94491 11.2096C10.8766 11.4046 11.8082 11.6429 12.7399 11.9246C13.6932 12.2062 14.5707 12.5746 15.3724 13.0296C16.174 13.4846 16.8132 14.1021 17.2898 14.8821C17.7882 15.6404 18.0373 16.6045 18.0373 17.7745C18.0373 19.0312 17.7015 20.1362 17.0299 21.0895C16.3582 22.0428 15.3507 22.7795 14.0074 23.2995C12.6641 23.8195 10.9957 24.0795 9.00242 24.0795Z" fill="#D7D7C8"/>
</svg>
