<svg width="32" height="32" viewBox="0 0 32 32" fill="none" xmlns="http://www.w3.org/2000/svg">
<path fill-rule="evenodd" clip-rule="evenodd" d="M29.0124 19.4229C31.7788 22.196 31.7795 26.6849 29.0119 29.4526C26.2453 32.2193 21.7497 32.2269 18.9816 29.4522L15.9668 26.4435L15.9664 26.443C15.7365 26.2132 15.3713 26.2132 15.1415 26.443L12.1326 29.452C9.36528 32.2261 4.86958 32.2263 2.10208 29.4526C-0.671849 26.6847 -0.67093 22.1954 2.10208 19.4223L5.11152 16.4128C5.34137 16.183 5.34137 15.8178 5.11152 15.5879L2.28596 12.7623C-0.375 10.1013 -0.735731 5.73711 1.79449 2.87583C4.52749 -0.218966 9.25799 -0.325937 12.1321 2.5482L15.1415 5.56385C15.3729 5.79528 15.742 5.79118 15.9635 5.56669L15.9663 5.56384L18.9814 2.54872C21.7491 -0.225704 26.2382 -0.224962 29.0114 2.54156L29.0124 2.54259C31.7791 5.31601 31.7791 9.80449 29.0124 12.5779L29.0115 12.5789L25.9963 15.5879L25.9959 15.5883C25.7649 15.8198 25.7691 16.1886 25.9935 16.41L25.9959 16.4124L29.0124 19.4229Z" fill="#C5C4EB"/>
<path fill-rule="evenodd" clip-rule="evenodd" d="M18.4976 13.3549C17.7149 13.3549 17.0804 14.5439 17.0804 16.0106C17.0804 17.4772 17.7149 18.6662 18.4976 18.6662C19.2802 18.6662 19.9147 17.4772 19.9147 16.0106C19.9147 14.5439 19.2802 13.3549 18.4976 13.3549ZM13.7991 16.0106C13.7991 17.4775 13.1651 18.6662 12.382 18.6662C11.5989 18.6662 10.9648 17.4775 10.9648 16.0106C10.9648 14.5437 11.5989 13.3549 12.382 13.3549C13.1651 13.3549 13.7991 14.5437 13.7991 16.0106Z" fill="#39377F"/>
</svg>
