<svg width="41" height="40" viewBox="0 0 41 40" fill="none" xmlns="http://www.w3.org/2000/svg">
<path fill-rule="evenodd" clip-rule="evenodd" d="M24.6869 3.53824C28.0791 0.154269 33.57 0.153361 36.9555 3.53887C40.3398 6.92317 40.3492 12.4224 36.9551 15.8085L33.2747 19.4964L33.2742 19.4969C32.993 19.7781 32.993 20.2248 33.2742 20.5059L36.9549 24.1866C40.3482 27.5717 40.3484 33.0711 36.9555 36.4564C33.5698 39.8497 28.0784 39.8485 24.6863 36.4564L21.005 32.7751C20.7238 32.494 20.2771 32.494 19.996 32.7751L16.5396 36.2315C13.2845 39.4865 7.94618 39.9278 4.4462 36.8327C0.660563 33.4895 0.529713 27.7029 4.04543 24.1872L7.73424 20.5059C8.01733 20.2228 8.01232 19.7713 7.73772 19.5003L7.73423 19.4969L4.04607 15.8087C0.652319 12.4232 0.653227 6.93177 4.0373 3.5395L4.03857 3.53824C7.43108 0.15392 12.9215 0.15392 16.314 3.53824L16.3152 3.5394L19.996 7.22769L19.9965 7.22818C20.2796 7.51073 20.7307 7.50559 21.0015 7.23116L21.0045 7.22822L24.6869 3.53824Z" stroke="#FFFFDB" stroke-width="2" stroke-miterlimit="10"/>
<path d="M16.9434 23.2202C17.8999 23.2202 18.6753 21.7667 18.6753 19.9738C18.6753 18.1808 17.8999 16.7273 16.9434 16.7273C15.9868 16.7273 15.2114 18.1808 15.2114 19.9738C15.2114 21.7667 15.9868 23.2202 16.9434 23.2202Z" fill="#FFFFDB"/>
<path d="M24.4185 23.2202C25.375 23.2202 26.1504 21.7667 26.1504 19.9738C26.1504 18.1808 25.375 16.7273 24.4185 16.7273C23.4619 16.7273 22.6865 18.1808 22.6865 19.9738C22.6865 21.7667 23.4619 23.2202 24.4185 23.2202Z" fill="#FFFFDB"/>
</svg>
