<svg width="41" height="42" viewBox="0 0 41 42" fill="none" xmlns="http://www.w3.org/2000/svg">
<path d="M2.98078 3.47871C2.88971 3.56961 2.80297 3.66051 2.7184 3.75141C1.26994 5.3183 0.500175 7.33535 0.500175 9.41733C0.500175 10.1705 0.599947 10.9301 0.805941 11.6811C1.60173 14.5877 3.79391 16.8406 6.67132 17.7063L14.5338 20.0913C15.1604 20.2817 15.2081 20.8336 15.2081 21.0002C15.2081 21.1669 15.1604 21.7188 14.5338 21.9092L6.67347 24.2942C3.7939 25.162 1.60173 27.4128 0.805941 30.3215C0.0318387 33.1523 0.747367 36.1173 2.7184 38.2512C2.80297 38.3443 2.89188 38.4352 2.98078 38.5239C3.06968 38.6148 3.16293 38.7014 3.254 38.7858C5.392 40.7531 8.36264 41.4673 11.1988 40.6946C14.1109 39.9004 16.3682 37.7124 17.2377 34.8383L19.5947 27.0406C19.7834 26.413 20.3406 26.3653 20.5054 26.3653C20.6702 26.3653 21.2275 26.4151 21.4161 27.0406L23.7644 34.8101C24.6339 37.6864 26.8934 39.8722 29.8098 40.6622C32.6569 41.4327 35.6362 40.7055 37.7764 38.7187C37.8588 38.643 37.939 38.5651 38.0192 38.485C38.1081 38.3963 38.197 38.3032 38.2816 38.2123C40.2526 36.0784 40.9682 33.1134 40.1941 30.2826C39.3983 27.376 37.2061 25.1231 34.3265 24.2552L26.5334 21.9092C25.9046 21.7209 25.8569 21.1647 25.8569 21.0002C25.8569 20.8358 25.9068 20.2796 26.5334 20.0913L34.3265 17.7453C37.2061 16.8796 39.3983 14.6266 40.1941 11.7179C40.9682 8.8871 40.2526 5.92212 38.2816 3.7882C38.197 3.69514 38.1081 3.60424 38.0192 3.51551C37.9347 3.4311 37.8479 3.34886 37.7612 3.26878C35.621 1.29069 32.6482 0.567841 29.8033 1.34047C26.889 2.13041 24.6318 4.31843 23.7644 7.19252L21.4161 14.9621C21.2275 15.5897 20.6702 15.6373 20.5054 15.6373C20.3406 15.6373 19.7834 15.5875 19.5947 14.9621L17.2334 7.14707C16.3639 4.27082 14.1044 2.08496 11.188 1.29935C8.33662 0.531048 5.35728 1.26255 3.21711 3.25364C3.13688 3.32722 3.05883 3.40297 2.98293 3.48088L2.98078 3.47871ZM10.7457 2.92684C13.094 3.55879 14.9132 5.3183 15.6114 7.63185L17.9728 15.4469C18.3176 16.5874 19.3107 17.3232 20.5032 17.3232C21.6958 17.3232 22.689 16.5874 23.0337 15.4469L25.382 7.6773C26.0802 5.36375 27.8995 3.60424 30.2457 2.96796C32.5225 2.35116 34.9011 2.92684 36.6098 4.50672C36.6814 4.57165 36.7507 4.6409 36.8201 4.70799C36.8938 4.78158 36.9654 4.85516 37.0348 4.93091C38.609 6.63631 39.1793 9.00614 38.5591 11.2721C37.9195 13.6138 36.1523 15.4295 33.8365 16.1264L26.0434 18.4724C24.9007 18.8165 24.1634 19.8078 24.1634 20.9981C24.1634 22.1884 24.9007 23.1796 26.0434 23.5237L33.8365 25.8697C36.1544 26.5666 37.9195 28.3824 38.5591 30.7241C39.1793 32.99 38.609 35.362 37.0347 37.0653C36.9654 37.141 36.8938 37.2146 36.8179 37.2903C36.7529 37.3553 36.6857 37.4202 36.6185 37.4829C34.9098 39.0693 32.5268 39.6493 30.2478 39.0325C27.8995 38.3984 26.0803 36.6367 25.3799 34.3232L23.0315 26.5536C22.6868 25.4131 21.6937 24.6772 20.5011 24.6772C19.3085 24.6772 18.3154 25.4131 17.9706 26.5536L15.6136 34.3513C14.9154 36.6649 13.0962 38.4265 10.75 39.065C8.47974 39.684 6.10321 39.1148 4.39672 37.5435C4.32083 37.4743 4.24708 37.4029 4.17119 37.3293C4.09747 37.2557 4.02592 37.1821 3.95653 37.1064C2.38231 35.401 1.81204 33.0311 2.43219 30.7652C3.07186 28.4235 4.83907 26.6077 7.15704 25.9109L15.0195 23.5259C16.1579 23.1796 16.8929 22.1906 16.8929 21.0024C16.8929 19.8142 16.1579 18.823 15.0195 18.4789L7.15485 16.094C4.83688 15.3971 3.07186 13.5813 2.43219 11.2396C1.81204 8.97367 2.38231 6.60168 3.95653 4.89844C4.02592 4.82269 4.09747 4.74911 4.17119 4.67553C4.23407 4.61276 4.29916 4.55 4.36421 4.4894C6.07287 2.8987 8.45805 2.31436 10.7413 2.929L10.7457 2.92684Z" fill="#D1CEED" stroke="#D1CEED" stroke-width="0.5"/>
</svg>
