<svg width="1109" height="2320" viewBox="0 0 1109 2320" fill="none" xmlns="http://www.w3.org/2000/svg">
<path d="M625 429C713.5 499.5 850.5 370.056 868 359.722L889 578C821.5 581.5 750.187 455.154 680.5 540C624.015 608.773 646.834 690.52 727 730.5C779.137 756.502 840.5 749 905.5 782.5C970.5 816 985.96 944.908 834 1140C605 1434 1210.5 1325 1089.5 1938C945.623 2460.38 -15 2821.83 -15 2821.83L-15 -49.4999L492 -49.4999C579 -88.9999 877.99 61.8586 668 217C601 266.5 554.215 372.612 625 429Z" fill="url(#paint0_linear_434_13)"/>
<path fill-rule="evenodd" clip-rule="evenodd" d="M862.517 613.426C862.513 610.526 860.164 608.176 857.266 608.176C854.369 608.176 852.011 610.525 852.015 613.427L852.012 616.581L852.012 616.581C852.012 616.822 851.821 617.013 851.58 617.013L848.429 617.013C845.528 617.009 843.175 619.363 843.178 622.264C843.175 625.165 845.525 627.515 848.429 627.515L851.58 627.515C851.821 627.515 852.012 627.706 852.012 627.947L852.012 630.905C852.012 633.691 854.108 636.165 856.93 636.338C859.981 636.528 862.514 634.107 862.514 631.098L862.511 627.944C862.511 627.701 862.706 627.51 862.94 627.512L862.942 627.512L866.099 627.512C869.001 627.515 871.351 625.165 871.354 622.265L871.354 622.264C871.351 619.363 869.001 617.013 866.1 617.01L866.099 617.01L862.946 617.013L862.945 617.013C862.703 617.013 862.512 616.817 862.514 616.584L862.514 616.582L862.517 613.426Z" fill="#FFFFDB"/>
<path fill-rule="evenodd" clip-rule="evenodd" d="M862.517 319.426C862.513 316.526 860.164 314.176 857.266 314.176C854.369 314.176 852.011 316.525 852.015 319.427L852.012 322.581L852.012 322.581C852.012 322.822 851.821 323.013 851.58 323.013L848.429 323.013C845.528 323.009 843.175 325.363 843.178 328.264C843.175 331.165 845.525 333.515 848.429 333.515L851.58 333.515C851.821 333.515 852.012 333.706 852.012 333.947L852.012 336.905C852.012 339.691 854.108 342.165 856.93 342.338C859.981 342.528 862.514 340.107 862.514 337.098L862.511 333.944C862.511 333.701 862.706 333.51 862.94 333.512L862.942 333.512L866.099 333.512C869.001 333.515 871.351 331.165 871.354 328.265L871.354 328.264C871.351 325.363 869.001 323.013 866.1 323.01L866.099 323.01L862.946 323.013L862.945 323.013C862.703 323.013 862.512 322.817 862.514 322.584L862.514 322.582L862.517 319.426Z" fill="#FFFFDB"/>
<path fill-rule="evenodd" clip-rule="evenodd" d="M912.137 772.676C912.133 769.288 909.388 766.542 906.003 766.542C902.619 766.542 899.864 769.286 899.868 772.677L899.865 776.361C899.865 776.642 899.641 776.866 899.36 776.866L895.68 776.866C892.29 776.861 889.541 779.611 889.544 783C889.541 786.389 892.287 789.135 895.679 789.135L899.36 789.135C899.641 789.135 899.865 789.358 899.865 789.639L899.865 793.096C899.865 796.351 902.313 799.24 905.611 799.443C909.175 799.664 912.134 796.836 912.134 793.321L912.13 789.636C912.13 789.353 912.358 789.129 912.631 789.131L912.635 789.131L916.323 789.131C919.712 789.135 922.458 786.389 922.462 783.001L922.462 783C922.457 779.611 919.712 776.866 916.324 776.862L916.323 776.862L912.638 776.866C912.355 776.865 912.132 776.637 912.134 776.365L912.134 776.362L912.137 772.676Z" fill="#DBDAFF"/>
<path fill-rule="evenodd" clip-rule="evenodd" d="M1095.29 1639.49C1095.28 1636.1 1092.54 1633.35 1089.15 1633.35C1085.77 1633.35 1083.01 1636.1 1083.02 1639.49L1083.01 1643.17C1083.01 1643.45 1082.79 1643.68 1082.51 1643.68L1078.83 1643.68C1075.44 1643.67 1072.69 1646.42 1072.69 1649.81C1072.69 1653.2 1075.44 1655.95 1078.83 1655.95L1082.51 1655.95C1082.79 1655.95 1083.01 1656.17 1083.01 1656.45L1083.01 1659.91C1083.01 1663.16 1085.46 1666.05 1088.76 1666.25C1092.32 1666.48 1095.28 1663.65 1095.28 1660.13L1095.28 1656.45C1095.28 1656.16 1095.51 1655.94 1095.78 1655.94L1095.78 1655.94L1099.47 1655.94C1102.86 1655.95 1105.61 1653.2 1105.61 1649.81L1105.61 1649.81C1105.61 1646.42 1102.86 1643.68 1099.47 1643.67L1099.47 1643.67L1095.79 1643.68C1095.5 1643.68 1095.28 1643.45 1095.28 1643.18L1095.28 1643.17L1095.29 1639.49Z" fill="#DBDAFF"/>
<path fill-rule="evenodd" clip-rule="evenodd" d="M844.712 347.768C844.71 345.515 842.885 343.69 840.634 343.69C838.384 343.69 836.553 345.515 836.555 347.769L836.553 350.218L836.553 350.218C836.553 350.405 836.405 350.554 836.218 350.554L833.771 350.554C831.517 350.551 829.689 352.379 829.692 354.632C829.689 356.885 831.515 358.71 833.77 358.71L836.218 358.71C836.405 358.71 836.553 358.859 836.553 359.046L836.553 361.344C836.553 363.508 838.181 365.429 840.373 365.563C842.743 365.711 844.71 363.831 844.71 361.493L844.707 359.043C844.707 358.855 844.859 358.707 845.041 358.708L845.043 358.708L847.495 358.708C849.748 358.711 851.573 356.885 851.576 354.633L851.576 354.632C851.573 352.379 849.748 350.554 847.496 350.551L847.495 350.551L845.045 350.554L845.045 350.554C844.857 350.553 844.709 350.402 844.71 350.221L844.71 350.219L844.712 347.768Z" fill="#FFFFDB"/>
<path fill-rule="evenodd" clip-rule="evenodd" d="M834.35 579.474C834.345 575.384 831.031 572.068 826.943 572.068C822.857 572.068 819.532 575.382 819.537 579.475L819.532 583.923L819.532 583.924C819.532 584.263 819.263 584.533 818.923 584.533L814.479 584.533C810.387 584.528 807.067 587.848 807.072 591.939C807.068 596.032 810.383 599.346 814.479 599.346L818.923 599.346C819.263 599.346 819.532 599.616 819.532 599.955L819.532 604.128C819.533 608.058 822.489 611.547 826.47 611.792C830.773 612.059 834.346 608.645 834.346 604.4L834.341 599.951C834.341 599.609 834.617 599.34 834.946 599.342L834.95 599.342L839.403 599.342C843.495 599.347 846.81 596.031 846.815 591.941L846.815 591.939C846.81 587.848 843.495 584.534 839.404 584.529L839.403 584.529L834.954 584.533L834.954 584.533C834.612 584.533 834.343 584.258 834.345 583.928L834.345 583.925L834.35 579.474Z" fill="#FFFFDB"/>
<path fill-rule="evenodd" clip-rule="evenodd" d="M601.35 315.474C601.345 311.384 598.031 308.068 593.943 308.068C589.857 308.068 586.532 311.382 586.537 315.475L586.532 319.923L586.532 319.924C586.532 320.263 586.263 320.533 585.923 320.533L581.479 320.533C577.387 320.528 574.067 323.848 574.072 327.939C574.068 332.032 577.383 335.346 581.479 335.346L585.923 335.346C586.263 335.346 586.532 335.616 586.532 335.955L586.532 340.128C586.533 344.058 589.489 347.547 593.47 347.792C597.773 348.059 601.346 344.645 601.346 340.4L601.341 335.951C601.341 335.609 601.617 335.34 601.946 335.342L601.95 335.342L606.403 335.342C610.495 335.347 613.81 332.031 613.815 327.941L613.815 327.939C613.81 323.848 610.495 320.534 606.404 320.529L606.403 320.529L601.954 320.533L601.954 320.533C601.612 320.533 601.343 320.258 601.345 319.928L601.345 319.925L601.35 315.474Z" fill="#DBDAFF"/>
<path fill-rule="evenodd" clip-rule="evenodd" d="M1043.61 491.376C1063.37 511.181 1063.37 543.239 1043.61 563.005C1023.85 582.764 991.743 582.819 971.974 563.002L950.443 541.515L950.44 541.512C948.798 539.87 946.19 539.87 944.549 541.512L923.06 563.001C903.297 582.813 871.189 582.814 851.425 563.005C831.614 543.238 831.621 511.177 851.425 491.372L872.917 469.879C874.559 468.237 874.559 465.629 872.917 463.988L852.738 443.808C833.734 424.803 831.158 393.636 849.228 373.201C868.746 351.099 902.53 350.335 923.056 370.861L944.549 392.398C946.202 394.051 948.837 394.022 950.42 392.419L950.44 392.398L971.972 370.865C991.738 351.051 1023.8 351.056 1043.6 370.814L1043.61 370.821C1063.37 390.628 1063.37 422.684 1043.61 442.491L1043.6 442.498L1022.07 463.988L1022.07 463.991C1020.42 465.644 1020.45 468.277 1022.05 469.859L1022.07 469.876L1043.61 491.376Z" fill="#FFFFDB"/>
<path fill-rule="evenodd" clip-rule="evenodd" d="M968.514 448.04C962.925 448.04 958.393 456.531 958.393 467.005C958.393 477.48 962.925 485.971 968.514 485.971C974.104 485.971 978.635 477.48 978.635 467.005C978.635 456.531 974.104 448.04 968.514 448.04ZM934.959 467.005C934.959 477.482 930.431 485.971 924.839 485.971C919.246 485.971 914.718 477.482 914.718 467.005C914.718 456.529 919.246 448.04 924.839 448.04C930.431 448.04 934.959 456.529 934.959 467.005Z" fill="#3D3B80"/>
<path opacity="0.3" fill-rule="evenodd" clip-rule="evenodd" d="M924.997 843.684C927.524 841.151 927.525 837.051 924.997 834.522C922.469 831.995 918.363 831.988 915.834 834.523L913.08 837.271L913.08 837.271C912.87 837.481 912.536 837.481 912.326 837.271L909.578 834.523C907.05 831.989 902.943 831.989 900.415 834.522C897.881 837.051 897.882 841.152 900.415 843.685L903.164 846.434C903.374 846.644 903.374 846.978 903.164 847.187L900.583 849.769C898.152 852.199 897.823 856.186 900.134 858.8C902.63 861.627 906.952 861.725 909.577 859.099L912.326 856.344C912.538 856.133 912.875 856.137 913.077 856.342L913.08 856.344L915.834 859.099C918.362 861.633 922.463 861.632 924.996 859.105L924.997 859.104C927.524 856.571 927.524 852.471 924.997 849.937L924.996 849.936L922.242 847.187L922.242 847.187C922.031 846.976 922.034 846.639 922.239 846.437L922.242 846.434L924.997 843.684Z" fill="#4E4D98"/>
<path opacity="0.3" fill-rule="evenodd" clip-rule="evenodd" d="M943.396 1462.05C945.923 1459.52 945.924 1455.42 943.396 1452.89C940.868 1450.36 936.762 1450.36 934.233 1452.89L931.479 1455.64L931.479 1455.64C931.269 1455.85 930.935 1455.85 930.725 1455.64L927.977 1452.89C925.449 1450.36 921.342 1450.36 918.814 1452.89C916.28 1455.42 916.281 1459.52 918.814 1462.05L921.563 1464.8C921.773 1465.01 921.773 1465.34 921.563 1465.55L918.982 1468.14C916.551 1470.57 916.221 1474.55 918.533 1477.17C921.029 1479.99 925.351 1480.09 927.976 1477.47L930.725 1474.71C930.937 1474.5 931.274 1474.5 931.476 1474.71L931.479 1474.71L934.233 1477.47C936.761 1480 940.862 1480 943.395 1477.47L943.396 1477.47C945.923 1474.94 945.923 1470.84 943.396 1468.3L943.395 1468.3L940.641 1465.55L940.641 1465.55C940.43 1465.34 940.433 1465.01 940.638 1464.8L940.64 1464.8L943.396 1462.05Z" fill="#4E4D98"/>
<path opacity="0.3" fill-rule="evenodd" clip-rule="evenodd" d="M719.941 110.246C719.939 107.993 718.114 106.168 715.863 106.168C713.613 106.168 711.782 107.992 711.785 110.246L711.782 112.696L711.782 112.696C711.782 112.883 711.634 113.031 711.447 113.031L709 113.031C706.746 113.029 704.918 114.856 704.921 117.11C704.918 119.363 706.744 121.188 708.999 121.188L711.447 121.188C711.634 121.188 711.782 121.337 711.782 121.524L711.782 123.821C711.782 125.985 713.41 127.907 715.602 128.041C717.972 128.188 719.939 126.308 719.939 123.971L719.936 121.521C719.936 121.333 720.088 121.185 720.27 121.186L720.272 121.186L722.724 121.186C724.977 121.189 726.802 119.363 726.805 117.11L726.805 117.109C726.802 114.857 724.977 113.032 722.725 113.029L722.724 113.029L720.274 113.031L720.274 113.031C720.086 113.031 719.938 112.88 719.939 112.698L719.939 112.696L719.941 110.246Z" fill="#51509A"/>
<path opacity="0.3" fill-rule="evenodd" clip-rule="evenodd" d="M706.4 90.6214C708.842 88.1735 708.843 84.211 706.4 81.7678C703.958 79.3255 699.989 79.3188 697.546 81.7681L694.884 84.4241L694.884 84.4244C694.681 84.6273 694.359 84.6273 694.156 84.4244L691.5 81.7683C689.057 79.3195 685.088 79.3194 682.645 81.7678C680.197 84.2111 680.198 88.174 682.645 90.6219L685.302 93.2785C685.505 93.4814 685.505 93.8038 685.302 94.0067L682.808 96.501C680.459 98.8499 680.14 102.702 682.374 105.228C684.786 107.96 688.962 108.054 691.499 105.517L694.156 102.855C694.36 102.651 694.686 102.655 694.882 102.853L694.884 102.855L697.546 105.517C699.989 107.966 703.951 107.965 706.399 105.523L706.4 105.522C708.842 103.074 708.842 99.1119 706.4 96.6637L706.399 96.6629L703.738 94.0067L703.737 94.0063C703.534 93.802 703.537 93.4764 703.735 93.281L703.737 93.2789L706.4 90.6214Z" fill="#51509A"/>
<path opacity="0.3" fill-rule="evenodd" clip-rule="evenodd" d="M894.506 818.414C894.503 816.162 892.679 814.336 890.428 814.336C888.178 814.336 886.347 816.161 886.349 818.415L886.347 820.864L886.347 820.865C886.347 821.052 886.199 821.2 886.012 821.2L883.565 821.2C881.311 821.197 879.483 823.025 879.486 825.278C879.483 827.532 881.309 829.357 883.564 829.357L886.012 829.357C886.199 829.357 886.347 829.505 886.347 829.692L886.347 831.99C886.347 834.154 887.975 836.075 890.167 836.21C892.537 836.357 894.504 834.477 894.504 832.14L894.501 829.69C894.501 829.502 894.653 829.353 894.835 829.354L894.837 829.354L897.289 829.354C899.542 829.357 901.367 827.532 901.37 825.279L901.37 825.278C901.367 823.026 899.542 821.2 897.29 821.198L897.289 821.198L894.839 821.2L894.839 821.2C894.651 821.2 894.503 821.048 894.504 820.867L894.504 820.865L894.506 818.414Z" fill="#4E4D98"/>
<path opacity="0.3" fill-rule="evenodd" clip-rule="evenodd" d="M905.362 1445.68C905.359 1443.43 903.535 1441.6 901.284 1441.6C899.034 1441.6 897.203 1443.43 897.205 1445.68L897.203 1448.13L897.203 1448.13C897.203 1448.32 897.054 1448.47 896.868 1448.47L894.421 1448.47C892.167 1448.47 890.339 1450.29 890.342 1452.55C890.339 1454.8 892.165 1456.62 894.42 1456.62L896.868 1456.62C897.055 1456.62 897.203 1456.77 897.203 1456.96L897.203 1459.26C897.203 1461.42 898.831 1463.34 901.023 1463.48C903.393 1463.63 905.36 1461.75 905.36 1459.41L905.357 1456.96C905.357 1456.77 905.509 1456.62 905.69 1456.62L905.693 1456.62L908.145 1456.62C910.398 1456.63 912.223 1454.8 912.226 1452.55L912.226 1452.55C912.223 1450.29 910.398 1448.47 908.145 1448.47L908.145 1448.47L905.695 1448.47L905.695 1448.47C905.507 1448.47 905.359 1448.32 905.36 1448.14L905.36 1448.13L905.362 1445.68Z" fill="#4E4D98"/>
<path opacity="0.3" fill-rule="evenodd" clip-rule="evenodd" d="M1006.34 2057.12C1006.33 2054.86 1004.51 2053.04 1002.26 2053.04C1000.01 2053.04 998.177 2054.86 998.18 2057.12L998.177 2059.57L998.177 2059.57C998.177 2059.75 998.029 2059.9 997.842 2059.9L995.395 2059.9C993.141 2059.9 991.313 2061.73 991.316 2063.98C991.313 2066.23 993.139 2068.06 995.394 2068.06L997.842 2068.06C998.029 2068.06 998.177 2068.21 998.177 2068.4L998.177 2070.69C998.177 2072.86 999.805 2074.78 1002 2074.91C1004.37 2075.06 1006.33 2073.18 1006.33 2070.84L1006.33 2068.39C1006.33 2068.2 1006.48 2068.06 1006.66 2068.06L1006.67 2068.06L1009.12 2068.06C1011.37 2068.06 1013.2 2066.23 1013.2 2063.98L1013.2 2063.98C1013.2 2061.73 1011.37 2059.9 1009.12 2059.9L1009.12 2059.9L1006.67 2059.9L1006.67 2059.9C1006.48 2059.9 1006.33 2059.75 1006.33 2059.57L1006.33 2059.57L1006.34 2057.12Z" fill="#51509A"/>
<path opacity="0.3" fill-rule="evenodd" clip-rule="evenodd" d="M992.795 2037.49C995.237 2035.05 995.238 2031.08 992.795 2028.64C990.353 2026.2 986.384 2026.19 983.941 2028.64L981.279 2031.3L981.279 2031.3C981.076 2031.5 980.754 2031.5 980.551 2031.3L977.895 2028.64C975.452 2026.19 971.483 2026.19 969.04 2028.64C966.592 2031.08 966.593 2035.05 969.04 2037.49L971.697 2040.15C971.9 2040.35 971.9 2040.68 971.697 2040.88L969.203 2043.37C966.854 2045.72 966.535 2049.57 968.769 2052.1C971.181 2054.83 975.357 2054.93 977.894 2052.39L980.551 2049.73C980.755 2049.52 981.081 2049.53 981.277 2049.72L981.279 2049.73L983.941 2052.39C986.384 2054.84 990.346 2054.84 992.794 2052.39L992.795 2052.39C995.238 2049.95 995.238 2045.98 992.795 2043.54L992.794 2043.53L990.133 2040.88L990.133 2040.88C989.929 2040.67 989.932 2040.35 990.13 2040.15L990.132 2040.15L992.795 2037.49Z" fill="#51509A"/>
<defs>
<linearGradient id="paint0_linear_434_13" x1="843.444" y1="578.469" x2="-203.946" y2="756.328" gradientUnits="userSpaceOnUse">
<stop stop-color="#B8B7E6"/>
<stop offset="1" stop-color="#E4E3F7"/>
</linearGradient>
</defs>
</svg>
