<svg width="440" height="92" viewBox="0 0 440 92" fill="none" xmlns="http://www.w3.org/2000/svg">
<path d="M14.8731 26.5492C14.9931 27.8092 14.9031 28.8592 14.6031 29.6992C14.3331 30.5392 13.9281 31.2442 13.3881 31.8142C12.8781 32.3542 12.3081 32.8342 11.6781 33.2542C11.0781 33.6442 10.4931 34.0342 9.92313 34.4242C9.35313 34.8142 8.88813 35.2792 8.52813 35.8192C8.16813 36.3292 7.98813 36.9742 7.98813 37.7542C7.98813 38.8042 8.30313 39.5692 8.93313 40.0492C9.59313 40.4992 10.4331 40.7242 11.4531 40.7242C12.1431 40.7242 12.8631 40.6342 13.6131 40.4542C14.3631 40.3042 15.1281 40.0942 15.9081 39.8242C16.6881 39.5242 17.4231 39.1942 18.1131 38.8342L18.4281 44.9542C17.5881 45.3442 16.7181 45.6742 15.8181 45.9442C14.9181 46.2142 14.0181 46.4092 13.1181 46.5292C12.2481 46.6792 11.3931 46.7542 10.5531 46.7542C9.26313 46.7542 8.03313 46.5892 6.86313 46.2592C5.69313 45.9292 4.65813 45.4192 3.75813 44.7292C2.88813 44.0692 2.19813 43.2292 1.68812 42.2092C1.17813 41.2192 0.923125 40.0342 0.923125 38.6542C0.923125 37.3942 1.11813 36.3442 1.50813 35.5042C1.92813 34.6642 2.45313 33.9442 3.08313 33.3442C3.71313 32.7442 4.37313 32.2192 5.06313 31.7692C5.78313 31.2892 6.45813 30.8242 7.08813 30.3742C7.71813 29.8942 8.21313 29.3542 8.57313 28.7542C8.96313 28.1542 9.14313 27.4192 9.11313 26.5492H14.8731ZM11.6781 15.7942C13.2381 15.7942 14.3931 16.1242 15.1431 16.7842C15.9231 17.4442 16.3131 18.4642 16.3131 19.8442C16.3131 21.2242 15.9231 22.2592 15.1431 22.9492C14.3931 23.6092 13.2381 23.9392 11.6781 23.9392C10.1181 23.9392 8.93313 23.6092 8.12313 22.9492C7.34313 22.2592 6.95313 21.2242 6.95313 19.8442C6.95313 17.1442 8.52813 15.7942 11.6781 15.7942ZM50.6675 47.2042C48.4175 47.6542 46.4975 47.9392 44.9075 48.0592C43.3475 48.1792 41.9525 48.1792 40.7225 48.0592C39.5225 47.9392 38.3525 47.7592 37.2125 47.5192C36.0725 47.2792 34.8425 47.0392 33.5225 46.7992C32.2025 46.5592 30.6425 46.3792 28.8425 46.2592C27.0425 46.1392 24.8375 46.1392 22.2275 46.2592V40.3642C23.0375 40.4242 24.0425 40.4392 25.2425 40.4092C26.4725 40.4092 27.7775 40.3492 29.1575 40.2292C30.5675 40.1392 31.9625 40.0042 33.3425 39.8242C34.7225 39.6442 35.9825 39.4192 37.1225 39.1492C38.2925 38.8492 39.2075 38.5042 39.8675 38.1142V37.5292C37.4075 38.2492 35.2025 38.5942 33.2525 38.5642C31.3325 38.5342 29.6525 38.1892 28.2125 37.5292C26.8025 36.8692 25.6475 35.9392 24.7475 34.7392C23.8475 33.5392 23.1725 32.1292 22.7225 30.5092C22.2725 28.8892 22.0475 27.1192 22.0475 25.1992C22.0475 23.0092 22.3475 20.9842 22.9475 19.1242C23.5475 17.2342 24.4475 15.5992 25.6475 14.2192C26.8475 12.8392 28.3475 11.7592 30.1475 10.9792C31.9475 10.1992 34.0625 9.80916 36.4925 9.80916C39.4925 9.80916 42.0425 10.4242 44.1425 11.6542C46.2725 12.8842 47.8925 14.6392 49.0025 16.9192C50.1425 19.1992 50.7125 21.9292 50.7125 25.1092C50.7125 27.9892 50.3075 30.4042 49.4975 32.3542C48.6875 34.2742 47.5625 35.8342 46.1225 37.0342C44.7125 38.2342 43.0325 39.1642 41.0825 39.8242C39.1625 40.4542 37.0775 40.9042 34.8275 41.1742V41.8042C36.4775 41.9842 37.9775 42.1342 39.3275 42.2542C40.6775 42.3742 41.9675 42.4342 43.1975 42.4342C44.4275 42.4342 45.6425 42.3592 46.8425 42.2092C48.0425 42.0592 49.3175 41.8042 50.6675 41.4442V47.2042ZM36.5375 35.1442C38.0975 35.1442 39.3875 34.7992 40.4075 34.1092C41.4275 33.3892 42.1775 32.3242 42.6575 30.9142C43.1675 29.5042 43.4225 27.7342 43.4225 25.6042C43.4225 23.4142 43.1525 21.5842 42.6125 20.1142C42.1025 18.6442 41.3075 17.5342 40.2275 16.7842C39.1775 16.0042 37.8575 15.6142 36.2675 15.6142C34.7675 15.6142 33.4925 15.9892 32.4425 16.7392C31.4225 17.4592 30.6575 18.5392 30.1475 19.9792C29.6375 21.4192 29.3825 23.2192 29.3825 25.3792C29.3825 27.5392 29.6375 29.3542 30.1475 30.8242C30.6875 32.2642 31.4975 33.3442 32.5775 34.0642C33.6575 34.7842 34.9775 35.1442 36.5375 35.1442ZM63.6967 40.7692C60.8767 40.7692 58.7467 39.8242 57.3067 37.9342C55.8967 36.0142 55.1917 33.1042 55.1917 29.2042V16.3792H62.4817V28.2592C62.4817 30.4792 62.8117 32.1442 63.4717 33.2542C64.1317 34.3342 65.1367 34.8742 66.4867 34.8742C67.2967 34.8742 67.9867 34.6792 68.5567 34.2892C69.1567 33.8692 69.6517 33.2992 70.0417 32.5792C70.4617 31.8292 70.7617 30.9742 70.9417 30.0142C71.1517 29.0542 71.2567 28.0042 71.2567 26.8642V16.3792H78.5017V30.5092V40.1392H72.7417L72.6067 32.8042H71.7067C71.2567 34.6642 70.6867 36.1942 69.9967 37.3942C69.3367 38.5642 68.4967 39.4192 67.4767 39.9592C66.4567 40.4992 65.1967 40.7692 63.6967 40.7692ZM95.3672 40.7692C93.3872 40.7692 91.6172 40.5142 90.0572 40.0042C88.4972 39.4642 87.1622 38.6842 86.0522 37.6642C84.9722 36.6442 84.1472 35.3842 83.5772 33.8842C83.0072 32.3842 82.7222 30.6592 82.7222 28.7092C82.7222 26.8192 82.9922 25.0792 83.5322 23.4892C84.1022 21.8992 84.8972 20.5342 85.9172 19.3942C86.9672 18.2242 88.2422 17.3242 89.7422 16.6942C91.2722 16.0642 92.9822 15.7492 94.8722 15.7492C96.7922 15.7492 98.4722 16.0642 99.9122 16.6942C101.382 17.2942 102.582 18.1942 103.512 19.3942C104.472 20.5942 105.177 22.0642 105.627 23.8042C106.077 25.5142 106.227 27.4792 106.077 29.6992L87.4922 29.8342V26.0542L101.937 25.9192L99.3722 27.6742C99.5822 26.1742 99.4922 24.9592 99.1022 24.0292C98.7122 23.0692 98.1422 22.3792 97.3922 21.9592C96.6422 21.5092 95.8322 21.2842 94.9622 21.2842C93.9122 21.2842 92.9822 21.5692 92.1722 22.1392C91.3922 22.7092 90.7772 23.5342 90.3272 24.6142C89.8772 25.6942 89.6522 27.0142 89.6522 28.5742C89.6522 31.0342 90.1772 32.8192 91.2272 33.9292C92.3072 35.0392 93.6722 35.5942 95.3222 35.5942C96.1322 35.5942 96.8072 35.4892 97.3472 35.2792C97.8872 35.0392 98.3222 34.7542 98.6522 34.4242C99.0122 34.0642 99.2822 33.6742 99.4622 33.2542C99.6722 32.8342 99.8372 32.4292 99.9572 32.0392L106.257 33.3892C106.017 34.4992 105.627 35.5042 105.087 36.4042C104.577 37.3042 103.872 38.0842 102.972 38.7442C102.102 39.4042 101.037 39.8992 99.7772 40.2292C98.5472 40.5892 97.0772 40.7692 95.3672 40.7692ZM96.9422 13.2742H91.4972L94.9172 5.44416H101.982L96.9422 13.2742Z" fill="#39377F"/>
<path d="M120.031 46.4573V30.4938V20.3997H124.966L125.04 26.0075L125.713 26.0823C125.938 24.6866 126.336 23.5276 126.91 22.6055C127.483 21.6833 128.218 20.9979 129.115 20.5493C130.038 20.1006 131.084 19.8763 132.256 19.8763C134 19.8763 135.496 20.3 136.742 21.1474C138.013 21.9948 138.985 23.2036 139.658 24.7738C140.331 26.344 140.667 28.2257 140.667 30.419C140.667 32.363 140.368 34.1077 139.77 35.6529C139.197 37.1982 138.312 38.4194 137.116 39.3167C135.944 40.2139 134.449 40.6626 132.63 40.6626C131.408 40.6626 130.374 40.4507 129.527 40.027C128.679 39.5784 127.956 38.9304 127.358 38.083C126.785 37.2356 126.299 36.1763 125.9 34.9052H125.19C125.339 35.5782 125.477 36.2635 125.601 36.9614C125.726 37.6593 125.826 38.3322 125.9 38.9802C126 39.6282 126.05 40.2513 126.05 40.8495V46.4573H120.031ZM130.424 35.9146C131.246 35.9146 131.944 35.6903 132.517 35.2417C133.116 34.7931 133.577 34.1575 133.901 33.335C134.225 32.5126 134.387 31.553 134.387 30.4564C134.387 29.285 134.212 28.288 133.863 27.4655C133.539 26.6181 133.066 25.9701 132.443 25.5215C131.82 25.048 131.097 24.8112 130.274 24.8112C129.502 24.8112 128.841 24.9856 128.293 25.3346C127.77 25.6586 127.333 26.0947 126.984 26.6431C126.66 27.1665 126.424 27.7272 126.274 28.3254C126.125 28.9236 126.05 29.4843 126.05 30.0077V30.8302C126.05 31.3038 126.112 31.7773 126.237 32.2509C126.361 32.7244 126.548 33.1855 126.798 33.6341C127.047 34.0578 127.346 34.4441 127.695 34.7931C128.044 35.142 128.442 35.4161 128.891 35.6155C129.365 35.8149 129.876 35.9146 130.424 35.9146ZM151.04 40.6626C148.697 40.6626 146.927 39.8775 145.731 38.3073C144.559 36.7122 143.974 34.2946 143.974 31.0545V20.3997H150.03V30.2694C150.03 32.1138 150.304 33.497 150.853 34.4192C151.401 35.3165 152.236 35.7651 153.357 35.7651C154.03 35.7651 154.604 35.6031 155.077 35.2791C155.576 34.9301 155.987 34.4566 156.311 33.8584C156.66 33.2353 156.909 32.525 157.059 31.7275C157.233 30.9299 157.32 30.0576 157.32 29.1105V20.3997H163.339V32.1387V40.1392H158.554L158.442 34.0454H157.694C157.32 35.5906 156.847 36.8617 156.273 37.8587C155.725 38.8307 155.027 39.541 154.18 39.9896C153.333 40.4382 152.286 40.6626 151.04 40.6626ZM177.351 40.6626C175.706 40.6626 174.235 40.4507 172.939 40.027C171.643 39.5784 170.534 38.9304 169.612 38.083C168.715 37.2356 168.03 36.1888 167.556 34.9426C167.082 33.6964 166.846 32.2633 166.846 30.6433C166.846 29.0731 167.07 27.6275 167.519 26.3066C167.992 24.9856 168.653 23.8516 169.5 22.9045C170.372 21.9325 171.432 21.1848 172.678 20.6614C173.949 20.138 175.37 19.8763 176.94 19.8763C178.535 19.8763 179.931 20.138 181.127 20.6614C182.348 21.1599 183.345 21.9076 184.118 22.9045C184.915 23.9015 185.501 25.1227 185.875 26.5683C186.249 27.9889 186.373 29.6214 186.249 31.4658L170.808 31.5779V28.4376L182.809 28.3254L180.678 29.7834C180.853 28.5373 180.778 27.5278 180.454 26.7552C180.13 25.9577 179.656 25.3844 179.033 25.0355C178.41 24.6616 177.737 24.4747 177.014 24.4747C176.142 24.4747 175.37 24.7115 174.697 25.185C174.049 25.6586 173.538 26.344 173.164 27.2412C172.79 28.1385 172.603 29.2351 172.603 30.5311C172.603 32.5749 173.039 34.0578 173.911 34.98C174.809 35.9022 175.943 36.3632 177.314 36.3632C177.986 36.3632 178.547 36.276 178.996 36.1015C179.445 35.9022 179.806 35.6654 180.08 35.3912C180.379 35.0921 180.603 34.7681 180.753 34.4192C180.927 34.0703 181.065 33.7338 181.164 33.4098L186.398 34.5314C186.199 35.4535 185.875 36.2885 185.426 37.0362C185.002 37.7839 184.417 38.4319 183.669 38.9802C182.946 39.5285 182.061 39.9398 181.015 40.2139C179.993 40.513 178.772 40.6626 177.351 40.6626ZM197.417 40.6626C195.772 40.6626 194.326 40.2513 193.08 39.4288C191.859 38.5814 190.899 37.3851 190.201 35.8398C189.503 34.2697 189.154 32.4004 189.154 30.2321C189.154 28.2382 189.454 26.4686 190.052 24.9233C190.65 23.3781 191.535 22.1693 192.706 21.297C193.902 20.3997 195.373 19.9511 197.118 19.9511C198.364 19.9511 199.41 20.1754 200.258 20.624C201.13 21.0727 201.853 21.7456 202.426 22.6428C202.999 23.5401 203.461 24.6741 203.81 26.0449H204.744C204.57 25.1975 204.408 24.3999 204.258 23.6522C204.109 22.8796 203.984 22.1693 203.884 21.5213C203.81 20.8483 203.772 20.2626 203.772 19.7642V13.2217H209.829V30.4938V40.1392H204.894L204.819 34.3071H203.996C203.722 35.8025 203.286 37.0237 202.688 37.9708C202.115 38.893 201.379 39.5784 200.482 40.027C199.61 40.4507 198.588 40.6626 197.417 40.6626ZM199.585 35.8025C200.358 35.8025 201.006 35.6405 201.529 35.3165C202.077 34.9675 202.513 34.5314 202.837 34.008C203.161 33.4846 203.398 32.9238 203.548 32.3256C203.697 31.7275 203.772 31.1667 203.772 30.6433V29.8582C203.772 29.3847 203.71 28.9111 203.585 28.4376C203.461 27.964 203.274 27.5029 203.024 27.0543C202.8 26.6057 202.513 26.2069 202.165 25.858C201.816 25.509 201.404 25.2349 200.931 25.0355C200.482 24.8361 199.984 24.7364 199.435 24.7364C198.613 24.7364 197.903 24.9607 197.304 25.4093C196.731 25.858 196.283 26.4935 195.959 27.316C195.66 28.1385 195.51 29.1105 195.51 30.2321C195.51 31.3536 195.672 32.3381 195.996 33.1855C196.32 34.008 196.794 34.656 197.417 35.1295C198.04 35.5782 198.762 35.8025 199.585 35.8025ZM223.863 40.6626C222.219 40.6626 220.748 40.4507 219.452 40.027C218.156 39.5784 217.047 38.9304 216.125 38.083C215.227 37.2356 214.542 36.1888 214.069 34.9426C213.595 33.6964 213.358 32.2633 213.358 30.6433C213.358 29.0731 213.583 27.6275 214.031 26.3066C214.505 24.9856 215.165 23.8516 216.013 22.9045C216.885 21.9325 217.944 21.1848 219.19 20.6614C220.461 20.138 221.882 19.8763 223.452 19.8763C225.047 19.8763 226.443 20.138 227.639 20.6614C228.861 21.1599 229.858 21.9076 230.63 22.9045C231.428 23.9015 232.013 25.1227 232.387 26.5683C232.761 27.9889 232.886 29.6214 232.761 31.4658L217.321 31.5779V28.4376L229.322 28.3254L227.191 29.7834C227.365 28.5373 227.29 27.5278 226.966 26.7552C226.642 25.9577 226.169 25.3844 225.546 25.0355C224.923 24.6616 224.25 24.4747 223.527 24.4747C222.655 24.4747 221.882 24.7115 221.209 25.185C220.561 25.6586 220.05 26.344 219.676 27.2412C219.302 28.1385 219.116 29.2351 219.116 30.5311C219.116 32.5749 219.552 34.0578 220.424 34.98C221.321 35.9022 222.455 36.3632 223.826 36.3632C224.499 36.3632 225.06 36.276 225.508 36.1015C225.957 35.9022 226.318 35.6654 226.593 35.3912C226.892 35.0921 227.116 34.7681 227.266 34.4192C227.44 34.0703 227.577 33.7338 227.677 33.4098L232.911 34.5314C232.711 35.4535 232.387 36.2885 231.939 37.0362C231.515 37.7839 230.929 38.4319 230.182 38.9802C229.459 39.5285 228.574 39.9398 227.527 40.2139C226.505 40.513 225.284 40.6626 223.863 40.6626ZM244.746 40.1392V27.5777V13.2217H250.765V19.3903C250.765 19.8888 250.74 20.4122 250.69 20.9605C250.665 21.4839 250.603 22.0322 250.503 22.6055C250.428 23.1538 250.341 23.7145 250.241 24.2878C250.167 24.861 250.067 25.4218 249.942 25.9701H250.84C251.189 24.7489 251.625 23.6896 252.148 22.7924C252.672 21.8702 253.357 21.1599 254.204 20.6614C255.052 20.138 256.136 19.8763 257.457 19.8763C259.8 19.8763 261.544 20.6988 262.691 22.3438C263.862 23.9638 264.448 26.4686 264.448 29.8582V40.1392H258.391V30.8676C258.391 28.8488 258.092 27.3409 257.494 26.344C256.921 25.3221 256.036 24.8112 254.84 24.8112C253.918 24.8112 253.158 25.0978 252.559 25.671C251.961 26.2443 251.513 27.0169 251.213 27.9889C250.914 28.936 250.765 29.9953 250.765 31.1667V40.1392H244.746ZM273.405 40.6626C272.308 40.6626 271.336 40.4507 270.489 40.027C269.641 39.5784 268.981 38.9428 268.507 38.1204C268.034 37.273 267.797 36.2511 267.797 35.0548C267.797 33.9332 268.009 33.011 268.432 32.2882C268.881 31.5405 269.517 30.9548 270.339 30.5311C271.186 30.0825 272.196 29.7211 273.367 29.447C274.539 29.1479 275.872 28.8862 277.367 28.6619C278.09 28.5373 278.688 28.4251 279.162 28.3254C279.66 28.2008 280.034 28.0139 280.283 27.7646C280.533 27.5154 280.657 27.154 280.657 26.6804C280.657 26.0574 280.433 25.5215 279.984 25.0729C279.536 24.6243 278.813 24.3999 277.816 24.3999C277.118 24.3999 276.483 24.5246 275.909 24.7738C275.361 25.023 274.888 25.3844 274.489 25.858C274.09 26.3315 273.791 26.9048 273.592 27.5777L268.283 26.0075C268.607 24.9607 269.055 24.051 269.629 23.2784C270.227 22.5058 270.937 21.8702 271.76 21.3717C272.582 20.8483 273.517 20.4745 274.564 20.2502C275.635 20.0009 276.769 19.8763 277.966 19.8763C279.959 19.8763 281.58 20.2003 282.826 20.8483C284.097 21.4714 285.031 22.4559 285.63 23.8018C286.253 25.1227 286.564 26.83 286.564 28.9236V31.9518C286.564 32.849 286.577 33.7587 286.602 34.6809C286.651 35.5782 286.701 36.4879 286.751 37.41C286.826 38.3073 286.913 39.217 287.013 40.1392H281.704C281.604 39.5659 281.505 38.8805 281.405 38.083C281.305 37.2605 281.231 36.4256 281.181 35.5782H280.47C280.121 36.5252 279.611 37.3976 278.938 38.1951C278.29 38.9678 277.492 39.5784 276.545 40.027C275.623 40.4507 274.576 40.6626 273.405 40.6626ZM276.134 36.4006C276.582 36.4006 277.031 36.3259 277.48 36.1763C277.953 36.0019 278.402 35.7775 278.825 35.5034C279.249 35.2043 279.635 34.8429 279.984 34.4192C280.333 33.9955 280.595 33.5344 280.77 33.036L280.695 30.0825L281.517 30.2694C281.044 30.5685 280.52 30.8053 279.947 30.9798C279.374 31.1542 278.788 31.2913 278.19 31.391C277.617 31.4907 277.043 31.6028 276.47 31.7275C275.922 31.8272 275.423 31.9642 274.975 32.1387C274.551 32.3132 274.215 32.5499 273.965 32.849C273.716 33.1481 273.592 33.5593 273.592 34.0827C273.592 34.7806 273.828 35.3414 274.302 35.7651C274.775 36.1888 275.386 36.4006 276.134 36.4006ZM300.312 40.6626C298.617 40.6626 297.122 40.4258 295.826 39.9522C294.53 39.4787 293.445 38.8058 292.573 37.9334C291.701 37.0362 291.028 35.9645 290.554 34.7183C290.106 33.4721 289.881 32.0764 289.881 30.5311C289.881 28.936 290.106 27.4905 290.554 26.1944C291.028 24.8984 291.701 23.7769 292.573 22.8298C293.445 21.8827 294.517 21.1599 295.788 20.6614C297.059 20.138 298.517 19.8763 300.162 19.8763C301.807 19.8763 303.228 20.138 304.424 20.6614C305.621 21.1848 306.593 21.9201 307.34 22.8671C308.113 23.8142 308.636 24.9109 308.91 26.1571L303.34 28.0263C303.265 27.2038 303.066 26.5309 302.742 26.0075C302.418 25.4841 301.994 25.1103 301.471 24.886C300.972 24.6367 300.424 24.5121 299.826 24.5121C299.203 24.5121 298.654 24.6367 298.181 24.886C297.707 25.1352 297.309 25.509 296.985 26.0075C296.66 26.506 296.411 27.1166 296.237 27.8394C296.062 28.5373 295.975 29.3473 295.975 30.2694C295.975 31.5904 296.137 32.6995 296.461 33.5967C296.81 34.4691 297.309 35.1295 297.957 35.5782C298.629 36.0268 299.439 36.2511 300.387 36.2511C301.359 36.2511 302.119 36.0517 302.667 35.6529C303.215 35.2541 303.614 34.7681 303.863 34.1949C304.113 33.5967 304.262 33.011 304.312 32.4378L309.546 33.5967C309.446 34.5189 309.197 35.4161 308.798 36.2885C308.424 37.1359 307.864 37.896 307.116 38.569C306.368 39.217 305.434 39.7279 304.312 40.1018C303.215 40.4756 301.882 40.6626 300.312 40.6626ZM321.744 40.6626C320.099 40.6626 318.629 40.4507 317.333 40.027C316.037 39.5784 314.928 38.9304 314.006 38.083C313.108 37.2356 312.423 36.1888 311.949 34.9426C311.476 33.6964 311.239 32.2633 311.239 30.6433C311.239 29.0731 311.463 27.6275 311.912 26.3066C312.386 24.9856 313.046 23.8516 313.893 22.9045C314.766 21.9325 315.825 21.1848 317.071 20.6614C318.342 20.138 319.763 19.8763 321.333 19.8763C322.928 19.8763 324.324 20.138 325.52 20.6614C326.742 21.1599 327.738 21.9076 328.511 22.9045C329.309 23.9015 329.894 25.1227 330.268 26.5683C330.642 27.9889 330.767 29.6214 330.642 31.4658L315.202 31.5779V28.4376L327.203 28.3254L325.072 29.7834C325.246 28.5373 325.171 27.5278 324.847 26.7552C324.523 25.9577 324.05 25.3844 323.427 25.0355C322.804 24.6616 322.131 24.4747 321.408 24.4747C320.536 24.4747 319.763 24.7115 319.09 25.185C318.442 25.6586 317.931 26.344 317.557 27.2412C317.183 28.1385 316.996 29.2351 316.996 30.5311C316.996 32.5749 317.433 34.0578 318.305 34.98C319.202 35.9022 320.336 36.3632 321.707 36.3632C322.38 36.3632 322.941 36.276 323.389 36.1015C323.838 35.9022 324.199 35.6654 324.474 35.3912C324.773 35.0921 324.997 34.7681 325.146 34.4192C325.321 34.0703 325.458 33.7338 325.558 33.4098L330.792 34.5314C330.592 35.4535 330.268 36.2885 329.82 37.0362C329.396 37.7839 328.81 38.4319 328.063 38.9802C327.34 39.5285 326.455 39.9398 325.408 40.2139C324.386 40.513 323.165 40.6626 321.744 40.6626ZM334.303 40.1392V30.9798V20.3997H339.237L339.35 27.0917H340.097C340.272 25.347 340.596 23.9638 341.069 22.9419C341.568 21.8951 342.266 21.135 343.163 20.6614C344.085 20.1879 345.219 19.9511 346.565 19.9511C346.764 19.9511 346.989 19.9636 347.238 19.9885C347.487 19.9885 347.774 20.0134 348.098 20.0633L347.873 26.4935C347.475 26.2941 347.039 26.1695 346.565 26.1197C346.116 26.0449 345.718 26.0075 345.369 26.0075C344.397 26.0075 343.549 26.1944 342.826 26.5683C342.129 26.9421 341.568 27.5154 341.144 28.288C340.745 29.0606 340.484 30.0327 340.359 31.2041V40.1392H334.303ZM37.5499 82.6626C35.9548 82.6626 34.5092 82.513 33.2132 82.2139C31.9172 81.9148 30.7956 81.4662 29.8485 80.8681C28.9014 80.245 28.1537 79.4599 27.6054 78.5128C27.0571 77.5657 26.7331 76.4691 26.6334 75.2229L31.9047 73.4658C31.9795 74.5126 32.2785 75.3849 32.8019 76.0827C33.3253 76.7806 34.0232 77.304 34.8955 77.6529C35.7928 77.9769 36.7897 78.1389 37.8863 78.1389C38.9331 78.1389 39.8055 78.0143 40.5033 77.7651C41.2261 77.4909 41.762 77.1545 42.1109 76.7557C42.4847 76.332 42.6717 75.8834 42.6717 75.4098C42.6717 74.8615 42.4349 74.4129 41.9613 74.0639C41.4878 73.6901 40.8398 73.3785 40.0173 73.1293C39.1948 72.8551 38.2353 72.5934 37.1386 72.3442C35.8925 72.0451 34.6712 71.7211 33.4749 71.3722C32.2785 71.0233 31.1944 70.5746 30.2224 70.0263C29.2503 69.4531 28.4777 68.7303 27.9045 67.858C27.3562 66.9607 27.082 65.8392 27.082 64.4933C27.082 62.973 27.4683 61.652 28.2409 60.5305C29.0136 59.4089 30.1476 58.5366 31.643 57.9135C33.1384 57.2655 34.9828 56.9415 37.176 56.9415C39.3444 56.9415 41.1887 57.253 42.7091 57.8761C44.2294 58.4992 45.4008 59.3715 46.2233 60.4931C47.0457 61.5897 47.4944 62.8733 47.5691 64.3438L42.1857 65.8766C42.1857 65.1538 42.061 64.5182 41.8118 63.9699C41.5875 63.4216 41.2635 62.973 40.8398 62.624C40.4161 62.2502 39.8927 61.976 39.2696 61.8016C38.6465 61.6022 37.9362 61.5025 37.1386 61.5025C36.1915 61.5025 35.3815 61.6146 34.7086 61.8389C34.0606 62.0632 33.5746 62.3623 33.2506 62.7362C32.9266 63.0851 32.7646 63.4964 32.7646 63.9699C32.7646 64.5681 33.0138 65.0665 33.5123 65.4653C34.0357 65.8392 34.7335 66.1632 35.6058 66.4373C36.5031 66.6866 37.4876 66.9358 38.5593 67.185C39.631 67.4093 40.7401 67.696 41.8866 68.0449C43.0331 68.3689 44.1048 68.8051 45.1017 69.3534C46.0987 69.9017 46.8962 70.6494 47.4944 71.5965C48.1175 72.5187 48.429 73.6901 48.429 75.1107C48.429 76.6311 48.0178 77.9645 47.1953 79.111C46.3977 80.2325 45.1889 81.1048 43.5689 81.7279C41.9489 82.351 39.9425 82.6626 37.5499 82.6626ZM61.185 82.6626C59.1911 82.6626 57.4215 82.2762 55.8763 81.5036C54.3559 80.731 53.1596 79.572 52.2873 78.0268C51.415 76.4815 50.9788 74.5499 50.9788 72.2321C50.9788 69.9142 51.415 67.9951 52.2873 66.4747C53.1596 64.9295 54.3684 63.783 55.9137 63.0353C57.4589 62.2626 59.2285 61.8763 61.2224 61.8763C63.2163 61.8763 64.9858 62.2626 66.5311 63.0353C68.0763 63.8079 69.2851 64.9668 70.1575 66.5121C71.0298 68.0324 71.4659 69.9515 71.4659 72.2694C71.4659 74.6372 71.0173 76.5937 70.1201 78.1389C69.2228 79.6842 67.9891 80.8307 66.4189 81.5784C64.8737 82.3012 63.129 82.6626 61.185 82.6626ZM61.3719 78.2885C62.2692 78.2885 63.0169 78.0891 63.615 77.6903C64.2132 77.2666 64.6618 76.6311 64.9609 75.7837C65.26 74.9363 65.4095 73.8895 65.4095 72.6433C65.4095 71.3223 65.2475 70.2132 64.9235 69.316C64.5995 68.3938 64.1135 67.696 63.4655 67.2224C62.8424 66.724 62.0324 66.4747 61.0354 66.4747C60.188 66.4747 59.4528 66.6866 58.8297 67.1103C58.2315 67.509 57.7829 68.1321 57.4838 68.9795C57.1848 69.8269 57.0352 70.8862 57.0352 72.1573C57.0352 74.201 57.4091 75.7338 58.1568 76.7557C58.9294 77.7775 60.0011 78.2885 61.3719 78.2885ZM76.487 82.1392V69.9142H73.4588V65.5401L78.8422 65.7644V65.0541C77.8951 64.8796 77.1101 64.5681 76.487 64.1194C75.8888 63.6459 75.4526 63.0976 75.1785 62.4745C74.9043 61.8514 74.7672 61.1785 74.7672 60.4557C74.7672 59.359 75.0539 58.4244 75.6271 57.6518C76.2003 56.8542 77.0104 56.2436 78.0572 55.8199C79.1039 55.3962 80.3252 55.1844 81.7209 55.1844C82.9422 55.1844 84.0513 55.3339 85.0482 55.633C86.0451 55.9071 86.8427 56.2561 87.4409 56.6798L87.1044 62.1006C86.4813 61.6769 85.771 61.328 84.9734 61.0538C84.2008 60.7797 83.478 60.6426 82.8051 60.6426C82.1072 60.6426 81.5215 60.8295 81.048 61.2034C80.5744 61.5523 80.3377 62.138 80.3377 62.9605C80.3377 63.6085 80.4747 64.0945 80.7489 64.4185C81.048 64.7425 81.4094 64.9668 81.8331 65.0915C82.2568 65.1912 82.6805 65.241 83.1042 65.241H87.4409V69.9142H82.3565V82.1392H76.487ZM91.2933 82.6252C89.9973 82.6252 89.0253 82.351 88.3772 81.8027C87.7542 81.2544 87.4426 80.407 87.4426 79.2605C87.4426 78.0891 87.7542 77.2292 88.3772 76.6809C89.0253 76.1326 89.9973 75.8584 91.2933 75.8584C92.6143 75.8584 93.5987 76.1326 94.2467 76.6809C94.8948 77.2292 95.2188 78.0891 95.2188 79.2605C95.2188 81.5036 93.9103 82.6252 91.2933 82.6252ZM98.6191 82.1392V57.4649H104.75V82.1392H98.6191ZM107.881 82.1392L116.255 57.4649H125.078L133.452 82.1392H126.872L120.966 62.1754H120.367L114.461 82.1392H107.881ZM112.853 77.5034V73.4658H129.377V77.5034H112.853ZM144.614 88.4573V72.4938V62.3997H149.549L149.624 68.0075L150.297 68.0823C150.521 66.6866 150.92 65.5276 151.493 64.6055C152.067 63.6833 152.802 62.9979 153.699 62.5493C154.621 62.1006 155.668 61.8763 156.839 61.8763C158.584 61.8763 160.079 62.3 161.326 63.1474C162.597 63.9948 163.569 65.2036 164.242 66.7738C164.915 68.344 165.251 70.2257 165.251 72.419C165.251 74.363 164.952 76.1077 164.354 77.6529C163.781 79.1982 162.896 80.4194 161.699 81.3167C160.528 82.2139 159.033 82.6626 157.213 82.6626C155.992 82.6626 154.958 82.4507 154.11 82.027C153.263 81.5784 152.54 80.9304 151.942 80.083C151.369 79.2356 150.883 78.1763 150.484 76.9052H149.774C149.923 77.5782 150.06 78.2635 150.185 78.9614C150.309 79.6593 150.409 80.3322 150.484 80.9802C150.584 81.6282 150.633 82.2513 150.633 82.8495V88.4573H144.614ZM155.007 77.9146C155.83 77.9146 156.528 77.6903 157.101 77.2417C157.699 76.7931 158.16 76.1575 158.484 75.335C158.808 74.5126 158.97 73.553 158.97 72.4564C158.97 71.285 158.796 70.288 158.447 69.4655C158.123 68.6181 157.649 67.9701 157.026 67.5215C156.403 67.048 155.68 66.8112 154.858 66.8112C154.085 66.8112 153.425 66.9856 152.877 67.3346C152.353 67.6586 151.917 68.0947 151.568 68.6431C151.244 69.1665 151.007 69.7272 150.858 70.3254C150.708 70.9236 150.633 71.4843 150.633 72.0077V72.8302C150.633 73.3038 150.696 73.7773 150.82 74.2509C150.945 74.7244 151.132 75.1855 151.381 75.6341C151.63 76.0578 151.929 76.4441 152.278 76.7931C152.627 77.142 153.026 77.4161 153.475 77.6155C153.948 77.8149 154.459 77.9146 155.007 77.9146ZM178.087 82.6626C176.093 82.6626 174.324 82.2762 172.778 81.5036C171.258 80.731 170.062 79.572 169.189 78.0268C168.317 76.4815 167.881 74.5499 167.881 72.2321C167.881 69.9142 168.317 67.9951 169.189 66.4747C170.062 64.9295 171.271 63.783 172.816 63.0353C174.361 62.2626 176.131 61.8763 178.124 61.8763C180.118 61.8763 181.888 62.2626 183.433 63.0353C184.978 63.8079 186.187 64.9668 187.06 66.5121C187.932 68.0324 188.368 69.9515 188.368 72.2694C188.368 74.6372 187.919 76.5937 187.022 78.1389C186.125 79.6842 184.891 80.8307 183.321 81.5784C181.776 82.3012 180.031 82.6626 178.087 82.6626ZM178.274 78.2885C179.171 78.2885 179.919 78.0891 180.517 77.6903C181.115 77.2666 181.564 76.6311 181.863 75.7837C182.162 74.9363 182.312 73.8895 182.312 72.6433C182.312 71.3223 182.15 70.2132 181.826 69.316C181.502 68.3938 181.016 67.696 180.368 67.2224C179.745 66.724 178.934 66.4747 177.938 66.4747C177.09 66.4747 176.355 66.6866 175.732 67.1103C175.134 67.509 174.685 68.1321 174.386 68.9795C174.087 69.8269 173.937 70.8862 173.937 72.1573C173.937 74.201 174.311 75.7338 175.059 76.7557C175.832 77.7775 176.903 78.2885 178.274 78.2885ZM191.894 82.1392V72.9798V62.3997H196.829L196.941 69.0917H197.688C197.863 67.347 198.187 65.9638 198.66 64.9419C199.159 63.8951 199.857 63.135 200.754 62.6614C201.676 62.1879 202.81 61.9511 204.156 61.9511C204.355 61.9511 204.58 61.9636 204.829 61.9885C205.078 61.9885 205.365 62.0134 205.689 62.0633L205.465 68.4935C205.066 68.2941 204.63 68.1695 204.156 68.1197C203.707 68.0449 203.309 68.0075 202.96 68.0075C201.988 68.0075 201.14 68.1944 200.418 68.5683C199.72 68.9421 199.159 69.5154 198.735 70.288C198.336 71.0606 198.075 72.0327 197.95 73.2041V82.1392H191.894ZM224.604 82.6252C222.286 82.6252 220.579 82.0145 219.482 80.7933C218.385 79.5471 217.837 77.5657 217.837 74.849V67.1103H215.033L215.145 62.4371H217.164C217.962 62.4122 218.56 62.2876 218.959 62.0633C219.382 61.8389 219.644 61.4152 219.744 60.7921L220.23 58.0256H223.632V62.3997H228.38V67.2972H223.632V74.5873C223.632 75.4347 223.831 76.0578 224.23 76.4566C224.654 76.8554 225.289 77.0548 226.137 77.0548C226.61 77.0548 227.059 77.0049 227.482 76.9052C227.906 76.8055 228.255 76.6684 228.529 76.494V82.0644C227.732 82.3136 226.996 82.4632 226.323 82.513C225.675 82.5878 225.102 82.6252 224.604 82.6252ZM232.09 82.1392V62.3997H238.109V82.1392H232.09ZM237.025 59.8201H232.501L235.343 53.3151H241.212L237.025 59.8201ZM244.208 73.6901C244.108 72.6184 244.171 71.746 244.395 71.0731C244.644 70.3753 244.981 69.802 245.404 69.3534C245.828 68.8798 246.289 68.4811 246.788 68.1571C247.311 67.8081 247.809 67.4717 248.283 67.1477C248.757 66.8236 249.143 66.4498 249.442 66.0261C249.741 65.5775 249.891 65.0292 249.891 64.3811C249.891 63.5088 249.629 62.8857 249.105 62.5119C248.607 62.1131 247.922 61.9137 247.049 61.9137C246.501 61.9137 245.903 61.9885 245.255 62.138C244.632 62.2626 243.996 62.4496 243.348 62.6988C242.725 62.9231 242.114 63.1848 241.516 63.4839L241.255 58.3995C241.977 58.0506 242.7 57.7764 243.423 57.577C244.171 57.3527 244.918 57.1907 245.666 57.091C246.414 56.9664 247.124 56.9041 247.797 56.9041C248.894 56.9041 249.915 57.0412 250.863 57.3153C251.81 57.5895 252.645 58.0132 253.367 58.5864C254.115 59.1347 254.701 59.8326 255.124 60.68C255.548 61.5025 255.76 62.4869 255.76 63.6334C255.76 64.6802 255.586 65.5525 255.237 66.2504C254.913 66.9483 254.489 67.5464 253.966 68.0449C253.442 68.5434 252.894 68.992 252.321 69.3908C251.747 69.7646 251.199 70.1509 250.676 70.5497C250.152 70.9236 249.729 71.3597 249.405 71.8582C249.105 72.3567 248.968 72.9673 248.993 73.6901H244.208ZM246.862 82.6252C245.566 82.6252 244.594 82.351 243.946 81.8027C243.323 81.2544 243.012 80.407 243.012 79.2605C243.012 78.0891 243.323 77.2292 243.946 76.6809C244.594 76.1326 245.566 75.8584 246.862 75.8584C248.183 75.8584 249.168 76.1326 249.816 76.6809C250.464 77.2292 250.788 78.0891 250.788 79.2605C250.788 81.5036 249.479 82.6252 246.862 82.6252Z" fill="#606096"/>
<path d="M6.65422 13.7837L6.64942 13.789L6.6447 13.7944C5.53883 15.0635 5.70732 16.9369 6.84727 18.0707L7.47457 18.6946L6.78727 19.3782C5.58398 20.575 5.58398 22.5429 6.78727 23.7398C7.98795 24.934 9.95836 24.934 11.159 23.7398L11.8562 23.0464L12.5702 23.743C13.7712 24.934 15.7392 24.9329 16.9388 23.7398C18.1421 22.5429 18.1421 20.575 16.9388 19.3782L16.9388 19.3782L16.9327 19.3723L16.2381 18.6946L16.9327 18.017L16.9328 18.017L16.9388 18.011C18.1421 16.8142 18.1421 14.8463 16.9388 13.6495C15.7381 12.4552 13.7677 12.4552 12.567 13.6495L12.567 13.6495L11.8562 14.3564L11.165 13.6555L11.1651 13.6554L11.159 13.6495C9.90258 12.3998 7.84607 12.4604 6.65422 13.7837ZM11.8558 15.0144L12.143 15.3031L11.8558 15.0144Z" fill="#39377F" stroke="#C9C8EC" stroke-width="1.74692"/>
<path d="M241.519 76.0725L241.514 76.0778L241.509 76.0832C240.404 77.3524 240.572 79.2257 241.712 80.3595L242.339 80.9834L241.652 81.667C240.449 82.8639 240.449 84.8318 241.652 86.0286C242.853 87.2228 244.823 87.2228 246.024 86.0286L246.721 85.3352L247.435 86.0318C248.636 87.2228 250.604 87.2217 251.804 86.0286C253.007 84.8318 253.007 82.8639 251.804 81.667L251.804 81.667L251.797 81.6611L251.103 80.9834L251.797 80.3058L251.798 80.3058L251.804 80.2998C253.007 79.103 253.007 77.1351 251.804 75.9383C250.603 74.7441 248.632 74.7441 247.432 75.9383L247.432 75.9383L246.721 76.6452L246.03 75.9443L246.03 75.9443L246.024 75.9383C244.767 74.6886 242.711 74.7492 241.519 76.0725ZM246.721 77.3032L247.008 77.5919L246.721 77.3032Z" fill="#606096" stroke="#C9C8EC" stroke-width="1.74692"/>
</svg>
