<svg width="217" height="118" viewBox="0 0 217 118" fill="none" xmlns="http://www.w3.org/2000/svg">
<path d="M13.04 18.92C13.1467 20.04 13.0667 20.9733 12.8 21.72C12.56 22.4667 12.2 23.0933 11.72 23.6C11.2667 24.08 10.76 24.5067 10.2 24.88C9.66667 25.2267 9.14667 25.5733 8.64 25.92C8.13333 26.2667 7.72 26.68 7.4 27.16C7.08 27.6133 6.92 28.1867 6.92 28.88C6.92 29.8133 7.2 30.4933 7.76 30.92C8.34667 31.32 9.09333 31.52 10 31.52C10.6133 31.52 11.2533 31.44 11.92 31.28C12.5867 31.1467 13.2667 30.96 13.96 30.72C14.6533 30.4533 15.3067 30.16 15.92 29.84L16.2 35.28C15.4533 35.6267 14.68 35.92 13.88 36.16C13.08 36.4 12.28 36.5733 11.48 36.68C10.7067 36.8133 9.94667 36.88 9.2 36.88C8.05333 36.88 6.96 36.7333 5.92 36.44C4.88 36.1467 3.96 35.6933 3.16 35.08C2.38667 34.4933 1.77333 33.7467 1.32 32.84C0.866667 31.96 0.64 30.9067 0.64 29.68C0.64 28.56 0.813333 27.6267 1.16 26.88C1.53333 26.1333 2 25.4933 2.56 24.96C3.12 24.4267 3.70667 23.96 4.32 23.56C4.96 23.1333 5.56 22.72 6.12 22.32C6.68 21.8933 7.12 21.4133 7.44 20.88C7.78667 20.3467 7.94667 19.6933 7.92 18.92H13.04ZM10.2 9.36C11.5867 9.36 12.6133 9.65333 13.28 10.24C13.9733 10.8267 14.32 11.7333 14.32 12.96C14.32 14.1867 13.9733 15.1067 13.28 15.72C12.6133 16.3067 11.5867 16.6 10.2 16.6C8.81333 16.6 7.76 16.3067 7.04 15.72C6.34667 15.1067 6 14.1867 6 12.96C6 10.56 7.4 9.36 10.2 9.36ZM44.8572 37.28C42.8572 37.68 41.1505 37.9333 39.7372 38.04C38.3505 38.1467 37.1105 38.1467 36.0172 38.04C34.9505 37.9333 33.9105 37.7733 32.8972 37.56C31.8839 37.3467 30.7905 37.1333 29.6172 36.92C28.4439 36.7067 27.0572 36.5467 25.4572 36.44C23.8572 36.3333 21.8972 36.3333 19.5772 36.44V31.2C20.2972 31.2533 21.1905 31.2667 22.2572 31.24C23.3505 31.24 24.5105 31.1867 25.7372 31.08C26.9905 31 28.2305 30.88 29.4572 30.72C30.6839 30.56 31.8039 30.36 32.8172 30.12C33.8572 29.8533 34.6705 29.5467 35.2572 29.2V28.68C33.0705 29.32 31.1105 29.6267 29.3772 29.6C27.6705 29.5733 26.1772 29.2667 24.8972 28.68C23.6439 28.0933 22.6172 27.2667 21.8172 26.2C21.0172 25.1333 20.4172 23.88 20.0172 22.44C19.6172 21 19.4172 19.4267 19.4172 17.72C19.4172 15.7733 19.6839 13.9733 20.2172 12.32C20.7505 10.64 21.5505 9.18667 22.6172 7.96C23.6839 6.73333 25.0172 5.77333 26.6172 5.08C28.2172 4.38667 30.0972 4.04 32.2572 4.04C34.9239 4.04 37.1905 4.58667 39.0572 5.68C40.9505 6.77333 42.3905 8.33333 43.3772 10.36C44.3905 12.3867 44.8972 14.8133 44.8972 17.64C44.8972 20.2 44.5372 22.3467 43.8172 24.08C43.0972 25.7867 42.0972 27.1733 40.8172 28.24C39.5639 29.3067 38.0705 30.1333 36.3372 30.72C34.6305 31.28 32.7772 31.68 30.7772 31.92V32.48C32.2439 32.64 33.5772 32.7733 34.7772 32.88C35.9772 32.9867 37.1239 33.04 38.2172 33.04C39.3105 33.04 40.3905 32.9733 41.4572 32.84C42.5239 32.7067 43.6572 32.48 44.8572 32.16V37.28ZM32.2972 26.56C33.6839 26.56 34.8305 26.2533 35.7372 25.64C36.6439 25 37.3105 24.0533 37.7372 22.8C38.1905 21.5467 38.4172 19.9733 38.4172 18.08C38.4172 16.1333 38.1772 14.5067 37.6972 13.2C37.2439 11.8933 36.5372 10.9067 35.5772 10.24C34.6439 9.54667 33.4705 9.2 32.0572 9.2C30.7239 9.2 29.5905 9.53333 28.6572 10.2C27.7505 10.84 27.0705 11.8 26.6172 13.08C26.1639 14.36 25.9372 15.96 25.9372 17.88C25.9372 19.8 26.1639 21.4133 26.6172 22.72C27.0972 24 27.8172 24.96 28.7772 25.6C29.7372 26.24 30.9105 26.56 32.2972 26.56ZM56.4388 31.56C53.9321 31.56 52.0388 30.72 50.7588 29.04C49.5054 27.3333 48.8788 24.7467 48.8788 21.28V9.88H55.3588V20.44C55.3588 22.4133 55.6521 23.8933 56.2388 24.88C56.8254 25.84 57.7188 26.32 58.9188 26.32C59.6388 26.32 60.2521 26.1467 60.7588 25.8C61.2921 25.4267 61.7321 24.92 62.0788 24.28C62.4521 23.6133 62.7188 22.8533 62.8788 22C63.0654 21.1467 63.1588 20.2133 63.1588 19.2V9.88H69.5988V22.44V31H64.4788L64.3588 24.48H63.5588C63.1588 26.1333 62.6521 27.4933 62.0388 28.56C61.4521 29.6 60.7054 30.36 59.7988 30.84C58.8921 31.32 57.7721 31.56 56.4388 31.56ZM84.5903 31.56C82.8303 31.56 81.257 31.3333 79.8703 30.88C78.4836 30.4 77.297 29.7067 76.3103 28.8C75.3503 27.8933 74.617 26.7733 74.1103 25.44C73.6036 24.1067 73.3503 22.5733 73.3503 20.84C73.3503 19.16 73.5903 17.6133 74.0703 16.2C74.577 14.7867 75.2836 13.5733 76.1903 12.56C77.1236 11.52 78.257 10.72 79.5903 10.16C80.9503 9.6 82.4703 9.32 84.1503 9.32C85.857 9.32 87.3503 9.6 88.6303 10.16C89.937 10.6933 91.0036 11.4933 91.8303 12.56C92.6836 13.6267 93.3103 14.9333 93.7103 16.48C94.1103 18 94.2436 19.7467 94.1103 21.72L77.5903 21.84V18.48L90.4303 18.36L88.1503 19.92C88.337 18.5867 88.257 17.5067 87.9103 16.68C87.5636 15.8267 87.057 15.2133 86.3903 14.84C85.7236 14.44 85.0036 14.24 84.2303 14.24C83.297 14.24 82.4703 14.4933 81.7503 15C81.057 15.5067 80.5103 16.24 80.1103 17.2C79.7103 18.16 79.5103 19.3333 79.5103 20.72C79.5103 22.9067 79.977 24.4933 80.9103 25.48C81.8703 26.4667 83.0836 26.96 84.5503 26.96C85.2703 26.96 85.8703 26.8667 86.3503 26.68C86.8303 26.4667 87.217 26.2133 87.5103 25.92C87.8303 25.6 88.0703 25.2533 88.2303 24.88C88.417 24.5067 88.5636 24.1467 88.6703 23.8L94.2703 25C94.057 25.9867 93.7103 26.88 93.2303 27.68C92.777 28.48 92.1503 29.1733 91.3503 29.76C90.577 30.3467 89.6303 30.7867 88.5103 31.08C87.417 31.4 86.1103 31.56 84.5903 31.56ZM85.9903 7.12H81.1503L84.1903 0.159999H90.4703L85.9903 7.12Z" fill="#39377F"/>
<path d="M107.798 37.084V21.712V11.992H112.55L112.622 17.392L113.27 17.464C113.486 16.12 113.87 15.004 114.422 14.116C114.974 13.228 115.682 12.568 116.546 12.136C117.434 11.704 118.442 11.488 119.57 11.488C121.25 11.488 122.69 11.896 123.89 12.712C125.114 13.528 126.05 14.692 126.698 16.204C127.346 17.716 127.67 19.528 127.67 21.64C127.67 23.512 127.382 25.192 126.806 26.68C126.254 28.168 125.402 29.344 124.25 30.208C123.122 31.072 121.682 31.504 119.93 31.504C118.754 31.504 117.758 31.3 116.942 30.892C116.126 30.46 115.43 29.836 114.854 29.02C114.302 28.204 113.834 27.184 113.45 25.96H112.766C112.91 26.608 113.042 27.268 113.162 27.94C113.282 28.612 113.378 29.26 113.45 29.884C113.546 30.508 113.594 31.108 113.594 31.684V37.084H107.798ZM117.806 26.932C118.598 26.932 119.27 26.716 119.822 26.284C120.398 25.852 120.842 25.24 121.154 24.448C121.466 23.656 121.622 22.732 121.622 21.676C121.622 20.548 121.454 19.588 121.118 18.796C120.806 17.98 120.35 17.356 119.75 16.924C119.15 16.468 118.454 16.24 117.662 16.24C116.918 16.24 116.282 16.408 115.754 16.744C115.25 17.056 114.83 17.476 114.494 18.004C114.182 18.508 113.954 19.048 113.81 19.624C113.666 20.2 113.594 20.74 113.594 21.244V22.036C113.594 22.492 113.654 22.948 113.774 23.404C113.894 23.86 114.074 24.304 114.314 24.736C114.554 25.144 114.842 25.516 115.178 25.852C115.514 26.188 115.898 26.452 116.33 26.644C116.786 26.836 117.278 26.932 117.806 26.932ZM137.658 31.504C135.402 31.504 133.698 30.748 132.546 29.236C131.418 27.7 130.854 25.372 130.854 22.252V11.992H136.686V21.496C136.686 23.272 136.95 24.604 137.478 25.492C138.006 26.356 138.81 26.788 139.89 26.788C140.538 26.788 141.09 26.632 141.546 26.32C142.026 25.984 142.422 25.528 142.734 24.952C143.07 24.352 143.31 23.668 143.454 22.9C143.622 22.132 143.706 21.292 143.706 20.38V11.992H149.502V23.296V31H144.894L144.786 25.132H144.066C143.706 26.62 143.25 27.844 142.698 28.804C142.17 29.74 141.498 30.424 140.682 30.856C139.866 31.288 138.858 31.504 137.658 31.504ZM162.995 31.504C161.411 31.504 159.995 31.3 158.747 30.892C157.499 30.46 156.431 29.836 155.543 29.02C154.679 28.204 154.019 27.196 153.563 25.996C153.107 24.796 152.879 23.416 152.879 21.856C152.879 20.344 153.095 18.952 153.527 17.68C153.983 16.408 154.619 15.316 155.435 14.404C156.275 13.468 157.295 12.748 158.495 12.244C159.719 11.74 161.087 11.488 162.599 11.488C164.135 11.488 165.479 11.74 166.631 12.244C167.807 12.724 168.767 13.444 169.511 14.404C170.279 15.364 170.843 16.54 171.203 17.932C171.563 19.3 171.683 20.872 171.563 22.648L156.695 22.756V19.732L168.251 19.624L166.199 21.028C166.367 19.828 166.295 18.856 165.983 18.112C165.671 17.344 165.215 16.792 164.615 16.456C164.015 16.096 163.367 15.916 162.671 15.916C161.831 15.916 161.087 16.144 160.439 16.6C159.815 17.056 159.323 17.716 158.963 18.58C158.603 19.444 158.423 20.5 158.423 21.748C158.423 23.716 158.843 25.144 159.683 26.032C160.547 26.92 161.639 27.364 162.959 27.364C163.607 27.364 164.147 27.28 164.579 27.112C165.011 26.92 165.359 26.692 165.623 26.428C165.911 26.14 166.127 25.828 166.271 25.492C166.439 25.156 166.571 24.832 166.667 24.52L171.707 25.6C171.515 26.488 171.203 27.292 170.771 28.012C170.363 28.732 169.799 29.356 169.079 29.884C168.383 30.412 167.531 30.808 166.523 31.072C165.539 31.36 164.363 31.504 162.995 31.504ZM182.317 31.504C180.733 31.504 179.341 31.108 178.141 30.316C176.965 29.5 176.041 28.348 175.369 26.86C174.697 25.348 174.361 23.548 174.361 21.46C174.361 19.54 174.649 17.836 175.225 16.348C175.801 14.86 176.653 13.696 177.781 12.856C178.933 11.992 180.349 11.56 182.029 11.56C183.229 11.56 184.237 11.776 185.053 12.208C185.893 12.64 186.589 13.288 187.141 14.152C187.693 15.016 188.137 16.108 188.473 17.428H189.373C189.205 16.612 189.049 15.844 188.905 15.124C188.761 14.38 188.641 13.696 188.545 13.072C188.473 12.424 188.437 11.86 188.437 11.38V5.08H194.269V21.712V31H189.517L189.445 25.384H188.653C188.389 26.824 187.969 28 187.393 28.912C186.841 29.8 186.133 30.46 185.269 30.892C184.429 31.3 183.445 31.504 182.317 31.504ZM184.405 26.824C185.149 26.824 185.773 26.668 186.277 26.356C186.805 26.02 187.225 25.6 187.537 25.096C187.849 24.592 188.077 24.052 188.221 23.476C188.365 22.9 188.437 22.36 188.437 21.856V21.1C188.437 20.644 188.377 20.188 188.257 19.732C188.137 19.276 187.957 18.832 187.717 18.4C187.501 17.968 187.225 17.584 186.889 17.248C186.553 16.912 186.157 16.648 185.701 16.456C185.269 16.264 184.789 16.168 184.261 16.168C183.469 16.168 182.785 16.384 182.209 16.816C181.657 17.248 181.225 17.86 180.913 18.652C180.625 19.444 180.481 20.38 180.481 21.46C180.481 22.54 180.637 23.488 180.949 24.304C181.261 25.096 181.717 25.72 182.317 26.176C182.917 26.608 183.613 26.824 184.405 26.824ZM207.784 31.504C206.2 31.504 204.784 31.3 203.536 30.892C202.288 30.46 201.22 29.836 200.332 29.02C199.468 28.204 198.808 27.196 198.352 25.996C197.896 24.796 197.668 23.416 197.668 21.856C197.668 20.344 197.884 18.952 198.316 17.68C198.772 16.408 199.408 15.316 200.224 14.404C201.064 13.468 202.084 12.748 203.284 12.244C204.508 11.74 205.876 11.488 207.388 11.488C208.924 11.488 210.268 11.74 211.42 12.244C212.596 12.724 213.556 13.444 214.3 14.404C215.068 15.364 215.632 16.54 215.992 17.932C216.352 19.3 216.472 20.872 216.352 22.648L201.484 22.756V19.732L213.04 19.624L210.988 21.028C211.156 19.828 211.084 18.856 210.772 18.112C210.46 17.344 210.004 16.792 209.404 16.456C208.804 16.096 208.156 15.916 207.46 15.916C206.62 15.916 205.876 16.144 205.228 16.6C204.604 17.056 204.112 17.716 203.752 18.58C203.392 19.444 203.212 20.5 203.212 21.748C203.212 23.716 203.632 25.144 204.472 26.032C205.336 26.92 206.428 27.364 207.748 27.364C208.396 27.364 208.936 27.28 209.368 27.112C209.8 26.92 210.148 26.692 210.412 26.428C210.7 26.14 210.916 25.828 211.06 25.492C211.228 25.156 211.36 24.832 211.456 24.52L216.496 25.6C216.304 26.488 215.992 27.292 215.56 28.012C215.152 28.732 214.588 29.356 213.868 29.884C213.172 30.412 212.32 30.808 211.312 31.072C210.328 31.36 209.152 31.504 207.784 31.504ZM2.232 71V58.904V45.08H8.028V51.02C8.028 51.5 8.004 52.004 7.956 52.532C7.932 53.036 7.872 53.564 7.776 54.116C7.704 54.644 7.62 55.184 7.524 55.736C7.452 56.288 7.356 56.828 7.236 57.356H8.1C8.436 56.18 8.856 55.16 9.36 54.296C9.864 53.408 10.524 52.724 11.34 52.244C12.156 51.74 13.2 51.488 14.472 51.488C16.728 51.488 18.408 52.28 19.512 53.864C20.64 55.424 21.204 57.836 21.204 61.1V71H15.372V62.072C15.372 60.128 15.084 58.676 14.508 57.716C13.956 56.732 13.104 56.24 11.952 56.24C11.064 56.24 10.332 56.516 9.756 57.068C9.18 57.62 8.748 58.364 8.46 59.3C8.172 60.212 8.028 61.232 8.028 62.36V71H2.232ZM29.8288 71.504C28.7728 71.504 27.8368 71.3 27.0208 70.892C26.2048 70.46 25.5688 69.848 25.1128 69.056C24.6568 68.24 24.4288 67.256 24.4288 66.104C24.4288 65.024 24.6328 64.136 25.0408 63.44C25.4728 62.72 26.0848 62.156 26.8768 61.748C27.6928 61.316 28.6648 60.968 29.7928 60.704C30.9208 60.416 32.2048 60.164 33.6448 59.948C34.3408 59.828 34.9168 59.72 35.3728 59.624C35.8528 59.504 36.2128 59.324 36.4528 59.084C36.6928 58.844 36.8128 58.496 36.8128 58.04C36.8128 57.44 36.5968 56.924 36.1648 56.492C35.7328 56.06 35.0368 55.844 34.0768 55.844C33.4048 55.844 32.7928 55.964 32.2408 56.204C31.7128 56.444 31.2568 56.792 30.8728 57.248C30.4888 57.704 30.2008 58.256 30.0088 58.904L24.8968 57.392C25.2088 56.384 25.6408 55.508 26.1928 54.764C26.7688 54.02 27.4528 53.408 28.2448 52.928C29.0368 52.424 29.9368 52.064 30.9448 51.848C31.9768 51.608 33.0688 51.488 34.2208 51.488C36.1408 51.488 37.7008 51.8 38.9008 52.424C40.1248 53.024 41.0248 53.972 41.6008 55.268C42.2008 56.54 42.5008 58.184 42.5008 60.2V63.116C42.5008 63.98 42.5128 64.856 42.5368 65.744C42.5848 66.608 42.6328 67.484 42.6808 68.372C42.7528 69.236 42.8368 70.112 42.9328 71H37.8208C37.7248 70.448 37.6288 69.788 37.5328 69.02C37.4368 68.228 37.3648 67.424 37.3168 66.608H36.6328C36.2968 67.52 35.8048 68.36 35.1568 69.128C34.5328 69.872 33.7648 70.46 32.8528 70.892C31.9648 71.3 30.9568 71.504 29.8288 71.504ZM32.4568 67.4C32.8888 67.4 33.3208 67.328 33.7528 67.184C34.2088 67.016 34.6408 66.8 35.0488 66.536C35.4568 66.248 35.8288 65.9 36.1648 65.492C36.5008 65.084 36.7528 64.64 36.9208 64.16L36.8488 61.316L37.6408 61.496C37.1848 61.784 36.6808 62.012 36.1288 62.18C35.5768 62.348 35.0128 62.48 34.4368 62.576C33.8848 62.672 33.3328 62.78 32.7808 62.9C32.2528 62.996 31.7728 63.128 31.3408 63.296C30.9328 63.464 30.6088 63.692 30.3688 63.98C30.1288 64.268 30.0088 64.664 30.0088 65.168C30.0088 65.84 30.2368 66.38 30.6928 66.788C31.1488 67.196 31.7368 67.4 32.4568 67.4ZM55.739 71.504C54.107 71.504 52.667 71.276 51.419 70.82C50.171 70.364 49.127 69.716 48.287 68.876C47.447 68.012 46.799 66.98 46.343 65.78C45.911 64.58 45.695 63.236 45.695 61.748C45.695 60.212 45.911 58.82 46.343 57.572C46.799 56.324 47.447 55.244 48.287 54.332C49.127 53.42 50.159 52.724 51.383 52.244C52.607 51.74 54.011 51.488 55.595 51.488C57.179 51.488 58.547 51.74 59.699 52.244C60.851 52.748 61.787 53.456 62.507 54.368C63.251 55.28 63.755 56.336 64.019 57.536L58.655 59.336C58.583 58.544 58.391 57.896 58.079 57.392C57.767 56.888 57.359 56.528 56.855 56.312C56.375 56.072 55.847 55.952 55.271 55.952C54.671 55.952 54.143 56.072 53.687 56.312C53.231 56.552 52.847 56.912 52.535 57.392C52.223 57.872 51.983 58.46 51.815 59.156C51.647 59.828 51.563 60.608 51.563 61.496C51.563 62.768 51.719 63.836 52.031 64.7C52.367 65.54 52.847 66.176 53.471 66.608C54.119 67.04 54.899 67.256 55.811 67.256C56.747 67.256 57.479 67.064 58.007 66.68C58.535 66.296 58.919 65.828 59.159 65.276C59.399 64.7 59.543 64.136 59.591 63.584L64.631 64.7C64.535 65.588 64.295 66.452 63.911 67.292C63.551 68.108 63.011 68.84 62.291 69.488C61.571 70.112 60.671 70.604 59.591 70.964C58.535 71.324 57.251 71.504 55.739 71.504ZM76.3774 71.504C74.7934 71.504 73.3774 71.3 72.1294 70.892C70.8814 70.46 69.8134 69.836 68.9254 69.02C68.0614 68.204 67.4014 67.196 66.9454 65.996C66.4894 64.796 66.2614 63.416 66.2614 61.856C66.2614 60.344 66.4774 58.952 66.9094 57.68C67.3654 56.408 68.0014 55.316 68.8174 54.404C69.6574 53.468 70.6774 52.748 71.8774 52.244C73.1014 51.74 74.4694 51.488 75.9814 51.488C77.5174 51.488 78.8614 51.74 80.0134 52.244C81.1894 52.724 82.1494 53.444 82.8934 54.404C83.6614 55.364 84.2254 56.54 84.5854 57.932C84.9454 59.3 85.0654 60.872 84.9454 62.648L70.0774 62.756V59.732L81.6334 59.624L79.5814 61.028C79.7494 59.828 79.6774 58.856 79.3654 58.112C79.0534 57.344 78.5974 56.792 77.9974 56.456C77.3974 56.096 76.7494 55.916 76.0534 55.916C75.2134 55.916 74.4694 56.144 73.8214 56.6C73.1974 57.056 72.7054 57.716 72.3454 58.58C71.9854 59.444 71.8054 60.5 71.8054 61.748C71.8054 63.716 72.2254 65.144 73.0654 66.032C73.9294 66.92 75.0214 67.364 76.3414 67.364C76.9894 67.364 77.5294 67.28 77.9614 67.112C78.3934 66.92 78.7414 66.692 79.0054 66.428C79.2934 66.14 79.5094 65.828 79.6534 65.492C79.8214 65.156 79.9534 64.832 80.0494 64.52L85.0894 65.6C84.8974 66.488 84.5854 67.292 84.1534 68.012C83.7454 68.732 83.1814 69.356 82.4614 69.884C81.7654 70.412 80.9134 70.808 79.9054 71.072C78.9214 71.36 77.7454 71.504 76.3774 71.504ZM88.4703 71V62.18V51.992H93.2223L93.3303 58.436H94.0503C94.2183 56.756 94.5303 55.424 94.9863 54.44C95.4663 53.432 96.1383 52.7 97.0023 52.244C97.8903 51.788 98.9823 51.56 100.278 51.56C100.47 51.56 100.686 51.572 100.926 51.596C101.166 51.596 101.442 51.62 101.754 51.668L101.538 57.86C101.154 57.668 100.734 57.548 100.278 57.5C99.8463 57.428 99.4623 57.392 99.1263 57.392C98.1903 57.392 97.3743 57.572 96.6783 57.932C96.0063 58.292 95.4663 58.844 95.0583 59.588C94.6743 60.332 94.4223 61.268 94.3023 62.396V71H88.4703ZM122.236 71.504C120.7 71.504 119.308 71.36 118.06 71.072C116.812 70.784 115.732 70.352 114.82 69.776C113.908 69.176 113.188 68.42 112.66 67.508C112.132 66.596 111.82 65.54 111.724 64.34L116.8 62.648C116.872 63.656 117.16 64.496 117.664 65.168C118.168 65.84 118.84 66.344 119.68 66.68C120.544 66.992 121.504 67.148 122.56 67.148C123.568 67.148 124.408 67.028 125.08 66.788C125.776 66.524 126.292 66.2 126.628 65.816C126.988 65.408 127.168 64.976 127.168 64.52C127.168 63.992 126.94 63.56 126.484 63.224C126.028 62.864 125.404 62.564 124.612 62.324C123.82 62.06 122.896 61.808 121.84 61.568C120.64 61.28 119.464 60.968 118.312 60.632C117.16 60.296 116.116 59.864 115.18 59.336C114.244 58.784 113.5 58.088 112.948 57.248C112.42 56.384 112.156 55.304 112.156 54.008C112.156 52.544 112.528 51.272 113.272 50.192C114.016 49.112 115.108 48.272 116.548 47.672C117.988 47.048 119.764 46.736 121.876 46.736C123.964 46.736 125.74 47.036 127.204 47.636C128.668 48.236 129.796 49.076 130.588 50.156C131.38 51.212 131.812 52.448 131.884 53.864L126.7 55.34C126.7 54.644 126.58 54.032 126.34 53.504C126.124 52.976 125.812 52.544 125.404 52.208C124.996 51.848 124.492 51.584 123.892 51.416C123.292 51.224 122.608 51.128 121.84 51.128C120.928 51.128 120.148 51.236 119.5 51.452C118.876 51.668 118.408 51.956 118.096 52.316C117.784 52.652 117.628 53.048 117.628 53.504C117.628 54.08 117.868 54.56 118.348 54.944C118.852 55.304 119.524 55.616 120.364 55.88C121.228 56.12 122.176 56.36 123.208 56.6C124.24 56.816 125.308 57.092 126.412 57.428C127.516 57.74 128.548 58.16 129.508 58.688C130.468 59.216 131.236 59.936 131.812 60.848C132.412 61.736 132.712 62.864 132.712 64.232C132.712 65.696 132.316 66.98 131.524 68.084C130.756 69.164 129.592 70.004 128.032 70.604C126.472 71.204 124.54 71.504 122.236 71.504ZM144.996 71.504C143.076 71.504 141.372 71.132 139.884 70.388C138.42 69.644 137.268 68.528 136.428 67.04C135.588 65.552 135.168 63.692 135.168 61.46C135.168 59.228 135.588 57.38 136.428 55.916C137.268 54.428 138.432 53.324 139.92 52.604C141.408 51.86 143.112 51.488 145.032 51.488C146.952 51.488 148.656 51.86 150.144 52.604C151.632 53.348 152.796 54.464 153.636 55.952C154.476 57.416 154.896 59.264 154.896 61.496C154.896 63.776 154.464 65.66 153.6 67.148C152.736 68.636 151.548 69.74 150.036 70.46C148.548 71.156 146.868 71.504 144.996 71.504ZM145.176 67.292C146.04 67.292 146.76 67.1 147.336 66.716C147.912 66.308 148.344 65.696 148.632 64.88C148.92 64.064 149.064 63.056 149.064 61.856C149.064 60.584 148.908 59.516 148.596 58.652C148.284 57.764 147.816 57.092 147.192 56.636C146.592 56.156 145.812 55.916 144.852 55.916C144.036 55.916 143.328 56.12 142.728 56.528C142.152 56.912 141.72 57.512 141.432 58.328C141.144 59.144 141 60.164 141 61.388C141 63.356 141.36 64.832 142.08 65.816C142.824 66.8 143.856 67.292 145.176 67.292ZM159.731 71V59.228H156.815V55.016L161.999 55.232V54.548C161.087 54.38 160.331 54.08 159.731 53.648C159.155 53.192 158.735 52.664 158.471 52.064C158.207 51.464 158.075 50.816 158.075 50.12C158.075 49.064 158.351 48.164 158.903 47.42C159.455 46.652 160.235 46.064 161.243 45.656C162.251 45.248 163.427 45.044 164.771 45.044C165.947 45.044 167.015 45.188 167.975 45.476C168.935 45.74 169.703 46.076 170.279 46.484L169.955 51.704C169.355 51.296 168.671 50.96 167.903 50.696C167.159 50.432 166.463 50.3 165.815 50.3C165.143 50.3 164.579 50.48 164.123 50.84C163.667 51.176 163.439 51.74 163.439 52.532C163.439 53.156 163.571 53.624 163.835 53.936C164.123 54.248 164.471 54.464 164.879 54.584C165.287 54.68 165.695 54.728 166.103 54.728H170.279V59.228H165.383V71H159.731ZM174.023 71.468C172.775 71.468 171.839 71.204 171.215 70.676C170.615 70.148 170.315 69.332 170.315 68.228C170.315 67.1 170.615 66.272 171.215 65.744C171.839 65.216 172.775 64.952 174.023 64.952C175.295 64.952 176.243 65.216 176.867 65.744C177.491 66.272 177.803 67.1 177.803 68.228C177.803 70.388 176.543 71.468 174.023 71.468ZM181.078 71V47.24H186.982V71H181.078ZM189.996 71L198.06 47.24H206.556L214.62 71H208.284L202.596 51.776H202.02L196.332 71H189.996ZM194.784 66.536V62.648H210.696V66.536H194.784ZM2.232 117.084V101.712V91.992H6.984L7.056 97.392L7.704 97.464C7.92 96.12 8.304 95.004 8.856 94.116C9.408 93.228 10.116 92.568 10.98 92.136C11.868 91.704 12.876 91.488 14.004 91.488C15.684 91.488 17.124 91.896 18.324 92.712C19.548 93.528 20.484 94.692 21.132 96.204C21.78 97.716 22.104 99.528 22.104 101.64C22.104 103.512 21.816 105.192 21.24 106.68C20.688 108.168 19.836 109.344 18.684 110.208C17.556 111.072 16.116 111.504 14.364 111.504C13.188 111.504 12.192 111.3 11.376 110.892C10.56 110.46 9.864 109.836 9.288 109.02C8.736 108.204 8.268 107.184 7.884 105.96H7.2C7.344 106.608 7.476 107.268 7.596 107.94C7.716 108.612 7.812 109.26 7.884 109.884C7.98 110.508 8.028 111.108 8.028 111.684V117.084H2.232ZM12.24 106.932C13.032 106.932 13.704 106.716 14.256 106.284C14.832 105.852 15.276 105.24 15.588 104.448C15.9 103.656 16.056 102.732 16.056 101.676C16.056 100.548 15.888 99.588 15.552 98.796C15.24 97.98 14.784 97.356 14.184 96.924C13.584 96.468 12.888 96.24 12.096 96.24C11.352 96.24 10.716 96.408 10.188 96.744C9.684 97.056 9.264 97.476 8.928 98.004C8.616 98.508 8.388 99.048 8.244 99.624C8.1 100.2 8.028 100.74 8.028 101.244V102.036C8.028 102.492 8.088 102.948 8.208 103.404C8.328 103.86 8.508 104.304 8.748 104.736C8.988 105.144 9.276 105.516 9.612 105.852C9.948 106.188 10.332 106.452 10.764 106.644C11.22 106.836 11.712 106.932 12.24 106.932ZM34.4644 111.504C32.5444 111.504 30.8404 111.132 29.3524 110.388C27.8884 109.644 26.7364 108.528 25.8964 107.04C25.0564 105.552 24.6364 103.692 24.6364 101.46C24.6364 99.228 25.0564 97.38 25.8964 95.916C26.7364 94.428 27.9004 93.324 29.3884 92.604C30.8764 91.86 32.5804 91.488 34.5004 91.488C36.4204 91.488 38.1244 91.86 39.6124 92.604C41.1004 93.348 42.2644 94.464 43.1044 95.952C43.9444 97.416 44.3644 99.264 44.3644 101.496C44.3644 103.776 43.9324 105.66 43.0684 107.148C42.2044 108.636 41.0164 109.74 39.5044 110.46C38.0164 111.156 36.3364 111.504 34.4644 111.504ZM34.6444 107.292C35.5084 107.292 36.2284 107.1 36.8044 106.716C37.3804 106.308 37.8124 105.696 38.1004 104.88C38.3884 104.064 38.5324 103.056 38.5324 101.856C38.5324 100.584 38.3764 99.516 38.0644 98.652C37.7524 97.764 37.2844 97.092 36.6604 96.636C36.0604 96.156 35.2804 95.916 34.3204 95.916C33.5044 95.916 32.7964 96.12 32.1964 96.528C31.6204 96.912 31.1884 97.512 30.9004 98.328C30.6124 99.144 30.4684 100.164 30.4684 101.388C30.4684 103.356 30.8284 104.832 31.5484 105.816C32.2924 106.8 33.3244 107.292 34.6444 107.292ZM47.7593 111V102.18V91.992H52.5113L52.6193 98.436H53.3393C53.5073 96.756 53.8193 95.424 54.2753 94.44C54.7553 93.432 55.4273 92.7 56.2913 92.244C57.1793 91.788 58.2713 91.56 59.5673 91.56C59.7593 91.56 59.9753 91.572 60.2153 91.596C60.4553 91.596 60.7313 91.62 61.0433 91.668L60.8273 97.86C60.4433 97.668 60.0233 97.548 59.5673 97.5C59.1353 97.428 58.7513 97.392 58.4153 97.392C57.4793 97.392 56.6633 97.572 55.9673 97.932C55.2953 98.292 54.7553 98.844 54.3473 99.588C53.9633 100.332 53.7113 101.268 53.5913 102.396V111H47.7593ZM79.2574 111.468C77.0254 111.468 75.3814 110.88 74.3254 109.704C73.2694 108.504 72.7414 106.596 72.7414 103.98V96.528H70.0414L70.1494 92.028H72.0934C72.8614 92.004 73.4374 91.884 73.8214 91.668C74.2294 91.452 74.4814 91.044 74.5774 90.444L75.0454 87.78H78.3214V91.992H82.8934V96.708H78.3214V103.728C78.3214 104.544 78.5134 105.144 78.8974 105.528C79.3054 105.912 79.9174 106.104 80.7334 106.104C81.1894 106.104 81.6214 106.056 82.0294 105.96C82.4374 105.864 82.7734 105.732 83.0374 105.564V110.928C82.2694 111.168 81.5614 111.312 80.9134 111.36C80.2894 111.432 79.7374 111.468 79.2574 111.468ZM86.4664 111V91.992H92.2624V111H86.4664ZM91.2184 89.508H86.8624L89.5984 83.244H95.2504L91.2184 89.508ZM98.1352 102.864C98.0392 101.832 98.0992 100.992 98.3152 100.344C98.5552 99.672 98.8792 99.12 99.2872 98.688C99.6952 98.232 100.139 97.848 100.619 97.536C101.123 97.2 101.603 96.876 102.059 96.564C102.515 96.252 102.887 95.892 103.175 95.484C103.463 95.052 103.607 94.524 103.607 93.9C103.607 93.06 103.355 92.46 102.851 92.1C102.371 91.716 101.711 91.524 100.871 91.524C100.343 91.524 99.7672 91.596 99.1432 91.74C98.5432 91.86 97.9312 92.04 97.3072 92.28C96.7072 92.496 96.1192 92.748 95.5432 93.036L95.2912 88.14C95.9872 87.804 96.6832 87.54 97.3792 87.348C98.0992 87.132 98.8192 86.976 99.5392 86.88C100.259 86.76 100.943 86.7 101.591 86.7C102.647 86.7 103.631 86.832 104.543 87.096C105.455 87.36 106.259 87.768 106.955 88.32C107.675 88.848 108.239 89.52 108.647 90.336C109.055 91.128 109.259 92.076 109.259 93.18C109.259 94.188 109.091 95.028 108.755 95.7C108.443 96.372 108.035 96.948 107.531 97.428C107.027 97.908 106.499 98.34 105.947 98.724C105.395 99.084 104.867 99.456 104.363 99.84C103.859 100.2 103.451 100.62 103.139 101.1C102.851 101.58 102.719 102.168 102.743 102.864H98.1352ZM100.691 111.468C99.4432 111.468 98.5072 111.204 97.8832 110.676C97.2832 110.148 96.9832 109.332 96.9832 108.228C96.9832 107.1 97.2832 106.272 97.8832 105.744C98.5072 105.216 99.4432 104.952 100.691 104.952C101.963 104.952 102.911 105.216 103.535 105.744C104.159 106.272 104.471 107.1 104.471 108.228C104.471 110.388 103.211 111.468 100.691 111.468Z" fill="#606096"/>
</svg>
