<svg width="320" height="339" viewBox="0 0 320 339" fill="none" xmlns="http://www.w3.org/2000/svg">
<path d="M170.303 201.653C148.352 229.135 188.656 271.679 191.874 277.114L123.91 283.635C122.82 262.674 162.16 240.528 135.742 218.888C114.329 201.347 88.8757 208.433 76.4274 233.328C68.3315 249.518 70.6672 268.574 60.2366 288.759C49.8059 308.944 -18.6938 331.655 -10.287 228.246C-3.07756 139.565 -0.323338 3.22448e-05 -0.323338 3.22448e-05L329 3.05176e-05L319.29 160.351C331.589 187.368 284.617 280.216 236.312 215.006C220.9 194.2 187.86 179.671 170.303 201.653Z" fill="url(#paint0_linear_521_70)"/>
<path fill-rule="evenodd" clip-rule="evenodd" d="M114.484 279.45C115.399 279.449 116.141 278.708 116.141 277.793C116.141 276.879 115.4 276.135 114.484 276.136L113.489 276.135L113.489 276.135C113.413 276.135 113.352 276.075 113.352 275.999L113.352 275.005C113.353 274.089 112.611 273.347 111.695 273.348C110.78 273.347 110.038 274.088 110.038 275.005L110.038 275.999C110.038 276.075 109.978 276.135 109.902 276.135L108.968 276.135C108.089 276.135 107.309 276.797 107.254 277.688C107.194 278.65 107.958 279.449 108.908 279.449L109.903 279.448C109.979 279.448 110.04 279.51 110.039 279.584L110.039 279.585L110.039 280.581C110.038 281.497 110.78 282.238 111.695 282.239L111.695 282.239C112.611 282.238 113.352 281.497 113.353 280.581L113.353 280.581L113.352 279.586L113.352 279.586C113.352 279.509 113.414 279.449 113.488 279.449L113.488 279.449L114.484 279.45Z" fill="#FFFFDB"/>
<path fill-rule="evenodd" clip-rule="evenodd" d="M79.4045 239.415C80.3197 239.414 81.0614 238.672 81.0614 237.758C81.0614 236.844 80.32 236.1 79.4043 236.101L78.4091 236.1L78.409 236.1C78.3331 236.1 78.2727 236.039 78.2727 235.963L78.2727 234.969C78.2739 234.054 77.5312 233.311 76.6157 233.312C75.7002 233.311 74.9587 234.053 74.9587 234.969L74.9586 235.963C74.9586 236.039 74.8983 236.1 74.8224 236.1L73.8887 236.1C73.0095 236.1 72.2289 236.761 72.1742 237.652C72.1145 238.615 72.8783 239.414 73.8279 239.414L74.8233 239.413C74.8998 239.413 74.9601 239.474 74.9596 239.548L74.9596 239.549L74.9596 240.545C74.9585 241.461 75.7002 242.202 76.6154 242.204L76.6158 242.204C77.531 242.202 78.2726 241.461 78.2737 240.546L78.2737 240.545L78.2727 239.55L78.2727 239.55C78.2728 239.474 78.3344 239.413 78.408 239.414L78.4088 239.414L79.4045 239.415Z" fill="#FFFFDB"/>
<path fill-rule="evenodd" clip-rule="evenodd" d="M207.261 279.45C208.176 279.449 208.918 278.708 208.918 277.793C208.918 276.879 208.176 276.135 207.261 276.136L206.266 276.135L206.265 276.135C206.189 276.135 206.129 276.075 206.129 275.999L206.129 275.005C206.13 274.089 205.388 273.347 204.472 273.348C203.557 273.347 202.815 274.088 202.815 275.005L202.815 275.999C202.815 276.075 202.755 276.135 202.679 276.135L201.745 276.135C200.866 276.135 200.085 276.797 200.031 277.688C199.971 278.65 200.735 279.449 201.684 279.449L202.68 279.448C202.756 279.448 202.817 279.51 202.816 279.584L202.816 279.585L202.816 280.581C202.815 281.497 203.557 282.238 204.472 282.239L204.472 282.239C205.387 282.238 206.129 281.497 206.13 280.581L206.13 280.581L206.129 279.586L206.129 279.586C206.129 279.509 206.191 279.449 206.264 279.449L206.265 279.449L207.261 279.45Z" fill="#FFFFDB"/>
<path opacity="0.3" fill-rule="evenodd" clip-rule="evenodd" d="M44.4916 298.466C45.295 299.178 46.5955 299.178 47.3974 298.466C48.1989 297.753 48.2011 296.595 47.3973 295.882L46.5256 295.106L46.5255 295.106C46.4589 295.047 46.4589 294.953 46.5255 294.894L47.3972 294.119C48.2009 293.406 48.2009 292.248 47.3974 291.536C46.5955 290.821 45.2949 290.822 44.4915 291.536L43.6196 292.311C43.553 292.37 43.4472 292.37 43.3806 292.311L42.562 291.583C41.7911 290.898 40.5267 290.805 39.6978 291.456C38.8012 292.16 38.7702 293.378 39.6029 294.119L40.4765 294.894C40.5436 294.953 40.5424 295.048 40.4774 295.105L40.4765 295.106L39.603 295.882C38.7992 296.595 38.7994 297.751 39.6009 298.465L39.6012 298.466C40.4047 299.178 41.7051 299.178 42.5086 298.466L42.5089 298.465L43.3806 297.689L43.3807 297.689C43.4478 297.629 43.5546 297.63 43.6188 297.688L43.6195 297.689L44.4916 298.466Z" fill="#4E4D98"/>
<path fill-rule="evenodd" clip-rule="evenodd" d="M198.317 273.832C199.028 273.831 199.604 273.255 199.604 272.545C199.604 271.835 199.028 271.257 198.317 271.258L197.544 271.257L197.544 271.257C197.485 271.257 197.438 271.21 197.438 271.151L197.438 270.379C197.439 269.668 196.862 269.091 196.151 269.092C195.44 269.091 194.864 269.667 194.864 270.379L194.864 271.151C194.864 271.21 194.817 271.257 194.758 271.257L194.033 271.257C193.35 271.257 192.744 271.771 192.701 272.462C192.655 273.21 193.248 273.831 193.986 273.831L194.759 273.83C194.818 273.83 194.865 273.878 194.865 273.935L194.865 273.936L194.865 274.71C194.864 275.421 195.44 275.997 196.151 275.998L196.151 275.998C196.862 275.997 197.438 275.421 197.439 274.71L197.439 274.71L197.438 273.937L197.438 273.937C197.438 273.877 197.486 273.831 197.543 273.831L197.544 273.831L198.317 273.832Z" fill="#FFFFDB"/>
<path opacity="0.3" fill-rule="evenodd" clip-rule="evenodd" d="M272.163 234.659C272.873 234.659 273.45 234.083 273.45 233.372C273.45 232.662 272.874 232.084 272.162 232.085L271.39 232.085L271.389 232.085C271.33 232.085 271.284 232.038 271.284 231.979L271.284 231.207C271.284 230.495 270.708 229.919 269.997 229.919C269.285 229.919 268.71 230.495 268.71 231.206L268.71 231.979C268.71 232.038 268.663 232.085 268.604 232.085L267.879 232.085C267.196 232.085 266.589 232.598 266.547 233.29C266.5 234.038 267.094 234.659 267.831 234.659L268.604 234.658C268.664 234.658 268.711 234.706 268.71 234.763L268.71 234.764L268.71 235.537C268.709 236.249 269.286 236.825 269.996 236.825L269.997 236.825C270.707 236.824 271.283 236.249 271.284 235.538L271.284 235.537L271.284 234.764L271.284 234.764C271.284 234.705 271.331 234.658 271.389 234.659L271.389 234.659L272.163 234.659Z" fill="#51509A"/>
<path opacity="0.3" fill-rule="evenodd" clip-rule="evenodd" d="M278.492 230.399C279.295 231.2 280.596 231.201 281.397 230.399C282.199 229.597 282.201 228.295 281.397 227.493L280.526 226.619L280.525 226.619C280.459 226.553 280.459 226.447 280.525 226.38L281.397 225.509C282.201 224.707 282.201 223.404 281.397 222.603C280.595 221.799 279.295 221.799 278.491 222.603L277.62 223.474C277.553 223.541 277.447 223.541 277.381 223.474L276.562 222.656C275.791 221.885 274.527 221.78 273.698 222.514C272.801 223.305 272.77 224.676 273.603 225.508L274.477 226.38C274.544 226.447 274.542 226.554 274.477 226.618L274.477 226.619L273.603 227.493C272.799 228.295 272.799 229.595 273.601 230.399L273.601 230.399C274.405 231.2 275.705 231.2 276.509 230.399L276.509 230.399L277.381 229.525L277.381 229.525C277.448 229.458 277.555 229.459 277.619 229.524L277.619 229.525L278.492 230.399Z" fill="#51509A"/>
<path opacity="0.3" fill-rule="evenodd" clip-rule="evenodd" d="M52.2544 289.27C52.9652 289.269 53.5413 288.693 53.5413 287.983C53.5413 287.273 52.9655 286.695 52.2542 286.696L51.4813 286.695L51.4812 286.695C51.4222 286.695 51.3754 286.649 51.3754 286.59L51.3754 285.817C51.3762 285.106 50.7994 284.529 50.0884 284.53C49.3773 284.529 48.8014 285.106 48.8013 285.817L48.8013 286.59C48.8013 286.649 48.7545 286.695 48.6955 286.695L47.9704 286.695C47.2875 286.695 46.6812 287.209 46.6387 287.901C46.5923 288.649 47.1856 289.269 47.9231 289.269L48.6962 289.269C48.7556 289.269 48.8025 289.317 48.8021 289.374L48.8021 289.375L48.8021 290.148C48.8012 290.859 49.3773 291.435 50.0882 291.436L50.0884 291.436C50.7993 291.435 51.3752 290.859 51.3761 290.149L51.3761 290.148L51.3753 289.375L51.3753 289.375C51.3754 289.316 51.4232 289.269 51.4804 289.269L51.4811 289.269L52.2544 289.27Z" fill="#4E4D98"/>
<path fill-rule="evenodd" clip-rule="evenodd" d="M125.198 270.562C126.489 270.56 127.535 269.514 127.535 268.224C127.535 266.935 126.49 265.886 125.198 265.887L123.794 265.886L123.794 265.886C123.687 265.886 123.602 265.801 123.602 265.694L123.602 264.291C123.603 263 122.556 261.952 121.265 261.954C119.973 261.952 118.927 262.999 118.927 264.291L118.927 265.694C118.927 265.801 118.842 265.886 118.735 265.886L117.418 265.886C116.178 265.886 115.077 266.819 115 268.075C114.916 269.433 115.993 270.56 117.332 270.56L118.736 270.559C118.844 270.559 118.929 270.646 118.929 270.75L118.929 270.751L118.929 272.156C118.927 273.448 119.973 274.494 121.264 274.495L121.265 274.495C122.556 274.494 123.602 273.448 123.603 272.157L123.603 272.156L123.602 270.753L123.602 270.752C123.602 270.645 123.689 270.56 123.793 270.56L123.794 270.56L125.198 270.562Z" fill="#FFFFDB"/>
<path fill-rule="evenodd" clip-rule="evenodd" d="M210.102 199.332C210.994 200.223 212.439 200.223 213.33 199.332C214.221 198.441 214.223 196.994 213.33 196.103L212.362 195.133L212.362 195.133C212.288 195.059 212.288 194.941 212.362 194.867L213.33 193.898C214.223 193.008 214.223 191.56 213.33 190.67C212.439 189.777 210.994 189.777 210.102 190.67L209.133 191.638C209.059 191.712 208.941 191.712 208.867 191.638L207.958 190.729C207.101 189.872 205.696 189.756 204.775 190.571C203.779 191.45 203.745 192.973 204.67 193.898L205.641 194.867C205.715 194.941 205.714 195.06 205.642 195.132L205.641 195.133L204.67 196.103C203.777 196.994 203.777 198.439 204.668 199.332L204.668 199.332C205.561 200.223 207.006 200.223 207.898 199.332L207.899 199.332L208.867 198.361L208.867 198.361C208.942 198.287 209.061 198.288 209.132 198.36L209.133 198.361L210.102 199.332Z" fill="#FFFFDE"/>
<path fill-rule="evenodd" clip-rule="evenodd" d="M128.676 295.292C122.442 289.042 122.44 278.926 128.678 272.688C134.913 266.453 145.044 266.435 151.283 272.689L158.077 279.47L158.078 279.471C158.596 279.989 159.419 279.989 159.937 279.471L166.719 272.689C172.955 266.437 183.087 266.437 189.324 272.688C195.576 278.926 195.574 289.043 189.324 295.293L182.542 302.076C182.024 302.594 182.024 303.417 182.542 303.935L188.91 310.303C194.907 316.3 195.72 326.136 190.018 332.584C183.858 339.559 173.197 339.8 166.72 333.322L159.937 326.526C159.416 326.005 158.584 326.014 158.085 326.52L158.078 326.526L151.283 333.321C145.046 339.574 134.929 339.572 128.679 333.337L128.676 333.335C122.441 327.085 122.441 316.969 128.676 310.718L128.679 310.716L135.474 303.935L135.475 303.934C135.995 303.412 135.986 302.581 135.48 302.082L135.475 302.077L128.676 295.292Z" fill="#FFFFDB"/>
<path fill-rule="evenodd" clip-rule="evenodd" d="M152.375 308.968C154.138 308.968 155.568 306.288 155.568 302.983C155.568 299.677 154.138 296.998 152.375 296.998C150.611 296.998 149.181 299.677 149.181 302.983C149.181 306.288 150.611 308.968 152.375 308.968ZM162.963 302.983C162.963 299.677 164.392 296.998 166.157 296.998C167.922 296.998 169.351 299.677 169.351 302.983C169.351 306.289 167.922 308.968 166.157 308.968C164.392 308.968 162.963 306.289 162.963 302.983Z" fill="#3D3B80"/>
<defs>
<linearGradient id="paint0_linear_521_70" x1="174.637" y1="278.135" x2="139.302" y2="-54.3493" gradientUnits="userSpaceOnUse">
<stop stop-color="#B6B4E6"/>
<stop offset="1" stop-color="#F0EFFC"/>
</linearGradient>
</defs>
</svg>
