<svg width="291" height="964" viewBox="0 0 291 964" fill="none" xmlns="http://www.w3.org/2000/svg">
<path opacity="0.3" fill-rule="evenodd" clip-rule="evenodd" d="M289.798 19.5139C291.401 17.9963 291.401 15.5399 289.797 14.0253C288.194 12.5113 285.59 12.5071 283.986 14.0255L282.239 15.672L282.239 15.6722C282.105 15.798 281.894 15.798 281.761 15.6722L280.017 14.0256C278.414 12.5075 275.809 12.5074 274.205 14.0253C272.598 15.5399 272.599 17.9966 274.205 19.5141L275.949 21.1611C276.082 21.2868 276.082 21.4867 275.949 21.6125L274.312 23.1587C272.77 24.6149 272.561 27.0031 274.027 28.5689C275.611 30.2625 278.352 30.321 280.017 28.7482L281.761 27.098C281.895 26.9713 282.109 26.9736 282.237 27.0964L282.239 27.098L283.986 28.7479C285.589 30.2662 288.19 30.2658 289.797 28.7519L289.798 28.7513C291.401 27.2336 291.401 24.7773 289.798 23.2596L289.797 23.2591L288.05 21.6125L288.05 21.6122C287.916 21.4856 287.918 21.2838 288.048 21.1626L288.05 21.1613L289.798 19.5139Z" fill="#D1CEED"/>
<path opacity="0.3" fill-rule="evenodd" clip-rule="evenodd" d="M270.552 3.64168C270.55 2.21951 269.398 1.06688 267.977 1.06686C266.556 1.06684 265.4 2.21903 265.402 3.64206L265.4 5.18849L265.4 5.18871C265.4 5.30673 265.306 5.40048 265.188 5.40048L263.643 5.40046C262.221 5.39872 261.066 6.55287 261.068 7.97548C261.066 9.39823 262.219 10.5505 263.643 10.5506L265.188 10.5506C265.306 10.5506 265.4 10.6443 265.4 10.7624L265.4 12.2132C265.4 13.5795 266.428 14.7926 267.812 14.8775C269.308 14.9704 270.55 13.7834 270.55 12.3077L270.549 10.7608C270.549 10.642 270.644 10.5483 270.759 10.5491L270.76 10.5491L272.309 10.5491C273.731 10.5508 274.884 9.39812 274.885 7.97591L274.885 7.97538C274.884 6.55307 273.731 5.40073 272.309 5.39899L272.309 5.39899L270.762 5.40055L270.762 5.40055C270.643 5.40043 270.549 5.30466 270.55 5.19023L270.55 5.189L270.552 3.64168Z" fill="#D1CEED"/>
<path opacity="0.3" fill-rule="evenodd" clip-rule="evenodd" d="M1.20229 944.373C-0.4006 945.891 -0.40103 948.347 1.20259 949.862C2.80564 951.376 5.41048 951.38 7.01439 949.861L8.76122 948.215L8.76147 948.215C8.89465 948.089 9.10623 948.089 9.23941 948.215L10.9829 949.861C12.5863 951.379 15.1912 951.38 16.7947 949.862C18.402 948.347 18.4015 945.89 16.7947 944.373L15.051 942.726C14.9178 942.6 14.9178 942.4 15.051 942.275L16.6882 940.728C18.23 939.272 18.439 936.884 16.973 935.318C15.3894 933.624 12.6484 933.566 10.9832 935.139L9.23941 936.789C9.10532 936.916 8.89146 936.913 8.7631 936.791L8.76148 936.789L7.01448 935.139C5.41084 933.621 2.80972 933.621 1.20289 935.135L1.20229 935.136C-0.400765 936.653 -0.400765 939.11 1.20229 940.627L1.20284 940.628L2.94988 942.275L2.95012 942.275C3.08395 942.401 3.08152 942.603 2.95153 942.724L2.95013 942.726L1.20229 944.373Z" fill="#D1CEED"/>
<path opacity="0.3" fill-rule="evenodd" clip-rule="evenodd" d="M20.4483 960.245C20.45 961.668 21.6023 962.82 23.0234 962.82C24.444 962.82 25.6001 961.668 25.5984 960.245L25.5999 958.699L25.5999 958.698C25.5999 958.58 25.6937 958.487 25.8117 958.487L27.3567 958.487C28.7793 958.488 29.9336 957.334 29.932 955.912C29.9335 954.489 28.7808 953.337 27.3569 953.337L25.8116 953.337C25.6936 953.337 25.5999 953.243 25.5999 953.125L25.5999 951.674C25.5998 950.308 24.572 949.095 23.1879 949.01C21.6917 948.917 20.4497 950.104 20.4498 951.579L20.4514 953.126C20.4514 953.245 20.3555 953.339 20.241 953.338L20.2396 953.338L18.6914 953.338C17.2686 953.336 16.1163 954.489 16.1146 955.911L16.1146 955.912C16.1163 957.334 17.2687 958.486 18.691 958.488L18.6915 958.488L20.2381 958.487L20.2383 958.487C20.357 958.487 20.4506 958.582 20.4499 958.697L20.4498 958.698L20.4483 960.245Z" fill="#D1CEED"/>
</svg>
