<svg width="291" height="181" viewBox="0 0 291 181" fill="none" xmlns="http://www.w3.org/2000/svg">
<g style="mix-blend-mode:soft-light">
<mask id="path-1-inside-1_493_204" fill="white">
<path fill-rule="evenodd" clip-rule="evenodd" d="M26.4568 0C18.2914 0 11.6721 6.61931 11.6721 14.7847V68.7532C11.6637 68.9383 11.6593 69.1254 11.6593 69.3143V73.0076C11.6593 75.333 10.9934 77.5084 9.87981 78.8202L2.35458 87.685C1.77711 88.1998 1.30033 88.942 0.940823 89.8191C0.403227 91.0647 0.158348 92.5202 0.166051 93.9616C0.158348 95.403 0.403216 96.8585 0.940784 98.1041C1.3003 98.9813 1.7771 99.7235 2.3546 100.238L9.87981 109.103C10.9934 110.415 11.6593 112.59 11.6593 114.916V118.609C11.6593 118.798 11.6637 118.985 11.6721 119.17V166.215C11.6721 174.381 18.2914 181 26.4568 181H275.25C283.415 181 290.035 174.381 290.035 166.215V14.7847C290.035 6.61931 283.415 0 275.25 0H26.4568Z"/>
</mask>
<path d="M11.6721 68.7532L12.5672 68.7941L12.5682 68.7736V68.7532H11.6721ZM9.87981 78.8202L10.5629 79.4L9.87981 78.8202ZM2.35458 87.685L2.95081 88.3539L2.99734 88.3124L3.03768 88.2649L2.35458 87.685ZM0.940823 89.8191L1.76351 90.1741L1.76678 90.1665L1.76992 90.1589L0.940823 89.8191ZM0.166051 93.9616L1.06213 93.9664L1.06208 93.9568L0.166051 93.9616ZM0.940784 98.1041L1.76988 97.7643L1.76675 97.7566L1.76347 97.749L0.940784 98.1041ZM2.3546 100.238L3.03771 99.6584L2.99737 99.6108L2.95083 99.5694L2.3546 100.238ZM9.87981 109.103L9.19671 109.683H9.19671L9.87981 109.103ZM11.6721 119.17H12.5682V119.15L12.5672 119.129L11.6721 119.17ZM12.5682 14.7847C12.5682 7.11418 18.7863 0.89604 26.4568 0.89604V-0.89604C17.7966 -0.89604 10.7761 6.12445 10.7761 14.7847H12.5682ZM12.5682 68.7532V14.7847H10.7761V68.7532H12.5682ZM10.777 68.7122C10.7679 68.911 10.7633 69.1118 10.7633 69.3143H12.5554C12.5554 69.139 12.5594 68.9656 12.5672 68.7941L10.777 68.7122ZM10.7633 69.3143V73.0076H12.5554V69.3143H10.7633ZM10.7633 73.0076C10.7633 75.1955 10.131 77.1396 9.19671 78.2403L10.5629 79.4C11.8557 77.8771 12.5554 75.4705 12.5554 73.0076H10.7633ZM9.19671 78.2403L1.67147 87.1052L3.03768 88.2649L10.5629 79.4L9.19671 78.2403ZM1.75835 87.0162C1.05015 87.6474 0.50568 88.5181 0.111726 89.4792L1.76992 90.1589C2.09498 89.3658 2.50407 88.7521 2.95081 88.3539L1.75835 87.0162ZM0.118137 89.464C-0.478086 90.8454 -0.738197 92.428 -0.729976 93.9664L1.06208 93.9568C1.05489 92.6124 1.28454 91.2839 1.76351 90.1741L0.118137 89.464ZM-0.729976 93.9568C-0.738197 95.4952 -0.478099 97.0778 0.118094 98.4592L1.76347 97.749C1.28453 96.6393 1.05489 95.3109 1.06208 93.9664L-0.729976 93.9568ZM0.111683 98.4439C0.505647 99.4051 1.05014 100.276 1.75838 100.907L2.95083 99.5694C2.50406 99.1711 2.09496 98.5574 1.76988 97.7643L0.111683 98.4439ZM1.6715 100.818L9.19671 109.683L10.5629 108.523L3.03771 99.6584L1.6715 100.818ZM9.19671 109.683C10.131 110.784 10.7633 112.728 10.7633 114.916H12.5554C12.5554 112.453 11.8557 110.046 10.5629 108.523L9.19671 109.683ZM10.7633 114.916V118.609H12.5554V114.916H10.7633ZM10.7633 118.609C10.7633 118.811 10.7679 119.012 10.777 119.211L12.5672 119.129C12.5594 118.958 12.5554 118.784 12.5554 118.609H10.7633ZM12.5682 166.215V119.17H10.7761V166.215H12.5682ZM26.4568 180.104C18.7863 180.104 12.5682 173.886 12.5682 166.215H10.7761C10.7761 174.876 17.7966 181.896 26.4568 181.896V180.104ZM275.25 180.104H26.4568V181.896H275.25V180.104ZM289.139 166.215C289.139 173.886 282.921 180.104 275.25 180.104V181.896C283.91 181.896 290.931 174.876 290.931 166.215H289.139ZM289.139 14.7847V166.215H290.931V14.7847H289.139ZM275.25 0.89604C282.921 0.89604 289.139 7.11418 289.139 14.7847H290.931C290.931 6.12445 283.91 -0.89604 275.25 -0.89604V0.89604ZM26.4568 0.89604H275.25V-0.89604H26.4568V0.89604Z" fill="#FFFFDC" mask="url(#path-1-inside-1_493_204)"/>
</g>
<path d="M78.8503 41.2844C78.3076 41.2844 77.6845 41.2241 76.981 41.1035C76.2775 40.9628 75.574 40.812 74.8705 40.6512C74.1871 40.4703 73.5639 40.3196 73.0011 40.199C72.4383 40.0583 72.0062 39.9879 71.7047 39.9879C71.2625 39.9879 71.0112 40.1487 70.9509 40.4703C70.8906 40.7718 70.8906 41.1638 70.9509 41.6462H67.9962C67.4937 40.5608 67.2826 39.606 67.363 38.7819C67.4635 37.9578 67.7952 37.3146 68.358 36.8523C68.9208 36.3699 69.6243 36.1287 70.4685 36.1287C71.0313 36.1287 71.6444 36.189 72.3077 36.3096C72.9911 36.4302 73.6644 36.5809 74.3278 36.7618C74.9911 36.9226 75.5941 37.0633 76.1368 37.1839C76.6795 37.3045 77.1016 37.3648 77.4031 37.3648C77.8051 37.3648 78.0463 37.2141 78.1267 36.9126C78.2071 36.6111 78.2071 36.2191 78.1267 35.7367H81.1116C81.5136 36.6814 81.6945 37.5859 81.6543 38.4503C81.6342 39.2945 81.393 39.9779 80.9307 40.5005C80.4684 41.0231 79.7749 41.2844 78.8503 41.2844ZM166.946 70.2844C166.403 70.2844 165.78 70.2241 165.076 70.1035C164.373 69.9628 163.669 69.812 162.966 69.6512C162.282 69.4703 161.659 69.3196 161.097 69.199C160.534 69.0583 160.102 68.9879 159.8 68.9879C159.358 68.9879 159.107 69.1487 159.046 69.4703C158.986 69.7718 158.986 70.1638 159.046 70.6462H156.092C155.589 69.5608 155.378 68.606 155.458 67.7819C155.559 66.9578 155.891 66.3146 156.453 65.8523C157.016 65.3699 157.72 65.1287 158.564 65.1287C159.127 65.1287 159.74 65.189 160.403 65.3096C161.086 65.4302 161.76 65.5809 162.423 65.7618C163.086 65.9226 163.689 66.0633 164.232 66.1839C164.775 66.3045 165.197 66.3648 165.498 66.3648C165.9 66.3648 166.142 66.2141 166.222 65.9126C166.302 65.6111 166.302 65.2191 166.222 64.7367H169.207C169.609 65.6814 169.79 66.5859 169.75 67.4503C169.73 68.2945 169.488 68.9779 169.026 69.5005C168.564 70.0231 167.87 70.2844 166.946 70.2844Z" fill="#FFFFDB"/>
<path d="M102.091 53.7365V49.2441C102.091 48.7617 102.121 48.2692 102.182 47.7667C102.262 47.2441 102.363 46.7014 102.483 46.1386C102.604 45.5557 102.724 44.9828 102.845 44.42H102.212C101.89 45.4451 101.488 46.3094 101.006 47.0129C100.544 47.6963 99.9606 48.2089 99.2571 48.5506C98.5737 48.8923 97.7295 49.0632 96.7245 49.0632C95.3175 49.0632 94.1315 48.7014 93.1667 47.9777C92.222 47.2541 91.5085 46.2692 91.0261 45.023C90.5437 43.7768 90.3025 42.3698 90.3025 40.802C90.3025 39.0332 90.5738 37.5156 91.1165 36.2493C91.6592 34.983 92.4431 34.0081 93.4682 33.3247C94.4934 32.6413 95.6994 32.2996 97.0863 32.2996C98.031 32.2996 98.8651 32.4805 99.5888 32.8423C100.332 33.184 100.935 33.7167 101.398 34.4403C101.88 35.1639 102.202 36.0985 102.363 37.2442H102.996V32.7518H106.976V40.6814V53.7365H102.091ZM98.5938 45.2341C99.036 45.2341 99.438 45.1537 99.7998 44.9929C100.162 44.8321 100.483 44.611 100.765 44.3296C101.046 44.0482 101.287 43.7366 101.488 43.3949C101.689 43.0331 101.84 42.6612 101.94 42.2793C102.041 41.8974 102.091 41.5155 102.091 41.1336V40.4703C102.091 40.0482 102.031 39.596 101.91 39.1136C101.79 38.6111 101.599 38.1488 101.337 37.7266C101.076 37.2844 100.724 36.9327 100.282 36.6714C99.8601 36.39 99.3375 36.2493 98.7144 36.2493C98.0511 36.2493 97.4682 36.4402 96.9657 36.8221C96.4632 37.1839 96.0813 37.7065 95.82 38.39C95.5587 39.0734 95.428 39.8874 95.428 40.8321C95.428 41.6964 95.5486 42.4602 95.7898 43.1235C96.0511 43.7869 96.4129 44.3095 96.8752 44.6914C97.3576 45.0532 97.9305 45.2341 98.5938 45.2341ZM116.184 49.0632C114.294 49.0632 112.867 48.43 111.903 47.1637C110.958 45.8773 110.485 43.9276 110.485 41.3145V32.7217H115.37V40.6814C115.37 42.1688 115.591 43.2844 116.033 44.0281C116.475 44.7517 117.149 45.1135 118.053 45.1135C118.596 45.1135 119.058 44.9828 119.44 44.7215C119.842 44.4401 120.174 44.0582 120.435 43.5758C120.716 43.0733 120.917 42.5004 121.038 41.8572C121.179 41.214 121.249 40.5105 121.249 39.7467V32.7217H126.103V42.1889V48.6411H122.244L122.154 43.7266H121.551C121.249 44.9728 120.867 45.9979 120.405 46.8019C119.963 47.5858 119.4 48.1586 118.717 48.5205C118.033 48.8823 117.189 49.0632 116.184 49.0632ZM137.403 49.0632C136.077 49.0632 134.891 48.8923 133.846 48.5506C132.8 48.1888 131.906 47.6662 131.162 46.9828C130.439 46.2994 129.886 45.4552 129.504 44.4502C129.122 43.4452 128.931 42.2894 128.931 40.9829C128.931 39.7166 129.112 38.5508 129.474 37.4854C129.856 36.4201 130.388 35.5056 131.072 34.7418C131.775 33.9579 132.63 33.3549 133.635 32.9327C134.66 32.5106 135.805 32.2996 137.072 32.2996C138.358 32.2996 139.484 32.5106 140.449 32.9327C141.433 33.3348 142.237 33.9378 142.861 34.7418C143.504 35.5458 143.976 36.5307 144.278 37.6965C144.579 38.8422 144.68 40.1588 144.579 41.6462L132.127 41.7366V39.204L141.805 39.1136L140.087 40.2894C140.227 39.2844 140.167 38.4704 139.906 37.8472C139.645 37.204 139.263 36.7417 138.76 36.4603C138.258 36.1588 137.715 36.0081 137.132 36.0081C136.428 36.0081 135.805 36.199 135.263 36.5809C134.74 36.9628 134.328 37.5156 134.027 38.2392C133.725 38.9628 133.574 39.8472 133.574 40.8924C133.574 42.5406 133.926 43.7366 134.63 44.4803C135.353 45.224 136.268 45.5959 137.373 45.5959C137.916 45.5959 138.368 45.5255 138.73 45.3848C139.092 45.224 139.383 45.0331 139.604 44.812C139.846 44.5708 140.026 44.3095 140.147 44.0281C140.288 43.7467 140.398 43.4753 140.479 43.214L144.7 44.1185C144.539 44.8622 144.278 45.5356 143.916 46.1386C143.574 46.7416 143.102 47.2642 142.499 47.7064C141.916 48.1486 141.202 48.4803 140.358 48.7014C139.534 48.9426 138.549 49.0632 137.403 49.0632ZM138.459 30.6413H134.81L137.102 25.3952H141.835L138.459 30.6413ZM122.888 78.0632C121.561 78.0632 120.375 77.8923 119.33 77.5506C118.285 77.1888 117.39 76.6662 116.647 75.9828C115.923 75.2994 115.37 74.4552 114.988 73.4502C114.606 72.4452 114.415 71.2894 114.415 69.9829C114.415 68.7166 114.596 67.5508 114.958 66.4854C115.34 65.4201 115.873 64.5056 116.556 63.7418C117.26 62.9579 118.114 62.3549 119.119 61.9327C120.144 61.5106 121.29 61.2996 122.556 61.2996C123.842 61.2996 124.968 61.5106 125.933 61.9327C126.918 62.3348 127.722 62.9378 128.345 63.7418C128.988 64.5458 129.46 65.5307 129.762 66.6965C130.063 67.8422 130.164 69.1588 130.063 70.6462L117.611 70.7366V68.204L127.29 68.1136L125.571 69.2894C125.712 68.2844 125.651 67.4704 125.39 66.8472C125.129 66.204 124.747 65.7417 124.244 65.4603C123.742 65.1588 123.199 65.0081 122.616 65.0081C121.913 65.0081 121.29 65.199 120.747 65.5809C120.224 65.9628 119.812 66.5156 119.511 67.2392C119.209 67.9628 119.059 68.8472 119.059 69.8924C119.059 71.5406 119.41 72.7366 120.114 73.4803C120.837 74.224 121.752 74.5959 122.857 74.5959C123.4 74.5959 123.852 74.5255 124.214 74.3848C124.576 74.224 124.867 74.0331 125.089 73.812C125.33 73.5708 125.511 73.3095 125.631 73.0281C125.772 72.7467 125.883 72.4753 125.963 72.214L130.184 73.1185C130.023 73.8622 129.762 74.5356 129.4 75.1386C129.058 75.7416 128.586 76.2642 127.983 76.7064C127.4 77.1486 126.687 77.4803 125.842 77.7014C125.018 77.9426 124.033 78.0632 122.888 78.0632ZM139.675 78.0632C138.61 78.0632 137.645 77.9627 136.781 77.7617C135.916 77.5808 135.163 77.3094 134.52 76.9476C133.876 76.5858 133.344 76.1536 132.922 75.6511C132.52 75.1285 132.238 74.5557 132.077 73.9326L135.695 72.3346C135.836 72.6763 136.077 73.0281 136.419 73.3899C136.781 73.7316 137.253 74.013 137.836 74.2341C138.439 74.4552 139.163 74.5657 140.007 74.5657C140.811 74.5657 141.434 74.4552 141.876 74.2341C142.338 73.9929 142.57 73.6512 142.57 73.209C142.57 72.8874 142.439 72.6361 142.178 72.4552C141.936 72.2542 141.565 72.0833 141.062 71.9426C140.56 71.7818 139.937 71.6311 139.193 71.4904C138.429 71.3296 137.655 71.1487 136.871 70.9477C136.087 70.7266 135.354 70.4351 134.67 70.0733C133.987 69.6914 133.434 69.199 133.012 68.596C132.61 67.9729 132.409 67.189 132.409 66.2442C132.409 65.2593 132.67 64.4051 133.193 63.6815C133.716 62.9378 134.489 62.3549 135.514 61.9327C136.56 61.5106 137.826 61.2996 139.313 61.2996C140.64 61.2996 141.806 61.4704 142.811 61.8121C143.816 62.1539 144.65 62.6463 145.313 63.2895C145.997 63.9126 146.469 64.6664 146.73 65.5508L142.841 66.9377C142.74 66.4955 142.529 66.1136 142.208 65.792C141.906 65.4704 141.514 65.2292 141.032 65.0684C140.57 64.8875 140.017 64.797 139.374 64.797C138.59 64.797 137.977 64.9176 137.535 65.1588C137.112 65.4 136.901 65.7216 136.901 66.1236C136.901 66.4452 137.042 66.7166 137.323 66.9377C137.625 67.1387 138.047 67.3096 138.59 67.4503C139.133 67.591 139.776 67.7417 140.519 67.9025C141.303 68.0633 142.077 68.2543 142.841 68.4754C143.625 68.6764 144.328 68.9578 144.952 69.3196C145.595 69.6613 146.097 70.1236 146.459 70.7065C146.841 71.2693 147.032 72.0029 147.032 72.9075C147.032 73.9728 146.75 74.8974 146.188 75.6813C145.625 76.4451 144.791 77.038 143.685 77.4602C142.6 77.8622 141.263 78.0632 139.675 78.0632Z" fill="#B6B4E6"/>
<path d="M44.4417 39.5453C44.4394 40.3982 43.7334 41.1041 42.8806 41.1064C42.0277 41.1087 41.3255 40.4065 41.3278 39.5537L41.3306 38.5422C41.331 38.3835 41.2024 38.2549 41.0437 38.2554L40.0917 38.2579C39.2587 38.2602 38.5365 37.6374 38.4792 36.8045C38.4321 35.9022 39.1481 35.1466 40.0406 35.1442L41.062 35.1514C41.2207 35.1509 41.35 35.0217 41.3504 34.863L41.3532 33.8317C41.3555 32.9788 42.0615 32.2728 42.9143 32.2705C43.7672 32.2682 44.4694 32.9704 44.4671 33.8233L44.4544 34.8447C44.454 35.0034 44.5825 35.132 44.7412 35.1315L45.7627 35.1189C46.6155 35.1166 47.3177 35.8188 47.3154 36.6716C47.3131 37.5245 46.6071 38.2305 45.7543 38.2328L44.7328 38.2454C44.5741 38.2459 44.4449 38.3751 44.4444 38.5338L44.4417 39.5453Z" fill="#FFFFDB"/>
<path d="M179.128 71.0167C178.005 71.0176 177.079 70.0915 177.08 68.9688C177.081 67.8461 178.008 66.9185 179.131 66.9175L180.463 66.9165C180.671 66.9163 180.841 66.7465 180.841 66.5376L180.842 65.2843C180.843 64.1877 181.667 63.2341 182.763 63.1548C183.951 63.0886 184.943 64.0277 184.942 65.2027L184.928 66.5473C184.927 66.7562 185.097 66.9258 185.306 66.9256L186.664 66.9245C187.786 66.9236 188.712 67.8497 188.711 68.9724C188.711 70.0952 187.783 71.0228 186.66 71.0237L185.316 71.0117C185.107 71.0119 184.937 71.1817 184.937 71.3906L184.949 72.7352C184.948 73.858 184.02 74.7856 182.897 74.7865C181.775 74.7874 180.849 73.8613 180.849 72.7386L180.838 71.3939C180.838 71.1851 180.668 71.0155 180.459 71.0157L179.128 71.0167Z" fill="#FFFFDB"/>
<path d="M39.1329 112.98V97.4966H42.5306V112.98H39.1329ZM47.8898 113.281C47.2589 113.281 46.6998 113.159 46.2124 112.916C45.7249 112.658 45.345 112.292 45.0726 111.819C44.8002 111.331 44.664 110.744 44.664 110.055C44.664 109.41 44.7859 108.88 45.0296 108.464C45.2877 108.034 45.6532 107.697 46.1263 107.453C46.6138 107.195 47.1944 106.987 47.8682 106.83C48.5421 106.658 49.3091 106.507 50.1693 106.378C50.585 106.306 50.9291 106.242 51.2015 106.185C51.4882 106.113 51.7033 106.005 51.8467 105.862C51.99 105.719 52.0617 105.511 52.0617 105.238C52.0617 104.88 51.9327 104.572 51.6746 104.314C51.4166 104.056 51.0008 103.927 50.4273 103.927C50.0259 103.927 49.6603 103.998 49.3306 104.142C49.0152 104.285 48.7428 104.493 48.5134 104.765C48.284 105.038 48.112 105.367 47.9973 105.754L44.9436 104.851C45.1299 104.249 45.388 103.726 45.7178 103.281C46.0618 102.837 46.4704 102.471 46.9435 102.185C47.4166 101.884 47.9543 101.669 48.5564 101.54C49.1729 101.396 49.8252 101.324 50.5134 101.324C51.6603 101.324 52.5922 101.511 53.309 101.884C54.0402 102.242 54.5778 102.808 54.9219 103.583C55.2803 104.342 55.4595 105.324 55.4595 106.529V108.271C55.4595 108.787 55.4667 109.31 55.481 109.84C55.5097 110.357 55.5383 110.88 55.567 111.41C55.61 111.926 55.6602 112.45 55.7176 112.98H52.6638C52.6065 112.65 52.5492 112.256 52.4918 111.797C52.4345 111.324 52.3915 110.844 52.3628 110.357H51.9542C51.7535 110.901 51.4596 111.403 51.0725 111.862C50.6997 112.306 50.241 112.658 49.6962 112.916C49.1657 113.159 48.5636 113.281 47.8898 113.281ZM49.4596 110.83C49.7177 110.83 49.9757 110.787 50.2338 110.701C50.5062 110.6 50.7642 110.471 51.008 110.314C51.2517 110.142 51.4739 109.934 51.6746 109.69C51.8753 109.446 52.0259 109.181 52.1262 108.894L52.0832 107.195L52.5563 107.303C52.2839 107.475 51.9829 107.611 51.6531 107.711C51.3234 107.812 50.9865 107.891 50.6424 107.948C50.3126 108.005 49.9829 108.07 49.6532 108.142C49.3378 108.199 49.051 108.278 48.793 108.378C48.5492 108.478 48.3557 108.615 48.2123 108.787C48.069 108.959 47.9973 109.195 47.9973 109.496C47.9973 109.898 48.1335 110.22 48.4059 110.464C48.6783 110.708 49.0295 110.83 49.4596 110.83ZM65.36 112.98L61.6396 101.647H65.489L67.6395 110.271H68.0051L70.1986 101.647H73.876L70.1341 112.98H65.36ZM75.3805 112.98V101.626H78.8428V112.98H75.3805ZM77.1224 100.034C76.4629 100.034 75.9539 99.898 75.5955 99.6256C75.2514 99.3389 75.0794 98.9374 75.0794 98.4213C75.0794 97.8765 75.2514 97.4679 75.5955 97.1955C75.9539 96.9088 76.4629 96.7654 77.1224 96.7654C77.7962 96.7654 78.3051 96.9088 78.6492 97.1955C79.0076 97.4679 79.1868 97.8694 79.1868 98.3998C79.1868 98.9303 79.0076 99.3389 78.6492 99.6256C78.3051 99.898 77.7962 100.034 77.1224 100.034ZM86.7594 113.281C85.6125 113.281 84.5946 113.059 83.7057 112.615C82.8312 112.17 82.143 111.503 81.6413 110.615C81.1395 109.726 80.8886 108.615 80.8886 107.281C80.8886 105.948 81.1395 104.844 81.6413 103.97C82.143 103.081 82.8384 102.421 83.7272 101.991C84.6161 101.547 85.634 101.324 86.7809 101.324C87.9279 101.324 88.9458 101.547 89.8346 101.991C90.7235 102.436 91.4188 103.102 91.9206 103.991C92.4224 104.866 92.6733 105.97 92.6733 107.303C92.6733 108.665 92.4152 109.79 91.8991 110.679C91.383 111.568 90.6733 112.227 89.7701 112.658C88.8813 113.073 87.8777 113.281 86.7594 113.281ZM86.867 110.765C87.3831 110.765 87.8132 110.65 88.1573 110.421C88.5013 110.177 88.7594 109.812 88.9314 109.324C89.1035 108.837 89.1895 108.235 89.1895 107.518C89.1895 106.758 89.0963 106.12 88.9099 105.604C88.7236 105.074 88.444 104.672 88.0712 104.4C87.7128 104.113 87.2469 103.97 86.6734 103.97C86.186 103.97 85.763 104.091 85.4046 104.335C85.0606 104.565 84.8025 104.923 84.6305 105.41C84.4584 105.898 84.3724 106.507 84.3724 107.238C84.3724 108.414 84.5874 109.296 85.0175 109.883C85.462 110.471 86.0785 110.765 86.867 110.765ZM94.7013 112.98V97.4966H98.0991V112.98H94.7013ZM106.189 113.281C105.243 113.281 104.397 113.159 103.652 112.916C102.906 112.658 102.268 112.285 101.738 111.797C101.222 111.31 100.827 110.708 100.555 109.991C100.283 109.274 100.146 108.45 100.146 107.518C100.146 106.615 100.275 105.783 100.534 105.023C100.806 104.263 101.186 103.611 101.673 103.066C102.175 102.507 102.784 102.077 103.501 101.776C104.232 101.475 105.05 101.324 105.953 101.324C106.87 101.324 107.673 101.475 108.361 101.776C109.064 102.063 109.637 102.493 110.082 103.066C110.541 103.64 110.877 104.342 111.092 105.174C111.308 105.991 111.379 106.93 111.308 107.991L102.426 108.056V106.249L109.329 106.185L108.103 107.023C108.204 106.306 108.161 105.726 107.974 105.281C107.788 104.823 107.515 104.493 107.157 104.292C106.799 104.077 106.412 103.97 105.996 103.97C105.494 103.97 105.05 104.106 104.662 104.378C104.29 104.651 103.996 105.045 103.781 105.561C103.566 106.077 103.458 106.708 103.458 107.453C103.458 108.629 103.709 109.482 104.211 110.012C104.727 110.543 105.379 110.808 106.168 110.808C106.555 110.808 106.877 110.758 107.136 110.658C107.394 110.543 107.601 110.407 107.759 110.249C107.931 110.077 108.06 109.891 108.146 109.69C108.247 109.489 108.325 109.296 108.383 109.109L111.394 109.754C111.279 110.285 111.092 110.765 110.834 111.195C110.591 111.625 110.254 111.998 109.824 112.314C109.408 112.629 108.899 112.865 108.297 113.023C107.709 113.195 107.007 113.281 106.189 113.281ZM113.413 112.98V106.142V101.626H116.209L116.252 104.959H116.682C116.868 104.156 117.134 103.482 117.478 102.937C117.822 102.393 118.259 101.991 118.789 101.733C119.32 101.461 119.943 101.324 120.66 101.324C121.994 101.324 123.004 101.79 123.693 102.722C124.395 103.654 124.746 105.138 124.746 107.174V112.98H121.262V107.561C121.262 106.385 121.09 105.532 120.746 105.002C120.417 104.457 119.922 104.185 119.262 104.185C118.718 104.185 118.266 104.35 117.908 104.679C117.564 105.009 117.306 105.446 117.134 105.991C116.961 106.536 116.875 107.145 116.875 107.819V112.98H113.413ZM132.586 113.281C131.612 113.281 130.751 113.145 130.006 112.873C129.26 112.6 128.637 112.213 128.135 111.711C127.633 111.195 127.246 110.579 126.974 109.862C126.716 109.145 126.587 108.342 126.587 107.453C126.587 106.536 126.716 105.704 126.974 104.959C127.246 104.213 127.633 103.568 128.135 103.023C128.637 102.479 129.253 102.063 129.984 101.776C130.716 101.475 131.554 101.324 132.5 101.324C133.447 101.324 134.264 101.475 134.952 101.776C135.64 102.077 136.199 102.5 136.629 103.045C137.074 103.59 137.375 104.22 137.533 104.937L134.328 106.013C134.285 105.539 134.171 105.152 133.984 104.851C133.798 104.55 133.554 104.335 133.253 104.206C132.966 104.063 132.651 103.991 132.307 103.991C131.949 103.991 131.633 104.063 131.361 104.206C131.088 104.35 130.859 104.565 130.673 104.851C130.486 105.138 130.343 105.489 130.242 105.905C130.142 106.306 130.092 106.772 130.092 107.303C130.092 108.063 130.185 108.701 130.371 109.217C130.572 109.719 130.859 110.099 131.232 110.357C131.619 110.615 132.085 110.744 132.63 110.744C133.189 110.744 133.626 110.629 133.941 110.4C134.257 110.17 134.486 109.891 134.629 109.561C134.773 109.217 134.859 108.88 134.888 108.55L137.898 109.217C137.841 109.747 137.698 110.263 137.468 110.765C137.253 111.253 136.93 111.69 136.5 112.077C136.07 112.45 135.533 112.744 134.888 112.959C134.257 113.174 133.49 113.281 132.586 113.281ZM139.517 112.98V101.626H142.98V112.98H139.517ZM141.259 100.034C140.6 100.034 140.091 99.898 139.732 99.6256C139.388 99.3389 139.216 98.9374 139.216 98.4213C139.216 97.8765 139.388 97.4679 139.732 97.1955C140.091 96.9088 140.6 96.7654 141.259 96.7654C141.933 96.7654 142.442 96.9088 142.786 97.1955C143.144 97.4679 143.324 97.8694 143.324 98.3998C143.324 98.9303 143.144 99.3389 142.786 99.6256C142.442 99.898 141.933 100.034 141.259 100.034ZM148.337 113.281C147.706 113.281 147.147 113.159 146.66 112.916C146.172 112.658 145.792 112.292 145.52 111.819C145.248 111.331 145.111 110.744 145.111 110.055C145.111 109.41 145.233 108.88 145.477 108.464C145.735 108.034 146.101 107.697 146.574 107.453C147.061 107.195 147.642 106.987 148.316 106.83C148.99 106.658 149.757 106.507 150.617 106.378C151.032 106.306 151.377 106.242 151.649 106.185C151.936 106.113 152.151 106.005 152.294 105.862C152.437 105.719 152.509 105.511 152.509 105.238C152.509 104.88 152.38 104.572 152.122 104.314C151.864 104.056 151.448 103.927 150.875 103.927C150.473 103.927 150.108 103.998 149.778 104.142C149.463 104.285 149.19 104.493 148.961 104.765C148.731 105.038 148.559 105.367 148.445 105.754L145.391 104.851C145.577 104.249 145.835 103.726 146.165 103.281C146.509 102.837 146.918 102.471 147.391 102.185C147.864 101.884 148.402 101.669 149.004 101.54C149.62 101.396 150.273 101.324 150.961 101.324C152.108 101.324 153.04 101.511 153.756 101.884C154.488 102.242 155.025 102.808 155.369 103.583C155.728 104.342 155.907 105.324 155.907 106.529V108.271C155.907 108.787 155.914 109.31 155.928 109.84C155.957 110.357 155.986 110.88 156.014 111.41C156.057 111.926 156.108 112.45 156.165 112.98H153.111C153.054 112.65 152.997 112.256 152.939 111.797C152.882 111.324 152.839 110.844 152.81 110.357H152.402C152.201 110.901 151.907 111.403 151.52 111.862C151.147 112.306 150.688 112.658 150.144 112.916C149.613 113.159 149.011 113.281 148.337 113.281ZM149.907 110.83C150.165 110.83 150.423 110.787 150.681 110.701C150.954 110.6 151.212 110.471 151.455 110.314C151.699 110.142 151.921 109.934 152.122 109.69C152.323 109.446 152.473 109.181 152.574 108.894L152.531 107.195L153.004 107.303C152.731 107.475 152.43 107.611 152.101 107.711C151.771 107.812 151.434 107.891 151.09 107.948C150.76 108.005 150.43 108.07 150.101 108.142C149.785 108.199 149.498 108.278 149.24 108.378C148.997 108.478 148.803 108.615 148.66 108.787C148.516 108.959 148.445 109.195 148.445 109.496C148.445 109.898 148.581 110.22 148.853 110.464C149.126 110.708 149.477 110.83 149.907 110.83ZM43.2833 134.281C42.3371 134.281 41.5056 134.045 40.7887 133.572C40.0863 133.084 39.5343 132.396 39.1329 131.507C38.7314 130.604 38.5307 129.529 38.5307 128.281C38.5307 127.134 38.7028 126.117 39.0468 125.228C39.3909 124.339 39.8999 123.643 40.5737 123.142C41.2619 122.626 42.1077 122.367 43.1113 122.367C43.8281 122.367 44.4303 122.497 44.9177 122.755C45.4195 123.013 45.8352 123.4 46.165 123.916C46.4947 124.432 46.76 125.084 46.9607 125.873H47.4983C47.3979 125.385 47.3047 124.927 47.2187 124.496C47.1327 124.052 47.061 123.643 47.0037 123.271C46.9607 122.884 46.9392 122.547 46.9392 122.26V118.497H50.423V128.432V133.98H47.5843L47.5413 130.625H47.0682C46.9105 131.486 46.6596 132.188 46.3155 132.733C45.9858 133.263 45.5628 133.658 45.0467 133.916C44.5449 134.159 43.9571 134.281 43.2833 134.281ZM44.5306 131.486C44.975 131.486 45.3478 131.392 45.6489 131.206C45.9643 131.005 46.2152 130.754 46.4015 130.453C46.5879 130.152 46.7241 129.83 46.8101 129.486C46.8962 129.142 46.9392 128.819 46.9392 128.518V128.066C46.9392 127.794 46.9033 127.522 46.8316 127.249C46.76 126.977 46.6524 126.711 46.5091 126.453C46.38 126.195 46.2152 125.966 46.0145 125.765C45.8137 125.565 45.5772 125.407 45.3048 125.292C45.0467 125.177 44.76 125.12 44.4446 125.12C43.9715 125.12 43.5629 125.249 43.2188 125.507C42.8891 125.765 42.631 126.131 42.4446 126.604C42.2726 127.077 42.1866 127.636 42.1866 128.281C42.1866 128.927 42.2798 129.493 42.4661 129.98C42.6525 130.453 42.9249 130.826 43.2833 131.099C43.6417 131.357 44.0575 131.486 44.5306 131.486ZM53.0985 133.98V122.626H56.5608V133.98H53.0985ZM54.8404 121.034C54.1809 121.034 53.6719 120.898 53.3135 120.626C52.9695 120.339 52.7974 119.937 52.7974 119.421C52.7974 118.877 52.9695 118.468 53.3135 118.196C53.6719 117.909 54.1809 117.765 54.8404 117.765C55.5142 117.765 56.0232 117.909 56.3672 118.196C56.7257 118.468 56.9049 118.869 56.9049 119.4C56.9049 119.93 56.7257 120.339 56.3672 120.626C56.0232 120.898 55.5142 121.034 54.8404 121.034ZM63.8323 137.959C62.5707 137.959 61.5313 137.858 60.7141 137.658C59.9112 137.471 59.3234 137.184 58.9507 136.797C58.5779 136.425 58.3916 135.966 58.3916 135.421C58.3916 134.762 58.6496 134.224 59.1657 133.808C59.6962 133.392 60.4704 133.156 61.4883 133.098V132.647C60.6998 132.647 60.0904 132.568 59.6604 132.41C59.2446 132.253 59.0367 131.959 59.0367 131.529C59.0367 131.127 59.2446 130.762 59.6604 130.432C60.0761 130.102 60.7643 129.844 61.7248 129.658V129.206C60.8503 129.134 60.155 128.848 59.6388 128.346C59.1227 127.83 58.8647 127.156 58.8647 126.324C58.8647 125.622 59.0654 124.984 59.4668 124.41C59.8682 123.823 60.4704 123.357 61.2732 123.013C62.0761 122.654 63.0796 122.475 64.2839 122.475H70.1763V125.077L66.5849 124.604V125.12C67.5168 125.249 68.1835 125.464 68.5849 125.765C68.9863 126.066 69.187 126.489 69.187 127.034C69.187 127.608 68.9863 128.116 68.5849 128.561C68.1978 129.005 67.6459 129.357 66.929 129.615C66.2122 129.858 65.3592 129.98 64.3699 129.98C64.1979 129.98 64.0044 129.973 63.7893 129.959C63.5886 129.944 63.2087 129.909 62.6495 129.851C62.4202 130.052 62.2409 130.224 62.1119 130.367C61.9829 130.496 61.9184 130.618 61.9184 130.733C61.9184 130.819 61.9542 130.891 62.0259 130.948C62.0976 131.005 62.1979 131.048 62.327 131.077C62.4703 131.091 62.6209 131.099 62.7786 131.099H66.2409C66.5276 131.099 66.9004 131.12 67.3591 131.163C67.8322 131.192 68.2982 131.299 68.7569 131.486C69.2301 131.672 69.6243 131.973 69.9397 132.389C70.2695 132.805 70.4343 133.4 70.4343 134.174C70.4343 135.02 70.1978 135.722 69.7247 136.281C69.2516 136.855 68.5276 137.278 67.5527 137.55C66.5778 137.822 65.3377 137.959 63.8323 137.959ZM64.2839 135.206C65.1154 135.206 65.7606 135.163 66.2194 135.077C66.6781 134.991 66.9935 134.855 67.1656 134.668C67.352 134.482 67.4451 134.253 67.4451 133.98C67.4451 133.722 67.395 133.521 67.2946 133.378C67.1943 133.22 67.0652 133.113 66.9075 133.055C66.7498 132.998 66.5849 132.962 66.4129 132.948C66.2552 132.934 66.119 132.926 66.0043 132.926H63.2302C62.6997 132.926 62.3055 133.055 62.0474 133.314C61.8037 133.557 61.6818 133.844 61.6818 134.174C61.6818 134.446 61.7678 134.654 61.9399 134.797C62.1119 134.955 62.3843 135.063 62.7571 135.12C63.1442 135.177 63.6531 135.206 64.2839 135.206ZM64.1334 128.26C64.7499 128.26 65.2086 128.095 65.5097 127.765C65.8251 127.435 65.9828 127.02 65.9828 126.518C65.9828 125.973 65.8251 125.529 65.5097 125.185C65.1943 124.826 64.7427 124.647 64.1549 124.647C63.5671 124.647 63.1083 124.826 62.7786 125.185C62.4488 125.529 62.284 125.973 62.284 126.518C62.284 126.848 62.3556 127.149 62.499 127.421C62.6424 127.679 62.8503 127.887 63.1226 128.045C63.395 128.188 63.732 128.26 64.1334 128.26ZM72.3143 133.98V122.626H75.7766V133.98H72.3143ZM74.0562 121.034C73.3967 121.034 72.8878 120.898 72.5294 120.626C72.1853 120.339 72.0133 119.937 72.0133 119.421C72.0133 118.877 72.1853 118.468 72.5294 118.196C72.8878 117.909 73.3967 117.765 74.0562 117.765C74.7301 117.765 75.239 117.909 75.5831 118.196C75.9415 118.468 76.1207 118.869 76.1207 119.4C76.1207 119.93 75.9415 120.339 75.5831 120.626C75.239 120.898 74.7301 121.034 74.0562 121.034ZM82.8976 134.26C81.5643 134.26 80.5823 133.908 79.9514 133.206C79.3206 132.489 79.0052 131.349 79.0052 129.787V125.335H77.3924L77.4569 122.647H78.6181C79.0769 122.633 79.421 122.561 79.6504 122.432C79.8941 122.303 80.0446 122.059 80.102 121.701L80.3815 120.109H82.3385V122.626H85.0696V125.443H82.3385V129.636C82.3385 130.124 82.4532 130.482 82.6826 130.711C82.9263 130.941 83.2919 131.055 83.7793 131.055C84.0517 131.055 84.3098 131.027 84.5535 130.969C84.7972 130.912 84.9979 130.833 85.1556 130.733V133.937C84.6969 134.081 84.2739 134.167 83.8869 134.195C83.5141 134.238 83.1844 134.26 82.8976 134.26ZM89.8706 134.281C89.2398 134.281 88.6807 134.159 88.1932 133.916C87.7058 133.658 87.3259 133.292 87.0535 132.819C86.7811 132.331 86.6449 131.744 86.6449 131.055C86.6449 130.41 86.7667 129.88 87.0104 129.464C87.2685 129.034 87.6341 128.697 88.1072 128.453C88.5946 128.195 89.1753 127.987 89.8491 127.83C90.5229 127.658 91.2899 127.507 92.1501 127.378C92.5659 127.306 92.91 127.242 93.1824 127.185C93.4691 127.113 93.6841 127.005 93.8275 126.862C93.9709 126.719 94.0426 126.511 94.0426 126.238C94.0426 125.88 93.9135 125.572 93.6555 125.314C93.3974 125.056 92.9817 124.927 92.4082 124.927C92.0068 124.927 91.6412 124.998 91.3114 125.142C90.996 125.285 90.7236 125.493 90.4942 125.765C90.2649 126.038 90.0928 126.367 89.9781 126.754L86.9244 125.851C87.1108 125.249 87.3689 124.726 87.6986 124.281C88.0427 123.837 88.4513 123.471 88.9244 123.185C89.3975 122.884 89.9351 122.669 90.5373 122.54C91.1537 122.396 91.806 122.324 92.4942 122.324C93.6411 122.324 94.573 122.511 95.2899 122.884C96.021 123.242 96.5586 123.808 96.9027 124.583C97.2611 125.342 97.4403 126.324 97.4403 127.529V129.271C97.4403 129.787 97.4475 130.31 97.4619 130.84C97.4905 131.357 97.5192 131.88 97.5479 132.41C97.5909 132.926 97.6411 133.45 97.6984 133.98H94.6447C94.5874 133.65 94.53 133.256 94.4727 132.797C94.4153 132.324 94.3723 131.844 94.3436 131.357H93.935C93.7343 131.901 93.4404 132.403 93.0533 132.862C92.6806 133.306 92.2218 133.658 91.677 133.916C91.1466 134.159 90.5444 134.281 89.8706 134.281ZM91.4405 131.83C91.6985 131.83 91.9566 131.787 92.2146 131.701C92.487 131.6 92.7451 131.471 92.9888 131.314C93.2325 131.142 93.4548 130.934 93.6555 130.69C93.8562 130.446 94.0067 130.181 94.1071 129.894L94.0641 128.195L94.5372 128.303C94.2648 128.475 93.9637 128.611 93.634 128.711C93.3042 128.812 92.9673 128.891 92.6232 128.948C92.2935 129.005 91.9638 129.07 91.634 129.142C91.3186 129.199 91.0319 129.278 90.7738 129.378C90.5301 129.478 90.3365 129.615 90.1932 129.787C90.0498 129.959 89.9781 130.195 89.9781 130.496C89.9781 130.898 90.1143 131.22 90.3867 131.464C90.6591 131.708 91.0104 131.83 91.4405 131.83ZM99.9936 133.98V118.497H103.391V133.98H99.9936ZM115.022 134.281C114.076 134.281 113.245 134.045 112.528 133.572C111.825 133.084 111.273 132.396 110.872 131.507C110.471 130.604 110.27 129.529 110.27 128.281C110.27 127.134 110.442 126.117 110.786 125.228C111.13 124.339 111.639 123.643 112.313 123.142C113.001 122.626 113.847 122.367 114.85 122.367C115.567 122.367 116.169 122.497 116.657 122.755C117.159 123.013 117.574 123.4 117.904 123.916C118.234 124.432 118.499 125.084 118.7 125.873H119.237C119.137 125.385 119.044 124.927 118.958 124.496C118.872 124.052 118.8 123.643 118.743 123.271C118.7 122.884 118.678 122.547 118.678 122.26V118.497H122.162V128.432V133.98H119.323L119.28 130.625H118.807C118.65 131.486 118.399 132.188 118.055 132.733C117.725 133.263 117.302 133.658 116.786 133.916C116.284 134.159 115.696 134.281 115.022 134.281ZM116.27 131.486C116.714 131.486 117.087 131.392 117.388 131.206C117.703 131.005 117.954 130.754 118.141 130.453C118.327 130.152 118.463 129.83 118.549 129.486C118.635 129.142 118.678 128.819 118.678 128.518V128.066C118.678 127.794 118.642 127.522 118.571 127.249C118.499 126.977 118.392 126.711 118.248 126.453C118.119 126.195 117.954 125.966 117.754 125.765C117.553 125.565 117.316 125.407 117.044 125.292C116.786 125.177 116.499 125.12 116.184 125.12C115.711 125.12 115.302 125.249 114.958 125.507C114.628 125.765 114.37 126.131 114.184 126.604C114.012 127.077 113.926 127.636 113.926 128.281C113.926 128.927 114.019 129.493 114.205 129.98C114.392 130.453 114.664 130.826 115.022 131.099C115.381 131.357 115.797 131.486 116.27 131.486ZM130.235 134.281C129.289 134.281 128.443 134.159 127.698 133.916C126.952 133.658 126.314 133.285 125.784 132.797C125.268 132.31 124.873 131.708 124.601 130.991C124.329 130.274 124.192 129.45 124.192 128.518C124.192 127.615 124.322 126.783 124.58 126.023C124.852 125.263 125.232 124.611 125.719 124.066C126.221 123.507 126.83 123.077 127.547 122.776C128.278 122.475 129.096 122.324 129.999 122.324C130.916 122.324 131.719 122.475 132.407 122.776C133.11 123.063 133.683 123.493 134.128 124.066C134.587 124.64 134.923 125.342 135.139 126.174C135.354 126.991 135.425 127.93 135.354 128.991L126.472 129.056V127.249L133.375 127.185L132.149 128.023C132.25 127.306 132.207 126.726 132.02 126.281C131.834 125.823 131.562 125.493 131.203 125.292C130.845 125.077 130.458 124.97 130.042 124.97C129.54 124.97 129.096 125.106 128.709 125.378C128.336 125.651 128.042 126.045 127.827 126.561C127.612 127.077 127.504 127.708 127.504 128.453C127.504 129.629 127.755 130.482 128.257 131.012C128.773 131.543 129.425 131.808 130.214 131.808C130.601 131.808 130.924 131.758 131.182 131.658C131.44 131.543 131.648 131.407 131.805 131.249C131.977 131.077 132.106 130.891 132.192 130.69C132.293 130.489 132.372 130.296 132.429 130.109L135.44 130.754C135.325 131.285 135.139 131.765 134.88 132.195C134.637 132.625 134.3 132.998 133.87 133.314C133.454 133.629 132.945 133.865 132.343 134.023C131.755 134.195 131.053 134.281 130.235 134.281ZM43.7134 158.959C42.4518 158.959 41.4124 158.858 40.5952 158.658C39.7924 158.471 39.2046 158.184 38.8318 157.797C38.459 157.425 38.2727 156.966 38.2727 156.421C38.2727 155.762 38.5307 155.224 39.0468 154.808C39.5773 154.392 40.3515 154.156 41.3694 154.098V153.647C40.5809 153.647 39.9716 153.568 39.5415 153.41C39.1257 153.253 38.9178 152.959 38.9178 152.529C38.9178 152.127 39.1257 151.762 39.5415 151.432C39.9572 151.102 40.6454 150.844 41.6059 150.658V150.206C40.7314 150.134 40.0361 149.848 39.52 149.346C39.0038 148.83 38.7458 148.156 38.7458 147.324C38.7458 146.622 38.9465 145.984 39.3479 145.41C39.7493 144.823 40.3515 144.357 41.1543 144.013C41.9572 143.654 42.9607 143.475 44.165 143.475H50.0574V146.077L46.4661 145.604V146.12C47.3979 146.249 48.0646 146.464 48.466 146.765C48.8674 147.066 49.0682 147.489 49.0682 148.034C49.0682 148.608 48.8674 149.116 48.466 149.561C48.0789 150.005 47.527 150.357 46.8101 150.615C46.0933 150.858 45.2403 150.98 44.251 150.98C44.079 150.98 43.8855 150.973 43.6704 150.959C43.4697 150.944 43.0898 150.909 42.5306 150.851C42.3013 151.052 42.1221 151.224 41.993 151.367C41.864 151.496 41.7995 151.618 41.7995 151.733C41.7995 151.819 41.8353 151.891 41.907 151.948C41.9787 152.005 42.079 152.048 42.2081 152.077C42.3514 152.091 42.502 152.099 42.6597 152.099H46.122C46.4087 152.099 46.7815 152.12 47.2402 152.163C47.7133 152.192 48.1793 152.299 48.6381 152.486C49.1112 152.672 49.5054 152.973 49.8208 153.389C50.1506 153.805 50.3154 154.4 50.3154 155.174C50.3154 156.02 50.0789 156.722 49.6058 157.281C49.1327 157.855 48.4087 158.278 47.4338 158.55C46.4589 158.822 45.2188 158.959 43.7134 158.959ZM44.165 156.206C44.9966 156.206 45.6417 156.163 46.1005 156.077C46.5592 155.991 46.8746 155.855 47.0467 155.668C47.2331 155.482 47.3263 155.253 47.3263 154.98C47.3263 154.722 47.2761 154.521 47.1757 154.378C47.0754 154.22 46.9463 154.113 46.7886 154.055C46.6309 153.998 46.4661 153.962 46.294 153.948C46.1363 153.934 46.0001 153.926 45.8854 153.926H43.1113C42.5808 153.926 42.1866 154.055 41.9285 154.314C41.6848 154.557 41.5629 154.844 41.5629 155.174C41.5629 155.446 41.6489 155.654 41.821 155.797C41.993 155.955 42.2654 156.063 42.6382 156.12C43.0253 156.177 43.5342 156.206 44.165 156.206ZM44.0145 149.26C44.631 149.26 45.0897 149.095 45.3908 148.765C45.7062 148.435 45.8639 148.02 45.8639 147.518C45.8639 146.973 45.7062 146.529 45.3908 146.185C45.0754 145.826 44.6238 145.647 44.036 145.647C43.4482 145.647 42.9894 145.826 42.6597 146.185C42.3299 146.529 42.1651 146.973 42.1651 147.518C42.1651 147.848 42.2367 148.149 42.3801 148.421C42.5235 148.679 42.7314 148.887 43.0038 149.045C43.2762 149.188 43.6131 149.26 44.0145 149.26ZM57.3622 155.281C56.416 155.281 55.5701 155.159 54.8246 154.916C54.0791 154.658 53.4411 154.285 52.9107 153.797C52.3945 153.31 52.0003 152.708 51.7279 151.991C51.4555 151.274 51.3193 150.45 51.3193 149.518C51.3193 148.615 51.4483 147.783 51.7064 147.023C51.9788 146.263 52.3587 145.611 52.8461 145.066C53.3479 144.507 53.9572 144.077 54.6741 143.776C55.4052 143.475 56.2224 143.324 57.1256 143.324C58.0432 143.324 58.846 143.475 59.5342 143.776C60.2367 144.063 60.8101 144.493 61.2546 145.066C61.7133 145.64 62.0503 146.342 62.2653 147.174C62.4804 147.991 62.552 148.93 62.4804 149.991L53.5988 150.056V148.249L60.5019 148.185L59.2761 149.023C59.3765 148.306 59.3335 147.726 59.1471 147.281C58.9607 146.823 58.6883 146.493 58.3299 146.292C57.9715 146.077 57.5844 145.97 57.1686 145.97C56.6669 145.97 56.2224 146.106 55.8353 146.378C55.4626 146.651 55.1687 147.045 54.9536 147.561C54.7386 148.077 54.631 148.708 54.631 149.453C54.631 150.629 54.8819 151.482 55.3837 152.012C55.8998 152.543 56.5522 152.808 57.3407 152.808C57.7278 152.808 58.0503 152.758 58.3084 152.658C58.5665 152.543 58.7743 152.407 58.932 152.249C59.1041 152.077 59.2331 151.891 59.3191 151.69C59.4195 151.489 59.4983 151.296 59.5557 151.109L62.5664 151.754C62.4517 152.285 62.2653 152.765 62.0072 153.195C61.7635 153.625 61.4266 153.998 60.9965 154.314C60.5808 154.629 60.0718 154.865 59.4697 155.023C58.8819 155.195 58.1794 155.281 57.3622 155.281ZM58.1149 142.142H55.5128L57.1471 138.4H60.5234L58.1149 142.142ZM64.586 154.98V148.142V143.626H67.3816L67.4246 146.959H67.8547C68.0411 146.156 68.3063 145.482 68.6504 144.937C68.9945 144.393 69.4318 143.991 69.9622 143.733C70.4927 143.461 71.1163 143.324 71.8332 143.324C73.1665 143.324 74.1772 143.79 74.8654 144.722C75.5679 145.654 75.9191 147.138 75.9191 149.174V154.98H72.4353V149.561C72.4353 148.385 72.2633 147.532 71.9192 147.002C71.5894 146.457 71.0948 146.185 70.4353 146.185C69.8905 146.185 69.4389 146.35 69.0805 146.679C68.7364 147.009 68.4784 147.446 68.3063 147.991C68.1343 148.536 68.0483 149.145 68.0483 149.819V154.98H64.586ZM83.8023 155.281C82.8561 155.281 82.0103 155.159 81.2648 154.916C80.5193 154.658 79.8813 154.285 79.3508 153.797C78.8347 153.31 78.4404 152.708 78.168 151.991C77.8957 151.274 77.7595 150.45 77.7595 149.518C77.7595 148.615 77.8885 147.783 78.1465 147.023C78.4189 146.263 78.7989 145.611 79.2863 145.066C79.7881 144.507 80.3974 144.077 81.1142 143.776C81.8454 143.475 82.6626 143.324 83.5658 143.324C84.4833 143.324 85.2862 143.475 85.9743 143.776C86.6768 144.063 87.2503 144.493 87.6947 145.066C88.1535 145.64 88.4904 146.342 88.7055 147.174C88.9205 147.991 88.9922 148.93 88.9205 149.991L80.039 150.056V148.249L86.9421 148.185L85.7163 149.023C85.8166 148.306 85.7736 147.726 85.5873 147.281C85.4009 146.823 85.1285 146.493 84.7701 146.292C84.4117 146.077 84.0246 145.97 83.6088 145.97C83.107 145.97 82.6626 146.106 82.2755 146.378C81.9027 146.651 81.6088 147.045 81.3938 147.561C81.1787 148.077 81.0712 148.708 81.0712 149.453C81.0712 150.629 81.3221 151.482 81.8239 152.012C82.34 152.543 82.9923 152.808 83.7808 152.808C84.1679 152.808 84.4905 152.758 84.7486 152.658C85.0066 152.543 85.2145 152.407 85.3722 152.249C85.5442 152.077 85.6733 151.891 85.7593 151.69C85.8597 151.489 85.9385 151.296 85.9959 151.109L89.0065 151.754C88.8919 152.285 88.7055 152.765 88.4474 153.195C88.2037 153.625 87.8668 153.998 87.4367 154.314C87.0209 154.629 86.512 154.865 85.9098 155.023C85.322 155.195 84.6195 155.281 83.8023 155.281ZM91.0262 154.98V149.711V143.626H93.8648L93.9293 147.475H94.3594C94.4598 146.471 94.6462 145.676 94.9186 145.088C95.2053 144.486 95.6067 144.048 96.1228 143.776C96.6533 143.504 97.3056 143.367 98.0798 143.367C98.1945 143.367 98.3235 143.375 98.4669 143.389C98.6102 143.389 98.7751 143.403 98.9615 143.432L98.8325 147.131C98.6031 147.016 98.3522 146.944 98.0798 146.916C97.8217 146.873 97.5923 146.851 97.3916 146.851C96.8325 146.851 96.345 146.959 95.9293 147.174C95.5279 147.389 95.2053 147.719 94.9616 148.163C94.7322 148.608 94.5816 149.167 94.51 149.84V154.98H91.0262ZM105.849 155.281C104.702 155.281 103.684 155.059 102.796 154.615C101.921 154.17 101.233 153.503 100.731 152.615C100.229 151.726 99.9784 150.615 99.9784 149.281C99.9784 147.948 100.229 146.844 100.731 145.97C101.233 145.081 101.928 144.421 102.817 143.991C103.706 143.547 104.724 143.324 105.871 143.324C107.018 143.324 108.036 143.547 108.924 143.991C109.813 144.436 110.509 145.102 111.01 145.991C111.512 146.866 111.763 147.97 111.763 149.303C111.763 150.665 111.505 151.79 110.989 152.679C110.473 153.568 109.763 154.227 108.86 154.658C107.971 155.073 106.968 155.281 105.849 155.281ZM105.957 152.765C106.473 152.765 106.903 152.65 107.247 152.421C107.591 152.177 107.849 151.812 108.021 151.324C108.193 150.837 108.279 150.235 108.279 149.518C108.279 148.758 108.186 148.12 108 147.604C107.813 147.074 107.534 146.672 107.161 146.4C106.803 146.113 106.337 145.97 105.763 145.97C105.276 145.97 104.853 146.091 104.494 146.335C104.15 146.565 103.892 146.923 103.72 147.41C103.548 147.898 103.462 148.507 103.462 149.238C103.462 150.414 103.677 151.296 104.107 151.883C104.552 152.471 105.168 152.765 105.957 152.765Z" fill="#FFFFDB"/>
<path d="M58.822 46.2628C58.8987 47.0351 58.8412 47.6786 58.6492 48.1935C58.4764 48.7083 58.2173 49.1404 57.8718 49.4898C57.5455 49.8208 57.1808 50.115 56.7777 50.3724C56.3937 50.6115 56.0194 50.8505 55.6547 51.0895C55.29 51.3286 54.9925 51.6136 54.7621 51.9446C54.5318 52.2572 54.4166 52.6525 54.4166 53.1306C54.4166 53.7741 54.6182 54.243 55.0213 54.5372C55.4436 54.813 55.981 54.951 56.6337 54.951C57.0752 54.951 57.5359 54.8958 58.0158 54.7855C58.4956 54.6935 58.9851 54.5648 59.4842 54.3993C59.9833 54.2154 60.4536 54.0132 60.8951 53.7925L61.0966 57.5436C60.5591 57.7827 60.0025 57.9849 59.4266 58.1504C58.8508 58.3159 58.2749 58.4354 57.699 58.509C57.1424 58.6009 56.5953 58.6469 56.0578 58.6469C55.2324 58.6469 54.4454 58.5457 53.6968 58.3435C52.9482 58.1412 52.2859 57.8286 51.7101 57.4057C51.1534 57.0012 50.7119 56.4863 50.3856 55.8611C50.0593 55.2544 49.8961 54.528 49.8961 53.6822C49.8961 52.9099 50.0209 52.2664 50.2704 51.7515C50.5392 51.2366 50.8751 50.7953 51.2782 50.4276C51.6813 50.0598 52.1036 49.738 52.5451 49.4622C53.0058 49.168 53.4377 48.883 53.8408 48.6072C54.2439 48.313 54.5606 47.982 54.7909 47.6143C55.0405 47.2465 55.1556 46.796 55.1365 46.2628H58.822Z" fill="#FFFFDB"/>
<path fill-rule="evenodd" clip-rule="evenodd" d="M60.4327 39.6736C61.1432 38.9913 61.1434 37.8868 60.4325 37.2058C59.7219 36.525 58.5672 36.5231 57.8561 37.2059L57.0818 37.9462C57.0227 38.0027 56.9288 38.0028 56.8698 37.9463L56.0969 37.2059C55.3861 36.5233 54.2313 36.5233 53.5205 37.2058C52.808 37.8868 52.8082 38.9914 53.5205 39.6737L54.2935 40.4142C54.3525 40.4708 54.3525 40.5606 54.2935 40.6172L53.5677 41.3124C52.8842 41.9672 52.7916 43.041 53.4415 43.745C54.1435 44.5065 55.3585 44.5328 56.0968 43.8256L56.8698 43.0836C56.9292 43.0267 57.024 43.0277 57.0809 43.0829L57.0817 43.0836L57.8561 43.8255C58.567 44.5082 59.7201 44.508 60.4324 43.8273L60.4327 43.827C61.1433 43.1446 61.1433 42.0402 60.4327 41.3578L60.4324 41.3576L59.658 40.6172C59.5986 40.5602 59.5996 40.4694 59.6572 40.4149L59.6578 40.4143L60.4327 39.6736Z" fill="#FFFFDB"/>
<path d="M196.383 71.9522C196.31 71.1599 196.356 70.515 196.521 70.0176C196.705 69.5016 196.954 69.0779 197.266 68.7462C197.579 68.3961 197.92 68.1013 198.288 67.8618C198.674 67.6039 199.042 67.3551 199.391 67.1156C199.741 66.8761 200.026 66.5997 200.247 66.2865C200.468 65.9548 200.578 65.5495 200.578 65.0704C200.578 64.4255 200.385 63.9649 199.999 63.6885C199.631 63.3937 199.125 63.2463 198.481 63.2463C198.076 63.2463 197.634 63.3016 197.156 63.4121C196.696 63.5043 196.227 63.6424 195.749 63.8267C195.289 63.9925 194.838 64.186 194.396 64.4071L194.203 60.6484C194.737 60.3904 195.27 60.1877 195.804 60.0403C196.356 59.8745 196.908 59.7547 197.46 59.681C198.012 59.5889 198.536 59.5428 199.033 59.5428C199.842 59.5428 200.597 59.6442 201.296 59.8469C201.995 60.0495 202.611 60.3628 203.145 60.7865C203.697 61.1919 204.129 61.7078 204.442 62.3343C204.755 62.9423 204.911 63.6701 204.911 64.5176C204.911 65.2915 204.782 65.9364 204.525 66.4523C204.285 66.9682 203.973 67.4104 203.586 67.7789C203.2 68.1474 202.795 68.4791 202.372 68.7739C201.949 69.0502 201.544 69.3358 201.158 69.6306C200.771 69.907 200.459 70.2294 200.219 70.5979C199.999 70.9664 199.897 71.4179 199.916 71.9522H196.383Z" fill="#FFFFDB"/>
<path fill-rule="evenodd" clip-rule="evenodd" d="M201.296 76.8222C201.977 76.1385 201.977 75.0318 201.296 74.3494C200.614 73.6672 199.508 73.6654 198.826 74.3495L198.084 75.0913C198.027 75.148 197.937 75.1481 197.881 75.0914L197.14 74.3495C196.459 73.6656 195.352 73.6655 194.671 74.3494C193.988 75.0318 193.988 76.1387 194.671 76.8224L195.411 77.5644C195.468 77.6211 195.468 77.7111 195.411 77.7678L194.716 78.4644C194.061 79.1205 193.972 80.1965 194.595 80.902C195.268 81.665 196.432 81.6914 197.14 80.9828L197.881 80.2392C197.938 80.1822 198.029 80.1832 198.083 80.2385L198.084 80.2392L198.826 80.9826C199.508 81.6667 200.613 81.6665 201.295 80.9844L201.296 80.9841C201.977 80.3003 201.977 79.1937 201.296 78.5099L201.295 78.5097L200.553 77.7678C200.496 77.7107 200.497 77.6197 200.552 77.5651L200.553 77.5645L201.296 76.8222Z" fill="#FFFFDB"/>
<path d="M187.573 140.389L177.313 110.819H181.793L190.261 136.76H190.664L199.176 110.819H203.612L193.307 140.389H187.573ZM210.277 140.389V136.849H218.923C220.925 136.849 222.567 136.386 223.852 135.46C225.166 134.505 226.152 133.205 226.809 131.563C227.466 129.89 227.794 127.934 227.794 125.694C227.794 123.812 227.6 122.169 227.212 120.765C226.824 119.362 226.211 118.197 225.375 117.271C224.569 116.315 223.523 115.598 222.239 115.12C220.984 114.613 219.476 114.359 217.714 114.359H210.277V110.819H217.624C220.94 110.819 223.658 111.402 225.778 112.567C227.929 113.731 229.497 115.404 230.482 117.584C231.498 119.735 232.006 122.333 232.006 125.38C232.006 127.471 231.782 129.337 231.334 130.98C230.886 132.593 230.243 133.997 229.407 135.192C228.601 136.386 227.66 137.372 226.585 138.149C225.509 138.895 224.33 139.463 223.045 139.851C221.761 140.209 220.417 140.389 219.013 140.389H210.277ZM208.126 140.389V110.819H212.248V140.389H208.126ZM249.567 140.971C247.177 140.971 245.042 140.404 243.16 139.269C241.278 138.134 239.8 136.446 238.725 134.206C237.649 131.966 237.112 129.158 237.112 125.783C237.112 123.364 237.395 121.213 237.963 119.332C238.56 117.42 239.426 115.792 240.561 114.448C241.726 113.074 243.145 112.029 244.818 111.312C246.49 110.595 248.417 110.237 250.597 110.237C252.21 110.237 253.673 110.446 254.988 110.864C256.332 111.282 257.497 111.895 258.482 112.701C259.468 113.478 260.259 114.448 260.857 115.613C261.454 116.778 261.812 118.122 261.932 119.645L257.989 120.631C257.9 119.018 257.497 117.719 256.78 116.733C256.063 115.748 255.152 115.031 254.047 114.583C252.972 114.105 251.792 113.866 250.507 113.866C248.745 113.866 247.177 114.269 245.803 115.075C244.429 115.882 243.339 117.166 242.533 118.928C241.756 120.661 241.368 122.901 241.368 125.649C241.368 127.799 241.607 129.621 242.085 131.115C242.563 132.608 243.22 133.818 244.056 134.744C244.892 135.64 245.848 136.297 246.923 136.715C248.028 137.133 249.193 137.342 250.418 137.342C252.031 137.342 253.39 137.043 254.495 136.446C255.63 135.849 256.526 134.938 257.183 133.713C257.87 132.489 258.303 130.965 258.482 129.143H251.986V125.873H262.47V130.353L262.514 140.389H259.154L259.916 132.235H259.289C258.93 134.176 258.333 135.789 257.497 137.073C256.69 138.358 255.63 139.328 254.316 139.985C253.001 140.642 251.418 140.971 249.567 140.971Z" fill="#D1CEED"/>
</svg>
