<svg width="440" height="217" viewBox="0 0 440 217" fill="none" xmlns="http://www.w3.org/2000/svg">
<path d="M37.0941 40.63C34.7541 40.63 32.6541 40.315 30.7941 39.685C28.9341 39.055 27.3441 38.095 26.0241 36.805C24.7341 35.515 23.7441 33.94 23.0541 32.08C22.3941 30.19 22.0641 27.985 22.0641 25.465C22.0641 22.885 22.4091 20.62 23.0991 18.67C23.7891 16.72 24.7791 15.07 26.0691 13.72C27.3891 12.37 28.9341 11.365 30.7041 10.705C32.4741 10.015 34.4391 9.67 36.5991 9.67C38.3091 9.67 39.8691 9.88 41.2791 10.3C42.7191 10.72 43.9641 11.35 45.0141 12.19C46.0641 13 46.8741 13.99 47.4441 15.16C48.0441 16.3 48.3591 17.605 48.3891 19.075L41.6841 20.92C41.6841 19.69 41.4141 18.685 40.8741 17.905C40.3641 17.125 39.7041 16.54 38.8941 16.15C38.1141 15.73 37.2591 15.52 36.3291 15.52C35.5791 15.52 34.7991 15.685 33.9891 16.015C33.2091 16.315 32.4891 16.84 31.8291 17.59C31.1691 18.31 30.6441 19.27 30.2541 20.47C29.8641 21.67 29.6691 23.17 29.6691 24.97C29.6691 27.31 29.9991 29.2 30.6591 30.64C31.3191 32.08 32.2341 33.145 33.4041 33.835C34.5741 34.495 35.8641 34.825 37.2741 34.825C38.8341 34.825 40.0341 34.495 40.8741 33.835C41.7441 33.145 42.3591 32.29 42.7191 31.27C43.0791 30.25 43.2741 29.215 43.3041 28.165L49.6041 29.155C49.5741 30.775 49.3341 32.29 48.8841 33.7C48.4341 35.11 47.7141 36.34 46.7241 37.39C45.7641 38.41 44.4891 39.205 42.8991 39.775C41.3091 40.345 39.3741 40.63 37.0941 40.63ZM64.5697 40.63C62.1697 40.63 60.0397 40.165 58.1797 39.235C56.3497 38.305 54.9097 36.91 53.8597 35.05C52.8097 33.19 52.2847 30.865 52.2847 28.075C52.2847 25.285 52.8097 22.975 53.8597 21.145C54.9097 19.285 56.3647 17.905 58.2247 17.005C60.0847 16.075 62.2147 15.61 64.6147 15.61C67.0147 15.61 69.1447 16.075 71.0047 17.005C72.8647 17.935 74.3197 19.33 75.3697 21.19C76.4197 23.02 76.9447 25.33 76.9447 28.12C76.9447 30.97 76.4047 33.325 75.3247 35.185C74.2447 37.045 72.7597 38.425 70.8697 39.325C69.0097 40.195 66.9097 40.63 64.5697 40.63ZM64.7947 35.365C65.8747 35.365 66.7747 35.125 67.4947 34.645C68.2147 34.135 68.7547 33.37 69.1147 32.35C69.4747 31.33 69.6547 30.07 69.6547 28.57C69.6547 26.98 69.4597 25.645 69.0697 24.565C68.6797 23.455 68.0947 22.615 67.3147 22.045C66.5647 21.445 65.5897 21.145 64.3897 21.145C63.3697 21.145 62.4847 21.4 61.7347 21.91C61.0147 22.39 60.4747 23.14 60.1147 24.16C59.7547 25.18 59.5747 26.455 59.5747 27.985C59.5747 30.445 60.0247 32.29 60.9247 33.52C61.8547 34.75 63.1447 35.365 64.7947 35.365ZM66.8647 13.135H61.4197L64.8397 5.305H71.9047L66.8647 13.135ZM81.1884 40V24.655V16.24H86.9034L86.9934 23.215H87.8934C88.3134 21.505 88.8684 20.095 89.5584 18.985C90.2484 17.845 91.0884 17.005 92.0784 16.465C93.0684 15.895 94.2234 15.61 95.5434 15.61C96.9234 15.61 98.0634 15.91 98.9634 16.51C99.8934 17.08 100.628 17.935 101.168 19.075C101.708 20.185 102.068 21.565 102.248 23.215H103.013C103.493 21.445 104.123 20.005 104.903 18.895C105.683 17.755 106.613 16.93 107.693 16.42C108.773 15.88 109.943 15.61 111.203 15.61C112.553 15.61 113.723 15.88 114.713 16.42C115.733 16.93 116.573 17.71 117.233 18.76C117.923 19.78 118.433 21.07 118.763 22.63C119.093 24.16 119.258 25.945 119.258 27.985V40H111.968V28.885C111.968 27.295 111.833 25.975 111.563 24.925C111.323 23.875 110.933 23.095 110.393 22.585C109.853 22.045 109.163 21.775 108.323 21.775C107.363 21.775 106.538 22.09 105.848 22.72C105.188 23.35 104.678 24.235 104.318 25.375C103.958 26.485 103.778 27.745 103.778 29.155V40H96.6684V29.02C96.6684 27.37 96.5184 26.02 96.2184 24.97C95.9484 23.92 95.5284 23.125 94.9584 22.585C94.4184 22.045 93.7284 21.775 92.8884 21.775C91.9284 21.775 91.1184 22.09 90.4584 22.72C89.7984 23.35 89.2884 24.235 88.9284 25.375C88.5984 26.485 88.4334 27.745 88.4334 29.155V40H81.1884ZM135.454 40.63C133.054 40.63 130.924 40.165 129.064 39.235C127.234 38.305 125.794 36.91 124.744 35.05C123.694 33.19 123.169 30.865 123.169 28.075C123.169 25.285 123.694 22.975 124.744 21.145C125.794 19.285 127.249 17.905 129.109 17.005C130.969 16.075 133.099 15.61 135.499 15.61C137.899 15.61 140.029 16.075 141.889 17.005C143.749 17.935 145.204 19.33 146.254 21.19C147.304 23.02 147.829 25.33 147.829 28.12C147.829 30.97 147.289 33.325 146.209 35.185C145.129 37.045 143.644 38.425 141.754 39.325C139.894 40.195 137.794 40.63 135.454 40.63ZM135.679 35.365C136.759 35.365 137.659 35.125 138.379 34.645C139.099 34.135 139.639 33.37 139.999 32.35C140.359 31.33 140.539 30.07 140.539 28.57C140.539 26.98 140.344 25.645 139.954 24.565C139.564 23.455 138.979 22.615 138.199 22.045C137.449 21.445 136.474 21.145 135.274 21.145C134.254 21.145 133.369 21.4 132.619 21.91C131.899 22.39 131.359 23.14 130.999 24.16C130.639 25.18 130.459 26.455 130.459 27.985C130.459 30.445 130.909 32.29 131.809 33.52C132.739 34.75 134.029 35.365 135.679 35.365Z" fill="#FFFFDB"/>
<path d="M161.62 46.3181V30.3546V20.2606H166.555L166.629 25.8684L167.302 25.9431C167.527 24.5474 167.925 23.3885 168.499 22.4663C169.072 21.5441 169.807 20.8587 170.704 20.4101C171.626 19.9615 172.673 19.7372 173.845 19.7372C175.589 19.7372 177.085 20.1609 178.331 21.0083C179.602 21.8557 180.574 23.0645 181.247 24.6346C181.92 26.2048 182.256 28.0865 182.256 30.2798C182.256 32.2239 181.957 33.9685 181.359 35.5138C180.786 37.059 179.901 38.2803 178.705 39.1775C177.533 40.0748 176.038 40.5234 174.218 40.5234C172.997 40.5234 171.963 40.3115 171.116 39.8878C170.268 39.4392 169.545 38.7912 168.947 37.9438C168.374 37.0964 167.888 36.0372 167.489 34.7661H166.779C166.928 35.439 167.065 36.1244 167.19 36.8222C167.315 37.5201 167.414 38.193 167.489 38.8411C167.589 39.4891 167.639 40.1122 167.639 40.7103V46.3181H161.62ZM172.013 35.7755C172.835 35.7755 173.533 35.5511 174.106 35.1025C174.705 34.6539 175.166 34.0184 175.49 33.1959C175.814 32.3734 175.976 31.4138 175.976 30.3172C175.976 29.1458 175.801 28.1489 175.452 27.3264C175.128 26.479 174.655 25.831 174.032 25.3823C173.408 24.9088 172.686 24.672 171.863 24.672C171.091 24.672 170.43 24.8465 169.882 25.1954C169.358 25.5194 168.922 25.9556 168.573 26.5039C168.249 27.0273 168.013 27.5881 167.863 28.1862C167.713 28.7844 167.639 29.3452 167.639 29.8686V30.6911C167.639 31.1646 167.701 31.6382 167.826 32.1117C167.95 32.5852 168.137 33.0463 168.386 33.495C168.636 33.9187 168.935 34.305 169.284 34.6539C169.633 35.0028 170.031 35.277 170.48 35.4764C170.954 35.6758 171.464 35.7755 172.013 35.7755ZM192.628 40.5234C190.286 40.5234 188.516 39.7383 187.32 38.1681C186.148 36.573 185.563 34.1554 185.563 30.9154V20.2606H191.619V30.1303C191.619 31.9746 191.893 33.3579 192.441 34.28C192.99 35.1773 193.825 35.6259 194.946 35.6259C195.619 35.6259 196.192 35.4639 196.666 35.1399C197.165 34.791 197.576 34.3174 197.9 33.7193C198.249 33.0962 198.498 32.3859 198.647 31.5883C198.822 30.7908 198.909 29.9184 198.909 28.9713V20.2606H204.928V31.9995V40H200.143L200.031 33.9062H199.283C198.909 35.4515 198.436 36.7226 197.862 37.7195C197.314 38.6915 196.616 39.4018 195.769 39.8505C194.921 40.2991 193.875 40.5234 192.628 40.5234ZM218.94 40.5234C217.295 40.5234 215.824 40.3115 214.528 39.8878C213.232 39.4392 212.123 38.7912 211.201 37.9438C210.304 37.0964 209.618 36.0496 209.145 34.8034C208.671 33.5573 208.435 32.1242 208.435 30.5041C208.435 28.9339 208.659 27.4884 209.107 26.1674C209.581 24.8465 210.241 23.7125 211.089 22.7654C211.961 21.7934 213.02 21.0456 214.267 20.5223C215.538 19.9989 216.958 19.7372 218.529 19.7372C220.124 19.7372 221.519 19.9989 222.716 20.5223C223.937 21.0207 224.934 21.7684 225.707 22.7654C226.504 23.7623 227.09 24.9836 227.464 26.4291C227.837 27.8498 227.962 29.4823 227.837 31.3266L212.397 31.4388V28.2984L224.398 28.1862L222.267 29.6443C222.442 28.3981 222.367 27.3887 222.043 26.6161C221.719 25.8185 221.245 25.2453 220.622 24.8963C219.999 24.5225 219.326 24.3356 218.603 24.3356C217.731 24.3356 216.958 24.5723 216.285 25.0459C215.637 25.5194 215.126 26.2048 214.753 27.1021C214.379 27.9993 214.192 29.096 214.192 30.392C214.192 32.4357 214.628 33.9187 215.5 34.8408C216.398 35.763 217.532 36.2241 218.902 36.2241C219.575 36.2241 220.136 36.1369 220.585 35.9624C221.033 35.763 221.395 35.5262 221.669 35.2521C221.968 34.953 222.192 34.629 222.342 34.28C222.516 33.9311 222.653 33.5947 222.753 33.2706L227.987 34.3922C227.788 35.3144 227.464 36.1493 227.015 36.897C226.591 37.6447 226.006 38.2927 225.258 38.8411C224.535 39.3894 223.65 39.8006 222.604 40.0748C221.582 40.3739 220.36 40.5234 218.94 40.5234ZM239.005 40.5234C237.361 40.5234 235.915 40.1122 234.669 39.2897C233.448 38.4423 232.488 37.2459 231.79 35.7007C231.092 34.1305 230.743 32.2612 230.743 30.0929C230.743 28.099 231.042 26.3294 231.641 24.7842C232.239 23.2389 233.124 22.0301 234.295 21.1578C235.491 20.2606 236.962 19.8119 238.706 19.8119C239.953 19.8119 240.999 20.0362 241.847 20.4849C242.719 20.9335 243.442 21.6064 244.015 22.5037C244.588 23.4009 245.049 24.5349 245.398 25.9057H246.333C246.159 25.0583 245.997 24.2608 245.847 23.5131C245.697 22.7404 245.573 22.0301 245.473 21.3821C245.398 20.7092 245.361 20.1235 245.361 19.625V13.0826H251.417V30.3546V40H246.483L246.408 34.1679H245.585C245.311 35.6633 244.875 36.8846 244.277 37.8317C243.704 38.7538 242.968 39.4392 242.071 39.8878C241.199 40.3115 240.177 40.5234 239.005 40.5234ZM241.174 35.6633C241.946 35.6633 242.594 35.5013 243.118 35.1773C243.666 34.8284 244.102 34.3922 244.426 33.8688C244.75 33.3454 244.987 32.7846 245.137 32.1865C245.286 31.5883 245.361 31.0275 245.361 30.5041V29.719C245.361 29.2455 245.299 28.7719 245.174 28.2984C245.049 27.8249 244.863 27.3638 244.613 26.9151C244.389 26.4665 244.102 26.0677 243.753 25.7188C243.404 25.3699 242.993 25.0957 242.52 24.8963C242.071 24.6969 241.573 24.5973 241.024 24.5973C240.202 24.5973 239.491 24.8216 238.893 25.2702C238.32 25.7188 237.871 26.3544 237.547 27.1768C237.248 27.9993 237.099 28.9713 237.099 30.0929C237.099 31.2145 237.261 32.1989 237.585 33.0463C237.909 33.8688 238.382 34.5168 239.005 34.9904C239.629 35.439 240.351 35.6633 241.174 35.6633ZM265.153 40.5234C263.159 40.5234 261.39 40.1371 259.845 39.3644C258.324 38.5918 257.128 37.4329 256.256 35.8876C255.383 34.3424 254.947 32.4108 254.947 30.0929C254.947 27.775 255.383 25.8559 256.256 24.3356C257.128 22.7903 258.337 21.6438 259.882 20.8961C261.427 20.1235 263.197 19.7372 265.191 19.7372C267.185 19.7372 268.954 20.1235 270.499 20.8961C272.045 21.6687 273.253 22.8277 274.126 24.3729C274.998 25.8933 275.434 27.8124 275.434 30.1303C275.434 32.498 274.986 34.4545 274.088 35.9998C273.191 37.545 271.957 38.6915 270.387 39.4392C268.842 40.162 267.097 40.5234 265.153 40.5234ZM265.34 36.1493C266.237 36.1493 266.985 35.9499 267.583 35.5511C268.181 35.1274 268.63 34.4919 268.929 33.6445C269.228 32.7971 269.378 31.7503 269.378 30.5041C269.378 29.1832 269.216 28.0741 268.892 27.1768C268.568 26.2547 268.082 25.5568 267.434 25.0833C266.811 24.5848 266.001 24.3356 265.004 24.3356C264.156 24.3356 263.421 24.5474 262.798 24.9711C262.2 25.3699 261.751 25.993 261.452 26.8404C261.153 27.6878 261.004 28.747 261.004 30.0181C261.004 32.0619 261.377 33.5947 262.125 34.6165C262.898 35.6384 263.969 36.1493 265.34 36.1493ZM2.31789 82V62.2606H8.33692V82H2.31789ZM5.3461 59.494C4.19962 59.494 3.31483 59.2573 2.69174 58.7837C2.09358 58.2853 1.79449 57.5874 1.79449 56.6901C1.79449 55.7431 2.09358 55.0327 2.69174 54.5592C3.31483 54.0607 4.19962 53.8115 5.3461 53.8115C6.51751 53.8115 7.40229 54.0607 8.00046 54.5592C8.62354 55.0327 8.93509 55.7306 8.93509 56.6528C8.93509 57.5749 8.62354 58.2853 8.00046 58.7837C7.40229 59.2573 6.51751 59.494 5.3461 59.494ZM20.2304 82.5234C18.5855 82.5234 17.1399 82.1122 15.8937 81.2897C14.6725 80.4423 13.7129 79.2459 13.0151 77.7007C12.3172 76.1305 11.9683 74.2612 11.9683 72.0929C11.9683 70.099 12.2673 68.3294 12.8655 66.7842C13.4637 65.2389 14.3485 64.0301 15.5199 63.1578C16.7162 62.2606 18.1867 61.8119 19.9313 61.8119C21.1775 61.8119 22.2243 62.0362 23.0717 62.4849C23.944 62.9335 24.6668 63.6064 25.24 64.5037C25.8133 65.4009 26.2744 66.5349 26.6233 67.9057H27.5579C27.3835 67.0583 27.2215 66.2608 27.0719 65.5131C26.9224 64.7404 26.7978 64.0301 26.6981 63.3821C26.6233 62.7092 26.5859 62.1235 26.5859 61.625V55.0826H32.6423V72.3546V82H27.7075L27.6327 76.1679H26.8102C26.5361 77.6633 26.0999 78.8846 25.5017 79.8317C24.9285 80.7538 24.1933 81.4392 23.296 81.8878C22.4237 82.3115 21.4018 82.5234 20.2304 82.5234ZM22.3988 77.6633C23.1714 77.6633 23.8194 77.5013 24.3428 77.1773C24.8911 76.8284 25.3273 76.3922 25.6513 75.8688C25.9753 75.3454 26.2121 74.7846 26.3616 74.1865C26.5111 73.5883 26.5859 73.0275 26.5859 72.5041V71.719C26.5859 71.2455 26.5236 70.7719 26.399 70.2984C26.2744 69.8249 26.0874 69.3638 25.8382 68.9151C25.6139 68.4665 25.3273 68.0677 24.9784 67.7188C24.6294 67.3699 24.2182 67.0957 23.7446 66.8963C23.296 66.6969 22.7975 66.5973 22.2492 66.5973C21.4267 66.5973 20.7164 66.8216 20.1183 67.2702C19.545 67.7188 19.0964 68.3544 18.7724 69.1768C18.4733 69.9993 18.3238 70.9713 18.3238 72.0929C18.3238 73.2145 18.4858 74.1989 18.8098 75.0463C19.1338 75.8688 19.6073 76.5168 20.2304 76.9904C20.8535 77.439 21.5763 77.6633 22.3988 77.6633ZM46.6773 82.5234C45.0324 82.5234 43.5619 82.3115 42.2658 81.8878C40.9698 81.4392 39.8607 80.7912 38.9386 79.9438C38.0413 79.0964 37.3559 78.0496 36.8824 76.8034C36.4088 75.5573 36.172 74.1242 36.172 72.5041C36.172 70.9339 36.3963 69.4884 36.845 68.1674C37.3185 66.8465 37.979 65.7125 38.8264 64.7654C39.6987 63.7934 40.758 63.0456 42.0041 62.5223C43.2752 61.9989 44.6959 61.7372 46.2661 61.7372C47.8612 61.7372 49.2569 61.9989 50.4532 62.5223C51.6745 63.0207 52.6714 63.7684 53.4441 64.7654C54.2416 65.7623 54.8273 66.9836 55.2012 68.4291C55.575 69.8498 55.6996 71.4823 55.575 73.3266L40.1349 73.4388V70.2984L52.1356 70.1862L50.0046 71.6443C50.1791 70.3981 50.1043 69.3887 49.7803 68.6161C49.4563 67.8185 48.9827 67.2453 48.3596 66.8963C47.7366 66.5225 47.0636 66.3356 46.3408 66.3356C45.4685 66.3356 44.6959 66.5723 44.023 67.0459C43.3749 67.5194 42.864 68.2048 42.4902 69.1021C42.1163 69.9993 41.9294 71.096 41.9294 72.392C41.9294 74.4357 42.3655 75.9187 43.2379 76.8408C44.1351 77.763 45.2691 78.2241 46.6399 78.2241C47.3129 78.2241 47.8736 78.1369 48.3223 77.9624C48.7709 77.763 49.1323 77.5262 49.4064 77.2521C49.7055 76.953 49.9298 76.629 50.0794 76.28C50.2538 75.9311 50.3909 75.5947 50.4906 75.2706L55.7246 76.3922C55.5252 77.3144 55.2012 78.1493 54.7525 78.897C54.3288 79.6447 53.7431 80.2927 52.9954 80.8411C52.2726 81.3894 51.3879 81.8006 50.3411 82.0748C49.3192 82.3739 48.098 82.5234 46.6773 82.5234ZM59.2356 82V70.1115V62.2606H64.0957L64.1704 68.0553H64.9181C65.2421 66.6596 65.7032 65.4882 66.3014 64.5411C66.8995 63.594 67.6597 62.8961 68.5819 62.4475C69.5041 61.9739 70.5882 61.7372 71.8344 61.7372C74.1523 61.7372 75.9094 62.5472 77.1057 64.1672C78.327 65.7872 78.9376 68.3668 78.9376 71.906V82H72.8812V72.5789C72.8812 70.5352 72.5821 69.0522 71.984 68.1301C71.4107 67.183 70.5508 66.7094 69.4044 66.7094C68.4573 66.7094 67.6722 66.996 67.0491 67.5693C66.4509 68.1425 66.0023 68.9027 65.7032 69.8498C65.4041 70.7969 65.2546 71.8561 65.2546 73.0275V82H59.2356ZM90.8869 82.486C88.569 82.486 86.8617 81.8754 85.7651 80.6541C84.6685 79.408 84.1202 77.4265 84.1202 74.7099V66.9711H81.3163L81.4284 62.2979H83.4472C84.2448 62.273 84.8429 62.1484 85.2417 61.9241C85.6654 61.6998 85.9271 61.2761 86.0268 60.653L86.5128 57.8865H89.9149V62.2606H94.6628V67.158H89.9149V74.4482C89.9149 75.2956 90.1143 75.9187 90.513 76.3174C90.9367 76.7162 91.5723 76.9156 92.4197 76.9156C92.8932 76.9156 93.3419 76.8658 93.7656 76.7661C94.1893 76.6664 94.5382 76.5293 94.8124 76.3548V81.9252C94.0148 82.1745 93.2796 82.324 92.6066 82.3739C91.9586 82.4486 91.3854 82.486 90.8869 82.486ZM98.3733 82V62.2606H104.392V82H98.3733ZM101.402 59.494C100.255 59.494 99.3702 59.2573 98.7472 58.7837C98.149 58.2853 97.8499 57.5874 97.8499 56.6901C97.8499 55.7431 98.149 55.0327 98.7472 54.5592C99.3702 54.0607 100.255 53.8115 101.402 53.8115C102.573 53.8115 103.458 54.0607 104.056 54.5592C104.679 55.0327 104.991 55.7306 104.991 56.6528C104.991 57.5749 104.679 58.2853 104.056 58.7837C103.458 59.2573 102.573 59.494 101.402 59.494ZM110.566 82V69.775H107.538V65.4009L112.921 65.6252V64.9149C111.974 64.7404 111.189 64.4289 110.566 63.9803C109.968 63.5067 109.532 62.9584 109.257 62.3353C108.983 61.7122 108.846 61.0393 108.846 60.3165C108.846 59.2199 109.133 58.2853 109.706 57.5126C110.279 56.7151 111.089 56.1044 112.136 55.6807C113.183 55.257 114.404 55.0452 115.8 55.0452C117.021 55.0452 118.13 55.1947 119.127 55.4938C120.124 55.768 120.922 56.1169 121.52 56.5406L121.183 61.9615C120.56 61.5378 119.85 61.1888 119.052 60.9147C118.28 60.6405 117.557 60.5034 116.884 60.5034C116.186 60.5034 115.6 60.6904 115.127 61.0642C114.653 61.4132 114.417 61.9989 114.417 62.8213C114.417 63.4693 114.554 63.9554 114.828 64.2794C115.127 64.6034 115.488 64.8277 115.912 64.9523C116.336 65.052 116.759 65.1018 117.183 65.1018H121.52V69.775H116.435V82H110.566ZM124.331 82V62.2606H130.35V82H124.331ZM127.359 59.494C126.213 59.494 125.328 59.2573 124.705 58.7837C124.107 58.2853 123.808 57.5874 123.808 56.6901C123.808 55.7431 124.107 55.0327 124.705 54.5592C125.328 54.0607 126.213 53.8115 127.359 53.8115C128.531 53.8115 129.416 54.0607 130.014 54.5592C130.637 55.0327 130.948 55.7306 130.948 56.6528C130.948 57.5749 130.637 58.2853 130.014 58.7837C129.416 59.2573 128.531 59.494 127.359 59.494ZM144.337 82.5234C142.643 82.5234 141.147 82.2866 139.851 81.8131C138.555 81.3395 137.471 80.6666 136.599 79.7943C135.726 78.897 135.053 77.8253 134.58 76.5791C134.131 75.333 133.907 73.9372 133.907 72.392C133.907 70.7969 134.131 69.3513 134.58 68.0553C135.053 66.7593 135.726 65.6377 136.599 64.6906C137.471 63.7435 138.543 63.0207 139.814 62.5223C141.085 61.9989 142.543 61.7372 144.188 61.7372C145.833 61.7372 147.253 61.9989 148.45 62.5223C149.646 63.0456 150.618 63.7809 151.366 64.728C152.138 65.6751 152.662 66.7717 152.936 68.0179L147.366 69.8872C147.291 69.0647 147.091 68.3917 146.767 67.8684C146.443 67.345 146.02 66.9711 145.496 66.7468C144.998 66.4976 144.45 66.3729 143.851 66.3729C143.228 66.3729 142.68 66.4976 142.206 66.7468C141.733 66.996 141.334 67.3699 141.01 67.8684C140.686 68.3668 140.437 68.9775 140.262 69.7002C140.088 70.3981 140.001 71.2081 140.001 72.1303C140.001 73.4512 140.163 74.5603 140.487 75.4576C140.836 76.3299 141.334 76.9904 141.982 77.439C142.655 77.8876 143.465 78.1119 144.412 78.1119C145.384 78.1119 146.144 77.9125 146.693 77.5138C147.241 77.115 147.64 76.629 147.889 76.0557C148.138 75.4576 148.288 74.8719 148.338 74.2986L153.572 75.4576C153.472 76.3797 153.223 77.277 152.824 78.1493C152.45 78.9967 151.889 79.7569 151.141 80.4298C150.394 81.0778 149.459 81.5888 148.338 81.9626C147.241 82.3365 145.908 82.5234 144.337 82.5234ZM161.095 82.5234C159.998 82.5234 159.026 82.3115 158.179 81.8878C157.332 81.4392 156.671 80.8037 156.198 79.9812C155.724 79.1338 155.487 78.1119 155.487 76.9156C155.487 75.794 155.699 74.8719 156.123 74.1491C156.571 73.4014 157.207 72.8157 158.029 72.392C158.877 71.9434 159.886 71.582 161.058 71.3078C162.229 71.0087 163.562 70.747 165.058 70.5227C165.781 70.3981 166.379 70.2859 166.852 70.1862C167.351 70.0616 167.725 69.8747 167.974 69.6255C168.223 69.3762 168.348 69.0148 168.348 68.5413C168.348 67.9182 168.123 67.3823 167.675 66.9337C167.226 66.4851 166.503 66.2608 165.507 66.2608C164.809 66.2608 164.173 66.3854 163.6 66.6346C163.052 66.8839 162.578 67.2453 162.179 67.7188C161.78 68.1924 161.481 68.7656 161.282 69.4385L155.973 67.8684C156.297 66.8216 156.746 65.9119 157.319 65.1392C157.917 64.3666 158.628 63.731 159.45 63.2326C160.273 62.7092 161.207 62.3353 162.254 62.111C163.326 61.8618 164.46 61.7372 165.656 61.7372C167.65 61.7372 169.27 62.0612 170.516 62.7092C171.787 63.3323 172.722 64.3167 173.32 65.6626C173.943 66.9836 174.255 68.6908 174.255 70.7844V73.8126C174.255 74.7099 174.267 75.6196 174.292 76.5417C174.342 77.439 174.392 78.3487 174.442 79.2709C174.516 80.1681 174.604 81.0778 174.703 82H169.395C169.295 81.4268 169.195 80.7414 169.095 79.9438C168.996 79.1213 168.921 78.2864 168.871 77.439H168.161C167.812 78.3861 167.301 79.2584 166.628 80.056C165.98 80.8286 165.183 81.4392 164.235 81.8878C163.313 82.3115 162.266 82.5234 161.095 82.5234ZM163.824 78.2615C164.273 78.2615 164.721 78.1867 165.17 78.0372C165.644 77.8627 166.092 77.6384 166.516 77.3642C166.94 77.0651 167.326 76.7037 167.675 76.28C168.024 75.8563 168.285 75.3953 168.46 74.8968L168.385 71.9434L169.208 72.1303C168.734 72.4294 168.211 72.6661 167.637 72.8406C167.064 73.0151 166.479 73.1521 165.88 73.2518C165.307 73.3515 164.734 73.4637 164.161 73.5883C163.612 73.688 163.114 73.8251 162.665 73.9995C162.242 74.174 161.905 74.4108 161.656 74.7099C161.407 75.0089 161.282 75.4202 161.282 75.9436C161.282 76.6414 161.519 77.2022 161.992 77.6259C162.466 78.0496 163.076 78.2615 163.824 78.2615ZM178.693 82V72.8406V62.2606H183.628L183.74 68.9525H184.488C184.662 67.2079 184.986 65.8246 185.46 64.8028C185.959 63.756 186.656 62.9958 187.554 62.5223C188.476 62.0487 189.61 61.8119 190.956 61.8119C191.155 61.8119 191.379 61.8244 191.629 61.8493C191.878 61.8493 192.164 61.8742 192.488 61.9241L192.264 68.3544C191.865 68.155 191.429 68.0304 190.956 67.9805C190.507 67.9057 190.108 67.8684 189.759 67.8684C188.787 67.8684 187.94 68.0553 187.217 68.4291C186.519 68.803 185.959 69.3762 185.535 70.1489C185.136 70.9215 184.874 71.8935 184.75 73.0649V82H178.693ZM211.777 82.5234C210.456 82.5234 209.26 82.3988 208.188 82.1495C207.117 81.9252 206.182 81.5888 205.384 81.1401C204.587 80.6915 203.926 80.1557 203.403 79.5326C202.904 78.8846 202.556 78.1742 202.356 77.4016L206.842 75.4202C207.017 75.8439 207.316 76.28 207.74 76.7287C208.188 77.1524 208.774 77.5013 209.497 77.7755C210.244 78.0496 211.142 78.1867 212.188 78.1867C213.185 78.1867 213.958 78.0496 214.506 77.7755C215.08 77.4764 215.366 77.0527 215.366 76.5044C215.366 76.1056 215.204 75.794 214.88 75.5697C214.581 75.3205 214.12 75.1086 213.497 74.9342C212.874 74.7348 212.101 74.5479 211.179 74.3734C210.232 74.174 209.272 73.9497 208.3 73.7005C207.328 73.4263 206.419 73.0649 205.571 72.6163C204.724 72.1427 204.038 71.5321 203.515 70.7844C203.017 70.0118 202.767 69.0398 202.767 67.8684C202.767 66.6471 203.091 65.5878 203.739 64.6906C204.387 63.7684 205.347 63.0456 206.618 62.5223C207.914 61.9989 209.484 61.7372 211.329 61.7372C212.974 61.7372 214.419 61.949 215.665 62.3727C216.912 62.7964 217.946 63.407 218.768 64.2046C219.616 64.9772 220.201 65.9119 220.525 67.0085L215.703 68.7282C215.578 68.1799 215.316 67.7064 214.918 67.3076C214.544 66.9088 214.058 66.6097 213.46 66.4103C212.886 66.186 212.201 66.0739 211.403 66.0739C210.431 66.0739 209.671 66.2234 209.123 66.5225C208.6 66.8216 208.338 67.2203 208.338 67.7188C208.338 68.1176 208.512 68.4541 208.861 68.7282C209.235 68.9775 209.758 69.1893 210.431 69.3638C211.104 69.5382 211.902 69.7252 212.824 69.9245C213.796 70.1239 214.756 70.3607 215.703 70.6349C216.675 70.8841 217.547 71.233 218.32 71.6817C219.117 72.1054 219.74 72.6786 220.189 73.4014C220.662 74.0992 220.899 75.0089 220.899 76.1305C220.899 77.4515 220.55 78.5979 219.852 79.57C219.155 80.517 218.12 81.2523 216.75 81.7757C215.404 82.2742 213.746 82.5234 211.777 82.5234ZM224.293 82V62.2606H230.312V82H224.293ZM227.321 59.494C226.175 59.494 225.29 59.2573 224.667 58.7837C224.069 58.2853 223.77 57.5874 223.77 56.6901C223.77 55.7431 224.069 55.0327 224.667 54.5592C225.29 54.0607 226.175 53.8115 227.321 53.8115C228.493 53.8115 229.378 54.0607 229.976 54.5592C230.599 55.0327 230.91 55.7306 230.91 56.6528C230.91 57.5749 230.599 58.2853 229.976 58.7837C229.378 59.2573 228.493 59.494 227.321 59.494ZM252.698 82.5234C251.053 82.5234 249.583 82.3115 248.287 81.8878C246.991 81.4392 245.882 80.7912 244.959 79.9438C244.062 79.0964 243.377 78.0496 242.903 76.8034C242.43 75.5573 242.193 74.1242 242.193 72.5041C242.193 70.9339 242.417 69.4884 242.866 68.1674C243.339 66.8465 244 65.7125 244.847 64.7654C245.72 63.7934 246.779 63.0456 248.025 62.5223C249.296 61.9989 250.717 61.7372 252.287 61.7372C253.882 61.7372 255.278 61.9989 256.474 62.5223C257.695 63.0207 258.692 63.7684 259.465 64.7654C260.262 65.7623 260.848 66.9836 261.222 68.4291C261.596 69.8498 261.72 71.4823 261.596 73.3266L246.156 73.4388V70.2984L258.156 70.1862L256.025 71.6443C256.2 70.3981 256.125 69.3887 255.801 68.6161C255.477 67.8185 255.004 67.2453 254.38 66.8963C253.757 66.5225 253.084 66.3356 252.362 66.3356C251.489 66.3356 250.717 66.5723 250.044 67.0459C249.396 67.5194 248.885 68.2048 248.511 69.1021C248.137 69.9993 247.95 71.096 247.95 72.392C247.95 74.4357 248.386 75.9187 249.259 76.8408C250.156 77.763 251.29 78.2241 252.661 78.2241C253.334 78.2241 253.894 78.1369 254.343 77.9624C254.792 77.763 255.153 77.5262 255.427 77.2521C255.726 76.953 255.951 76.629 256.1 76.28C256.275 75.9311 256.412 75.5947 256.511 75.2706L261.745 76.3922C261.546 77.3144 261.222 78.1493 260.773 78.897C260.35 79.6447 259.764 80.2927 259.016 80.8411C258.293 81.3894 257.409 81.8006 256.362 82.0748C255.34 82.3739 254.119 82.5234 252.698 82.5234ZM273.514 82.5234C272.193 82.5234 270.997 82.3988 269.925 82.1495C268.853 81.9252 267.919 81.5888 267.121 81.1401C266.324 80.6915 265.663 80.1557 265.14 79.5326C264.641 78.8846 264.292 78.1742 264.093 77.4016L268.579 75.4202C268.754 75.8439 269.053 76.28 269.477 76.7287C269.925 77.1524 270.511 77.5013 271.234 77.7755C271.981 78.0496 272.879 78.1867 273.925 78.1867C274.922 78.1867 275.695 78.0496 276.243 77.7755C276.816 77.4764 277.103 77.0527 277.103 76.5044C277.103 76.1056 276.941 75.794 276.617 75.5697C276.318 75.3205 275.857 75.1086 275.234 74.9342C274.611 74.7348 273.838 74.5479 272.916 74.3734C271.969 74.174 271.009 73.9497 270.037 73.7005C269.065 73.4263 268.156 73.0649 267.308 72.6163C266.461 72.1427 265.775 71.5321 265.252 70.7844C264.753 70.0118 264.504 69.0398 264.504 67.8684C264.504 66.6471 264.828 65.5878 265.476 64.6906C266.124 63.7684 267.084 63.0456 268.355 62.5223C269.651 61.9989 271.221 61.7372 273.065 61.7372C274.71 61.7372 276.156 61.949 277.402 62.3727C278.648 62.7964 279.683 63.407 280.505 64.2046C281.353 64.9772 281.938 65.9119 282.262 67.0085L277.44 68.7282C277.315 68.1799 277.053 67.7064 276.654 67.3076C276.281 66.9088 275.795 66.6097 275.196 66.4103C274.623 66.186 273.938 66.0739 273.14 66.0739C272.168 66.0739 271.408 66.2234 270.86 66.5225C270.336 66.8216 270.075 67.2203 270.075 67.7188C270.075 68.1176 270.249 68.4541 270.598 68.7282C270.972 68.9775 271.495 69.1893 272.168 69.3638C272.841 69.5382 273.639 69.7252 274.561 69.9245C275.533 70.1239 276.492 70.3607 277.44 70.6349C278.412 70.8841 279.284 71.233 280.057 71.6817C280.854 72.1054 281.477 72.6786 281.926 73.4014C282.399 74.0992 282.636 75.0089 282.636 76.1305C282.636 77.4515 282.287 78.5979 281.589 79.57C280.891 80.517 279.857 81.2523 278.486 81.7757C277.14 82.2742 275.483 82.5234 273.514 82.5234ZM293.658 82.486C291.341 82.486 289.633 81.8754 288.537 80.6541C287.44 79.408 286.892 77.4265 286.892 74.7099V66.9711H284.088L284.2 62.2979H286.219C287.016 62.273 287.614 62.1484 288.013 61.9241C288.437 61.6998 288.699 61.2761 288.798 60.653L289.284 57.8865H292.686V62.2606H297.434V67.158H292.686V74.4482C292.686 75.2956 292.886 75.9187 293.285 76.3174C293.708 76.7162 294.344 76.9156 295.191 76.9156C295.665 76.9156 296.113 76.8658 296.537 76.7661C296.961 76.6664 297.31 76.5293 297.584 76.3548V81.9252C296.786 82.1745 296.051 82.324 295.378 82.3739C294.73 82.4486 294.157 82.486 293.658 82.486ZM310.156 82.5234C308.163 82.5234 306.393 82.1371 304.848 81.3644C303.327 80.5918 302.131 79.4329 301.259 77.8876C300.386 76.3424 299.95 74.4108 299.95 72.0929C299.95 69.775 300.386 67.8559 301.259 66.3356C302.131 64.7903 303.34 63.6438 304.885 62.8961C306.43 62.1235 308.2 61.7372 310.194 61.7372C312.188 61.7372 313.957 62.1235 315.502 62.8961C317.048 63.6687 318.257 64.8277 319.129 66.3729C320.001 67.8933 320.437 69.8124 320.437 72.1303C320.437 74.498 319.989 76.4545 319.091 77.9998C318.194 79.545 316.961 80.6915 315.39 81.4392C313.845 82.162 312.1 82.5234 310.156 82.5234ZM310.343 78.1493C311.241 78.1493 311.988 77.9499 312.586 77.5511C313.185 77.1274 313.633 76.4919 313.932 75.6445C314.231 74.7971 314.381 73.7503 314.381 72.5041C314.381 71.1832 314.219 70.0741 313.895 69.1768C313.571 68.2547 313.085 67.5568 312.437 67.0833C311.814 66.5848 311.004 66.3356 310.007 66.3356C309.159 66.3356 308.424 66.5474 307.801 66.9711C307.203 67.3699 306.754 67.993 306.455 68.8404C306.156 69.6878 306.007 70.747 306.007 72.0181C306.007 74.0619 306.38 75.5947 307.128 76.6165C307.901 77.6384 308.973 78.1493 310.343 78.1493ZM331.479 88.8789C330.482 88.8789 329.46 88.7917 328.414 88.6172C327.367 88.4427 326.37 88.181 325.423 87.8321C324.501 87.5081 323.703 87.0719 323.03 86.5236L324.488 81.1775C325.36 82 326.407 82.6106 327.628 83.0094C328.875 83.4082 330.071 83.6076 331.217 83.6076C332.538 83.6076 333.623 83.3459 334.47 82.8225C335.342 82.324 336.003 81.5514 336.451 80.5046C336.925 79.4329 337.199 78.1119 337.274 76.5417L337.461 73.2892H336.564C336.339 74.9093 335.94 76.2302 335.367 77.2521C334.819 78.2739 334.109 79.0341 333.236 79.5326C332.389 80.0061 331.379 80.2429 330.208 80.2429C328.762 80.2429 327.554 79.8815 326.582 79.1587C325.61 78.4359 324.874 77.3518 324.376 75.9062C323.902 74.4357 323.666 72.6163 323.666 70.4479V62.2606H329.722V68.9525C329.722 71.2455 329.946 72.8904 330.395 73.8874C330.869 74.8594 331.604 75.3454 332.601 75.3454C333.124 75.3454 333.598 75.1959 334.021 74.8968C334.445 74.5977 334.806 74.174 335.106 73.6257C335.405 73.0774 335.629 72.4169 335.778 71.6443C335.953 70.8467 336.04 69.9619 336.04 68.9899V62.2606H342.059V76.7661C342.059 78.3362 341.91 79.7693 341.611 81.0654C341.336 82.3614 340.913 83.4954 340.339 84.4674C339.791 85.4394 339.093 86.2495 338.246 86.8975C337.398 87.5704 336.414 88.0689 335.292 88.3929C334.171 88.7169 332.9 88.8789 331.479 88.8789ZM11.7016 124.523C10.0566 124.523 8.58616 124.312 7.29014 123.888C5.99411 123.439 4.88501 122.791 3.96284 121.944C3.0656 121.096 2.3802 120.05 1.90665 118.803C1.4331 117.557 1.19633 116.124 1.19633 114.504C1.19633 112.934 1.42064 111.488 1.86927 110.167C2.34281 108.846 3.00329 107.712 3.85069 106.765C4.72301 105.793 5.78226 105.046 7.02844 104.522C8.29954 103.999 9.72018 103.737 11.2904 103.737C12.8855 103.737 14.2812 103.999 15.4775 104.522C16.6988 105.021 17.6957 105.768 18.4683 106.765C19.2659 107.762 19.8516 108.984 20.2255 110.429C20.5993 111.85 20.7239 113.482 20.5993 115.327L5.15917 115.439V112.298L17.1599 112.186L15.0289 113.644C15.2034 112.398 15.1286 111.389 14.8046 110.616C14.4806 109.819 14.007 109.245 13.3839 108.896C12.7609 108.522 12.0879 108.336 11.3651 108.336C10.4928 108.336 9.72018 108.572 9.04724 109.046C8.39923 109.519 7.8883 110.205 7.51445 111.102C7.14059 111.999 6.95367 113.096 6.95367 114.392C6.95367 116.436 7.38983 117.919 8.26215 118.841C9.1594 119.763 10.2934 120.224 11.6642 120.224C12.3372 120.224 12.8979 120.137 13.3466 119.962C13.7952 119.763 14.1566 119.526 14.4307 119.252C14.7298 118.953 14.9541 118.629 15.1037 118.28C15.2781 117.931 15.4152 117.595 15.5149 117.271L20.7488 118.392C20.5495 119.314 20.2255 120.149 19.7768 120.897C19.3531 121.645 18.7674 122.293 18.0197 122.841C17.2969 123.389 16.4122 123.801 15.3654 124.075C14.3435 124.374 13.1222 124.523 11.7016 124.523ZM21.696 124L28.2011 114.13L21.7334 104.261H28.6497L31.9022 111.513H32.6125L35.8651 104.261H42.7814L36.2763 114.13L42.8187 124H35.9398L32.6125 116.672H31.9022L28.6497 124H21.696ZM45.5447 130.318V114.355V104.261H50.4795L50.5543 109.868L51.2272 109.943C51.4515 108.547 51.8503 107.388 52.4235 106.466C52.9968 105.544 53.732 104.859 54.6293 104.41C55.5515 103.961 56.5982 103.737 57.7696 103.737C59.5143 103.737 61.0097 104.161 62.2559 105.008C63.527 105.856 64.499 107.064 65.1719 108.635C65.8449 110.205 66.1813 112.087 66.1813 114.28C66.1813 116.224 65.8823 117.969 65.2841 119.514C64.7109 121.059 63.8261 122.28 62.6297 123.178C61.4583 124.075 59.9629 124.523 58.1435 124.523C56.9222 124.523 55.8879 124.312 55.0405 123.888C54.1931 123.439 53.4703 122.791 52.8722 121.944C52.2989 121.096 51.8129 120.037 51.4141 118.766H50.7038C50.8534 119.439 50.9904 120.124 51.1151 120.822C51.2397 121.52 51.3394 122.193 51.4141 122.841C51.5138 123.489 51.5637 124.112 51.5637 124.71V130.318H45.5447ZM55.9378 119.775C56.7602 119.775 57.4581 119.551 58.0313 119.103C58.6295 118.654 59.0906 118.018 59.4146 117.196C59.7386 116.373 59.9006 115.414 59.9006 114.317C59.9006 113.146 59.7261 112.149 59.3772 111.326C59.0532 110.479 58.5797 109.831 57.9566 109.382C57.3335 108.909 56.6107 108.672 55.7882 108.672C55.0156 108.672 54.3551 108.846 53.8068 109.195C53.2834 109.519 52.8472 109.956 52.4983 110.504C52.1743 111.027 51.9375 111.588 51.788 112.186C51.6385 112.784 51.5637 113.345 51.5637 113.869V114.691C51.5637 115.165 51.626 115.638 51.7506 116.112C51.8752 116.585 52.0622 117.046 52.3114 117.495C52.5606 117.919 52.8597 118.305 53.2086 118.654C53.5576 119.003 53.9563 119.277 54.405 119.476C54.8785 119.676 55.3894 119.775 55.9378 119.775ZM79.2434 124.523C77.5985 124.523 76.128 124.312 74.832 123.888C73.5359 123.439 72.4268 122.791 71.5047 121.944C70.6074 121.096 69.922 120.05 69.4485 118.803C68.9749 117.557 68.7381 116.124 68.7381 114.504C68.7381 112.934 68.9625 111.488 69.4111 110.167C69.8846 108.846 70.5451 107.712 71.3925 106.765C72.2648 105.793 73.3241 105.046 74.5703 104.522C75.8414 103.999 77.262 103.737 78.8322 103.737C80.4273 103.737 81.823 103.999 83.0193 104.522C84.2406 105.021 85.2375 105.768 86.0102 106.765C86.8077 107.762 87.3934 108.984 87.7673 110.429C88.1411 111.85 88.2657 113.482 88.1411 115.327L72.701 115.439V112.298L84.7017 112.186L82.5707 113.644C82.7452 112.398 82.6704 111.389 82.3464 110.616C82.0224 109.819 81.5488 109.245 80.9258 108.896C80.3027 108.522 79.6297 108.336 78.907 108.336C78.0346 108.336 77.262 108.572 76.5891 109.046C75.941 109.519 75.4301 110.205 75.0563 111.102C74.6824 111.999 74.4955 113.096 74.4955 114.392C74.4955 116.436 74.9316 117.919 75.804 118.841C76.7012 119.763 77.8352 120.224 79.206 120.224C79.879 120.224 80.4397 120.137 80.8884 119.962C81.337 119.763 81.6984 119.526 81.9725 119.252C82.2716 118.953 82.4959 118.629 82.6455 118.28C82.8199 117.931 82.957 117.595 83.0567 117.271L88.2907 118.392C88.0913 119.314 87.7673 120.149 87.3186 120.897C86.8949 121.645 86.3092 122.293 85.5615 122.841C84.8388 123.389 83.954 123.801 82.9072 124.075C81.8853 124.374 80.6641 124.523 79.2434 124.523ZM91.8017 124V114.841V104.261H96.7365L96.8487 110.953H97.5964C97.7709 109.208 98.0949 107.825 98.5684 106.803C99.0669 105.756 99.7647 104.996 100.662 104.522C101.584 104.049 102.718 103.812 104.064 103.812C104.263 103.812 104.488 103.824 104.737 103.849C104.986 103.849 105.273 103.874 105.597 103.924L105.373 110.354C104.974 110.155 104.538 110.03 104.064 109.981C103.615 109.906 103.217 109.868 102.868 109.868C101.896 109.868 101.048 110.055 100.326 110.429C99.6277 110.803 99.0669 111.376 98.6432 112.149C98.2444 112.921 97.9827 113.894 97.8581 115.065V124H91.8017ZM108.486 124V104.261H114.505V124H108.486ZM111.515 101.494C110.368 101.494 109.483 101.257 108.86 100.784C108.262 100.285 107.963 99.5874 107.963 98.6901C107.963 97.7431 108.262 97.0327 108.86 96.5592C109.483 96.0607 110.368 95.8115 111.515 95.8115C112.686 95.8115 113.571 96.0607 114.169 96.5592C114.792 97.0327 115.104 97.7306 115.104 98.6528C115.104 99.5749 114.792 100.285 114.169 100.784C113.571 101.257 112.686 101.494 111.515 101.494ZM119.183 124V111.252V104.261H123.931L124.006 110.055H124.754C125.103 108.635 125.564 107.463 126.137 106.541C126.71 105.594 127.408 104.896 128.231 104.447C129.053 103.974 130.013 103.737 131.109 103.737C132.256 103.737 133.203 103.986 133.951 104.485C134.723 104.958 135.334 105.669 135.783 106.616C136.231 107.538 136.53 108.684 136.68 110.055H137.315C137.714 108.585 138.238 107.388 138.886 106.466C139.534 105.519 140.306 104.834 141.203 104.41C142.101 103.961 143.073 103.737 144.119 103.737C145.241 103.737 146.213 103.961 147.036 104.41C147.883 104.834 148.581 105.482 149.129 106.354C149.702 107.202 150.126 108.273 150.4 109.569C150.674 110.84 150.811 112.323 150.811 114.018V124H144.755V114.766C144.755 113.445 144.643 112.348 144.419 111.476C144.219 110.604 143.895 109.956 143.447 109.532C142.998 109.083 142.425 108.859 141.727 108.859C140.929 108.859 140.244 109.121 139.671 109.644C139.122 110.167 138.699 110.903 138.4 111.85C138.1 112.772 137.951 113.819 137.951 114.99V124H132.044V114.878C132.044 113.507 131.919 112.386 131.67 111.513C131.446 110.641 131.097 109.981 130.623 109.532C130.175 109.083 129.602 108.859 128.904 108.859C128.106 108.859 127.433 109.121 126.885 109.644C126.337 110.167 125.913 110.903 125.614 111.85C125.34 112.772 125.203 113.819 125.203 114.99V124H119.183ZM164.565 124.523C162.92 124.523 161.45 124.312 160.154 123.888C158.858 123.439 157.749 122.791 156.826 121.944C155.929 121.096 155.244 120.05 154.77 118.803C154.297 117.557 154.06 116.124 154.06 114.504C154.06 112.934 154.284 111.488 154.733 110.167C155.206 108.846 155.867 107.712 156.714 106.765C157.587 105.793 158.646 105.046 159.892 104.522C161.163 103.999 162.584 103.737 164.154 103.737C165.749 103.737 167.145 103.999 168.341 104.522C169.562 105.021 170.559 105.768 171.332 106.765C172.129 107.762 172.715 108.984 173.089 110.429C173.463 111.85 173.587 113.482 173.463 115.327L158.023 115.439V112.298L170.023 112.186L167.892 113.644C168.067 112.398 167.992 111.389 167.668 110.616C167.344 109.819 166.871 109.245 166.247 108.896C165.624 108.522 164.951 108.336 164.229 108.336C163.356 108.336 162.584 108.572 161.911 109.046C161.263 109.519 160.752 110.205 160.378 111.102C160.004 111.999 159.817 113.096 159.817 114.392C159.817 116.436 160.253 117.919 161.126 118.841C162.023 119.763 163.157 120.224 164.528 120.224C165.201 120.224 165.761 120.137 166.21 119.962C166.659 119.763 167.02 119.526 167.294 119.252C167.593 118.953 167.818 118.629 167.967 118.28C168.142 117.931 168.279 117.595 168.378 117.271L173.612 118.392C173.413 119.314 173.089 120.149 172.64 120.897C172.217 121.645 171.631 122.293 170.883 122.841C170.16 123.389 169.276 123.801 168.229 124.075C167.207 124.374 165.986 124.523 164.565 124.523ZM177.123 124V112.111V104.261H181.984L182.058 110.055H182.806C183.13 108.66 183.591 107.488 184.189 106.541C184.787 105.594 185.548 104.896 186.47 104.447C187.392 103.974 188.476 103.737 189.722 103.737C192.04 103.737 193.797 104.547 194.994 106.167C196.215 107.787 196.825 110.367 196.825 113.906V124H190.769V114.579C190.769 112.535 190.47 111.052 189.872 110.13C189.299 109.183 188.439 108.709 187.292 108.709C186.345 108.709 185.56 108.996 184.937 109.569C184.339 110.143 183.89 110.903 183.591 111.85C183.292 112.797 183.142 113.856 183.142 115.028V124H177.123ZM208.775 124.486C206.457 124.486 204.75 123.875 203.653 122.654C202.556 121.408 202.008 119.427 202.008 116.71V108.971H199.204L199.316 104.298H201.335C202.133 104.273 202.731 104.148 203.13 103.924C203.553 103.7 203.815 103.276 203.915 102.653L204.401 99.8865H207.803V104.261H212.551V109.158H207.803V116.448C207.803 117.296 208.002 117.919 208.401 118.317C208.825 118.716 209.46 118.916 210.308 118.916C210.781 118.916 211.23 118.866 211.653 118.766C212.077 118.666 212.426 118.529 212.7 118.355V123.925C211.903 124.174 211.167 124.324 210.494 124.374C209.846 124.449 209.273 124.486 208.775 124.486ZM220.897 124.523C219.8 124.523 218.828 124.312 217.981 123.888C217.133 123.439 216.473 122.804 215.999 121.981C215.526 121.134 215.289 120.112 215.289 118.916C215.289 117.794 215.501 116.872 215.925 116.149C216.373 115.401 217.009 114.816 217.831 114.392C218.679 113.943 219.688 113.582 220.86 113.308C222.031 113.009 223.364 112.747 224.86 112.523C225.583 112.398 226.181 112.286 226.654 112.186C227.153 112.062 227.527 111.875 227.776 111.625C228.025 111.376 228.15 111.015 228.15 110.541C228.15 109.918 227.925 109.382 227.477 108.934C227.028 108.485 226.305 108.261 225.308 108.261C224.611 108.261 223.975 108.385 223.402 108.635C222.853 108.884 222.38 109.245 221.981 109.719C221.582 110.192 221.283 110.766 221.084 111.439L215.775 109.868C216.099 108.822 216.548 107.912 217.121 107.139C217.719 106.367 218.43 105.731 219.252 105.233C220.074 104.709 221.009 104.335 222.056 104.111C223.128 103.862 224.262 103.737 225.458 103.737C227.452 103.737 229.072 104.061 230.318 104.709C231.589 105.332 232.524 106.317 233.122 107.663C233.745 108.984 234.057 110.691 234.057 112.784V115.813C234.057 116.71 234.069 117.62 234.094 118.542C234.144 119.439 234.194 120.349 234.243 121.271C234.318 122.168 234.405 123.078 234.505 124H229.196C229.097 123.427 228.997 122.741 228.897 121.944C228.798 121.121 228.723 120.286 228.673 119.439H227.963C227.614 120.386 227.103 121.258 226.43 122.056C225.782 122.829 224.984 123.439 224.037 123.888C223.115 124.312 222.068 124.523 220.897 124.523ZM223.626 120.261C224.075 120.261 224.523 120.187 224.972 120.037C225.445 119.863 225.894 119.638 226.318 119.364C226.742 119.065 227.128 118.704 227.477 118.28C227.826 117.856 228.087 117.395 228.262 116.897L228.187 113.943L229.01 114.13C228.536 114.429 228.013 114.666 227.439 114.841C226.866 115.015 226.28 115.152 225.682 115.252C225.109 115.352 224.536 115.464 223.963 115.588C223.414 115.688 222.916 115.825 222.467 116C222.043 116.174 221.707 116.411 221.458 116.71C221.208 117.009 221.084 117.42 221.084 117.944C221.084 118.641 221.321 119.202 221.794 119.626C222.268 120.05 222.878 120.261 223.626 120.261ZM238.495 124V112.111V104.261H243.355L243.43 110.055H244.178C244.502 108.66 244.963 107.488 245.561 106.541C246.159 105.594 246.919 104.896 247.842 104.447C248.764 103.974 249.848 103.737 251.094 103.737C253.412 103.737 255.169 104.547 256.365 106.167C257.587 107.787 258.197 110.367 258.197 113.906V124H252.141V114.579C252.141 112.535 251.842 111.052 251.244 110.13C250.67 109.183 249.81 108.709 248.664 108.709C247.717 108.709 246.932 108.996 246.309 109.569C245.711 110.143 245.262 110.903 244.963 111.85C244.664 112.797 244.514 113.856 244.514 115.028V124H238.495ZM269.734 124.523C268.089 124.523 266.643 124.112 265.397 123.29C264.176 122.442 263.216 121.246 262.518 119.701C261.82 118.131 261.471 116.261 261.471 114.093C261.471 112.099 261.77 110.329 262.369 108.784C262.967 107.239 263.852 106.03 265.023 105.158C266.219 104.261 267.69 103.812 269.434 103.812C270.681 103.812 271.727 104.036 272.575 104.485C273.447 104.933 274.17 105.606 274.743 106.504C275.316 107.401 275.777 108.535 276.126 109.906H277.061C276.887 109.058 276.725 108.261 276.575 107.513C276.426 106.74 276.301 106.03 276.201 105.382C276.126 104.709 276.089 104.123 276.089 103.625V97.0826H282.145V114.355V124H277.211L277.136 118.168H276.313C276.039 119.663 275.603 120.885 275.005 121.832C274.432 122.754 273.696 123.439 272.799 123.888C271.927 124.312 270.905 124.523 269.734 124.523ZM271.902 119.663C272.675 119.663 273.323 119.501 273.846 119.177C274.394 118.828 274.83 118.392 275.154 117.869C275.478 117.345 275.715 116.785 275.865 116.186C276.014 115.588 276.089 115.028 276.089 114.504V113.719C276.089 113.245 276.027 112.772 275.902 112.298C275.777 111.825 275.591 111.364 275.341 110.915C275.117 110.467 274.83 110.068 274.481 109.719C274.133 109.37 273.721 109.096 273.248 108.896C272.799 108.697 272.301 108.597 271.752 108.597C270.93 108.597 270.22 108.822 269.621 109.27C269.048 109.719 268.6 110.354 268.276 111.177C267.976 111.999 267.827 112.971 267.827 114.093C267.827 115.214 267.989 116.199 268.313 117.046C268.637 117.869 269.11 118.517 269.734 118.99C270.357 119.439 271.079 119.663 271.902 119.663ZM295.881 124.523C293.887 124.523 292.118 124.137 290.573 123.364C289.052 122.592 287.856 121.433 286.984 119.888C286.111 118.342 285.675 116.411 285.675 114.093C285.675 111.775 286.111 109.856 286.984 108.336C287.856 106.79 289.065 105.644 290.61 104.896C292.155 104.123 293.925 103.737 295.919 103.737C297.913 103.737 299.682 104.123 301.227 104.896C302.773 105.669 303.981 106.828 304.854 108.373C305.726 109.893 306.162 111.812 306.162 114.13C306.162 116.498 305.714 118.455 304.816 120C303.919 121.545 302.685 122.692 301.115 123.439C299.57 124.162 297.825 124.523 295.881 124.523ZM296.068 120.149C296.966 120.149 297.713 119.95 298.311 119.551C298.91 119.127 299.358 118.492 299.657 117.644C299.956 116.797 300.106 115.75 300.106 114.504C300.106 113.183 299.944 112.074 299.62 111.177C299.296 110.255 298.81 109.557 298.162 109.083C297.539 108.585 296.729 108.336 295.732 108.336C294.884 108.336 294.149 108.547 293.526 108.971C292.928 109.37 292.479 109.993 292.18 110.84C291.881 111.688 291.732 112.747 291.732 114.018C291.732 116.062 292.105 117.595 292.853 118.617C293.626 119.638 294.697 120.149 296.068 120.149ZM6.76674 166L0.299082 146.298H6.99105L10.7296 161.289H11.3651L15.1784 146.298H21.5713L15.0663 166H6.76674ZM24.1868 166V146.261H30.2059V166H24.1868ZM27.215 143.494C26.0686 143.494 25.1838 143.257 24.5607 142.784C23.9625 142.285 23.6634 141.587 23.6634 140.69C23.6634 139.743 23.9625 139.033 24.5607 138.559C25.1838 138.061 26.0686 137.811 27.215 137.811C28.3864 137.811 29.2712 138.061 29.8694 138.559C30.4925 139.033 30.804 139.731 30.804 140.653C30.804 141.575 30.4925 142.285 29.8694 142.784C29.2712 143.257 28.3864 143.494 27.215 143.494ZM43.9686 166.523C41.9747 166.523 40.2052 166.137 38.6599 165.364C37.1396 164.592 35.9432 163.433 35.0709 161.888C34.1986 160.342 33.7624 158.411 33.7624 156.093C33.7624 153.775 34.1986 151.856 35.0709 150.336C35.9432 148.79 37.152 147.644 38.6973 146.896C40.2426 146.123 42.0121 145.737 44.006 145.737C45.9999 145.737 47.7695 146.123 49.3147 146.896C50.86 147.669 52.0688 148.828 52.9411 150.373C53.8134 151.893 54.2496 153.812 54.2496 156.13C54.2496 158.498 53.801 160.455 52.9037 162C52.0065 163.545 50.7728 164.692 49.2026 165.439C47.6573 166.162 45.9127 166.523 43.9686 166.523ZM44.1556 162.149C45.0528 162.149 45.8005 161.95 46.3987 161.551C46.9968 161.127 47.4455 160.492 47.7445 159.644C48.0436 158.797 48.1932 157.75 48.1932 156.504C48.1932 155.183 48.0312 154.074 47.7072 153.177C47.3832 152.255 46.8971 151.557 46.2491 151.083C45.626 150.585 44.816 150.336 43.8191 150.336C42.9717 150.336 42.2364 150.547 41.6134 150.971C41.0152 151.37 40.5666 151.993 40.2675 152.84C39.9684 153.688 39.8189 154.747 39.8189 156.018C39.8189 158.062 40.1927 159.595 40.9404 160.617C41.713 161.638 42.7848 162.149 44.1556 162.149ZM57.7752 166V139.083H63.6821V166H57.7752ZM77.7465 166.523C76.1016 166.523 74.6311 166.312 73.3351 165.888C72.0391 165.439 70.93 164.791 70.0078 163.944C69.1105 163.096 68.4251 162.05 67.9516 160.803C67.478 159.557 67.2413 158.124 67.2413 156.504C67.2413 154.934 67.4656 153.488 67.9142 152.167C68.3878 150.846 69.0482 149.712 69.8956 148.765C70.768 147.793 71.8272 147.046 73.0734 146.522C74.3445 145.999 75.7651 145.737 77.3353 145.737C78.9304 145.737 80.3261 145.999 81.5225 146.522C82.7437 147.021 83.7407 147.768 84.5133 148.765C85.3108 149.762 85.8965 150.984 86.2704 152.429C86.6443 153.85 86.7689 155.482 86.6442 157.327L71.2041 157.439V154.298L83.2048 154.186L81.0738 155.644C81.2483 154.398 81.1735 153.389 80.8495 152.616C80.5255 151.819 80.052 151.245 79.4289 150.896C78.8058 150.522 78.1329 150.336 77.4101 150.336C76.5378 150.336 75.7651 150.572 75.0922 151.046C74.4442 151.519 73.9332 152.205 73.5594 153.102C73.1855 153.999 72.9986 155.096 72.9986 156.392C72.9986 158.436 73.4348 159.919 74.3071 160.841C75.2043 161.763 76.3384 162.224 77.7092 162.224C78.3821 162.224 78.9429 162.137 79.3915 161.962C79.8401 161.763 80.2015 161.526 80.4757 161.252C80.7748 160.953 80.9991 160.629 81.1486 160.28C81.3231 159.931 81.4602 159.595 81.5598 159.271L86.7938 160.392C86.5944 161.314 86.2704 162.149 85.8218 162.897C85.3981 163.645 84.8124 164.293 84.0647 164.841C83.3419 165.389 82.4571 165.801 81.4103 166.075C80.3884 166.374 79.1672 166.523 77.7465 166.523ZM90.3048 166V154.111V146.261H95.1649L95.2397 152.055H95.9874C96.3114 150.66 96.7725 149.488 97.3706 148.541C97.9688 147.594 98.729 146.896 99.6511 146.447C100.573 145.974 101.657 145.737 102.904 145.737C105.222 145.737 106.979 146.547 108.175 148.167C109.396 149.787 110.007 152.367 110.007 155.906V166H103.95V156.579C103.95 154.535 103.651 153.052 103.053 152.13C102.48 151.183 101.62 150.709 100.474 150.709C99.5265 150.709 98.7414 150.996 98.1183 151.569C97.5202 152.143 97.0715 152.903 96.7725 153.85C96.4734 154.797 96.3238 155.856 96.3238 157.028V166H90.3048ZM123.637 166.523C121.942 166.523 120.447 166.287 119.15 165.813C117.854 165.34 116.77 164.667 115.898 163.794C115.026 162.897 114.353 161.825 113.879 160.579C113.431 159.333 113.206 157.937 113.206 156.392C113.206 154.797 113.431 153.351 113.879 152.055C114.353 150.759 115.026 149.638 115.898 148.691C116.77 147.744 117.842 147.021 119.113 146.522C120.384 145.999 121.842 145.737 123.487 145.737C125.132 145.737 126.553 145.999 127.749 146.522C128.945 147.046 129.917 147.781 130.665 148.728C131.438 149.675 131.961 150.772 132.235 152.018L126.665 153.887C126.59 153.065 126.391 152.392 126.067 151.868C125.743 151.345 125.319 150.971 124.796 150.747C124.297 150.498 123.749 150.373 123.151 150.373C122.528 150.373 121.979 150.498 121.506 150.747C121.032 150.996 120.633 151.37 120.309 151.868C119.985 152.367 119.736 152.977 119.562 153.7C119.387 154.398 119.3 155.208 119.3 156.13C119.3 157.451 119.462 158.56 119.786 159.458C120.135 160.33 120.633 160.99 121.281 161.439C121.954 161.888 122.764 162.112 123.711 162.112C124.684 162.112 125.444 161.913 125.992 161.514C126.54 161.115 126.939 160.629 127.188 160.056C127.438 159.458 127.587 158.872 127.637 158.299L132.871 159.458C132.771 160.38 132.522 161.277 132.123 162.149C131.749 162.997 131.189 163.757 130.441 164.43C129.693 165.078 128.759 165.589 127.637 165.963C126.54 166.336 125.207 166.523 123.637 166.523ZM135.686 166V146.261H141.705V166H135.686ZM138.714 143.494C137.567 143.494 136.683 143.257 136.059 142.784C135.461 142.285 135.162 141.587 135.162 140.69C135.162 139.743 135.461 139.033 136.059 138.559C136.683 138.061 137.567 137.811 138.714 137.811C139.885 137.811 140.77 138.061 141.368 138.559C141.991 139.033 142.303 139.731 142.303 140.653C142.303 141.575 141.991 142.285 141.368 142.784C140.77 143.257 139.885 143.494 138.714 143.494ZM151.019 166.523C149.922 166.523 148.95 166.312 148.102 165.888C147.255 165.439 146.595 164.804 146.121 163.981C145.648 163.134 145.411 162.112 145.411 160.916C145.411 159.794 145.623 158.872 146.046 158.149C146.495 157.401 147.13 156.816 147.953 156.392C148.8 155.943 149.81 155.582 150.981 155.308C152.153 155.009 153.486 154.747 154.981 154.523C155.704 154.398 156.302 154.286 156.776 154.186C157.274 154.062 157.648 153.875 157.897 153.625C158.147 153.376 158.271 153.015 158.271 152.541C158.271 151.918 158.047 151.382 157.598 150.934C157.15 150.485 156.427 150.261 155.43 150.261C154.732 150.261 154.097 150.385 153.523 150.635C152.975 150.884 152.501 151.245 152.103 151.719C151.704 152.192 151.405 152.766 151.205 153.439L145.897 151.868C146.221 150.822 146.669 149.912 147.243 149.139C147.841 148.367 148.551 147.731 149.374 147.233C150.196 146.709 151.131 146.335 152.177 146.111C153.249 145.862 154.383 145.737 155.58 145.737C157.573 145.737 159.193 146.061 160.44 146.709C161.711 147.332 162.645 148.317 163.244 149.663C163.867 150.984 164.178 152.691 164.178 154.784V157.813C164.178 158.71 164.191 159.62 164.216 160.542C164.265 161.439 164.315 162.349 164.365 163.271C164.44 164.168 164.527 165.078 164.627 166H159.318C159.218 165.427 159.119 164.741 159.019 163.944C158.919 163.121 158.845 162.286 158.795 161.439H158.084C157.735 162.386 157.224 163.258 156.552 164.056C155.904 164.829 155.106 165.439 154.159 165.888C153.237 166.312 152.19 166.523 151.019 166.523ZM153.748 162.261C154.196 162.261 154.645 162.187 155.094 162.037C155.567 161.863 156.016 161.638 156.439 161.364C156.863 161.065 157.249 160.704 157.598 160.28C157.947 159.856 158.209 159.395 158.383 158.897L158.309 155.943L159.131 156.13C158.658 156.429 158.134 156.666 157.561 156.841C156.988 157.015 156.402 157.152 155.804 157.252C155.231 157.352 154.657 157.464 154.084 157.588C153.536 157.688 153.037 157.825 152.589 158C152.165 158.174 151.829 158.411 151.579 158.71C151.33 159.009 151.205 159.42 151.205 159.944C151.205 160.641 151.442 161.202 151.916 161.626C152.389 162.05 153 162.261 153.748 162.261ZM184.156 166.523C182.511 166.523 181.066 166.112 179.82 165.29C178.598 164.442 177.639 163.246 176.941 161.701C176.243 160.131 175.894 158.261 175.894 156.093C175.894 154.099 176.193 152.329 176.791 150.784C177.389 149.239 178.274 148.03 179.446 147.158C180.642 146.261 182.112 145.812 183.857 145.812C185.103 145.812 186.15 146.036 186.998 146.485C187.87 146.933 188.593 147.606 189.166 148.504C189.739 149.401 190.2 150.535 190.549 151.906H191.484C191.309 151.058 191.147 150.261 190.998 149.513C190.848 148.74 190.724 148.03 190.624 147.382C190.549 146.709 190.512 146.123 190.512 145.625V139.083H196.568V156.355V166H191.633L191.559 160.168H190.736C190.462 161.663 190.026 162.885 189.428 163.832C188.854 164.754 188.119 165.439 187.222 165.888C186.349 166.312 185.328 166.523 184.156 166.523ZM186.325 161.663C187.097 161.663 187.745 161.501 188.269 161.177C188.817 160.828 189.253 160.392 189.577 159.869C189.901 159.345 190.138 158.785 190.287 158.186C190.437 157.588 190.512 157.028 190.512 156.504V155.719C190.512 155.245 190.449 154.772 190.325 154.298C190.2 153.825 190.013 153.364 189.764 152.915C189.54 152.467 189.253 152.068 188.904 151.719C188.555 151.37 188.144 151.096 187.67 150.896C187.222 150.697 186.723 150.597 186.175 150.597C185.353 150.597 184.642 150.822 184.044 151.27C183.471 151.719 183.022 152.354 182.698 153.177C182.399 153.999 182.25 154.971 182.25 156.093C182.25 157.214 182.412 158.199 182.736 159.046C183.06 159.869 183.533 160.517 184.156 160.99C184.779 161.439 185.502 161.663 186.325 161.663ZM201.219 166V146.261H207.238V166H201.219ZM204.248 143.494C203.101 143.494 202.216 143.257 201.593 142.784C200.995 142.285 200.696 141.587 200.696 140.69C200.696 139.743 200.995 139.033 201.593 138.559C202.216 138.061 203.101 137.811 204.248 137.811C205.419 137.811 206.304 138.061 206.902 138.559C207.525 139.033 207.837 139.731 207.837 140.653C207.837 141.575 207.525 142.285 206.902 142.784C206.304 143.257 205.419 143.494 204.248 143.494ZM219.88 172.916C217.686 172.916 215.879 172.742 214.459 172.393C213.063 172.069 212.041 171.57 211.393 170.897C210.745 170.249 210.421 169.452 210.421 168.505C210.421 167.358 210.87 166.424 211.767 165.701C212.689 164.978 214.035 164.567 215.805 164.467V163.682C214.434 163.682 213.375 163.545 212.627 163.271C211.904 162.997 211.543 162.486 211.543 161.738C211.543 161.04 211.904 160.405 212.627 159.831C213.35 159.258 214.546 158.81 216.216 158.486V157.7C214.696 157.576 213.487 157.077 212.59 156.205C211.692 155.308 211.244 154.136 211.244 152.691C211.244 151.47 211.593 150.36 212.29 149.364C212.988 148.342 214.035 147.532 215.431 146.933C216.827 146.31 218.571 145.999 220.665 145.999H230.908V150.522L224.665 149.7V150.597C226.285 150.822 227.444 151.195 228.142 151.719C228.84 152.242 229.189 152.977 229.189 153.925C229.189 154.921 228.84 155.806 228.142 156.579C227.469 157.352 226.509 157.962 225.263 158.411C224.017 158.834 222.534 159.046 220.814 159.046C220.515 159.046 220.179 159.034 219.805 159.009C219.456 158.984 218.795 158.922 217.823 158.822C217.425 159.171 217.113 159.47 216.889 159.719C216.665 159.944 216.552 160.155 216.552 160.355C216.552 160.504 216.615 160.629 216.739 160.729C216.864 160.828 217.038 160.903 217.263 160.953C217.512 160.978 217.774 160.99 218.048 160.99H224.067C224.565 160.99 225.213 161.028 226.011 161.103C226.833 161.152 227.643 161.339 228.441 161.663C229.263 161.987 229.949 162.511 230.497 163.233C231.07 163.956 231.357 164.991 231.357 166.336C231.357 167.807 230.946 169.028 230.123 170C229.301 170.997 228.042 171.732 226.347 172.206C224.652 172.68 222.497 172.916 219.88 172.916ZM220.665 168.131C222.11 168.131 223.232 168.056 224.029 167.907C224.827 167.757 225.375 167.52 225.674 167.196C225.998 166.872 226.16 166.474 226.16 166C226.16 165.551 226.073 165.202 225.899 164.953C225.724 164.679 225.5 164.492 225.226 164.392C224.952 164.293 224.665 164.23 224.366 164.206C224.092 164.181 223.855 164.168 223.656 164.168H218.833C217.911 164.168 217.225 164.392 216.777 164.841C216.353 165.265 216.141 165.763 216.141 166.336C216.141 166.81 216.291 167.171 216.59 167.421C216.889 167.695 217.362 167.882 218.01 167.981C218.683 168.081 219.568 168.131 220.665 168.131ZM220.403 156.056C221.475 156.056 222.272 155.769 222.796 155.196C223.344 154.622 223.618 153.9 223.618 153.027C223.618 152.08 223.344 151.308 222.796 150.709C222.247 150.086 221.462 149.775 220.44 149.775C219.419 149.775 218.621 150.086 218.048 150.709C217.475 151.308 217.188 152.08 217.188 153.027C217.188 153.601 217.313 154.124 217.562 154.597C217.811 155.046 218.172 155.407 218.646 155.682C219.119 155.931 219.705 156.056 220.403 156.056ZM234.625 166V146.261H240.644V166H234.625ZM237.653 143.494C236.507 143.494 235.622 143.257 234.999 142.784C234.401 142.285 234.102 141.587 234.102 140.69C234.102 139.743 234.401 139.033 234.999 138.559C235.622 138.061 236.507 137.811 237.653 137.811C238.825 137.811 239.71 138.061 240.308 138.559C240.931 139.033 241.242 139.731 241.242 140.653C241.242 141.575 240.931 142.285 240.308 142.784C239.71 143.257 238.825 143.494 237.653 143.494ZM253.024 166.486C250.706 166.486 248.999 165.875 247.902 164.654C246.805 163.408 246.257 161.427 246.257 158.71V150.971H243.453L243.565 146.298H245.584C246.382 146.273 246.98 146.148 247.379 145.924C247.802 145.7 248.064 145.276 248.164 144.653L248.65 141.886H252.052V146.261H256.8V151.158H252.052V158.448C252.052 159.296 252.251 159.919 252.65 160.317C253.074 160.716 253.709 160.916 254.557 160.916C255.03 160.916 255.479 160.866 255.902 160.766C256.326 160.666 256.675 160.529 256.949 160.355V165.925C256.152 166.174 255.416 166.324 254.743 166.374C254.095 166.449 253.522 166.486 253.024 166.486ZM265.146 166.523C264.049 166.523 263.077 166.312 262.23 165.888C261.383 165.439 260.722 164.804 260.248 163.981C259.775 163.134 259.538 162.112 259.538 160.916C259.538 159.794 259.75 158.872 260.174 158.149C260.622 157.401 261.258 156.816 262.08 156.392C262.928 155.943 263.937 155.582 265.109 155.308C266.28 155.009 267.613 154.747 269.109 154.523C269.832 154.398 270.43 154.286 270.903 154.186C271.402 154.062 271.776 153.875 272.025 153.625C272.274 153.376 272.399 153.015 272.399 152.541C272.399 151.918 272.174 151.382 271.726 150.934C271.277 150.485 270.554 150.261 269.557 150.261C268.86 150.261 268.224 150.385 267.651 150.635C267.102 150.884 266.629 151.245 266.23 151.719C265.831 152.192 265.532 152.766 265.333 153.439L260.024 151.868C260.348 150.822 260.797 149.912 261.37 149.139C261.968 148.367 262.679 147.731 263.501 147.233C264.323 146.709 265.258 146.335 266.305 146.111C267.377 145.862 268.511 145.737 269.707 145.737C271.701 145.737 273.321 146.061 274.567 146.709C275.838 147.332 276.773 148.317 277.371 149.663C277.994 150.984 278.306 152.691 278.306 154.784V157.813C278.306 158.71 278.318 159.62 278.343 160.542C278.393 161.439 278.443 162.349 278.493 163.271C278.567 164.168 278.655 165.078 278.754 166H273.445C273.346 165.427 273.246 164.741 273.146 163.944C273.047 163.121 272.972 162.286 272.922 161.439H272.212C271.863 162.386 271.352 163.258 270.679 164.056C270.031 164.829 269.233 165.439 268.286 165.888C267.364 166.312 266.317 166.523 265.146 166.523ZM267.875 162.261C268.324 162.261 268.772 162.187 269.221 162.037C269.695 161.863 270.143 161.638 270.567 161.364C270.991 161.065 271.377 160.704 271.726 160.28C272.075 159.856 272.336 159.395 272.511 158.897L272.436 155.943L273.259 156.13C272.785 156.429 272.262 156.666 271.688 156.841C271.115 157.015 270.529 157.152 269.931 157.252C269.358 157.352 268.785 157.464 268.212 157.588C267.663 157.688 267.165 157.825 266.716 158C266.292 158.174 265.956 158.411 265.707 158.71C265.458 159.009 265.333 159.42 265.333 159.944C265.333 160.641 265.57 161.202 266.043 161.626C266.517 162.05 267.127 162.261 267.875 162.261ZM282.744 166V139.083H288.651V166H282.744ZM308.871 166.523C307.226 166.523 305.781 166.112 304.535 165.29C303.313 164.442 302.354 163.246 301.656 161.701C300.958 160.131 300.609 158.261 300.609 156.093C300.609 154.099 300.908 152.329 301.506 150.784C302.105 149.239 302.989 148.03 304.161 147.158C305.357 146.261 306.828 145.812 308.572 145.812C309.818 145.812 310.865 146.036 311.713 146.485C312.585 146.933 313.308 147.606 313.881 148.504C314.454 149.401 314.915 150.535 315.264 151.906H316.199C316.024 151.058 315.862 150.261 315.713 149.513C315.563 148.74 315.439 148.03 315.339 147.382C315.264 146.709 315.227 146.123 315.227 145.625V139.083H321.283V156.355V166H316.348L316.274 160.168H315.451C315.177 161.663 314.741 162.885 314.143 163.832C313.569 164.754 312.834 165.439 311.937 165.888C311.065 166.312 310.043 166.523 308.871 166.523ZM311.04 161.663C311.812 161.663 312.46 161.501 312.984 161.177C313.532 160.828 313.968 160.392 314.292 159.869C314.616 159.345 314.853 158.785 315.002 158.186C315.152 157.588 315.227 157.028 315.227 156.504V155.719C315.227 155.245 315.164 154.772 315.04 154.298C314.915 153.825 314.728 153.364 314.479 152.915C314.255 152.467 313.968 152.068 313.619 151.719C313.27 151.37 312.859 151.096 312.385 150.896C311.937 150.697 311.438 150.597 310.89 150.597C310.068 150.597 309.357 150.822 308.759 151.27C308.186 151.719 307.737 152.354 307.413 153.177C307.114 153.999 306.965 154.971 306.965 156.093C306.965 157.214 307.127 158.199 307.451 159.046C307.775 159.869 308.248 160.517 308.871 160.99C309.494 161.439 310.217 161.663 311.04 161.663ZM335.318 166.523C333.673 166.523 332.203 166.312 330.907 165.888C329.611 165.439 328.502 164.791 327.579 163.944C326.682 163.096 325.997 162.05 325.523 160.803C325.05 159.557 324.813 158.124 324.813 156.504C324.813 154.934 325.037 153.488 325.486 152.167C325.959 150.846 326.62 149.712 327.467 148.765C328.34 147.793 329.399 147.046 330.645 146.522C331.916 145.999 333.337 145.737 334.907 145.737C336.502 145.737 337.898 145.999 339.094 146.522C340.315 147.021 341.312 147.768 342.085 148.765C342.882 149.762 343.468 150.984 343.842 152.429C344.216 153.85 344.341 155.482 344.216 157.327L328.776 157.439V154.298L340.776 154.186L338.645 155.644C338.82 154.398 338.745 153.389 338.421 152.616C338.097 151.819 337.624 151.245 337.001 150.896C336.377 150.522 335.704 150.336 334.982 150.336C334.109 150.336 333.337 150.572 332.664 151.046C332.016 151.519 331.505 152.205 331.131 153.102C330.757 153.999 330.57 155.096 330.57 156.392C330.57 158.436 331.006 159.919 331.879 160.841C332.776 161.763 333.91 162.224 335.281 162.224C335.954 162.224 336.515 162.137 336.963 161.962C337.412 161.763 337.773 161.526 338.047 161.252C338.346 160.953 338.571 160.629 338.72 160.28C338.895 159.931 339.032 159.595 339.131 159.271L344.365 160.392C344.166 161.314 343.842 162.149 343.393 162.897C342.97 163.645 342.384 164.293 341.636 164.841C340.914 165.389 340.029 165.801 338.982 166.075C337.96 166.374 336.739 166.523 335.318 166.523ZM10.281 214.916C8.08769 214.916 6.28073 214.742 4.86009 214.393C3.46437 214.069 2.44251 213.57 1.79449 212.897C1.14648 212.249 0.822477 211.452 0.822477 210.505C0.822477 209.358 1.2711 208.424 2.16835 207.701C3.09052 206.978 4.43639 206.567 6.20596 206.467V205.682C4.83517 205.682 3.77592 205.545 3.02821 205.271C2.30543 204.997 1.94404 204.486 1.94404 203.738C1.94404 203.04 2.30543 202.405 3.02821 201.831C3.75099 201.258 4.94732 200.81 6.6172 200.486V199.7C5.09686 199.576 3.88807 199.077 2.99082 198.205C2.09358 197.308 1.64495 196.136 1.64495 194.691C1.64495 193.47 1.99388 192.36 2.69174 191.364C3.3896 190.342 4.43639 189.532 5.83211 188.933C7.22783 188.31 8.97247 187.999 11.0661 187.999H21.3096V192.522L15.0663 191.7V192.597C16.6863 192.822 17.8453 193.195 18.5431 193.719C19.241 194.242 19.5899 194.977 19.5899 195.925C19.5899 196.921 19.241 197.806 18.5431 198.579C17.8702 199.352 16.9106 199.962 15.6644 200.411C14.4183 200.834 12.9353 201.046 11.2156 201.046C10.9165 201.046 10.58 201.034 10.2062 201.009C9.85726 200.984 9.19679 200.922 8.22477 200.822C7.82599 201.171 7.51445 201.47 7.29014 201.719C7.06582 201.944 6.95367 202.155 6.95367 202.355C6.95367 202.504 7.01598 202.629 7.14059 202.729C7.26521 202.828 7.43968 202.903 7.66399 202.953C7.91322 202.978 8.17492 202.99 8.44908 202.99H14.4681C14.9666 202.99 15.6146 203.028 16.4122 203.103C17.2346 203.152 18.0446 203.339 18.8422 203.663C19.6647 203.987 20.3501 204.511 20.8984 205.233C21.4716 205.956 21.7582 206.991 21.7582 208.336C21.7582 209.807 21.347 211.028 20.5245 212C19.7021 212.997 18.4434 213.732 16.7486 214.206C15.0538 214.68 12.8979 214.916 10.281 214.916ZM11.0661 210.131C12.5116 210.131 13.6332 210.056 14.4307 209.907C15.2283 209.757 15.7766 209.52 16.0757 209.196C16.3997 208.872 16.5617 208.474 16.5617 208C16.5617 207.551 16.4745 207.202 16.3 206.953C16.1255 206.679 15.9012 206.492 15.6271 206.392C15.3529 206.293 15.0663 206.23 14.7672 206.206C14.493 206.181 14.2563 206.168 14.0569 206.168H9.23417C8.312 206.168 7.6266 206.392 7.17798 206.841C6.75428 207.265 6.54243 207.763 6.54243 208.336C6.54243 208.81 6.69197 209.171 6.99105 209.421C7.29014 209.695 7.76368 209.882 8.41169 209.981C9.08463 210.081 9.96942 210.131 11.0661 210.131ZM10.8044 198.056C11.8761 198.056 12.6736 197.769 13.197 197.196C13.7453 196.622 14.0195 195.9 14.0195 195.027C14.0195 194.08 13.7453 193.308 13.197 192.709C12.6487 192.086 11.8636 191.775 10.8417 191.775C9.81987 191.775 9.02232 192.086 8.44908 192.709C7.87584 193.308 7.58922 194.08 7.58922 195.027C7.58922 195.601 7.71384 196.124 7.96307 196.597C8.21231 197.046 8.5737 197.407 9.04724 197.682C9.52079 197.931 10.1065 198.056 10.8044 198.056ZM34.0087 208.523C32.3637 208.523 30.8932 208.312 29.5972 207.888C28.3012 207.439 27.1921 206.791 26.2699 205.944C25.3726 205.096 24.6873 204.05 24.2137 202.803C23.7402 201.557 23.5034 200.124 23.5034 198.504C23.5034 196.934 23.7277 195.488 24.1763 194.167C24.6499 192.846 25.3103 191.712 26.1577 190.765C27.0301 189.793 28.0893 189.046 29.3355 188.522C30.6066 187.999 32.0272 187.737 33.5974 187.737C35.1925 187.737 36.5882 187.999 37.7846 188.522C39.0058 189.021 40.0028 189.768 40.7754 190.765C41.5729 191.762 42.1587 192.984 42.5325 194.429C42.9064 195.85 43.031 197.482 42.9064 199.327L27.4662 199.439V196.298L39.4669 196.186L37.3359 197.644C37.5104 196.398 37.4356 195.389 37.1116 194.616C36.7876 193.819 36.3141 193.245 35.691 192.896C35.0679 192.522 34.395 192.336 33.6722 192.336C32.7999 192.336 32.0272 192.572 31.3543 193.046C30.7063 193.519 30.1954 194.205 29.8215 195.102C29.4476 195.999 29.2607 197.096 29.2607 198.392C29.2607 200.436 29.6969 201.919 30.5692 202.841C31.4665 203.763 32.6005 204.224 33.9713 204.224C34.6442 204.224 35.205 204.137 35.6536 203.962C36.1022 203.763 36.4636 203.526 36.7378 203.252C37.0369 202.953 37.2612 202.629 37.4107 202.28C37.5852 201.931 37.7223 201.595 37.822 201.271L43.0559 202.392C42.8565 203.314 42.5325 204.149 42.0839 204.897C41.6602 205.645 41.0745 206.293 40.3268 206.841C39.604 207.389 38.7192 207.801 37.6724 208.075C36.6505 208.374 35.4293 208.523 34.0087 208.523ZM35.3171 185.681H30.7935L33.6348 179.176H39.5043L35.3171 185.681ZM46.5669 208V196.111V188.261H51.427L51.5018 194.055H52.2495C52.5735 192.66 53.0346 191.488 53.6327 190.541C54.2309 189.594 54.9911 188.896 55.9132 188.447C56.8354 187.974 57.9196 187.737 59.1658 187.737C61.4836 187.737 63.2408 188.547 64.4371 190.167C65.6583 191.787 66.269 194.367 66.269 197.906V208H60.2125V198.579C60.2125 196.535 59.9135 195.052 59.3153 194.13C58.7421 193.183 57.8822 192.709 56.7357 192.709C55.7886 192.709 55.0035 192.996 54.3804 193.569C53.7823 194.143 53.3336 194.903 53.0346 195.85C52.7355 196.797 52.5859 197.856 52.5859 199.028V208H46.5669ZM79.9736 208.523C78.3286 208.523 76.8582 208.312 75.5621 207.888C74.2661 207.439 73.157 206.791 72.2348 205.944C71.3376 205.096 70.6522 204.05 70.1786 202.803C69.7051 201.557 69.4683 200.124 69.4683 198.504C69.4683 196.934 69.6926 195.488 70.1413 194.167C70.6148 192.846 71.2753 191.712 72.1227 190.765C72.995 189.793 74.0543 189.046 75.3004 188.522C76.5715 187.999 77.9922 187.737 79.5624 187.737C81.1575 187.737 82.5532 187.999 83.7495 188.522C84.9708 189.021 85.9677 189.768 86.7403 190.765C87.5379 191.762 88.1236 192.984 88.4974 194.429C88.8713 195.85 88.9959 197.482 88.8713 199.327L73.4312 199.439V196.298L85.4319 196.186L83.3009 197.644C83.4754 196.398 83.4006 195.389 83.0766 194.616C82.7526 193.819 82.279 193.245 81.6559 192.896C81.0328 192.522 80.3599 192.336 79.6371 192.336C78.7648 192.336 77.9922 192.572 77.3192 193.046C76.6712 193.519 76.1603 194.205 75.7864 195.102C75.4126 195.999 75.2257 197.096 75.2257 198.392C75.2257 200.436 75.6618 201.919 76.5341 202.841C77.4314 203.763 78.5654 204.224 79.9362 204.224C80.6091 204.224 81.1699 204.137 81.6186 203.962C82.0672 203.763 82.4286 203.526 82.7027 203.252C83.0018 202.953 83.2261 202.629 83.3757 202.28C83.5501 201.931 83.6872 201.595 83.7869 201.271L89.0208 202.392C88.8215 203.314 88.4974 204.149 88.0488 204.897C87.6251 205.645 87.0394 206.293 86.2917 206.841C85.5689 207.389 84.6841 207.801 83.6374 208.075C82.6155 208.374 81.3942 208.523 79.9736 208.523ZM92.5318 208V198.841V188.261H97.4667L97.5789 194.953H98.3266C98.501 193.208 98.825 191.825 99.2986 190.803C99.7971 189.756 100.495 188.996 101.392 188.522C102.314 188.049 103.448 187.812 104.794 187.812C104.994 187.812 105.218 187.824 105.467 187.849C105.716 187.849 106.003 187.874 106.327 187.924L106.103 194.354C105.704 194.155 105.268 194.03 104.794 193.981C104.346 193.906 103.947 193.868 103.598 193.868C102.626 193.868 101.778 194.055 101.056 194.429C100.358 194.803 99.7971 195.376 99.3734 196.149C98.9746 196.921 98.7129 197.894 98.5883 199.065V208H92.5318ZM118.301 208.523C116.307 208.523 114.538 208.137 112.992 207.364C111.472 206.592 110.276 205.433 109.403 203.888C108.531 202.342 108.095 200.411 108.095 198.093C108.095 195.775 108.531 193.856 109.403 192.336C110.276 190.79 111.485 189.644 113.03 188.896C114.575 188.123 116.345 187.737 118.339 187.737C120.332 187.737 122.102 188.123 123.647 188.896C125.192 189.669 126.401 190.828 127.274 192.373C128.146 193.893 128.582 195.812 128.582 198.13C128.582 200.498 128.133 202.455 127.236 204C126.339 205.545 125.105 206.692 123.535 207.439C121.99 208.162 120.245 208.523 118.301 208.523ZM118.488 204.149C119.385 204.149 120.133 203.95 120.731 203.551C121.329 203.127 121.778 202.492 122.077 201.644C122.376 200.797 122.526 199.75 122.526 198.504C122.526 197.183 122.364 196.074 122.04 195.177C121.716 194.255 121.23 193.557 120.582 193.083C119.959 192.585 119.149 192.336 118.152 192.336C117.304 192.336 116.569 192.547 115.946 192.971C115.348 193.37 114.899 193.993 114.6 194.84C114.301 195.688 114.151 196.747 114.151 198.018C114.151 200.062 114.525 201.595 115.273 202.617C116.046 203.638 117.117 204.149 118.488 204.149Z" fill="#F5DA7C"/>
</svg>
