<svg width="413" height="881" viewBox="0 0 413 881" fill="none" xmlns="http://www.w3.org/2000/svg">
<path opacity="0.3" fill-rule="evenodd" clip-rule="evenodd" d="M104.21 300.774C104.231 303.027 106.07 304.838 108.321 304.82C110.57 304.802 112.387 302.963 112.367 300.71L112.35 298.26L112.35 298.26C112.348 298.073 112.496 297.923 112.683 297.922L115.13 297.903C117.383 297.888 119.196 296.046 119.176 293.793C119.161 291.539 117.321 289.729 115.066 289.746L112.618 289.765C112.432 289.767 112.282 289.62 112.28 289.433L112.262 287.135C112.245 284.971 110.602 283.063 108.409 282.945C106.038 282.817 104.086 284.712 104.105 287.049L104.126 289.499C104.128 289.687 103.977 289.837 103.796 289.837L103.794 289.837L101.342 289.856C99.0883 289.871 97.2776 291.711 97.2926 293.964L97.2926 293.965C97.3131 296.217 99.1525 298.028 101.405 298.013L101.406 298.013L103.855 297.991L103.856 297.991C104.044 297.99 104.193 298.14 104.193 298.322L104.193 298.324L104.21 300.774Z" fill="#51509A"/>
<path opacity="0.3" fill-rule="evenodd" clip-rule="evenodd" d="M117.905 320.292C115.482 322.759 115.513 326.721 117.975 329.145C120.436 331.568 124.405 331.544 126.829 329.075L129.469 326.399L129.469 326.398C129.671 326.194 129.993 326.191 130.198 326.392L132.874 329.028C135.336 331.457 139.305 331.426 141.729 328.959C144.158 326.496 144.126 322.533 141.659 320.105L138.982 317.469C138.777 317.268 138.775 316.945 138.976 316.741L141.45 314.227C143.781 311.86 144.069 308.005 141.816 305.497C139.382 302.784 135.205 302.722 132.688 305.279L130.053 307.962C129.85 308.168 129.524 308.167 129.327 307.97L129.325 307.968L126.642 305.327C124.18 302.897 120.217 302.929 117.789 305.391L117.788 305.391C115.365 307.859 115.396 311.821 117.857 314.25L117.858 314.251L120.541 316.886L120.541 316.886C120.746 317.089 120.745 317.414 120.549 317.611L120.547 317.614L117.905 320.292Z" fill="#51509A"/>
<path fill-rule="evenodd" clip-rule="evenodd" d="M400.137 429.676C400.133 426.288 397.388 423.542 394.003 423.542C390.619 423.542 387.864 426.286 387.868 429.677L387.865 433.361C387.865 433.642 387.641 433.866 387.36 433.866L383.68 433.866C380.29 433.861 377.541 436.611 377.544 440C377.541 443.389 380.287 446.135 383.679 446.135L387.36 446.135C387.642 446.135 387.865 446.358 387.865 446.639L387.865 450.096C387.865 453.351 390.314 456.24 393.611 456.443C397.175 456.664 400.134 453.836 400.134 450.321L400.13 446.636C400.13 446.353 400.358 446.129 400.631 446.131L400.635 446.131L404.323 446.131C407.712 446.135 410.458 443.389 410.462 440.001L410.462 440C410.458 436.611 407.712 433.866 404.324 433.862L404.323 433.862L400.638 433.866C400.355 433.865 400.132 433.637 400.134 433.365L400.134 433.362L400.137 429.676Z" fill="#BCBBE7"/>
<path d="M408 440.5C122.025 440.5 -10 881 -10 881L-9.99997 -1.82714e-05C-9.99997 -1.82714e-05 122.26 440.5 408 440.5Z" fill="url(#paint0_linear_629_83)"/>
<path opacity="0.3" fill-rule="evenodd" clip-rule="evenodd" d="M82.913 634.015C85.127 633.6 86.5881 631.472 86.1766 629.26C85.7653 627.047 83.6364 625.581 81.4211 625.996L79.0126 626.441L79.0123 626.441C78.8285 626.475 78.6554 626.356 78.6212 626.173L78.1739 623.767C77.7646 621.551 75.6332 620.088 73.4185 620.503C71.2027 620.912 69.7422 623.041 70.1545 625.258L70.6019 627.664C70.6361 627.848 70.5173 628.021 70.3335 628.055L68.0744 628.475C65.9468 628.871 64.3556 630.823 64.6241 633.003C64.9127 635.359 67.1207 636.949 69.4186 636.522L71.8267 636.072C72.0118 636.037 72.1854 636.159 72.2174 636.338L72.2178 636.34L72.6661 638.751C73.0754 640.967 75.204 642.427 77.419 642.018L77.4199 642.018C79.6341 641.603 81.0947 639.475 80.6855 637.26L80.6854 637.259L80.2351 634.851L80.235 634.851C80.2009 634.666 80.3229 634.493 80.5013 634.461L80.5032 634.46L82.913 634.015Z" fill="#51509A"/>
<path opacity="0.3" fill-rule="evenodd" clip-rule="evenodd" d="M104.21 300.774C104.231 303.027 106.07 304.838 108.321 304.82C110.57 304.802 112.387 302.963 112.367 300.71L112.35 298.26L112.35 298.26C112.348 298.073 112.496 297.923 112.683 297.922L115.13 297.903C117.383 297.888 119.196 296.046 119.176 293.793C119.161 291.539 117.321 289.729 115.066 289.746L112.618 289.765C112.432 289.767 112.282 289.62 112.28 289.433L112.262 287.135C112.245 284.971 110.602 283.063 108.409 282.945C106.038 282.817 104.086 284.712 104.105 287.049L104.126 289.499C104.128 289.687 103.977 289.837 103.796 289.837L103.794 289.837L101.342 289.856C99.0883 289.871 97.2776 291.711 97.2926 293.964L97.2926 293.965C97.3131 296.217 99.1525 298.028 101.405 298.013L101.406 298.013L103.855 297.991L103.856 297.991C104.044 297.99 104.193 298.14 104.193 298.322L104.193 298.324L104.21 300.774Z" fill="#51509A"/>
<path opacity="0.3" fill-rule="evenodd" clip-rule="evenodd" d="M117.905 320.292C115.482 322.759 115.513 326.721 117.975 329.145C120.436 331.568 124.405 331.544 126.829 329.075L129.469 326.399L129.469 326.398C129.671 326.194 129.993 326.191 130.198 326.392L132.874 329.028C135.336 331.457 139.305 331.426 141.729 328.959C144.158 326.496 144.126 322.533 141.659 320.105L138.982 317.469C138.777 317.268 138.775 316.945 138.976 316.741L141.45 314.227C143.781 311.86 144.069 308.005 141.816 305.497C139.382 302.784 135.205 302.722 132.688 305.279L130.053 307.962C129.85 308.168 129.524 308.167 129.327 307.97L129.325 307.968L126.642 305.327C124.18 302.897 120.217 302.929 117.789 305.391L117.788 305.391C115.365 307.859 115.396 311.821 117.857 314.25L117.858 314.251L120.541 316.886L120.541 316.886C120.746 317.089 120.745 317.414 120.549 317.611L120.547 317.614L117.905 320.292Z" fill="#51509A"/>
<path opacity="0.3" fill-rule="evenodd" clip-rule="evenodd" d="M99.731 617.114C102.584 619.067 106.48 618.344 108.435 615.495C110.39 612.647 109.671 608.745 106.816 606.79L103.718 604.659L103.718 604.659C103.481 604.497 103.422 604.18 103.585 603.943L105.711 600.846C107.671 597.997 106.946 594.095 104.092 592.141C101.242 590.18 97.3464 590.906 95.3873 593.76L93.2612 596.857C93.0988 597.094 92.7819 597.153 92.5453 596.99L89.637 594.994C86.8982 593.114 83.0525 593.506 80.9777 596.163C78.7329 599.035 79.4035 603.157 82.3618 605.188L85.4646 607.313C85.7028 607.476 85.7588 607.797 85.5998 608.026L85.5977 608.029L83.4677 611.132C81.5065 613.982 82.2317 617.878 85.0802 619.838L85.0813 619.839C87.9348 621.792 91.8301 621.068 93.7905 618.219L93.7912 618.218L95.916 615.116L95.9163 615.115C96.0799 614.877 96.4007 614.821 96.629 614.98L96.6315 614.982L99.731 617.114Z" fill="#51509A"/>
<defs>
<linearGradient id="paint0_linear_629_83" x1="362.895" y1="440.069" x2="-22.2167" y2="461.394" gradientUnits="userSpaceOnUse">
<stop offset="0.178904" stop-color="#B8B7E6"/>
<stop offset="0.810986" stop-color="#E4E3F7"/>
</linearGradient>
</defs>
</svg>
