<svg width="942" height="404" viewBox="0 0 942 404" fill="none" xmlns="http://www.w3.org/2000/svg">
<path fill-rule="evenodd" clip-rule="evenodd" d="M58.5169 348.426C58.5133 345.526 56.1637 343.176 53.2658 343.176C50.369 343.176 48.0115 345.525 48.0149 348.427L48.0117 351.581L48.0117 351.581C48.0117 351.822 47.8206 352.013 47.5799 352.013L44.4294 352.013C41.5284 352.009 39.1747 354.363 39.1779 357.264C39.1747 360.165 41.5255 362.515 44.429 362.515L47.58 362.515C47.8207 362.515 48.0119 362.706 48.0119 362.947L48.0119 365.905C48.012 368.691 50.1078 371.165 52.9304 371.338C55.9814 371.528 58.5139 369.107 58.5139 366.098L58.5106 362.944C58.5106 362.701 58.706 362.51 58.9395 362.512L58.9425 362.512L62.0994 362.512C65.0008 362.515 67.3506 360.165 67.3541 357.265L67.3541 357.264C67.3505 354.363 65.0007 352.013 62.1004 352.01L62.0994 352.01L58.9456 352.013L58.9451 352.013C58.703 352.013 58.5122 351.817 58.5137 351.584L58.5137 351.582L58.5169 348.426Z" fill="#FFFFDB"/>
<path fill-rule="evenodd" clip-rule="evenodd" d="M58.5169 54.4263C58.5133 51.5263 56.1637 49.1758 53.2658 49.1758C50.369 49.1758 48.0115 51.5253 48.0149 54.4271L48.0117 57.5805L48.0117 57.581C48.0117 57.8216 47.8206 58.0128 47.5799 58.0128L44.4294 58.0128C41.5284 58.0092 39.1747 60.3628 39.1779 63.2637C39.1747 66.1649 41.5255 68.5147 44.429 68.5147L47.58 68.5148C47.8207 68.5148 48.0119 68.706 48.0119 68.9466L48.0119 71.9052C48.012 74.6913 50.1078 77.1649 52.9304 77.3383C55.9814 77.5277 58.5139 75.1071 58.5139 72.0978L58.5106 68.9436C58.5106 68.7012 58.706 68.5102 58.9395 68.5117L58.9425 68.5117L62.0994 68.5118C65.0008 68.5153 67.3506 66.1647 67.3541 63.2646L67.3541 63.2635C67.3505 60.3632 65.0007 58.0133 62.1004 58.0098L62.0994 58.0098L58.9456 58.013L58.9451 58.013C58.703 58.0127 58.5122 57.8174 58.5137 57.5841L58.5137 57.5816L58.5169 54.4263Z" fill="#FFFFDB"/>
<path fill-rule="evenodd" clip-rule="evenodd" d="M40.7123 82.7679C40.7095 80.5155 38.8846 78.6899 36.6338 78.6899C34.3839 78.6899 32.5528 80.5147 32.5555 82.7685L32.553 85.2178L32.553 85.2181C32.553 85.4051 32.4046 85.5535 32.2176 85.5535L29.7706 85.5535C27.5174 85.5508 25.6893 87.3787 25.6919 89.6319C25.6894 91.8852 27.5152 93.7103 29.7703 93.7103L32.2177 93.7103C32.4047 93.7103 32.5531 93.8588 32.5531 94.0458L32.5532 96.3436C32.5532 98.5076 34.1811 100.429 36.3733 100.563C38.743 100.711 40.71 98.8306 40.71 96.4933L40.7075 94.0434C40.7075 93.8552 40.8592 93.7067 41.0406 93.7079L41.0429 93.708L43.4948 93.708C45.7483 93.7107 47.5734 91.8851 47.5761 89.6325L47.5761 89.6317C47.5733 87.379 45.7483 85.5539 43.4956 85.5512L43.4948 85.5512L41.0452 85.5536L41.0449 85.5536C40.8569 85.5535 40.7086 85.4018 40.7098 85.2205L40.7098 85.2186L40.7123 82.7679Z" fill="#FFFFDB"/>
<path fill-rule="evenodd" clip-rule="evenodd" d="M30.3498 314.474C30.3448 310.384 27.0306 307.068 22.9431 307.068C18.8571 307.068 15.5318 310.382 15.5367 314.475L15.5322 318.923L15.5322 318.924C15.5322 319.263 15.2626 319.533 14.9231 319.533L10.4793 319.533C6.38738 319.528 3.06748 322.848 3.07207 326.939C3.06758 331.032 6.38329 334.346 10.4787 334.346L14.9233 334.346C15.2627 334.346 15.5324 334.616 15.5324 334.955L15.5325 339.128C15.5325 343.058 18.4888 346.547 22.47 346.792C26.7735 347.059 30.3456 343.645 30.3455 339.4L30.341 334.951C30.341 334.609 30.6165 334.34 30.9459 334.342L30.9501 334.342L35.4029 334.342C39.4954 334.347 42.8098 331.031 42.8147 326.941L42.8147 326.939C42.8097 322.848 39.4953 319.534 35.4043 319.529L35.4029 319.529L30.9544 319.533L30.9538 319.533C30.6123 319.533 30.3431 319.258 30.3453 318.928L30.3453 318.925L30.3498 314.474Z" fill="#FFFFDB"/>
<path fill-rule="evenodd" clip-rule="evenodd" d="M239.611 226.376C259.368 246.181 259.373 278.239 239.608 298.005C219.849 317.764 187.743 317.819 167.974 298.002L146.443 276.515L146.44 276.512C144.798 274.87 142.19 274.87 140.549 276.512L119.06 298.001C99.2967 317.813 67.1896 317.814 47.4249 298.005C27.6142 278.238 27.6208 246.177 47.4249 226.372L68.9175 204.879C70.559 203.237 70.559 200.629 68.9175 198.988L48.7381 178.808C29.7342 159.803 27.158 128.636 45.2281 108.201C64.7465 86.099 98.5304 85.335 119.056 105.861L140.549 127.398C142.202 129.051 144.838 129.022 146.42 127.419L146.44 127.398L167.973 105.865C187.738 86.0509 219.799 86.0562 239.604 105.814L239.611 105.821C259.37 125.628 259.37 157.684 239.611 177.491L239.604 177.498L218.071 198.988L218.068 198.991C216.419 200.644 216.449 203.277 218.051 204.859L218.068 204.876L239.611 226.376Z" fill="#FFFFDB"/>
<path fill-rule="evenodd" clip-rule="evenodd" d="M164.514 183.04C158.925 183.04 154.394 191.531 154.394 202.005C154.394 212.48 158.925 220.971 164.514 220.971C170.104 220.971 174.635 212.48 174.635 202.005C174.635 191.531 170.104 183.04 164.514 183.04ZM130.96 202.005C130.96 212.482 126.431 220.971 120.839 220.971C115.246 220.971 110.718 212.482 110.718 202.005C110.718 191.529 115.246 183.04 120.839 183.04C126.431 183.04 130.96 191.529 130.96 202.005Z" fill="#3D3B80"/>
<g style="mix-blend-mode:soft-light">
<mask id="path-7-inside-1_316_687" fill="white">
<path fill-rule="evenodd" clip-rule="evenodd" d="M353.682 0C335.457 0 320.682 14.7746 320.682 33V153.462C320.664 153.875 320.654 154.292 320.654 154.713V162.956C320.654 168.147 319.167 173.002 316.682 175.93L299.885 195.717C298.596 196.866 297.532 198.523 296.73 200.481C295.53 203.261 294.983 206.509 295 209.727C294.983 212.944 295.53 216.192 296.73 218.973C297.532 220.93 298.596 222.587 299.885 223.736L316.682 243.523C319.167 246.451 320.654 251.307 320.654 256.497V264.741C320.654 265.161 320.664 265.578 320.682 265.991V371C320.682 389.225 335.457 404 353.682 404H909C927.225 404 942 389.225 942 371V33C942 14.7746 927.225 0 909 0H353.682Z"/>
</mask>
<path d="M320.682 153.462L322.68 153.553L322.682 153.508V153.462H320.682ZM316.682 175.93L315.157 174.636L316.682 175.93ZM299.885 195.717L301.216 197.21L301.32 197.117L301.41 197.011L299.885 195.717ZM296.73 200.481L298.566 201.273L298.573 201.256L298.58 201.239L296.73 200.481ZM295 209.727L297 209.737L297 209.727L297 209.716L295 209.727ZM296.73 218.973L298.58 218.214L298.573 218.197L298.566 218.18L296.73 218.973ZM299.885 223.736L301.41 222.442L301.32 222.336L301.216 222.243L299.885 223.736ZM316.682 243.523L315.157 244.817L316.682 243.523ZM320.682 265.991H322.682V265.945L322.68 265.9L320.682 265.991ZM322.682 33C322.682 15.8792 336.562 2 353.682 2V-2C334.352 -2 318.682 13.67 318.682 33H322.682ZM322.682 153.462V33H318.682V153.462H322.682ZM318.684 153.371C318.664 153.814 318.654 154.261 318.654 154.713H322.654C322.654 154.322 322.663 153.936 322.68 153.553L318.684 153.371ZM318.654 154.713V162.956H322.654V154.713H318.654ZM318.654 162.956C318.654 167.84 317.243 172.179 315.157 174.636L318.207 177.224C321.092 173.825 322.654 168.453 322.654 162.956H318.654ZM315.157 174.636L298.361 194.423L301.41 197.011L318.207 177.224L315.157 174.636ZM298.555 194.224C296.974 195.633 295.758 197.577 294.879 199.722L298.58 201.239C299.306 199.469 300.219 198.099 301.216 197.21L298.555 194.224ZM294.893 199.688C293.563 202.771 292.982 206.304 293 209.737L297 209.716C296.984 206.715 297.497 203.75 298.566 201.273L294.893 199.688ZM293 209.716C292.982 213.15 293.563 216.682 294.893 219.765L298.566 218.18C297.497 215.703 296.984 212.738 297 209.737L293 209.716ZM294.879 219.731C295.758 221.877 296.974 223.82 298.555 225.229L301.216 222.243C300.219 221.354 299.306 219.984 298.58 218.214L294.879 219.731ZM298.361 225.031L315.157 244.817L318.207 242.229L301.41 222.442L298.361 225.031ZM315.157 244.817C317.243 247.274 318.654 251.613 318.654 256.497H322.654C322.654 251 321.092 245.628 318.207 242.229L315.157 244.817ZM318.654 256.497V264.741H322.654V256.497H318.654ZM318.654 264.741C318.654 265.192 318.664 265.639 318.684 266.082L322.68 265.9C322.663 265.518 322.654 265.131 322.654 264.741H318.654ZM322.682 371V265.991H318.682V371H322.682ZM353.682 402C336.562 402 322.682 388.121 322.682 371H318.682C318.682 390.33 334.352 406 353.682 406V402ZM909 402H353.682V406H909V402ZM940 371C940 388.121 926.121 402 909 402V406C928.33 406 944 390.33 944 371H940ZM940 33V371H944V33H940ZM909 2C926.121 2 940 15.8792 940 33H944C944 13.67 928.33 -2 909 -2V2ZM353.682 2H909V-2H353.682V2Z" fill="#FFFFDC" mask="url(#path-7-inside-1_316_687)"/>
</g>
<path d="M470.627 93.5796C469.416 93.5796 468.025 93.445 466.455 93.1758C464.884 92.8618 463.314 92.5253 461.744 92.1663C460.219 91.7626 458.828 91.4261 457.572 91.1569C456.315 90.8428 455.351 90.6858 454.678 90.6858C453.691 90.6858 453.13 91.0447 452.995 91.7626C452.861 92.4355 452.861 93.3104 452.995 94.3871H446.4C445.279 91.9645 444.808 89.8334 444.987 87.9939C445.211 86.1545 445.952 84.7188 447.208 83.687C448.464 82.6102 450.034 82.0718 451.919 82.0718C453.175 82.0718 454.543 82.2064 456.024 82.4756C457.549 82.7448 459.052 83.0813 460.533 83.4851C462.013 83.844 463.359 84.158 464.57 84.4272C465.782 84.6964 466.724 84.831 467.397 84.831C468.294 84.831 468.833 84.4945 469.012 83.8215C469.191 83.1486 469.191 82.2737 469.012 81.197H475.674C476.572 83.3056 476.975 85.3245 476.886 87.2537C476.841 89.138 476.302 90.6634 475.271 91.8299C474.239 92.9963 472.691 93.5796 470.627 93.5796ZM667.26 158.58C666.049 158.58 664.658 158.445 663.087 158.176C661.517 157.862 659.947 157.525 658.377 157.166C656.851 156.763 655.461 156.426 654.204 156.157C652.948 155.843 651.984 155.686 651.311 155.686C650.324 155.686 649.763 156.045 649.628 156.763C649.494 157.436 649.494 158.31 649.628 159.387H643.033C641.911 156.964 641.44 154.833 641.62 152.994C641.844 151.155 642.584 149.719 643.841 148.687C645.097 147.61 646.667 147.072 648.551 147.072C649.808 147.072 651.176 147.206 652.656 147.476C654.182 147.745 655.685 148.081 657.165 148.485C658.646 148.844 659.992 149.158 661.203 149.427C662.415 149.696 663.357 149.831 664.03 149.831C664.927 149.831 665.465 149.495 665.645 148.822C665.824 148.149 665.824 147.274 665.645 146.197H672.307C673.204 148.306 673.608 150.325 673.518 152.254C673.474 154.138 672.935 155.663 671.903 156.83C670.871 157.996 669.324 158.58 667.26 158.58Z" fill="#FFFFDB"/>
<path d="M522.502 121.373V111.346C522.502 110.269 522.569 109.17 522.704 108.048C522.883 106.882 523.108 105.671 523.377 104.414C523.646 103.113 523.915 101.835 524.184 100.578H522.771C522.053 102.867 521.156 104.796 520.079 106.366C519.047 107.891 517.746 109.035 516.176 109.798C514.651 110.561 512.766 110.942 510.523 110.942C507.383 110.942 504.736 110.135 502.582 108.519C500.473 106.904 498.881 104.706 497.804 101.924C496.727 99.1428 496.189 96.0023 496.189 92.5028C496.189 88.5548 496.794 85.1675 498.006 82.341C499.217 79.5146 500.967 77.3386 503.255 75.8132C505.543 74.2878 508.235 73.5251 511.331 73.5251C513.439 73.5251 515.301 73.9289 516.916 74.7365C518.576 75.4992 519.922 76.6881 520.954 78.3032C522.031 79.9183 522.749 82.0045 523.108 84.5618H524.521V74.5346H533.404V92.2336V121.373H522.502ZM514.695 102.395C515.682 102.395 516.58 102.216 517.387 101.857C518.195 101.498 518.913 101.005 519.541 100.377C520.169 99.7485 520.707 99.0531 521.156 98.2904C521.605 97.4828 521.941 96.6528 522.165 95.8004C522.39 94.948 522.502 94.0955 522.502 93.2431V91.7626C522.502 90.8204 522.367 89.811 522.098 88.7342C521.829 87.6126 521.403 86.5807 520.819 85.6386C520.236 84.6515 519.451 83.8664 518.464 83.2832C517.522 82.6551 516.355 82.341 514.965 82.341C513.484 82.341 512.183 82.7672 511.061 83.6197C509.94 84.4272 509.087 85.5937 508.504 87.1191C507.921 88.6445 507.629 90.4615 507.629 92.5701C507.629 94.4993 507.898 96.2042 508.437 97.6847C509.02 99.1652 509.828 100.332 510.86 101.184C511.936 101.992 513.215 102.395 514.695 102.395ZM553.957 110.942C549.74 110.942 546.555 109.529 544.401 106.702C542.293 103.831 541.238 99.4793 541.238 93.6469V74.4673H552.14V92.2336C552.14 95.5536 552.634 98.0436 553.621 99.7036C554.608 101.319 556.111 102.126 558.13 102.126C559.341 102.126 560.373 101.835 561.225 101.251C562.123 100.623 562.863 99.7709 563.446 98.6941C564.074 97.5725 564.523 96.2939 564.792 94.8582C565.106 93.4226 565.263 91.8523 565.263 90.1474V74.4673H576.098V95.5985V110H567.484L567.282 99.0306H565.936C565.263 101.812 564.411 104.1 563.379 105.895C562.392 107.645 561.136 108.923 559.61 109.731C558.085 110.538 556.201 110.942 553.957 110.942ZM601.32 110.942C598.359 110.942 595.712 110.561 593.379 109.798C591.046 108.991 589.05 107.824 587.39 106.299C585.775 104.773 584.541 102.889 583.688 100.646C582.836 98.4025 582.41 95.8228 582.41 92.9066C582.41 90.0801 582.813 87.478 583.621 85.1002C584.473 82.7224 585.662 80.681 587.188 78.9762C588.758 77.2265 590.665 75.8805 592.908 74.9384C595.196 73.9962 597.753 73.5251 600.58 73.5251C603.451 73.5251 605.964 73.9962 608.117 74.9384C610.315 75.8357 612.11 77.1816 613.501 78.9762C614.936 80.7708 615.991 82.9691 616.664 85.5713C617.337 88.1285 617.561 91.0672 617.337 94.3871L589.543 94.589V88.9361L611.145 88.7342L607.309 91.3588C607.624 89.1156 607.489 87.2985 606.906 85.9077C606.322 84.4721 605.47 83.4402 604.348 82.8121C603.227 82.1391 602.015 81.8026 600.714 81.8026C599.144 81.8026 597.753 82.2289 596.542 83.0813C595.376 83.9337 594.456 85.1675 593.783 86.7826C593.11 88.3977 592.773 90.3718 592.773 92.7047C592.773 96.3836 593.559 99.0531 595.129 100.713C596.744 102.373 598.785 103.203 601.253 103.203C602.464 103.203 603.474 103.046 604.281 102.732C605.089 102.373 605.739 101.947 606.233 101.453C606.771 100.915 607.175 100.332 607.444 99.7036C607.758 99.0755 608.005 98.4698 608.184 97.8866L617.606 99.9055C617.247 101.565 616.664 103.068 615.856 104.414C615.093 105.76 614.039 106.927 612.693 107.914C611.392 108.901 609.799 109.641 607.915 110.135C606.076 110.673 603.877 110.942 601.32 110.942ZM603.675 69.8238H595.533L600.647 58.1142H611.213L603.675 69.8238ZM568.92 175.942C565.959 175.942 563.312 175.561 560.979 174.798C558.646 173.991 556.65 172.824 554.99 171.299C553.375 169.773 552.141 167.889 551.289 165.646C550.436 163.403 550.01 160.823 550.01 157.907C550.01 155.08 550.414 152.478 551.221 150.1C552.074 147.722 553.263 145.681 554.788 143.976C556.358 142.226 558.265 140.881 560.508 139.938C562.796 138.996 565.354 138.525 568.18 138.525C571.051 138.525 573.564 138.996 575.717 139.938C577.916 140.836 579.71 142.182 581.101 143.976C582.537 145.771 583.591 147.969 584.264 150.571C584.937 153.129 585.161 156.067 584.937 159.387L557.143 159.589V153.936L578.746 153.734L574.91 156.359C575.224 154.116 575.089 152.299 574.506 150.908C573.923 149.472 573.07 148.44 571.949 147.812C570.827 147.139 569.616 146.803 568.315 146.803C566.744 146.803 565.354 147.229 564.142 148.081C562.976 148.934 562.056 150.167 561.383 151.783C560.71 153.398 560.374 155.372 560.374 157.705C560.374 161.384 561.159 164.053 562.729 165.713C564.344 167.373 566.386 168.203 568.853 168.203C570.064 168.203 571.074 168.046 571.881 167.732C572.689 167.373 573.34 166.947 573.833 166.453C574.371 165.915 574.775 165.332 575.044 164.704C575.358 164.075 575.605 163.47 575.785 162.887L585.206 164.905C584.847 166.565 584.264 168.068 583.456 169.414C582.694 170.76 581.639 171.927 580.294 172.914C578.992 173.901 577.4 174.641 575.515 175.135C573.676 175.673 571.478 175.942 568.92 175.942ZM606.391 175.942C604.013 175.942 601.86 175.718 599.931 175.269C598.001 174.865 596.319 174.26 594.883 173.452C593.448 172.645 592.259 171.68 591.317 170.558C590.419 169.392 589.791 168.113 589.432 166.722L597.508 163.156C597.822 163.918 598.36 164.704 599.123 165.511C599.931 166.274 600.985 166.902 602.286 167.395C603.632 167.889 605.247 168.136 607.131 168.136C608.926 168.136 610.317 167.889 611.304 167.395C612.336 166.857 612.851 166.094 612.851 165.107C612.851 164.39 612.56 163.829 611.977 163.425C611.438 162.976 610.608 162.595 609.487 162.281C608.365 161.922 606.974 161.586 605.314 161.271C603.609 160.913 601.882 160.509 600.132 160.06C598.383 159.567 596.745 158.916 595.22 158.109C593.694 157.256 592.461 156.157 591.518 154.811C590.621 153.42 590.172 151.67 590.172 149.562C590.172 147.363 590.756 145.457 591.922 143.842C593.089 142.182 594.816 140.881 597.104 139.938C599.437 138.996 602.263 138.525 605.583 138.525C608.545 138.525 611.147 138.906 613.39 139.669C615.633 140.432 617.495 141.531 618.976 142.967C620.501 144.358 621.555 146.04 622.138 148.014L613.457 151.11C613.233 150.123 612.762 149.27 612.044 148.552C611.371 147.835 610.496 147.296 609.419 146.937C608.387 146.533 607.154 146.332 605.718 146.332C603.968 146.332 602.6 146.601 601.613 147.139C600.671 147.678 600.2 148.395 600.2 149.293C600.2 150.01 600.514 150.616 601.142 151.11C601.815 151.558 602.757 151.94 603.968 152.254C605.18 152.568 606.615 152.904 608.275 153.263C610.025 153.622 611.752 154.048 613.457 154.542C615.207 154.99 616.777 155.619 618.168 156.426C619.604 157.189 620.725 158.221 621.533 159.522C622.385 160.778 622.811 162.415 622.811 164.434C622.811 166.812 622.183 168.876 620.927 170.626C619.671 172.331 617.809 173.654 615.341 174.596C612.919 175.494 609.935 175.942 606.391 175.942Z" fill="#B6B4E6"/>
<path d="M393.825 88.2669C393.82 90.1705 392.245 91.7463 390.341 91.7514C388.437 91.7565 386.87 90.1892 386.875 88.2856L386.881 86.0279C386.882 85.6737 386.595 85.3867 386.241 85.3877L384.116 85.3934C382.257 85.3984 380.645 84.0083 380.517 82.1493C380.412 80.1353 382.01 78.4488 384.002 78.4434L386.282 78.4594C386.636 78.4585 386.925 78.1699 386.925 77.8158L386.932 75.5137C386.937 73.6101 388.513 72.0343 390.416 72.0292C392.32 72.0241 393.887 73.5914 393.882 75.495L393.854 77.775C393.853 78.1291 394.14 78.4161 394.494 78.4151L396.774 78.3869C398.677 78.3817 400.245 79.9491 400.24 81.8527C400.235 83.7563 398.659 85.3321 396.755 85.3372L394.475 85.3655C394.121 85.3664 393.833 85.655 393.832 86.0091L393.825 88.2669Z" fill="#FFFFDB"/>
<path d="M694.451 158.512C691.945 158.514 689.877 156.447 689.879 153.941C689.881 151.435 691.952 149.365 694.458 149.363L697.43 149.36C697.896 149.36 698.275 148.981 698.276 148.515L698.278 145.717C698.28 143.27 700.118 141.141 702.565 140.964C705.217 140.817 707.43 142.913 707.428 145.535L707.396 148.537C707.396 149.003 707.774 149.381 708.241 149.381L711.271 149.378C713.777 149.376 715.844 151.444 715.842 153.949C715.84 156.455 713.77 158.526 711.264 158.528L708.262 158.501C707.796 158.502 707.417 158.881 707.417 159.347L707.443 162.348C707.441 164.854 705.371 166.925 702.865 166.927C700.359 166.929 698.292 164.862 698.294 162.356L698.267 159.354C698.267 158.888 697.889 158.51 697.423 158.51L694.451 158.512Z" fill="#FFFFDB"/>
<path d="M381.976 251V216.44H389.56V251H381.976ZM401.522 251.672C400.114 251.672 398.866 251.4 397.778 250.856C396.69 250.28 395.842 249.464 395.234 248.408C394.626 247.32 394.322 246.008 394.322 244.472C394.322 243.032 394.594 241.848 395.138 240.92C395.714 239.96 396.53 239.208 397.586 238.664C398.674 238.088 399.97 237.624 401.474 237.272C402.978 236.888 404.69 236.552 406.61 236.264C407.538 236.104 408.306 235.96 408.914 235.832C409.554 235.672 410.034 235.432 410.354 235.112C410.674 234.792 410.834 234.328 410.834 233.72C410.834 232.92 410.546 232.232 409.97 231.656C409.394 231.08 408.466 230.792 407.186 230.792C406.29 230.792 405.474 230.952 404.738 231.272C404.034 231.592 403.426 232.056 402.914 232.664C402.402 233.272 402.018 234.008 401.762 234.872L394.946 232.856C395.362 231.512 395.938 230.344 396.674 229.352C397.442 228.36 398.354 227.544 399.41 226.904C400.466 226.232 401.666 225.752 403.01 225.464C404.386 225.144 405.842 224.984 407.378 224.984C409.938 224.984 412.018 225.4 413.618 226.232C415.25 227.032 416.45 228.296 417.218 230.024C418.018 231.72 418.418 233.912 418.418 236.6V240.488C418.418 241.64 418.434 242.808 418.466 243.992C418.53 245.144 418.594 246.312 418.658 247.496C418.754 248.648 418.866 249.816 418.994 251H412.178C412.05 250.264 411.922 249.384 411.794 248.36C411.666 247.304 411.57 246.232 411.506 245.144H410.594C410.146 246.36 409.49 247.48 408.626 248.504C407.794 249.496 406.77 250.28 405.554 250.856C404.37 251.4 403.026 251.672 401.522 251.672ZM405.026 246.2C405.602 246.2 406.178 246.104 406.754 245.912C407.362 245.688 407.938 245.4 408.482 245.048C409.026 244.664 409.522 244.2 409.97 243.656C410.418 243.112 410.754 242.52 410.978 241.88L410.882 238.088L411.938 238.328C411.33 238.712 410.658 239.016 409.922 239.24C409.186 239.464 408.434 239.64 407.666 239.768C406.93 239.896 406.194 240.04 405.458 240.2C404.754 240.328 404.114 240.504 403.538 240.728C402.994 240.952 402.562 241.256 402.242 241.64C401.922 242.024 401.762 242.552 401.762 243.224C401.762 244.12 402.066 244.84 402.674 245.384C403.282 245.928 404.066 246.2 405.026 246.2ZM442.82 251L432.5 219.32H440.948L447.908 244.52H448.58L455.54 219.32H463.892L453.572 251H442.82ZM467.523 251V225.656H475.251V251H467.523ZM471.411 222.104C469.939 222.104 468.803 221.8 468.003 221.192C467.235 220.552 466.851 219.656 466.851 218.504C466.851 217.288 467.235 216.376 468.003 215.768C468.803 215.128 469.939 214.808 471.411 214.808C472.915 214.808 474.051 215.128 474.819 215.768C475.619 216.376 476.019 217.272 476.019 218.456C476.019 219.64 475.619 220.552 474.819 221.192C474.051 221.8 472.915 222.104 471.411 222.104ZM492.921 251.672C490.361 251.672 488.089 251.176 486.105 250.184C484.153 249.192 482.617 247.704 481.497 245.72C480.377 243.736 479.817 241.256 479.817 238.28C479.817 235.304 480.377 232.84 481.497 230.888C482.617 228.904 484.169 227.432 486.153 226.472C488.137 225.48 490.409 224.984 492.969 224.984C495.529 224.984 497.801 225.48 499.785 226.472C501.769 227.464 503.321 228.952 504.441 230.936C505.561 232.888 506.121 235.352 506.121 238.328C506.121 241.368 505.545 243.88 504.393 245.864C503.241 247.848 501.657 249.32 499.641 250.28C497.657 251.208 495.417 251.672 492.921 251.672ZM493.161 246.056C494.313 246.056 495.273 245.8 496.041 245.288C496.809 244.744 497.385 243.928 497.769 242.84C498.153 241.752 498.345 240.408 498.345 238.808C498.345 237.112 498.137 235.688 497.721 234.536C497.305 233.352 496.681 232.456 495.849 231.848C495.049 231.208 494.009 230.888 492.729 230.888C491.641 230.888 490.697 231.16 489.897 231.704C489.129 232.216 488.553 233.016 488.169 234.104C487.785 235.192 487.593 236.552 487.593 238.184C487.593 240.808 488.073 242.776 489.033 244.088C490.025 245.4 491.401 246.056 493.161 246.056ZM510.648 251V216.44H518.232V251H510.648ZM536.29 251.672C534.178 251.672 532.29 251.4 530.626 250.856C528.962 250.28 527.538 249.448 526.354 248.36C525.202 247.272 524.322 245.928 523.714 244.328C523.106 242.728 522.802 240.888 522.802 238.808C522.802 236.792 523.09 234.936 523.666 233.24C524.274 231.544 525.122 230.088 526.21 228.872C527.33 227.624 528.69 226.664 530.29 225.992C531.922 225.32 533.746 224.984 535.762 224.984C537.81 224.984 539.602 225.32 541.138 225.992C542.706 226.632 543.986 227.592 544.978 228.872C546.002 230.152 546.754 231.72 547.234 233.576C547.714 235.4 547.874 237.496 547.714 239.864L527.89 240.008V235.976L543.298 235.832L540.562 237.704C540.786 236.104 540.69 234.808 540.274 233.816C539.858 232.792 539.25 232.056 538.45 231.608C537.65 231.128 536.786 230.888 535.858 230.888C534.738 230.888 533.746 231.192 532.882 231.8C532.05 232.408 531.394 233.288 530.914 234.44C530.434 235.592 530.194 237 530.194 238.664C530.194 241.288 530.754 243.192 531.874 244.376C533.026 245.56 534.482 246.152 536.242 246.152C537.106 246.152 537.826 246.04 538.402 245.816C538.978 245.56 539.442 245.256 539.794 244.904C540.178 244.52 540.466 244.104 540.658 243.656C540.882 243.208 541.058 242.776 541.186 242.36L547.906 243.8C547.65 244.984 547.234 246.056 546.658 247.016C546.114 247.976 545.362 248.808 544.402 249.512C543.474 250.216 542.338 250.744 540.994 251.096C539.682 251.48 538.114 251.672 536.29 251.672ZM552.414 251V235.736V225.656H558.654L558.75 233.096H559.71C560.126 231.304 560.718 229.8 561.486 228.584C562.254 227.368 563.23 226.472 564.414 225.896C565.598 225.288 566.99 224.984 568.59 224.984C571.566 224.984 573.822 226.024 575.358 228.104C576.926 230.184 577.71 233.496 577.71 238.04V251H569.934V238.904C569.934 236.28 569.55 234.376 568.782 233.192C568.046 231.976 566.942 231.368 565.47 231.368C564.254 231.368 563.246 231.736 562.446 232.472C561.678 233.208 561.102 234.184 560.718 235.4C560.334 236.616 560.142 237.976 560.142 239.48V251H552.414ZM595.209 251.672C593.033 251.672 591.113 251.368 589.449 250.76C587.785 250.152 586.393 249.288 585.273 248.168C584.153 247.016 583.289 245.64 582.681 244.04C582.105 242.44 581.817 240.648 581.817 238.664C581.817 236.616 582.105 234.76 582.681 233.096C583.289 231.432 584.153 229.992 585.273 228.776C586.393 227.56 587.769 226.632 589.401 225.992C591.033 225.32 592.905 224.984 595.017 224.984C597.129 224.984 598.953 225.32 600.489 225.992C602.025 226.664 603.273 227.608 604.233 228.824C605.225 230.04 605.897 231.448 606.249 233.048L599.097 235.448C599.001 234.392 598.745 233.528 598.329 232.856C597.913 232.184 597.369 231.704 596.697 231.416C596.057 231.096 595.353 230.936 594.585 230.936C593.785 230.936 593.081 231.096 592.473 231.416C591.865 231.736 591.353 232.216 590.937 232.856C590.521 233.496 590.201 234.28 589.977 235.208C589.753 236.104 589.641 237.144 589.641 238.328C589.641 240.024 589.849 241.448 590.265 242.6C590.713 243.72 591.353 244.568 592.185 245.144C593.049 245.72 594.089 246.008 595.305 246.008C596.553 246.008 597.529 245.752 598.233 245.24C598.937 244.728 599.449 244.104 599.769 243.368C600.089 242.6 600.281 241.848 600.345 241.112L607.065 242.6C606.937 243.784 606.617 244.936 606.105 246.056C605.625 247.144 604.905 248.12 603.945 248.984C602.985 249.816 601.785 250.472 600.345 250.952C598.937 251.432 597.225 251.672 595.209 251.672ZM610.679 251V225.656H618.407V251H610.679ZM614.567 222.104C613.095 222.104 611.959 221.8 611.159 221.192C610.391 220.552 610.007 219.656 610.007 218.504C610.007 217.288 610.391 216.376 611.159 215.768C611.959 215.128 613.095 214.808 614.567 214.808C616.071 214.808 617.207 215.128 617.975 215.768C618.775 216.376 619.175 217.272 619.175 218.456C619.175 219.64 618.775 220.552 617.975 221.192C617.207 221.8 616.071 222.104 614.567 222.104ZM630.366 251.672C628.958 251.672 627.71 251.4 626.622 250.856C625.534 250.28 624.686 249.464 624.078 248.408C623.47 247.32 623.166 246.008 623.166 244.472C623.166 243.032 623.438 241.848 623.982 240.92C624.558 239.96 625.374 239.208 626.43 238.664C627.518 238.088 628.814 237.624 630.318 237.272C631.822 236.888 633.534 236.552 635.454 236.264C636.382 236.104 637.15 235.96 637.758 235.832C638.398 235.672 638.878 235.432 639.198 235.112C639.518 234.792 639.678 234.328 639.678 233.72C639.678 232.92 639.39 232.232 638.814 231.656C638.238 231.08 637.31 230.792 636.03 230.792C635.134 230.792 634.318 230.952 633.582 231.272C632.878 231.592 632.27 232.056 631.758 232.664C631.246 233.272 630.862 234.008 630.606 234.872L623.79 232.856C624.206 231.512 624.782 230.344 625.518 229.352C626.286 228.36 627.198 227.544 628.254 226.904C629.31 226.232 630.51 225.752 631.854 225.464C633.23 225.144 634.686 224.984 636.222 224.984C638.782 224.984 640.862 225.4 642.462 226.232C644.094 227.032 645.294 228.296 646.062 230.024C646.862 231.72 647.262 233.912 647.262 236.6V240.488C647.262 241.64 647.278 242.808 647.31 243.992C647.374 245.144 647.438 246.312 647.502 247.496C647.598 248.648 647.71 249.816 647.838 251H641.022C640.894 250.264 640.766 249.384 640.638 248.36C640.51 247.304 640.414 246.232 640.35 245.144H639.438C638.99 246.36 638.334 247.48 637.47 248.504C636.638 249.496 635.614 250.28 634.398 250.856C633.214 251.4 631.87 251.672 630.366 251.672ZM633.87 246.2C634.446 246.2 635.022 246.104 635.598 245.912C636.206 245.688 636.782 245.4 637.326 245.048C637.87 244.664 638.366 244.2 638.814 243.656C639.262 243.112 639.598 242.52 639.822 241.88L639.726 238.088L640.782 238.328C640.174 238.712 639.502 239.016 638.766 239.24C638.03 239.464 637.278 239.64 636.51 239.768C635.774 239.896 635.038 240.04 634.302 240.2C633.598 240.328 632.958 240.504 632.382 240.728C631.838 240.952 631.406 241.256 631.086 241.64C630.766 242.024 630.606 242.552 630.606 243.224C630.606 244.12 630.91 244.84 631.518 245.384C632.126 245.928 632.91 246.2 633.87 246.2ZM385.912 297V290.76H395.08C396.744 290.76 398.136 290.408 399.256 289.704C400.376 289 401.208 287.944 401.752 286.536C402.328 285.128 402.616 283.368 402.616 281.256C402.616 279.56 402.44 278.104 402.088 276.888C401.736 275.672 401.208 274.68 400.504 273.912C399.832 273.112 398.952 272.52 397.864 272.136C396.808 271.752 395.56 271.56 394.12 271.56H385.912V265.32H393.832C397.768 265.32 400.984 265.944 403.48 267.192C405.976 268.44 407.8 270.232 408.952 272.568C410.104 274.872 410.68 277.64 410.68 280.872C410.68 283.368 410.376 285.528 409.768 287.352C409.192 289.176 408.392 290.712 407.368 291.96C406.344 293.176 405.16 294.168 403.816 294.936C402.504 295.672 401.112 296.2 399.64 296.52C398.2 296.84 396.76 297 395.32 297H385.912ZM382.312 297V265.32H390.04V297H382.312ZM415.82 297V271.656H423.548V297H415.82ZM419.708 268.104C418.236 268.104 417.1 267.8 416.3 267.192C415.532 266.552 415.148 265.656 415.148 264.504C415.148 263.288 415.532 262.376 416.3 261.768C417.1 261.128 418.236 260.808 419.708 260.808C421.212 260.808 422.348 261.128 423.116 261.768C423.916 262.376 424.316 263.272 424.316 264.456C424.316 265.64 423.916 266.552 423.116 267.192C422.348 267.8 421.212 268.104 419.708 268.104ZM439.778 305.88C436.962 305.88 434.642 305.656 432.818 305.208C431.026 304.792 429.714 304.152 428.882 303.288C428.05 302.456 427.634 301.432 427.634 300.216C427.634 298.744 428.21 297.544 429.362 296.616C430.546 295.688 432.274 295.16 434.546 295.032V294.024C432.786 294.024 431.426 293.848 430.466 293.496C429.538 293.144 429.074 292.488 429.074 291.528C429.074 290.632 429.538 289.816 430.466 289.08C431.394 288.344 432.93 287.768 435.074 287.352V286.344C433.122 286.184 431.57 285.544 430.418 284.424C429.266 283.272 428.69 281.768 428.69 279.912C428.69 278.344 429.138 276.92 430.034 275.64C430.93 274.328 432.274 273.288 434.066 272.52C435.858 271.72 438.098 271.32 440.786 271.32H453.938V277.128L445.922 276.072V277.224C448.002 277.512 449.49 277.992 450.386 278.664C451.282 279.336 451.73 280.28 451.73 281.496C451.73 282.776 451.282 283.912 450.386 284.904C449.522 285.896 448.29 286.68 446.69 287.256C445.09 287.8 443.186 288.072 440.978 288.072C440.594 288.072 440.162 288.056 439.682 288.024C439.234 287.992 438.386 287.912 437.138 287.784C436.626 288.232 436.226 288.616 435.938 288.936C435.65 289.224 435.506 289.496 435.506 289.752C435.506 289.944 435.586 290.104 435.746 290.232C435.906 290.36 436.13 290.456 436.418 290.52C436.738 290.552 437.074 290.568 437.426 290.568H445.154C445.794 290.568 446.626 290.616 447.65 290.712C448.706 290.776 449.746 291.016 450.77 291.432C451.826 291.848 452.706 292.52 453.41 293.448C454.146 294.376 454.514 295.704 454.514 297.432C454.514 299.32 453.986 300.888 452.93 302.136C451.874 303.416 450.258 304.36 448.082 304.968C445.906 305.576 443.138 305.88 439.778 305.88ZM440.786 299.736C442.642 299.736 444.082 299.64 445.106 299.448C446.13 299.256 446.834 298.952 447.218 298.536C447.634 298.12 447.842 297.608 447.842 297C447.842 296.424 447.73 295.976 447.506 295.656C447.282 295.304 446.994 295.064 446.642 294.936C446.29 294.808 445.922 294.728 445.538 294.696C445.186 294.664 444.882 294.648 444.626 294.648H438.434C437.25 294.648 436.37 294.936 435.794 295.512C435.25 296.056 434.978 296.696 434.978 297.432C434.978 298.04 435.17 298.504 435.554 298.824C435.938 299.176 436.546 299.416 437.378 299.544C438.242 299.672 439.378 299.736 440.786 299.736ZM440.45 284.232C441.826 284.232 442.85 283.864 443.522 283.128C444.226 282.392 444.578 281.464 444.578 280.344C444.578 279.128 444.226 278.136 443.522 277.368C442.818 276.568 441.81 276.168 440.498 276.168C439.186 276.168 438.162 276.568 437.426 277.368C436.69 278.136 436.322 279.128 436.322 280.344C436.322 281.08 436.482 281.752 436.802 282.36C437.122 282.936 437.586 283.4 438.194 283.752C438.802 284.072 439.554 284.232 440.45 284.232ZM458.71 297V271.656H466.438V297H458.71ZM462.598 268.104C461.126 268.104 459.99 267.8 459.19 267.192C458.422 266.552 458.038 265.656 458.038 264.504C458.038 263.288 458.422 262.376 459.19 261.768C459.99 261.128 461.126 260.808 462.598 260.808C464.102 260.808 465.238 261.128 466.006 261.768C466.806 262.376 467.206 263.272 467.206 264.456C467.206 265.64 466.806 266.552 466.006 267.192C465.238 267.8 464.102 268.104 462.598 268.104ZM482.333 297.624C479.357 297.624 477.165 296.84 475.757 295.272C474.349 293.672 473.645 291.128 473.645 287.64V277.704H470.045L470.189 271.704H472.781C473.805 271.672 474.573 271.512 475.085 271.224C475.629 270.936 475.965 270.392 476.093 269.592L476.717 266.04H481.085V271.656H487.181V277.944H481.085V287.304C481.085 288.392 481.341 289.192 481.853 289.704C482.397 290.216 483.213 290.472 484.301 290.472C484.909 290.472 485.485 290.408 486.029 290.28C486.573 290.152 487.021 289.976 487.373 289.752V296.904C486.349 297.224 485.405 297.416 484.541 297.48C483.709 297.576 482.973 297.624 482.333 297.624ZM497.897 297.672C496.489 297.672 495.241 297.4 494.153 296.856C493.065 296.28 492.217 295.464 491.609 294.408C491.001 293.32 490.697 292.008 490.697 290.472C490.697 289.032 490.969 287.848 491.513 286.92C492.089 285.96 492.905 285.208 493.961 284.664C495.049 284.088 496.345 283.624 497.849 283.272C499.353 282.888 501.065 282.552 502.985 282.264C503.913 282.104 504.681 281.96 505.289 281.832C505.929 281.672 506.409 281.432 506.729 281.112C507.049 280.792 507.209 280.328 507.209 279.72C507.209 278.92 506.921 278.232 506.345 277.656C505.769 277.08 504.841 276.792 503.561 276.792C502.665 276.792 501.849 276.952 501.113 277.272C500.409 277.592 499.801 278.056 499.289 278.664C498.777 279.272 498.393 280.008 498.137 280.872L491.321 278.856C491.737 277.512 492.313 276.344 493.049 275.352C493.817 274.36 494.729 273.544 495.785 272.904C496.841 272.232 498.041 271.752 499.385 271.464C500.761 271.144 502.217 270.984 503.753 270.984C506.313 270.984 508.393 271.4 509.993 272.232C511.625 273.032 512.825 274.296 513.593 276.024C514.393 277.72 514.793 279.912 514.793 282.6V286.488C514.793 287.64 514.809 288.808 514.841 289.992C514.905 291.144 514.969 292.312 515.033 293.496C515.129 294.648 515.241 295.816 515.369 297H508.553C508.425 296.264 508.297 295.384 508.169 294.36C508.041 293.304 507.945 292.232 507.881 291.144H506.969C506.521 292.36 505.865 293.48 505.001 294.504C504.169 295.496 503.145 296.28 501.929 296.856C500.745 297.4 499.401 297.672 497.897 297.672ZM501.401 292.2C501.977 292.2 502.553 292.104 503.129 291.912C503.737 291.688 504.313 291.4 504.857 291.048C505.401 290.664 505.897 290.2 506.345 289.656C506.793 289.112 507.129 288.52 507.353 287.88L507.257 284.088L508.313 284.328C507.705 284.712 507.033 285.016 506.297 285.24C505.561 285.464 504.809 285.64 504.041 285.768C503.305 285.896 502.569 286.04 501.833 286.2C501.129 286.328 500.489 286.504 499.913 286.728C499.369 286.952 498.937 287.256 498.617 287.64C498.297 288.024 498.137 288.552 498.137 289.224C498.137 290.12 498.441 290.84 499.049 291.384C499.657 291.928 500.441 292.2 501.401 292.2ZM520.492 297V262.44H528.076V297H520.492ZM554.037 297.672C551.925 297.672 550.069 297.144 548.469 296.088C546.901 295 545.669 293.464 544.773 291.48C543.877 289.464 543.429 287.064 543.429 284.28C543.429 281.72 543.813 279.448 544.581 277.464C545.349 275.48 546.485 273.928 547.989 272.808C549.525 271.656 551.413 271.08 553.653 271.08C555.253 271.08 556.597 271.368 557.685 271.944C558.805 272.52 559.733 273.384 560.469 274.536C561.205 275.688 561.797 277.144 562.245 278.904H563.445C563.221 277.816 563.013 276.792 562.821 275.832C562.629 274.84 562.469 273.928 562.341 273.096C562.245 272.232 562.197 271.48 562.197 270.84V262.44H569.973V284.616V297H563.637L563.541 289.512H562.485C562.133 291.432 561.573 293 560.805 294.216C560.069 295.4 559.125 296.28 557.973 296.856C556.853 297.4 555.541 297.672 554.037 297.672ZM556.821 291.432C557.813 291.432 558.645 291.224 559.317 290.808C560.021 290.36 560.581 289.8 560.997 289.128C561.413 288.456 561.717 287.736 561.909 286.968C562.101 286.2 562.197 285.48 562.197 284.808V283.8C562.197 283.192 562.117 282.584 561.957 281.976C561.797 281.368 561.557 280.776 561.237 280.2C560.949 279.624 560.581 279.112 560.133 278.664C559.685 278.216 559.157 277.864 558.549 277.608C557.973 277.352 557.333 277.224 556.629 277.224C555.573 277.224 554.661 277.512 553.893 278.088C553.157 278.664 552.581 279.48 552.165 280.536C551.781 281.592 551.589 282.84 551.589 284.28C551.589 285.72 551.797 286.984 552.213 288.072C552.629 289.128 553.237 289.96 554.037 290.568C554.837 291.144 555.765 291.432 556.821 291.432ZM587.993 297.672C585.881 297.672 583.993 297.4 582.329 296.856C580.665 296.28 579.241 295.448 578.057 294.36C576.905 293.272 576.025 291.928 575.417 290.328C574.809 288.728 574.505 286.888 574.505 284.808C574.505 282.792 574.793 280.936 575.369 279.24C575.977 277.544 576.825 276.088 577.913 274.872C579.033 273.624 580.393 272.664 581.993 271.992C583.625 271.32 585.449 270.984 587.465 270.984C589.513 270.984 591.305 271.32 592.841 271.992C594.409 272.632 595.689 273.592 596.681 274.872C597.705 276.152 598.457 277.72 598.937 279.576C599.417 281.4 599.577 283.496 599.417 285.864L579.593 286.008V281.976L595.001 281.832L592.265 283.704C592.489 282.104 592.393 280.808 591.977 279.816C591.561 278.792 590.953 278.056 590.153 277.608C589.353 277.128 588.489 276.888 587.561 276.888C586.441 276.888 585.449 277.192 584.585 277.8C583.753 278.408 583.097 279.288 582.617 280.44C582.137 281.592 581.897 283 581.897 284.664C581.897 287.288 582.457 289.192 583.577 290.376C584.729 291.56 586.185 292.152 587.945 292.152C588.809 292.152 589.529 292.04 590.105 291.816C590.681 291.56 591.145 291.256 591.497 290.904C591.881 290.52 592.169 290.104 592.361 289.656C592.585 289.208 592.761 288.776 592.889 288.36L599.609 289.8C599.353 290.984 598.937 292.056 598.361 293.016C597.817 293.976 597.065 294.808 596.105 295.512C595.177 296.216 594.041 296.744 592.697 297.096C591.385 297.48 589.817 297.672 587.993 297.672ZM394.888 343.672C392.296 343.672 389.96 343.08 387.88 341.896C385.8 340.712 384.152 338.936 382.936 336.568C381.752 334.168 381.16 331.16 381.16 327.544C381.16 324.888 381.496 322.52 382.168 320.44C382.872 318.36 383.912 316.6 385.288 315.16C386.664 313.688 388.344 312.568 390.328 311.8C392.344 311.032 394.664 310.648 397.288 310.648C399.272 310.648 401.064 310.872 402.664 311.32C404.296 311.768 405.704 312.408 406.888 313.24C408.072 314.072 408.984 315.064 409.624 316.216C410.296 317.368 410.648 318.664 410.68 320.104L403.384 322.36C403.352 321.176 403.048 320.184 402.472 319.384C401.896 318.584 401.128 317.976 400.168 317.56C399.208 317.112 398.136 316.888 396.952 316.888C395.288 316.888 393.88 317.272 392.728 318.04C391.608 318.776 390.744 319.912 390.136 321.448C389.56 322.984 389.272 324.904 389.272 327.208C389.272 328.936 389.432 330.456 389.752 331.768C390.104 333.048 390.616 334.12 391.288 334.984C391.96 335.848 392.776 336.504 393.736 336.952C394.728 337.368 395.896 337.576 397.24 337.576C398.584 337.576 399.736 337.368 400.696 336.952C401.688 336.536 402.472 335.896 403.048 335.032C403.624 334.168 403.928 333.064 403.96 331.72H398.344V326.248H411.64V332.392V343H406.36L406.264 335.08H405.304C404.76 336.936 404.056 338.504 403.192 339.784C402.328 341.064 401.224 342.04 399.88 342.712C398.536 343.352 396.872 343.672 394.888 343.672ZM428.993 343.672C426.881 343.672 424.993 343.4 423.329 342.856C421.665 342.28 420.241 341.448 419.057 340.36C417.905 339.272 417.025 337.928 416.417 336.328C415.809 334.728 415.505 332.888 415.505 330.808C415.505 328.792 415.793 326.936 416.369 325.24C416.977 323.544 417.825 322.088 418.913 320.872C420.033 319.624 421.393 318.664 422.993 317.992C424.625 317.32 426.449 316.984 428.465 316.984C430.513 316.984 432.305 317.32 433.841 317.992C435.409 318.632 436.689 319.592 437.681 320.872C438.705 322.152 439.457 323.72 439.937 325.576C440.417 327.4 440.577 329.496 440.417 331.864L420.593 332.008V327.976L436.001 327.832L433.265 329.704C433.489 328.104 433.393 326.808 432.977 325.816C432.561 324.792 431.953 324.056 431.153 323.608C430.353 323.128 429.489 322.888 428.561 322.888C427.441 322.888 426.449 323.192 425.585 323.8C424.753 324.408 424.097 325.288 423.617 326.44C423.137 327.592 422.897 329 422.897 330.664C422.897 333.288 423.457 335.192 424.577 336.376C425.729 337.56 427.185 338.152 428.945 338.152C429.809 338.152 430.529 338.04 431.105 337.816C431.681 337.56 432.145 337.256 432.497 336.904C432.881 336.52 433.169 336.104 433.361 335.656C433.585 335.208 433.761 334.776 433.889 334.36L440.609 335.8C440.353 336.984 439.937 338.056 439.361 339.016C438.817 339.976 438.065 340.808 437.105 341.512C436.177 342.216 435.041 342.744 433.697 343.096C432.385 343.48 430.817 343.672 428.993 343.672ZM430.673 314.344H424.865L428.513 305.992H436.049L430.673 314.344ZM445.117 343V327.736V317.656H451.357L451.453 325.096H452.413C452.829 323.304 453.421 321.8 454.189 320.584C454.957 319.368 455.933 318.472 457.117 317.896C458.301 317.288 459.693 316.984 461.293 316.984C464.269 316.984 466.525 318.024 468.061 320.104C469.629 322.184 470.413 325.496 470.413 330.04V343H462.637V330.904C462.637 328.28 462.253 326.376 461.485 325.192C460.749 323.976 459.645 323.368 458.173 323.368C456.957 323.368 455.949 323.736 455.149 324.472C454.381 325.208 453.805 326.184 453.421 327.4C453.037 328.616 452.845 329.976 452.845 331.48V343H445.117ZM488.008 343.672C485.896 343.672 484.008 343.4 482.344 342.856C480.68 342.28 479.256 341.448 478.072 340.36C476.92 339.272 476.04 337.928 475.432 336.328C474.824 334.728 474.52 332.888 474.52 330.808C474.52 328.792 474.808 326.936 475.384 325.24C475.992 323.544 476.84 322.088 477.928 320.872C479.048 319.624 480.408 318.664 482.008 317.992C483.64 317.32 485.464 316.984 487.48 316.984C489.528 316.984 491.32 317.32 492.856 317.992C494.424 318.632 495.704 319.592 496.696 320.872C497.72 322.152 498.472 323.72 498.952 325.576C499.432 327.4 499.592 329.496 499.432 331.864L479.608 332.008V327.976L495.016 327.832L492.28 329.704C492.504 328.104 492.408 326.808 491.992 325.816C491.576 324.792 490.968 324.056 490.168 323.608C489.368 323.128 488.504 322.888 487.576 322.888C486.456 322.888 485.464 323.192 484.6 323.8C483.768 324.408 483.112 325.288 482.632 326.44C482.152 327.592 481.912 329 481.912 330.664C481.912 333.288 482.472 335.192 483.592 336.376C484.744 337.56 486.2 338.152 487.96 338.152C488.824 338.152 489.544 338.04 490.12 337.816C490.696 337.56 491.16 337.256 491.512 336.904C491.896 336.52 492.184 336.104 492.376 335.656C492.6 335.208 492.776 334.776 492.904 334.36L499.624 335.8C499.368 336.984 498.952 338.056 498.376 339.016C497.832 339.976 497.08 340.808 496.12 341.512C495.192 342.216 494.056 342.744 492.712 343.096C491.4 343.48 489.832 343.672 488.008 343.672ZM504.132 343V331.24V317.656H510.468L510.612 326.248H511.572C511.796 324.008 512.212 322.232 512.82 320.92C513.46 319.576 514.356 318.6 515.508 317.992C516.692 317.384 518.148 317.08 519.876 317.08C520.132 317.08 520.42 317.096 520.74 317.128C521.06 317.128 521.428 317.16 521.844 317.224L521.556 325.48C521.044 325.224 520.484 325.064 519.876 325C519.3 324.904 518.788 324.856 518.34 324.856C517.092 324.856 516.004 325.096 515.076 325.576C514.18 326.056 513.46 326.792 512.916 327.784C512.404 328.776 512.068 330.024 511.908 331.528V343H504.132ZM537.218 343.672C534.658 343.672 532.386 343.176 530.402 342.184C528.45 341.192 526.914 339.704 525.794 337.72C524.674 335.736 524.114 333.256 524.114 330.28C524.114 327.304 524.674 324.84 525.794 322.888C526.914 320.904 528.466 319.432 530.45 318.472C532.434 317.48 534.706 316.984 537.266 316.984C539.826 316.984 542.098 317.48 544.082 318.472C546.066 319.464 547.618 320.952 548.738 322.936C549.858 324.888 550.418 327.352 550.418 330.328C550.418 333.368 549.842 335.88 548.69 337.864C547.538 339.848 545.954 341.32 543.938 342.28C541.954 343.208 539.714 343.672 537.218 343.672ZM537.458 338.056C538.61 338.056 539.57 337.8 540.338 337.288C541.106 336.744 541.682 335.928 542.066 334.84C542.45 333.752 542.642 332.408 542.642 330.808C542.642 329.112 542.434 327.688 542.018 326.536C541.602 325.352 540.978 324.456 540.146 323.848C539.346 323.208 538.306 322.888 537.026 322.888C535.938 322.888 534.994 323.16 534.194 323.704C533.426 324.216 532.85 325.016 532.466 326.104C532.082 327.192 531.89 328.552 531.89 330.184C531.89 332.808 532.37 334.776 533.33 336.088C534.322 337.4 535.698 338.056 537.458 338.056Z" fill="#FFFFDB"/>
<path d="M425.923 103.26C426.094 104.984 425.966 106.421 425.537 107.57C425.152 108.719 424.573 109.684 423.802 110.463C423.074 111.202 422.26 111.859 421.36 112.433C420.503 112.967 419.668 113.5 418.853 114.034C418.039 114.568 417.375 115.204 416.861 115.942C416.347 116.64 416.09 117.523 416.09 118.59C416.09 120.026 416.54 121.073 417.44 121.729C418.382 122.345 419.582 122.653 421.039 122.653C422.024 122.653 423.052 122.53 424.123 122.284C425.195 122.078 426.287 121.791 427.401 121.422C428.515 121.011 429.565 120.56 430.55 120.067L431 128.44C429.8 128.973 428.558 129.425 427.272 129.794C425.987 130.164 424.702 130.43 423.416 130.595C422.174 130.8 420.953 130.902 419.753 130.902C417.911 130.902 416.154 130.677 414.483 130.225C412.812 129.774 411.334 129.076 410.049 128.132C408.806 127.229 407.821 126.08 407.093 124.684C406.364 123.33 406 121.709 406 119.821C406 118.097 406.278 116.661 406.835 115.512C407.435 114.362 408.185 113.377 409.085 112.557C409.985 111.736 410.927 111.017 411.913 110.402C412.941 109.745 413.905 109.109 414.805 108.493C415.704 107.837 416.411 107.098 416.925 106.277C417.482 105.456 417.74 104.451 417.697 103.26H425.923Z" fill="#FFFFDB"/>
<path fill-rule="evenodd" clip-rule="evenodd" d="M429.518 88.5531C431.104 87.0301 431.104 84.5648 429.518 83.0448C427.932 81.5254 425.354 81.5211 423.767 83.045L422.039 84.6974C421.907 84.8236 421.697 84.8239 421.566 84.6977L419.84 83.0451C418.254 81.5216 415.676 81.5215 414.09 83.0448C412.499 84.5649 412.5 87.0304 414.09 88.5534L415.815 90.2062C415.947 90.3325 415.947 90.533 415.815 90.6593L414.195 92.2111C412.67 93.6725 412.463 96.0693 413.913 97.6407C415.48 99.3404 418.192 99.3991 419.84 97.8207L421.566 96.1645C421.698 96.0374 421.91 96.0396 422.037 96.1629L422.038 96.1645L423.767 97.8204C425.354 99.3441 427.928 99.3437 429.517 97.8243L429.518 97.8238C431.104 96.3006 431.104 93.8355 429.518 92.3124L429.518 92.3118L427.789 90.6593C427.656 90.5321 427.659 90.3294 427.787 90.2078L427.789 90.2065L429.518 88.5531Z" fill="#FFFFDB"/>
<path d="M732.966 160.601C732.802 158.832 732.904 157.393 733.274 156.282C733.685 155.131 734.239 154.185 734.937 153.445C735.635 152.663 736.395 152.005 737.216 151.471C738.079 150.895 738.9 150.34 739.68 149.805C740.461 149.27 741.097 148.654 741.59 147.954C742.083 147.214 742.329 146.309 742.329 145.24C742.329 143.801 741.898 142.773 741.035 142.156C740.214 141.498 739.085 141.169 737.648 141.169C736.744 141.169 735.758 141.292 734.691 141.539C733.664 141.744 732.617 142.053 731.549 142.464C730.523 142.834 729.517 143.266 728.531 143.76L728.1 135.37C729.291 134.794 730.482 134.342 731.672 134.013C732.904 133.643 734.136 133.375 735.368 133.211C736.6 133.005 737.771 132.902 738.879 132.902C740.686 132.902 742.37 133.129 743.931 133.581C745.491 134.033 746.867 134.732 748.058 135.678C749.29 136.583 750.255 137.735 750.953 139.133C751.651 140.49 752 142.115 752 144.006C752 145.734 751.713 147.173 751.138 148.325C750.604 149.476 749.906 150.463 749.043 151.286C748.181 152.108 747.277 152.848 746.333 153.506C745.388 154.123 744.485 154.761 743.623 155.419C742.76 156.036 742.062 156.755 741.528 157.578C741.035 158.4 740.81 159.408 740.851 160.601H732.966Z" fill="#FFFFDB"/>
<path fill-rule="evenodd" clip-rule="evenodd" d="M743.931 171.471C745.451 169.945 745.451 167.474 743.93 165.951C742.41 164.429 739.94 164.424 738.419 165.951L736.762 167.607C736.636 167.734 736.435 167.734 736.308 167.607L734.655 165.951C733.134 164.425 730.664 164.425 729.143 165.951C727.619 167.474 727.619 169.945 729.143 171.471L730.797 173.127C730.923 173.254 730.923 173.455 730.797 173.581L729.244 175.136C727.782 176.601 727.584 179.002 728.974 180.577C730.476 182.28 733.075 182.339 734.655 180.757L736.308 179.098C736.436 178.97 736.638 178.973 736.76 179.096L736.762 179.098L738.419 180.757C739.939 182.284 742.406 182.283 743.93 180.761L743.931 180.76C745.451 179.234 745.451 176.764 743.931 175.238L743.93 175.237L742.273 173.581C742.146 173.454 742.148 173.251 742.272 173.129L742.273 173.127L743.931 171.471Z" fill="#FFFFDB"/>
<path d="M713.3 314L690.4 248H700.4L719.3 305.9H720.2L739.2 248H749.1L726.1 314H713.3ZM763.977 314V306.1H783.277C787.743 306.1 791.41 305.067 794.277 303C797.21 300.867 799.41 297.967 800.877 294.3C802.343 290.567 803.077 286.2 803.077 281.2C803.077 277 802.643 273.333 801.777 270.2C800.91 267.067 799.543 264.467 797.677 262.4C795.877 260.267 793.543 258.667 790.677 257.6C787.877 256.467 784.51 255.9 780.577 255.9H763.977V248H780.377C787.777 248 793.843 249.3 798.577 251.9C803.377 254.5 806.877 258.233 809.077 263.1C811.343 267.9 812.477 273.7 812.477 280.5C812.477 285.167 811.977 289.333 810.977 293C809.977 296.6 808.543 299.733 806.677 302.4C804.877 305.067 802.777 307.267 800.377 309C797.977 310.667 795.343 311.933 792.477 312.8C789.61 313.6 786.61 314 783.477 314H763.977ZM759.177 314V248H768.377V314H759.177ZM851.673 315.3C846.34 315.3 841.573 314.033 837.373 311.5C833.173 308.967 829.873 305.2 827.473 300.2C825.073 295.2 823.873 288.933 823.873 281.4C823.873 276 824.507 271.2 825.773 267C827.107 262.733 829.04 259.1 831.573 256.1C834.173 253.033 837.34 250.7 841.073 249.1C844.807 247.5 849.107 246.7 853.973 246.7C857.573 246.7 860.84 247.167 863.773 248.1C866.773 249.033 869.373 250.4 871.573 252.2C873.773 253.933 875.54 256.1 876.873 258.7C878.207 261.3 879.007 264.3 879.273 267.7L870.473 269.9C870.273 266.3 869.373 263.4 867.773 261.2C866.173 259 864.14 257.4 861.673 256.4C859.273 255.333 856.64 254.8 853.773 254.8C849.84 254.8 846.34 255.7 843.273 257.5C840.207 259.3 837.773 262.167 835.973 266.1C834.24 269.967 833.373 274.967 833.373 281.1C833.373 285.9 833.907 289.967 834.973 293.3C836.04 296.633 837.507 299.333 839.373 301.4C841.24 303.4 843.373 304.867 845.773 305.8C848.24 306.733 850.84 307.2 853.573 307.2C857.173 307.2 860.207 306.533 862.673 305.2C865.207 303.867 867.207 301.833 868.673 299.1C870.207 296.367 871.173 292.967 871.573 288.9H857.073V281.6H880.473V291.6L880.573 314H873.073L874.773 295.8H873.373C872.573 300.133 871.24 303.733 869.373 306.6C867.573 309.467 865.207 311.633 862.273 313.1C859.34 314.567 855.807 315.3 851.673 315.3Z" fill="#D1CEED"/>
</svg>
