<svg width="414" height="881" viewBox="0 0 414 881" fill="none" xmlns="http://www.w3.org/2000/svg">
<path fill-rule="evenodd" clip-rule="evenodd" d="M12.8626 429.676C12.8667 426.288 15.6117 423.542 18.9972 423.542C22.3814 423.542 25.1357 426.286 25.1317 429.677L25.1354 433.361C25.1354 433.642 25.3587 433.866 25.6398 433.866L29.3205 433.866C32.7096 433.861 35.4594 436.611 35.4556 440C35.4593 443.389 32.713 446.135 29.321 446.135L25.6397 446.135C25.3585 446.135 25.1352 446.358 25.1352 446.639L25.1351 450.096C25.1351 453.351 22.6866 456.24 19.389 456.443C15.8247 456.664 12.866 453.836 12.8661 450.321L12.8699 446.636C12.8699 446.353 12.6416 446.129 12.3688 446.131L12.3654 446.131L8.67722 446.131C5.28761 446.135 2.54243 443.389 2.53838 440.001L2.53838 440C2.54252 436.611 5.28773 433.866 8.67611 433.862L8.67727 433.862L12.3618 433.866C12.6446 433.865 12.8681 433.637 12.8663 433.365L12.8663 433.362L12.8626 429.676Z" fill="#BCBBE7"/>
<path d="M5.00014 440.5C290.975 440.5 423 881 423 881L423 -1.82714e-05C423 -1.82714e-05 290.74 440.5 5.00014 440.5Z" fill="url(#paint0_linear_629_77)"/>
<path opacity="0.3" fill-rule="evenodd" clip-rule="evenodd" d="M308.79 300.774C308.77 303.027 306.93 304.838 304.68 304.82C302.43 304.802 300.613 302.963 300.633 300.71L300.65 298.26L300.65 298.26C300.652 298.073 300.504 297.923 300.317 297.922L297.871 297.903C295.617 297.888 293.804 296.046 293.824 293.793C293.839 291.539 295.679 289.729 297.934 289.746L300.382 289.765C300.569 289.767 300.718 289.62 300.72 289.433L300.738 287.135C300.755 284.971 302.398 283.063 304.591 282.945C306.962 282.817 308.914 284.712 308.896 287.049L308.874 289.499C308.872 289.687 309.023 289.837 309.204 289.837L309.206 289.837L311.658 289.856C313.912 289.871 315.723 291.711 315.707 293.964L315.707 293.965C315.687 296.217 313.848 298.028 311.595 298.013L311.594 298.013L309.145 297.991L309.144 297.991C308.956 297.99 308.807 298.14 308.807 298.322L308.807 298.324L308.79 300.774Z" fill="#51509A"/>
<path opacity="0.3" fill-rule="evenodd" clip-rule="evenodd" d="M330.087 634.015C327.873 633.6 326.412 631.472 326.824 629.26C327.235 627.047 329.364 625.581 331.579 625.996L333.987 626.441L333.988 626.441C334.172 626.475 334.345 626.356 334.379 626.173L334.826 623.767C335.236 621.551 337.367 620.088 339.582 620.503C341.797 620.912 343.258 623.041 342.846 625.258L342.398 627.664C342.364 627.848 342.483 628.021 342.667 628.055L344.926 628.475C347.053 628.871 348.644 630.823 348.376 633.003C348.087 635.359 345.879 636.949 343.582 636.522L341.173 636.072C340.988 636.037 340.815 636.159 340.783 636.338L340.782 636.34L340.334 638.751C339.925 640.967 337.796 642.427 335.581 642.018L335.58 642.018C333.366 641.603 331.905 639.475 332.315 637.26L332.315 637.259L332.765 634.851L332.765 634.851C332.799 634.666 332.677 634.493 332.499 634.461L332.497 634.46L330.087 634.015Z" fill="#51509A"/>
<path opacity="0.3" fill-rule="evenodd" clip-rule="evenodd" d="M295.095 320.292C297.518 322.759 297.487 326.721 295.025 329.145C292.564 331.568 288.596 331.544 286.171 329.075L283.531 326.399L283.531 326.398C283.329 326.194 283.007 326.191 282.803 326.392L280.126 329.028C277.664 331.457 273.695 331.426 271.272 328.959C268.842 326.496 268.874 322.533 271.341 320.105L274.019 317.469C274.223 317.268 274.226 316.945 274.024 316.741L271.55 314.227C269.219 311.86 268.931 308.005 271.184 305.497C273.618 302.784 277.795 302.722 280.312 305.279L282.947 307.962C283.15 308.168 283.476 308.167 283.673 307.97L283.675 307.968L286.358 305.327C288.82 302.897 292.783 302.929 295.211 305.391L295.212 305.391C297.635 307.859 297.604 311.821 295.143 314.25L295.142 314.251L292.46 316.886L292.459 316.886C292.254 317.089 292.255 317.414 292.451 317.611L292.453 317.614L295.095 320.292Z" fill="#51509A"/>
<path opacity="0.3" fill-rule="evenodd" clip-rule="evenodd" d="M313.269 617.114C310.416 619.067 306.52 618.344 304.565 615.495C302.61 612.647 303.329 608.745 306.184 606.79L309.282 604.659L309.282 604.659C309.519 604.497 309.578 604.18 309.415 603.943L307.29 600.846C305.329 597.997 306.054 594.095 308.908 592.141C311.758 590.18 315.654 590.906 317.613 593.76L319.739 596.857C319.901 597.094 320.218 597.153 320.455 596.99L323.363 594.994C326.102 593.114 329.948 593.506 332.022 596.163C334.267 599.035 333.597 603.157 330.638 605.188L327.536 607.313C327.297 607.476 327.241 607.797 327.4 608.026L327.402 608.029L329.532 611.132C331.494 613.982 330.768 617.878 327.92 619.838L327.919 619.839C325.065 621.792 321.17 621.068 319.21 618.219L319.209 618.218L317.084 615.116L317.084 615.115C316.92 614.877 316.599 614.821 316.371 614.98L316.369 614.982L313.269 617.114Z" fill="#51509A"/>
<defs>
<linearGradient id="paint0_linear_629_77" x1="50.1048" y1="440.069" x2="435.217" y2="461.394" gradientUnits="userSpaceOnUse">
<stop offset="0.178904" stop-color="#B8B7E6"/>
<stop offset="0.810986" stop-color="#E4E3F7"/>
</linearGradient>
</defs>
</svg>
