<svg width="50" height="49" viewBox="0 0 50 49" fill="none" xmlns="http://www.w3.org/2000/svg">
<path opacity="0.3" fill-rule="evenodd" clip-rule="evenodd" d="M47.2029 31.0377C49.73 28.5045 49.7306 24.404 47.2024 21.8757C44.6752 19.3484 40.5685 19.3414 38.0399 21.8761L35.2859 24.6245L35.2855 24.6249C35.0756 24.8349 34.742 24.8349 34.532 24.6249L31.7834 21.8762C29.2555 19.3421 25.1487 19.342 22.6207 21.8757C20.0867 24.4041 20.0876 28.505 22.6207 31.0382L25.3698 33.7874C25.5797 33.9973 25.5797 34.3309 25.3698 34.5409L22.7886 37.1221C20.3579 39.5529 20.0284 43.5395 22.3397 46.1532C24.8363 48.9803 29.1575 49.078 31.7829 46.4525L34.532 43.6977C34.7434 43.4863 35.0806 43.4901 35.2829 43.6952L35.2855 43.6978L38.0397 46.452C40.5679 48.9864 44.6687 48.9858 47.202 46.4586L47.2029 46.4576C49.7302 43.9241 49.7302 39.824 47.2029 37.2905L47.202 37.2896L44.4478 34.5409L44.4474 34.5405C44.2364 34.3291 44.2402 33.9922 44.4452 33.7899L44.4474 33.7878L47.2029 31.0377Z" fill="#D1CEED"/>
<path opacity="0.3" fill-rule="evenodd" clip-rule="evenodd" d="M16.7121 5.76779C16.7093 3.51534 14.8844 1.68979 12.6336 1.68976C10.3837 1.68973 8.55257 3.51459 8.55525 5.76841L8.55279 8.21766L8.55279 8.21801C8.5528 8.40493 8.40431 8.55342 8.21739 8.55342L5.7704 8.55339C3.5172 8.55063 1.6891 10.3786 1.69163 12.6317C1.68916 14.8851 3.51495 16.7102 5.77008 16.7102L8.21749 16.7102C8.40441 16.7102 8.5529 16.8587 8.5529 17.0456L8.55293 19.3435C8.55295 21.5075 10.1808 23.4287 12.3731 23.5633C14.7428 23.7105 16.7098 21.8305 16.7097 19.4931L16.7072 17.0432C16.7072 16.855 16.859 16.7066 17.0403 16.7078L17.0426 16.7078L19.4946 16.7079C21.7481 16.7106 23.5732 14.8849 23.5758 12.6324L23.5758 12.6316C23.5731 10.3789 21.748 8.55381 19.4953 8.55106L19.4946 8.55106L17.045 8.55352L17.0447 8.55352C16.8566 8.55333 16.7084 8.40166 16.7096 8.22041L16.7096 8.21847L16.7121 5.76779Z" fill="#D1CEED"/>
</svg>
