<svg width="25" height="25" viewBox="0 0 25 25" fill="none" xmlns="http://www.w3.org/2000/svg">
<path d="M22.5339 15.4657C24.4887 17.4158 24.4887 20.5839 22.5339 22.5339C20.5838 24.4887 17.4203 24.4887 15.4655 22.5339L13.1472 20.2157C12.7883 19.8568 12.2123 19.8568 11.8534 20.2157L9.67672 22.3923C7.78331 24.2857 4.70004 24.5217 2.69804 22.7511C0.516616 20.8247 0.441069 17.4913 2.46668 15.4657L4.78976 13.1474C5.14861 12.7886 5.14861 12.2079 4.78976 11.8537L2.46668 9.53072C0.511895 7.5807 0.511895 4.41724 2.46196 2.46251C4.41674 0.512497 7.58028 0.512497 9.53507 2.46251L11.8534 4.78553C12.2123 5.14437 12.793 5.14437 13.1472 4.78553L15.4655 2.46251C17.4203 0.512497 20.5838 0.512497 22.5339 2.46251C24.484 4.41252 24.4887 7.5807 22.5339 9.53072L20.2156 11.8537C19.8567 12.2126 19.8567 12.7886 20.2156 13.1474L22.5339 15.4657Z" stroke="white" stroke-width="1.74975" stroke-miterlimit="10"/>
<path d="M10.1488 14.5451C10.7512 14.5451 11.2395 13.6297 11.2395 12.5006C11.2395 11.3715 10.7512 10.4562 10.1488 10.4562C9.54643 10.4562 9.05811 11.3715 9.05811 12.5006C9.05811 13.6297 9.54643 14.5451 10.1488 14.5451Z" fill="white"/>
<path d="M14.8563 14.5451C15.4587 14.5451 15.9471 13.6297 15.9471 12.5006C15.9471 11.3715 15.4587 10.4562 14.8563 10.4562C14.254 10.4562 13.7656 11.3715 13.7656 12.5006C13.7656 13.6297 14.254 14.5451 14.8563 14.5451Z" fill="white"/>
</svg>
