<svg width="64" height="20" viewBox="0 0 64 20" fill="none" xmlns="http://www.w3.org/2000/svg">
<path d="M0.0633339 16.9804C-0.0439847 16.772 -0.0124204 16.6142 0.139088 16.4564L1.54686 15.0991C1.72993 14.9413 1.913 14.9413 2.07082 15.1244C2.98619 16.3743 4.18563 17.0561 5.82698 17.0561C7.83447 17.0561 9.16648 16.0145 9.16648 14.3163C9.16648 12.8328 8.20061 12.2836 6.84335 11.5766L5.11994 10.6612C3.21345 9.67007 1.93825 8.39487 1.93825 6.25481C1.93825 3.18676 4.44446 0.970947 7.88497 0.970947C9.99978 0.970947 11.7421 1.8295 12.8658 3.36983C12.9984 3.55291 12.9984 3.73598 12.8153 3.9443L11.5086 5.25107C11.3002 5.45939 11.1172 5.45939 10.9341 5.27632C9.99347 4.2347 9.00235 3.66023 7.65139 3.66023C5.95955 3.66023 4.78535 4.54403 4.78535 6.00861C4.78535 7.05023 5.41033 7.67521 7.02642 8.5085L8.56676 9.31655C10.3154 10.2319 12.0325 11.3493 12.0325 14.0386C12.0325 17.4033 9.34955 19.7517 5.6439 19.7517C2.87887 19.7517 0.896632 18.4449 0.0633339 16.9867V16.9804Z" fill="#1E2843"/>
<path d="M14.5576 13.9566C14.5576 9.89109 17.9477 6.34326 22.1457 6.34326C25.5862 6.34326 27.9346 8.74215 27.9346 12.1322C27.9346 16.1976 24.5446 19.7455 20.3718 19.7455C16.906 19.7455 14.5576 17.3466 14.5576 13.9566ZM20.7127 17.1383C23.1621 17.1383 25.1948 15.1308 25.1948 12.4731C25.1948 10.3077 23.8123 8.95047 21.7796 8.95047C19.3302 8.95047 17.2974 10.958 17.2974 13.5904C17.2974 15.781 18.6799 17.1383 20.7127 17.1383Z" fill="#1E2843"/>
<path d="M30.7502 19.0384L32.158 8.89367H30.6429C30.4093 8.89367 30.2767 8.7611 30.302 8.52752L30.5103 7.01243C30.5356 6.77886 30.6934 6.64629 30.927 6.64629H32.4673L32.8082 4.2474C33.1743 1.64019 34.7652 0.36499 37.2651 0.36499C37.8648 0.36499 38.3635 0.440745 38.8307 0.649069C39.039 0.756388 39.0642 0.857393 39.039 1.04047L38.7802 2.81438C38.7549 2.99745 38.5971 3.02271 38.4393 2.99745C38.0479 2.94695 37.7638 2.89014 37.4734 2.89014C36.1161 2.89014 35.7247 3.67293 35.5985 4.71455L35.3144 6.64629H37.8711C38.1047 6.64629 38.212 6.77886 38.1867 7.01243L37.9784 8.52752C37.9532 8.7611 37.7953 8.89367 37.5618 8.89367H35.0051L33.572 19.0384C33.5468 19.272 33.389 19.4298 33.1554 19.4298H31.0721C30.8386 19.4298 30.7313 19.272 30.7565 19.0384H30.7502Z" fill="#1E2843"/>
<path d="M37.9658 18.0221C37.9658 17.2393 38.5908 16.6143 39.3736 16.6143C40.1564 16.6143 40.7561 17.2393 40.7561 18.0221C40.7561 18.8048 40.1564 19.4298 39.3736 19.4298C38.5908 19.4298 37.9658 18.8048 37.9658 18.0221ZM45.3771 7.01873C45.3771 6.78516 45.4844 6.65259 45.718 6.65259H47.3593C47.5929 6.65259 47.7255 6.78516 47.7255 7.01873V19.0637C47.7255 19.2973 47.5929 19.4298 47.3593 19.4298H45.718C45.4844 19.4298 45.3771 19.2973 45.3771 19.0637V7.01873Z" fill="#1E2843"/>
<path d="M50.7745 13.0412C50.7745 9.23452 53.3312 6.33691 57.0053 6.33691C59.1959 6.33691 60.812 7.35329 61.7274 8.96938L61.7779 7.01239C61.7779 6.77881 61.8852 6.64624 62.1187 6.64624H63.6338C63.8674 6.64624 64 6.77881 64 7.01239V19.0573C64 19.2909 63.8674 19.4235 63.6338 19.4235H62.1187C61.8852 19.4235 61.7779 19.2909 61.7779 19.0573L61.7274 17.1508C60.7867 18.7417 59.1959 19.7328 57.0053 19.7328C53.3312 19.7328 50.7745 16.8668 50.7745 13.0285V13.0412ZM57.422 17.5801C59.9282 17.5801 61.6705 15.781 61.6705 13.0664C61.6705 10.3519 59.9219 8.50223 57.422 8.50223C54.9221 8.50223 53.0661 10.3519 53.0661 13.0412C53.0661 15.7305 54.8905 17.5801 57.422 17.5801Z" fill="#1E2843"/>
<path d="M48.6218 3.57826C48.9438 3.90653 48.9438 4.4305 48.6218 4.75246C48.2999 5.07441 47.7696 5.06179 47.454 4.75246L46.9237 4.22217C46.7217 4.02016 46.3808 4.02016 46.1851 4.22217L45.6548 4.75246C45.497 4.90396 45.2886 4.99234 45.0677 4.99234C44.8467 4.99234 44.6384 4.90396 44.4869 4.75246C44.3354 4.60095 44.2407 4.38631 44.2407 4.16536C44.2407 3.94441 44.3291 3.73608 44.4869 3.57826L45.0172 3.04798C45.2192 2.84597 45.2192 2.5177 45.0109 2.30938L44.5185 1.81066C44.1902 1.48871 44.1586 0.977364 44.449 0.649095C44.6005 0.472335 44.8152 0.377642 45.0424 0.371329H45.0677C45.2886 0.371329 45.497 0.453396 45.6548 0.611218L46.1851 1.1415C46.3808 1.3372 46.728 1.3372 46.9237 1.1415L47.454 0.611218C47.7759 0.289262 48.2999 0.289262 48.6218 0.611218C48.9438 0.933174 48.9438 1.45714 48.6218 1.7791L48.0916 2.30938C47.9969 2.41038 47.94 2.54295 47.94 2.68184C47.94 2.82072 47.9969 2.95329 48.0916 3.0543L48.6218 3.57826Z" fill="#1E2843"/>
</svg>
