<svg width="276" height="77" viewBox="0 0 276 77" fill="none" xmlns="http://www.w3.org/2000/svg">
<path d="M69.704 47.8106C75.7592 53.8512 75.7592 63.6653 69.704 69.7058C63.6634 75.761 53.864 75.761 47.8088 69.7058L40.6274 62.5244C39.5158 61.4128 37.7314 61.4128 36.6198 62.5244L29.8772 69.267C24.0122 75.1321 14.4614 75.8634 8.2599 70.3786C1.50266 64.4112 1.26864 54.0852 7.54322 47.8106L14.7392 40.6292C15.8508 39.5176 15.8508 37.7186 14.7392 36.6217L7.54322 29.4256C1.48803 23.3851 1.48803 13.5856 7.5286 7.53042C13.5838 1.48986 23.3833 1.48986 29.4384 7.53042L36.6198 14.7264C37.7314 15.838 39.5304 15.838 40.6274 14.7264L47.8088 7.53042C53.864 1.48986 63.6634 1.48986 69.704 7.53042C75.7446 13.571 75.7592 23.3851 69.704 29.4256L62.5226 36.6217C61.411 37.7332 61.411 39.5176 62.5226 40.6292L69.704 47.8106Z" stroke="#FAEDC1" stroke-width="4.17426" stroke-miterlimit="10"/>
<path d="M31.3399 44.9587C33.2059 44.9587 34.7185 42.1232 34.7185 38.6256C34.7185 35.1279 33.2059 32.2925 31.3399 32.2925C29.474 32.2925 27.9613 35.1279 27.9613 38.6256C27.9613 42.1232 29.474 44.9587 31.3399 44.9587Z" fill="#FAEDC1"/>
<path d="M45.9221 44.9587C47.788 44.9587 49.3007 42.1232 49.3007 38.6256C49.3007 35.1279 47.788 32.2925 45.9221 32.2925C44.0561 32.2925 42.5435 35.1279 42.5435 38.6256C42.5435 42.1232 44.0561 44.9587 45.9221 44.9587Z" fill="#FAEDC1"/>
<g clip-path="url(#clip0_113_231)">
<path d="M109.442 55.1936C109.173 54.668 109.252 54.2697 109.632 53.8715L113.165 50.4469C113.625 50.0487 114.084 50.0487 114.48 50.5106C116.777 53.6645 119.788 55.3847 123.907 55.3847C128.945 55.3847 132.288 52.7565 132.288 48.4717C132.288 44.7285 129.864 43.3427 126.457 41.5587L122.132 39.2491C117.348 36.7483 114.148 33.5307 114.148 28.1309C114.148 20.3896 120.437 14.7987 129.072 14.7987C134.379 14.7987 138.752 16.965 141.572 20.8516C141.904 21.3135 141.904 21.7754 141.445 22.3011L138.165 25.5983C137.643 26.1239 137.183 26.1239 136.724 25.662C134.363 23.0338 131.876 21.5843 128.485 21.5843C124.239 21.5843 121.293 23.8143 121.293 27.5097C121.293 30.1379 122.861 31.7149 126.917 33.8174L130.783 35.8563C135.171 38.1659 139.48 40.9853 139.48 47.7709C139.48 56.2608 132.747 62.1863 123.447 62.1863C116.508 62.1863 111.533 58.889 109.442 55.2095V55.1936Z" fill="#FAEDC1"/>
<path d="M145.818 47.5635C145.818 37.3055 154.325 28.3536 164.861 28.3536C173.495 28.3536 179.389 34.4065 179.389 42.9601C179.389 53.2182 170.881 62.17 160.409 62.17C151.711 62.17 145.818 56.1172 145.818 47.5635ZM161.264 55.5915C167.411 55.5915 172.513 50.5262 172.513 43.8203C172.513 38.3568 169.043 34.9321 163.942 34.9321C157.795 34.9321 152.693 39.9974 152.693 46.6397C152.693 52.1669 156.163 55.5915 161.264 55.5915Z" fill="#FAEDC1"/>
<path d="M186.455 60.3863L189.988 34.7891H186.185C185.599 34.7891 185.266 34.4546 185.33 33.8652L185.853 30.0423C185.916 29.453 186.312 29.1185 186.898 29.1185H190.764L191.619 23.0656C192.538 16.4871 196.531 13.2695 202.805 13.2695C204.31 13.2695 205.561 13.4607 206.734 13.9863C207.256 14.2571 207.32 14.512 207.256 14.9739L206.607 19.4498C206.544 19.9118 206.147 19.9755 205.751 19.9118C204.769 19.7843 204.056 19.641 203.327 19.641C199.921 19.641 198.939 21.6161 198.622 24.2443L197.909 29.1185H204.326C204.912 29.1185 205.181 29.453 205.118 30.0423L204.595 33.8652C204.531 34.4546 204.135 34.7891 203.549 34.7891H197.133L193.536 60.3863C193.473 60.9757 193.077 61.3739 192.491 61.3739H187.263C186.676 61.3739 186.407 60.9757 186.471 60.3863H186.455Z" fill="#FAEDC1"/>
<path d="M224.082 60.4656V16.2478C224.082 15.6585 224.414 15.324 225.001 15.324H228.074C228.66 15.324 228.993 15.6585 228.993 16.2478V60.4656C228.993 61.055 228.66 61.3895 228.074 61.3895H225.001C224.414 61.3895 224.082 61.055 224.082 60.4656Z" fill="#FAEDC1"/>
<path d="M237.691 60.2585L253.534 16.1204C253.724 15.5948 254.183 15.324 254.706 15.324H258.302C258.825 15.324 259.285 15.5948 259.475 16.1204L275.381 60.2745C275.65 60.9275 275.381 61.3895 274.652 61.3895H271.389C270.866 61.3895 270.533 61.1983 270.343 60.593L267 51.0518H246.056L242.713 60.593C242.523 61.1824 242.19 61.3895 241.604 61.3895H238.404C237.691 61.3895 237.421 60.9275 237.691 60.2745V60.2585ZM265.432 46.6396L256.528 21.2494L247.624 46.6396H265.432Z" fill="#FAEDC1"/>
<path d="M212.928 45.1583C213.609 45.8432 213.609 46.9742 212.928 47.6591C212.247 48.344 211.122 48.344 210.441 47.6591L209.633 46.8467C209.506 46.7193 209.3 46.7193 209.173 46.8467L208.413 47.6113C207.748 48.2803 206.67 48.36 205.957 47.7387C205.197 47.0538 205.165 45.8751 205.878 45.1583L206.702 44.346C206.829 44.2185 206.829 44.0115 206.702 43.884L205.878 43.0557C205.197 42.3708 205.197 41.2399 205.878 40.555C206.559 39.87 207.684 39.87 208.365 40.555L209.173 41.3832C209.3 41.5107 209.506 41.5107 209.633 41.3832L210.441 40.555C211.122 39.87 212.247 39.87 212.928 40.555C213.609 41.2399 213.609 42.3708 212.928 43.0557L212.12 43.884C211.993 44.0115 211.993 44.2185 212.12 44.346L212.928 45.1583Z" fill="#FAEDC1"/>
</g>
<defs>
<clipPath id="clip0_113_231">
<rect width="166.208" height="48.8848" fill="white" transform="translate(109.283 13.2854)"/>
</clipPath>
</defs>
</svg>
