<svg width="81" height="23" viewBox="0 0 81 23" fill="none" xmlns="http://www.w3.org/2000/svg">
<path d="M20.4557 14.07C22.2219 15.8319 22.2219 18.6944 20.4557 20.4563C18.6939 22.2224 15.8356 22.2224 14.0695 20.4563L11.9749 18.3617C11.6507 18.0374 11.1302 18.0374 10.806 18.3617L8.83935 20.3283C7.12868 22.039 4.34296 22.2523 2.53417 20.6525C0.563266 18.912 0.49501 15.9002 2.32513 14.07L4.42402 11.9754C4.74824 11.6512 4.74824 11.1265 4.42402 10.8065L2.32513 8.70764C0.559 6.94577 0.559 4.08753 2.32087 2.3214C4.087 0.559533 6.94524 0.559533 8.71137 2.3214L10.806 4.42028C11.1302 4.7445 11.6549 4.7445 11.9749 4.42028L14.0695 2.3214C15.8356 0.559533 18.6939 0.559533 20.4557 2.3214C22.2176 4.08327 22.2219 6.94577 20.4557 8.70764L18.3611 10.8065C18.0369 11.1307 18.0369 11.6512 18.3611 11.9754L20.4557 14.07Z" stroke="#FAEDC1" stroke-width="1.21752" stroke-miterlimit="10"/>
<path d="M9.26597 13.2382C9.81022 13.2382 10.2514 12.4112 10.2514 11.391C10.2514 10.3708 9.81022 9.54382 9.26597 9.54382C8.72172 9.54382 8.28052 10.3708 8.28052 11.391C8.28052 12.4112 8.72172 13.2382 9.26597 13.2382Z" fill="#FAEDC1"/>
<path d="M13.5192 13.2382C14.0635 13.2382 14.5047 12.4112 14.5047 11.391C14.5047 10.3708 14.0635 9.54382 13.5192 9.54382C12.975 9.54382 12.5338 10.3708 12.5338 11.391C12.5338 12.4112 12.975 13.2382 13.5192 13.2382Z" fill="#FAEDC1"/>
<g clip-path="url(#clip0_113_231)">
<path d="M32.0462 16.2235C31.9677 16.0702 31.9908 15.954 32.1017 15.8379L33.1322 14.839C33.2662 14.7229 33.4002 14.7229 33.5157 14.8576C34.1857 15.7775 35.0637 16.2792 36.2652 16.2792C37.7346 16.2792 38.7097 15.5127 38.7097 14.2629C38.7097 13.1711 38.0027 12.7669 37.0091 12.2466L35.7476 11.5729C34.3521 10.8435 33.4187 9.90503 33.4187 8.33005C33.4187 6.07213 35.2532 4.44141 37.7716 4.44141C39.3196 4.44141 40.595 5.07325 41.4175 6.20686C41.5146 6.34159 41.5146 6.47633 41.3806 6.62964L40.424 7.59135C40.2715 7.74467 40.1375 7.74467 40.0035 7.60993C39.315 6.84335 38.5895 6.42057 37.6006 6.42057C36.3622 6.42057 35.5027 7.07101 35.5027 8.14886C35.5027 8.91544 35.9602 9.37539 37.1432 9.98865L38.2707 10.5833C39.5507 11.257 40.8076 12.0793 40.8076 14.0585C40.8076 16.5348 38.8437 18.2631 36.1312 18.2631C34.1072 18.2631 32.6562 17.3014 32.0462 16.2281V16.2235Z" fill="#FAEDC1"/>
<path d="M42.6559 13.998C42.6559 11.006 45.1374 8.39502 48.2103 8.39502C50.7288 8.39502 52.4478 10.1605 52.4478 12.6553C52.4478 15.6473 49.9663 18.2583 46.9118 18.2583C44.3749 18.2583 42.6559 16.4929 42.6559 13.998ZM47.1614 16.3396C48.9543 16.3396 50.4423 14.8622 50.4423 12.9062C50.4423 11.3127 49.4303 10.3138 47.9423 10.3138C46.1494 10.3138 44.6614 11.7912 44.6614 13.7286C44.6614 15.3407 45.6734 16.3396 47.1614 16.3396Z" fill="#FAEDC1"/>
<path d="M54.5087 17.738L55.5391 10.272H54.4301C54.2591 10.272 54.1621 10.1745 54.1806 10.0026L54.3331 8.88753C54.3516 8.71563 54.4671 8.61807 54.6381 8.61807H55.7656L56.0151 6.85261C56.2831 4.93384 57.4476 3.99536 59.2775 3.99536C59.7165 3.99536 60.0815 4.05111 60.4235 4.20443C60.576 4.28341 60.5945 4.35774 60.576 4.49248L60.3865 5.79798C60.368 5.93272 60.2525 5.9513 60.137 5.93272C59.8505 5.89555 59.6426 5.85374 59.43 5.85374C58.4365 5.85374 58.15 6.42983 58.0576 7.19641L57.8496 8.61807H59.7211C59.8921 8.61807 59.9706 8.71563 59.9522 8.88753L59.7997 10.0026C59.7812 10.1745 59.6657 10.272 59.4947 10.272H57.6232L56.5742 17.738C56.5558 17.9099 56.4402 18.0261 56.2693 18.0261H54.7443C54.5734 18.0261 54.4948 17.9099 54.5133 17.738H54.5087Z" fill="#FAEDC1"/>
<path d="M65.4835 17.7612V4.86407C65.4835 4.69217 65.5805 4.5946 65.7515 4.5946H66.6479C66.8189 4.5946 66.916 4.69217 66.916 4.86407V17.7612C66.916 17.9331 66.8189 18.0306 66.6479 18.0306H65.7515C65.5805 18.0306 65.4835 17.9331 65.4835 17.7612Z" fill="#FAEDC1"/>
<path d="M69.4529 17.7008L74.0738 4.8269C74.1293 4.67359 74.2633 4.5946 74.4158 4.5946H75.4647C75.6172 4.5946 75.7512 4.67359 75.8067 4.8269L80.4461 17.7054C80.5247 17.8959 80.4461 18.0306 80.2336 18.0306H79.2817C79.1292 18.0306 79.0321 17.9749 78.9767 17.7984L78.0017 15.0154H71.8927L70.9177 17.7984C70.8623 17.9703 70.7652 18.0306 70.5943 18.0306H69.6608C69.4529 18.0306 69.3743 17.8959 69.4529 17.7054V17.7008ZM77.5442 13.7285L74.9472 6.32289L72.3502 13.7285H77.5442Z" fill="#FAEDC1"/>
<path d="M62.2303 13.2965C62.429 13.4962 62.429 13.8261 62.2303 14.0259C62.0316 14.2256 61.7035 14.2256 61.5048 14.0259L61.2692 13.7889C61.2322 13.7518 61.1721 13.7518 61.1352 13.7889L60.9134 14.0119C60.7193 14.2071 60.405 14.2303 60.1971 14.0491C59.9753 13.8493 59.9661 13.5055 60.174 13.2965L60.4143 13.0595C60.4513 13.0224 60.4513 12.962 60.4143 12.9248L60.174 12.6832C59.9753 12.4834 59.9753 12.1536 60.174 11.9538C60.3727 11.754 60.7008 11.754 60.8995 11.9538L61.1352 12.1954C61.1721 12.2325 61.2322 12.2325 61.2692 12.1954L61.5048 11.9538C61.7035 11.754 62.0316 11.754 62.2303 11.9538C62.429 12.1536 62.429 12.4834 62.2303 12.6832L61.9947 12.9248C61.9577 12.962 61.9577 13.0224 61.9947 13.0595L62.2303 13.2965Z" fill="#FAEDC1"/>
</g>
<defs>
<clipPath id="clip0_113_231">
<rect width="48.4785" height="14.2584" fill="white" transform="translate(32 4)"/>
</clipPath>
</defs>
</svg>
