<svg width="238" height="38" viewBox="0 0 238 38" fill="none" xmlns="http://www.w3.org/2000/svg">
<path d="M8.992 17.264C8.416 17.264 7.91467 17.0507 7.488 16.624C7.06133 16.1973 6.848 15.696 6.848 15.12C6.848 14.4587 7.04 13.936 7.424 13.552C7.808 13.168 8.33067 12.976 8.992 12.976C9.54667 12.976 10.0373 13.1893 10.464 13.616C10.912 14.0427 11.136 14.544 11.136 15.12C11.136 15.76 10.9333 16.2827 10.528 16.688C10.1227 17.072 9.61067 17.264 8.992 17.264ZM7.648 37.424C6.47467 37.424 5.42933 37.1893 4.512 36.72C3.59467 36.2507 2.88 35.6213 2.368 34.832C1.856 34.0427 1.6 33.168 1.6 32.208C1.6 31.12 1.81333 30.2133 2.24 29.488C2.66667 28.7627 3.18933 28.1333 3.808 27.6C4.448 27.0453 5.07733 26.512 5.696 26C6.31467 25.4667 6.83733 24.88 7.264 24.24C7.69067 23.5787 7.904 22.7573 7.904 21.776V19.984H10.4C10.5067 20.3253 10.5813 20.72 10.624 21.168C10.688 21.5947 10.72 21.9893 10.72 22.352C10.72 23.44 10.5173 24.3573 10.112 25.104C9.70667 25.8293 9.20533 26.4693 8.608 27.024C8.01067 27.5573 7.41333 28.0587 6.816 28.528C6.21867 28.9973 5.71733 29.4987 5.312 30.032C4.90667 30.5867 4.704 31.2373 4.704 31.984C4.704 32.7307 4.992 33.3813 5.568 33.936C6.144 34.512 6.92267 34.8 7.904 34.8C8.77867 34.8 9.568 34.5867 10.272 34.16C10.976 33.7333 11.616 33.1467 12.192 32.4L14.272 34.064C13.4187 35.1093 12.4693 35.9307 11.424 36.528C10.3787 37.1253 9.12 37.424 7.648 37.424ZM27.7188 30.384C26.0974 30.384 24.6361 30.0853 23.3348 29.488C22.0548 28.8693 20.9668 28.0373 20.0708 26.992C19.1748 25.9253 18.4921 24.688 18.0228 23.28C17.5534 21.872 17.3188 20.368 17.3188 18.768C17.3188 16.5707 17.7348 14.608 18.5668 12.88C19.3988 11.1307 20.5828 9.75467 22.1188 8.752C23.6761 7.728 25.5428 7.216 27.7188 7.216C29.3401 7.216 30.7908 7.51467 32.0708 8.112C33.3721 8.70933 34.4708 9.54133 35.3668 10.608C36.2628 11.6747 36.9454 12.9013 37.4148 14.288C37.9054 15.6747 38.1508 17.168 38.1508 18.768C38.1508 20.432 37.9161 21.8827 37.4468 23.12C36.9774 24.336 36.4228 25.392 35.7828 26.288L38.6308 27.856L37.2548 30.384L34.1508 28.08C33.3614 28.7413 32.4334 29.296 31.3668 29.744C30.3001 30.1707 29.0841 30.384 27.7188 30.384ZM27.6548 27.76C28.5294 27.76 29.3188 27.6533 30.0228 27.44C30.7481 27.2267 31.3668 26.96 31.8787 26.64L29.4468 25.104L30.7268 22.768L33.6068 24.848C34.1188 24.016 34.4814 23.1093 34.6948 22.128C34.9294 21.1253 35.0468 20.0053 35.0468 18.768C35.0468 17.616 34.8761 16.5067 34.5347 15.44C34.2148 14.3733 33.7348 13.424 33.0948 12.592C32.4761 11.7387 31.7081 11.0667 30.7908 10.576C29.8948 10.0853 28.8708 9.84 27.7188 9.84C26.1828 9.84 24.8708 10.2347 23.7828 11.024C22.6948 11.792 21.8628 12.848 21.2868 14.192C20.7108 15.536 20.4227 17.0613 20.4227 18.768C20.4227 19.92 20.5828 21.04 20.9028 22.128C21.2228 23.1947 21.6921 24.1547 22.3108 25.008C22.9294 25.8613 23.6868 26.5333 24.5828 27.024C25.4788 27.5147 26.5028 27.76 27.6548 27.76ZM48.0625 30.384C47.1025 30.384 46.1958 30.1813 45.3425 29.776C44.4892 29.3707 43.7958 28.72 43.2625 27.824C42.7292 26.9067 42.4625 25.6907 42.4625 24.176V13.36H45.3425V23.792C45.3425 25.0933 45.6198 26.096 46.1745 26.8C46.7292 27.4827 47.5398 27.824 48.6065 27.824C49.4812 27.824 50.3238 27.6533 51.1345 27.312C51.9665 26.9493 52.7025 26.4693 53.3425 25.872V13.36H56.2225V25.68C56.2225 26.5973 56.4145 27.2053 56.7985 27.504C57.2038 27.7813 57.6412 27.92 58.1105 27.92L57.5025 30.16C55.5185 30.16 54.2918 29.3707 53.8225 27.792C53.0758 28.56 52.2118 29.1893 51.2305 29.68C50.2492 30.1493 49.1932 30.384 48.0625 30.384ZM68.2785 30.384C65.8892 30.384 63.9905 29.6267 62.5825 28.112C61.1958 26.576 60.5025 24.432 60.5025 21.68C60.5025 20.016 60.8118 18.5333 61.4305 17.232C62.0705 15.9093 62.9558 14.8747 64.0865 14.128C65.2172 13.36 66.5292 12.976 68.0225 12.976C69.6225 12.976 70.9452 13.328 71.9905 14.032C73.0572 14.7147 73.8572 15.6427 74.3905 16.816C74.9238 17.9893 75.1905 19.28 75.1905 20.688C75.1905 21.4347 75.1585 22.16 75.0945 22.864H63.4465C63.6385 24.4213 64.1825 25.6373 65.0785 26.512C65.9745 27.3867 67.1585 27.824 68.6305 27.824C69.5905 27.824 70.4545 27.728 71.2225 27.536C71.9905 27.3227 72.7265 27.056 73.4305 26.736L74.1025 29.2C73.3345 29.5413 72.4705 29.8187 71.5105 30.032C70.5505 30.2667 69.4732 30.384 68.2785 30.384ZM63.4145 20.528H72.5345C72.5345 18.9067 72.1292 17.6587 71.3185 16.784C70.5078 15.9093 69.3878 15.472 67.9585 15.472C66.7212 15.472 65.6972 15.9093 64.8865 16.784C64.0758 17.6373 63.5852 18.8853 63.4145 20.528ZM65.3665 11.6L64.3745 9.648L70.4225 5.648L71.7665 8.336L65.3665 11.6ZM95.2785 30.384C92.8892 30.384 90.9905 29.6267 89.5825 28.112C88.1958 26.576 87.5025 24.432 87.5025 21.68C87.5025 20.016 87.8118 18.5333 88.4305 17.232C89.0705 15.9093 89.9558 14.8747 91.0865 14.128C92.2172 13.36 93.5292 12.976 95.0225 12.976C96.6225 12.976 97.9452 13.328 98.9905 14.032C100.057 14.7147 100.857 15.6427 101.391 16.816C101.924 17.9893 102.191 19.28 102.191 20.688C102.191 21.4347 102.159 22.16 102.095 22.864H90.4465C90.6385 24.4213 91.1825 25.6373 92.0785 26.512C92.9745 27.3867 94.1585 27.824 95.6305 27.824C96.5905 27.824 97.4545 27.728 98.2225 27.536C98.9905 27.3227 99.7265 27.056 100.431 26.736L101.103 29.2C100.335 29.5413 99.4705 29.8187 98.5105 30.032C97.5505 30.2667 96.4732 30.384 95.2785 30.384ZM90.4145 20.528H99.5345C99.5345 18.9067 99.1292 17.6587 98.3185 16.784C97.5078 15.9093 96.3878 15.472 94.9585 15.472C93.7212 15.472 92.6972 15.9093 91.8865 16.784C91.0758 17.6373 90.5852 18.8853 90.4145 20.528ZM110.509 30.384C109.25 30.384 108.109 30.224 107.085 29.904C106.082 29.584 105.25 29.168 104.589 28.656L105.805 26.256C106.359 26.7253 107.053 27.12 107.885 27.44C108.738 27.7387 109.645 27.888 110.605 27.888C111.799 27.888 112.695 27.696 113.293 27.312C113.911 26.9067 114.221 26.3947 114.221 25.776C114.221 25.328 114.103 24.9333 113.869 24.592C113.655 24.2507 113.25 23.92 112.653 23.6C112.055 23.2587 111.191 22.896 110.061 22.512C108.503 21.9787 107.33 21.3493 106.541 20.624C105.773 19.8773 105.389 18.8533 105.389 17.552C105.389 16.272 105.943 15.1947 107.053 14.32C108.183 13.424 109.741 12.976 111.725 12.976C112.791 12.976 113.741 13.0933 114.573 13.328C115.405 13.5413 116.151 13.8187 116.813 14.16L116.013 16.528C115.437 16.1867 114.775 15.9093 114.029 15.696C113.303 15.4827 112.493 15.376 111.597 15.376C110.487 15.376 109.645 15.6 109.069 16.048C108.493 16.496 108.205 16.9867 108.205 17.52C108.205 18.032 108.429 18.4693 108.877 18.832C109.325 19.1947 110.199 19.5893 111.501 20.016C113.613 20.72 115.085 21.4987 115.917 22.352C116.749 23.2053 117.165 24.272 117.165 25.552C117.165 27.0453 116.557 28.2293 115.341 29.104C114.146 29.9573 112.535 30.384 110.509 30.384Z" fill="#FAEDC1"/>
<path d="M227.312 23.376C227.205 23.0133 227.12 22.6187 227.056 22.192C227.013 21.7653 226.992 21.3707 226.992 21.008C226.992 19.92 227.195 19.0133 227.6 18.288C228.005 17.5413 228.507 16.9013 229.104 16.368C229.701 15.8133 230.299 15.3013 230.896 14.832C231.493 14.3627 231.995 13.8613 232.4 13.328C232.805 12.7733 233.008 12.1227 233.008 11.376C233.008 10.6293 232.72 9.97867 232.144 9.424C231.568 8.848 230.789 8.56 229.808 8.56C228.933 8.56 228.144 8.77333 227.44 9.2C226.736 9.62667 226.096 10.2133 225.52 10.96L223.44 9.296C224.293 8.25067 225.243 7.42933 226.288 6.832C227.333 6.23467 228.592 5.936 230.064 5.936C231.259 5.936 232.304 6.17067 233.2 6.64C234.117 7.10933 234.832 7.73867 235.344 8.528C235.856 9.31733 236.112 10.192 236.112 11.152C236.112 12.24 235.899 13.1467 235.472 13.872C235.045 14.5973 234.523 15.2373 233.904 15.792C233.285 16.3253 232.656 16.8587 232.016 17.392C231.397 17.904 230.875 18.4907 230.448 19.152C230.021 19.792 229.808 20.6027 229.808 21.584V23.376H227.312ZM228.72 30.384C228.144 30.384 227.643 30.1707 227.216 29.744C226.789 29.3173 226.576 28.816 226.576 28.24C226.576 27.5787 226.768 27.056 227.152 26.672C227.536 26.288 228.059 26.096 228.72 26.096C229.275 26.096 229.765 26.3093 230.192 26.736C230.64 27.1627 230.864 27.664 230.864 28.24C230.864 28.88 230.661 29.4027 230.256 29.808C229.851 30.192 229.339 30.384 228.72 30.384Z" fill="#FAEDC1"/>
<g clip-path="url(#clip0_69_136)">
<path d="M132.082 27.8608C131.943 27.5888 131.984 27.3828 132.18 27.1768L134.008 25.4048C134.246 25.1987 134.484 25.1987 134.689 25.4377C135.877 27.0696 137.435 27.9597 139.566 27.9597C142.173 27.9597 143.903 26.5998 143.903 24.3828C143.903 22.446 142.649 21.7289 140.886 20.8058L138.648 19.6108C136.173 18.3168 134.517 16.652 134.517 13.858C134.517 9.85247 137.771 6.95959 142.239 6.95959C144.985 6.95959 147.247 8.08048 148.707 10.0915C148.879 10.3305 148.879 10.5695 148.641 10.8415L146.944 12.5475C146.674 12.8195 146.436 12.8195 146.198 12.5805C144.977 11.2206 143.69 10.4706 141.935 10.4706C139.738 10.4706 138.214 11.6245 138.214 13.5366C138.214 14.8965 139.025 15.7124 141.124 16.8003L143.124 17.8553C145.395 19.0503 147.624 20.5091 147.624 24.0201C147.624 28.413 144.141 31.479 139.329 31.479C135.738 31.479 133.164 29.7729 132.082 27.8691V27.8608Z" fill="#FAEDC1"/>
<path d="M150.904 23.9129C150.904 18.6052 155.306 13.9733 160.757 13.9733C165.225 13.9733 168.274 17.1052 168.274 21.531C168.274 26.8387 163.872 31.4706 158.453 31.4706C153.953 31.4706 150.904 28.3387 150.904 23.9129ZM158.896 28.0668C162.077 28.0668 164.716 25.4459 164.716 21.9761C164.716 19.1491 162.921 17.3771 160.282 17.3771C157.101 17.3771 154.461 19.998 154.461 23.4349C154.461 26.2948 156.257 28.0668 158.896 28.0668Z" fill="#FAEDC1"/>
<path d="M171.93 30.5476L173.758 17.303H171.791C171.487 17.303 171.315 17.1299 171.348 16.825L171.618 14.847C171.651 14.542 171.856 14.3689 172.16 14.3689H174.16L174.602 11.237C175.078 7.83318 177.144 6.16833 180.39 6.16833C181.169 6.16833 181.816 6.26724 182.423 6.53922C182.693 6.67933 182.726 6.8112 182.693 7.05021L182.357 9.36616C182.324 9.60517 182.119 9.63814 181.915 9.60517C181.406 9.53924 181.037 9.46506 180.66 9.46506C178.898 9.46506 178.39 10.487 178.226 11.8469L177.857 14.3689H181.177C181.48 14.3689 181.619 14.542 181.587 14.847L181.316 16.825C181.283 17.1299 181.078 17.303 180.775 17.303H177.455L175.594 30.5476C175.561 30.8526 175.357 31.0586 175.053 31.0586H172.348C172.045 31.0586 171.905 30.8526 171.938 30.5476H171.93Z" fill="#FAEDC1"/>
<path d="M191.399 30.5887V7.70947C191.399 7.40452 191.571 7.23145 191.875 7.23145H193.465C193.768 7.23145 193.94 7.40452 193.94 7.70947V30.5887C193.94 30.8937 193.768 31.0668 193.465 31.0668H191.875C191.571 31.0668 191.399 30.8937 191.399 30.5887Z" fill="#FAEDC1"/>
<path d="M198.441 30.4816L206.638 7.64354C206.737 7.37156 206.974 7.23145 207.245 7.23145H209.106C209.376 7.23145 209.614 7.37156 209.712 7.64354L217.943 30.4898C218.082 30.8277 217.943 31.0668 217.566 31.0668H215.877C215.606 31.0668 215.434 30.9679 215.336 30.6547L213.606 25.7178H202.769L201.039 30.6547C200.941 30.9596 200.769 31.0668 200.466 31.0668H198.81C198.441 31.0668 198.301 30.8277 198.441 30.4898V30.4816ZM212.795 23.4348L208.188 10.2974L203.581 23.4348H212.795Z" fill="#FAEDC1"/>
<path d="M185.628 22.6683C185.981 23.0227 185.981 23.6079 185.628 23.9623C185.276 24.3167 184.694 24.3167 184.341 23.9623L183.923 23.5419C183.857 23.476 183.751 23.476 183.685 23.5419L183.292 23.9375C182.947 24.2837 182.39 24.3249 182.021 24.0035C181.628 23.6491 181.611 23.0392 181.98 22.6683L182.406 22.248C182.472 22.182 182.472 22.0749 182.406 22.009L181.98 21.5804C181.628 21.226 181.628 20.6408 181.98 20.2864C182.333 19.932 182.915 19.932 183.267 20.2864L183.685 20.715C183.751 20.7809 183.857 20.7809 183.923 20.715L184.341 20.2864C184.694 19.932 185.276 19.932 185.628 20.2864C185.981 20.6408 185.981 21.226 185.628 21.5804L185.21 22.009C185.144 22.0749 185.144 22.182 185.21 22.248L185.628 22.6683Z" fill="#FAEDC1"/>
</g>
<defs>
<clipPath id="clip0_69_136">
<rect width="86" height="25.2941" fill="white" transform="translate(132 6.17651)"/>
</clipPath>
</defs>
</svg>
