<svg width="246" height="74" viewBox="0 0 246 74" fill="none" xmlns="http://www.w3.org/2000/svg">
<path d="M61.6242 45.737C67.1275 51.7677 67.1275 61.5656 61.6242 67.5963C56.1342 73.6415 47.2279 73.6415 41.7247 67.5963L35.1978 60.4267C34.1875 59.3169 32.5658 59.3169 31.5555 60.4267L25.4275 67.1582C20.097 73.0136 11.4167 73.7437 5.78048 68.268C-0.360865 62.3103 -0.573553 52.0013 5.12913 45.737L11.6693 38.5674C12.6795 37.4577 12.6795 35.6616 11.6693 34.5665L5.12913 27.3822C-0.374159 21.3516 -0.374158 11.5682 5.11584 5.52298C10.6191 -0.507661 19.5254 -0.507661 25.0287 5.52298L31.5555 12.7072C32.5658 13.8169 34.2008 13.8169 35.1978 12.7072L41.7247 5.52298C47.2279 -0.507661 56.1342 -0.507661 61.6242 5.52298C67.1142 11.5536 67.1275 21.3516 61.6242 27.3822L55.0974 34.5665C54.0871 35.6762 54.0871 37.4577 55.0974 38.5674L61.6242 45.737Z" stroke="#FAEDC1" stroke-width="1.99333" stroke-miterlimit="10"/>
<path d="M26.7568 42.8895C28.4527 42.8895 29.8275 40.0587 29.8275 36.5668C29.8275 33.0749 28.4527 30.2441 26.7568 30.2441C25.0609 30.2441 23.6862 33.0749 23.6862 36.5668C23.6862 40.0587 25.0609 42.8895 26.7568 42.8895Z" fill="#FAEDC1"/>
<path d="M40.01 42.8896C41.7059 42.8896 43.0807 40.0589 43.0807 36.5669C43.0807 33.075 41.7059 30.2443 40.01 30.2443C38.3141 30.2443 36.9393 33.075 36.9393 36.5669C36.9393 40.0589 38.3141 42.8896 40.01 42.8896Z" fill="#FAEDC1"/>
<g clip-path="url(#clip0_102_3465)">
<path d="M86.1522 54.3295C85.893 53.8236 85.9693 53.4404 86.3352 53.0572L89.7351 49.7615C90.1772 49.3783 90.6194 49.3783 91.0005 49.8228C93.2112 52.8579 96.108 54.5134 100.072 54.5134C104.92 54.5134 108.137 51.9842 108.137 47.8608C108.137 44.2586 105.805 42.925 102.527 41.2082L98.3644 38.9855C93.7601 36.579 90.6803 33.4826 90.6803 28.2862C90.6803 20.8365 96.7331 15.4562 105.042 15.4562C110.15 15.4562 114.358 17.5409 117.071 21.281C117.392 21.7256 117.392 22.1701 116.949 22.6759L113.794 25.849C113.29 26.3548 112.848 26.3548 112.406 25.9103C110.134 23.3811 107.741 21.9862 104.478 21.9862C100.392 21.9862 97.5564 24.1322 97.5564 27.6884C97.5564 30.2176 99.0657 31.7351 102.969 33.7585L106.689 35.7206C110.912 37.9432 115.059 40.6564 115.059 47.1863C115.059 55.3565 108.579 61.0587 99.6298 61.0587C92.952 61.0587 88.1647 57.8857 86.1522 54.3448V54.3295Z" fill="#FAEDC1"/>
<path d="M121.157 46.987C121.157 37.1154 129.345 28.5007 139.483 28.5007C147.792 28.5007 153.464 34.3256 153.464 42.557C153.464 52.4286 145.277 61.0433 135.199 61.0433C126.829 61.0433 121.157 55.2184 121.157 46.987ZM136.022 54.7126C141.938 54.7126 146.847 49.8381 146.847 43.3848C146.847 38.1271 143.508 34.8314 138.599 34.8314C132.683 34.8314 127.774 39.7059 127.774 46.0979C127.774 51.417 131.113 54.7126 136.022 54.7126Z" fill="#FAEDC1"/>
<path d="M160.264 59.3266L163.664 34.6935H160.005C159.441 34.6935 159.12 34.3716 159.181 33.8045L159.685 30.1256C159.746 29.5585 160.127 29.2366 160.691 29.2366H164.411L165.234 23.4117C166.118 17.081 169.961 13.9846 175.998 13.9846C177.446 13.9846 178.651 14.1686 179.779 14.6744C180.282 14.935 180.343 15.1802 180.282 15.6248L179.657 19.9321C179.596 20.3766 179.215 20.438 178.834 20.3766C177.889 20.254 177.202 20.1161 176.501 20.1161C173.223 20.1161 172.278 22.0168 171.973 24.546L171.287 29.2366H177.462C178.026 29.2366 178.285 29.5585 178.224 30.1256L177.721 33.8045C177.66 34.3716 177.279 34.6935 176.715 34.6935H170.54L167.079 59.3266C167.018 59.8937 166.637 60.2769 166.073 60.2769H161.041C160.477 60.2769 160.218 59.8937 160.279 59.3266H160.264Z" fill="#FAEDC1"/>
<path d="M196.474 59.4032V16.8511C196.474 16.2839 196.794 15.962 197.358 15.962H200.316C200.88 15.962 201.2 16.2839 201.2 16.8511V59.4032C201.2 59.9704 200.88 60.2923 200.316 60.2923H197.358C196.794 60.2923 196.474 59.9704 196.474 59.4032Z" fill="#FAEDC1"/>
<path d="M209.57 59.204L224.816 16.7285C224.999 16.2226 225.441 15.962 225.944 15.962H229.405C229.908 15.962 230.351 16.2226 230.533 16.7285L245.841 59.2193C246.1 59.8478 245.841 60.2923 245.139 60.2923H241.999C241.495 60.2923 241.175 60.1083 240.992 59.5259L237.775 50.344H217.62L214.403 59.5259C214.22 60.093 213.9 60.2923 213.336 60.2923H210.256C209.57 60.2923 209.311 59.8478 209.57 59.2193V59.204ZM236.266 46.098L227.698 21.6643L219.129 46.098H236.266Z" fill="#FAEDC1"/>
<path d="M185.74 44.6725C186.396 45.3316 186.396 46.4199 185.74 47.0791C185.085 47.7382 184.002 47.7382 183.347 47.0791L182.569 46.2973C182.447 46.1747 182.249 46.1747 182.127 46.2973L181.395 47.0331C180.755 47.6769 179.718 47.7535 179.032 47.1557C178.3 46.4966 178.27 45.3623 178.956 44.6725L179.749 43.8907C179.871 43.7681 179.871 43.5688 179.749 43.4462L178.956 42.6491C178.3 41.99 178.3 40.9016 178.956 40.2425C179.611 39.5834 180.694 39.5834 181.35 40.2425L182.127 41.0396C182.249 41.1622 182.447 41.1622 182.569 41.0396L183.347 40.2425C184.002 39.5834 185.085 39.5834 185.74 40.2425C186.396 40.9016 186.396 41.99 185.74 42.6491L184.963 43.4462C184.841 43.5688 184.841 43.7681 184.963 43.8907L185.74 44.6725Z" fill="#FAEDC1"/>
</g>
<defs>
<clipPath id="clip0_102_3465">
<rect width="159.948" height="47.0434" fill="white" transform="translate(86 14)"/>
</clipPath>
</defs>
</svg>
