<svg width="136" height="139" viewBox="0 0 136 139" fill="none" xmlns="http://www.w3.org/2000/svg">
<path d="M134.331 121.04C133.411 121.04 132.664 121.827 132.664 122.798C132.664 123.768 133.411 124.555 134.331 124.555C135.252 124.555 135.998 123.768 135.998 122.798C135.998 121.827 135.252 121.04 134.331 121.04Z" fill="white"/>
<path d="M104.483 110.78C103.563 110.78 102.816 111.567 102.816 112.537C102.816 113.508 103.563 114.295 104.483 114.295C105.404 114.295 106.151 113.508 106.151 112.537C106.151 111.567 105.404 110.78 104.483 110.78Z" fill="white"/>
<path d="M125.46 110.78C124.538 110.78 123.792 111.567 123.792 112.537C123.792 113.508 124.538 114.295 125.46 114.295C126.382 114.295 127.127 113.508 127.127 112.537C127.127 111.567 126.38 110.78 125.46 110.78Z" fill="white"/>
<path d="M114.997 121.152C114.077 121.152 113.33 121.939 113.33 122.91C113.33 123.881 114.077 124.667 114.997 124.667C115.918 124.667 116.665 123.881 116.665 122.91C116.665 121.939 115.918 121.152 114.997 121.152Z" fill="white"/>
<path d="M93.9483 135.485C93.0277 135.485 92.281 136.272 92.281 137.243C92.281 138.213 93.0277 139 93.9483 139C94.8689 139 95.6156 138.213 95.6156 137.243C95.6156 136.272 94.8689 135.485 93.9483 135.485Z" fill="white"/>
<path d="M125.45 93.9867C124.529 93.9867 123.782 94.7734 123.782 95.7442C123.782 96.715 124.529 97.5017 125.45 97.5017C126.37 97.5017 127.117 96.715 127.117 95.7442C127.117 94.7734 126.37 93.9867 125.45 93.9867Z" fill="white"/>
<path d="M93.9483 124.569C93.0277 124.569 92.281 125.355 92.281 126.326C92.281 127.297 93.0277 128.084 93.9483 128.084C94.8689 128.084 95.6156 127.297 95.6156 126.326C95.6156 125.355 94.8689 124.569 93.9483 124.569Z" fill="white"/>
<path d="M62.47 110.78C61.5495 110.78 60.8027 111.567 60.8027 112.537C60.8027 113.508 61.5495 114.295 62.47 114.295C63.3906 114.295 64.1373 113.508 64.1373 112.537C64.1373 111.567 63.3906 110.78 62.47 110.78Z" fill="white"/>
<path d="M62.47 131.503C61.5495 131.503 60.8027 132.29 60.8027 133.261C60.8027 134.231 61.5495 135.018 62.47 135.018C63.3906 135.018 64.1373 134.231 64.1373 133.261C64.1373 132.29 63.3906 131.503 62.47 131.503Z" fill="white"/>
<path d="M72.9639 121.152C72.0434 121.152 71.2966 121.939 71.2966 122.91C71.2966 123.881 72.0434 124.667 72.9639 124.667C73.8845 124.667 74.6312 123.881 74.6312 122.91C74.6312 121.939 73.8845 121.152 72.9639 121.152Z" fill="white"/>
<path d="M83.4776 110.78C82.557 110.78 81.8103 111.567 81.8103 112.537C81.8103 113.508 82.557 114.295 83.4776 114.295C84.3982 114.295 85.1449 113.508 85.1449 112.537C85.1449 111.567 84.3982 110.78 83.4776 110.78Z" fill="white"/>
<path d="M93.541 126.668L94.1834 127.185L104.712 112.802L104.07 112.285L93.541 126.666V126.668Z" fill="white"/>
<path d="M94.4714 126.924L93.829 127.441L83.3003 113.058L83.9427 112.541L94.4714 126.924Z" fill="white"/>
<path d="M104.214 112.855L114.712 123.206L115.269 122.58L104.768 112.229L104.214 112.855Z" fill="white"/>
<path d="M125.601 113.075L115.102 123.425L114.545 122.799L125.044 112.449L125.601 113.075Z" fill="white"/>
<path d="M83.4775 112.966H104.484V112.109H83.4775V112.966Z" fill="white"/>
<path d="M93.5327 136.687H94.3457V126.336H93.5327V136.687Z" fill="white"/>
<path d="M125.052 112.062H125.859V96.0857H125.052V112.062Z" fill="white"/>
<path d="M134.164 123.256V122.324H115.13V123.256H134.164Z" fill="white"/>
<path d="M72.6938 122.597L73.2502 123.223L83.7523 112.874L83.196 112.248L72.6955 122.597H72.6938Z" fill="white"/>
<path d="M62.1885 132.944L62.7431 133.57L73.2436 123.221L72.689 122.595L62.1885 132.944Z" fill="white"/>
<path d="M62.1802 112.849L72.6939 123.214L73.2503 122.588L62.7365 112.223L62.1802 112.849Z" fill="white"/>
<path d="M50.9926 39.1818L37.8926 79.6909H47.5603L49.8187 71.6265H59.8473L62.1057 79.6909H71.7734L58.9433 39.1818H50.9926ZM52.1681 63.3764L54.9696 53.4776L57.68 63.3764H52.1681Z" fill="white"/>
<path d="M90.5656 56.2277V45.7799H81.8019V56.2277H72.2236V64.8427H81.8019V75.7491H90.5656V64.8427H100.142V56.2277H90.5656Z" fill="white"/>
<path opacity="0.7" d="M10.8796 66.9918L12.5966 67.5408L26.7811 72.3982V67.8153L17.3849 64.6987L12.5966 66.257L10.8796 66.9902V66.9918Z" fill="white"/>
<path opacity="0.7" d="M3.92236 63.9673L26.7811 54.3447V49.8539L3.92236 59.4765V63.9673Z" fill="white"/>
<path opacity="0.7" d="M110.895 49.8539V54.3447L134.114 63.9673V59.3844L110.895 49.8522V49.8539Z" fill="white"/>
<path opacity="0.7" d="M127.248 66.9014L125.711 66.3508L120.562 64.61L110.895 67.9091V72.3998L125.711 67.3601L127.248 66.9014Z" fill="white"/>
<path opacity="0.7" d="M3.92236 69.8339L26.7811 79.4565V74.9658L3.92236 65.3431V69.8339Z" fill="white"/>
<path opacity="0.7" d="M10.8796 62.4107L12.5966 63.0517L17.3849 64.7021L26.7811 61.403V56.9122L12.5966 61.7696L10.8796 62.4107Z" fill="white"/>
<path d="M3.92236 65.3431L26.7811 74.9658V72.3998L12.5966 67.5425L10.8797 66.9918L12.5966 66.2587L17.3849 64.7004L12.5966 63.05L10.8797 62.409L12.5966 61.7679L26.7811 56.9106V54.3447L3.92236 63.9673V65.3415V65.3431Z" fill="white"/>
<path opacity="0.7" d="M127.248 62.3186L125.711 61.86L110.895 56.9106V61.4014L120.562 64.6083L125.711 62.8676L127.248 62.3186Z" fill="white"/>
<path opacity="0.7" d="M110.895 79.4565L134.114 69.9243V65.3415L110.895 74.9641V79.4549V79.4565Z" fill="white"/>
<path d="M110.895 56.9106L125.711 61.86L127.248 62.3186L125.711 62.8693L120.562 64.61L125.711 66.3508L127.248 66.9014L125.711 67.3601L110.895 72.3998V74.9658L134.114 65.3431V63.969L110.895 54.3463V56.9122V56.9106Z" fill="white"/>
<path d="M11.9841 19.7976C12.8683 19.7976 13.5852 19.0729 13.5852 18.1774C13.5852 17.2819 12.8683 16.5571 11.9841 16.5571C11.1 16.5571 10.3831 17.2819 10.3831 18.1774C10.3831 19.0729 11.1 19.7976 11.9841 19.7976Z" fill="white"/>
<path d="M22.021 29.355C22.9051 29.355 23.6221 28.6302 23.6221 27.7347C23.6221 26.8392 22.9051 26.1162 22.021 26.1162C21.1368 26.1162 20.4199 26.8409 20.4199 27.7347C20.4199 28.6285 21.1368 29.355 22.021 29.355Z" fill="white"/>
<path d="M22.021 44.4023C22.9051 44.4023 23.6221 43.6776 23.6221 42.7821C23.6221 41.8866 22.9051 41.1619 22.021 41.1619C21.1368 41.1619 20.4199 41.8866 20.4199 42.7821C20.4199 43.6776 21.1368 44.4023 22.021 44.4023Z" fill="white"/>
<path d="M22.021 10.2352C22.9051 10.2352 23.6221 9.51049 23.6221 8.61501C23.6221 7.71953 22.9051 6.99478 22.021 6.99478C21.1368 6.99478 20.4199 7.71953 20.4199 8.61501C20.4199 9.51049 21.1368 10.2352 22.021 10.2352Z" fill="white"/>
<path d="M32.1604 19.7926C33.0445 19.7926 33.7615 19.0678 33.7615 18.1724C33.7615 17.2769 33.0445 16.5521 32.1604 16.5521C31.2762 16.5521 30.5593 17.2769 30.5593 18.1724C30.5593 19.0678 31.2762 19.7926 32.1604 19.7926Z" fill="white"/>
<path d="M32.0561 19.7976C32.9403 19.7976 33.6572 19.0729 33.6572 18.1774C33.6572 17.2819 32.9403 16.5571 32.0561 16.5571C31.172 16.5571 30.4551 17.2819 30.4551 18.1774C30.4551 19.0729 31.172 19.7976 32.0561 19.7976Z" fill="white"/>
<path d="M42.209 10.2352C43.0931 10.2352 43.8101 9.51049 43.8101 8.61501C43.8101 7.71953 43.0931 6.99478 42.209 6.99478C41.3248 6.99478 40.6079 7.71953 40.6079 8.61501C40.6079 9.51049 41.3248 10.2352 42.209 10.2352Z" fill="white"/>
<path d="M42.209 29.4721C43.0931 29.4721 43.8101 28.7474 43.8101 27.8519C43.8101 26.9564 43.0931 26.2317 42.209 26.2317C41.3248 26.2317 40.6079 26.9564 40.6079 27.8519C40.6079 28.7474 41.3248 29.4721 42.209 29.4721Z" fill="white"/>
<path d="M52.2839 19.7976C53.1681 19.7976 53.885 19.0729 53.885 18.1774C53.885 17.2819 53.1681 16.5571 52.2839 16.5571C51.3998 16.5571 50.6829 17.2819 50.6829 18.1774C50.6829 19.0729 51.3998 19.7976 52.2839 19.7976Z" fill="white"/>
<path d="M52.2444 3.23879C53.1285 3.23879 53.8455 2.51403 53.8455 1.61856C53.8455 0.723078 53.1285 0 52.2444 0C51.3602 0 50.6433 0.724752 50.6433 1.61856C50.6433 2.51236 51.3602 3.23879 52.2444 3.23879Z" fill="white"/>
<path d="M61.8208 29.1256C62.7049 29.1256 63.4219 28.4009 63.4219 27.5054C63.4219 26.6099 62.7049 25.8869 61.8208 25.8869C60.9367 25.8869 60.2197 26.6116 60.2197 27.5054C60.2197 28.3992 60.9367 29.1256 61.8208 29.1256Z" fill="white"/>
<path d="M90.4166 18.1774C90.4166 17.2836 89.6981 16.5588 88.8139 16.5588C87.9298 16.5588 87.2112 17.2836 87.2112 18.1774C87.2112 19.0712 87.9298 19.7959 88.8139 19.7959C89.6981 19.7959 90.4166 19.0712 90.4166 18.1774Z" fill="white"/>
<path d="M62.397 10.2352C63.2811 10.2352 63.998 9.51049 63.998 8.61501C63.998 7.71953 63.2811 6.99478 62.397 6.99478C61.5128 6.99478 60.7959 7.71953 60.7959 8.61501C60.7959 9.51049 61.5128 10.2352 62.397 10.2352Z" fill="white"/>
<path d="M72.4324 19.7976C73.3165 19.7976 74.0334 19.0729 74.0334 18.1774C74.0334 17.2819 73.3165 16.5571 72.4324 16.5571C71.5482 16.5571 70.8313 17.2819 70.8313 18.1774C70.8313 19.0729 71.5482 19.7976 72.4324 19.7976Z" fill="white"/>
<path d="M72.4324 35.9514C73.3165 35.9514 74.0334 36.6761 74.0334 37.5699C74.0334 38.4637 73.3165 39.1901 72.4324 39.1901C71.5482 39.1901 70.8313 38.4654 70.8313 37.5699C70.8313 36.6744 71.5482 35.9514 72.4324 35.9514Z" fill="white"/>
<path d="M1.60107 16.5839C0.716922 16.5839 0 17.3087 0 18.2042C0 19.0996 0.716922 19.8244 1.60107 19.8244C2.48522 19.8244 3.20214 19.0996 3.20214 18.2042C3.20214 17.3087 2.48522 16.5839 1.60107 16.5839Z" fill="white"/>
<path d="M22.4962 27.7531H21.6882V43.7295H22.4962V27.7531Z" fill="white"/>
<path d="M22.3256 27.4284L12.2407 17.8895L11.7075 18.4669L21.7924 28.0059L22.3256 27.4284Z" fill="white"/>
<path d="M32.4371 18.4703L31.904 17.8928L21.8174 27.4301L22.3505 28.0075L32.4371 18.4703Z" fill="white"/>
<path d="M32.3725 17.8627L22.2875 8.32376L21.7544 8.90122L31.8393 18.4402L32.3725 17.8627Z" fill="white"/>
<path d="M42.4525 8.90458L41.9193 8.32712L31.8328 17.8644L32.3659 18.4418L42.4525 8.90458Z" fill="white"/>
<path d="M42.4574 27.5506L32.3725 18.0117L31.8394 18.5891L41.9243 28.1281L42.4574 27.5506Z" fill="white"/>
<path d="M52.5672 18.5925L52.0341 18.015L41.9475 27.5523L42.4806 28.1297L52.5672 18.5925Z" fill="white"/>
<path d="M52.5507 17.8577L42.4658 8.31874L41.9326 8.8962L52.0175 18.4351L52.5507 17.8577Z" fill="white"/>
<path d="M52.7194 2.21609H51.9114V18.1908H52.7194V2.21609Z" fill="white"/>
<path d="M71.6392 17.7238V18.5406H88.7128V17.7238H71.6392Z" fill="white"/>
<path d="M62.6305 8.89954L62.0973 8.32208L52.0107 17.8593L52.5439 18.4368L62.6305 8.89954Z" fill="white"/>
<path d="M72.7287 17.8543L62.6437 8.3154L62.1106 8.89286L72.1955 18.4318L72.7287 17.8543Z" fill="white"/>
<path d="M1.58276 18.7699H11.6809V17.9799H1.58276V18.7699Z" fill="white"/>
<path d="M72.6344 18.4452L72.1013 17.8677L62.0015 27.4184L62.5346 27.9958L72.6344 18.4452Z" fill="white"/>
<path d="M72.6344 37.3038L72.1013 37.8812L62.0015 28.3306L62.5346 27.7531L72.6344 37.3038Z" fill="white"/>
<path d="M27.339 99.7345L28.1999 102.849H31.2017L26.4565 87.9276H23.8703L19.0339 102.849H22.0357L22.9083 99.7345H27.339ZM23.607 97.2841L25.1584 91.7907L26.6684 97.2841H23.607Z" fill="white"/>
<path d="M33.447 87.1074V89.434H36.732V100.533H33.447V102.849H42.724V100.533H39.5814V87.1074H33.447Z" fill="white"/>
<path d="M46.1265 87.1074V89.434H49.4114V100.533H46.1265V102.849H55.4034V100.533H52.2609V87.1074H46.1265Z" fill="white"/>
<path d="M58.9666 91.7606V94.0872H62.0892V100.535H58.9666V102.851H67.909V100.535H64.9387V91.7606H58.9666ZM61.8872 88.9218C61.8872 89.1411 61.9237 89.3453 61.9982 89.5361C62.0793 89.7202 62.1902 89.8776 62.3326 90.0081C62.475 90.1454 62.6439 90.2508 62.8393 90.3262C63.0429 90.4015 63.2648 90.4383 63.5082 90.4383C64.0082 90.4383 64.4039 90.2977 64.6937 90.0182C64.9917 89.732 65.139 89.3654 65.139 88.9218C65.139 88.4783 64.99 88.1151 64.6937 87.8356C64.4022 87.5477 64.0082 87.4054 63.5082 87.4054C63.2648 87.4054 63.0413 87.4422 62.8393 87.5175C62.6439 87.5928 62.475 87.695 62.3326 87.8255C62.1902 87.9628 62.0793 88.1268 61.9982 88.3176C61.9237 88.5017 61.8872 88.7042 61.8872 88.9218Z" fill="white"/>
<path d="M77.7487 102.849H80.6081V102.675C80.4657 102.396 80.3581 102.061 80.2836 101.671C80.2091 101.281 80.171 100.789 80.171 100.195V95.4396C80.171 94.7968 80.0535 94.2328 79.8167 93.749C79.5799 93.2569 79.2521 92.8502 78.8332 92.5289C78.4143 92.2075 77.9176 91.9648 77.3431 91.8008C76.7751 91.6367 76.1609 91.5547 75.4986 91.5547C74.7618 91.5547 74.1061 91.6501 73.5316 91.8409C72.9637 92.025 72.4835 92.2778 72.0911 92.5991C71.6921 92.9205 71.3875 93.2921 71.1788 93.7156C70.9769 94.139 70.8742 94.5859 70.8742 95.0579H73.6922C73.6922 94.8604 73.7187 94.678 73.7733 94.5156C73.8346 94.3516 73.9257 94.211 74.0465 94.0955C74.1823 93.9666 74.3578 93.8662 74.5731 93.7976C74.79 93.7223 75.0466 93.6854 75.343 93.6854C75.6807 93.6854 75.9754 93.7306 76.2255 93.8193C76.4821 93.9014 76.6957 94.0202 76.8646 94.1775C77.0268 94.3282 77.1477 94.5089 77.2288 94.7198C77.3099 94.9257 77.3497 95.1567 77.3497 95.4161V96.0723H75.7784C74.9671 96.0723 74.2469 96.1476 73.6194 96.2982C72.9968 96.4422 72.4736 96.6531 72.0481 96.9343C71.5746 97.2422 71.2202 97.6339 70.9835 98.1126C70.7467 98.5846 70.6292 99.1269 70.6292 99.7429C70.6292 100.222 70.7235 100.665 70.9123 101.075C71.101 101.479 71.3659 101.827 71.7037 102.121C72.0415 102.416 72.4438 102.644 72.9107 102.808C73.3843 102.972 73.9008 103.054 74.4621 103.054C74.8065 103.054 75.1277 103.02 75.4257 102.952C75.7238 102.89 75.997 102.801 76.247 102.685C76.4904 102.577 76.7139 102.446 76.9159 102.295C77.1179 102.145 77.2984 101.984 77.4523 101.813C77.4871 102.011 77.5268 102.2 77.5732 102.377C77.6212 102.555 77.6775 102.712 77.7454 102.849H77.7487ZM75.0615 100.851C74.7982 100.851 74.5648 100.821 74.3628 100.759C74.1674 100.69 74.0018 100.602 73.8661 100.493C73.7303 100.377 73.626 100.237 73.5515 100.073C73.4836 99.9019 73.4505 99.7178 73.4505 99.5186C73.4505 99.2659 73.4968 99.0332 73.5929 98.8223C73.6873 98.603 73.8329 98.4156 74.0283 98.2582C74.2237 98.1076 74.477 97.9921 74.7883 97.9101C75.0996 97.8214 75.4738 97.7762 75.9142 97.7762H77.3546V99.6826C77.2735 99.8266 77.1626 99.9689 77.0202 100.113C76.8778 100.25 76.7089 100.372 76.5135 100.483C76.3182 100.592 76.098 100.68 75.8546 100.749C75.6112 100.817 75.3479 100.851 75.0631 100.851H75.0615Z" fill="white"/>
<path d="M83.5752 102.849H86.4031V94.9676C86.4975 94.8169 86.6035 94.6797 86.7177 94.5575C86.8336 94.4353 86.9611 94.3282 87.1035 94.2395C87.279 94.1173 87.4777 94.0252 87.7012 93.9633C87.9314 93.9014 88.1814 93.8712 88.4513 93.8712C88.7758 93.8712 89.0672 93.9047 89.3238 93.9733C89.5805 94.0353 89.8007 94.1474 89.9828 94.3114C90.1649 94.4755 90.304 94.7014 90.3984 94.9877C90.4994 95.2672 90.5507 95.627 90.5507 96.0639V102.848H93.3687V96.0221C93.3687 95.2153 93.2743 94.5324 93.0856 93.9717C92.9035 93.4042 92.6452 92.9406 92.314 92.5774C91.9763 92.2225 91.5772 91.9631 91.1186 91.7991C90.6583 91.6351 90.1517 91.553 89.597 91.553C89.1649 91.553 88.7559 91.615 88.3701 91.7372C87.986 91.861 87.63 92.0384 87.3055 92.2694C87.1168 92.4067 86.9379 92.559 86.7691 92.7314C86.6002 92.9021 86.4445 93.0896 86.3021 93.2955L86.13 91.7589H83.5752V102.848V102.849Z" fill="white"/>
<path d="M101.111 100.779C100.657 100.779 100.283 100.687 99.9849 100.503C99.6935 100.319 99.465 100.073 99.2961 99.7647C99.1189 99.4634 98.9981 99.1152 98.9302 98.7202C98.8623 98.3168 98.8292 97.9001 98.8292 97.4699V97.1619C98.8292 96.7384 98.8623 96.3284 98.9302 95.9317C99.0047 95.535 99.1289 95.1835 99.306 94.8755C99.4749 94.5675 99.7051 94.3215 99.9948 94.1374C100.286 93.9533 100.654 93.8612 101.101 93.8612C101.404 93.8612 101.685 93.9164 101.942 94.0252C102.199 94.1273 102.419 94.2679 102.601 94.4454C102.783 94.6228 102.922 94.8353 103.016 95.0814C103.111 95.3274 103.152 95.5869 103.137 95.8597H105.795C105.808 95.2036 105.7 94.6127 105.47 94.0872C105.24 93.5549 104.919 93.0996 104.507 92.7247C104.088 92.3565 103.591 92.0686 103.016 91.8644C102.442 91.6585 101.816 91.5564 101.141 91.5564C100.296 91.5564 99.5527 91.7037 98.9103 91.9966C98.2745 92.2912 97.7414 92.6895 97.3076 93.195C96.8755 93.7005 96.5509 94.2947 96.334 94.9776C96.1188 95.6538 96.0095 96.3819 96.0095 97.1602V97.4682C96.0095 98.2465 96.1188 98.978 96.334 99.6609C96.5576 100.337 96.8854 100.928 97.3175 101.433C97.7447 101.939 98.2778 102.339 98.9203 102.632C99.5627 102.92 100.309 103.062 101.16 103.062C101.79 103.062 102.384 102.963 102.945 102.764C103.513 102.56 104.01 102.279 104.435 101.924C104.861 101.569 105.197 101.146 105.439 100.653C105.69 100.161 105.808 99.6291 105.795 99.055H103.137C103.152 99.3144 103.104 99.5504 102.997 99.763C102.894 99.9756 102.75 100.156 102.56 100.307C102.371 100.458 102.151 100.573 101.901 100.655C101.651 100.737 101.387 100.777 101.111 100.777V100.779Z" fill="white"/>
<path d="M114.254 103.055C115.315 103.055 116.234 102.848 117.012 102.429C117.789 102.013 118.357 101.547 118.714 101.035L117.305 99.4968C116.981 99.9203 116.559 100.238 116.039 100.451C115.517 100.663 114.981 100.769 114.426 100.769C114.034 100.769 113.673 100.707 113.342 100.585C113.01 100.463 112.716 100.287 112.459 100.063C112.209 99.8433 112.01 99.6006 111.861 99.3345C111.712 99.0617 111.59 98.7018 111.495 98.2582V98.2281H118.938V97.018C118.938 96.2045 118.827 95.463 118.603 94.7935C118.38 94.1173 118.055 93.5398 117.63 93.0611C117.198 92.5824 116.669 92.2142 116.049 91.9547C115.433 91.6886 114.731 91.5547 113.939 91.5547C113.148 91.5547 112.469 91.6953 111.82 91.9748C111.171 92.2543 110.61 92.6477 110.138 93.1532C109.664 93.6587 109.295 94.2629 109.032 94.9676C108.768 95.6639 108.636 96.4371 108.636 97.2841V97.6942C108.636 98.439 108.768 99.1386 109.032 99.7948C109.303 100.444 109.684 101.008 110.177 101.485C110.671 101.971 111.262 102.352 111.952 102.634C112.641 102.913 113.409 103.054 114.254 103.054V103.055ZM113.921 93.8612C114.279 93.8612 114.593 93.9198 114.863 94.0353C115.141 94.1441 115.375 94.2947 115.563 94.4855C115.752 94.683 115.901 94.9157 116.009 95.1818C116.118 95.4479 116.171 95.7325 116.171 96.0321V96.2581H111.548C111.616 95.8965 111.717 95.5685 111.853 95.2739C111.987 94.9793 112.156 94.7265 112.36 94.5156C112.555 94.3031 112.785 94.1441 113.048 94.0336C113.312 93.9181 113.603 93.8595 113.921 93.8595V93.8612Z" fill="white"/>
</svg>
