<svg width="179" height="76" viewBox="0 0 179 76" fill="none" xmlns="http://www.w3.org/2000/svg">
<path d="M43.5387 40.3693H32.1855V46.7618H43.5387V40.3693ZM34.6897 44.7795C34.0533 44.7795 33.5411 44.2576 33.5411 43.6244C33.5411 42.9912 34.0533 42.4789 34.6897 42.4789C35.3261 42.4789 35.8384 42.9912 35.8384 43.6244C35.8384 44.2576 35.3261 44.7795 34.6897 44.7795ZM37.8844 44.7795C37.2512 44.7795 36.7389 44.2576 36.7389 43.6244C36.7389 42.9912 37.2512 42.4789 37.8844 42.4789C38.5176 42.4789 39.0331 42.9912 39.0331 43.6244C39.0331 44.2576 38.5208 44.7795 37.8844 44.7795ZM41.13 44.7795C40.5 44.7795 39.9845 44.2576 39.9845 43.6244C39.9845 42.9912 40.5 42.4789 41.13 42.4789C41.76 42.4789 42.2818 42.9912 42.2818 43.6244C42.2818 44.2576 41.7695 44.7795 41.13 44.7795Z" fill="white"/>
<path d="M57.3579 33.2099L57.6506 31.6126L57.3897 28.1538L56.5115 25.0896L55.1974 22.5949L53.8832 21.2331L51.955 18.5252L50.3799 17.3861L48.4994 16.3329L46.0907 15.7156L42.9819 15.0187L40.4427 15.5056L36.9808 16.4633L34.2666 18.0002L33.802 18.1816C35.1098 17.9048 36.4716 17.7648 37.8622 17.7648C37.929 17.7648 37.9894 17.7743 38.0531 17.7743L39.609 16.9915L41.5373 16.6415L44.1624 16.6002L46.132 17.157L47.9234 17.7393L49.0626 18.4711L50.1158 19.4003L51.7768 20.5744L52.5659 21.7135L53.5714 23.12L54.7551 24.8732L55.191 26.2701L55.6301 27.7624L55.9356 29.1593V29.1752C56.5497 30.4512 57.0238 31.8067 57.3547 33.2131L57.3579 33.2099Z" fill="white"/>
<path d="M52.5977 24.24L52.219 23.5081L51.2135 22.1558L49.7244 20.533L47.4461 19.0916L45.1265 18.3375L42.67 17.997L41.9541 18.1816C46.1224 19.0502 49.8135 21.2139 52.5977 24.2368V24.24Z" fill="white"/>
<path d="M31.1132 18.7353L32.0327 17.6852L33.1687 16.8961L35.5774 15.6265L37.4166 14.4524L39.1666 14.1024L41.394 13.6601L43.2809 13.6155H45.2092L47.3538 14.2297L49.632 15.2351L51.2517 16.1993L52.5244 17.3352L53.7049 18.8721L54.7104 20.0558L56.1996 22.5504L57.2942 24.606L57.9083 26.2319L58.3887 28.2015L58.6083 30.2189L58.8279 33.1463L58.7388 34.0659L57.8224 35.2909L57.7492 35.4723C57.8383 36.2296 57.8924 37.0155 57.8924 37.7919C57.8924 38.0019 57.8828 38.2151 57.8733 38.4188L58.4333 36.9582L58.8692 36.395L59.0888 36.6973L59.1301 37.6201L58.9138 38.8006L58.6942 39.8506L58.2583 40.9866L57.8637 42.0398L57.2242 42.918C56.4541 45.8263 55.0477 48.4737 53.164 50.7074L54.23 49.9692L55.2386 49.126L56.5528 47.3791L57.4692 46.0236L58.6942 44.8431L59.5279 41.9507L59.8365 39.6311L60.3138 36.9201L60.2725 34.8613L60.3584 32.3158L60.2279 30.1266L60.0529 27.807L59.4865 25.8374L58.6529 23.6896L57.6474 22.0731L56.6832 19.8394L55.8941 18.3471L53.4886 15.9479L51.9962 14.8947L50.5039 14.1469L49.1484 13.4087L47.8788 12.9728L46.0396 12.4L44.4614 12.0946L42.2754 12.225L40.1276 12.7087L37.8525 13.1001L36.0579 13.6728L33.9992 14.4174L32.86 15.7793L30.76 17.0902L29.6208 18.6685L28.4785 20.1162C29.2708 19.693 30.0981 19.3239 30.9541 19.0057L31.11 18.7544L31.1132 18.7353Z" fill="white"/>
<path d="M37.8618 56.559C48.2127 56.559 56.6353 48.1427 56.6353 37.7887C56.6353 27.4347 48.2127 19.0216 37.8618 19.0216C27.511 19.0216 19.0916 27.4442 19.0916 37.7887C19.0916 48.1332 27.5141 56.559 37.8618 56.559ZM31.5838 32.3794C31.5838 28.9143 34.3999 26.1014 37.8618 26.1014C41.3238 26.1014 44.143 28.9143 44.143 32.3794V35.9336H41.3079V32.3794C41.3079 30.4798 39.7646 28.9334 37.8618 28.9334C35.959 28.9334 34.4221 30.4798 34.4221 32.3794V35.9336H31.5838V32.3794ZM29.4647 37.6487H46.2621V49.4792H29.4647V37.6487Z" fill="white"/>
<path d="M72.8888 49.2533L72.5356 48.2096L71.4888 45.9759L71.2692 43.9617L71.1801 42.7367L70.2605 41.2952L69.7355 40.0638L69.6464 38.4029L69.2964 35.9878V34.2854L68.4214 32.4017L68.2909 31.4376L68.1159 29.9071L67.4604 29.4712L66.98 28.8125L66.7159 27.4983L66.1463 26.8015L65.1408 25.5765L64.5744 24.7428L63.7407 23.1264L62.8212 21.8568L62.2516 20.7208L61.1125 19.3558L59.6233 17.3925L58.3537 16.5143L57.2178 15.5947L56.0341 14.3633L54.459 13.3133L53.0971 12.1773L51.3057 11.2132L49.597 10.5959L48.1938 10.2904L46.8383 9.85449H46.1382L44.5123 9.54903L41.6676 9.76858L40.1371 9.81313L38.1675 10.2904L36.5479 11.1177L34.4478 11.5632L33.0446 12.1296L31.6445 12.8742L30.114 13.9274L27.9216 15.6743L27.1325 16.4634L26.2129 17.0298L25.1215 17.9493L23.4128 19.2635L21.7041 21.0549L20.6095 22.2863L19.7759 23.7723L18.9899 24.8732L18.1149 26.2288L16.979 27.982L16.9344 29.0766L16.5398 30.2157L15.3116 31.4376L14.2648 32.6213L13.0365 34.4604L12.5561 35.7809L12.1169 37.216L11.6778 38.3169L11.0637 39.6788L10.3637 40.1116L9.79413 40.7257L9.0941 42.0812L8.74091 43.4335L8.47999 44.3626L7.95179 45.4572L7.1213 47.3791L6.41809 48.6964L5.80398 50.1379L4.97031 51.7256L3.92027 53.3389L3.68799 54.1885C3.97118 54.7803 4.27028 55.369 4.58848 55.9353L5.15168 54.6944L5.54306 53.6857L6.02671 52.5975L6.94311 52.0311L7.46813 50.717L8.12361 48.6614L8.0377 47.6528L8.99865 45.8104L9.43457 45.4222L9.91823 44.1017L10.3542 42.8767L10.7073 41.7407L10.7487 40.9039L11.0096 40.8689L11.1433 41.4766V42.5298L10.9237 43.4876L10.5323 44.6713L10.1823 45.7659L9.96277 47.1659L9.56821 48.4323L9.52367 49.7019L8.73454 51.0224L8.29862 52.6389L7.81815 53.6093L7.07357 54.5226L6.81265 55.5662L6.19854 56.5749L5.32351 56.8804L5.19941 57.0172C5.5176 57.5581 5.84853 58.0863 6.19536 58.6082L6.28445 58.5032L7.37904 57.6281L7.7736 56.7086L8.16498 55.614L8.38453 54.5194L8.64545 53.2498L9.43139 52.0693L10.0901 51.452L10.876 50.316L11.1846 49.091L11.4933 46.8509L11.8433 45.3649V43.844L12.327 42.568L12.416 41.1234L12.9411 39.4147L13.4215 37.9701L14.0388 36.3473L15.1748 33.7222L15.5248 33.019L15.7889 33.1495L15.7475 33.7222L15.3975 35.0841L14.9584 36.3505L14.7389 37.706L14.3443 39.0615L13.9497 39.7647L13.6475 40.7289L13.3388 41.693L12.8583 42.6985V43.6181L12.7692 44.8495L12.5911 45.855L12.4192 46.9941L12.1106 48.6614L11.8465 50.0583L11.8019 51.0638L12.1519 52.0788L12.4574 53.2593L12.5465 55.1812L12.8552 56.3649L13.5106 57.2845L13.5997 58.0736L14.1629 58.8182L15.4325 59.1236L16.3553 60.1291L16.9694 60.4855L17.4499 60.0496L17.189 59.2096L16.4889 58.3854L15.3021 57.8572L14.5161 56.6736L14.1216 55.5726V54.2712L14.077 52.6452L13.7684 50.3701V48.5214L13.8129 46.2559L13.9911 44.2385L14.2934 42.5298L14.6434 42.7462L14.7739 44.0603L14.7293 46.1159L14.9489 48.5214L14.9966 50.1028L15.2989 52.3366L15.3434 54.9171L15.6966 56.0181L16.8803 57.1922L17.7108 58.5064L18.9836 59.8682L20.5141 61.2683L22.4837 62.6142L24.6729 64.0238L26.9957 65.5162L28.9653 66.7858L30.5404 67.2217L31.3295 68.0108L32.6436 68.7554L36.061 69.3281L38.2948 70.5023L39.9144 71.5969L41.4926 71.8641L43.5927 72.4369L45.696 72.5673L48.2351 72.211L50.9525 71.7782L54.1058 70.2827L55.8591 69.239L57.7841 68.5772L59.4451 67.3967L61.8538 65.9489L63.8235 63.9347L65.1822 63.8043L65.7708 63.432C68.6187 60.3328 70.9574 56.7595 72.6534 52.8425L72.7997 52.3366L72.9302 50.6279L72.8856 49.2628L72.8888 49.2533ZM64.1735 61.561L63.1234 62.7001L62.3375 63.5784L60.7147 64.762L59.0951 65.9362L56.3332 67.3362L54.4972 67.8644L53.094 68.4817L51.9135 69.3154L49.6829 70.3209L47.446 70.6264L44.91 70.6614L41.8872 70.5818L39.698 69.7481L37.6425 68.9208L34.2696 67.4731L32.1282 66.5503L30.5022 65.8057L28.0521 64.4948L24.902 62.4361L22.6237 60.6383L21.265 59.4132L20.2595 58.0132L18.9931 56.5686L18.204 55.3435L17.7203 54.338L17.154 53.5457L16.5844 50.8347L16.2757 49.4346L16.1453 47.2041L16.1007 45.1867L15.9703 42.9976V41.6007L16.0148 40.767L16.1485 38.702L16.8039 36.6464L17.1126 35.1159L17.329 33.4486L17.4181 32.4399L17.7235 30.518L18.6017 28.5484L19.0377 27.142L20.1736 25.4396L21.3605 23.9091L21.9714 22.7286L22.7637 21.9363L23.8551 20.4885L25.3443 18.7767L26.3084 18.3407L26.3975 19.0503L25.3029 20.8831L24.5106 22.1591L23.2856 23.4732L21.7519 25.3951L21.0327 26.967C22.4201 24.8192 24.2083 22.945 26.2925 21.4686L26.4389 21.1026L27.3139 19.2253L28.2335 17.9493L28.8921 16.9439L31.5618 14.6242L33.2291 13.3992L35.4628 12.6101L38.0052 11.6459L39.8857 11.1655L42.164 10.6818L45.5337 10.6404L48.0315 11.56L50.3511 12.6546L52.2348 13.7492L53.899 14.5765L55.2577 16.0688L56.9187 17.5516L57.8446 19.8808L58.5414 21.6722L59.5501 24.5614L60.5588 26.006L60.9056 27.3679L61.3861 29.0257L61.5166 31.7431L61.647 32.844L61.2556 33.894L61.4306 36.0323L61.0393 38.9311L60.6893 40.5475L60.2947 42.4757L59.7251 44.1367L58.8533 45.6736L58.2837 47.115L56.6609 48.6932L55.6554 49.9183L54.7359 50.6661L53.6413 51.6747L52.238 52.5434L51.3821 52.5784C50.7107 53.1957 50.0011 53.7589 49.2534 54.2744L49.6097 54.3412L51.7989 54.3762L53.6794 53.5139L55.4772 52.3748L56.75 51.1911L58.1469 49.791L59.7697 47.9582L60.4665 46.415L62.0034 41.4702L62.6143 39.0202L62.3948 35.7873L62.6143 33.019L62.8784 31.0048L62.5698 27.807L62.2198 26.0601L61.1252 23.6037L60.4283 22.0731L59.4642 20.4122L58.3696 18.9644L58.5446 18.4425L59.1174 18.7448L60.037 19.534L61.2206 21.1567L62.0957 23.26L63.0153 24.6569L63.3239 25.2742L63.5435 26.8524L63.7216 28.8666L64.3771 30.273L63.8521 32.4526L63.9826 34.1645L63.5021 36.9264L63.7248 38.9406L63.2825 41.3875L62.8434 43.1408L62.2739 45.1549L61.5738 46.8636L58.5955 51.2929L57.2814 52.3429L55.9227 53.3071L54.3922 54.2266L53.4281 55.1462L51.8944 55.4931L50.5357 55.7603L47.7388 55.8494L46.9592 55.6585C46.1669 56.069 45.3396 56.4222 44.4932 56.7181V56.7245L46.2942 56.9408L48.0442 57.2909L50.4561 57.4213L53.0399 56.8104L54.2617 55.9322L55.4041 55.2735L56.8041 54.3189L57.1987 54.3953L56.9791 54.7071L55.8877 56.1135L54.1758 56.8963L52.7312 57.6854L50.9812 58.4332L48.617 59.0505L46.7778 58.7386L45.2473 57.9559L43.8027 57.469L42.9977 57.1827C42.094 57.4245 41.1585 57.5995 40.2071 57.7109L41.1299 58.1691L42.7018 58.9168L45.0246 59.6614L46.6919 60.1387L48.792 60.5873L50.4593 60.406L51.9007 59.9287L53.1703 59.3559L54.4431 58.6973L55.5791 57.87L56.8041 56.8645L57.8987 55.4581L59.3433 53.8353L60.7911 52.3938L61.4466 50.421L62.4934 48.321L62.8434 46.9209L63.5466 45.5209L64.2467 43.8122L64.7271 42.2307L64.8162 40.4838L64.8608 38.4665L64.8162 36.5828L64.6444 35.2305L64.8162 34.1772L65.2967 34.2218L65.5163 35.0491L65.6054 36.6719L65.7358 38.2501L65.9585 39.5643L65.914 40.9166L65.564 42.7589L65.6054 44.2035L64.8608 45.1231L64.2912 46.485L63.5466 48.1014L63.0216 49.5015L62.4521 50.7265L62.2802 51.6047L61.4052 52.3016L60.7083 53.6984L59.6106 54.8439L58.8246 55.719L57.5964 57.119L56.5909 58.3027L55.5377 59.1809L53.8735 60.1355L52.2985 60.7528L50.2843 61.5801L49.0561 61.7169L46.6474 61.6278L45.2473 61.106L44.0636 60.7051L42.1799 59.83L40.3853 59.0918L38.9821 58.2582L38.0943 57.8477H37.8938C37.0665 57.8477 36.2488 57.7872 35.4437 57.6886L36.9679 58.8277L39.0266 60.2278L40.6049 60.8896L42.0049 61.6278L43.9777 62.0701L46.2083 62.767L48.1811 63.3397L49.3616 63.1202L50.542 62.7224L52.168 62.3247L53.8322 61.3701L55.1018 61.0137L56.3268 60.3996L57.2464 58.8723L58.8692 57.2909L59.4801 56.7245L60.5302 56.1963L61.4943 55.1876L62.4107 53.4407L63.2444 51.9961L64.4249 49.6796L64.9944 47.6146L65.3444 45.9536L65.7835 45.4731L66.1336 46.2177L66.0476 47.6655L65.7835 49.4187L65.2999 50.7742L64.7303 51.9547L64.4662 53.0493L63.6357 54.3253L62.9357 55.369L61.577 56.8995L60.4793 57.6027L58.5987 58.6559L57.8987 59.6137L55.84 61.3701L54.5258 62.1974L52.4258 63.117L50.3225 63.8138L47.6497 64.0811L45.505 63.9061L42.8768 63.0788L40.9071 62.1497L38.893 61.6787L36.5288 60.2723L34.5146 58.7418L32.7996 57.1954C31.2309 56.7722 29.7417 56.1867 28.3417 55.4167L29.5667 56.8995L30.6613 58.1245L32.1918 59.4005L33.3341 60.4951L34.0787 61.106L36.0897 61.281L37.7507 62.4615L39.0202 63.2443L40.5985 63.6866L42.4376 64.167L43.7963 64.7843L46.9878 65.7898L48.302 65.7039L49.6607 65.618L50.8412 65.3921L51.8912 65.0898L52.9444 64.7843L53.8195 63.9061L55.089 63.117L56.0977 62.242L57.8064 61.0105L59.0283 60.0019L59.8651 59.1268L61.0488 58.9105L61.7488 57.9909L63.5435 56.5049L64.638 54.9235L65.3349 53.2211L66.2099 51.5124L66.6968 49.5778L66.7859 47.3027L66.6968 44.9767L66.4772 43.4908L67.0022 41.5689L67.0881 38.546L67.1772 36.8373L67.0022 35.52L66.5186 34.2504L65.8185 32.4113L65.4272 31.0558L65.1185 30.133L64.9467 28.3861V27.0751L65.4303 27.2056L66.0445 28.8666L66.4358 30.0471L67.05 31.6731L67.2695 32.9395L67.9727 34.295L68.2305 35.7014L68.3195 37.3146L68.5391 38.8929L68.0141 40.7798L68.1032 42.0494L68.1923 44.2385L67.9314 46.4245L67.7118 48.1778L67.6259 49.5396L67.4063 50.9015L67.1422 51.6906L66.7922 52.6898L67.1836 53.7398L68.0586 53.6189L68.3641 52.5593L69.1087 50.3288L69.0196 48.2255L69.1087 45.6895V43.9426L68.8 42.6667L69.0641 40.6875L69.586 40.9993L69.936 42.5807L70.3274 43.9776V46.2113L70.111 47.8278V49.1037L69.8055 51.2929L69.4555 52.9952L68.7523 53.9594L68.1382 55.4899L67.6577 56.8549L66.824 58.0768L65.5099 59.8746L64.1989 61.5769L64.1735 61.561ZM72.0583 52.152L71.7497 52.8489L71.2247 54.0325L71.1833 55.3021L69.9583 56.6195L69.4332 57.6631L68.8159 59.0696L67.5941 60.6414L66.1017 61.9556L65.1853 62.1274L65.8408 61.0392L66.0572 60.2501L66.8909 59.2859L67.68 58.6718L68.1191 57.4913L69.1246 56.0913L69.8246 55.0412L70.0028 53.5107L70.5215 52.1966L70.916 50.4879L71.1833 49.2119L71.4474 48.6487L72.0138 49.4315L72.1029 50.6151L72.0583 52.1457V52.152Z" fill="white"/>
<path d="M48.1049 68.6185H45.5625L42.7179 68.2653L40.4841 67.4762L39.2591 67.1707L37.3754 66.1621L36.2808 65.3729L34.7917 64.8511L33.3916 63.4956L32.2525 61.2142L30.6329 60.075L28.8319 58.0163L27.0818 55.9576L26.0763 54.8216L25.3636 53.4343C23.4417 51.8974 21.8093 50.0105 20.5588 47.8659L21.0393 49.826L22.0448 51.9738L23.0535 53.6411L23.9285 55.3435L24.9786 56.5685L26.0763 58.0609L27.6068 59.4164L29.4014 60.9946L30.4069 61.9142L31.0211 62.7033L31.9406 63.537L33.032 64.0174L33.3407 64.8925L33.6907 65.7707L35.1385 66.423L36.7135 67.3871L38.1168 67.6067L39.1223 68.224L40.2614 69.0513L41.9256 69.3186L43.5006 69.7513L45.5148 69.8818L47.7931 69.7513L49.3681 69.6654L50.3768 69.4045L50.4627 68.399L49.5877 68.2621L48.0985 68.6153L48.1049 68.6185Z" fill="white"/>
<path d="M30.6326 63.4956L28.7902 62.0478L27.3011 60.7719L25.5033 58.8023L24.1446 57.7077L23.0086 56.5335L21.6499 54.5162L21.0804 52.9793L20.2053 51.6747L19.6803 50.666L19.3749 48.4259L19.1108 47.0736L18.8021 44.6617V43.9649C18.1848 42.0716 17.8507 40.0543 17.8284 37.9637L17.7934 38.0878L17.4912 40.3661L17.2271 43.3889L17.3575 45.0117L17.4466 46.4563L17.5771 48.5564L18.0607 49.9978L18.1912 51.5793L18.7576 53.1098L19.4162 54.3698L20.0717 55.8653L21.6945 57.6186L22.5695 58.9741L23.7946 59.9382L25.4142 61.1187L26.6392 62.0415L27.9979 62.961L29.3121 63.9188L30.1012 64.6666L31.2371 65.4111L32.2013 66.0253L32.5099 65.4589L32.1599 64.7111L30.6294 63.4924L30.6326 63.4956Z" fill="white"/>
<path d="M10.7106 57.5803L10.9683 55.9576L11.3661 54.5161L11.627 53.5456L11.277 52.6324L10.5324 52.502L10.0933 52.8933L9.91829 53.8575L9.78784 54.9075L9.52373 56.7053L8.60734 58.1913L7.4682 59.5913L7.10864 59.9286C7.37911 60.3041 7.65594 60.6764 7.94231 61.0423L8.16823 60.5618L8.65188 59.5531L10.0965 58.9359L10.7138 57.5803H10.7106Z" fill="white"/>
<path d="M11.4517 58.764L12.0213 58.8945L12.505 58.4999V57.8444L12.2377 57.0967H11.8463L11.4517 57.5803L11.3213 58.2835L11.4517 58.764Z" fill="white"/>
<path d="M74.378 45.8422L73.7638 44.4453L73.1943 42.4279L72.5802 40.1083L72.227 37.7441L71.5301 36.1659L71.3997 33.6299V32.2235L70.6551 30.4766L69.6941 28.3288L68.9496 26.4451L67.9441 25.1341L66.9322 23.3427L65.3572 21.1885L63.9126 18.7766L62.7321 17.472L61.5897 16.1101L59.6201 14.271L58.0482 12.9154L54.4558 10.3731L51.9135 9.02075L49.8547 8.05026L47.3601 7.08613L43.8122 6.12837L41.2731 5.8229L38.8198 5.55562L37.2002 6.12837L34.6133 6.37974L32.1632 7.65888L29.0099 8.83938L27.6957 9.67305L25.5034 10.9872L23.5815 12.2091L22.1782 13.3546L20.9946 14.0069L19.7695 15.7092L16.7499 18.9548L15.3912 20.4471L13.3324 22.5472L11.576 24.4818L9.17047 27.0178L8.29544 27.6701L7.37586 28.9461L5.66716 31.743L4.52802 33.2735L2.94978 35.6377L0.760606 39.1028L0.0478516 40.2769C0.0987626 41.1297 0.184675 41.9793 0.299225 42.8193L1.02471 41.9061L1.99202 40.2801L2.60613 38.8387L3.25843 37.3527L3.87254 36.2518L4.88122 35.1572L5.84535 34.1072L6.89539 32.3603L8.07907 30.7375L9.2182 29.0256L9.96278 27.5428L11.1465 26.4419L11.9769 25.4841L13.6443 24.3895L14.8248 23.5495L15.9194 22.1526L17.7999 20.2244L18.7227 18.9134L20.0782 17.4688L20.74 16.2883L21.3541 15.1937L22.0541 14.185L23.6324 13.3959L25.0738 12.7436L27.088 11.5981L28.3576 10.4622L29.1912 9.40895L31.8641 8.75665L34.1391 8.01208L36.7229 7.0034L39.1348 6.73612H41.4067L42.199 7.26432L41.6294 7.87843L40.3153 8.05344H39.2207L37.3402 8.31436L35.7651 8.75665L34.101 9.27849L32.5227 9.80669L30.9477 10.284L28.803 11.5981L27.2248 12.96L25.9997 14.01L24.377 14.8851L23.416 15.9383L21.8378 17.2429L20.8323 18.0861L19.2572 19.8775L17.8094 21.2744L17.329 22.369L16.0626 23.6386L15.6648 24.5963L15.3562 25.5668L14.7007 26.8364L14.0866 28.0169L13.6093 29.2865L13.0811 30.5116L13.9147 30.7311L15.0539 30.2093L16.0626 27.8833L16.9376 25.3886L18.1626 23.5018L18.6463 22.5885L20.2659 21.0962L21.6278 19.343L22.8528 18.032L24.3833 16.5397L26.267 15.2733L27.2725 14.1278L28.2812 13.4341L29.554 12.4286L32.8823 10.7613L35.0715 9.96897L38.0052 9.01439L40.8085 8.7471L43.214 8.22527L45.3619 8.13617L46.4119 8.26027L48.337 9.04939L49.8229 9.36122L51.3153 9.88306L52.8903 10.4972L53.4153 11.2449L55.035 12.4286L56.1327 13.1668L57.8828 14.7387L58.9774 15.6169L60.8165 17.2333L61.9111 18.6398L62.7862 20.0875L64.1417 21.268L64.8003 22.9354L66.0285 24.065L67.034 25.5605L67.5591 26.3496L68.2591 28.2365L69.0482 29.8497L69.5287 31.2116L69.9678 32.5226L70.4483 36.0736L70.6678 37.4737L70.846 39.2714L71.8101 41.0247L72.5515 42.7716L72.9493 45.489L73.5602 47.1977L74.1552 48.7632C74.2761 48.3654 74.3875 47.9709 74.4957 47.5731L74.1298 47.0672L74.3907 45.8358L74.378 45.8422Z" fill="white"/>
<path d="M74.992 38.441L74.4225 36.9964L73.8943 36.0832L73.6333 35.0777L73.5029 34.0627L72.7583 33.2735L72.3224 33.1017L72.2301 34.5018L72.9365 35.6377L73.0256 36.9932L73.7256 38.1737L74.3365 39.7106L74.9061 41.728L75.4025 43.0039C75.5361 42.0302 75.6348 41.0407 75.6921 40.0511L75.5202 39.6756L74.9984 38.441H74.992Z" fill="white"/>
<path d="M5.14843 21.5831L6.37347 19.9158L7.64307 18.5602L8.8713 17.4211L10.4464 16.2406L11.455 14.6687L12.8996 13.2209L14.4715 12.3873L16.3998 10.8059L18.2389 10.0231L19.5976 9.10988L22.0477 7.78938L23.8423 6.65343L26.9956 5.20246L28.7457 4.19697L30.5849 3.01647L32.9936 2.49463L34.7882 1.88052L37.8969 1.70551L40.0861 1.26322L42.934 1.57505L46.4818 2.0078L48.7601 2.8001L51.6493 3.85014L54.0612 5.29792L56.5113 7.08935L59.3146 8.71214L61.3733 10.5895L63.082 11.9959L64.218 13.9655L66.2767 15.8047L67.6354 17.6438L69.255 19.9189L70.9637 22.4199L72.8505 24.4373L73.9229 26.1046C73.2642 24.0745 72.4433 22.1272 71.4728 20.2753L71.4028 20.1862L70.3973 18.9612L68.8636 17.2493L67.6831 16.1992L66.5471 14.9806L65.3189 13.7969L64.0939 12.3046L63.9634 11.7413L65.3221 12.2696L66.5503 13.5391L67.4731 14.1405C66.4612 12.8741 65.373 11.6809 64.2116 10.5545L63.0024 10.1631L61.2078 8.97306L59.585 7.58255L57.8795 6.22705L54.898 4.64562L53.3262 3.23921L52.2443 2.72691C49.8451 1.74688 47.325 0.99912 44.7095 0.518648L42.5553 0.26091L39.4466 0.00635529L35.9401 0.528193L31.7813 1.58142L30.1585 2.14462L28.0138 3.23921L26.4833 3.98378L24.9051 4.55016L22.5409 5.87067L18.2071 8.01848L16.3234 9.41535L14.0038 11.1177L12.3364 12.2186L10.1886 14.2328L9.3104 15.1524L8.56583 15.9447L7.16578 17.2111L6.11574 18.5666L5.15479 19.6676L4.75705 20.1894L4.26703 20.2689C3.79292 21.1726 3.35063 22.1017 2.94971 23.05L3.48745 22.5536L5.15479 21.5895L5.14843 21.5831Z" fill="white"/>
<path d="M67.0211 55.7857L67.4157 54.863L66.9766 54.2616L66.2765 53.9434L65.4015 55.1302L64.6983 56.2694L63.9983 57.7999L62.9928 58.3281L61.1091 59.464L59.8426 60.2913L58.6558 61.475L57.3448 62.4869L55.5884 63.836L54.6752 64.7142L53.4024 65.5988L52.1742 65.9393L50.1186 66.5534L48.9795 66.5979H47.6654L46.1762 66.3816H44.9066L43.812 66.162L42.4979 65.8502L41.3588 65.4174L40.1783 64.9815L38.5555 64.1479L37.0695 63.5337L36.2327 62.8783L35.2303 62.1305L34.3967 61.8728L34.1326 62.226L34.4412 63.1837L35.1412 64.0174L36.5413 64.0619L37.8586 65.2838L39.6087 66.1175L41.0533 66.6552L42.8924 67.1707L43.987 67.3425L46.1348 67.648L48.8936 67.7371L50.3382 67.6066L51.5219 67.9535L53.0937 67.5621L54.1024 66.9098L55.197 66.2511L56.158 65.1979L56.5557 64.5901L57.4753 63.9283L58.4808 62.7478L59.4449 62.2641L60.9786 61.2618L61.6309 60.4282L62.1591 60.3804L62.07 60.9086L61.5036 61.6564L60.409 62.3055L59.6167 63.0087L58.8753 63.7597L57.5198 64.4979L56.8166 64.937L56.2502 65.5447L56.3807 66.3307H57.1666L58.7894 65.112L60.234 63.9283L61.8091 62.786L62.9037 61.6564L63.7373 60.7718L64.2624 59.7695L65.1819 58.5826L66.1842 57.1826L67.0211 55.7857Z" fill="white"/>
<path d="M37.8586 75.3165L35.889 74.9156L34.2216 74.7502L32.3825 74.1329L31.2879 73.2578L30.3238 72.1569L29.7542 71.5078L28.7423 71.1959L27.8673 70.3209L26.2922 69.5731L25.0258 69.0004L23.403 67.9504L22.4389 67.6958L21.6116 67.0785L20.5584 66.2512L19.3302 65.4621L17.7933 64.587L15.7378 63.7597L14.7291 63.4034L13.0649 63.2665L11.1812 63.1806L9.91162 63.3811C10.3698 63.8838 10.8407 64.3643 11.3244 64.8416L11.5344 64.848L12.979 65.2393L14.3791 65.2807L15.7378 65.8089L17.4878 66.4198L18.7129 66.5948L19.7184 67.6035L21.4716 68.4817L22.3466 69.134L23.7912 69.8786L25.239 70.8873L26.3782 71.8514L27.9532 72.3351L29.0478 72.771L30.0119 73.2069V73.7797L29.1369 73.9038L27.8641 73.3756L26.1968 73.2896L24.8858 72.7678L24.0999 71.6732L23.3967 70.9764L22.3435 70.7091L21.2934 70.2286L20.2879 69.6622L19.4129 68.9208L18.2292 68.399L16.8737 68.0013L16.0432 67.4731L14.5095 67.2471L13.9018 67.1517C15.2446 68.2558 16.6701 69.2549 18.1624 70.1713L19.3238 70.5818L19.9793 71.215C20.3675 71.4218 20.7557 71.6159 21.147 71.8132L21.9075 72.0296L22.2925 72.351C27.0368 74.4956 32.3093 75.6793 37.8522 75.6793C38.425 75.6793 38.985 75.6634 39.5482 75.6443L38.81 75.4438L37.8491 75.3134L37.8586 75.3165Z" fill="white"/>
<path d="M58.5223 69.2294L57.1668 69.8436L55.9831 70.5881L54.2744 71.5523L53.2689 72.0327L51.7384 72.6437L50.3797 73.035L49.0656 73.296L47.4428 73.5155L45.8232 73.7828L44.0318 73.6078H42.7622L40.923 73.1241L39.3893 72.8187L38.6861 72.0295L37.3752 71.2818L35.186 70.3622L33.3914 69.8786L32.2968 69.8372L31.3772 69.4458L30.4608 68.9526L29.4553 68.3003L28.4021 67.6035L27.0848 66.9066L26.5597 66.2098L25.3347 65.7675L24.0206 65.1088L23.2346 64.587L22.14 63.7947L21.1314 63.1838L19.5531 62.1305L18.8085 61.3923L17.7585 61.2173L16.7085 61.0423L15.6139 60.9564L14.6943 60.5141L13.7747 60.0368L12.8583 59.6391L12.1137 59.5945L10.7137 59.9477L9.66046 60.6446L9.13544 61.2619L8.87134 62.0892L9.96593 62.2642L11.191 61.4751L12.241 60.8673L13.4692 61.5196L14.5193 61.911L16.1866 62.3024L17.103 62.6524L18.5476 63.6611L20.6477 64.7111L21.8314 65.4588L23.3205 66.3275L24.7238 67.2121L26.1238 67.8644L27.3902 68.3958L28.663 69.3154L30.8522 70.4099L31.8195 71.3232L32.8663 72.4623L34.3555 73.5123L36.5033 74.0405H37.9034L38.9152 74.0851L40.9739 74.5624L42.724 74.6928L44.6045 75.0842C50.8188 73.9705 56.505 71.3423 61.2747 67.5971L59.8492 68.1794L58.5319 69.2231L58.5223 69.2294ZM36.7642 72.9523L35.361 72.6468L34.3969 72.2491L33.5218 71.8991L33.0827 71.1163L33.5632 70.8491L34.5305 71.1163L35.7969 71.6318L36.6751 72.125L37.3306 72.5609L36.761 72.9523H36.7642Z" fill="white"/>
<path d="M8.12351 14.4524L9.08764 13.1764L10.0072 12.5241L10.9682 11.3404L11.8909 11.035L12.6323 10.1599L15.2161 8.4035L16.6607 6.78071L18.328 6.47525L19.8171 5.38703L21.4367 4.72836L22.3563 3.90424L24.0205 3.5065L25.3346 2.75238L25.411 1.99826C17.9748 4.57881 11.5918 9.42173 7.07983 15.6965L7.99305 15.321L8.12351 14.4524Z" fill="white"/>
<path d="M26.5119 2.18916L27.7433 1.79141L27.9628 1.35549L29.7129 1.0882L30.432 0.630005C28.9429 0.925925 27.4855 1.29821 26.0696 1.76914L26.0791 1.91869L26.5119 2.18597V2.18916Z" fill="white"/>
<path d="M3.78648 44.8844L4.48969 43.1725L5.32018 41.5561L6.02339 39.7583L6.67886 38.0019L7.85936 35.9527L8.86804 34.8581L9.70171 33.5408L10.7517 31.568L11.5409 30.0375L12.1963 28.857L12.7659 27.8483L13.5105 26.7983L14.341 25.8787L14.2551 25.1341L13.7714 24.9591L12.9377 25.5732L11.9736 26.8842L10.529 28.7234L9.30078 30.6071L8.25074 32.7962L7.33116 34.3777L6.54204 35.9559L5.492 37.4864L4.48651 39.0583L3.74512 41.2984L2.60598 43.0866L1.81686 44.544L1.15502 45.1453L0.776367 45.6417C0.948192 46.4404 1.14229 47.2391 1.35866 48.0155L1.68004 47.5986L2.64417 46.329L3.78012 44.8876L3.78648 44.8844Z" fill="white"/>
<path d="M2.30077 33.4994L3.87583 31.6125L5.23452 30.0343L6.59002 28.3733L7.55415 26.3082L8.99875 25.1341L10.2238 23.1995L13.1162 20.9657L14.8694 19.222L16.7945 16.4187L18.0673 15.6264L19.3369 13.7873L21.3956 11.4613L23.5402 10.5862L24.5012 9.36757L26.124 8.92527L28.1795 7.83069L30.4578 6.77747L31.5969 5.86425L33.347 5.68924L35.1002 4.94467L36.8089 3.97418H38.9535L41.4004 4.41647L44.5124 4.7633L47.0993 5.60333L49.0244 5.95016L51.2581 6.82838L53.1863 8.23479L55.9005 9.6253L57.7397 10.9394L59.493 12.1231L60.893 13.7459L62.4235 15.1014L63.9158 16.4569L64.9659 18.9993L66.4105 20.3993L67.7246 22.1526L68.7301 24.0713L69.8247 25.745L71.3584 27.7974L72.1443 29.5538L73.4139 32.1312L74.1585 33.8399L75.6445 35.2845L75.7049 35.7904C75.6508 34.6863 75.5395 33.5949 75.3931 32.5162L74.6422 31.1702L73.6812 29.8083L72.7616 27.7528L71.928 26.5691L70.8334 24.2495L69.6497 22.6713L68.2019 20.708L66.891 19.0852L66.0159 17.8506L64.9213 16.4537L63.5213 14.7928L62.2517 13.17L60.1516 11.5026L58.1788 9.88622L56.3874 8.53071L53.9341 6.64701L49.9917 4.80785L47.4525 3.93281L45.0915 3.70689L43.6469 3.49689L42.0241 3.09596L39.9686 2.74595L37.0316 2.83504L33.9674 3.62735L31.0337 4.50238L28.0999 6.12517L25.8662 7.47749L23.2379 8.53071L21.2651 10.1535L19.8651 11.2481L18.7259 11.9068L16.5368 12.5654L14.5671 13.9623L12.8584 15.671L11.0606 17.1538L8.74102 19.6611L7.56052 20.9307L4.88769 23.5527L2.87352 25.5318L1.56892 26.8841C1.32391 27.7083 1.10118 28.5419 0.913445 29.3915L1.73757 28.8983L3.31263 27.546L4.01265 26.7123L5.11042 25.3982L6.46593 24.3036L7.25187 22.8208L8.43555 21.5862L9.31058 21.4621L9.79424 20.148L11.1943 19.1393L12.378 18.3947L12.8616 17.1251L13.7367 16.6033L15.8399 14.8914L16.8009 13.45L17.9846 12.7531L18.4237 12.8772L17.9432 13.8923L16.8009 15.2382L15.6617 16.2024L14.2617 17.9556L12.903 19.3557L10.6693 21.2839L8.74102 23.1263L6.86049 25.2264L5.89636 26.3655L4.80496 28.1124L3.22671 29.9611L2.04622 31.2275L1.4321 32.4971L0.143415 34.2281C0.0797764 34.9058 0.0320473 35.6027 0.0065918 36.2963L0.773439 35.1604L2.30713 33.5026L2.30077 33.4994Z" fill="white"/>
<path d="M5.05625 47.7259L5.88992 46.7682L6.5454 45.0595L7.16269 44.3054L7.42679 43.0453L7.86272 42.0748L8.30183 40.8911L9.43778 39.7106L10.141 38.2247L10.6215 37.4801L10.666 36.465L11.541 35.3768L12.1106 34.3713L12.5052 33.6268L13.2052 32.6626L13.8607 31.8735L13.9466 31.3453L13.3357 31.1258L12.4606 31.3453L11.3215 32.7867L10.5355 34.1486L9.74961 35.7746L8.25728 37.9956L7.6909 39.6215L6.72677 41.5943L5.98219 42.4216L5.84855 43.6467L5.19307 45.2281L4.27667 46.7586L3.1789 48.7282L2.0875 50.1251L2.04932 50.1856C2.26887 50.8283 2.50752 51.4552 2.76207 52.0725L3.52574 50.8283L3.96484 49.301L5.05943 47.7196L5.05625 47.7259Z" fill="white"/>
<path d="M84.3342 21.3763C85.4447 21.179 86.8861 21.074 88.3944 21.074C90.9463 21.074 92.6136 21.4972 93.8769 22.4645C95.2642 23.4922 96.136 25.15 96.136 27.5365C96.136 30.0884 95.2037 31.8512 93.9373 32.9394C92.5341 34.104 90.3735 34.6609 87.758 34.6609C86.1957 34.6609 85.0661 34.5654 84.3342 34.4699V21.3731V21.3763ZM87.3475 32.2489C87.6021 32.3094 88.038 32.3094 88.3944 32.3094C91.1468 32.3285 92.9477 30.8234 92.9477 27.6351C92.9477 24.7682 91.3218 23.4032 88.7094 23.4032C88.0571 23.4032 87.5989 23.4572 87.3443 23.5145V32.2521L87.3475 32.2489Z" fill="white"/>
<path d="M106.041 32.1949C106.041 33.1049 106.076 33.9991 106.2 34.5304H103.486L103.311 33.5568H103.248C102.614 34.3363 101.625 34.7468 100.476 34.7468C98.516 34.7468 97.3514 33.3213 97.3514 31.7749C97.3514 29.258 99.6074 28.0743 103.031 28.0743V27.9597C103.031 27.4411 102.754 26.7092 101.268 26.7092C100.279 26.7092 99.2288 27.0497 98.5956 27.4188L98.0419 25.5065C98.7133 25.1246 100.04 24.6314 101.8 24.6314C105.029 24.6314 106.041 26.5342 106.041 28.8029V32.1981V32.1949ZM103.127 29.9548C101.542 29.9548 100.314 30.3303 100.314 31.4821C100.314 32.249 100.832 32.6213 101.501 32.6213C102.233 32.6213 102.866 32.1344 103.066 31.5171C103.108 31.3549 103.127 31.1799 103.127 30.9985V29.9548Z" fill="white"/>
<path d="M111.644 22.21V24.8415H113.805V27.0561H111.644V30.5849C111.644 31.7494 111.94 32.2872 112.835 32.2872C113.251 32.2872 113.445 32.2681 113.725 32.2076L113.745 34.4827C113.366 34.6227 112.634 34.7437 111.804 34.7437C110.836 34.7437 110.022 34.4064 109.525 33.91C108.972 33.3372 108.695 32.4081 108.695 31.0367V27.0561H107.403V24.8415H108.695V23.0182L111.641 22.21H111.644Z" fill="white"/>
<path d="M119.908 34.7467C117.073 34.7467 114.896 32.8821 114.896 29.7543C114.896 26.6264 116.958 24.6282 120.08 24.6282C123.033 24.6282 125.015 26.6678 125.015 29.5952C125.015 33.1208 122.495 34.7467 119.924 34.7467H119.908ZM119.965 32.5862C121.149 32.5862 121.887 31.4152 121.887 29.6747C121.887 28.2492 121.333 26.7823 119.965 26.7823C118.597 26.7823 117.983 28.2492 117.983 29.6938C117.983 31.3452 118.673 32.5862 119.943 32.5862H119.962H119.965Z" fill="white"/>
<path d="M126.854 31.9117C127.411 32.249 128.557 32.6213 129.451 32.6213C130.345 32.6213 130.736 32.3286 130.736 31.8322C130.736 31.3358 130.444 31.0781 129.33 30.7026C127.313 30.0503 126.536 28.9398 126.562 27.8102C126.562 25.9965 128.105 24.6251 130.501 24.6251C131.627 24.6251 132.617 24.9019 133.212 25.201L132.696 27.2565C132.261 27.0465 131.408 26.7252 130.596 26.7252C129.865 26.7252 129.448 27.0211 129.448 27.4984C129.448 27.9757 129.823 28.2111 131.013 28.6248C132.852 29.2389 133.606 30.1871 133.626 31.5935C133.626 33.42 132.219 34.7468 129.448 34.7468C128.178 34.7468 127.048 34.4445 126.32 34.05L126.851 31.9149L126.854 31.9117Z" fill="white"/>
<path d="M84.3344 37.1969C85.2635 37.041 86.5744 36.9264 88.4104 36.9264C90.2464 36.9264 91.6178 37.2764 92.5119 38.0146C93.3647 38.6669 93.9184 39.7711 93.9184 41.0789C93.9184 42.3866 93.5047 43.5194 92.7092 44.2481C91.6846 45.2026 90.1382 45.6545 88.3563 45.6545C87.9618 45.6545 87.6022 45.6386 87.3286 45.5781V50.3701H84.3375V37.1969H84.3344ZM87.3254 43.2585C87.5799 43.3189 87.8981 43.338 88.334 43.338C89.9377 43.338 90.9273 42.5298 90.9273 41.1743C90.9273 39.9493 90.0968 39.2206 88.5695 39.2206C87.9586 39.2206 87.5449 39.262 87.3254 39.3161V43.2585Z" fill="white"/>
<path d="M95.5886 43.8757C95.5886 42.4439 95.5695 41.5147 95.509 40.6811H98.0832L98.2041 42.4884H98.2805C98.7769 41.0565 99.9478 40.4647 100.896 40.4647C101.173 40.4647 101.313 40.4902 101.532 40.5315V43.3539C101.275 43.3189 101.039 43.2775 100.702 43.2775C99.5883 43.2775 98.8373 43.8535 98.6401 44.8049C98.5987 45.0053 98.5828 45.2153 98.5828 45.4826V50.3701H95.5727L95.5918 43.8757H95.5886Z" fill="white"/>
<path d="M107.413 50.5833C104.581 50.5833 102.401 48.725 102.401 45.5972C102.401 42.4693 104.46 40.4647 107.588 40.4647C110.541 40.4647 112.523 42.5043 112.523 45.4413C112.523 48.9605 110.006 50.5833 107.432 50.5833H107.413ZM107.473 48.4291C108.657 48.4291 109.392 47.2581 109.392 45.5208C109.392 44.0889 108.838 42.6221 107.473 42.6221C106.108 42.6221 105.494 44.0889 105.494 45.5335C105.494 47.1754 106.185 48.4259 107.451 48.4259H107.473V48.4291Z" fill="white"/>
<path d="M117.748 38.0496V40.681H119.908V42.902H117.748V46.4212C117.748 47.6017 118.05 48.1299 118.938 48.1299C119.354 48.1299 119.549 48.114 119.825 48.0504L119.845 50.3318C119.469 50.4718 118.74 50.5864 117.904 50.5864C116.933 50.5864 116.125 50.2491 115.628 49.7591C115.075 49.1863 114.798 48.2572 114.798 46.8858V42.902H113.509V40.681H114.798V38.8641L117.744 38.0496H117.748Z" fill="white"/>
<path d="M123.867 46.4722C123.969 47.7386 125.194 48.3304 126.603 48.3304C127.634 48.3304 128.462 48.1904 129.276 47.9136L129.674 49.9532C128.681 50.3701 127.475 50.5673 126.167 50.5673C122.88 50.5673 121 48.6677 121 45.6194C121 43.163 122.546 40.4488 125.894 40.4488C129.022 40.4488 130.208 42.8893 130.208 45.2853C130.208 45.804 130.151 46.2558 130.107 46.4913L123.87 46.4754L123.867 46.4722ZM127.415 44.4071C127.415 43.6943 127.1 42.4438 125.731 42.4438C124.446 42.4438 123.93 43.618 123.854 44.4071H127.415Z" fill="white"/>
<path d="M141.176 48.9637C141.176 50.8283 140.798 52.3493 139.69 53.3166C138.64 54.2266 137.196 54.5066 135.767 54.5066C134.481 54.5066 133.154 54.2521 132.283 53.7748L132.881 51.4806C133.492 51.8433 134.542 52.2124 135.694 52.2124C137.116 52.2124 138.204 51.4583 138.204 49.6573V49.04H138.169C137.59 49.8323 136.661 50.2906 135.554 50.2906C133.158 50.2906 131.452 48.3527 131.452 45.5813C131.452 42.4471 133.457 40.4679 135.85 40.4679C137.176 40.4679 138.01 41.0438 138.5 41.833H138.542L138.64 40.6843H141.253C141.218 41.3175 141.176 42.1352 141.176 43.583V48.9669V48.9637ZM138.169 44.6235C138.169 44.4485 138.147 44.248 138.109 44.0699C137.889 43.2776 137.316 42.743 136.483 42.743C135.375 42.743 134.5 43.7358 134.5 45.4986C134.5 46.94 135.216 48.0696 136.461 48.0696C137.253 48.0696 137.867 47.5509 138.067 46.8636C138.144 46.6218 138.169 46.3004 138.169 46.049V44.6172V44.6235Z" fill="white"/>
<path d="M145.077 39.4211C144.065 39.4211 143.413 38.702 143.413 37.8142C143.413 36.9265 144.084 36.2073 145.115 36.2073C146.146 36.2073 146.783 36.9042 146.802 37.8142C146.802 38.702 146.149 39.4211 145.093 39.4211H145.074H145.077ZM143.594 50.367V40.6811H146.604V50.367H143.594Z" fill="white"/>
<path d="M158.407 36.3123V47.4809C158.407 48.5914 158.445 49.7146 158.486 50.3669H155.813L155.693 48.9605H155.632C155.04 50.0296 153.853 50.5833 152.603 50.5833C150.305 50.5833 148.466 48.6264 148.466 45.6163C148.447 42.3675 150.484 40.4647 152.803 40.4647C154.009 40.4647 154.919 40.9007 155.358 41.5529H155.397V36.3091H158.407V36.3123ZM155.393 44.8049C155.393 44.6235 155.393 44.4294 155.355 44.2481C155.174 43.4398 154.525 42.7875 153.589 42.7875C152.202 42.7875 151.511 44.0189 151.511 45.5399C151.511 47.1627 152.323 48.1905 153.57 48.1905C154.442 48.1905 155.155 47.6018 155.33 46.7491C155.371 46.5486 155.39 46.3068 155.39 46.0777V44.8081L155.393 44.8049Z" fill="white"/>
<path d="M165.277 50.5833C162.445 50.5833 160.265 48.725 160.265 45.5972C160.265 42.4693 162.327 40.4647 165.458 40.4647C168.404 40.4647 170.387 42.5043 170.387 45.4413C170.387 48.9605 167.867 50.5833 165.296 50.5833H165.277ZM165.334 48.4291C166.524 48.4291 167.256 47.2581 167.256 45.5208C167.256 44.0889 166.702 42.6221 165.334 42.6221C163.966 42.6221 163.355 44.0889 163.355 45.5335C163.355 47.1754 164.048 48.4259 165.312 48.4259H165.331L165.334 48.4291Z" fill="white"/>
<path d="M172.229 47.7513C172.782 48.0918 173.928 48.4641 174.825 48.4641C175.723 48.4641 176.108 48.1682 176.108 47.6718C176.108 47.1754 175.815 46.9177 174.704 46.5454C172.684 45.8931 171.911 44.7826 171.933 43.6562C171.933 41.8297 173.476 40.4615 175.869 40.4615C176.999 40.4615 177.988 40.7383 178.583 41.0374L178.068 43.093C177.632 42.883 176.779 42.5648 175.971 42.5648C175.236 42.5648 174.822 42.8607 174.822 43.3316C174.822 43.8025 175.198 44.0507 176.388 44.4612C178.227 45.0753 178.981 46.0235 179 47.43C179 49.2532 177.594 50.5801 174.825 50.5801C173.556 50.5801 172.426 50.2842 171.691 49.8864L172.229 47.7481V47.7513Z" fill="white"/>
</svg>
