<svg width="160" height="54" viewBox="0 0 160 54" fill="none" xmlns="http://www.w3.org/2000/svg">
<path d="M52.6662 2.86041L41.5898 36.6046H49.7635L51.673 29.887H60.1529L62.0624 36.6046H70.2361L59.3878 2.86041H52.6648H52.6662ZM53.6594 23.0147L56.0277 14.7702L58.319 23.0147H53.6594Z" fill="white"/>
<path d="M85.2823 18.6859V11.4429H79.1157V18.6859H72.3762V24.6579H79.1157V32.2183H85.2823V24.6579H92.0204V18.6859H85.2823Z" fill="white"/>
<path opacity="0.7" d="M28.3196 23.2583L29.6026 23.6632L40.2064 27.241V23.8657L33.1826 21.5713L29.6026 22.7192L28.3196 23.2596V23.2583Z" fill="white"/>
<path opacity="0.7" d="M23.1189 21.0309L40.2066 13.9439V10.637L23.1189 17.7241V21.0309Z" fill="white"/>
<path opacity="0.7" d="M118.888 10.637V13.9439L136.246 21.0309V17.6557L118.888 10.6357V10.637Z" fill="white"/>
<path opacity="0.7" d="M131.114 23.1912L129.965 22.7863L126.116 21.5043L118.889 23.9341V27.241L129.965 23.5292L131.114 23.1912Z" fill="white"/>
<path opacity="0.7" d="M23.1189 25.3516L40.2066 32.4386V29.1318L23.1189 22.0447V25.3516Z" fill="white"/>
<path opacity="0.7" d="M28.3196 19.8844L29.6026 20.3564L33.1826 21.5713L40.2064 19.1415V15.8347L29.6026 19.4124L28.3196 19.8844Z" fill="white"/>
<path d="M23.1189 22.0434L40.2066 29.1304V27.241L29.6029 23.6633L28.3198 23.2583L29.6029 22.7179L33.1828 21.57L29.6029 20.355L28.3198 19.883L29.6029 19.411L40.2066 15.8333V13.9439L23.1189 21.0309V22.0434Z" fill="white"/>
<path opacity="0.7" d="M131.114 19.816L129.965 19.4781L118.889 15.8333V19.1401L126.116 21.5029L129.965 20.221L131.114 19.816Z" fill="white"/>
<path opacity="0.7" d="M118.888 32.4386L136.246 25.4186V22.0434L118.888 29.1304V32.4372V32.4386Z" fill="white"/>
<path d="M118.888 15.8333L129.964 19.4781L131.112 19.816L129.964 20.221L126.115 21.5029L129.964 22.7849L131.112 23.1899L129.964 23.5278L118.888 27.2396V29.129L136.246 22.042V21.0295L118.888 13.9425V15.8319V15.8333Z" fill="white"/>
<path d="M96.5703 11.1487V14.6197H104.953V32.8723H96.5703V36.6046H117.546V32.8723H109.476V11.1487H96.5703ZM104.601 4.72521C104.601 5.04536 104.656 5.34635 104.767 5.6282C104.888 5.89909 105.054 6.12894 105.266 6.32048C105.478 6.52024 105.729 6.6762 106.022 6.78702C106.324 6.89785 106.656 6.95257 107.019 6.95257C107.763 6.95257 108.353 6.74735 108.785 6.33553C109.229 5.91414 109.45 5.37782 109.45 4.72658C109.45 4.07534 109.229 3.54312 108.785 3.13268C108.353 2.71129 107.763 2.50059 107.019 2.50059C106.656 2.50059 106.324 2.55531 106.022 2.66614C105.729 2.77696 105.478 2.92745 105.266 3.11763C105.054 3.31875 104.888 3.55817 104.767 3.84001C104.656 4.11091 104.601 4.40643 104.601 4.72795V4.72521Z" fill="white"/>
<path d="M5.83818 51.1058H3.08936V53.8846H2V47.3598H6.24343V48.2478H3.08936V50.2247H5.83818V51.1072V51.1058Z" fill="white"/>
<path d="M10.0802 53.9735C9.72028 53.9735 9.39196 53.9133 9.09524 53.7943C8.79851 53.6752 8.54438 53.5111 8.33282 53.3017C8.12127 53.0924 7.95779 52.8448 7.83965 52.5602C7.72151 52.2756 7.66382 51.9664 7.66382 51.6353V51.452C7.66382 51.0662 7.72564 50.72 7.85064 50.4122C7.97565 50.1043 8.14187 49.8417 8.35068 49.6241C8.55948 49.4066 8.80263 49.2383 9.08012 49.122C9.35762 49.0057 9.64884 48.9469 9.95518 48.9469C10.3096 48.9469 10.6214 49.0057 10.8907 49.1234C11.1613 49.241 11.3866 49.4066 11.5679 49.62C11.7493 49.8334 11.8866 50.0866 11.9801 50.3793C12.0735 50.6721 12.1202 50.9936 12.1202 51.3425V51.7954H8.74494C8.7628 51.9842 8.8095 52.1579 8.88506 52.3194C8.96061 52.4808 9.05815 52.6204 9.18041 52.738C9.3013 52.8557 9.44416 52.9487 9.60763 53.0158C9.77111 53.0828 9.94969 53.117 10.1448 53.117C10.4181 53.117 10.6695 53.0637 10.8989 52.9556C11.1283 52.8475 11.3152 52.6997 11.4594 52.5123L12.0446 53.0596C11.9663 53.1759 11.866 53.2894 11.7438 53.3975C11.6201 53.507 11.4773 53.6041 11.3124 53.6889C11.1476 53.7737 10.9621 53.8421 10.7574 53.8955C10.5514 53.9475 10.3275 53.9735 10.0843 53.9735H10.0802ZM9.94969 49.8102C9.79996 49.8102 9.65984 49.8376 9.53071 49.8909C9.40158 49.9443 9.28618 50.0236 9.18453 50.1262C9.08287 50.2288 8.99633 50.3547 8.92627 50.5025C8.85621 50.6502 8.80538 50.8185 8.77516 51.006H11.0569V50.9252C11.0473 50.7816 11.0198 50.6434 10.9731 50.5107C10.9264 50.378 10.8591 50.2589 10.7684 50.155C10.6791 50.051 10.5651 49.9662 10.4291 49.9046C10.2931 49.8417 10.1324 49.8102 9.94969 49.8102Z" fill="white"/>
<path d="M14.3044 49.0344L14.3319 49.5448C14.4281 49.356 14.5572 49.2096 14.7193 49.1029C14.8814 48.9975 15.0765 48.9441 15.3045 48.9441C15.5119 48.9441 15.6836 48.9852 15.8196 49.0673C15.9556 49.1494 16.0587 49.2766 16.1274 49.4504C16.2235 49.2944 16.3458 49.1713 16.4969 49.081C16.6466 48.9893 16.828 48.9441 17.0409 48.9441C17.2002 48.9441 17.3459 48.9701 17.4791 49.0221C17.6124 49.0741 17.7264 49.1576 17.8212 49.2711C17.9159 49.3847 17.9888 49.5297 18.041 49.7062C18.0932 49.8827 18.1193 50.0948 18.1193 50.3424V53.8832H17.1206V50.3342C17.1206 50.1399 17.0793 50.0058 16.9969 49.9333C16.9145 49.8608 16.8087 49.8239 16.6796 49.8239C16.5505 49.8239 16.4598 49.8526 16.387 49.9114C16.3142 49.9703 16.262 50.0469 16.229 50.1427V53.8846H15.2523V50.3356C15.2523 50.1468 15.2138 50.0154 15.1369 49.9388C15.06 49.8622 14.9556 49.8252 14.8237 49.8252C14.6918 49.8252 14.5984 49.8526 14.527 49.906C14.4555 49.9593 14.3992 50.0332 14.3608 50.1262V53.8859H13.3621V49.0372H14.3031L14.3044 49.0344Z" fill="white"/>
<path d="M19.7883 49.0344H22.3847V52.9966H23.8284V53.8846H19.7883V52.9966H21.3008V49.9265H19.7883V49.0344ZM21.2101 47.7799C21.2101 47.6129 21.2637 47.4748 21.3722 47.3653C21.4808 47.2558 21.6319 47.2011 21.8269 47.2011C22.022 47.2011 22.1786 47.2558 22.2885 47.3653C22.3984 47.4748 22.4533 47.6129 22.4533 47.7799C22.4533 47.9468 22.3984 48.0849 22.2885 48.1944C22.1786 48.3039 22.0247 48.3586 21.8269 48.3586C21.6291 48.3586 21.4808 48.3039 21.3722 48.1944C21.2637 48.0849 21.2101 47.9468 21.2101 47.7799Z" fill="white"/>
<path d="M26.3974 49.0344L26.4647 49.7062C26.6419 49.464 26.8548 49.2766 27.1062 49.1439C27.3563 49.0112 27.6351 48.9441 27.9415 48.9441C28.1901 48.9441 28.4181 48.9797 28.6228 49.0522C28.8289 49.1234 29.0047 49.2356 29.1545 49.3888C29.3028 49.5407 29.4182 49.7377 29.5006 49.9798C29.5831 50.222 29.6243 50.5134 29.6243 50.8541V53.8832H28.5486V50.8719C28.5486 50.6721 28.5253 50.5038 28.4786 50.3698C28.4319 50.2357 28.3659 50.1276 28.2808 50.0469C28.1956 49.9662 28.0912 49.9087 27.9676 49.8745C27.8439 49.8403 27.7052 49.8225 27.5486 49.8225C27.3109 49.8225 27.1049 49.8745 26.9304 49.9798C26.7546 50.0838 26.6131 50.2261 26.5045 50.4053V53.8832H25.4248V49.0344H26.3974Z" fill="white"/>
<path d="M31.5295 49.0344H34.1259V52.9966H35.5697V53.8846H31.5295V52.9966H33.042V49.9265H31.5295V49.0344ZM32.9513 47.7799C32.9513 47.6129 33.0049 47.4748 33.1134 47.3653C33.222 47.2558 33.3731 47.2011 33.5681 47.2011C33.7632 47.2011 33.9198 47.2558 34.0297 47.3653C34.1396 47.4748 34.1946 47.6129 34.1946 47.7799C34.1946 47.9468 34.1396 48.0849 34.0297 48.1944C33.9198 48.3039 33.766 48.3586 33.5681 48.3586C33.3703 48.3586 33.222 48.3039 33.1134 48.1944C33.0049 48.0849 32.9513 47.9468 32.9513 47.7799Z" fill="white"/>
<path d="M40.3391 52.5711C40.3391 52.4904 40.3227 52.4165 40.2897 52.3495C40.2567 52.2825 40.1976 52.2209 40.1125 52.1662C40.0273 52.1114 39.9105 52.0594 39.7608 52.0116C39.6124 51.9637 39.4229 51.9172 39.1921 51.872C38.9036 51.8118 38.644 51.7407 38.4118 51.6572C38.1797 51.5737 37.9805 51.4739 37.8129 51.3562C37.6466 51.2399 37.5175 51.1045 37.4282 50.9512C37.3389 50.798 37.2936 50.6188 37.2936 50.4163C37.2936 50.2138 37.3403 50.0318 37.4337 49.854C37.5271 49.6761 37.659 49.5201 37.8321 49.3861C38.0052 49.252 38.214 49.1453 38.4626 49.0659C38.7099 48.9866 38.9874 48.9469 39.2924 48.9469C39.6166 48.9469 39.9064 48.9866 40.1633 49.0673C40.4202 49.148 40.6359 49.2575 40.8131 49.397C40.9903 49.5366 41.1263 49.6994 41.2197 49.8882C41.3145 50.077 41.3612 50.2781 41.3612 50.4929H40.2856C40.2856 50.3971 40.265 50.3055 40.2224 50.2179C40.1798 50.1303 40.118 50.051 40.0328 49.9826C39.949 49.9142 39.8446 49.8594 39.7196 49.8184C39.5946 49.7787 39.4517 49.7582 39.2896 49.7582C39.1275 49.7582 38.9874 49.776 38.8693 49.8102C38.7511 49.8444 38.6522 49.8895 38.5739 49.9443C38.4956 49.999 38.4379 50.0647 38.4008 50.1385C38.3637 50.2138 38.3445 50.2904 38.3445 50.3711C38.3445 50.4519 38.3582 50.5244 38.3871 50.5914C38.4159 50.6571 38.4681 50.7173 38.5464 50.7706C38.6247 50.824 38.7319 50.8732 38.8706 50.9157C39.008 50.9594 39.1866 51.0005 39.4064 51.0388C39.7127 51.0922 39.9875 51.1592 40.232 51.2399C40.4765 51.3206 40.6853 51.4191 40.857 51.5354C41.0301 51.6517 41.162 51.7899 41.2554 51.95C41.3488 52.1101 41.3955 52.2975 41.3955 52.5123C41.3955 52.7271 41.3461 52.9241 41.2472 53.1033C41.1483 53.2826 41.0068 53.4372 40.8241 53.5672C40.6414 53.6971 40.4216 53.7984 40.1647 53.8695C39.9078 53.9407 39.6207 53.9776 39.3034 53.9776C38.9489 53.9776 38.6371 53.9311 38.3679 53.8367C38.0972 53.7423 37.8719 53.6191 37.6879 53.4673C37.5052 53.3154 37.3664 53.1417 37.2716 52.9474C37.1768 52.7531 37.1301 52.5561 37.1301 52.3563H38.1742C38.1838 52.5055 38.2222 52.6327 38.2909 52.7367C38.3596 52.8407 38.4489 52.9255 38.5561 52.9898C38.6632 53.0541 38.7841 53.1006 38.916 53.128C39.0478 53.1567 39.1811 53.1704 39.3171 53.1704C39.6495 53.1704 39.9037 53.1143 40.0781 53.0021C40.2526 52.8899 40.3391 52.7463 40.3391 52.5698V52.5711Z" fill="white"/>
<path d="M45.1925 47.8606V49.0344H47.0332V49.8321H45.1925V52.1579C45.1925 52.3399 45.2144 52.4918 45.2584 52.6108C45.3024 52.7298 45.3628 52.8256 45.4411 52.8981C45.5194 52.9693 45.6101 53.0199 45.7158 53.0486C45.8202 53.0773 45.9356 53.091 46.062 53.091C46.1554 53.091 46.2516 53.0856 46.3519 53.076C46.4521 53.065 46.5497 53.0541 46.6445 53.0404C46.7393 53.0267 46.8258 53.0117 46.9055 52.9953C46.9852 52.9788 47.0511 52.9638 47.106 52.9487L47.2269 53.6875C47.1486 53.7327 47.0552 53.7737 46.9453 53.8107C46.8354 53.8476 46.7159 53.8791 46.5882 53.9023C46.459 53.9256 46.3244 53.9448 46.1857 53.9584C46.0455 53.9721 45.9095 53.979 45.7735 53.979C45.5304 53.979 45.3078 53.9448 45.1059 53.8777C44.904 53.8107 44.7295 53.7053 44.5839 53.5644C44.4383 53.4221 44.3243 53.2402 44.2418 53.0172C44.1594 52.7941 44.1182 52.5273 44.1182 52.2168V49.8334H42.9299V49.0358H44.1182V47.8619H45.1938L45.1925 47.8606Z" fill="white"/>
<path d="M57.9298 52.3686H55.8829L55.4324 53.8832H54.3169L56.4448 47.3585H57.394L59.4821 53.8832H58.3707L57.9298 52.3686ZM56.1563 51.4506H57.6592L56.9173 48.8922L56.1563 51.4506Z" fill="white"/>
<path d="M60.7678 47.3585H64.6637V48.2505H63.246V52.9966H64.6637V53.8846H60.7678V52.9966H62.1539V48.2505H60.7678V47.3585Z" fill="white"/>
<path d="M74.3057 51.2221H72.9966V53.8846H72.1682V47.3598H74.09C74.3964 47.3653 74.6835 47.4091 74.9541 47.4898C75.2247 47.5705 75.461 47.6909 75.663 47.8524C75.8649 48.0138 76.0242 48.2163 76.1396 48.4598C76.255 48.7034 76.3127 48.9893 76.3127 49.3177C76.3127 49.5297 76.2825 49.724 76.2207 49.9005C76.1589 50.077 76.0751 50.2371 75.9665 50.3793C75.858 50.523 75.7289 50.6502 75.5792 50.7597C75.4294 50.8705 75.2646 50.9649 75.0846 51.0415L76.4748 53.8285L76.4707 53.8818H75.5929L74.3057 51.2194V51.2221ZM72.9952 50.5408H74.1106C74.2961 50.5381 74.4719 50.5093 74.6368 50.4532C74.8016 50.3985 74.9459 50.3178 75.0709 50.2138C75.1959 50.1098 75.2934 49.9812 75.3662 49.8307C75.4377 49.6802 75.4748 49.5051 75.4748 49.3081C75.4748 49.0988 75.4404 48.9154 75.3717 48.7595C75.303 48.6021 75.2069 48.4708 75.0832 48.3654C74.9596 48.2601 74.814 48.1794 74.645 48.126C74.4761 48.0726 74.2906 48.0439 74.09 48.0412H72.9966V50.5422L72.9952 50.5408Z" fill="white"/>
<path d="M79.8172 53.9735C79.4751 53.9735 79.1605 53.9147 78.8748 53.7984C78.5877 53.6821 78.3432 53.5193 78.1385 53.3099C77.9338 53.1006 77.7758 52.853 77.6618 52.5657C77.5478 52.2783 77.4915 51.9664 77.4915 51.6285V51.4397C77.4915 51.0484 77.5546 50.6981 77.681 50.3889C77.8074 50.0797 77.9736 49.8184 78.1824 49.605C78.3912 49.3915 78.6275 49.2274 78.8926 49.1138C79.1578 49.0002 79.4298 48.9441 79.7086 48.9441C80.0603 48.9441 80.3666 49.0043 80.629 49.1261C80.8914 49.2479 81.1098 49.4148 81.2843 49.6282C81.4588 49.8417 81.5879 50.0934 81.6731 50.3834C81.7582 50.6735 81.8008 50.9868 81.8008 51.3247V51.6969H78.3226C78.3322 51.9185 78.3748 52.1251 78.4503 52.3194C78.5272 52.5137 78.6316 52.6833 78.7649 52.8283C78.8981 52.9734 79.0575 53.0869 79.2443 53.1718C79.4311 53.2566 79.6358 53.2976 79.8611 53.2976C80.1578 53.2976 80.4216 53.2374 80.6524 53.1184C80.8832 52.9994 81.0755 52.8407 81.228 52.6436L81.7362 53.0377C81.6552 53.1608 81.5535 53.2771 81.4327 53.3893C81.3118 53.5015 81.1703 53.6 81.0123 53.6875C80.853 53.7737 80.673 53.8435 80.4724 53.8955C80.2719 53.9475 80.0521 53.9735 79.8158 53.9735H79.8172ZM79.7086 49.6269C79.541 49.6269 79.3817 49.657 79.232 49.7185C79.0822 49.7801 78.9476 49.869 78.8267 49.988C78.7072 50.1057 78.6055 50.2507 78.5231 50.4231C78.4407 50.5955 78.383 50.7925 78.35 51.0169H80.9683V50.954C80.9587 50.7925 80.9285 50.6325 80.8763 50.4751C80.8241 50.3164 80.7472 50.1755 80.6441 50.0496C80.5425 49.9237 80.4134 49.8225 80.2595 49.7445C80.1056 49.6665 79.9216 49.6282 79.7086 49.6282V49.6269Z" fill="white"/>
<path d="M86.4317 52.5971C86.4317 52.4986 86.4125 52.4097 86.3727 52.3303C86.3342 52.251 86.2683 52.1785 86.1749 52.1128C86.0814 52.0471 85.9592 51.9869 85.8053 51.9308C85.6528 51.8761 85.4619 51.8255 85.2339 51.7803C84.955 51.7229 84.7009 51.6545 84.4714 51.5737C84.242 51.493 84.0456 51.3973 83.8821 51.2851C83.7186 51.1729 83.5923 51.0415 83.5016 50.891C83.4109 50.7405 83.367 50.564 83.367 50.3643C83.367 50.1645 83.4137 49.9826 83.5057 49.8116C83.5977 49.6405 83.7296 49.49 83.8972 49.3614C84.0648 49.2328 84.2654 49.1316 84.4975 49.0563C84.7297 48.9825 84.9852 48.9441 85.2641 48.9441C85.5635 48.9441 85.8342 48.9825 86.0746 49.0604C86.315 49.1384 86.5183 49.2451 86.6859 49.3833C86.8535 49.5201 86.984 49.6816 87.0746 49.8649C87.1653 50.0482 87.212 50.2466 87.212 50.4587H86.3795C86.3795 50.3547 86.3521 50.2521 86.2985 50.1522C86.2449 50.0524 86.1694 49.9634 86.0732 49.8854C85.977 49.8075 85.8616 49.7445 85.7243 49.6966C85.5883 49.6487 85.4344 49.6255 85.2627 49.6255C85.091 49.6255 84.9303 49.6446 84.797 49.6843C84.6638 49.724 84.5525 49.776 84.4646 49.8417C84.3766 49.9073 84.3093 49.9839 84.264 50.0701C84.2187 50.1563 84.1967 50.2466 84.1967 50.3397C84.1967 50.4327 84.2145 50.5203 84.2503 50.5955C84.286 50.6708 84.3478 50.7378 84.4371 50.7966C84.525 50.8568 84.6445 50.9102 84.7929 50.9581C84.9412 51.006 85.1294 51.0525 85.3575 51.0976C85.657 51.1606 85.9262 51.2331 86.1625 51.3152C86.3988 51.3973 86.5993 51.4958 86.7614 51.6107C86.9235 51.7256 87.0472 51.8597 87.1323 52.0116C87.2175 52.1634 87.2601 52.3399 87.2601 52.541C87.2601 52.7558 87.212 52.9515 87.1145 53.128C87.0169 53.3045 86.8809 53.455 86.7079 53.5808C86.5334 53.7067 86.326 53.8038 86.0828 53.8723C85.8397 53.9407 85.5745 53.9749 85.2861 53.9749C84.9564 53.9749 84.6624 53.9311 84.4041 53.8422C84.1459 53.7546 83.9274 53.6369 83.7489 53.4933C83.5703 53.3482 83.4343 53.18 83.3395 52.9898C83.2447 52.7996 83.198 52.5999 83.198 52.3933H84.0305C84.0428 52.5643 84.0882 52.7066 84.1678 52.8229C84.2475 52.9392 84.3464 53.0336 84.4646 53.1047C84.5827 53.1759 84.7146 53.2278 84.8588 53.2566C85.0031 53.2867 85.1446 53.3017 85.2861 53.3017C85.6364 53.3017 85.9138 53.2374 86.1185 53.1088C86.3218 52.9802 86.4262 52.8106 86.429 52.5985L86.4317 52.5971Z" fill="white"/>
<path d="M90.877 53.9735C90.5349 53.9735 90.2203 53.9147 89.9346 53.7984C89.6475 53.6821 89.403 53.5193 89.1983 53.3099C88.9936 53.1006 88.8356 52.853 88.7216 52.5657C88.6076 52.2783 88.5513 51.9664 88.5513 51.6285V51.4397C88.5513 51.0484 88.6145 50.6981 88.7408 50.3889C88.8672 50.0797 89.0334 49.8184 89.2423 49.605C89.4511 49.3915 89.6873 49.2274 89.9538 49.1138C90.219 49.0002 90.491 48.9441 90.7698 48.9441C91.1201 48.9441 91.4278 49.0043 91.6902 49.1261C91.9526 49.2479 92.171 49.4148 92.3455 49.6282C92.52 49.8417 92.6491 50.0934 92.7343 50.3834C92.8194 50.6735 92.862 50.9868 92.862 51.3247V51.6969H89.3837C89.3934 51.9185 89.436 52.1251 89.5115 52.3194C89.5884 52.5137 89.6928 52.6833 89.8261 52.8283C89.9593 52.9734 90.1187 53.0869 90.3055 53.1718C90.491 53.2552 90.697 53.2976 90.9223 53.2976C91.219 53.2976 91.4828 53.2374 91.7136 53.1184C91.9444 52.9994 92.1367 52.8407 92.2892 52.6436L92.7974 53.0377C92.7164 53.1608 92.6147 53.2771 92.4939 53.3893C92.373 53.5015 92.2315 53.6 92.0735 53.6875C91.9141 53.7737 91.7342 53.8435 91.5336 53.8955C91.3331 53.9475 91.1133 53.9735 90.877 53.9735ZM90.7685 49.6269C90.6009 49.6269 90.4415 49.657 90.2918 49.7185C90.142 49.7801 90.006 49.869 89.8865 49.988C89.767 50.1071 89.6654 50.2507 89.5829 50.4231C89.5005 50.5955 89.4428 50.7925 89.4098 51.0169H92.0282V50.954C92.0185 50.7925 91.9883 50.6325 91.9361 50.4751C91.8839 50.3164 91.807 50.1755 91.704 50.0496C91.6023 49.9237 91.4732 49.8225 91.3193 49.7445C91.1655 49.6665 90.9814 49.6282 90.7685 49.6282V49.6269Z" fill="white"/>
<path d="M97.4545 53.8846C97.4215 53.8216 97.3954 53.7436 97.3762 53.6492C97.357 53.5548 97.3419 53.4577 97.3336 53.3551C97.2498 53.4385 97.1564 53.5179 97.052 53.5931C96.949 53.6684 96.835 53.7341 96.71 53.7902C96.5849 53.8463 96.4531 53.8914 96.3116 53.9242C96.1701 53.9571 96.0203 53.9735 95.861 53.9735C95.6027 53.9735 95.3692 53.9366 95.1618 53.8613C94.953 53.7874 94.7758 53.6862 94.6315 53.5589C94.4859 53.4317 94.3733 53.2812 94.2936 53.1061C94.2139 52.931 94.1741 52.7421 94.1741 52.5397C94.1741 52.2742 94.2276 52.0403 94.3334 51.8405C94.4392 51.6408 94.5903 51.4739 94.7854 51.3412C94.9804 51.2084 95.2153 51.1086 95.4901 51.0429C95.7648 50.9772 96.0712 50.9444 96.4105 50.9444H97.3199V50.564C97.3199 50.4176 97.2924 50.2863 97.2388 50.17C97.1853 50.0537 97.1083 49.9538 97.0094 49.8718C96.9105 49.7897 96.7896 49.7267 96.6468 49.6816C96.5039 49.6364 96.3445 49.6145 96.1673 49.6145C96.0025 49.6145 95.8541 49.6351 95.7236 49.6775C95.5931 49.7199 95.4832 49.7746 95.3926 49.843C95.3019 49.9114 95.2332 49.9935 95.1838 50.0879C95.1343 50.1823 95.1096 50.2795 95.1096 50.3821H94.273C94.2757 50.2056 94.3211 50.0318 94.4103 49.8622C94.4983 49.6912 94.626 49.5393 94.7922 49.4025C94.9585 49.267 95.1618 49.1562 95.3994 49.0728C95.6371 48.9893 95.9091 48.9469 96.2113 48.9469C96.4874 48.9469 96.7443 48.9811 96.9806 49.0481C97.2169 49.1152 97.4229 49.2164 97.5946 49.3532C97.7663 49.4887 97.9024 49.6583 98.0013 49.8622C98.1002 50.066 98.1496 50.3027 98.1496 50.575V52.8297C98.1496 52.9912 98.1647 53.1622 98.1949 53.3428C98.2252 53.5234 98.2664 53.6807 98.3213 53.8162V53.8873H97.4531L97.4545 53.8846ZM95.9833 53.2525C96.1454 53.2525 96.2965 53.2319 96.438 53.1895C96.5795 53.1471 96.7072 53.0924 96.8226 53.024C96.938 52.9556 97.0383 52.8762 97.1221 52.7887C97.2059 52.7011 97.2718 52.6094 97.3199 52.5137V51.5327H96.5465C96.0602 51.5327 95.6824 51.6038 95.4132 51.7475C95.1425 51.8912 95.0079 52.1169 95.0079 52.4247C95.0079 52.5438 95.0285 52.6546 95.0684 52.7558C95.1082 52.8571 95.17 52.9446 95.2511 53.0185C95.3321 53.0924 95.4338 53.1499 95.5574 53.1909C95.681 53.2333 95.8225 53.2538 95.9846 53.2538L95.9833 53.2525Z" fill="white"/>
<path d="M102.975 48.9455C103.054 48.9455 103.135 48.9482 103.218 48.9524C103.302 48.9565 103.383 48.9647 103.459 48.9742C103.536 48.9852 103.606 48.9975 103.67 49.0126C103.735 49.0276 103.789 49.044 103.83 49.0618L103.717 49.8731C103.555 49.8376 103.401 49.8116 103.256 49.7951C103.11 49.7787 102.957 49.7705 102.799 49.7705C102.409 49.7705 102.093 49.8581 101.853 50.0346C101.611 50.2111 101.434 50.4573 101.32 50.7734V53.8832H100.483V49.0344H101.275L101.314 49.8047C101.512 49.5393 101.75 49.3286 102.027 49.1754C102.305 49.0221 102.621 48.9441 102.974 48.9441L102.975 48.9455Z" fill="white"/>
<path d="M107.39 53.3017C107.54 53.3017 107.687 53.2785 107.829 53.2306C107.972 53.1827 108.098 53.117 108.209 53.0308C108.32 52.946 108.41 52.8461 108.477 52.7298C108.544 52.6149 108.58 52.4904 108.583 52.3563H109.37C109.367 52.5711 109.311 52.7764 109.201 52.972C109.091 53.1676 108.946 53.34 108.763 53.4878C108.58 53.6356 108.37 53.7532 108.132 53.8422C107.896 53.9297 107.647 53.9749 107.39 53.9749C107.021 53.9749 106.699 53.9092 106.423 53.7778C106.147 53.6465 105.918 53.47 105.732 53.247C105.548 53.024 105.41 52.7681 105.316 52.4767C105.223 52.1853 105.176 51.8788 105.176 51.556V51.3672C105.176 51.047 105.223 50.7419 105.316 50.4491C105.41 50.1563 105.548 49.8991 105.732 49.6761C105.916 49.4531 106.147 49.2766 106.423 49.1453C106.699 49.0139 107.022 48.9482 107.39 48.9482C107.679 48.9482 107.943 48.9934 108.184 49.0851C108.426 49.1767 108.635 49.2999 108.81 49.4572C108.985 49.6145 109.123 49.7992 109.222 50.0154C109.321 50.2316 109.37 50.4601 109.37 50.705H108.583C108.58 50.5586 108.547 50.4204 108.487 50.2904C108.426 50.1604 108.342 50.0455 108.237 49.947C108.132 49.8485 108.006 49.7705 107.86 49.7144C107.715 49.6583 107.558 49.6296 107.39 49.6296C107.132 49.6296 106.915 49.6816 106.741 49.7842C106.565 49.8868 106.423 50.0223 106.316 50.1878C106.209 50.3533 106.131 50.5394 106.084 50.746C106.037 50.9526 106.014 51.1606 106.014 51.3685V51.5573C106.014 51.7694 106.037 51.9787 106.084 52.1867C106.131 52.3946 106.206 52.5807 106.313 52.7463C106.421 52.9118 106.561 53.0459 106.737 53.1499C106.912 53.2525 107.131 53.3045 107.392 53.3045L107.39 53.3017Z" fill="white"/>
<path d="M111.678 49.7568C111.852 49.5024 112.067 49.3053 112.321 49.163C112.576 49.0208 112.862 48.9482 113.181 48.9455C113.436 48.9455 113.667 48.9825 113.876 49.055C114.085 49.1288 114.262 49.2424 114.409 49.3984C114.556 49.5543 114.669 49.75 114.748 49.988C114.828 50.2261 114.868 50.5066 114.868 50.8322V53.8846H114.035V50.824C114.035 50.4272 113.94 50.1303 113.75 49.9361C113.559 49.7418 113.287 49.646 112.934 49.6487C112.667 49.6487 112.424 49.713 112.207 49.843C111.99 49.973 111.813 50.1454 111.678 50.3602V53.8832H110.845V47H111.678V49.7555V49.7568Z" fill="white"/>
<path d="M126.009 53.8846H125.162L122.62 49.0085L122.606 53.8846H121.765V47.3598H122.611L125.154 52.2264L125.168 47.3598H126.009V53.8846Z" fill="white"/>
<path d="M129.586 53.9735C129.244 53.9735 128.929 53.9147 128.643 53.7984C128.356 53.6821 128.112 53.5193 127.907 53.3099C127.702 53.1006 127.544 52.853 127.43 52.5657C127.316 52.2783 127.26 51.9664 127.26 51.6285V51.4397C127.26 51.0484 127.323 50.6981 127.45 50.3889C127.576 50.0797 127.742 49.8184 127.951 49.605C128.16 49.3915 128.396 49.2274 128.663 49.1138C128.928 49.0002 129.2 48.9441 129.479 48.9441C129.829 48.9441 130.137 49.0043 130.399 49.1261C130.661 49.2479 130.88 49.4148 131.054 49.6282C131.229 49.8417 131.358 50.0934 131.443 50.3834C131.528 50.6735 131.571 50.9868 131.571 51.3247V51.6969H128.092C128.102 51.9185 128.145 52.1251 128.22 52.3194C128.297 52.5137 128.402 52.6833 128.535 52.8283C128.668 52.9734 128.827 53.0869 129.014 53.1718C129.2 53.2552 129.406 53.2976 129.631 53.2976C129.928 53.2976 130.192 53.2374 130.422 53.1184C130.653 52.9994 130.845 52.8407 130.998 52.6436L131.506 53.0377C131.425 53.1608 131.323 53.2771 131.203 53.3893C131.082 53.5015 130.94 53.6 130.782 53.6875C130.623 53.7737 130.443 53.8435 130.242 53.8955C130.042 53.9475 129.822 53.9735 129.586 53.9735ZM129.479 49.6269C129.311 49.6269 129.152 49.657 129.002 49.7185C128.852 49.7801 128.716 49.869 128.597 49.988C128.477 50.1071 128.375 50.2507 128.293 50.4231C128.211 50.5955 128.153 50.7925 128.12 51.0169H130.738V50.954C130.729 50.7925 130.698 50.6325 130.646 50.4751C130.594 50.3164 130.517 50.1755 130.414 50.0496C130.312 49.9237 130.183 49.8225 130.029 49.7445C129.876 49.6665 129.692 49.6282 129.479 49.6282V49.6269Z" fill="white"/>
<path d="M134.936 47.8606V49.0344H136.789V49.6747H134.936V52.3098C134.936 52.4986 134.96 52.6532 135.008 52.7764C135.056 52.8995 135.122 52.9966 135.206 53.0691C135.289 53.143 135.387 53.1936 135.495 53.2237C135.605 53.2538 135.721 53.2689 135.844 53.2689C135.935 53.2689 136.027 53.2634 136.123 53.2538C136.219 53.2443 136.313 53.2306 136.405 53.2155C136.497 53.2005 136.582 53.1854 136.662 53.169C136.741 53.1526 136.806 53.1389 136.857 53.1266L136.974 53.7135C136.905 53.756 136.821 53.7915 136.722 53.823C136.623 53.8545 136.515 53.8818 136.398 53.9037C136.281 53.9256 136.158 53.9434 136.027 53.9557C135.897 53.968 135.767 53.9735 135.638 53.9735C135.423 53.9735 135.221 53.9434 135.032 53.8818C134.844 53.8203 134.682 53.7231 134.545 53.5904C134.407 53.4577 134.298 53.2853 134.218 53.0746C134.138 52.8639 134.098 52.6094 134.098 52.3112V49.6761H132.821V49.0358H134.098V47.8619H134.935L134.936 47.8606Z" fill="white"/>
<path d="M139.234 52.1278L139.332 52.8229L139.453 52.1278L140.232 49.0358H140.768L141.541 52.1278L141.672 52.8899L141.793 52.1278L142.333 49.0358H143.07L142.036 53.8846H141.379L140.618 50.9129L140.492 50.1604L140.371 50.9129L139.62 53.8846H138.963L137.928 49.0358H138.666L139.234 52.1278Z" fill="white"/>
<path d="M143.792 51.415C143.792 51.0662 143.842 50.7405 143.944 50.4409C144.046 50.1413 144.193 49.88 144.382 49.6597C144.572 49.4394 144.804 49.2643 145.077 49.1371C145.351 49.0098 145.658 48.9469 145.999 48.9469C146.34 48.9469 146.654 49.0098 146.928 49.1371C147.202 49.2643 147.435 49.4381 147.626 49.6597C147.816 49.8813 147.962 50.1413 148.064 50.4409C148.165 50.7419 148.216 51.0662 148.216 51.415V51.5135C148.216 51.8624 148.165 52.1867 148.064 52.4863C147.962 52.7846 147.815 53.0445 147.626 53.2662C147.435 53.4878 147.204 53.6602 146.93 53.7861C146.657 53.9119 146.349 53.9749 146.009 53.9749C145.668 53.9749 145.353 53.9119 145.08 53.7861C144.807 53.6602 144.573 53.4878 144.382 53.2662C144.191 53.0445 144.046 52.7859 143.944 52.4863C143.842 52.188 143.792 51.8638 143.792 51.5135V51.415ZM144.624 51.5135C144.624 51.753 144.653 51.9801 144.709 52.1976C144.767 52.4138 144.852 52.6053 144.967 52.7695C145.083 52.9337 145.227 53.0637 145.402 53.1594C145.576 53.2552 145.778 53.3031 146.009 53.3031C146.239 53.3031 146.437 53.2552 146.609 53.1594C146.781 53.0637 146.925 52.9337 147.04 52.7695C147.156 52.6053 147.242 52.4152 147.299 52.1976C147.356 51.9815 147.384 51.753 147.384 51.5135V51.415C147.384 51.1797 147.355 50.9526 147.296 50.7364C147.237 50.5203 147.15 50.3301 147.035 50.1645C146.919 49.999 146.775 49.869 146.604 49.7719C146.43 49.6747 146.23 49.6269 145.998 49.6269C145.766 49.6269 145.566 49.6761 145.395 49.7719C145.223 49.869 145.08 50.0004 144.965 50.1645C144.849 50.3287 144.763 50.5189 144.706 50.7364C144.65 50.954 144.621 51.1797 144.621 51.415V51.5135H144.624Z" fill="white"/>
<path d="M152.745 48.9455C152.824 48.9455 152.905 48.9482 152.989 48.9524C153.072 48.9565 153.153 48.9647 153.229 48.9742C153.306 48.9852 153.376 48.9975 153.44 49.0126C153.505 49.0276 153.559 49.044 153.6 49.0618L153.487 49.8731C153.325 49.8376 153.171 49.8116 153.026 49.7951C152.88 49.7787 152.728 49.7705 152.57 49.7705C152.179 49.7705 151.863 49.8581 151.623 50.0346C151.381 50.2111 151.204 50.4573 151.09 50.7734V53.8832H150.253V49.0344H151.045L151.085 49.8047C151.282 49.5393 151.52 49.3286 151.797 49.1754C152.075 49.0221 152.391 48.9441 152.744 48.9441L152.745 48.9455Z" fill="white"/>
<path d="M156.542 51.6203L155.931 52.2072V53.8832H155.094V47H155.931V51.2125L156.475 50.6297L158.073 49.0344H159.085L157.114 51.0552L159.386 53.8832H158.328L156.542 51.6203Z" fill="white"/>
<path d="M7.70282 36.6046V15.1875H0.878174V11.9258H7.70282V10.1924C7.70282 8.61078 7.93498 7.22347 8.40067 6.03044C8.86636 4.8374 9.523 3.83728 10.3706 3.03144C11.2182 2.22559 12.2375 1.61676 13.4271 1.20632C14.6181 0.795868 15.9465 0.590645 17.4123 0.590645C18.4192 0.590645 19.4001 0.674103 20.3548 0.841018C21.3082 1.00793 22.2904 1.22137 23.2973 1.47995L22.7932 4.97012C22.1667 4.75805 21.4387 4.57061 20.6062 4.41191C19.7737 4.25183 18.8849 4.17248 17.9384 4.17248C15.9534 4.18753 14.4615 4.68964 13.4615 5.67745C12.4614 6.66663 11.9614 8.1716 11.9614 10.1937V11.9272H21.5115V15.1889H11.9614V36.606H7.70145L7.70282 36.6046Z" fill="white"/>
<path d="M154.616 9.90096C155.037 9.90096 155.476 9.91327 155.929 9.93789C156.382 9.96252 156.816 10.0022 157.23 10.0597C157.643 10.1171 158.024 10.1855 158.373 10.2663C158.722 10.347 159.009 10.4359 159.237 10.533L158.628 14.9194C157.752 14.7251 156.921 14.5842 156.135 14.4952C155.348 14.4063 154.525 14.3625 153.665 14.3625C151.556 14.3625 149.849 14.8386 148.544 15.7922C147.237 16.7458 146.277 18.0784 145.66 19.79V36.606H141.135V10.388H145.417L145.636 14.5554C146.706 13.1175 147.991 11.9833 149.492 11.1515C150.992 10.3196 152.699 9.90369 154.613 9.90369L154.616 9.90096Z" fill="white"/>
</svg>
