<svg width="166" height="69" viewBox="0 0 166 69" fill="none" xmlns="http://www.w3.org/2000/svg">
<path d="M52.4661 10.5772V27.8049H49.3279V10.5772H52.4661Z" fill="white"/>
<path d="M56.0554 10.8063C57.4276 10.5772 59.1936 10.4436 61.0486 10.4436C64.263 10.4436 66.4801 11.1118 68.0619 12.4355C69.7199 13.7911 70.7427 15.834 70.7427 18.7742C70.7427 21.7144 69.6945 24.1392 68.0619 25.622C66.353 27.1812 63.6214 27.9704 60.2863 27.9704C58.4504 27.9704 57.0718 27.8686 56.0554 27.7413V10.8063ZM59.1936 25.3929C59.6319 25.4693 60.2926 25.4693 60.9279 25.4693C65.0062 25.4947 67.4266 23.2418 67.4266 18.8824C67.452 15.0703 65.2604 12.9065 61.3344 12.9065C60.3434 12.9065 59.6256 12.9828 59.1936 13.0847V25.3929Z" fill="white"/>
<path d="M73.4805 10.8063C74.6557 10.6027 76.4154 10.4436 78.2259 10.4436C80.7034 10.4436 82.3805 10.8509 83.5366 11.8182C84.4832 12.6074 85.0168 13.8102 85.0168 15.2676C85.0168 17.495 83.5112 19.0033 81.9104 19.5825V19.6588C83.1301 20.117 83.8733 21.3199 84.3117 22.9809C84.8453 25.132 85.3027 27.1176 85.6648 27.7858H82.4249C82.1708 27.2703 81.7579 25.8702 81.2815 23.7255C80.7987 21.479 79.9855 20.7662 78.1941 20.7089H76.6123V27.7858H73.5059V10.8063H73.4805ZM76.5869 18.4178H78.4482C80.5636 18.4178 81.8913 17.2914 81.8913 15.5794C81.8913 13.6893 80.5636 12.8174 78.5244 12.8174C77.5334 12.8174 76.8918 12.8937 76.5869 12.9701V18.4178Z" fill="white"/>
<path d="M100.301 27.2894C99.5581 27.6713 97.9254 28.0531 95.8608 28.0531C90.3976 28.0531 87.0815 24.6356 87.0815 19.3915C87.0815 13.7211 91.0075 10.2908 96.2611 10.2908C98.3257 10.2908 99.8058 10.7299 100.447 11.0545L99.7613 13.5556C98.9419 13.1929 97.8238 12.8874 96.3945 12.8874C92.9069 12.8874 90.3785 15.083 90.3785 19.2261C90.3785 23.0064 92.602 25.4311 96.3754 25.4311C97.6523 25.4311 98.98 25.1765 99.7868 24.7947L100.301 27.2894Z" fill="white"/>
<path d="M128.259 27.1749C127.516 27.5567 125.883 27.9386 123.819 27.9386C118.355 27.9386 115.039 24.521 115.039 19.277C115.039 13.6065 118.965 10.1763 124.219 10.1763C126.283 10.1763 127.764 10.6154 128.405 10.94L127.719 13.4411C126.9 13.0783 125.782 12.7728 124.352 12.7728C120.852 12.7728 118.336 14.9685 118.336 19.1115C118.336 22.8918 120.56 25.3166 124.333 25.3166C125.61 25.3166 126.938 25.062 127.745 24.6801L128.259 27.1749Z" fill="white"/>
<path d="M130.934 10.6918C132.109 10.4881 133.868 10.329 135.679 10.329C138.157 10.329 139.834 10.7363 140.99 11.7037C141.936 12.4928 142.47 13.6956 142.47 15.153C142.47 17.3805 140.964 18.8888 139.364 19.4679V19.5443C140.583 20.0025 141.326 21.2053 141.765 22.8664C142.298 25.0174 142.756 27.003 143.118 27.6713H139.878C139.624 27.1558 139.211 25.7557 138.735 23.611C138.245 21.3644 137.439 20.6516 135.647 20.5944H134.065V27.6713H130.959V10.6918H130.934ZM134.046 18.3033H135.908C138.023 18.3033 139.351 17.1768 139.351 15.4649C139.351 13.5747 138.023 12.7028 135.984 12.7028C134.993 12.7028 134.351 12.7792 134.046 12.8556V18.3033Z" fill="white"/>
<path d="M145.443 10.6918C146.815 10.4626 148.581 10.329 150.436 10.329C153.65 10.329 155.868 10.9972 157.449 12.321C159.107 13.6765 160.13 15.7194 160.13 18.6597C160.13 21.5999 159.082 24.0246 157.449 25.5075C155.74 27.0667 153.009 27.8558 149.674 27.8558C147.838 27.8558 146.459 27.754 145.443 27.6267V10.6918ZM148.587 25.2784C149.026 25.3547 149.686 25.3547 150.322 25.3547C154.4 25.3802 156.82 23.1273 156.82 18.7679C156.846 14.9557 154.654 12.7919 150.728 12.7919C149.737 12.7919 149.019 12.8683 148.581 12.9701V25.2784H148.587Z" fill="white"/>
<path d="M166 10.4626V27.6904H162.862V10.4626H166Z" fill="white"/>
<path d="M107.34 21.409C108.41 21.409 109.277 20.5399 109.277 19.4679C109.277 18.3959 108.41 17.5268 107.34 17.5268C106.27 17.5268 105.402 18.3959 105.402 19.4679C105.402 20.5399 106.27 21.409 107.34 21.409Z" fill="white"/>
<path d="M0.666932 23.49C-2.22986 16.8777 4.70084 5.09767 14.2806 1.39374C14.9476 1.13281 19.261 3.92031 19.1149 4.00304C15.7417 6.00138 6.18735 11.6782 0.666932 23.49Z" fill="white"/>
<path d="M18.3272 13.9757L19.6867 11.2073L21.0398 13.8675C21.2049 14.1475 21.3447 14.1284 21.6115 13.9884L22.7677 13.4156L22.0181 17.6414C21.8656 18.3733 22.2785 18.5833 22.7296 18.0933L24.3812 16.324L24.8196 17.3296C24.9657 17.635 25.1944 17.5905 25.4866 17.5268L27.1891 17.1641L26.6173 19.3215V19.3661C26.5411 19.6461 26.4141 19.8879 26.7253 20.0152L27.3161 20.3271L23.8031 23.3118C23.441 23.681 23.5681 23.7955 23.7015 24.2092L24.0318 25.2147L20.7539 24.6165C20.3473 24.5147 20.2393 24.5147 20.233 24.8456L20.3727 27.7922H19.026L19.153 24.852C19.153 24.4828 19.045 24.4892 18.3844 24.6292L15.3542 25.2211L15.7417 24.2156C15.8814 23.8337 15.9068 23.5728 15.6019 23.3182L12.0063 20.378L12.6734 19.9707C12.864 19.8243 12.8703 19.6652 12.775 19.3406L12.1016 17.145L13.8359 17.5141C14.3187 17.6287 14.4521 17.5141 14.5792 17.2468L15.062 16.2604L16.7708 18.1951C17.0757 18.5578 17.5014 18.316 17.3679 17.8069L16.5421 13.2629L17.8126 13.9884C18.0159 14.1093 18.2319 14.1475 18.3526 13.912" fill="white"/>
<path d="M15.9958 0.668232C22.5962 -2.23382 34.3549 4.70946 38.0521 14.3066C38.3126 14.9748 35.5301 19.2961 35.4475 19.1497C33.4465 15.7703 27.7799 6.19867 15.9958 0.668232Z" fill="white"/>
<path d="M38.7319 16.0122C41.6287 22.6245 34.698 34.4045 25.1182 38.1085C24.4512 38.3694 20.1378 35.5819 20.2839 35.4992C23.6571 33.4945 33.2115 27.8177 38.7319 16.0122Z" fill="white"/>
<path d="M23.403 38.7958C16.8027 41.6978 5.04401 34.7546 1.34679 25.1574C1.08633 24.4892 3.86878 20.168 3.95136 20.3143C5.95243 23.6937 11.619 33.2654 23.403 38.7958Z" fill="white"/>
<path d="M120.083 50.9768H122.84V56.5072H120.083V50.9768ZM115.306 53.7388L115.147 53.7897C115.147 53.7897 116.1 54.5852 116.1 54.6425C116.151 54.6934 116.208 54.6934 116.151 54.8525C116.1 55.0116 116.043 55.1707 116.043 55.1707C116.043 55.1707 116.894 55.0116 116.996 54.9607C117.104 54.9607 117.155 54.9607 117.155 55.0689C117.155 55.1771 117.104 56.0808 117.104 56.0808H117.371C117.371 56.0808 117.32 55.1262 117.32 55.0689C117.32 54.9607 117.371 54.9607 117.479 54.9607C117.587 54.9607 118.431 55.1707 118.431 55.1707C118.431 55.1707 118.381 54.9607 118.323 54.8525C118.273 54.6934 118.323 54.6934 118.374 54.6425C118.425 54.5916 119.327 53.7897 119.327 53.7897L119.168 53.7388C119.06 53.6879 119.118 53.6306 119.118 53.5797C119.118 53.5288 119.276 52.9942 119.276 52.9942C119.276 52.9942 118.851 53.1024 118.8 53.1024C118.749 53.1024 118.692 53.1024 118.692 53.0515C118.692 53.0006 118.584 52.7842 118.584 52.7842C118.584 52.7842 118.107 53.3188 118.05 53.3697C117.942 53.4779 117.841 53.3697 117.892 53.2615C117.892 53.1533 118.158 52.0396 118.158 52.0396C118.158 52.0396 117.892 52.1987 117.79 52.2496C117.688 52.3005 117.631 52.3005 117.631 52.1987C117.58 52.0905 117.263 51.505 117.263 51.4541C117.263 51.4541 116.945 52.0905 116.894 52.1987C116.843 52.3069 116.786 52.3069 116.735 52.2496C116.627 52.1987 116.367 52.0396 116.367 52.0396C116.367 52.0396 116.634 53.1533 116.634 53.2615C116.634 53.3697 116.583 53.4206 116.475 53.3697L115.941 52.7842C115.941 52.7842 115.89 52.9433 115.833 52.9942C115.833 53.0451 115.782 53.1024 115.725 53.0451C115.617 53.0451 115.192 52.9369 115.192 52.9369C115.192 52.9369 115.35 53.4715 115.401 53.5224C115.401 53.5733 115.401 53.6815 115.293 53.7324L115.306 53.7388ZM111.749 50.9768H114.506V56.5072H111.749V50.9768Z" fill="white"/>
<path d="M123.425 67.5617C123.215 68.039 122.789 68.1981 122.523 68.1981C122.205 68.1981 121.246 68.1472 121.246 65.6461V60.2748C121.246 58.6264 119.969 57.2963 116.685 57.2963C113.127 57.2963 113.076 59.0528 113.076 59.4792C113.026 59.9566 113.286 60.4911 114.188 60.4911C114.982 60.4911 115.198 59.5874 115.3 59.2692C115.408 58.9001 115.459 57.8309 116.894 57.8309C118.114 57.8309 118.857 58.8937 118.908 60.4339V61.2867V61.3376C118.8 61.8722 118.54 62.1331 118.057 62.3495C117.422 62.6677 115.56 62.935 115.351 62.9859C114.607 63.145 112.536 63.6796 112.594 65.8561C112.644 67.9817 114.772 68.7263 116.253 68.6754C117.688 68.6245 118.533 68.039 118.908 67.7208C119.048 67.6147 119.171 67.6317 119.276 67.7717C119.486 67.9817 120.179 68.6754 121.824 68.6754C123.469 68.6754 123.736 67.8799 123.838 67.6126C123.888 67.4535 123.52 67.2944 123.412 67.5617H123.425ZM116.793 68.1472C115.306 68.1472 114.938 66.9253 114.938 66.2889C114.938 65.7034 115.255 64.4815 116.742 63.6287C116.742 63.6287 117.434 63.2023 118.756 62.674H118.864C118.864 62.674 118.914 62.725 118.914 62.7822V62.8331V62.8841V65.1179C118.914 66.8744 118.063 68.1472 116.793 68.1472ZM111.907 68.0963C111.698 68.0454 110.37 68.2045 110.37 64.1632V51.4541C110.37 51.295 110.37 50.8686 109.894 50.8686C109.417 50.8686 106.235 51.0277 106.019 51.0786C105.809 51.0786 105.65 51.3459 106.019 51.3459C106.387 51.3968 108.09 51.505 108.09 54.3243V58.2064C108.09 58.3146 108.09 58.3655 108.039 58.4164V58.4673C107.988 58.5183 107.931 58.4673 107.772 58.3592C107.505 58.1491 106.285 57.4045 104.748 57.4045C102.251 57.4045 99.1768 59.2119 99.1768 62.935C99.1768 66.9253 101.991 68.8345 104.907 68.8345C106.343 68.8345 107.346 68.1981 107.721 67.9817C108.147 67.7144 108.09 67.7717 108.147 68.1408C108.198 68.4081 108.147 68.9364 108.89 68.8854C109.684 68.7773 111.596 68.5672 111.971 68.5163C112.339 68.3572 112.238 68.1472 111.92 68.0899L111.907 68.0963ZM105.326 68.2554C102.988 68.2554 101.769 65.4934 101.769 62.8331C101.769 59.912 103.414 57.9391 105.167 58.0473C107.448 58.2064 108.032 60.0138 108.083 63.2595V63.9532C108.032 67.1417 106.705 68.2618 105.326 68.2618V68.2554ZM99.1197 67.5617C98.91 68.039 98.4844 68.1981 98.2176 68.1981C97.9 68.1981 96.9407 68.1472 96.9407 65.6461V60.2748C96.9407 58.6264 95.6638 57.2963 92.3795 57.2963C88.8221 57.2963 88.7713 59.0528 88.7713 59.4792C88.7204 59.9566 88.9809 60.4911 89.883 60.4911C90.6771 60.4911 90.893 59.5874 90.9947 59.2692C91.1027 58.9001 91.1535 57.8309 92.5892 57.8309C93.8089 57.8309 94.603 58.8937 94.603 60.4911V61.0257C94.5521 61.8212 94.3362 62.0885 93.7009 62.4067C93.0656 62.725 91.2043 62.9922 90.9947 63.0432C90.2514 63.2023 88.1805 63.7369 88.2376 65.9134C88.2885 68.039 90.4166 68.7836 91.8968 68.7327C93.3324 68.6818 94.1773 68.0963 94.5521 67.7781C94.6919 67.672 94.8147 67.689 94.9206 67.829C95.1302 68.039 95.8227 68.7327 97.468 68.7327C99.1133 68.7327 99.3801 67.9372 99.4818 67.6699C99.5898 67.4599 99.2721 67.3008 99.1133 67.5617H99.1197ZM92.5384 68.1472C91.0518 68.1472 90.6834 66.9253 90.6834 66.2889C90.6834 65.7034 91.001 64.4815 92.4875 63.6287C92.4875 63.6287 93.18 63.2023 94.5013 62.674H94.6093V62.725V62.935V62.8841V65.1688C94.6093 66.868 93.7581 68.1472 92.5384 68.1472ZM87.4436 68.0963C87.0179 67.9881 86.2747 67.5108 86.2747 65.1752V60.9239C86.2747 59.912 86.3827 57.3091 82.3996 57.3091C80.3287 57.3091 79.1598 58.3719 79.0581 58.4228C78.8993 58.5819 78.7913 58.6328 78.7405 58.3719C78.6897 58.1619 78.5817 57.8373 78.5309 57.6273C78.48 57.4682 78.372 57.3091 77.9972 57.36C77.6224 57.4109 75.291 57.7864 74.8654 57.8946C74.497 58.0028 74.5986 58.1619 74.8654 58.2128C75.1322 58.2637 76.4027 58.3719 76.4027 60.5548V65.1242C76.4027 67.7844 75.8691 67.9945 75.3927 68.1536C74.7574 68.3127 75.075 68.5227 75.3419 68.5227H80.1698C80.4875 68.5227 80.6463 68.2045 80.011 68.0963C79.3758 67.9881 78.7913 67.619 78.7913 65.5443V62.6231C78.7913 61.5094 78.5245 58.1046 81.6055 58.0537C83.7845 58.0028 83.9941 59.8102 83.9941 60.9748V65.4934C83.9941 67.3517 83.4605 67.9372 82.8252 68.0454C82.2408 68.1536 82.3488 68.4145 82.6664 68.4145H87.6024C87.8692 68.5227 88.136 68.2554 87.4436 68.0963ZM74.5478 67.5617C74.3381 68.039 73.9125 68.1981 73.6457 68.1981C73.3281 68.1981 72.3688 68.1472 72.3688 65.6461V60.2748C72.3688 58.6264 71.092 57.2963 67.8077 57.2963C64.2502 57.2963 64.1994 59.0528 64.1994 59.4792C64.1486 59.9566 64.409 60.4911 65.3111 60.4911C66.1052 60.4911 66.3211 59.5874 66.4228 59.2692C66.5308 58.9001 66.5816 57.8309 68.0173 57.8309C69.237 57.8309 69.9803 58.8937 70.0311 60.4339V61.0194C70.0311 61.1276 70.0311 61.2294 69.9803 61.2867V61.3376C69.8723 61.8722 69.6118 62.1331 69.129 62.3495C68.4937 62.6677 66.6324 62.935 66.4228 62.9859C65.6795 63.145 63.6086 63.6796 63.6658 65.8561C63.7166 67.9817 65.8447 68.7263 67.3249 68.6754C68.7606 68.6245 69.6055 68.039 69.9803 67.7208C70.12 67.6147 70.2428 67.6317 70.3487 67.7717C70.5583 67.9817 71.2508 68.6754 72.8961 68.6754C74.5414 68.6754 74.8082 67.8799 74.9099 67.6126C75.0179 67.4535 74.6431 67.2944 74.5414 67.5617H74.5478ZM67.9093 68.1472C66.4228 68.1472 66.0543 66.9253 66.0543 66.2889C66.0543 65.6525 66.372 64.4815 67.8585 63.6287C67.8585 63.6287 68.5509 63.2023 69.8723 62.674H69.9803C69.9803 62.674 70.0311 62.725 70.0311 62.7822V62.8904V62.9413V65.1752C70.0311 66.8744 69.1798 68.1536 67.9093 68.1536V68.1472ZM62.8145 63.5205C62.2809 65.2197 61.2772 67.9881 57.6117 68.0899C53.7875 68.1408 51.5069 65.5379 51.4052 60.7012C51.2464 55.5462 53.4762 51.6068 56.9256 51.505C60.8007 51.4541 62.1792 56.0744 62.2301 56.7681C62.2809 57.3027 62.9733 57.2454 62.9733 56.7172C62.9733 56.4499 62.6557 51.8805 62.5477 51.3459C62.4397 50.8113 62.0141 51.0277 61.9124 51.2377C61.8616 51.3968 61.9633 51.0786 61.7536 51.5559C61.544 52.0332 60.9595 51.7659 60.7436 51.715C60.1083 51.4477 58.8886 50.8113 56.9193 50.8622C52.4089 50.9704 47.7906 54.3179 47.8986 60.1666C48.0066 65.8561 52.5678 69.0445 56.8176 68.9936C60.6927 68.9427 62.8653 66.4925 63.5069 63.6796C63.7166 62.9859 63.0305 62.8268 62.8145 63.5205Z" fill="white"/>
</svg>
