<svg width="164" height="83" viewBox="0 0 164 83" fill="none" xmlns="http://www.w3.org/2000/svg">
<g clip-path="url(#clip0_775_115)">
<path d="M4.52905 36.709C5.30154 36.709 5.97938 36.8841 6.56154 37.2342C7.14269 37.5843 7.59458 38.0871 7.9162 38.7425C8.23782 39.398 8.39862 40.1928 8.39862 41.1292C8.39862 42.0656 8.23374 42.8391 7.90399 43.522C7.57524 44.2059 7.11623 44.7392 6.52999 45.1209C5.94375 45.5036 5.27304 45.6949 4.51582 45.6949C3.75859 45.6949 3.06549 45.5199 2.48332 45.1698C1.90116 44.8196 1.44926 44.3148 1.12867 43.6563C0.807049 42.9968 0.64624 42.204 0.64624 41.2758C0.64624 40.3475 0.813155 39.5659 1.14698 38.883C1.48081 38.199 1.93881 37.6667 2.51996 37.284C3.10213 36.9014 3.77182 36.71 4.52905 36.71V36.709ZM4.48019 36.9288C3.95095 36.9288 3.49092 37.112 3.10009 37.4784C2.70927 37.8448 2.40699 38.3497 2.19122 38.9919C1.97545 39.6351 1.86757 40.3801 1.86757 41.2259C1.86757 42.0717 1.98767 42.8391 2.22786 43.4782C2.46806 44.1174 2.79374 44.61 3.20492 44.955C3.61509 45.3011 4.06901 45.4741 4.56569 45.4741C5.09493 45.4741 5.55496 45.2909 5.94477 44.9245C6.3356 44.5581 6.63889 44.0522 6.85466 43.4049C7.07043 42.7576 7.17831 42.0157 7.17831 41.177C7.17831 40.3384 7.0572 39.5537 6.81802 38.9186C6.57783 38.2835 6.25417 37.7929 5.84706 37.4469C5.43996 37.1009 4.98399 36.9278 4.48019 36.9278V36.9288Z" fill="#EBEBEB"/>
<path d="M11.1212 35.964V44.8878C11.0153 44.9774 10.9074 45.069 10.7975 45.1626C10.6876 45.2563 10.5797 45.3479 10.4739 45.4374C10.368 45.527 10.2581 45.6206 10.1441 45.7184L9.93647 45.6329C9.96904 45.5189 9.99143 45.4028 10.0036 45.2848C10.0159 45.1667 10.022 45.0466 10.022 44.9245V37.4286C10.022 37.0622 9.95682 36.7915 9.82655 36.6164C9.69627 36.4413 9.45201 36.3538 9.09375 36.3538V36.0973C9.3543 36.1218 9.60671 36.134 9.85097 36.134C10.0952 36.134 10.313 36.1197 10.5288 36.0912C10.7446 36.0627 10.942 36.02 11.1212 35.963V35.964ZM13.0254 39.0652C13.6931 39.0652 14.2457 39.34 14.6854 39.8896C15.1251 40.4392 15.3449 41.2707 15.3449 42.3862C15.3449 43.119 15.2207 43.7306 14.9734 44.2232C14.7241 44.7158 14.3933 45.0843 13.978 45.3285C13.5638 45.5728 13.1119 45.6949 12.6234 45.6949C12.2163 45.6949 11.8234 45.5789 11.4458 45.3469C11.0672 45.1148 10.7843 44.7708 10.597 44.3159L10.8413 44.4502C11.0448 44.7759 11.2972 45.0181 11.5975 45.1769C11.8987 45.3357 12.2081 45.4151 12.5257 45.4151C13.0712 45.4151 13.4804 45.1688 13.7531 44.6762C14.0259 44.1846 14.1623 43.4212 14.1623 42.3872C14.1623 41.7277 14.1093 41.1791 14.0035 40.7394C13.8976 40.2997 13.7348 39.972 13.515 39.7573C13.2951 39.5415 13.0142 39.4336 12.6722 39.4336C12.2977 39.4336 11.9496 39.6025 11.629 39.9404C11.3074 40.2783 11.11 40.773 11.0367 41.4244L10.8901 41.2534C10.9787 40.5623 11.2219 40.0249 11.6168 39.6422C12.0117 39.2596 12.4809 39.0682 13.0264 39.0682L13.0254 39.0652Z" fill="#EBEBEB"/>
<path d="M18.4581 39.0652C18.7828 39.0652 19.0596 39.1181 19.2876 39.2239C19.5156 39.3298 19.6825 39.4275 19.7884 39.5171C20.056 39.7369 20.2199 39.5903 20.2759 39.0774H20.5568C20.5405 39.3054 20.5283 39.5761 20.5202 39.8896C20.512 40.203 20.5079 40.6234 20.5079 41.1526H20.227C20.1782 40.8514 20.0947 40.5593 19.9767 40.2733C19.8586 39.9883 19.6866 39.7542 19.4576 39.571C19.2296 39.3878 18.9324 39.2962 18.566 39.2962C18.2811 39.2962 18.0429 39.3756 17.8515 39.5344C17.6612 39.6931 17.5656 39.9272 17.5656 40.2366C17.5656 40.4809 17.6388 40.6906 17.7854 40.8646C17.932 41.0397 18.1233 41.2025 18.3594 41.3531C18.5955 41.5038 18.852 41.6686 19.1289 41.8478C19.4372 42.0432 19.7192 42.2427 19.9706 42.4462C20.223 42.6498 20.4245 42.8737 20.5751 43.1169C20.7257 43.3612 20.8011 43.6502 20.8011 43.9841C20.8011 44.3586 20.7034 44.6721 20.5079 44.9235C20.3125 45.1759 20.0581 45.3672 19.7456 45.4975C19.4322 45.6278 19.0881 45.6929 18.7146 45.6929C18.5355 45.6929 18.3665 45.6787 18.2078 45.6502C18.049 45.6217 17.8974 45.5789 17.7508 45.5219C17.6694 45.4812 17.5859 45.4324 17.5004 45.3754C17.4149 45.3184 17.3315 45.2573 17.25 45.1922C17.1686 45.127 17.0953 45.1291 17.0302 45.1983C16.9651 45.2675 16.9162 45.4039 16.8836 45.6074H16.6038C16.619 45.3469 16.6323 45.0293 16.6404 44.6548C16.6485 44.2813 16.6526 43.7846 16.6526 43.1658H16.9325C16.9895 43.6217 17.0709 44.0207 17.1768 44.3627C17.2816 44.7047 17.4495 44.9713 17.6765 45.1616C17.9045 45.353 18.222 45.4486 18.6291 45.4486C18.792 45.4486 18.9558 45.412 19.1238 45.3387C19.2907 45.2655 19.4311 45.1433 19.5451 44.9723C19.6591 44.8013 19.7161 44.5734 19.7161 44.2884C19.7161 43.9301 19.5858 43.638 19.3253 43.409C19.0647 43.1811 18.735 42.9409 18.336 42.6884C18.0429 42.5012 17.7681 42.3139 17.5116 42.1266C17.2551 41.9394 17.0485 41.7277 16.8887 41.4915C16.73 41.2554 16.6516 40.9704 16.6516 40.6366C16.6516 40.2702 16.7351 39.971 16.902 39.7389C17.0689 39.5069 17.2908 39.3369 17.5676 39.227C17.8444 39.1171 18.1416 39.0621 18.4592 39.0621L18.4581 39.0652Z" fill="#EBEBEB"/>
<path d="M24.6963 39.0652C25.4118 39.0652 25.9716 39.283 26.3746 39.7186C26.7776 40.1542 26.9781 40.832 26.9781 41.7511H22.6689L22.6567 41.519H25.8067C25.8219 41.1201 25.7904 40.7516 25.709 40.4137C25.6275 40.0758 25.4993 39.8051 25.3242 39.6015C25.1492 39.398 24.9232 39.2962 24.6464 39.2962C24.2719 39.2962 23.9401 39.4835 23.651 39.857C23.362 40.2315 23.189 40.8259 23.132 41.6391L23.1686 41.688C23.1523 41.8101 23.1401 41.9445 23.132 42.091C23.1238 42.2376 23.1208 42.3841 23.1208 42.5307C23.1208 43.0844 23.2093 43.5597 23.3884 43.9586C23.5665 44.3576 23.8017 44.6609 24.0907 44.8685C24.3787 45.0761 24.678 45.18 24.9874 45.18C25.2316 45.18 25.4637 45.1413 25.6835 45.0639C25.9034 44.9866 26.1069 44.8583 26.2942 44.6792C26.4804 44.5011 26.6433 44.2599 26.7817 43.9586L27.026 44.0563C26.9364 44.325 26.7898 44.5856 26.5863 44.838C26.3827 45.0904 26.1263 45.296 25.8168 45.4548C25.5074 45.6135 25.1492 45.6929 24.7431 45.6929C24.1569 45.6929 23.6541 45.5586 23.2348 45.2909C22.8154 45.0222 22.4948 44.6497 22.2709 44.1734C22.047 43.6971 21.9351 43.1505 21.9351 42.5317C21.9351 41.8152 22.049 41.1984 22.277 40.6824C22.505 40.1654 22.8256 39.7664 23.2409 39.4855C23.6561 39.2046 24.1396 39.0642 24.6932 39.0642L24.6963 39.0652Z" fill="#EBEBEB"/>
<path d="M31.7038 39.0651C31.9236 39.0651 32.117 39.1099 32.2839 39.1995C32.4508 39.2891 32.5811 39.4051 32.6747 39.5476C32.7684 39.6901 32.8152 39.8509 32.8152 40.03C32.8152 40.2335 32.7521 40.4127 32.6259 40.5674C32.4997 40.7221 32.3307 40.7994 32.119 40.7994C31.948 40.7994 31.7974 40.7445 31.6671 40.6345C31.5369 40.5246 31.4717 40.3679 31.4717 40.1643C31.4717 40.0096 31.5145 39.8773 31.6 39.7674C31.6854 39.6575 31.7811 39.57 31.887 39.5048C31.83 39.4234 31.7445 39.3827 31.6305 39.3827C31.3781 39.3827 31.146 39.458 30.9343 39.6086C30.7226 39.7593 30.5435 39.9526 30.398 40.1888C30.2514 40.4249 30.1374 40.6753 30.056 40.9399C29.9746 41.2045 29.9339 41.4508 29.9339 41.6778V44.266C29.9339 44.6649 30.0499 44.9316 30.2819 45.0659C30.514 45.2003 30.8295 45.2675 31.2285 45.2675V45.5239C31.0412 45.5158 30.7766 45.5056 30.4346 45.4934C30.0926 45.4812 29.7303 45.4751 29.3476 45.4751C29.0708 45.4751 28.797 45.4812 28.5242 45.4934C28.2515 45.5056 28.0459 45.5168 27.9075 45.5239V45.2675C28.2403 45.2675 28.4795 45.2064 28.6219 45.0843C28.7644 44.9621 28.8357 44.7301 28.8357 44.3891V40.5674C28.8357 40.201 28.7705 39.9303 28.6403 39.7552C28.51 39.5801 28.2667 39.4926 27.9085 39.4926V39.2361C28.169 39.2606 28.4204 39.2728 28.6657 39.2728C28.911 39.2728 29.1268 39.2585 29.3435 39.23C29.5593 39.2015 29.7568 39.1588 29.9359 39.1018V40.6274C30.0255 40.3913 30.1537 40.1531 30.3206 39.914C30.4875 39.6748 30.689 39.4723 30.9252 39.3094C31.1613 39.1466 31.4218 39.0651 31.7068 39.0651H31.7038Z" fill="#EBEBEB"/>
<path d="M38.9187 39.2351V39.4794C38.764 39.4957 38.6216 39.5649 38.4913 39.687C38.361 39.8091 38.2389 40.0249 38.1249 40.3333L36.1229 45.583H35.9153L33.6691 40.1755C33.5388 39.858 33.4105 39.6646 33.2843 39.5954C33.1581 39.5262 33.0503 39.4916 32.9607 39.4916V39.2351C33.1235 39.2432 33.2925 39.2534 33.4675 39.2656C33.6426 39.2778 33.8319 39.284 34.0355 39.284C34.2879 39.284 34.5545 39.2799 34.8354 39.2717C35.1163 39.2636 35.3789 39.2514 35.6232 39.2351V39.4916C35.4196 39.4916 35.2385 39.5058 35.0797 39.5343C34.9209 39.5628 34.8191 39.6422 34.7744 39.7725C34.7296 39.9028 34.7683 40.1267 34.8904 40.4432L36.416 44.2151L36.3428 44.2761L37.7341 40.6264C37.8399 40.3577 37.8826 40.144 37.8623 39.9852C37.8419 39.8264 37.7605 39.7063 37.619 39.6249C37.4766 39.5435 37.2588 39.4946 36.9656 39.4784V39.2341C37.1122 39.2422 37.2384 39.2483 37.3442 39.2524C37.4491 39.2565 37.5539 39.2605 37.6557 39.2646C37.7575 39.2687 37.8694 39.2707 37.9905 39.2707C38.1778 39.2707 38.3468 39.2667 38.4974 39.2585C38.647 39.2504 38.7874 39.2422 38.9177 39.2341L38.9187 39.2351Z" fill="#EBEBEB"/>
<path d="M40.9705 45.6084C40.6367 45.6084 40.3476 45.5453 40.1034 45.4191C39.8601 45.2929 39.6739 45.1158 39.5487 44.8879C39.4225 44.6599 39.3594 44.3953 39.3594 44.094C39.3594 43.7357 39.4428 43.4426 39.6097 43.2146C39.7767 42.9867 39.9904 42.8035 40.2509 42.665C40.5115 42.5266 40.7863 42.4106 41.0743 42.317C41.3634 42.2233 41.6382 42.1338 41.8987 42.0493C42.1593 41.9638 42.373 41.864 42.5399 41.7501C42.7068 41.6361 42.7903 41.4854 42.7903 41.2982V40.5409C42.7903 40.199 42.7394 39.9384 42.6386 39.7593C42.5369 39.5812 42.4005 39.4601 42.2295 39.399C42.0585 39.3379 41.8672 39.3074 41.6555 39.3074C41.4438 39.3074 41.2351 39.3359 41.0021 39.3929C40.77 39.4499 40.5848 39.568 40.4464 39.7471C40.6011 39.7796 40.7354 39.8611 40.8494 39.9913C40.9634 40.1216 41.0204 40.2885 41.0204 40.4921C41.0204 40.6956 40.9552 40.8565 40.825 40.9745C40.6947 41.0926 40.5278 41.1516 40.3242 41.1516C40.0881 41.1516 39.9151 41.0763 39.8052 40.9257C39.6952 40.775 39.6403 40.6061 39.6403 40.4188C39.6403 40.2071 39.6932 40.0361 39.7991 39.9059C39.9049 39.7756 40.0392 39.6534 40.2021 39.5395C40.3894 39.4102 40.6316 39.2982 40.9288 39.2046C41.226 39.111 41.5618 39.0642 41.9364 39.0642C42.2692 39.0642 42.5542 39.1028 42.7903 39.1802C43.0264 39.2575 43.2218 39.3695 43.3765 39.516C43.5882 39.7115 43.7266 39.9496 43.7918 40.2295C43.8559 40.5104 43.8895 40.8463 43.8895 41.2361V44.6304C43.8895 44.8339 43.92 44.9805 43.9811 45.07C44.0422 45.1606 44.1388 45.2044 44.2681 45.2044C44.3577 45.2044 44.4432 45.185 44.5246 45.1433C44.606 45.1026 44.7037 45.0375 44.8177 44.9479L44.951 45.1555C44.78 45.2858 44.6182 45.3937 44.4635 45.4792C44.3088 45.5647 44.1012 45.6074 43.8406 45.6074C43.6045 45.6074 43.4091 45.5667 43.2544 45.4853C43.0997 45.4039 42.9837 45.2838 42.9063 45.125C42.8279 44.9662 42.7893 44.7647 42.7893 44.5204C42.5694 44.8868 42.3068 45.1596 42.0015 45.3387C41.6962 45.5179 41.3532 45.6074 40.9705 45.6074V45.6084ZM41.4092 45.1199C41.6768 45.1199 41.9282 45.0426 42.1603 44.8879C42.3913 44.7332 42.601 44.5011 42.7883 44.1917V41.7989C42.6905 41.9373 42.5491 42.0534 42.3608 42.147C42.1735 42.2406 41.97 42.3343 41.7501 42.4279C41.5303 42.5215 41.3206 42.6315 41.1211 42.7577C40.9217 42.8839 40.7568 43.0487 40.6265 43.2523C40.4962 43.4558 40.4311 43.7205 40.4311 44.0462C40.4311 44.3718 40.5186 44.6324 40.6937 44.8278C40.8687 45.0232 41.1069 45.1209 41.4082 45.1209L41.4092 45.1199Z" fill="#EBEBEB"/>
<path d="M47.2819 37.2087V39.2473H49.0885V39.4916H47.2819V44.2161C47.2819 44.5988 47.3511 44.8675 47.4896 45.0222C47.628 45.1769 47.8183 45.2542 48.0636 45.2542C48.3089 45.2542 48.5185 45.1545 48.6976 44.955C48.8768 44.7555 49.0315 44.4197 49.1618 43.9474L49.405 44.0085C49.3236 44.4807 49.1628 44.8787 48.9226 45.2044C48.6824 45.5301 48.3139 45.6929 47.8173 45.6929C47.5404 45.6929 47.3125 45.6583 47.1343 45.5891C46.9552 45.5199 46.7954 45.4201 46.658 45.2899C46.4789 45.1026 46.3547 44.8787 46.2855 44.6181C46.2163 44.3576 46.1817 44.0126 46.1817 43.58V39.4906H45.0103V39.2463H46.1817V37.3777C46.3853 37.3695 46.5807 37.3533 46.768 37.3288C46.9552 37.3044 47.1262 37.2637 47.2809 37.2067L47.2819 37.2087Z" fill="#EBEBEB"/>
<path d="M52.6278 39.0651C53.1489 39.0651 53.6171 39.1791 54.0314 39.4071C54.4466 39.6351 54.7784 39.9933 55.0267 40.4809C55.2751 40.9694 55.3992 41.6045 55.3992 42.3851C55.3992 43.1658 55.2751 43.7988 55.0267 44.2833C54.7784 44.7677 54.4466 45.1239 54.0314 45.3519C53.6161 45.5799 53.1479 45.6939 52.6278 45.6939C52.1078 45.6939 51.6487 45.5799 51.2294 45.3519C50.8101 45.1239 50.4763 44.7677 50.2279 44.2833C49.9796 43.7988 49.8564 43.1668 49.8564 42.3851C49.8564 41.6035 49.9806 40.9694 50.2279 40.4809C50.4763 39.9923 50.8101 39.6341 51.2294 39.4071C51.6487 39.1791 52.1149 39.0651 52.6278 39.0651ZM52.6278 39.3094C52.1637 39.3094 51.7831 39.5496 51.4869 40.03C51.1897 40.5104 51.0411 41.2961 51.0411 42.3861C51.0411 43.4762 51.1897 44.2599 51.4869 44.7362C51.7841 45.2125 52.1648 45.4496 52.6278 45.4496C53.0909 45.4496 53.4716 45.2115 53.7688 44.7362C54.066 44.2599 54.2146 43.4762 54.2146 42.3861C54.2146 41.2961 54.066 40.5104 53.7688 40.03C53.4716 39.5496 53.0909 39.3094 52.6278 39.3094Z" fill="#EBEBEB"/>
<path d="M60.1239 39.0651C60.3438 39.0651 60.5371 39.1099 60.7041 39.1995C60.871 39.2891 61.0013 39.4051 61.0949 39.5476C61.1885 39.6901 61.2353 39.8509 61.2353 40.03C61.2353 40.2335 61.1722 40.4127 61.046 40.5674C60.9198 40.7221 60.7499 40.7994 60.5392 40.7994C60.3682 40.7994 60.2176 40.7445 60.0873 40.6345C59.957 40.5246 59.8919 40.3679 59.8919 40.1643C59.8919 40.0096 59.9346 39.8773 60.0201 39.7674C60.1056 39.6575 60.2013 39.57 60.3071 39.5048C60.2501 39.4234 60.1646 39.3827 60.0507 39.3827C59.7982 39.3827 59.5662 39.458 59.3555 39.6086C59.1438 39.7593 58.9647 39.9526 58.8181 40.1888C58.6716 40.4249 58.5576 40.6753 58.4762 40.9399C58.3947 41.2045 58.354 41.4508 58.354 41.6778V44.266C58.354 44.6649 58.4701 44.9316 58.7021 45.0659C58.9342 45.2003 59.2486 45.2675 59.6486 45.2675V45.5239C59.4614 45.5158 59.1967 45.5056 58.8548 45.4934C58.5128 45.4812 58.1505 45.4751 57.7678 45.4751C57.491 45.4751 57.2162 45.4812 56.9444 45.4934C56.6716 45.5056 56.4661 45.5168 56.3276 45.5239V45.2675C56.6604 45.2675 56.8996 45.2064 57.0411 45.0843C57.1836 44.9621 57.2548 44.7301 57.2548 44.3891V40.5674C57.2548 40.201 57.1897 39.9303 57.0594 39.7552C56.9291 39.5801 56.6849 39.4926 56.3276 39.4926V39.2361C56.5882 39.2606 56.8396 39.2728 57.0838 39.2728C57.3281 39.2728 57.5459 39.2585 57.7617 39.23C57.9775 39.2015 58.1749 39.1588 58.354 39.1018V40.6274C58.4436 40.3913 58.5718 40.1531 58.7387 39.914C58.9057 39.6738 59.1072 39.4723 59.3423 39.3094C59.5784 39.1466 59.839 39.0651 60.1239 39.0651Z" fill="#EBEBEB"/>
<path d="M63.786 39.1008V44.3871C63.786 44.7291 63.8572 44.9601 63.9997 45.0822C64.1412 45.2044 64.3794 45.2654 64.7132 45.2654V45.5219C64.5748 45.5138 64.3651 45.5036 64.0852 45.4914C63.8043 45.4792 63.5214 45.4731 63.2364 45.4731C62.9514 45.4731 62.6787 45.4792 62.3937 45.4914C62.1087 45.5036 61.897 45.5148 61.7586 45.5219V45.2654C62.0924 45.2654 62.3306 45.2044 62.472 45.0822C62.6145 44.9601 62.6858 44.7281 62.6858 44.3871V40.5654C62.6858 40.199 62.6206 39.9282 62.4904 39.7532C62.3601 39.5781 62.1158 39.4906 61.7576 39.4906V39.2341C62.0181 39.2585 62.2705 39.2708 62.5138 39.2708C62.757 39.2708 62.9758 39.2565 63.1916 39.228C63.4074 39.1995 63.6048 39.1568 63.784 39.0998L63.786 39.1008ZM63.1509 36.1838C63.3626 36.1838 63.5458 36.2612 63.7005 36.4159C63.8552 36.5706 63.9326 36.7538 63.9326 36.9655C63.9326 37.1772 63.8552 37.3604 63.7005 37.5151C63.5458 37.6698 63.3626 37.7471 63.1509 37.7471C62.9392 37.7471 62.756 37.6698 62.6013 37.5151C62.4476 37.3614 62.3693 37.1772 62.3693 36.9655C62.3693 36.7538 62.4466 36.5706 62.6013 36.4159C62.756 36.2612 62.9392 36.1838 63.1509 36.1838Z" fill="#EBEBEB"/>
<path d="M68.3273 39.0651C68.8484 39.0651 69.3165 39.1791 69.7318 39.4071C70.147 39.6351 70.4788 39.9933 70.7272 40.4809C70.9755 40.9694 71.0997 41.6045 71.0997 42.3851C71.0997 43.1658 70.9755 43.7988 70.7272 44.2833C70.4788 44.7677 70.147 45.1239 69.7318 45.3519C69.3165 45.5799 68.8484 45.6939 68.3273 45.6939C67.8062 45.6939 67.3492 45.5799 66.9299 45.3519C66.5105 45.1239 66.1767 44.7677 65.9294 44.2833C65.68 43.7988 65.5569 43.1668 65.5569 42.3851C65.5569 41.6035 65.6811 40.9694 65.9294 40.4809C66.1777 39.9923 66.5105 39.6341 66.9299 39.4071C67.3492 39.1791 67.8153 39.0651 68.3273 39.0651ZM68.3273 39.3094C67.8642 39.3094 67.4835 39.5496 67.1863 40.03C66.8892 40.5104 66.7406 41.2961 66.7406 42.3861C66.7406 43.4762 66.8892 44.2599 67.1863 44.7362C67.4835 45.2125 67.8642 45.4496 68.3273 45.4496C68.7904 45.4496 69.172 45.2115 69.4692 44.7362C69.7664 44.2599 69.914 43.4762 69.914 42.3861C69.914 41.2961 69.7664 40.5104 69.4692 40.03C69.172 39.5496 68.7914 39.3094 68.3273 39.3094Z" fill="#EBEBEB"/>
<path d="M78.0561 39.0652C78.4144 39.0652 78.7502 39.1507 79.0637 39.3217C79.3762 39.4926 79.5868 39.7858 79.6917 40.201L79.5329 40.3232C79.4179 39.9812 79.2418 39.7328 79.0016 39.5781C78.7614 39.4234 78.4785 39.3461 78.1528 39.3461C77.6724 39.3461 77.2714 39.5944 76.9508 40.0911C76.6292 40.5878 76.4724 41.3531 76.4806 42.3862C76.4806 43.0457 76.5437 43.5933 76.6699 44.0289C76.7961 44.4645 76.9824 44.7902 77.2307 45.0059C77.479 45.2217 77.7823 45.3296 78.1406 45.3296C78.4988 45.3296 78.7909 45.183 79.0678 44.8899C79.3446 44.5968 79.5115 44.1652 79.5685 43.5963L79.7151 43.7673C79.6499 44.3861 79.4525 44.8614 79.1227 45.1952C78.793 45.5291 78.3482 45.696 77.7864 45.696C77.2816 45.696 76.8399 45.5738 76.4623 45.3296C76.0837 45.0853 75.7946 44.7189 75.5951 44.2314C75.3956 43.7439 75.2959 43.1281 75.2959 42.3872C75.2959 41.6463 75.4241 41.0305 75.6806 40.5379C75.9371 40.0463 76.275 39.6769 76.6943 39.4326C77.1136 39.1883 77.5676 39.0662 78.0551 39.0662L78.0561 39.0652ZM80.6199 35.9518V44.1917C80.6199 44.5581 80.6881 44.8288 80.8214 45.0039C80.9547 45.1789 81.1969 45.2665 81.5471 45.2665V45.523C81.2947 45.4985 81.0422 45.4863 80.7898 45.4863C80.5537 45.4863 80.3288 45.4985 80.113 45.523C79.8973 45.5474 79.6998 45.5922 79.5207 45.6573V37.4174C79.5207 37.051 79.4555 36.7803 79.3253 36.6052C79.195 36.4302 78.9507 36.3426 78.5925 36.3426V36.0862C78.853 36.1106 79.1054 36.1228 79.3497 36.1228C79.594 36.1228 79.8118 36.1086 80.0275 36.0801C80.2423 36.0516 80.4397 36.0088 80.6189 35.9518H80.6199Z" fill="#EBEBEB"/>
<path d="M85.1255 39.0652C85.841 39.0652 86.4007 39.283 86.8038 39.7186C87.2068 40.1542 87.4073 40.832 87.4073 41.7511H83.0981L83.0859 41.519H86.2359C86.2511 41.1201 86.2196 40.7516 86.1382 40.4137C86.0567 40.0758 85.9285 39.8051 85.7534 39.6015C85.5784 39.398 85.3524 39.2962 85.0756 39.2962C84.7011 39.2962 84.3693 39.4835 84.0802 39.857C83.7912 40.2315 83.6182 40.8259 83.5612 41.6391L83.5978 41.688C83.5815 41.8101 83.5693 41.9445 83.5612 42.091C83.553 42.2376 83.55 42.3841 83.55 42.5307C83.55 43.0844 83.6385 43.5597 83.8176 43.9586C83.9957 44.3576 84.2309 44.6609 84.5199 44.8685C84.8079 45.0761 85.1072 45.18 85.4166 45.18C85.6608 45.18 85.8929 45.1413 86.1127 45.0639C86.3326 44.9866 86.5361 44.8583 86.7234 44.6792C86.9096 44.5011 87.0725 44.2599 87.2109 43.9586L87.4552 44.0563C87.3656 44.325 87.219 44.5856 87.0155 44.838C86.8119 45.0904 86.5555 45.296 86.246 45.4548C85.9366 45.6135 85.5784 45.6929 85.1723 45.6929C84.5861 45.6929 84.0833 45.5586 83.664 45.2909C83.2446 45.0222 82.924 44.6497 82.7001 44.1734C82.4762 43.6971 82.3643 43.1505 82.3643 42.5317C82.3643 41.8152 82.4782 41.1984 82.7062 40.6824C82.9342 40.1654 83.2548 39.7664 83.6701 39.4855C84.0853 39.2046 84.5688 39.0642 85.1224 39.0642L85.1255 39.0652Z" fill="#EBEBEB"/>
<path d="M3.34439 51.3049C3.70265 51.3049 4.03851 51.3904 4.35199 51.5614C4.66444 51.7324 4.87512 52.0255 4.97995 52.4408L4.82118 52.5629C4.70719 52.2209 4.5301 51.9726 4.2899 51.8179C4.04971 51.6632 3.76677 51.5858 3.4421 51.5858C2.96171 51.5858 2.5607 51.8342 2.24011 52.3308C1.91849 52.8275 1.76175 53.5929 1.76989 54.6259C1.76989 55.2854 1.833 55.833 1.9592 56.2686C2.0854 56.7042 2.27267 57.0299 2.51999 57.2457C2.76833 57.4614 3.07163 57.5693 3.42988 57.5693C3.78814 57.5693 4.08024 57.4227 4.35707 57.1296C4.63391 56.8365 4.80082 56.405 4.85782 55.836L5.00438 56.007C4.93924 56.6258 4.74179 57.1011 4.41203 57.435C4.08228 57.7688 3.63649 57.9357 3.0757 57.9357C2.57088 57.9357 2.12917 57.8136 1.75157 57.5693C1.37296 57.325 1.08391 56.9586 0.884431 56.4711C0.684947 55.9826 0.585205 55.3679 0.585205 54.6269C0.585205 53.886 0.713445 53.2702 0.969924 52.7776C1.2264 52.2861 1.5643 51.9166 1.98363 51.6723C2.40295 51.4281 2.85688 51.3059 3.34439 51.3059V51.3049ZM5.90816 48.1915V56.4314C5.90816 56.7978 5.97533 57.0686 6.10968 57.2436C6.24403 57.4187 6.48524 57.5062 6.83637 57.5062V57.7627C6.58396 57.7383 6.33156 57.7261 6.07915 57.7261C5.84302 57.7261 5.61708 57.7383 5.40131 57.7627C5.18554 57.7871 4.98809 57.8319 4.80897 57.897V49.6571C4.80897 49.2907 4.74383 49.02 4.61355 48.845C4.48328 48.6699 4.23901 48.5824 3.88076 48.5824V48.3259C4.14131 48.3503 4.39371 48.3625 4.63696 48.3625C4.88021 48.3625 5.09903 48.3483 5.3148 48.3198C5.53057 48.2913 5.72802 48.2485 5.90714 48.1915H5.90816Z" fill="#EBEBEB"/>
<path d="M9.18047 57.8482C8.84664 57.8482 8.55759 57.7851 8.31435 57.6589C8.07008 57.5327 7.88485 57.3556 7.75864 57.1276C7.63244 56.8996 7.56934 56.635 7.56934 56.3337C7.56934 55.9755 7.65279 55.6824 7.81971 55.4544C7.98662 55.2264 8.19934 55.0432 8.46091 54.9048C8.72146 54.7664 8.99524 54.6503 9.2853 54.5567C9.57333 54.4631 9.84915 54.3735 10.1087 54.289C10.3692 54.2035 10.583 54.1038 10.7499 53.9898C10.9168 53.8758 11.0003 53.7252 11.0003 53.5379V52.7807C11.0003 52.4387 10.9494 52.1782 10.8476 51.999C10.7458 51.8209 10.6104 51.6998 10.4384 51.6387C10.2675 51.5777 10.0761 51.5471 9.86543 51.5471C9.65475 51.5471 9.44408 51.5756 9.21202 51.6326C8.97997 51.6896 8.79474 51.8077 8.65632 51.9868C8.81102 52.0194 8.94435 52.1008 9.05936 52.2311C9.17335 52.3614 9.23034 52.5283 9.23034 52.7318C9.23034 52.9354 9.1652 53.0962 9.03493 53.2142C8.90465 53.3323 8.73774 53.3913 8.53418 53.3913C8.29806 53.3913 8.12504 53.316 8.01512 53.1654C7.9052 53.0148 7.85024 52.8458 7.85024 52.6585C7.85024 52.4468 7.90317 52.2759 8.01003 52.1456C8.11486 52.0153 8.24921 51.8932 8.41205 51.7792C8.59932 51.6499 8.84155 51.538 9.13874 51.4443C9.43593 51.3507 9.7718 51.3039 10.1453 51.3039C10.4792 51.3039 10.7641 51.3426 11.0003 51.4199C11.2364 51.4973 11.4318 51.6092 11.5865 51.7558C11.7982 51.9512 11.9366 52.1894 12.0017 52.4692C12.0669 52.7501 12.0994 53.086 12.0994 53.4758V56.8701C12.0994 57.0736 12.13 57.2202 12.191 57.3098C12.2521 57.4004 12.3468 57.4441 12.477 57.4441C12.5666 57.4441 12.6521 57.4248 12.7335 57.3831C12.8149 57.3423 12.9116 57.2772 13.0266 57.1876L13.161 57.3953C12.99 57.5255 12.8272 57.6334 12.6725 57.7189C12.5178 57.8044 12.3101 57.8472 12.0496 57.8472C11.8135 57.8472 11.618 57.8064 11.4633 57.725C11.3097 57.6436 11.1926 57.5235 11.1153 57.3647C11.0379 57.206 10.9992 57.0044 10.9992 56.7602C10.7794 57.1266 10.5168 57.3993 10.2115 57.5785C9.90614 57.7576 9.56214 57.8472 9.17945 57.8472L9.18047 57.8482ZM9.62015 57.3596C9.88884 57.3596 10.1392 57.2823 10.3713 57.1276C10.6033 56.9729 10.813 56.7408 11.0003 56.4314V54.0386C10.9025 54.1771 10.7601 54.2931 10.5728 54.3867C10.3855 54.4804 10.182 54.574 9.96212 54.6676C9.74228 54.7613 9.53262 54.8712 9.33416 54.9974C9.13467 55.1236 8.96979 55.2885 8.83952 55.492C8.70924 55.6956 8.6441 55.9602 8.6441 56.2859C8.6441 56.6116 8.73163 56.8721 8.90669 57.0675C9.08175 57.263 9.31991 57.3607 9.62117 57.3607L9.62015 57.3596Z" fill="#EBEBEB"/>
<path d="M15.4917 49.4485V51.4871H17.2982V51.7313H15.4917V56.4558C15.4917 56.8385 15.5609 57.1072 15.6993 57.2619C15.8377 57.4166 16.0291 57.494 16.2733 57.494C16.5176 57.494 16.7293 57.3942 16.9084 57.1947C17.0865 56.9953 17.2412 56.6594 17.3715 56.1872L17.6158 56.2482C17.5344 56.7205 17.3735 57.1184 17.1334 57.4441C16.8932 57.7698 16.5237 57.9326 16.028 57.9326C15.7512 57.9326 15.5232 57.898 15.3441 57.8288C15.165 57.7596 15.0062 57.6599 14.8678 57.5296C14.6887 57.3423 14.5645 57.1184 14.4953 56.8579C14.4261 56.5973 14.3915 56.2523 14.3915 55.8197V51.7303H13.219V51.4861H14.3915V49.6174C14.595 49.6093 14.7904 49.593 14.9777 49.5686C15.165 49.5441 15.3349 49.5034 15.4907 49.4464L15.4917 49.4485Z" fill="#EBEBEB"/>
<path d="M20.838 51.3049C21.3591 51.3049 21.8273 51.4189 22.2425 51.6469C22.6578 51.8748 22.9896 52.2331 23.2379 52.7206C23.4863 53.2091 23.6104 53.8442 23.6104 54.6249C23.6104 55.4055 23.4863 56.0385 23.2379 56.523C22.9896 57.0075 22.6578 57.3637 22.2425 57.5917C21.8273 57.8197 21.3591 57.9336 20.838 57.9336C20.3169 57.9336 19.8599 57.8197 19.4406 57.5917C19.0213 57.3637 18.6875 57.0075 18.4401 56.523C18.1908 56.0385 18.0676 55.4065 18.0676 54.6249C18.0676 53.8432 18.1918 53.2091 18.4401 52.7206C18.6885 52.2321 19.0213 51.8738 19.4406 51.6469C19.8599 51.4189 20.3261 51.3049 20.838 51.3049ZM20.838 51.5491C20.3749 51.5491 19.9943 51.7893 19.6971 52.2697C19.3999 52.7501 19.2513 53.5358 19.2513 54.6259C19.2513 55.7159 19.3999 56.4996 19.6971 56.9759C19.9943 57.4522 20.3749 57.6894 20.838 57.6894C21.3011 57.6894 21.6828 57.4512 21.9799 56.9759C22.2771 56.4996 22.4247 55.7159 22.4247 54.6259C22.4247 53.5358 22.2771 52.7501 21.9799 52.2697C21.6828 51.7893 21.3021 51.5491 20.838 51.5491Z" fill="#EBEBEB"/>
<path d="M26.7225 51.3049C27.0472 51.3049 27.3241 51.3578 27.552 51.4637C27.78 51.5695 27.9469 51.6672 28.0528 51.7568C28.3205 51.9766 28.4843 51.8301 28.5403 51.3171H28.8212C28.8049 51.5451 28.7927 51.8158 28.7846 52.1293C28.7764 52.4428 28.7723 52.8631 28.7723 53.3924H28.4914C28.4426 53.0911 28.3591 52.799 28.2411 52.513C28.123 52.228 27.951 51.9939 27.722 51.8107C27.493 51.6275 27.1968 51.5359 26.8304 51.5359C26.5455 51.5359 26.3073 51.6153 26.116 51.7741C25.9256 51.9329 25.83 52.167 25.83 52.4764C25.83 52.7206 25.9032 52.9303 26.0498 53.1043C26.1964 53.2794 26.3877 53.4422 26.6238 53.5929C26.8599 53.7435 27.1164 53.9084 27.3933 54.0875C27.7016 54.2829 27.9836 54.4824 28.235 54.686C28.4874 54.8895 28.6889 55.1134 28.8395 55.3567C28.9901 55.6009 29.0655 55.89 29.0655 56.2238C29.0655 56.5983 28.9678 56.9118 28.7723 57.1632C28.5769 57.4156 28.3225 57.607 28.01 57.7372C27.6966 57.8675 27.3525 57.9326 26.979 57.9326C26.7999 57.9326 26.6309 57.9184 26.4722 57.8899C26.3134 57.8614 26.1618 57.8187 26.0152 57.7617C25.9338 57.7209 25.8503 57.6721 25.7648 57.6151C25.6793 57.5581 25.5959 57.497 25.5145 57.4319C25.433 57.3668 25.3597 57.3688 25.2946 57.438C25.2295 57.5072 25.1806 57.6436 25.1481 57.8472H24.8682C24.8834 57.5866 24.8967 57.2691 24.9048 56.8945C24.9129 56.521 24.917 56.0243 24.917 55.4055H25.1969C25.2539 55.8615 25.3353 56.2604 25.4412 56.6024C25.546 56.9444 25.7139 57.211 25.9409 57.4014C26.1689 57.5927 26.4864 57.6884 26.8935 57.6884C27.0564 57.6884 27.2202 57.6517 27.3882 57.5785C27.5551 57.5052 27.6955 57.383 27.8095 57.2121C27.9235 57.0411 27.9805 56.8131 27.9805 56.5281C27.9805 56.1699 27.8502 55.8778 27.5897 55.6488C27.3291 55.4208 26.9994 55.1806 26.6004 54.9282C26.3073 54.7409 26.0325 54.5536 25.776 54.3664C25.5195 54.1791 25.3129 53.9674 25.1531 53.7313C24.9944 53.4952 24.916 53.2102 24.916 52.8763C24.916 52.5099 24.9995 52.2107 25.1664 51.9787C25.3333 51.7466 25.5552 51.5766 25.832 51.4667C26.1088 51.3568 26.406 51.3018 26.7236 51.3018L26.7225 51.3049Z" fill="#EBEBEB"/>
<path d="M38.3935 51.4759V51.7202C38.2388 51.7364 38.0963 51.8056 37.966 51.9278C37.8357 52.0499 37.7136 52.2657 37.5996 52.5741L35.5966 57.8237H35.389L33.1428 52.4163C32.9881 52.0988 32.8354 51.9054 32.6848 51.8362C32.5341 51.767 32.41 51.7324 32.3123 51.7324V51.4759C32.4914 51.5003 32.6787 51.5186 32.873 51.5308C33.0685 51.5431 33.2802 51.5492 33.5081 51.5492C33.7605 51.5492 34.0272 51.541 34.3071 51.5247C34.588 51.5085 34.8506 51.4922 35.0948 51.4759V51.7324C34.8903 51.7324 34.7101 51.7466 34.5514 51.7751C34.3926 51.8036 34.2928 51.8891 34.2521 52.0316C34.2114 52.1741 34.2603 52.4163 34.3987 52.7583L35.8999 56.4813L35.8266 56.5057L37.2179 52.8672C37.3238 52.5985 37.3665 52.3848 37.3462 52.226C37.3258 52.0672 37.2424 51.9471 37.0958 51.8657C36.9492 51.7843 36.7294 51.7354 36.4363 51.7191V51.4749C36.5828 51.483 36.709 51.4891 36.8149 51.4932C36.9197 51.4973 37.0245 51.5013 37.1253 51.5054C37.2261 51.5095 37.339 51.5115 37.4612 51.5115C37.6484 51.5115 37.8174 51.5074 37.968 51.4993C38.1187 51.4912 38.2591 51.483 38.3894 51.4749L38.3935 51.4759ZM35.5976 57.8237L35.1834 58.8863C35.102 59.0898 35.0185 59.2608 34.933 59.3993C34.8475 59.5377 34.7559 59.6517 34.6582 59.7412C34.5279 59.8634 34.3732 59.9468 34.1941 59.9916C34.015 60.0364 33.8521 60.0588 33.7056 60.0588C33.5519 60.0588 33.4104 60.0303 33.2852 59.9733C33.159 59.9163 33.0593 59.8328 32.986 59.7229C32.9117 59.613 32.8761 59.4807 32.8761 59.326C32.8761 59.1306 32.9331 58.9738 33.0471 58.8558C33.1611 58.7377 33.3199 58.6787 33.5234 58.6787C33.6944 58.6787 33.841 58.7275 33.9631 58.8252C34.0852 58.9229 34.1463 59.0654 34.1463 59.2527C34.1463 59.3911 34.1137 59.5051 34.0486 59.5947C33.9834 59.6842 33.9061 59.7534 33.8165 59.8023C33.8318 59.8104 33.8471 59.8145 33.8593 59.8145H33.8898C34.1096 59.8145 34.3051 59.7392 34.476 59.5886C34.647 59.4379 34.7977 59.1957 34.9279 58.8619L35.3676 57.727L35.5997 57.8248L35.5976 57.8237Z" fill="#EBEBEB"/>
<path d="M44.559 51.3049C45.2755 51.3049 45.8343 51.5227 46.2373 51.9583C46.6403 52.3939 46.8408 53.0718 46.8408 53.9908H42.5316L42.5194 53.7588H45.6694C45.6857 53.3598 45.6531 52.9914 45.5717 52.6535C45.4903 52.3156 45.362 52.0448 45.187 51.8413C45.0119 51.6377 44.786 51.5359 44.5091 51.5359C44.1356 51.5359 43.8028 51.7232 43.5148 52.0967C43.2257 52.4713 43.0527 53.0657 42.9957 53.8789L43.0323 53.9277C43.016 54.0498 43.0028 54.1842 42.9957 54.3307C42.9875 54.4773 42.9835 54.6239 42.9835 54.7704C42.9835 55.3241 43.073 55.7994 43.2522 56.1984C43.4303 56.5973 43.6644 56.9006 43.9544 57.1083C44.2425 57.3159 44.5427 57.4197 44.8511 57.4197C45.0954 57.4197 45.3274 57.381 45.5472 57.3037C45.7671 57.2263 45.9696 57.0981 46.1579 56.9189C46.3452 56.7408 46.508 56.4996 46.6464 56.1984L46.8897 56.2961C46.8001 56.5648 46.6536 56.8253 46.45 57.0777C46.2465 57.3301 45.99 57.5357 45.6816 57.6945C45.3722 57.8533 45.0139 57.9326 44.6068 57.9326C44.0206 57.9326 43.5188 57.7983 43.0985 57.5306C42.6802 57.2619 42.3586 56.8894 42.1347 56.4131C41.9107 55.9368 41.7998 55.3902 41.7998 54.7714C41.7998 54.0549 41.9138 53.4382 42.1418 52.9221C42.3698 52.4051 42.6914 52.0062 43.1056 51.7252C43.5209 51.4443 44.0053 51.3039 44.558 51.3039L44.559 51.3049Z" fill="#EBEBEB"/>
<path d="M49.9555 51.3049C50.2801 51.3049 50.557 51.3578 50.7849 51.4637C51.0129 51.5695 51.1798 51.6672 51.2857 51.7568C51.5534 51.9766 51.7172 51.8301 51.7732 51.3171H52.0541C52.0378 51.5451 52.0256 51.8158 52.0175 52.1293C52.0093 52.4428 52.0053 52.8631 52.0053 53.3924H51.7243C51.6755 53.0911 51.592 52.799 51.474 52.513C51.3559 52.228 51.1839 51.9939 50.9549 51.8107C50.7269 51.6275 50.4297 51.5359 50.0633 51.5359C49.7784 51.5359 49.5402 51.6153 49.3489 51.7741C49.1585 51.9329 49.0629 52.167 49.0629 52.4764C49.0629 52.7206 49.1362 52.9303 49.2827 53.1043C49.4293 53.2794 49.6206 53.4422 49.8567 53.5929C50.0929 53.7435 50.3493 53.9084 50.6262 54.0875C50.9346 54.2829 51.2165 54.4824 51.4679 54.686C51.7203 54.8895 51.9218 55.1134 52.0724 55.3567C52.2231 55.6009 52.2984 55.89 52.2984 56.2238C52.2984 56.5983 52.2007 56.9118 52.0053 57.1632C51.8098 57.4156 51.5554 57.607 51.2429 57.7372C50.9295 57.8675 50.5855 57.9326 50.2119 57.9326C50.0328 57.9326 49.8639 57.9184 49.7051 57.8899C49.5463 57.8614 49.3947 57.8187 49.2481 57.7617C49.1667 57.7209 49.0832 57.6721 48.9977 57.6151C48.9122 57.5581 48.8288 57.497 48.7474 57.4319C48.6659 57.3668 48.5927 57.3688 48.5275 57.438C48.4624 57.5072 48.4135 57.6436 48.381 57.8472H48.1011C48.1163 57.5866 48.1296 57.2691 48.1377 56.8945C48.1459 56.521 48.1499 56.0243 48.1499 55.4055H48.4298C48.4868 55.8615 48.5682 56.2604 48.6741 56.6024C48.7789 56.9444 48.9468 57.211 49.1738 57.4014C49.4018 57.5927 49.7193 57.6884 50.1264 57.6884C50.2893 57.6884 50.4532 57.6517 50.6211 57.5785C50.788 57.5052 50.9285 57.383 51.0424 57.2121C51.1564 57.0411 51.2134 56.8131 51.2134 56.5281C51.2134 56.1699 51.0832 55.8778 50.8226 55.6488C50.5621 55.4208 50.2323 55.1806 49.8333 54.9282C49.5402 54.7409 49.2654 54.5536 49.0089 54.3664C48.7525 54.1791 48.5458 53.9674 48.3861 53.7313C48.2273 53.4952 48.1489 53.2102 48.1489 52.8763C48.1489 52.5099 48.2324 52.2107 48.3993 51.9787C48.5662 51.7466 48.7881 51.5766 49.0649 51.4667C49.3417 51.3568 49.6389 51.3018 49.9565 51.3018L49.9555 51.3049Z" fill="#EBEBEB"/>
<path d="M55.1918 49.4485V51.4871H56.9984V51.7313H55.1918V56.4558C55.1918 56.8385 55.261 57.1072 55.3995 57.2619C55.5379 57.4166 55.7292 57.494 55.9735 57.494C56.2178 57.494 56.4294 57.3942 56.6086 57.1947C56.7867 56.9953 56.9424 56.6594 57.0727 56.1872L57.3169 56.2482C57.2355 56.7205 57.0747 57.1184 56.8345 57.4441C56.5943 57.7698 56.2259 57.9326 55.7292 57.9326C55.4524 57.9326 55.2244 57.898 55.0453 57.8288C54.8661 57.7596 54.7074 57.6599 54.569 57.5296C54.3898 57.3423 54.2657 57.1184 54.1965 56.8579C54.1272 56.5973 54.0926 56.2523 54.0926 55.8197V51.7303H52.9202V51.4861H54.0926V49.6174C54.2962 49.6093 54.4916 49.593 54.6789 49.5686C54.8661 49.5441 55.0371 49.5034 55.1918 49.4464V49.4485Z" fill="#EBEBEB"/>
<path d="M59.2811 57.8482C58.9473 57.8482 58.6582 57.7851 58.414 57.6589C58.1697 57.5327 57.9845 57.3556 57.8582 57.1276C57.732 56.8996 57.6689 56.635 57.6689 56.3337C57.6689 55.9755 57.7524 55.6824 57.9193 55.4544C58.0862 55.2264 58.2989 55.0432 58.5595 54.9048C58.82 54.7664 59.0948 54.6503 59.3839 54.5567C59.6729 54.4631 59.9477 54.3735 60.2083 54.289C60.4688 54.2035 60.6826 54.1038 60.8485 53.9898C61.0154 53.8758 61.0988 53.7252 61.0988 53.5379V52.7807C61.0988 52.4387 61.048 52.1782 60.9462 51.999C60.8444 51.8209 60.708 51.6998 60.537 51.6387C60.366 51.5777 60.1747 51.5471 59.964 51.5471C59.7533 51.5471 59.5427 51.5756 59.3106 51.6326C59.0786 51.6896 58.8933 51.8077 58.7559 51.9868C58.9096 52.0194 59.044 52.1008 59.159 52.2311C59.273 52.3614 59.33 52.5283 59.33 52.7318C59.33 52.9354 59.2648 53.0962 59.1345 53.2142C59.0043 53.3323 58.8373 53.3913 58.6338 53.3913C58.3977 53.3913 58.2247 53.316 58.1147 53.1654C58.0058 53.0148 57.9499 52.8458 57.9499 52.6585C57.9499 52.4468 58.0028 52.2759 58.1086 52.1456C58.2145 52.0153 58.3488 51.8932 58.5106 51.7792C58.6979 51.6499 58.9401 51.538 59.2373 51.4443C59.5345 51.3507 59.8704 51.3039 60.2439 51.3039C60.5777 51.3039 60.8627 51.3426 61.0988 51.4199C61.335 51.4973 61.5304 51.6092 61.6851 51.7558C61.8968 51.9512 62.0352 52.1894 62.1003 52.4692C62.1645 52.7501 62.198 53.086 62.198 53.4758V56.8701C62.198 57.0736 62.2286 57.2202 62.2896 57.3098C62.3507 57.4004 62.4464 57.4441 62.5767 57.4441C62.6662 57.4441 62.7517 57.4248 62.8331 57.3831C62.9146 57.3423 63.0123 57.2772 63.1273 57.1876L63.2606 57.3953C63.0896 57.5255 62.9268 57.6334 62.7731 57.7189C62.6184 57.8044 62.4108 57.8472 62.1502 57.8472C61.9141 57.8472 61.7187 57.8064 61.564 57.725C61.4093 57.6436 61.2932 57.5235 61.2159 57.3647C61.1385 57.206 61.0999 57.0044 61.0999 56.7602C60.88 57.1266 60.6174 57.3993 60.3121 57.5785C60.0068 57.7576 59.6628 57.8472 59.2811 57.8472V57.8482ZM59.7208 57.3596C59.9895 57.3596 60.2398 57.2823 60.4719 57.1276C60.7039 56.9729 60.9136 56.7408 61.0999 56.4314V54.0386C61.0022 54.1771 60.8597 54.2931 60.6724 54.3867C60.4851 54.4804 60.2816 54.574 60.0617 54.6676C59.8419 54.7613 59.6322 54.8712 59.4338 54.9974C59.2343 55.1236 59.0694 55.2885 58.9391 55.492C58.8089 55.6956 58.7437 55.9602 58.7437 56.2859C58.7437 56.6116 58.8312 56.8721 59.0063 57.0675C59.1814 57.263 59.4195 57.3607 59.7208 57.3607V57.3596Z" fill="#EBEBEB"/>
<path d="M66.6183 51.3049C66.9765 51.3049 67.3114 51.3904 67.6249 51.5614C67.9383 51.7324 68.148 52.0255 68.2538 52.4408L68.0951 52.5629C67.9811 52.2209 67.804 51.9726 67.5648 51.8179C67.3246 51.6632 67.0417 51.5858 66.716 51.5858C66.2356 51.5858 65.8346 51.8342 65.513 52.3308C65.1914 52.8275 65.0346 53.5929 65.0438 54.6259C65.0438 55.2854 65.1059 55.833 65.2331 56.2686C65.3593 56.7042 65.5455 57.0299 65.7949 57.2457C66.0432 57.4614 66.3455 57.5693 66.7038 57.5693C67.062 57.5693 67.3541 57.4227 67.632 57.1296C67.9088 56.8365 68.0757 56.405 68.1327 55.836L68.2793 56.007C68.2141 56.6258 68.0167 57.1011 67.6869 57.435C67.3572 57.7688 66.9114 57.9357 66.3496 57.9357C65.8448 57.9357 65.4041 57.8136 65.0255 57.5693C64.6479 57.325 64.3578 56.9586 64.1593 56.4711C63.9598 55.9826 63.8601 55.3679 63.8601 54.6269C63.8601 53.886 63.9883 53.2702 64.2448 52.7776C64.5013 52.2861 64.8392 51.9166 65.2585 51.6723C65.6779 51.4281 66.1308 51.3059 66.6193 51.3059L66.6183 51.3049ZM69.182 48.1915V56.4314C69.182 56.7978 69.2492 57.0686 69.3836 57.2436C69.5169 57.4187 69.7601 57.5062 70.1103 57.5062V57.7627C69.8578 57.7383 69.6054 57.7261 69.353 57.7261C69.1169 57.7261 68.891 57.7383 68.6752 57.7627C68.4594 57.7871 68.262 57.8319 68.0828 57.897V49.6571C68.0828 49.2907 68.0177 49.02 67.8874 48.845C67.7572 48.6699 67.5139 48.5824 67.1557 48.5824V48.3259C67.4162 48.3503 67.6676 48.3625 67.9129 48.3625C68.1582 48.3625 68.3739 48.3483 68.5907 48.3198C68.8055 48.2913 69.0039 48.2485 69.1831 48.1915H69.182Z" fill="#EBEBEB"/>
<path d="M72.7464 51.3416V56.6279C72.7464 56.9699 72.8176 57.2009 72.9601 57.323C73.1026 57.4452 73.3407 57.5062 73.6746 57.5062V57.7627C73.5362 57.7546 73.3265 57.7444 73.0456 57.7322C72.7647 57.72 72.4817 57.7139 72.1978 57.7139C71.9138 57.7139 71.64 57.72 71.3551 57.7322C71.0701 57.7444 70.8584 57.7556 70.72 57.7627V57.5062C71.0528 57.5062 71.292 57.4452 71.4344 57.323C71.5769 57.2009 71.6482 56.9689 71.6482 56.6279V52.8062C71.6482 52.4398 71.583 52.169 71.4528 51.994C71.3225 51.8189 71.0792 51.7314 70.721 51.7314V51.4749C70.9815 51.4993 71.2329 51.5115 71.4782 51.5115C71.7235 51.5115 71.9393 51.4973 72.1561 51.4688C72.3718 51.4403 72.5693 51.3976 72.7484 51.3406L72.7464 51.3416ZM73.3937 47.8374C73.4914 47.9188 73.5463 48.0247 73.5585 48.1549C73.5708 48.2852 73.5158 48.4318 73.3937 48.5946C73.2715 48.7493 73.1209 48.904 72.9418 49.0587C72.7626 49.2134 72.553 49.3987 72.3138 49.6144C72.0736 49.8302 71.7907 50.1091 71.465 50.451L71.3306 50.3411C71.583 49.9421 71.7846 49.6012 71.9352 49.3152C72.0858 49.0302 72.2141 48.7829 72.3199 48.5702C72.4247 48.3585 72.5398 48.1753 72.6619 48.0206C72.784 47.8577 72.9123 47.7682 73.0466 47.7519C73.181 47.7356 73.297 47.7641 73.3947 47.8374H73.3937Z" fill="#EBEBEB"/>
<path d="M76.4827 51.3049C76.8084 51.3049 77.0852 51.3578 77.3122 51.4637C77.5402 51.5695 77.7071 51.6672 77.8129 51.7568C78.0816 51.9766 78.2445 51.8301 78.3014 51.3171H78.5823C78.5661 51.5451 78.5528 51.8158 78.5457 52.1293C78.5376 52.4428 78.5335 52.8631 78.5335 53.3924H78.2526C78.2037 53.0911 78.1203 52.799 78.0022 52.513C77.8842 52.228 77.7111 51.9939 77.4832 51.8107C77.2552 51.6275 76.958 51.5359 76.5916 51.5359C76.3066 51.5359 76.0685 51.6153 75.8771 51.7741C75.6858 51.9329 75.5901 52.167 75.5901 52.4764C75.5901 52.7206 75.6634 52.9303 75.8099 53.1043C75.9565 53.2794 76.1478 53.4422 76.384 53.5929C76.6201 53.7435 76.8766 53.9084 77.1534 54.0875C77.4628 54.2829 77.7437 54.4824 77.9961 54.686C78.2485 54.8895 78.45 55.1134 78.5997 55.3567C78.7503 55.6009 78.8256 55.89 78.8256 56.2238C78.8256 56.5983 78.7279 56.9118 78.5325 57.1632C78.3371 57.4156 78.0826 57.607 77.7691 57.7372C77.4557 57.8675 77.1117 57.9326 76.7381 57.9326C76.559 57.9326 76.3901 57.9184 76.2313 57.8899C76.0725 57.8614 75.9199 57.8187 75.7733 57.7617C75.6919 57.7209 75.6084 57.6721 75.5229 57.6151C75.4374 57.5581 75.354 57.497 75.2726 57.4319C75.1911 57.3668 75.1178 57.3688 75.0527 57.438C74.9876 57.5072 74.9377 57.6436 74.9062 57.8472H74.6252C74.6415 57.5866 74.6537 57.2691 74.6619 56.8945C74.669 56.521 74.6741 56.0243 74.6741 55.4055H74.955C75.012 55.8615 75.0934 56.2604 75.1993 56.6024C75.3051 56.9444 75.472 57.211 75.7 57.4014C75.928 57.5927 76.2455 57.6884 76.6527 57.6884C76.8155 57.6884 76.9804 57.6517 77.1473 57.5785C77.3142 57.5052 77.4547 57.383 77.5687 57.2121C77.6826 57.0411 77.7396 56.8131 77.7396 56.5281C77.7396 56.1699 77.6094 55.8778 77.3488 55.6488C77.0883 55.4208 76.7585 55.1806 76.3595 54.9282C76.0664 54.7409 75.7916 54.5536 75.5362 54.3664C75.2797 54.1791 75.072 53.9674 74.9133 53.7313C74.7545 53.4952 74.6751 53.2102 74.6751 52.8763C74.6751 52.5099 74.7586 52.2107 74.9255 51.9787C75.0924 51.7466 75.3143 51.5766 75.5901 51.4667C75.8669 51.3568 76.1641 51.3018 76.4817 51.3018L76.4827 51.3049Z" fill="#EBEBEB"/>
<path d="M81.7192 49.4485V51.4871H83.5257V51.7313H81.7192V56.4558C81.7192 56.8385 81.7884 57.1072 81.9268 57.2619C82.0652 57.4166 82.2555 57.494 82.5008 57.494C82.7461 57.494 82.9558 57.3942 83.1349 57.1947C83.314 56.9953 83.4687 56.6594 83.599 56.1872L83.8423 56.2482C83.7608 56.7205 83.6 57.1184 83.3598 57.4441C83.1196 57.7698 82.7512 57.9326 82.2545 57.9326C81.9777 57.9326 81.7497 57.898 81.5716 57.8288C81.3925 57.7596 81.2327 57.6599 81.0953 57.5296C80.9162 57.3423 80.792 57.1184 80.7228 56.8579C80.6536 56.5973 80.619 56.2523 80.619 55.8197V51.7303H79.4475V51.4861H80.619V49.6174C80.8225 49.6093 81.0179 49.593 81.2052 49.5686C81.3925 49.5441 81.5635 49.5034 81.7182 49.4464L81.7192 49.4485Z" fill="#EBEBEB"/>
<path d="M86.1028 51.3415V56.6279C86.1028 56.9698 86.174 57.2009 86.3165 57.323C86.459 57.4451 86.6962 57.5062 87.031 57.5062V57.7627C86.8926 57.7545 86.6829 57.7444 86.402 57.7321C86.1211 57.7199 85.8382 57.7138 85.5532 57.7138C85.2682 57.7138 84.9965 57.7199 84.7105 57.7321C84.4265 57.7444 84.2138 57.7555 84.0764 57.7627V57.5062C84.4092 57.5062 84.6484 57.4451 84.7899 57.323C84.9324 57.2009 85.0036 56.9688 85.0036 56.6279V52.8061C85.0036 52.4397 84.9385 52.169 84.8082 51.9939C84.6779 51.8189 84.4337 51.7313 84.0764 51.7313V51.4749C84.337 51.4993 84.5884 51.5115 84.8326 51.5115C85.0769 51.5115 85.2947 51.4973 85.5105 51.4688C85.7262 51.4403 85.9237 51.3975 86.1028 51.3405V51.3415ZM85.4667 48.4236C85.6784 48.4236 85.8616 48.5009 86.0163 48.6556C86.17 48.8103 86.2483 48.9935 86.2483 49.2052C86.2483 49.4169 86.171 49.6001 86.0163 49.7548C85.8616 49.9095 85.6774 49.9869 85.4667 49.9869C85.256 49.9869 85.0718 49.9095 84.9171 49.7548C84.7624 49.6011 84.685 49.4169 84.685 49.2052C84.685 48.9935 84.7624 48.8103 84.9171 48.6556C85.0718 48.5009 85.255 48.4236 85.4667 48.4236Z" fill="#EBEBEB"/>
<path d="M90.7038 51.3049C90.9644 51.3049 91.2168 51.3374 91.46 51.4026C91.7043 51.4677 91.9241 51.5654 92.1195 51.6957C92.3068 51.8178 92.4493 51.9583 92.548 52.1171C92.6457 52.2758 92.6936 52.4489 92.6936 52.6361C92.6936 52.856 92.6335 53.0249 92.5104 53.143C92.3882 53.261 92.2335 53.3201 92.0463 53.3201C91.859 53.3201 91.7114 53.2671 91.5771 53.1613C91.4427 53.0554 91.3755 52.9048 91.3755 52.7094C91.3755 52.514 91.4264 52.3715 91.5282 52.2575C91.63 52.1435 91.7501 52.0702 91.8885 52.0377C91.8071 51.8911 91.6626 51.769 91.4549 51.6713C91.2473 51.5736 91.0254 51.5247 90.7893 51.5247C90.5857 51.5247 90.3822 51.5736 90.1786 51.6713C89.9751 51.769 89.7878 51.9298 89.6168 52.1537C89.4458 52.3776 89.3074 52.6829 89.2016 53.0687C89.0957 53.4554 89.0428 53.9379 89.0428 54.5149C89.0428 55.2314 89.1242 55.8014 89.2871 56.2248C89.4499 56.6482 89.6636 56.9515 89.9283 57.1347C90.1929 57.3179 90.484 57.4095 90.8005 57.4095C91.0122 57.4095 91.228 57.3688 91.4478 57.2874C91.6676 57.2059 91.8753 57.0736 92.0707 56.8904C92.2661 56.7072 92.433 56.4609 92.5714 56.1515L92.8035 56.237C92.7221 56.4976 92.5877 56.7601 92.4004 57.0248C92.2132 57.2894 91.9689 57.5072 91.6676 57.6782C91.3664 57.8492 90.9969 57.9347 90.5573 57.9347C90.0524 57.9347 89.5965 57.8044 89.1904 57.5438C88.7833 57.2833 88.4596 56.9108 88.2194 56.4273C87.9792 55.9429 87.8591 55.3668 87.8591 54.7002C87.8591 54.0335 87.9792 53.4453 88.2194 52.9364C88.4586 52.4275 88.7955 52.0285 89.226 51.7395C89.6575 51.4514 90.1501 51.3059 90.7028 51.3059L90.7038 51.3049Z" fill="#EBEBEB"/>
<path d="M95.3196 57.8482C94.9858 57.8482 94.6968 57.7851 94.4525 57.6589C94.2092 57.5327 94.023 57.3556 93.8978 57.1276C93.7716 56.8996 93.7085 56.635 93.7085 56.3337C93.7085 55.9755 93.792 55.6824 93.9589 55.4544C94.1258 55.2264 94.3395 55.0432 94.6001 54.9048C94.8606 54.7664 95.1354 54.6503 95.4234 54.5567C95.7125 54.4631 95.9873 54.3735 96.2478 54.289C96.5084 54.2035 96.7221 54.1038 96.889 53.9898C97.056 53.8758 97.1394 53.7252 97.1394 53.5379V52.7807C97.1394 52.4387 97.0885 52.1782 96.9878 51.999C96.886 51.8209 96.7496 51.6998 96.5786 51.6387C96.4076 51.5777 96.2163 51.5471 96.0046 51.5471C95.7929 51.5471 95.5843 51.5756 95.3512 51.6326C95.1191 51.6896 94.9339 51.8077 94.7955 51.9868C94.9502 52.0194 95.0845 52.1008 95.1985 52.2311C95.3125 52.3614 95.3695 52.5283 95.3695 52.7318C95.3695 52.9354 95.3044 53.0962 95.1741 53.2142C95.0438 53.3323 94.8769 53.3913 94.6733 53.3913C94.4372 53.3913 94.2642 53.316 94.1543 53.1654C94.0444 53.0148 93.9894 52.8458 93.9894 52.6585C93.9894 52.4468 94.0423 52.2759 94.1482 52.1456C94.254 52.0153 94.3884 51.8932 94.5512 51.7792C94.7385 51.6499 94.9807 51.538 95.2779 51.4443C95.5751 51.3507 95.911 51.3039 96.2855 51.3039C96.6183 51.3039 96.9033 51.3426 97.1394 51.4199C97.3755 51.4973 97.571 51.6092 97.7257 51.7558C97.9373 51.9512 98.0758 52.1894 98.1409 52.4692C98.205 52.7501 98.2386 53.086 98.2386 53.4758V56.8701C98.2386 57.0736 98.2691 57.2202 98.3302 57.3098C98.3913 57.4004 98.488 57.4441 98.6172 57.4441C98.7068 57.4441 98.7923 57.4248 98.8737 57.3831C98.9551 57.3423 99.0528 57.2772 99.1668 57.1876L99.3001 57.3953C99.1292 57.5255 98.9673 57.6334 98.8126 57.7189C98.6579 57.8044 98.4503 57.8472 98.1898 57.8472C97.9536 57.8472 97.7582 57.8064 97.6035 57.725C97.4488 57.6436 97.3328 57.5235 97.2554 57.3647C97.1771 57.206 97.1384 57.0044 97.1384 56.7602C96.9186 57.1266 96.656 57.3993 96.3506 57.5785C96.0453 57.7576 95.7023 57.8472 95.3196 57.8472V57.8482ZM95.7593 57.3596C96.027 57.3596 96.2784 57.2823 96.5104 57.1276C96.7415 56.9729 96.9511 56.7408 97.1384 56.4314V54.0386C97.0407 54.1771 96.8992 54.2931 96.7109 54.3867C96.5237 54.4804 96.3201 54.574 96.1003 54.6676C95.8804 54.7613 95.6708 54.8712 95.4713 54.9974C95.2718 55.1236 95.1069 55.2885 94.9766 55.492C94.8464 55.6956 94.7812 55.9602 94.7812 56.2859C94.7812 56.6116 94.8688 56.8721 95.0438 57.0675C95.2189 57.263 95.457 57.3607 95.7583 57.3607L95.7593 57.3596Z" fill="#EBEBEB"/>
<path d="M101.851 51.3049C102.176 51.3049 102.453 51.3578 102.68 51.4637C102.907 51.5695 103.075 51.6672 103.181 51.7568C103.45 51.9766 103.612 51.8301 103.669 51.3171H103.95C103.934 51.5451 103.921 51.8158 103.914 52.1293C103.905 52.4428 103.901 52.8631 103.901 53.3924H103.621C103.572 53.0911 103.488 52.799 103.37 52.513C103.252 52.228 103.079 51.9939 102.851 51.8107C102.623 51.6275 102.326 51.5359 101.96 51.5359C101.675 51.5359 101.436 51.6153 101.245 51.7741C101.054 51.9329 100.958 52.167 100.958 52.4764C100.958 52.7206 101.031 52.9303 101.178 53.1043C101.324 53.2794 101.516 53.4422 101.752 53.5929C101.988 53.7435 102.244 53.9084 102.521 54.0875C102.831 54.2829 103.112 54.4824 103.364 54.686C103.616 54.8895 103.818 55.1134 103.968 55.3567C104.118 55.6009 104.194 55.89 104.194 56.2238C104.194 56.5983 104.096 56.9118 103.9 57.1632C103.705 57.4156 103.451 57.607 103.137 57.7372C102.824 57.8675 102.48 57.9326 102.106 57.9326C101.927 57.9326 101.758 57.9184 101.599 57.8899C101.44 57.8614 101.288 57.8187 101.141 57.7617C101.06 57.7209 100.976 57.6721 100.891 57.6151C100.805 57.5581 100.722 57.497 100.64 57.4319C100.559 57.3668 100.486 57.3688 100.421 57.438C100.355 57.5072 100.306 57.6436 100.274 57.8472H99.9932C100.009 57.5866 100.022 57.2691 100.03 56.8945C100.037 56.521 100.042 56.0243 100.042 55.4055H100.323C100.38 55.8615 100.461 56.2604 100.567 56.6024C100.673 56.9444 100.84 57.211 101.068 57.4014C101.296 57.5927 101.613 57.6884 102.021 57.6884C102.183 57.6884 102.348 57.6517 102.515 57.5785C102.682 57.5052 102.823 57.383 102.937 57.2121C103.051 57.0411 103.108 56.8131 103.108 56.5281C103.108 56.1699 102.977 55.8778 102.717 55.6488C102.456 55.4208 102.126 55.1806 101.727 54.9282C101.434 54.7409 101.16 54.5536 100.904 54.3664C100.648 54.1791 100.44 53.9674 100.281 53.7313C100.122 53.4952 100.043 53.2102 100.043 52.8763C100.043 52.5099 100.126 52.2107 100.293 51.9787C100.46 51.7466 100.682 51.5766 100.958 51.4667C101.234 51.3568 101.532 51.3018 101.85 51.3018L101.851 51.3049Z" fill="#EBEBEB"/>
<path d="M3.34439 63.5447C3.70265 63.5447 4.03851 63.6301 4.35199 63.8011C4.66444 63.9721 4.87512 64.2652 4.97995 64.6805L4.82118 64.8026C4.70719 64.4606 4.5301 64.2123 4.2899 64.0576C4.04971 63.9029 3.76677 63.8256 3.4421 63.8256C2.96171 63.8256 2.5607 64.0739 2.24011 64.5706C1.91849 65.0672 1.76175 65.8326 1.76989 66.8657C1.76989 67.5252 1.833 68.0727 1.9592 68.5083C2.0854 68.9439 2.27267 69.2696 2.51999 69.4854C2.76833 69.7012 3.07163 69.8091 3.42988 69.8091C3.78814 69.8091 4.08024 69.6625 4.35707 69.3694C4.63391 69.0763 4.80082 68.6447 4.85782 68.0758L5.00438 68.2468C4.93924 68.8656 4.74179 69.3409 4.41203 69.6747C4.08228 70.0085 3.63649 70.1755 3.0757 70.1755C2.57088 70.1755 2.12917 70.0533 1.75157 69.8091C1.37296 69.5648 1.08391 69.1984 0.884431 68.7109C0.684947 68.2234 0.585205 67.6076 0.585205 66.8667C0.585205 66.1257 0.713445 65.51 0.969924 65.0174C1.2264 64.5258 1.5643 64.1563 1.98363 63.9121C2.40295 63.6678 2.85688 63.5457 3.34439 63.5457V63.5447ZM5.90816 60.4313V68.6712C5.90816 69.0376 5.97533 69.3083 6.10968 69.4834C6.24403 69.6584 6.48524 69.7459 6.83637 69.7459V70.0024C6.58396 69.978 6.33156 69.9658 6.07915 69.9658C5.84302 69.9658 5.61708 69.978 5.40131 70.0024C5.18554 70.0269 4.98809 70.0716 4.80897 70.1368V61.8969C4.80897 61.5305 4.74383 61.2598 4.61355 61.0847C4.48328 60.9096 4.23901 60.8221 3.88076 60.8221V60.5656C4.14131 60.5901 4.39371 60.6023 4.63696 60.6023C4.88021 60.6023 5.09903 60.588 5.3148 60.5595C5.53057 60.531 5.72802 60.4883 5.90714 60.4313H5.90816Z" fill="#EBEBEB"/>
<path d="M10.413 63.5446C11.1295 63.5446 11.6883 63.7624 12.0913 64.198C12.4943 64.6337 12.6948 65.3115 12.6948 66.2305H8.38559L8.37337 65.9985H11.5234C11.5397 65.5995 11.5071 65.2311 11.4257 64.8932C11.3443 64.5553 11.216 64.2846 11.041 64.081C10.8659 63.8775 10.64 63.7757 10.3631 63.7757C9.9896 63.7757 9.65679 63.9629 9.36876 64.3365C9.07971 64.711 8.90669 65.3054 8.84969 66.1186L8.88633 66.1674C8.87005 66.2896 8.85682 66.4239 8.84969 66.5705C8.84155 66.717 8.83748 66.8636 8.83748 67.0102C8.83748 67.5638 8.92704 68.0391 9.10617 68.4381C9.28428 68.8371 9.51837 69.1404 9.80844 69.348C10.0965 69.5556 10.3967 69.6594 10.7051 69.6594C10.9494 69.6594 11.1814 69.6207 11.4013 69.5434C11.6211 69.466 11.8236 69.3378 12.0119 69.1587C12.1992 68.9806 12.362 68.7394 12.5004 68.4381L12.7437 68.5358C12.6541 68.8045 12.5076 69.065 12.304 69.3174C12.1005 69.5699 11.844 69.7754 11.5356 69.9342C11.2262 70.093 10.8679 70.1724 10.4608 70.1724C9.87459 70.1724 9.37283 70.038 8.95249 69.7704C8.53418 69.5017 8.21257 69.1292 7.98866 68.6528C7.76475 68.1765 7.65381 67.63 7.65381 67.0112C7.65381 66.2947 7.7678 65.6779 7.99578 65.1619C8.22376 64.6449 8.54538 64.2459 8.95961 63.965C9.37486 63.6841 9.85932 63.5436 10.412 63.5436L10.413 63.5446Z" fill="#EBEBEB"/>
<path d="M18.9092 72.2985C18.4777 72.2985 18.0705 72.2537 17.6889 72.1642C17.3062 72.0746 16.9988 71.9342 16.7668 71.7428C16.5347 71.5515 16.4187 71.3092 16.4187 71.0161C16.4187 70.723 16.5327 70.4869 16.7607 70.2833C16.9887 70.0798 17.2981 69.9261 17.6889 69.8192L17.7622 70.0146C17.583 70.0716 17.4405 70.1856 17.3347 70.3566C17.2288 70.5276 17.1759 70.7189 17.1759 70.9306C17.1759 71.3052 17.3489 71.5922 17.695 71.7917C18.041 71.9912 18.4909 72.0909 19.0435 72.0909C19.4099 72.0909 19.7682 72.0441 20.1183 71.9504C20.4684 71.8568 20.7565 71.7001 20.9844 71.4802C21.2124 71.2604 21.3264 70.9713 21.3264 70.6131C21.3264 70.3444 21.2307 70.1225 21.0394 69.9475C20.8481 69.7734 20.4715 69.6849 19.9097 69.6849H19.0059C18.7453 69.6849 18.4939 69.6655 18.2487 69.6238C18.0054 69.5831 17.8049 69.4976 17.6512 69.3673C17.4965 69.2371 17.4192 69.0376 17.4192 68.7689C17.4192 68.5002 17.5332 68.2254 17.7611 67.9689C17.9891 67.7124 18.4084 67.4498 19.0191 67.1812L19.1657 67.2911C18.8888 67.4376 18.6486 67.5862 18.4451 67.7369C18.2405 67.8875 18.1398 68.0646 18.1398 68.2681C18.1398 68.5287 18.3342 68.659 18.726 68.659H20.2516C20.5936 68.659 20.9091 68.7078 21.1971 68.8055C21.4862 68.9032 21.7203 69.0579 21.8994 69.2696C22.0775 69.4813 22.1671 69.7582 22.1671 70.1001C22.1671 70.4828 22.045 70.8401 21.8007 71.1739C21.5564 71.5077 21.1921 71.7774 20.7086 71.9861C20.2242 72.1937 19.6237 72.2975 18.9072 72.2975L18.9092 72.2985ZM18.9713 67.403C18.5723 67.403 18.21 67.3359 17.8843 67.2015C17.5586 67.0672 17.3031 66.8575 17.1149 66.5735C16.9266 66.2896 16.834 65.9222 16.834 65.4754C16.834 65.0286 16.9276 64.6611 17.1149 64.3762C17.3021 64.0912 17.5586 63.8815 17.8843 63.7482C18.21 63.6139 18.5723 63.5467 18.9713 63.5467C19.3702 63.5467 19.7417 63.6139 20.0633 63.7482C20.385 63.8826 20.6394 64.0922 20.8267 64.3762C21.0139 64.6611 21.1076 65.0275 21.1076 65.4754C21.1076 65.9232 21.0139 66.2896 20.8267 66.5735C20.6394 66.8585 20.385 67.0682 20.0633 67.2015C19.7417 67.3348 19.3774 67.403 18.9713 67.403ZM18.9713 67.1832C19.2807 67.1832 19.5219 67.0611 19.698 66.8168C19.872 66.5725 19.9606 66.1247 19.9606 65.4744C19.9606 64.824 19.873 64.3752 19.698 64.1309C19.5229 63.8876 19.2807 63.7645 18.9713 63.7645C18.6619 63.7645 18.4298 63.8866 18.2507 64.1309C18.0716 64.3752 17.982 64.823 17.982 65.4744C17.982 66.1257 18.0716 66.5725 18.2507 66.8168C18.4298 67.06 18.67 67.1832 18.9713 67.1832ZM20.729 64.5584L20.5091 64.4729C20.6231 64.196 20.8185 63.9518 21.0954 63.7401C21.3712 63.5284 21.6613 63.4225 21.9615 63.4225C22.1732 63.4225 22.3442 63.4815 22.4745 63.5996C22.6037 63.7177 22.6699 63.8948 22.6699 64.1299C22.6699 64.3823 22.6027 64.5594 22.4683 64.6611C22.334 64.7629 22.1976 64.8138 22.0592 64.8138C21.9371 64.8138 21.8231 64.7711 21.7172 64.6856C21.6114 64.6001 21.5503 64.4647 21.534 64.2764C21.5177 64.0892 21.5747 63.849 21.705 63.5558L21.8638 63.5925C21.5218 63.7228 21.2776 63.8591 21.132 64.0016C20.9855 64.1441 20.8511 64.3294 20.729 64.5573V64.5584Z" fill="#EBEBEB"/>
<path d="M25.9543 63.5446C26.6698 63.5446 27.2296 63.7625 27.6326 64.1981C28.0356 64.6337 28.2372 65.3115 28.2372 66.2306H23.9279L23.9157 65.9985H27.0647C27.081 65.5995 27.0484 65.2311 26.967 64.8932C26.8856 64.5553 26.7573 64.2846 26.5823 64.081C26.4072 63.8775 26.1813 63.7757 25.9044 63.7757C25.5299 63.7757 25.1981 63.963 24.909 64.3365C24.62 64.711 24.447 65.3054 24.39 66.1186L24.4266 66.1675C24.4103 66.2896 24.3981 66.4239 24.39 66.5705C24.3818 66.717 24.3778 66.8636 24.3778 67.0102C24.3778 67.5638 24.4673 68.0391 24.6465 68.4381C24.8256 68.8371 25.0597 69.1404 25.3487 69.348C25.6378 69.5556 25.937 69.6594 26.2464 69.6594C26.4896 69.6594 26.7227 69.6208 26.9415 69.5434C27.1604 69.4661 27.3639 69.3378 27.5522 69.1587C27.7395 68.9806 27.9023 68.7394 28.0407 68.4381L28.285 68.5358C28.1954 68.8045 28.0489 69.0651 27.8453 69.3175C27.6418 69.5699 27.3853 69.7755 27.0759 69.9342C26.7665 70.093 26.4082 70.1724 26.0011 70.1724C25.4149 70.1724 24.9131 70.038 24.4938 69.7704C24.0745 69.5017 23.7528 69.1292 23.53 68.6529C23.306 68.1765 23.1941 67.63 23.1941 67.0112C23.1941 66.2947 23.3081 65.6779 23.5361 65.1619C23.764 64.6449 24.0857 64.2459 24.4999 63.965C24.9151 63.6841 25.3996 63.5436 25.9533 63.5436L25.9543 63.5446ZM27.2479 60.0781C27.3456 60.1595 27.4006 60.2654 27.4128 60.3957C27.425 60.5259 27.37 60.6725 27.2479 60.8353C27.1258 60.99 26.9751 61.1447 26.796 61.2994C26.6169 61.4541 26.4072 61.6394 26.168 61.8551C25.9288 62.0709 25.6449 62.3498 25.3202 62.6918L25.1859 62.5818C25.4383 62.1829 25.6398 61.8419 25.7894 61.5559C25.94 61.2709 26.0683 61.0236 26.1741 60.8109C26.28 60.5992 26.394 60.416 26.5161 60.2613C26.6382 60.0985 26.7665 60.0089 26.9008 59.9926C27.0352 59.9763 27.1512 60.0048 27.2489 60.0781H27.2479Z" fill="#EBEBEB"/>
<path d="M33.267 63.5446C33.5753 63.5446 33.8349 63.5853 34.0415 63.6668C34.2491 63.7482 34.4211 63.8622 34.5605 64.0087C34.7152 64.1716 34.8252 64.3751 34.8903 64.6194C34.9544 64.8637 34.988 65.1934 34.988 65.6087V68.8686C34.988 69.2106 35.0593 69.4416 35.2017 69.5638C35.3442 69.6859 35.5814 69.7469 35.9152 69.7469V70.0034C35.7768 69.9953 35.5651 69.9851 35.2801 69.9729C34.9951 69.9607 34.7193 69.9546 34.4506 69.9546C34.1819 69.9546 33.9193 69.9607 33.6629 69.9729C33.4064 69.9851 33.213 69.9963 33.0827 70.0034V69.7469C33.3759 69.7469 33.5835 69.6859 33.7056 69.5638C33.8277 69.4416 33.8888 69.2096 33.8888 68.8686V65.34C33.8888 65.0876 33.8685 64.8555 33.8277 64.6438C33.787 64.4321 33.6954 64.2611 33.5529 64.1309C33.4105 64.0016 33.1927 63.9355 32.8995 63.9355C32.5576 63.9355 32.2583 64.0332 32.0019 64.2286C31.7454 64.424 31.5459 64.6907 31.4044 65.0286C31.2619 65.3665 31.1907 65.742 31.1907 66.1573V68.8676C31.1907 69.2096 31.2507 69.4406 31.3739 69.5627C31.496 69.6849 31.7037 69.7459 31.9968 69.7459V70.0024C31.8665 69.9943 31.6731 69.9841 31.4166 69.9719C31.1602 69.9597 30.8976 69.9536 30.6289 69.9536C30.3602 69.9536 30.0834 69.9597 29.7984 69.9719C29.5144 69.9841 29.3017 69.9953 29.1643 70.0024V69.7459C29.4971 69.7459 29.7363 69.6849 29.8778 69.5627C30.0203 69.4406 30.0915 69.2085 30.0915 68.8676V65.0459C30.0915 64.6795 30.0264 64.4087 29.8961 64.2337C29.7658 64.0586 29.5215 63.9711 29.1643 63.9711V63.7146C29.4249 63.739 29.6762 63.7512 29.9205 63.7512C30.1648 63.7512 30.3826 63.737 30.5984 63.7085C30.8141 63.68 31.0116 63.6373 31.1907 63.5803V65.0214C31.4024 64.4678 31.6965 64.0841 32.0762 63.8673C32.4538 63.6515 32.8507 63.5436 33.267 63.5436V63.5446Z" fill="#EBEBEB"/>
<path d="M39.4194 63.5446C40.1349 63.5446 40.6947 63.7624 41.0977 64.198C41.5008 64.6337 41.7013 65.3115 41.7013 66.2305H37.392L37.3798 65.9985H40.5298C40.5451 65.5995 40.5135 65.2311 40.4321 64.8932C40.3507 64.5553 40.2224 64.2846 40.0474 64.081C39.8723 63.8775 39.6464 63.7757 39.3696 63.7757C38.995 63.7757 38.6632 63.9629 38.3742 64.3365C38.0851 64.711 37.9121 65.3054 37.8551 66.1186L37.8917 66.1674C37.8755 66.2896 37.8632 66.4239 37.8551 66.5705C37.847 66.717 37.8439 66.8636 37.8439 67.0102C37.8439 67.5638 37.9325 68.0391 38.1116 68.4381C38.2897 68.8371 38.5248 69.1404 38.8138 69.348C39.1019 69.5556 39.4011 69.6594 39.7105 69.6594C39.9548 69.6594 40.1868 69.6207 40.4067 69.5434C40.6265 69.466 40.8301 69.3378 41.0173 69.1587C41.2036 68.9806 41.3664 68.7394 41.5048 68.4381L41.7491 68.5358C41.6595 68.8045 41.513 69.065 41.3094 69.3174C41.1059 69.5699 40.8494 69.7754 40.54 69.9342C40.2306 70.093 39.8723 70.1724 39.4662 70.1724C38.88 70.1724 38.3772 70.038 37.9579 69.7704C37.5386 69.5017 37.218 69.1292 36.9941 68.6528C36.7702 68.1765 36.6582 67.63 36.6582 67.0112C36.6582 66.2947 36.7722 65.6779 37.0002 65.1619C37.2282 64.6449 37.5488 64.2459 37.964 63.965C38.3793 63.6841 38.8627 63.5436 39.4164 63.5436L39.4194 63.5446Z" fill="#EBEBEB"/>
<path d="M46.4267 63.5447C46.6465 63.5447 46.8399 63.5894 47.0068 63.679C47.1737 63.7686 47.304 63.8846 47.3976 64.0271C47.4913 64.1696 47.5381 64.3304 47.5381 64.5095C47.5381 64.7131 47.475 64.8922 47.3488 65.0469C47.2226 65.2016 47.0536 65.2789 46.8419 65.2789C46.6709 65.2789 46.5203 65.224 46.39 65.1141C46.2598 65.0041 46.1946 64.8474 46.1946 64.6439C46.1946 64.4892 46.2374 64.3568 46.3229 64.2469C46.4084 64.137 46.504 64.0495 46.6099 63.9843C46.5529 63.9029 46.4674 63.8622 46.3534 63.8622C46.101 63.8622 45.8689 63.9375 45.6572 64.0882C45.4455 64.2388 45.2664 64.4322 45.1209 64.6683C44.9743 64.9044 44.8603 65.1548 44.7789 65.4194C44.6975 65.684 44.6568 65.9303 44.6568 66.1573V68.7455C44.6568 69.1445 44.7728 69.4111 45.0048 69.5455C45.2369 69.6798 45.5524 69.747 45.9514 69.747V70.0035C45.7641 69.9953 45.4995 69.9851 45.1575 69.9729C44.8155 69.9607 44.4532 69.9546 44.0705 69.9546C43.7937 69.9546 43.5199 69.9607 43.2471 69.9729C42.9744 69.9851 42.7688 69.9963 42.6304 70.0035V69.747C42.9632 69.747 43.2024 69.6859 43.3449 69.5638C43.4873 69.4416 43.5586 69.2096 43.5586 68.8686V65.0469C43.5586 64.6805 43.4934 64.4098 43.3632 64.2347C43.2329 64.0597 42.9896 63.9721 42.6314 63.9721V63.7156C42.8919 63.7401 43.1433 63.7523 43.3886 63.7523C43.6339 63.7523 43.8497 63.738 44.0665 63.7095C44.2822 63.681 44.4797 63.6383 44.6588 63.5813V65.1069C44.7484 64.8708 44.8766 64.6327 45.0435 64.3935C45.2104 64.1533 45.4119 63.9518 45.6481 63.7889C45.8842 63.6261 46.1447 63.5447 46.4297 63.5447H46.4267Z" fill="#EBEBEB"/>
<path d="M50.8094 63.5447C51.3305 63.5447 51.7987 63.6587 52.214 63.8866C52.6292 64.1146 52.961 64.4729 53.2094 64.9604C53.4577 65.4489 53.5819 66.084 53.5819 66.8646C53.5819 67.6453 53.4577 68.2783 53.2094 68.7628C52.961 69.2473 52.6292 69.6035 52.214 69.8315C51.7987 70.0594 51.3305 70.1734 50.8094 70.1734C50.2883 70.1734 49.8314 70.0594 49.412 69.8315C48.9927 69.6035 48.6589 69.2473 48.4116 68.7628C48.1622 68.2783 48.0391 67.6463 48.0391 66.8646C48.0391 66.083 48.1632 65.4489 48.4116 64.9604C48.6599 64.4719 48.9927 64.1136 49.412 63.8866C49.8314 63.6587 50.2975 63.5447 50.8094 63.5447ZM50.8094 63.7889C50.3464 63.7889 49.9657 64.0291 49.6685 64.5095C49.3713 64.9899 49.2227 65.7756 49.2227 66.8657C49.2227 67.9557 49.3713 68.7394 49.6685 69.2157C49.9657 69.692 50.3464 69.9292 50.8094 69.9292C51.2725 69.9292 51.6542 69.691 51.9514 69.2157C52.2486 68.7394 52.3962 67.9557 52.3962 66.8657C52.3962 65.7756 52.2486 64.9899 51.9514 64.5095C51.6542 64.0291 51.2735 63.7889 50.8094 63.7889Z" fill="#EBEBEB"/>
<path d="M60.5149 63.5446C61.2304 63.5446 61.7902 63.7624 62.1932 64.198C62.5962 64.6337 62.7967 65.3115 62.7967 66.2305H58.4875L58.4753 65.9985H61.6253C61.6405 65.5995 61.609 65.2311 61.5276 64.8932C61.4461 64.5553 61.3179 64.2846 61.1428 64.081C60.9678 63.8775 60.7418 63.7757 60.465 63.7757C60.0905 63.7757 59.7587 63.9629 59.4696 64.3365C59.1806 64.711 59.0076 65.3054 58.9506 66.1186L58.9872 66.1674C58.9709 66.2896 58.9587 66.4239 58.9506 66.5705C58.9424 66.717 58.9394 66.8636 58.9394 67.0102C58.9394 67.5638 59.0279 68.0391 59.207 68.4381C59.3852 68.8371 59.6203 69.1404 59.9093 69.348C60.1973 69.5556 60.4966 69.6594 60.806 69.6594C61.0502 69.6594 61.2823 69.6207 61.5021 69.5434C61.722 69.466 61.9255 69.3378 62.1128 69.1587C62.299 68.9806 62.4619 68.7394 62.6003 68.4381L62.8446 68.5358C62.755 68.8045 62.6084 69.065 62.4049 69.3174C62.2013 69.5699 61.9449 69.7754 61.6355 69.9342C61.326 70.093 60.9678 70.1724 60.5617 70.1724C59.9755 70.1724 59.4727 70.038 59.0534 69.7704C58.634 69.5017 58.3134 69.1292 58.0895 68.6528C57.8656 68.1765 57.7537 67.63 57.7537 67.0112C57.7537 66.2947 57.8677 65.6779 58.0956 65.1619C58.3236 64.6449 58.6442 64.2459 59.0595 63.965C59.4747 63.6841 59.9582 63.5436 60.5118 63.5436L60.5149 63.5446Z" fill="#EBEBEB"/>
<path d="M2.38072 75.8211V81.1074C2.38072 81.4494 2.45196 81.6804 2.59445 81.8025C2.73592 81.9247 2.97408 81.9857 3.30791 81.9857V82.2422C3.16949 82.2341 2.95983 82.2239 2.67994 82.2117C2.39904 82.1995 2.1161 82.1934 1.83112 82.1934C1.54614 82.1934 1.27338 82.1995 0.988404 82.2117C0.703427 82.2239 0.49173 82.2351 0.353313 82.2422V81.9857C0.687142 81.9857 0.925302 81.9247 1.06677 81.8025C1.20926 81.6804 1.2805 81.4484 1.2805 81.1074V77.2857C1.2805 76.9193 1.21537 76.6485 1.08509 76.4735C0.954817 76.2984 0.710551 76.2109 0.352295 76.2109V75.9544C0.612845 75.9788 0.865253 75.991 1.1085 75.991C1.35175 75.991 1.57057 75.9768 1.78634 75.9483C2.00211 75.9198 2.19955 75.8771 2.37868 75.8201L2.38072 75.8211ZM1.74563 72.9041C1.95732 72.9041 2.14052 72.9815 2.29523 73.1362C2.44993 73.2909 2.52728 73.4741 2.52728 73.6858C2.52728 73.8975 2.44993 74.0807 2.29523 74.2354C2.14052 74.3901 1.95732 74.4674 1.74563 74.4674C1.53393 74.4674 1.35073 74.3901 1.19603 74.2354C1.04235 74.0817 0.963977 73.8975 0.963977 73.6858C0.963977 73.4741 1.04133 73.2909 1.19603 73.1362C1.35073 72.9815 1.53393 72.9041 1.74563 72.9041Z" fill="#EBEBEB"/>
<path d="M8.03233 75.7844C8.34174 75.7844 8.60025 75.8251 8.80788 75.9066C9.0155 75.988 9.18852 76.102 9.32694 76.2485C9.48063 76.4114 9.59156 76.6149 9.65568 76.8592C9.72082 77.1035 9.75339 77.4332 9.75339 77.8485V81.1084C9.75339 81.4504 9.82463 81.6814 9.96712 81.8035C10.1096 81.9257 10.3478 81.9867 10.6816 81.9867V82.2432C10.5432 82.2351 10.3315 82.2249 10.0465 82.2127C9.76153 82.2005 9.4847 82.1944 9.216 82.1944C8.94731 82.1944 8.68473 82.2005 8.42825 82.2127C8.17177 82.2249 7.97839 82.2361 7.84812 82.2432V81.9867C8.14225 81.9867 8.34886 81.9257 8.47099 81.8035C8.59313 81.6814 8.65419 81.4494 8.65419 81.1084V77.5798C8.65419 77.3274 8.63384 77.0953 8.59313 76.8836C8.55242 76.6719 8.46082 76.5009 8.31833 76.3707C8.17584 76.2414 7.95804 76.1752 7.66492 76.1752C7.32294 76.1752 7.02372 76.273 6.76826 76.4684C6.51178 76.6638 6.3123 76.9304 6.16981 77.2683C6.02732 77.6062 5.95607 77.9818 5.95607 78.3971V81.1074C5.95607 81.4494 6.01714 81.6804 6.13927 81.8025C6.26141 81.9247 6.46903 81.9857 6.76215 81.9857V82.2422C6.63188 82.2341 6.4385 82.2239 6.18202 82.2117C5.92554 82.1995 5.66296 82.1933 5.39426 82.1933C5.12557 82.1933 4.84874 82.1995 4.56478 82.2117C4.2798 82.2239 4.0681 82.2351 3.92969 82.2422V81.9857C4.26352 81.9857 4.50168 81.9247 4.64416 81.8025C4.78665 81.6804 4.8579 81.4483 4.8579 81.1074V77.2856C4.8579 76.9192 4.79276 76.6485 4.66248 76.4735C4.53221 76.2984 4.28794 76.2109 3.92969 76.2109V75.9544C4.19024 75.9788 4.44265 75.991 4.68691 75.991C4.93118 75.991 5.14898 75.9768 5.36475 75.9483C5.58052 75.9198 5.77695 75.877 5.95607 75.82V77.2612C6.16777 76.7075 6.46293 76.3238 6.84154 76.1071C7.22015 75.8913 7.61708 75.7834 8.03233 75.7834V75.7844Z" fill="#EBEBEB"/>
<path d="M13.1842 73.929V75.9676H14.9907V76.2118H13.1842V80.9364C13.1842 81.319 13.2534 81.5877 13.3918 81.7424C13.5302 81.8971 13.7216 81.9745 13.9658 81.9745C14.2101 81.9745 14.4218 81.8747 14.6009 81.6753C14.7801 81.4758 14.9337 81.1399 15.065 80.6677L15.3093 80.7287C15.2279 81.201 15.0671 81.5989 14.8269 81.9246C14.5867 82.2503 14.2182 82.4131 13.7216 82.4131C13.4447 82.4131 13.2168 82.3785 13.0376 82.3093C12.8585 82.2401 12.6997 82.1404 12.5613 82.0101C12.3822 81.8228 12.258 81.5989 12.1898 81.3384C12.1196 81.0778 12.086 80.7328 12.086 80.3002V76.2108H10.9146V75.9666H12.086V74.0979C12.2896 74.0898 12.485 74.0735 12.6722 74.0491C12.8595 74.0247 13.0295 73.9839 13.1842 73.9269V73.929Z" fill="#EBEBEB"/>
<path d="M18.5073 75.7844C19.2228 75.7844 19.7825 76.0022 20.1856 76.4378C20.5886 76.8734 20.7901 77.5513 20.7901 78.4703H16.4809L16.4687 78.2383H19.6177C19.6339 77.8393 19.6014 77.4709 19.52 77.133C19.4385 76.7951 19.3103 76.5243 19.1352 76.3208C18.9602 76.1172 18.7342 76.0155 18.4574 76.0155C18.0829 76.0155 17.7511 76.2027 17.462 76.5763C17.173 76.9508 16.9999 77.5452 16.943 78.3584L16.9796 78.4072C16.9633 78.5294 16.9511 78.6637 16.943 78.8103C16.9348 78.9568 16.9307 79.1034 16.9307 79.2499C16.9307 79.8036 17.0203 80.2789 17.1994 80.6779C17.3786 81.0768 17.6126 81.3801 17.9017 81.5878C18.1907 81.7954 18.49 81.8992 18.7994 81.8992C19.0426 81.8992 19.2757 81.8605 19.4945 81.7832C19.7144 81.7058 19.9169 81.5776 20.1052 81.3985C20.2924 81.2204 20.4553 80.9791 20.5937 80.6779L20.838 80.7756C20.7484 81.0443 20.6019 81.3048 20.3983 81.5572C20.1947 81.8096 19.9383 82.0152 19.6289 82.174C19.3195 82.3328 18.9612 82.4122 18.5541 82.4122C17.9679 82.4122 17.4661 82.2778 17.0468 82.0101C16.6274 81.7415 16.3058 81.369 16.0829 80.8926C15.859 80.4163 15.7471 79.8698 15.7471 79.251C15.7471 78.5345 15.8611 77.9177 16.089 77.4017C16.317 76.8846 16.6386 76.4857 17.0529 76.2048C17.4681 75.9239 17.9526 75.7834 18.5063 75.7834L18.5073 75.7844Z" fill="#EBEBEB"/>
<path d="M25.5134 75.7844C25.7333 75.7844 25.9266 75.8292 26.0936 75.9187C26.2605 76.0083 26.3907 76.1243 26.4844 76.2668C26.578 76.4093 26.6248 76.5701 26.6248 76.7492C26.6248 76.9528 26.5617 77.1319 26.4355 77.2866C26.3093 77.4413 26.1404 77.5187 25.9287 77.5187C25.7577 77.5187 25.6071 77.4637 25.4768 77.3538C25.3465 77.2439 25.2814 77.0871 25.2814 76.8836C25.2814 76.7289 25.3241 76.5966 25.4096 76.4867C25.4951 76.3767 25.5908 76.2892 25.6956 76.2241C25.6386 76.1427 25.5531 76.1019 25.4391 76.1019C25.1867 76.1019 24.9547 76.1773 24.744 76.3279C24.5323 76.4785 24.3532 76.6719 24.2066 76.908C24.06 77.1441 23.946 77.3945 23.8646 77.6591C23.7832 77.9238 23.7425 78.1701 23.7425 78.397V80.9852C23.7425 81.3842 23.8585 81.6508 24.0906 81.7852C24.3226 81.9195 24.6381 81.9867 25.0371 81.9867V82.2432C24.8498 82.235 24.5852 82.2249 24.2432 82.2127C23.9013 82.2004 23.5389 82.1943 23.1573 82.1943C22.8804 82.1943 22.6056 82.2004 22.3329 82.2127C22.0601 82.2249 21.8545 82.2361 21.7161 82.2432V81.9867C22.0499 81.9867 22.2881 81.9256 22.4296 81.8035C22.5721 81.6814 22.6433 81.4493 22.6433 81.1084V77.2866C22.6433 76.9202 22.5782 76.6495 22.4479 76.4744C22.3176 76.2994 22.0733 76.2119 21.7151 76.2119V75.9554C21.9756 75.9798 22.228 75.992 22.4713 75.992C22.7145 75.992 22.9334 75.9778 23.1491 75.9493C23.3649 75.9208 23.5623 75.878 23.7415 75.821V77.3467C23.831 77.1106 23.9593 76.8724 24.1262 76.6332C24.2931 76.393 24.4936 76.1915 24.7297 76.0287C24.9659 75.8658 25.2264 75.7844 25.5104 75.7844H25.5134Z" fill="#EBEBEB"/>
<path d="M29.3355 75.7844C29.6612 75.7844 29.938 75.8374 30.1649 75.9432C30.3929 76.049 30.5598 76.1468 30.6657 76.2363C30.9344 76.4562 31.0972 76.3096 31.1542 75.7966H31.4351C31.4188 76.0246 31.4056 76.2953 31.3985 76.6088C31.3903 76.9223 31.3863 77.3426 31.3863 77.8719H31.1054C31.0565 77.5706 30.9731 77.2785 30.855 76.9925C30.7369 76.7075 30.5639 76.4735 30.3359 76.2903C30.108 76.1071 29.8108 76.0155 29.4444 76.0155C29.1594 76.0155 28.9212 76.0948 28.7299 76.2536C28.5385 76.4124 28.4429 76.6465 28.4429 76.9559C28.4429 77.2002 28.5162 77.4098 28.6627 77.5839C28.8093 77.7589 29.0006 77.9218 29.2367 78.0724C29.4729 78.223 29.7293 78.3879 30.0062 78.567C30.3156 78.7624 30.5965 78.9619 30.8489 79.1655C31.1013 79.369 31.3028 79.5929 31.4524 79.8362C31.6031 80.0805 31.6784 80.3695 31.6784 80.7033C31.6784 81.0779 31.5807 81.3913 31.3853 81.6427C31.1898 81.8951 30.9354 82.0865 30.6219 82.2168C30.3085 82.347 29.9644 82.4122 29.5909 82.4122C29.4118 82.4122 29.2428 82.3979 29.0841 82.3694C28.9253 82.3409 28.7726 82.2982 28.6261 82.2412C28.5447 82.2005 28.4612 82.1516 28.3757 82.0946C28.2902 82.0376 28.2068 81.9766 28.1253 81.9114C28.0439 81.8463 27.9706 81.8483 27.9055 81.9175C27.8404 81.9867 27.7905 82.1231 27.7589 82.3267H27.478C27.4943 82.0661 27.5065 81.7486 27.5147 81.374C27.5218 81.0005 27.5269 80.5038 27.5269 79.885H27.8078C27.8648 80.341 27.9462 80.74 28.0521 81.0819C28.1579 81.4239 28.3248 81.6906 28.5528 81.8809C28.7808 82.0722 29.0983 82.1679 29.5054 82.1679C29.6683 82.1679 29.8332 82.1313 30.0001 82.058C30.167 81.9847 30.3074 81.8626 30.4214 81.6916C30.5354 81.5206 30.5924 81.2926 30.5924 81.0076C30.5924 80.6494 30.4621 80.3573 30.2016 80.1283C29.941 79.9003 29.6113 79.6601 29.2123 79.4077C28.9192 79.2204 28.6444 79.0332 28.3889 78.8459C28.1325 78.6586 27.9248 78.4469 27.7661 78.2108C27.6073 77.9747 27.5279 77.6897 27.5279 77.3559C27.5279 76.9895 27.6114 76.6902 27.7783 76.4582C27.9452 76.2261 28.1671 76.0562 28.4429 75.9463C28.7197 75.8363 29.0169 75.7814 29.3344 75.7814L29.3355 75.7844Z" fill="#EBEBEB"/>
<path d="M35.5732 75.7844C36.2887 75.7844 36.8485 76.0022 37.2515 76.4378C37.6546 76.8734 37.8551 77.5513 37.8551 78.4703H33.5458L33.5336 78.2383H36.6836C36.6989 77.8393 36.6673 77.4709 36.5859 77.133C36.5045 76.7951 36.3763 76.5243 36.2012 76.3208C36.0261 76.1172 35.8002 76.0155 35.5234 76.0155C35.1488 76.0155 34.817 76.2027 34.528 76.5763C34.2389 76.9508 34.0659 77.5452 34.0089 78.3584L34.0456 78.4072C34.0293 78.5294 34.0171 78.6637 34.0089 78.8103C34.0008 78.9568 33.9977 79.1034 33.9977 79.2499C33.9977 79.8036 34.0863 80.2789 34.2654 80.6779C34.4435 81.0768 34.6786 81.3801 34.9677 81.5878C35.2557 81.7954 35.5549 81.8992 35.8643 81.8992C36.1086 81.8992 36.3406 81.8605 36.5605 81.7832C36.7803 81.7058 36.9839 81.5776 37.1711 81.3985C37.3574 81.2204 37.5202 80.9791 37.6586 80.6779L37.9029 80.7756C37.8134 81.0443 37.6668 81.3048 37.4632 81.5572C37.2597 81.8096 37.0032 82.0152 36.6938 82.174C36.3844 82.3328 36.0261 82.4122 35.62 82.4122C35.0338 82.4122 34.531 82.2778 34.1117 82.0101C33.6924 81.7415 33.3718 81.369 33.1479 80.8926C32.924 80.4163 32.812 79.8698 32.812 79.251C32.812 78.5345 32.926 77.9177 33.154 77.4017C33.382 76.8846 33.7026 76.4857 34.1178 76.2048C34.5331 75.9239 35.0165 75.7834 35.5702 75.7834L35.5732 75.7844Z" fill="#EBEBEB"/>
<path d="M41.8364 75.7844C42.097 75.7844 42.3484 75.817 42.5926 75.8821C42.8369 75.9472 43.0567 76.0449 43.2521 76.1752C43.4394 76.2974 43.5819 76.4378 43.6796 76.5966C43.7773 76.7554 43.8262 76.9284 43.8262 77.1156C43.8262 77.3355 43.7651 77.5044 43.643 77.6225C43.5208 77.7406 43.3661 77.7996 43.1789 77.7996C42.9916 77.7996 42.844 77.7467 42.7097 77.6408C42.5753 77.535 42.5081 77.3843 42.5081 77.1889C42.5081 76.9935 42.559 76.851 42.6608 76.737C42.7626 76.623 42.8827 76.5498 43.0211 76.5172C42.9397 76.3706 42.7952 76.2485 42.5875 76.1508C42.3799 76.0531 42.157 76.0042 41.9219 76.0042C41.7173 76.0042 41.5148 76.0531 41.3112 76.1508C41.1067 76.2485 40.9204 76.4093 40.7494 76.6332C40.5784 76.8571 40.44 77.1625 40.3342 77.5482C40.2283 77.9349 40.1754 78.4174 40.1754 78.9945C40.1754 79.711 40.2568 80.2809 40.4197 80.7043C40.5825 81.1277 40.7952 81.431 41.0599 81.6142C41.3245 81.7974 41.6156 81.889 41.9331 81.889C42.1448 81.889 42.3606 81.8483 42.5804 81.7669C42.8002 81.6854 43.0079 81.5531 43.2033 81.3699C43.3977 81.1867 43.5646 80.9404 43.703 80.631L43.9351 80.7165C43.8536 80.9771 43.7193 81.2397 43.532 81.5043C43.3448 81.7689 43.1005 81.9867 42.8002 82.1577C42.499 82.3287 42.1285 82.4142 41.6888 82.4142C41.184 82.4142 40.7291 82.2839 40.322 82.0233C39.9149 81.7628 39.5912 81.3903 39.351 80.9068C39.1108 80.4224 38.9907 79.8463 38.9907 79.1797C38.9907 78.513 39.1108 77.9248 39.351 77.4159C39.5912 76.907 39.9271 76.508 40.3576 76.219C40.7891 75.931 41.2817 75.7854 41.8354 75.7854L41.8364 75.7844Z" fill="#EBEBEB"/>
<path d="M47.7692 75.7844C48.0298 75.7844 48.2812 75.817 48.5265 75.8821C48.7697 75.9472 48.9895 76.0449 49.186 76.1752C49.3732 76.2974 49.5147 76.4378 49.6134 76.5966C49.7112 76.7554 49.76 76.9284 49.76 77.1156C49.76 77.3355 49.6989 77.5044 49.5768 77.6225C49.4547 77.7406 49.3 77.7996 49.1127 77.7996C48.9254 77.7996 48.7768 77.7467 48.6425 77.6408C48.5081 77.535 48.442 77.3843 48.442 77.1889C48.442 76.9935 48.4929 76.851 48.5936 76.737C48.6954 76.623 48.8155 76.5498 48.9539 76.5172C48.8725 76.3706 48.728 76.2485 48.5204 76.1508C48.3127 76.0531 48.0909 76.0042 47.8547 76.0042C47.6512 76.0042 47.4476 76.0531 47.2441 76.1508C47.0405 76.2485 46.8532 76.4093 46.6833 76.6332C46.5123 76.8571 46.3739 77.1625 46.268 77.5482C46.1622 77.9349 46.1093 78.4174 46.1093 78.9945C46.1093 79.711 46.1907 80.2809 46.3525 80.7043C46.5153 81.1277 46.7291 81.431 46.9937 81.6142C47.2583 81.7974 47.5494 81.889 47.8669 81.889C48.0786 81.889 48.2944 81.8483 48.5132 81.7669C48.7321 81.6854 48.9407 81.5531 49.1361 81.3699C49.3315 81.1867 49.4984 80.9404 49.6369 80.631L49.8689 80.7165C49.7875 80.9771 49.6531 81.2397 49.4669 81.5043C49.2796 81.7689 49.0353 81.9867 48.7341 82.1577C48.4328 82.3287 48.0624 82.4142 47.6227 82.4142C47.1189 82.4142 46.6629 82.2839 46.2558 82.0233C45.8487 81.7628 45.5261 81.3903 45.2849 80.9068C45.0457 80.4224 44.9246 79.8463 44.9246 79.1797C44.9246 78.513 45.0447 77.9248 45.2849 77.4159C45.525 76.907 45.8609 76.508 46.2924 76.219C46.724 75.931 47.2166 75.7854 47.7692 75.7854V75.7844Z" fill="#EBEBEB"/>
<path d="M52.6769 75.8211V81.1074C52.6769 81.4494 52.7481 81.6804 52.8906 81.8025C53.0321 81.9247 53.2702 81.9857 53.6041 81.9857V82.2422C53.4656 82.2341 53.256 82.2239 52.9761 82.2117C52.6952 82.1995 52.4122 82.1934 52.1273 82.1934C51.8423 82.1934 51.5695 82.1995 51.2845 82.2117C50.9996 82.2239 50.7879 82.2351 50.6495 82.2422V81.9857C50.9833 81.9857 51.2214 81.9247 51.3629 81.8025C51.5054 81.6804 51.5766 81.4484 51.5766 81.1074V77.2857C51.5766 76.9193 51.5115 76.6485 51.3812 76.4735C51.251 76.2984 51.0067 76.2109 50.6484 76.2109V75.9544C50.909 75.9788 51.1614 75.991 51.4046 75.991C51.6479 75.991 51.8667 75.9768 52.0825 75.9483C52.2982 75.9198 52.4957 75.8771 52.6748 75.8201L52.6769 75.8211ZM52.0418 72.9041C52.2535 72.9041 52.4367 72.9815 52.5914 73.1362C52.7461 73.2909 52.8234 73.4741 52.8234 73.6858C52.8234 73.8975 52.7461 74.0807 52.5914 74.2354C52.4367 74.3901 52.2535 74.4674 52.0418 74.4674C51.8301 74.4674 51.6469 74.3901 51.4922 74.2354C51.3385 74.0817 51.2601 73.8975 51.2601 73.6858C51.2601 73.4741 51.3375 73.2909 51.4922 73.1362C51.6469 72.9815 51.8301 72.9041 52.0418 72.9041Z" fill="#EBEBEB"/>
<path d="M57.2182 75.7844C57.7393 75.7844 58.2074 75.8984 58.6227 76.1264C59.0369 76.3543 59.3697 76.7126 59.6171 77.2001C59.8654 77.6886 59.9896 78.3237 59.9896 79.1044C59.9896 79.885 59.8654 80.5181 59.6171 81.0025C59.3687 81.487 59.0369 81.8432 58.6227 82.0712C58.2074 82.2992 57.7393 82.4132 57.2182 82.4132C56.6971 82.4132 56.2401 82.2992 55.8198 82.0712C55.4014 81.8432 55.0666 81.487 54.8193 81.0025C54.5709 80.5181 54.4468 79.886 54.4468 79.1044C54.4468 78.3227 54.5709 77.6886 54.8193 77.2001C55.0676 76.7116 55.4014 76.3533 55.8198 76.1264C56.2391 75.8984 56.7052 75.7844 57.2182 75.7844ZM57.2182 76.0287C56.7541 76.0287 56.3744 76.2689 56.0772 76.7492C55.7801 77.2296 55.6315 78.0154 55.6315 79.1054C55.6315 80.1954 55.7801 80.9791 56.0772 81.4554C56.3744 81.9317 56.7551 82.1689 57.2182 82.1689C57.6813 82.1689 58.0619 81.9307 58.3601 81.4554C58.6573 80.9791 58.8049 80.1954 58.8049 79.1054C58.8049 78.0154 58.6563 77.2296 58.3601 76.7492C58.0619 76.2689 57.6823 76.0287 57.2182 76.0287Z" fill="#EBEBEB"/>
<path d="M65.0194 75.7844C65.3277 75.7844 65.5873 75.8251 65.7949 75.9066C66.0025 75.988 66.1745 76.102 66.314 76.2485C66.4687 76.4114 66.5786 76.6149 66.6437 76.8592C66.7089 77.1035 66.7414 77.4332 66.7414 77.8485V81.1084C66.7414 81.4504 66.8137 81.6814 66.9552 81.8035C67.0976 81.9257 67.3358 81.9867 67.6686 81.9867V82.2432C67.5302 82.2351 67.3185 82.2249 67.0345 82.2127C66.7496 82.2005 66.4727 82.1944 66.204 82.1944C65.9353 82.1944 65.6728 82.2005 65.4163 82.2127C65.1598 82.2249 64.9664 82.2361 64.8362 82.2432V81.9867C65.1293 81.9867 65.3369 81.9257 65.459 81.8035C65.5812 81.6814 65.6422 81.4494 65.6422 81.1084V77.5798C65.6422 77.3274 65.6229 77.0953 65.5822 76.8836C65.5415 76.6719 65.4499 76.5009 65.3074 76.3707C65.1649 76.2414 64.9471 76.1752 64.654 76.1752C64.312 76.1752 64.0128 76.273 63.7563 76.4684C63.4998 76.6638 63.3003 76.9304 63.1589 77.2683C63.0164 77.6062 62.9451 77.9818 62.9451 78.3971V81.1074C62.9451 81.4494 63.0062 81.6804 63.1283 81.8025C63.2505 81.9247 63.4581 81.9857 63.7512 81.9857V82.2422C63.6209 82.2341 63.4276 82.2239 63.1711 82.2117C62.9146 82.1995 62.652 82.1933 62.3833 82.1933C62.1146 82.1933 61.8378 82.1995 61.5538 82.2117C61.2689 82.2239 61.0572 82.2351 60.9187 82.2422V81.9857C61.2526 81.9857 61.4907 81.9247 61.6322 81.8025C61.7747 81.6804 61.8459 81.4483 61.8459 81.1074V77.2856C61.8459 76.9192 61.7808 76.6485 61.6505 76.4735C61.5202 76.2984 61.276 76.2109 60.9177 76.2109V75.9544C61.1783 75.9788 61.4307 75.991 61.6739 75.991C61.9172 75.991 62.136 75.9768 62.3518 75.9483C62.5675 75.9198 62.765 75.877 62.9441 75.82V77.2612C63.1558 76.7075 63.451 76.3238 63.8296 76.1071C64.2082 75.8913 64.6051 75.7834 65.0204 75.7834L65.0194 75.7844Z" fill="#EBEBEB"/>
<path d="M69.9395 82.3277C69.6057 82.3277 69.3166 82.2646 69.0724 82.1384C68.8291 82.0122 68.6429 81.8351 68.5177 81.6071C68.3915 81.3791 68.3284 81.1145 68.3284 80.8132C68.3284 80.455 68.4118 80.1619 68.5787 79.9339C68.7457 79.7059 68.9594 79.5227 69.2199 79.3843C69.4805 79.2459 69.7553 79.1299 70.0433 79.0362C70.3324 78.9426 70.6072 78.853 70.8677 78.7685C71.1283 78.683 71.342 78.5833 71.5089 78.4693C71.6758 78.3553 71.7593 78.2047 71.7593 78.0174V77.2602C71.7593 76.9182 71.7084 76.6577 71.6076 76.4786C71.5059 76.3004 71.3695 76.1793 71.1985 76.1183C71.0275 76.0572 70.8362 76.0267 70.6245 76.0267C70.4128 76.0267 70.2041 76.0552 69.9711 76.1121C69.739 76.1691 69.5538 76.2872 69.4154 76.4663C69.5701 76.4989 69.7044 76.5803 69.8184 76.7106C69.9324 76.8409 69.9894 77.0078 69.9894 77.2113C69.9894 77.4149 69.9242 77.5757 69.794 77.6938C69.6637 77.8118 69.4968 77.8709 69.2932 77.8709C69.0571 77.8709 68.8841 77.7955 68.7742 77.6449C68.6642 77.4943 68.6093 77.3253 68.6093 77.1381C68.6093 76.9264 68.6622 76.7554 68.768 76.6251C68.8739 76.4948 69.0082 76.3727 69.1711 76.2587C69.3584 76.1295 69.6006 76.0175 69.8978 75.9239C70.195 75.8302 70.5308 75.7834 70.9054 75.7834C71.2382 75.7834 71.5232 75.8221 71.7593 75.8994C71.9954 75.9768 72.1908 76.0887 72.3455 76.2353C72.5572 76.4307 72.6956 76.6689 72.7608 76.9488C72.8249 77.2297 72.8585 77.5655 72.8585 77.9553V81.3496C72.8585 81.5532 72.889 81.6997 72.9501 81.7893C73.0111 81.8799 73.1078 81.9236 73.2371 81.9236C73.3267 81.9236 73.4121 81.9043 73.4936 81.8626C73.575 81.8219 73.6727 81.7567 73.7867 81.6672L73.92 81.8748C73.749 82.0051 73.5872 82.1129 73.4325 82.1984C73.2778 82.2839 73.0702 82.3267 72.8096 82.3267C72.5735 82.3267 72.3781 82.286 72.2234 82.2045C72.0687 82.1231 71.9527 82.003 71.8753 81.8443C71.7969 81.6855 71.7583 81.484 71.7583 81.2397C71.5384 81.6061 71.2758 81.8789 70.9705 82.058C70.6652 82.2371 70.3222 82.3267 69.9395 82.3267V82.3277ZM70.3782 81.8402C70.6458 81.8402 70.8972 81.7628 71.1293 81.6081C71.3603 81.4534 71.57 81.2214 71.7572 80.912V78.5192C71.6595 78.6576 71.5181 78.7736 71.3298 78.8673C71.1425 78.9609 70.939 79.0545 70.7191 79.1482C70.4993 79.2418 70.2896 79.3517 70.0901 79.4779C69.8907 79.6041 69.7258 79.769 69.5955 79.9726C69.4652 80.1761 69.4001 80.4407 69.4001 80.7664C69.4001 81.0921 69.4876 81.3527 69.6627 81.5481C69.8377 81.7435 70.0759 81.8412 70.3771 81.8412L70.3782 81.8402Z" fill="#EBEBEB"/>
<path d="M76.2261 72.671V81.1073C76.2261 81.4493 76.2973 81.6803 76.4398 81.8025C76.5823 81.9246 76.8195 81.9857 77.1543 81.9857V82.2422C77.0159 82.234 76.8062 82.2238 76.5253 82.2116C76.2444 82.1994 75.9615 82.1933 75.6775 82.1933C75.3936 82.1933 75.1198 82.1994 74.8348 82.2116C74.5498 82.2238 74.3381 82.235 74.1997 82.2422V81.9857C74.5325 81.9857 74.7717 81.9246 74.9142 81.8025C75.0557 81.6803 75.1279 81.4483 75.1279 81.1073V74.1366C75.1279 73.7702 75.0628 73.4995 74.9325 73.3244C74.8022 73.1494 74.559 73.0618 74.2007 73.0618V72.8054C74.4613 72.8298 74.7127 72.842 74.9579 72.842C75.2032 72.842 75.419 72.8278 75.6348 72.7993C75.8505 72.7708 76.048 72.728 76.2271 72.671H76.2261Z" fill="#EBEBEB"/>
<path d="M79.8028 75.8211V81.1074C79.8028 81.4494 79.874 81.6804 80.0165 81.8025C80.159 81.9247 80.3961 81.9857 80.731 81.9857V82.2422C80.5926 82.2341 80.3829 82.2239 80.102 82.2117C79.8211 82.1995 79.5381 82.1934 79.2532 82.1934C78.9682 82.1934 78.6964 82.1995 78.4104 82.2117C78.1265 82.2239 77.9138 82.2351 77.7764 82.2422V81.9857C78.1092 81.9857 78.3484 81.9247 78.4898 81.8025C78.6323 81.6804 78.7036 81.4484 78.7036 81.1074V77.2857C78.7036 76.9193 78.6384 76.6485 78.5081 76.4735C78.3779 76.2984 78.1336 76.2109 77.7764 76.2109V75.9544C78.0369 75.9788 78.2883 75.991 78.5326 75.991C78.7768 75.991 78.9946 75.9768 79.2104 75.9483C79.4262 75.9198 79.6236 75.8771 79.8028 75.8201V75.8211ZM79.1677 72.9041C79.3794 72.9041 79.5626 72.9815 79.7173 73.1362C79.8709 73.2909 79.9493 73.4741 79.9493 73.6858C79.9493 73.8975 79.872 74.0807 79.7173 74.2354C79.5626 74.3901 79.3783 74.4674 79.1677 74.4674C78.957 74.4674 78.7728 74.3901 78.6181 74.2354C78.4634 74.0817 78.386 73.8975 78.386 73.6858C78.386 73.4741 78.4634 73.2909 78.6181 73.1362C78.7728 72.9815 78.956 72.9041 79.1677 72.9041Z" fill="#EBEBEB"/>
<path d="M84.3439 75.7844C84.7022 75.7844 85.038 75.8699 85.3515 76.0409C85.664 76.2118 85.8746 76.505 85.9795 76.9202L85.8207 77.0424C85.7067 76.7004 85.5296 76.452 85.2894 76.2973C85.0492 76.1426 84.7663 76.0653 84.4416 76.0653C83.9612 76.0653 83.5602 76.3136 83.2396 76.8103C82.918 77.307 82.7613 78.0723 82.7694 79.1054C82.7694 79.7649 82.8325 80.3125 82.9587 80.7481C83.0849 81.1837 83.2722 81.5094 83.5195 81.7251C83.7678 81.9409 84.0711 82.0488 84.4294 82.0488C84.7877 82.0488 85.0798 81.9022 85.3566 81.6091C85.6334 81.316 85.8003 80.8844 85.8573 80.3155L86.0039 80.4865C85.9388 81.1053 85.7413 81.5806 85.4116 81.9144C85.0818 82.2483 84.636 82.4152 84.0752 82.4152C83.5704 82.4152 83.1287 82.293 82.7511 82.0488C82.3725 81.8045 82.0834 81.4381 81.8839 80.9506C81.6845 80.4621 81.5847 79.8473 81.5847 79.1064C81.5847 78.3655 81.713 77.7497 81.9694 77.2571C82.2259 76.7655 82.5638 76.3961 82.9831 76.1518C83.4025 75.9075 83.8564 75.7854 84.3439 75.7854V75.7844ZM86.9077 72.671V80.9109C86.9077 81.2773 86.9749 81.548 87.1092 81.7231C87.2435 81.8981 87.4848 81.9857 87.8359 81.9857V82.2422C87.5835 82.2177 87.3311 82.2055 87.0787 82.2055C86.8425 82.2055 86.6166 82.2177 86.4008 82.2422C86.1851 82.2666 85.9876 82.3114 85.8085 82.3765V74.1366C85.8085 73.7702 85.7433 73.4995 85.6131 73.3244C85.4828 73.1494 85.2385 73.0618 84.8803 73.0618V72.8054C85.1408 72.8298 85.3932 72.842 85.6365 72.842C85.8797 72.842 86.0985 72.8278 86.3143 72.7993C86.5301 72.7708 86.7275 72.728 86.9067 72.671H86.9077Z" fill="#EBEBEB"/>
<path d="M90.179 82.3277C89.8452 82.3277 89.5561 82.2646 89.3129 82.1384C89.0686 82.0122 88.8834 81.8351 88.7572 81.6071C88.631 81.3791 88.5679 81.1145 88.5679 80.8132C88.5679 80.455 88.6513 80.1619 88.8182 79.9339C88.9852 79.7059 89.1979 79.5227 89.4594 79.3843C89.72 79.2459 89.9938 79.1299 90.2838 79.0362C90.5719 78.9426 90.8477 78.853 91.1072 78.7685C91.3678 78.683 91.5815 78.5833 91.7484 78.4693C91.9153 78.3553 91.9988 78.2047 91.9988 78.0174V77.2602C91.9988 76.9182 91.9479 76.6577 91.8461 76.4786C91.7443 76.3004 91.609 76.1793 91.437 76.1183C91.266 76.0572 91.0746 76.0267 90.864 76.0267C90.6533 76.0267 90.4426 76.0552 90.2106 76.1121C89.9785 76.1691 89.7933 76.2872 89.6549 76.4663C89.8096 76.4989 89.9429 76.5803 90.0579 76.7106C90.1719 76.8409 90.2289 77.0078 90.2289 77.2113C90.2289 77.4149 90.1637 77.5757 90.0335 77.6938C89.9032 77.8118 89.7363 77.8709 89.5327 77.8709C89.2966 77.8709 89.1236 77.7955 89.0137 77.6449C88.9037 77.4943 88.8488 77.3253 88.8488 77.1381C88.8488 76.9264 88.9017 76.7554 89.0086 76.6251C89.1134 76.4948 89.2477 76.3727 89.4106 76.2587C89.5979 76.1295 89.8401 76.0175 90.1373 75.9239C90.4345 75.8302 90.7703 75.7834 91.1439 75.7834C91.4777 75.7834 91.7627 75.8221 91.9988 75.8994C92.2349 75.9768 92.4303 76.0887 92.585 76.2353C92.7967 76.4307 92.9351 76.6689 93.0003 76.9488C93.0654 77.2297 93.098 77.5655 93.098 77.9553V81.3496C93.098 81.5532 93.1285 81.6997 93.1896 81.7893C93.2506 81.8799 93.3453 81.9236 93.4756 81.9236C93.5651 81.9236 93.6506 81.9043 93.7321 81.8626C93.8135 81.8219 93.9102 81.7567 94.0252 81.6672L94.1595 81.8748C93.9885 82.0051 93.8257 82.1129 93.671 82.1984C93.5163 82.2839 93.3087 82.3267 93.0481 82.3267C92.812 82.3267 92.6166 82.286 92.4619 82.2045C92.3082 82.1231 92.1911 82.003 92.1138 81.8443C92.0364 81.6855 91.9978 81.484 91.9978 81.2397C91.7779 81.6061 91.5153 81.8789 91.21 82.058C90.9047 82.2371 90.5607 82.3267 90.178 82.3267L90.179 82.3277ZM90.6187 81.8402C90.8874 81.8402 91.1377 81.7628 91.3698 81.6081C91.6019 81.4534 91.8115 81.2214 91.9988 80.912V78.5192C91.9011 78.6576 91.7586 78.7736 91.5713 78.8673C91.384 78.9609 91.1805 79.0545 90.9607 79.1482C90.7408 79.2418 90.5312 79.3517 90.3327 79.4779C90.1332 79.6041 89.9683 79.769 89.8381 79.9726C89.7078 80.1761 89.6426 80.4407 89.6426 80.7664C89.6426 81.0921 89.7302 81.3527 89.9052 81.5481C90.0803 81.7435 90.3184 81.8412 90.6197 81.8412L90.6187 81.8402Z" fill="#EBEBEB"/>
<path d="M97.516 75.7844C97.8743 75.7844 98.2101 75.8699 98.5236 76.0409C98.8361 76.2118 99.0468 76.505 99.1516 76.9202L98.9928 77.0424C98.8788 76.7004 98.7017 76.452 98.4615 76.2973C98.2213 76.1426 97.9384 76.0653 97.6137 76.0653C97.1333 76.0653 96.7323 76.3136 96.4117 76.8103C96.0901 77.307 95.9334 78.0723 95.9415 79.1054C95.9415 79.7649 96.0046 80.3125 96.1308 80.7481C96.257 81.1837 96.4443 81.5094 96.6916 81.7251C96.94 81.9409 97.2433 82.0488 97.6015 82.0488C97.9598 82.0488 98.2519 81.9022 98.5287 81.6091C98.8055 81.316 98.9725 80.8844 99.0294 80.3155L99.176 80.4865C99.1109 81.1053 98.9134 81.5806 98.5837 81.9144C98.2539 82.2483 97.8081 82.4152 97.2473 82.4152C96.7425 82.4152 96.3008 82.293 95.9232 82.0488C95.5446 81.8045 95.2555 81.4381 95.0561 80.9506C94.8566 80.4621 94.7568 79.8473 94.7568 79.1064C94.7568 78.3655 94.8851 77.7497 95.1416 77.2571C95.398 76.7655 95.7359 76.3961 96.1553 76.1518C96.5746 75.9075 97.0285 75.7854 97.516 75.7854V75.7844ZM100.08 72.671V80.9109C100.08 81.2773 100.147 81.548 100.281 81.7231C100.416 81.8981 100.657 81.9857 101.008 81.9857V82.2422C100.756 82.2177 100.503 82.2055 100.251 82.2055C100.015 82.2055 99.7887 82.2177 99.5729 82.2422C99.3572 82.2666 99.1597 82.3114 98.9806 82.3765V74.1366C98.9806 73.7702 98.9155 73.4995 98.7852 73.3244C98.6549 73.1494 98.4106 73.0618 98.0524 73.0618V72.8054C98.3129 72.8298 98.5653 72.842 98.8086 72.842C99.0518 72.842 99.2707 72.8278 99.4864 72.7993C99.7022 72.7708 99.8996 72.728 100.079 72.671H100.08Z" fill="#EBEBEB"/>
<path d="M104.585 75.7844C105.301 75.7844 105.86 76.0022 106.263 76.4378C106.666 76.8734 106.866 77.5513 106.866 78.4703H102.557L102.545 78.2383H105.695C105.711 77.8393 105.679 77.4709 105.597 77.133C105.516 76.7951 105.388 76.5243 105.213 76.3208C105.038 76.1172 104.812 76.0155 104.535 76.0155C104.161 76.0155 103.828 76.2027 103.54 76.5763C103.251 76.9508 103.078 77.5452 103.021 78.3584L103.058 78.4072C103.042 78.5294 103.028 78.6637 103.021 78.8103C103.013 78.9568 103.009 79.1034 103.009 79.2499C103.009 79.8036 103.099 80.2789 103.278 80.6779C103.456 81.0768 103.69 81.3801 103.98 81.5878C104.268 81.7954 104.568 81.8992 104.877 81.8992C105.121 81.8992 105.353 81.8605 105.573 81.7832C105.793 81.7058 105.995 81.5776 106.184 81.3985C106.371 81.2204 106.534 80.9791 106.672 80.6779L106.915 80.7756C106.826 81.0443 106.679 81.3048 106.476 81.5572C106.272 81.8096 106.016 82.0152 105.707 82.174C105.398 82.3328 105.04 82.4122 104.632 82.4122C104.046 82.4122 103.544 82.2778 103.124 82.0101C102.706 81.7415 102.384 81.369 102.16 80.8926C101.936 80.4163 101.825 79.8698 101.825 79.251C101.825 78.5345 101.939 77.9177 102.167 77.4017C102.395 76.8846 102.717 76.4857 103.131 76.2048C103.546 75.9239 104.031 75.7834 104.584 75.7834L104.585 75.7844Z" fill="#EBEBEB"/>
<path d="M109.981 75.7844C110.305 75.7844 110.582 75.8374 110.81 75.9432C111.038 76.049 111.205 76.1468 111.311 76.2363C111.579 76.4562 111.742 76.3096 111.798 75.7966H112.079C112.063 76.0246 112.051 76.2953 112.043 76.6088C112.034 76.9223 112.03 77.3426 112.03 77.8719H111.749C111.701 77.5706 111.617 77.2785 111.499 76.9925C111.381 76.7075 111.209 76.4735 110.98 76.2903C110.752 76.1071 110.455 76.0155 110.088 76.0155C109.804 76.0155 109.565 76.0948 109.374 76.2536C109.184 76.4124 109.088 76.6465 109.088 76.9559C109.088 77.2002 109.161 77.4098 109.308 77.5839C109.454 77.7589 109.646 77.9218 109.882 78.0724C110.118 78.223 110.374 78.3879 110.651 78.567C110.96 78.7624 111.242 78.9619 111.493 79.1655C111.745 79.369 111.947 79.5929 112.098 79.8362C112.248 80.0805 112.324 80.3695 112.324 80.7033C112.324 81.0779 112.226 81.3913 112.03 81.6427C111.835 81.8951 111.581 82.0865 111.268 82.2168C110.955 82.347 110.611 82.4122 110.237 82.4122C110.058 82.4122 109.889 82.3979 109.73 82.3694C109.571 82.3409 109.42 82.2982 109.273 82.2412C109.192 82.2005 109.108 82.1516 109.023 82.0946C108.937 82.0376 108.854 81.9766 108.773 81.9114C108.691 81.8463 108.618 81.8483 108.553 81.9175C108.488 81.9867 108.439 82.1231 108.406 82.3267H108.126C108.141 82.0661 108.155 81.7486 108.163 81.374C108.171 81.0005 108.175 80.5038 108.175 79.885H108.455C108.512 80.341 108.593 80.74 108.699 81.0819C108.804 81.4239 108.972 81.6906 109.199 81.8809C109.427 82.0722 109.744 82.1679 110.152 82.1679C110.314 82.1679 110.478 82.1313 110.646 82.058C110.813 81.9847 110.954 81.8626 111.068 81.6916C111.182 81.5206 111.239 81.2926 111.239 81.0076C111.239 80.6494 111.108 80.3573 110.848 80.1283C110.587 79.8993 110.257 79.6601 109.858 79.4077C109.565 79.2204 109.291 79.0332 109.034 78.8459C108.778 78.6586 108.571 78.4469 108.411 78.2108C108.252 77.9747 108.174 77.6897 108.174 77.3559C108.174 76.9895 108.258 76.6902 108.424 76.4582C108.591 76.2261 108.813 76.0562 109.09 75.9463C109.367 75.8363 109.664 75.7814 109.982 75.7814L109.981 75.7844Z" fill="#EBEBEB"/>
<path d="M3.37596 19.7132C3.37596 16.2477 3.98357 13.288 5.19879 10.8341C6.41401 8.38129 8.14626 6.49026 10.3976 5.16309C12.6479 3.83591 15.2809 3.1713 18.2965 3.1713C21.3122 3.1713 24.0022 3.83591 26.2301 5.16309C28.458 6.49128 30.18 8.3823 31.3953 10.8341C32.6105 13.288 33.2181 16.2477 33.2181 19.7132C33.2181 22.6657 32.7632 25.2641 31.8584 27.5114H35.4307C36.2022 25.1969 36.5941 22.6006 36.5941 19.7132C36.5941 15.7072 35.8521 12.2529 34.3661 9.34919C32.8802 6.44548 30.7765 4.2074 28.0529 2.63086C25.3293 1.05637 22.0786 0.267593 18.2975 0.267593C14.5165 0.267593 11.3207 1.05535 8.57474 2.63086C5.82879 4.20638 3.71386 6.44548 2.22791 9.34919C0.741957 12.2529 0 15.7072 0 19.7132C0 22.6006 0.391843 25.1969 1.16332 27.5114H4.7357C3.8309 25.2641 3.37596 22.6657 3.37596 19.7132Z" fill="#EBEBEB"/>
<path d="M46.5876 3.71178H56.2432C61.4634 3.71178 65.448 5.06237 68.1939 7.76252C70.9389 10.4637 72.3129 14.3577 72.3129 19.4435C72.3129 22.5701 71.8243 25.2581 70.8564 27.5124H74.4858C75.2848 25.1766 75.6878 22.4887 75.6878 19.4435C75.6878 13.4122 73.9993 8.79862 70.6244 5.60179C67.2484 2.40598 62.3865 0.808075 56.0407 0.808075H43.2117V27.5114H46.5876V3.71178Z" fill="#EBEBEB"/>
<path d="M83.8219 21.0638H114.578C114.669 20.5233 114.737 19.9941 114.78 19.4771C114.825 18.959 114.848 18.4532 114.848 17.9575C114.848 14.4014 114.095 11.284 112.586 8.60623C111.078 5.92745 109.019 3.85628 106.408 2.39476C103.799 0.931201 100.849 0.200439 97.5638 0.200439C94.2785 0.200439 91.3412 0.977001 88.7519 2.53012C86.1638 4.08325 84.1272 6.33355 82.6412 9.28204C81.1563 12.2295 80.4133 15.7744 80.4133 19.9157C80.4133 22.738 80.7746 25.2652 81.48 27.5114H85.1083C84.3674 25.6397 83.9348 23.4932 83.8208 21.0628L83.8219 21.0638ZM85.5785 10.6998C86.7724 8.24594 88.3805 6.38952 90.4069 5.12952C92.4322 3.8685 94.7507 3.23951 97.3613 3.23951C99.9719 3.23951 102.336 3.80132 104.451 4.92698C106.567 6.05162 108.243 7.67192 109.481 9.78787C110.72 11.9028 111.337 14.4472 111.337 17.4171C111.337 17.6034 111.325 17.7784 111.317 17.9575H83.8473C84.0152 15.1597 84.5882 12.7364 85.5785 10.6998Z" fill="#EBEBEB"/>
<path d="M122.95 19.7804C122.95 16.2253 123.569 13.2208 124.807 10.767C126.045 8.31413 127.721 6.4455 129.836 5.1631C131.952 3.87969 134.384 3.23849 137.129 3.23849C140.145 3.23849 142.801 3.97027 145.096 5.43281C147.392 6.89637 149.057 8.95533 150.092 11.6107L153.198 10.1929C152.344 8.12279 151.139 6.34474 149.586 4.85879C148.033 3.37386 146.177 2.22581 144.016 1.41566C141.855 0.605513 139.492 0.200439 136.926 0.200439C133.55 0.200439 130.557 0.966823 127.946 2.49654C125.336 4.02727 123.288 6.23278 121.802 9.11308C120.317 11.9944 119.574 15.4833 119.574 19.5789C119.574 22.5284 119.958 25.1685 120.711 27.5124H124.197C123.37 25.316 122.95 22.7431 122.95 19.7814V19.7804Z" fill="#EBEBEB"/>
<path d="M154.008 21.536C154.008 21.0414 153.986 20.5346 153.941 20.0165C153.896 19.4995 153.829 18.9702 153.739 18.4298H127.947V21.536H150.478C150.486 21.7152 150.498 21.8902 150.498 22.0765C150.498 24.0856 150.208 25.8941 149.642 27.5114H153.175C153.727 25.6794 154.008 23.6897 154.008 21.536Z" fill="#EBEBEB"/>
<path d="M164 0.808075H160.624V27.5114H164V0.808075Z" fill="#EBEBEB"/>
</g>
<defs>
<clipPath id="clip0_775_115">
<rect width="164" height="82.2127" fill="white" transform="translate(0 0.200439)"/>
</clipPath>
</defs>
</svg>
