<svg width="182" height="30" viewBox="0 0 182 30" fill="none" xmlns="http://www.w3.org/2000/svg">
<path d="M85.3677 1H86.9173V29H85.3677V1Z" fill="white"/>
<path d="M107.39 1.04791L107.517 3.67876H107.197C107.135 3.21544 107.049 2.88507 106.946 2.68766C106.774 2.36938 106.539 2.13168 106.248 1.97858C105.96 1.82548 105.578 1.74893 105.106 1.74893H103.495V10.3143C103.495 11.0032 103.573 11.4343 103.721 11.6035C103.935 11.8332 104.263 11.95 104.707 11.95H105.102V12.2562H100.254V11.95H100.661C101.145 11.95 101.486 11.809 101.692 11.5189C101.815 11.3416 101.877 10.9388 101.877 10.3103V1.74491H100.504C99.9704 1.74491 99.5924 1.78519 99.3665 1.86174C99.0748 1.96649 98.8242 2.16794 98.6147 2.46607C98.4052 2.76421 98.2819 3.16709 98.2408 3.67473H97.9204L98.056 1.04388H107.39V1.04791Z" fill="white"/>
<path d="M108.577 7.05894H112.151C112.122 6.57548 112.065 6.23303 111.975 6.03561C111.835 5.72539 111.625 5.48366 111.346 5.30639C111.067 5.12912 110.775 5.04048 110.475 5.04048C110.007 5.04048 109.592 5.21775 109.222 5.57229C108.852 5.92683 108.639 6.42238 108.577 7.05491M108.577 7.53838C108.573 8.66243 108.848 9.54475 109.411 10.1853C109.974 10.8259 110.631 11.1442 111.391 11.1442C111.896 11.1442 112.336 11.0072 112.71 10.7333C113.084 10.4593 113.396 9.99195 113.651 9.33122L113.914 9.4964C113.794 10.2498 113.453 10.9387 112.887 11.5592C112.32 12.1796 111.609 12.4898 110.754 12.4898C109.826 12.4898 109.033 12.1353 108.372 11.4262C107.71 10.7171 107.382 9.76633 107.382 8.56976C107.382 7.2765 107.723 6.26526 108.396 5.54006C109.074 4.81487 109.925 4.45227 110.947 4.45227C111.814 4.45227 112.525 4.73026 113.08 5.29027C113.634 5.85028 113.914 6.59965 113.914 7.53435H108.577V7.53838Z" fill="white"/>
<path d="M121.505 9.38359C121.296 10.3827 120.889 11.1482 120.285 11.6841C119.677 12.2199 119.008 12.4898 118.272 12.4898C117.393 12.4898 116.629 12.1272 115.976 11.4061C115.323 10.6849 114.998 9.7059 114.998 8.4771C114.998 7.2483 115.36 6.31763 116.083 5.57632C116.806 4.83098 117.672 4.46033 118.683 4.46033C119.443 4.46033 120.068 4.65774 120.556 5.05257C121.045 5.4474 121.292 5.85431 121.292 6.28137C121.292 6.49087 121.222 6.66008 121.086 6.78901C120.951 6.91793 120.758 6.98239 120.511 6.98239C120.178 6.98239 119.928 6.87764 119.759 6.66814C119.665 6.55131 119.599 6.33375 119.57 6.00741C119.542 5.68107 119.427 5.43531 119.229 5.26207C119.032 5.09689 118.761 5.01228 118.412 5.01228C117.849 5.01228 117.397 5.21775 117.052 5.62467C116.6 6.16453 116.37 6.87764 116.37 7.76802C116.37 8.6584 116.596 9.4682 117.048 10.1612C117.5 10.8541 118.112 11.2006 118.884 11.2006C119.435 11.2006 119.928 11.0153 120.367 10.6487C120.676 10.3948 120.975 9.93555 121.271 9.26676L121.514 9.38359H121.505Z" fill="white"/>
<path d="M124.858 6.06784C125.762 5.00019 126.628 4.46436 127.446 4.46436C127.869 4.46436 128.231 4.56911 128.535 4.77458C128.839 4.98005 129.081 5.3225 129.258 5.79388C129.381 6.12425 129.442 6.63188 129.442 7.31679V10.5479C129.442 11.0274 129.479 11.3537 129.562 11.5229C129.623 11.6599 129.722 11.7687 129.862 11.8452C130.001 11.9218 130.256 11.9621 130.626 11.9621V12.2602H126.805V11.9621H126.965C127.327 11.9621 127.577 11.9097 127.721 11.8009C127.865 11.6921 127.964 11.535 128.021 11.3255C128.042 11.2409 128.054 10.983 128.054 10.5479V7.44571C128.054 6.75678 127.964 6.2572 127.779 5.94295C127.594 5.63273 127.29 5.4756 126.854 5.4756C126.185 5.4756 125.519 5.83417 124.858 6.55131V10.5439C124.858 11.0556 124.891 11.3739 124.952 11.4947C125.03 11.6559 125.137 11.7727 125.277 11.8452C125.416 11.9177 125.696 11.958 126.115 11.958V12.2562H122.298V11.958H122.467C122.861 11.958 123.128 11.8613 123.264 11.6639C123.403 11.4665 123.473 11.0959 123.473 10.5439V7.73176C123.473 6.82124 123.453 6.26929 123.412 6.06784C123.371 5.87043 123.305 5.73345 123.219 5.66093C123.132 5.58841 123.017 5.55215 122.869 5.55215C122.713 5.55215 122.524 5.59244 122.307 5.67704L122.179 5.37891L124.509 4.45227H124.87V6.05576L124.858 6.06784Z" fill="white"/>
<path d="M134.758 5.00025C134.462 5.00025 134.163 5.08486 133.859 5.26213C133.559 5.43537 133.316 5.74156 133.131 6.17668C132.947 6.6118 132.852 7.17181 132.852 7.85672C132.852 8.96062 133.074 9.91143 133.522 10.7091C133.97 11.5069 134.557 11.9057 135.288 11.9057C135.835 11.9057 136.282 11.6841 136.636 11.245C136.989 10.8058 137.166 10.0444 137.166 8.96868C137.166 7.62304 136.87 6.56345 136.282 5.79394C135.884 5.26616 135.375 5.00025 134.754 5.00025M135.021 4.46442C136.192 4.46442 137.129 4.89953 137.835 5.76977C138.439 6.51511 138.739 7.36922 138.739 8.33212C138.739 9.00897 138.575 9.6979 138.242 10.3909C137.909 11.0879 137.453 11.6116 136.87 11.9621C136.291 12.3167 135.642 12.4939 134.927 12.4939C133.764 12.4939 132.84 12.0387 132.154 11.1281C131.574 10.3627 131.287 9.50049 131.287 8.54968C131.287 7.85672 131.464 7.16375 131.813 6.47885C132.166 5.79394 132.626 5.2863 133.197 4.95997C133.772 4.63363 134.376 4.46844 135.021 4.46844" fill="white"/>
<path d="M142.531 0.5V10.548C142.531 11.0234 142.564 11.3376 142.638 11.4907C142.708 11.6438 142.815 11.7607 142.962 11.8412C143.11 11.9218 143.382 11.9621 143.78 11.9621V12.2602H139.996V11.9621C140.35 11.9621 140.592 11.9258 140.724 11.8533C140.851 11.7808 140.954 11.664 141.028 11.4988C141.101 11.3336 141.138 11.0153 141.138 10.548V3.67071C141.138 2.81659 141.118 2.29284 141.081 2.09543C141.04 1.90204 140.978 1.76506 140.892 1.69657C140.806 1.62405 140.695 1.58779 140.559 1.58779C140.411 1.58779 140.226 1.63211 140 1.72074L139.857 1.43067L142.157 0.504029H142.539L142.531 0.5Z" fill="white"/>
<path d="M150.23 0.765869L147.744 3.6183H147.457L148.34 0.765869H150.23ZM148.188 5.0002C147.888 5.0002 147.592 5.08481 147.288 5.26208C146.988 5.43532 146.746 5.74151 146.561 6.17663C146.376 6.61174 146.282 7.17175 146.282 7.85666C146.282 8.96057 146.504 9.91138 146.951 10.7091C147.399 11.5068 147.987 11.9057 148.718 11.9057C149.264 11.9057 149.712 11.6841 150.065 11.2449C150.419 10.8058 150.595 10.0443 150.595 8.97266C150.595 7.62702 150.3 6.56743 149.712 5.79792C149.314 5.27013 148.804 5.00423 148.184 5.00423M148.451 4.46436C149.622 4.46436 150.558 4.89948 151.269 5.76971C151.869 6.51505 152.173 7.36917 152.173 8.33207C152.173 9.00891 152.009 9.69785 151.676 10.3908C151.343 11.0878 150.887 11.6116 150.308 11.9621C149.725 12.3166 149.08 12.4939 148.365 12.4939C147.202 12.4939 146.278 12.0386 145.592 11.1281C145.012 10.3626 144.725 9.50044 144.725 8.54963C144.725 7.85666 144.902 7.1637 145.251 6.47879C145.6 5.79389 146.064 5.28625 146.635 4.95991C147.21 4.63357 147.814 4.46839 148.455 4.46839" fill="white"/>
<path d="M156.84 4.85924C156.425 4.85924 156.076 5.0204 155.797 5.34674C155.517 5.67307 155.373 6.17265 155.373 6.84144C155.373 7.71168 155.566 8.38853 155.949 8.86796C156.24 9.23056 156.61 9.41588 157.062 9.41588C157.514 9.41588 157.842 9.25876 158.118 8.94451C158.393 8.63026 158.533 8.13471 158.533 7.46592C158.533 6.59165 158.339 5.90272 157.953 5.40717C157.666 5.04457 157.296 4.86327 156.848 4.86327M155.287 12.2603C155.024 12.5423 154.823 12.8042 154.687 13.0459C154.552 13.2876 154.486 13.5132 154.486 13.7147C154.486 13.9806 154.65 14.2102 154.975 14.4117C155.538 14.7541 156.347 14.9233 157.411 14.9233C158.475 14.9233 159.169 14.7501 159.65 14.3956C160.131 14.045 160.369 13.6744 160.369 13.2755C160.369 12.9895 160.225 12.784 159.938 12.6631C159.646 12.5423 159.067 12.4698 158.2 12.4496C156.934 12.4174 155.961 12.3529 155.283 12.2603M155.373 9.49646C154.901 9.27085 154.539 8.95257 154.285 8.54968C154.034 8.14277 153.907 7.69556 153.907 7.20807C153.907 6.4587 154.194 5.81408 154.774 5.27422C155.349 4.73435 156.088 4.46442 156.988 4.46442C157.723 4.46442 158.364 4.64169 158.902 4.9922H160.537C160.78 4.9922 160.919 5.00026 160.961 5.01234C161.002 5.02443 161.03 5.0486 161.043 5.08083C161.076 5.12918 161.096 5.21781 161.096 5.34674C161.096 5.48775 161.08 5.58847 161.055 5.64487C161.039 5.67307 161.01 5.69322 160.969 5.71336C160.924 5.72948 160.784 5.73754 160.541 5.73754H159.539C159.855 6.13639 160.012 6.64 160.012 7.26044C160.012 7.96549 159.736 8.56982 159.186 9.0694C158.635 9.57301 157.896 9.8228 156.967 9.8228C156.585 9.8228 156.195 9.7664 155.792 9.65762C155.546 9.86712 155.377 10.0524 155.291 10.2096C155.205 10.3667 155.16 10.4996 155.16 10.6125C155.16 10.7051 155.205 10.7978 155.299 10.8864C155.394 10.9751 155.575 11.0395 155.846 11.0758C156.002 11.0959 156.396 11.1161 157.025 11.1322C158.183 11.1604 158.931 11.2007 159.276 11.249C159.798 11.3215 160.217 11.5109 160.529 11.8211C160.841 12.1313 160.997 12.51 160.997 12.9613C160.997 13.5858 160.698 14.1699 160.102 14.7138C159.227 15.5196 158.081 15.9225 156.672 15.9225C155.587 15.9225 154.671 15.6808 153.923 15.2013C153.5 14.9274 153.291 14.6373 153.291 14.3432C153.291 14.2102 153.323 14.0773 153.385 13.9443C153.48 13.7389 153.677 13.4568 153.977 13.0942C154.014 13.0459 154.301 12.7478 154.835 12.1998C154.544 12.0266 154.334 11.8735 154.215 11.7405C154.092 11.6076 154.034 11.4545 154.034 11.2812C154.034 11.0879 154.116 10.8622 154.272 10.6044C154.433 10.3425 154.802 9.97992 155.382 9.50452" fill="white"/>
<path d="M163.906 0.5C164.144 0.5 164.346 0.580577 164.51 0.745761C164.674 0.906915 164.761 1.10433 164.761 1.338C164.761 1.57168 164.678 1.76909 164.51 1.93427C164.346 2.09946 164.144 2.18406 163.906 2.18406C163.668 2.18406 163.466 2.09946 163.302 1.93427C163.134 1.76909 163.051 1.57168 163.051 1.338C163.051 1.10433 163.134 0.910944 163.298 0.745761C163.466 0.584606 163.668 0.5 163.91 0.5M164.604 4.4644V10.548C164.604 11.0234 164.641 11.3376 164.711 11.4948C164.781 11.6519 164.884 11.7687 165.023 11.8453C165.163 11.9218 165.414 11.9621 165.779 11.9621V12.2602H162.029V11.9621C162.407 11.9621 162.657 11.9258 162.789 11.8533C162.916 11.7808 163.023 11.664 163.097 11.4988C163.171 11.3336 163.212 11.0153 163.212 10.548V7.63108C163.212 6.80919 163.183 6.27738 163.134 6.03565C163.097 5.85838 163.031 5.73752 162.949 5.66903C162.867 5.60054 162.752 5.56428 162.604 5.56428C162.448 5.56428 162.255 5.60456 162.029 5.68917L161.909 5.39103L164.235 4.4644H164.604Z" fill="white"/>
<path d="M173.297 9.38359C173.088 10.3827 172.681 11.1482 172.077 11.6841C171.469 12.2199 170.799 12.4898 170.064 12.4898C169.185 12.4898 168.425 12.1272 167.772 11.4061C167.118 10.6849 166.794 9.7059 166.794 8.4771C166.794 7.2483 167.155 6.31763 167.879 5.57632C168.602 4.83098 169.468 4.46033 170.479 4.46033C171.239 4.46033 171.863 4.65774 172.352 5.05257C172.841 5.4474 173.088 5.85431 173.088 6.28137C173.088 6.49087 173.018 6.66008 172.882 6.78901C172.743 6.91793 172.554 6.98239 172.303 6.98239C171.97 6.98239 171.72 6.87764 171.551 6.66814C171.457 6.55131 171.391 6.33375 171.362 6.00741C171.333 5.68107 171.218 5.43531 171.021 5.26207C170.824 5.09689 170.553 5.01228 170.204 5.01228C169.641 5.01228 169.189 5.21775 168.848 5.62467C168.392 6.16453 168.166 6.87764 168.166 7.76802C168.166 8.6584 168.392 9.4682 168.844 10.1612C169.296 10.8541 169.908 11.2006 170.676 11.2006C171.227 11.2006 171.724 11.0153 172.159 10.6487C172.471 10.3948 172.771 9.93555 173.063 9.26676L173.305 9.38359H173.297Z" fill="white"/>
<path d="M177.919 5.00025C177.623 5.00025 177.323 5.08486 177.019 5.26213C176.72 5.43537 176.477 5.74156 176.292 6.17668C176.107 6.6118 176.013 7.17181 176.013 7.85672C176.013 8.96062 176.239 9.91143 176.683 10.7091C177.13 11.5069 177.718 11.9057 178.449 11.9057C178.996 11.9057 179.443 11.6841 179.797 11.245C180.15 10.8058 180.327 10.0444 180.327 8.96868C180.327 7.62304 180.031 6.56345 179.439 5.79394C179.041 5.26616 178.531 5.00025 177.915 5.00025M178.182 4.46442C179.349 4.46442 180.29 4.89953 180.996 5.76977C181.6 6.51511 181.9 7.36922 181.9 8.33212C181.9 9.00897 181.732 9.6979 181.403 10.3909C181.07 11.0879 180.614 11.6116 180.031 11.9621C179.452 12.3167 178.802 12.4939 178.088 12.4939C176.925 12.4939 176.001 12.0387 175.315 11.1281C174.735 10.3627 174.448 9.50049 174.448 8.54968C174.448 7.85672 174.624 7.16375 174.974 6.47885C175.327 5.79394 175.787 5.2863 176.358 4.95997C176.933 4.63363 177.541 4.46844 178.182 4.46844" fill="white"/>
<path d="M102.682 27.3362V23.8955C102.653 23.5652 102.563 23.263 102.415 22.9931C102.267 22.7191 102.07 22.5136 101.823 22.3767C101.577 22.2397 101.338 22.1712 101.104 22.1712C100.669 22.1712 100.279 22.3646 99.9376 22.7473C99.4857 23.2549 99.2597 23.9922 99.2597 24.9632C99.2597 25.9341 99.4774 26.6956 99.9129 27.2153C100.348 27.7391 100.833 27.9969 101.367 27.9969C101.819 27.9969 102.255 27.7753 102.674 27.3362M102.682 27.8438C102.349 28.1822 102.025 28.428 101.708 28.5771C101.392 28.7261 101.051 28.7987 100.681 28.7987C99.9376 28.7987 99.2885 28.4925 98.7339 27.8841C98.1793 27.2757 97.8999 26.4901 97.8999 25.5312C97.8999 24.5724 98.208 23.6981 98.8201 22.9044C99.4323 22.1107 100.225 21.7119 101.191 21.7119C101.79 21.7119 102.287 21.8972 102.678 22.2719V21.0431C102.678 20.2816 102.657 19.8103 102.62 19.637C102.583 19.4638 102.526 19.3429 102.448 19.2785C102.37 19.214 102.271 19.1858 102.152 19.1858C102.025 19.1858 101.852 19.2261 101.638 19.3026L101.54 19.0488L103.569 18.235H103.902V25.9503C103.902 26.7319 103.922 27.2113 103.959 27.3805C103.996 27.5537 104.054 27.6746 104.136 27.7391C104.218 27.8076 104.313 27.8398 104.424 27.8398C104.559 27.8398 104.736 27.7995 104.958 27.7149L105.04 27.9687L103.019 28.7906H102.678V27.8358L102.682 27.8438Z" fill="white"/>
<path d="M106.626 24.0125H109.777C109.752 23.5854 109.699 23.2832 109.62 23.106C109.497 22.836 109.312 22.6185 109.066 22.4654C108.819 22.3082 108.565 22.2317 108.298 22.2317C107.887 22.2317 107.517 22.3888 107.193 22.7031C106.868 23.0173 106.679 23.4524 106.626 24.0125ZM106.626 24.4355C106.621 25.4266 106.864 26.2042 107.361 26.7682C107.858 27.3322 108.437 27.6143 109.107 27.6143C109.551 27.6143 109.941 27.4934 110.27 27.2517C110.598 27.0099 110.873 26.599 111.099 26.0148L111.329 26.1598C111.227 26.8246 110.923 27.433 110.422 27.9768C109.92 28.5248 109.296 28.7947 108.54 28.7947C107.722 28.7947 107.024 28.4845 106.441 27.86C105.857 27.2355 105.566 26.3975 105.566 25.342C105.566 24.2018 105.866 23.3114 106.461 22.6708C107.057 22.0303 107.809 21.712 108.708 21.712C109.468 21.712 110.097 21.9577 110.586 22.4533C111.075 22.9448 111.321 23.6055 111.321 24.4315H106.617L106.626 24.4355Z" fill="white"/>
<path d="M124.726 18.4888L124.956 21.8489H124.726C124.418 20.8417 123.983 20.1205 123.412 19.6773C122.841 19.2342 122.159 19.0126 121.362 19.0126C120.692 19.0126 120.088 19.1778 119.55 19.5122C119.012 19.8466 118.585 20.3743 118.276 21.1036C117.964 21.8328 117.812 22.7393 117.812 23.819C117.812 24.7134 117.956 25.487 118.252 26.1437C118.543 26.8004 118.983 27.304 119.571 27.6545C120.158 28.005 120.828 28.1782 121.579 28.1782C122.233 28.1782 122.812 28.0413 123.313 27.7673C123.81 27.4933 124.361 26.9494 124.96 26.1316L125.191 26.2766C124.685 27.1549 124.094 27.7995 123.42 28.2064C122.746 28.6134 121.945 28.8188 121.021 28.8188C119.349 28.8188 118.059 28.2105 117.143 26.9978C116.461 26.0953 116.12 25.0317 116.12 23.8069C116.12 22.8199 116.346 21.9134 116.797 21.0874C117.245 20.2615 117.87 19.6209 118.658 19.1657C119.447 18.7104 120.314 18.4848 121.247 18.4848C121.974 18.4848 122.693 18.658 123.399 19.0086C123.609 19.1173 123.757 19.1697 123.847 19.1697C123.979 19.1697 124.098 19.1254 124.196 19.0327C124.324 18.8998 124.418 18.7185 124.472 18.4848H124.73L124.726 18.4888Z" fill="white"/>
<path d="M129.29 22.1954C129.028 22.1954 128.765 22.2719 128.498 22.425C128.235 22.5781 128.021 22.848 127.857 23.2308C127.692 23.6135 127.61 24.1091 127.61 24.7094C127.61 25.6803 127.807 26.5183 128.202 27.2234C128.596 27.9284 129.118 28.279 129.759 28.279C130.239 28.279 130.634 28.0856 130.946 27.6948C131.258 27.304 131.414 26.6392 131.414 25.6884C131.414 24.5039 131.156 23.5692 130.634 22.8883C130.281 22.425 129.833 22.1873 129.29 22.1873M129.521 21.724C130.552 21.724 131.377 22.1067 132.002 22.8722C132.532 23.5289 132.795 24.2823 132.795 25.1324C132.795 25.7287 132.651 26.337 132.355 26.9494C132.064 27.5618 131.661 28.0211 131.147 28.3354C130.634 28.6456 130.063 28.8027 129.434 28.8027C128.411 28.8027 127.594 28.4038 126.99 27.6021C126.48 26.9253 126.222 26.1678 126.222 25.3298C126.222 24.7174 126.378 24.1091 126.686 23.5048C126.998 22.9004 127.405 22.4532 127.906 22.1631C128.411 21.8731 128.945 21.7321 129.512 21.7321" fill="white"/>
<path d="M138.197 21.724V23.9963H137.951C137.762 23.2832 137.519 22.7957 137.228 22.5378C136.932 22.28 136.558 22.1511 136.102 22.1511C135.753 22.1511 135.473 22.2397 135.26 22.421C135.046 22.5983 134.939 22.7997 134.939 23.0173C134.939 23.2872 135.017 23.5209 135.178 23.7183C135.33 23.9157 135.642 24.1292 136.114 24.3508L137.199 24.8665C138.205 25.35 138.706 25.9825 138.706 26.7681C138.706 27.3765 138.472 27.864 138.004 28.2387C137.536 28.6093 137.014 28.7946 136.431 28.7946C136.016 28.7946 135.539 28.7221 135.005 28.5771C134.841 28.5287 134.709 28.5046 134.602 28.5046C134.487 28.5046 134.401 28.569 134.335 28.6939H134.089V26.3129H134.335C134.475 26.9937 134.738 27.5054 135.132 27.8519C135.523 28.1943 135.962 28.3676 136.447 28.3676C136.788 28.3676 137.067 28.2709 137.285 28.0735C137.499 27.8761 137.61 27.6384 137.61 27.3644C137.61 27.03 137.49 26.748 137.248 26.5183C137.006 26.2887 136.529 26.0026 135.81 25.6521C135.091 25.3016 134.623 24.9874 134.397 24.7054C134.175 24.4274 134.064 24.0809 134.064 23.6579C134.064 23.1099 134.257 22.6506 134.639 22.28C135.021 21.9134 135.519 21.728 136.131 21.728C136.398 21.728 136.722 21.7844 137.104 21.8932C137.359 21.9657 137.523 22.002 137.61 22.002C137.688 22.002 137.749 21.9859 137.794 21.9496C137.84 21.9174 137.889 21.8408 137.951 21.724H138.197Z" fill="white"/>
<path d="M141.697 19.7297V21.9214H143.287V22.4331H141.697V26.7601C141.697 27.1912 141.759 27.4853 141.886 27.6344C142.009 27.7834 142.174 27.86 142.371 27.86C142.535 27.86 142.691 27.8116 142.848 27.7109C143.004 27.6102 143.123 27.4651 143.205 27.2718H143.497C143.324 27.7472 143.078 28.1057 142.761 28.3475C142.445 28.5892 142.116 28.7101 141.779 28.7101C141.553 28.7101 141.332 28.6496 141.11 28.5247C140.892 28.3998 140.732 28.2226 140.625 27.9929C140.522 27.7633 140.469 27.4087 140.469 26.9253V22.4371H139.393V22.1954C139.664 22.0866 139.943 21.9093 140.227 21.6515C140.51 21.3977 140.765 21.0915 140.991 20.745C141.106 20.5597 141.262 20.2213 141.467 19.7338H141.697V19.7297Z" fill="white"/>
<path d="M147.806 27.1589V24.6167C147.058 24.9068 146.574 25.1123 146.356 25.2372C145.966 25.4507 145.686 25.6763 145.514 25.906C145.345 26.1396 145.263 26.3934 145.263 26.6714C145.263 27.0219 145.37 27.312 145.584 27.5417C145.797 27.7713 146.044 27.8882 146.319 27.8882C146.697 27.8882 147.19 27.6464 147.806 27.1589ZM147.806 27.6343C147.108 28.1621 146.668 28.4683 146.491 28.5529C146.224 28.6738 145.941 28.7342 145.637 28.7342C145.164 28.7342 144.778 28.5771 144.474 28.2588C144.17 27.9446 144.018 27.5296 144.018 27.0139C144.018 26.6876 144.092 26.4055 144.24 26.1678C144.441 25.8375 144.795 25.5272 145.3 25.2331C145.801 24.9431 146.639 24.5885 147.81 24.1695V23.9076C147.81 23.2429 147.703 22.7876 147.486 22.5378C147.272 22.2921 146.956 22.1672 146.545 22.1672C146.233 22.1672 145.986 22.2518 145.801 22.417C145.612 22.5821 145.518 22.7715 145.518 22.985L145.534 23.4081C145.534 23.6337 145.477 23.8029 145.358 23.9238C145.243 24.0446 145.091 24.1051 144.902 24.1051C144.713 24.1051 144.569 24.0446 144.454 23.9157C144.335 23.7908 144.281 23.6176 144.281 23.4C144.281 22.981 144.499 22.5983 144.934 22.2478C145.37 21.8972 145.982 21.724 146.771 21.724C147.375 21.724 147.872 21.8247 148.258 22.0221C148.55 22.1712 148.767 22.4089 148.903 22.7272C148.993 22.9367 149.039 23.3637 149.039 24.0084V26.2726C149.039 26.9091 149.051 27.2999 149.075 27.441C149.1 27.586 149.141 27.6787 149.199 27.727C149.256 27.7753 149.322 27.7995 149.396 27.7995C149.474 27.7995 149.544 27.7834 149.605 27.7512C149.708 27.6867 149.909 27.5094 150.209 27.2194V27.6303C149.655 28.3595 149.125 28.7221 148.619 28.7221C148.377 28.7221 148.184 28.6416 148.04 28.4764C147.896 28.3112 147.822 28.0292 147.818 27.6303" fill="white"/>
<path d="M157.16 23.5168C157.255 23.5168 157.337 23.5168 157.407 23.5208C157.477 23.5208 157.534 23.5208 157.58 23.5208C158.541 23.5208 159.264 23.3154 159.753 22.9085C160.242 22.5015 160.484 21.9818 160.484 21.3493C160.484 20.7168 160.287 20.2293 159.892 19.8465C159.498 19.4598 158.976 19.2664 158.327 19.2664C158.04 19.2664 157.653 19.3147 157.16 19.4033V23.5128V23.5168ZM164.317 28.5972H161.626L158.216 23.9761C157.962 23.9842 157.756 23.9922 157.6 23.9922C157.534 23.9922 157.464 23.9922 157.391 23.9922C157.317 23.9922 157.239 23.9842 157.16 23.9801V26.8527C157.16 27.4772 157.23 27.8599 157.366 28.013C157.555 28.2266 157.838 28.3353 158.216 28.3353H158.611V28.6053H154.293V28.3353H154.671C155.098 28.3353 155.402 28.1983 155.587 27.9284C155.69 27.7793 155.743 27.4208 155.743 26.8567V20.471C155.743 19.8506 155.673 19.4638 155.534 19.3147C155.341 19.1012 155.053 18.9924 154.671 18.9924H154.293V18.7225H157.966C159.034 18.7225 159.823 18.799 160.332 18.9521C160.841 19.1052 161.273 19.3872 161.626 19.7982C161.979 20.2091 162.156 20.6966 162.156 21.2647C162.156 21.873 161.955 22.3968 161.552 22.844C161.15 23.2912 160.521 23.6054 159.675 23.7908L161.758 26.6231C162.234 27.2757 162.641 27.7068 162.982 27.9204C163.323 28.1339 163.771 28.2709 164.321 28.3273V28.5972H164.317Z" fill="white"/>
<path d="M166.392 18.235C166.601 18.235 166.778 18.3075 166.922 18.4485C167.065 18.5895 167.139 18.7668 167.139 18.9682C167.139 19.1697 167.065 19.347 166.922 19.492C166.774 19.637 166.597 19.7095 166.392 19.7095C166.186 19.7095 166.005 19.637 165.858 19.492C165.71 19.347 165.636 19.1737 165.636 18.9682C165.636 18.7628 165.71 18.5895 165.853 18.4485C166.001 18.3035 166.178 18.235 166.392 18.235ZM167.008 21.724V27.0864C167.008 27.5054 167.037 27.7834 167.098 27.9204C167.16 28.0573 167.25 28.1621 167.373 28.2306C167.497 28.2991 167.719 28.3313 168.039 28.3313V28.5932H164.732V28.3313C165.065 28.3313 165.286 28.2991 165.402 28.2346C165.517 28.1702 165.607 28.0654 165.673 27.9204C165.738 27.7753 165.775 27.4933 165.775 27.0824V24.5079C165.775 23.7827 165.755 23.3154 165.71 23.1018C165.677 22.9447 165.619 22.84 165.545 22.7795C165.471 22.7191 165.369 22.6869 165.241 22.6869C165.102 22.6869 164.933 22.7231 164.736 22.7957L164.633 22.5338L166.683 21.7199H167.008V21.724Z" fill="white"/>
<path d="M174.67 26.0591C174.485 26.9373 174.127 27.6142 173.593 28.0896C173.059 28.561 172.468 28.7987 171.819 28.7987C171.046 28.7987 170.372 28.4804 169.797 27.8438C169.222 27.2073 168.935 26.3491 168.935 25.2654C168.935 24.1816 169.251 23.3637 169.888 22.707C170.524 22.0503 171.289 21.724 172.18 21.724C172.85 21.724 173.396 21.8972 173.827 22.2437C174.259 22.5902 174.472 22.9528 174.472 23.3275C174.472 23.5128 174.411 23.6619 174.292 23.7747C174.168 23.8875 174 23.9439 173.782 23.9439C173.491 23.9439 173.269 23.8512 173.121 23.6659C173.035 23.5652 172.981 23.3718 172.952 23.0817C172.924 22.7957 172.825 22.5741 172.652 22.425C172.48 22.28 172.238 22.2034 171.929 22.2034C171.432 22.2034 171.034 22.3847 170.734 22.7433C170.331 23.2187 170.134 23.8512 170.134 24.6328C170.134 25.4144 170.331 26.1316 170.73 26.744C171.128 27.3523 171.667 27.6585 172.344 27.6585C172.829 27.6585 173.265 27.4974 173.651 27.171C173.926 26.9494 174.189 26.5425 174.448 25.9543L174.661 26.055L174.67 26.0591Z" fill="white"/>
<path d="M179.501 27.1589V24.6167C178.753 24.9068 178.268 25.1123 178.05 25.2372C177.66 25.4507 177.381 25.6763 177.212 25.906C177.044 26.1396 176.958 26.3934 176.958 26.6714C176.958 27.0219 177.064 27.312 177.278 27.5417C177.492 27.7713 177.734 27.8882 178.013 27.8882C178.391 27.8882 178.884 27.6464 179.501 27.1589ZM179.501 27.6343C178.802 28.1621 178.363 28.4683 178.186 28.5529C177.919 28.6738 177.631 28.7342 177.331 28.7342C176.863 28.7342 176.473 28.5771 176.169 28.2588C175.865 27.9446 175.709 27.5296 175.709 27.0139C175.709 26.6876 175.783 26.4055 175.931 26.1678C176.136 25.8375 176.485 25.5272 176.99 25.2331C177.492 24.9431 178.33 24.5885 179.501 24.1695V23.9076C179.501 23.2429 179.394 22.7876 179.176 22.5378C178.962 22.2921 178.646 22.1672 178.235 22.1672C177.923 22.1672 177.677 22.2518 177.492 22.417C177.303 22.5821 177.208 22.7715 177.208 22.985L177.221 23.4081C177.221 23.6337 177.163 23.8029 177.044 23.9238C176.929 24.0446 176.777 24.1051 176.588 24.1051C176.399 24.1051 176.255 24.0446 176.136 23.9157C176.021 23.7908 175.963 23.6176 175.963 23.4C175.963 22.981 176.181 22.5983 176.617 22.2478C177.052 21.8972 177.664 21.724 178.453 21.724C179.057 21.724 179.554 21.8247 179.94 22.0221C180.232 22.1712 180.45 22.4089 180.585 22.7272C180.676 22.9367 180.721 23.3637 180.721 24.0084V26.2726C180.721 26.9091 180.733 27.2999 180.758 27.441C180.782 27.586 180.823 27.6787 180.881 27.727C180.938 27.7753 181.004 27.7995 181.078 27.7995C181.156 27.7995 181.226 27.7834 181.288 27.7512C181.39 27.6867 181.592 27.5094 181.892 27.2194V27.6303C181.337 28.3595 180.807 28.7221 180.302 28.7221C180.059 28.7221 179.866 28.6416 179.722 28.4764C179.579 28.3112 179.505 28.0292 179.501 27.6303" fill="white"/>
<path d="M23 1.37972L23.3058 7.76637H22.5289C22.376 6.63979 22.1735 5.83741 21.9132 5.35517C21.4876 4.5771 20.9256 4.00571 20.2231 3.63693C19.5207 3.26816 18.595 3.0858 17.4463 3.0858H13.5331V23.8992C13.5331 25.5728 13.719 26.6183 14.0868 27.0317C14.6033 27.595 15.405 27.8746 16.4835 27.8746H17.4463V28.6162H5.66942V27.8746H6.65289C7.82645 27.8746 8.66116 27.5261 9.15289 26.8291C9.45454 26.3995 9.60331 25.4229 9.60331 23.8951V3.08175H6.26446C4.96694 3.08175 4.04545 3.17496 3.5 3.36137C2.78925 3.61667 2.18182 4.10297 1.67768 4.82835C1.17355 5.54969 0.8719 6.53038 0.776858 7.76232H0L0.326445 1.37567H23.0041L23 1.37972Z" fill="white"/>
<path d="M31.8595 2.867V13.6343H37.9628C39.5455 13.6343 40.6033 13.3993 41.1364 12.9292C41.8472 12.3132 42.2438 11.2272 42.3265 9.6751H43.0827V19.1578H42.3265C42.1364 17.8327 41.9422 16.9817 41.7521 16.6088C41.5042 16.1387 41.1033 15.77 40.5414 15.5025C39.9835 15.2351 39.1199 15.1013 37.9587 15.1013H31.8554V24.0815C31.8554 25.2851 31.9091 26.0186 32.0207 26.282C32.1323 26.5414 32.3224 26.7521 32.5951 26.9061C32.8678 27.0601 33.3885 27.1371 34.1529 27.1371H38.8637C40.4339 27.1371 41.5744 27.0317 42.2852 26.8169C42.9959 26.6022 43.6777 26.1807 44.3348 25.5526C45.1819 24.7218 46.0496 23.4696 46.9381 21.796H47.7562L45.3595 28.6243H23.9546V27.8827H24.9381C25.5951 27.8827 26.2149 27.7287 26.8017 27.4208C27.2397 27.206 27.5372 26.8858 27.6943 26.4563C27.8513 26.0267 27.9298 25.1514 27.9298 23.8262V6.12921C27.9298 4.40287 27.7521 3.33708 27.3967 2.93589C26.905 2.40097 26.0868 2.1335 24.9381 2.1335H23.9546V1.39191H45.3595L45.6653 7.3571H44.8678C44.5827 5.92254 44.2645 4.93779 43.9174 4.40287C43.5703 3.86795 43.0538 3.45865 42.3719 3.17903C41.8265 2.97641 40.8637 2.87915 39.4835 2.87915H31.8637L31.8595 2.867Z" fill="white"/>
<path d="M73.4587 0.755676L74.095 10.0155H73.4587C72.6116 7.24364 71.405 5.24578 69.8347 4.03005C68.2645 2.81027 66.3802 2.2024 64.1818 2.2024C62.3388 2.2024 60.6736 2.66032 59.1818 3.57618C57.6942 4.49203 56.5207 5.95496 55.6694 7.96497C54.8182 9.97499 54.3884 12.4713 54.3884 15.4579C54.3884 17.9218 54.7934 20.0575 55.5992 21.8649C56.405 23.6722 57.6157 25.0582 59.2355 26.0227C60.8554 26.9871 62.7025 27.4694 64.7769 27.4694C66.5785 27.4694 68.1694 27.0925 69.5496 26.3347C70.9298 25.5769 72.4463 24.0734 74.0992 21.8243L74.7355 22.2255C73.343 24.6489 71.719 26.4239 69.8595 27.5504C68 28.673 65.7975 29.2403 63.2438 29.2403C58.6405 29.2403 55.0785 27.5666 52.5496 24.2193C50.6653 21.7271 49.7231 18.7972 49.7231 15.4215C49.7231 12.7023 50.343 10.206 51.5868 7.9285C52.8306 5.65103 54.5413 3.88821 56.719 2.63601C58.8967 1.3838 61.2769 0.759729 63.8595 0.759729C65.8678 0.759729 67.8471 1.24197 69.7975 2.20645C70.3719 2.50228 70.781 2.64817 71.0289 2.64817C71.3967 2.64817 71.719 2.52254 71.9917 2.26724C72.3471 1.90657 72.5992 1.40407 72.7479 0.759729H73.4628L73.4587 0.755676Z" fill="white"/>
</svg>
