<svg width="174" height="56" viewBox="0 0 174 56" fill="none" xmlns="http://www.w3.org/2000/svg">
<path d="M86.8476 34.4588C88.2329 34.4588 89.3559 33.342 89.3559 31.9644C89.3559 30.5867 88.2329 29.4699 86.8476 29.4699C85.4624 29.4699 84.3394 30.5867 84.3394 31.9644C84.3394 33.342 85.4624 34.4588 86.8476 34.4588Z" fill="white"/>
<path d="M97.9303 17.1989C97.9303 15.7709 98.7365 14.5288 99.919 13.8976C99.5965 12.63 99.0923 11.4337 98.4345 10.3392C97.1496 10.7261 95.6984 10.413 94.6823 9.40503C93.6662 8.39708 93.3539 6.95132 93.743 5.67356C92.6424 5.01941 91.4395 4.51798 90.1648 4.19727C89.5301 5.37576 88.2836 6.17499 86.8452 6.17499C85.4068 6.17499 84.1603 5.37321 83.5256 4.19727C82.251 4.51798 81.048 5.01941 79.9475 5.67356C80.3365 6.95132 80.0217 8.39453 79.0081 9.40503C77.992 10.4155 76.5408 10.7261 75.256 10.3392C74.5982 11.4337 74.094 12.63 73.7715 13.8976C74.9565 14.5288 75.7602 15.7684 75.7602 17.1989C75.7602 18.6293 74.954 19.8689 73.7715 20.5002C74.094 21.7677 74.5982 22.964 75.256 24.0585C76.5408 23.6717 77.992 23.9847 79.0081 24.9927C80.0243 26.0032 80.3365 27.4464 79.9475 28.7242C81.048 29.3783 82.251 29.8797 83.5256 30.2004C84.1603 29.022 85.4068 28.2227 86.8452 28.2227C88.2836 28.2227 89.5301 29.0245 90.1648 30.2004C91.4395 29.8797 92.6424 29.3783 93.743 28.7242C93.3539 27.4464 93.6687 26.0032 94.6823 24.9927C95.6958 23.9822 97.1496 23.6717 98.4345 24.0585C99.0923 22.964 99.5965 21.7677 99.919 20.5002C98.7339 19.8689 97.9303 18.6293 97.9303 17.1989ZM86.8478 25.8326C82.0539 25.8326 78.1661 21.9663 78.1661 17.1989C78.1661 12.4314 82.0539 8.56507 86.8478 8.56507C91.6417 8.56507 95.5295 12.4314 95.5295 17.1989C95.5295 21.9663 91.6417 25.8326 86.8478 25.8326Z" fill="white"/>
<path d="M101.695 19.6933C103.08 19.6933 104.203 18.5765 104.203 17.1989C104.203 15.8212 103.08 14.7044 101.695 14.7044C100.31 14.7044 99.1868 15.8212 99.1868 17.1989C99.1868 18.5765 100.31 19.6933 101.695 19.6933Z" fill="white"/>
<path d="M72.0002 19.6933C73.3855 19.6933 74.5085 18.5765 74.5085 17.1989C74.5085 15.8212 73.3855 14.7044 72.0002 14.7044C70.6149 14.7044 69.4919 15.8212 69.4919 17.1989C69.4919 18.5765 70.6149 19.6933 72.0002 19.6933Z" fill="white"/>
<path d="M127.558 17.1989C127.558 15.7709 128.365 14.5288 129.547 13.8976C129.225 12.63 128.72 11.4337 128.063 10.3392C126.778 10.7261 125.327 10.413 124.31 9.40503C123.294 8.39708 122.982 6.95132 123.371 5.67356C122.271 5.01941 121.068 4.51798 119.793 4.19727C119.158 5.37576 117.912 6.17499 116.473 6.17499C115.035 6.17499 113.789 5.37321 113.154 4.19727C111.879 4.51798 110.676 5.01941 109.576 5.67356C109.965 6.95132 109.65 8.39453 108.636 9.40503C107.62 10.4155 106.169 10.7261 104.884 10.3392C104.226 11.4337 103.722 12.63 103.4 13.8976C104.585 14.5288 105.388 15.7684 105.388 17.1989C105.388 18.6293 104.582 19.8689 103.4 20.5002C103.722 21.7677 104.226 22.964 104.884 24.0585C106.169 23.6717 107.62 23.9847 108.636 24.9927C109.652 26.0032 109.965 27.4464 109.576 28.7242C110.676 29.3783 111.879 29.8797 113.154 30.2004C113.789 29.022 115.035 28.2227 116.473 28.2227C117.912 28.2227 119.158 29.0245 119.793 30.2004C121.068 29.8797 122.271 29.3783 123.371 28.7242C122.982 27.4464 123.297 26.0032 124.31 24.9927C125.324 23.9822 126.778 23.6717 128.063 24.0585C128.72 22.964 129.225 21.7677 129.547 20.5002C128.362 19.8689 127.558 18.6293 127.558 17.1989ZM116.473 25.8326C111.68 25.8326 107.792 21.9663 107.792 17.1989C107.792 12.4314 111.68 8.56507 116.473 8.56507C121.267 8.56507 125.155 12.4314 125.155 17.1989C125.155 21.9663 121.267 25.8326 116.473 25.8326Z" fill="white"/>
<path d="M131.39 19.6933C132.775 19.6933 133.898 18.5765 133.898 17.1989C133.898 15.8212 132.775 14.7044 131.39 14.7044C130.005 14.7044 128.882 15.8212 128.882 17.1989C128.882 18.5765 130.005 19.6933 131.39 19.6933Z" fill="white"/>
<path d="M105.872 9.25231C107.258 9.25231 108.381 8.13551 108.381 6.75787C108.381 5.38024 107.258 4.26344 105.872 4.26344C104.487 4.26344 103.364 5.38024 103.364 6.75787C103.364 8.13551 104.487 9.25231 105.872 9.25231Z" fill="white"/>
<path d="M120.126 20.7631C122.106 18.7939 122.106 15.6013 120.126 13.6322C118.146 11.663 114.936 11.663 112.956 13.6322C110.976 15.6013 110.976 18.7939 112.956 20.7631C114.936 22.7322 118.146 22.7322 120.126 20.7631Z" fill="white"/>
<path d="M42.5971 19.6933C43.9824 19.6933 45.1054 18.5765 45.1054 17.1989C45.1054 15.8212 43.9824 14.7044 42.5971 14.7044C41.2119 14.7044 40.0889 15.8212 40.0889 17.1989C40.0889 18.5765 41.2119 19.6933 42.5971 19.6933Z" fill="white"/>
<path d="M67.8208 30.2004C69.2061 30.2004 70.329 29.0837 70.329 27.706C70.329 26.3284 69.2061 25.2116 67.8208 25.2116C66.4355 25.2116 65.3125 26.3284 65.3125 27.706C65.3125 29.0837 66.4355 30.2004 67.8208 30.2004Z" fill="white"/>
<path d="M57.4446 4.98886C58.8298 4.98886 59.9528 3.87207 59.9528 2.49443C59.9528 1.1168 58.8298 0 57.4446 0C56.0593 0 54.9363 1.1168 54.9363 2.49443C54.9363 3.87207 56.0593 4.98886 57.4446 4.98886Z" fill="white"/>
<path d="M61.0279 20.7633C63.008 18.7942 63.008 15.6016 61.0279 13.6324C59.0479 11.6633 55.8375 11.6633 53.8575 13.6324C51.8774 15.6016 51.8774 18.7942 53.8575 20.7633C55.8375 22.7325 59.0479 22.7325 61.0279 20.7633Z" fill="white"/>
<path d="M15.0037 49.8785C15.0037 46.3506 17.6629 43.7747 21.2641 43.7747C24.8653 43.7747 27.5066 46.3506 27.5066 49.8785C27.5066 53.4063 24.8294 56 21.2641 56C17.6988 56 15.0037 53.4241 15.0037 49.8785ZM21.2641 53.4063C23.1581 53.4063 24.6708 51.9885 24.6708 49.8785C24.6708 47.7684 23.1581 46.3684 21.2641 46.3684C19.3701 46.3684 17.8395 47.7862 17.8395 49.8785C17.8395 51.9707 19.3522 53.4063 21.2641 53.4063Z" fill="white"/>
<path d="M43.8 44.0344H51.5015V46.6281H46.5643V48.6516H51.2583V51.0722H46.5643V53.1467H51.8496V55.7404H43.8V44.0344Z" fill="white"/>
<path d="M56.4463 49.8148V55.7404H53.7512V44.4696C53.7512 43.9911 54.3297 43.7442 54.6777 44.0776L61.0611 50.1559C61.1583 50.2475 61.317 50.1788 61.317 50.0465V44.0344H64.0121V55.0862C64.0121 55.6666 63.3134 55.9644 62.8911 55.5647L56.7048 49.7054C56.6076 49.6137 56.4489 49.6825 56.4489 49.8148H56.4463Z" fill="white"/>
<path d="M74.1834 43.9835H75.1918L80.861 55.7404H77.8178L77.0014 53.8899H72.2894L71.4729 55.7404H68.5347L74.186 43.9835H74.1834ZM75.9546 51.5202L74.6339 48.5116L73.3285 51.5202H75.9546Z" fill="white"/>
<path d="M82.2509 46.6281H79.1565V44.0344H88.1274V46.6281H85.0151V55.7404H82.2509V46.6281Z" fill="white"/>
<path d="M94.7333 46.6281H91.6389V44.0344H100.61V46.6281H97.4975V55.7404H94.7333V46.6281Z" fill="white"/>
<path d="M101.862 55.7404V44.0344H104.626V48.5829H109.407V44.0344H112.171V55.7404H109.407V51.1766H104.626V55.7404H101.862Z" fill="white"/>
<path d="M129.588 46.6281H126.494V44.0344H135.465V46.6281H132.353V55.7404H129.588V46.6281Z" fill="white"/>
<path d="M140.944 44.4467L146.109 55.7404H143.192L142.408 53.8899H138.134L137.351 55.7404H134.533L139.683 44.4467C139.933 43.8944 140.691 43.8944 140.944 44.4467ZM141.538 51.5202L140.271 48.5116L139.02 51.5202H141.538Z" fill="white"/>
<path d="M154.507 49.6545C155.116 49.1887 155.603 48.4098 155.603 47.3204C155.603 46.0757 154.837 44.0344 151.62 44.0344H146.509V55.7404H151.917C154.717 55.7404 155.83 53.7347 155.83 52.2125C155.83 51.1053 155.395 50.2424 154.51 49.6545H154.507ZM149.898 46.5415H151.021C151.82 46.5415 152.324 46.9208 152.324 47.6309C152.324 48.2876 151.82 48.6694 151.021 48.6694H149.898V46.5415ZM151.144 53.2154H149.898V51.001H151.144C151.996 51.001 152.534 51.398 152.534 52.126C152.534 52.854 151.994 53.2154 151.144 53.2154Z" fill="white"/>
<path d="M157.271 44.0344H160.035V53.1467H164.366V55.7404H157.271V44.0344Z" fill="white"/>
<path d="M166.104 44.0344H173.652V46.6281H168.868V48.6516H172.907V51.0722H168.868V53.1467H174V55.7404H166.104V44.0344Z" fill="white"/>
<path d="M114.759 44.0344H122.306V46.6281H117.523V48.6516H121.562V51.0722H117.523V53.1467H122.654V55.7404H114.759V44.0344Z" fill="white"/>
<path d="M14.2306 43.9555L10.9391 55.3917C10.8137 55.8269 10.2097 55.8651 10.028 55.4528L7.27399 49.1836C7.21257 49.0461 7.01805 49.0461 6.95918 49.1836L4.2052 55.4528C4.02092 55.8651 3.41688 55.8269 3.29147 55.3917L0 43.9555H2.44685L4.01324 49.6927C4.03883 49.7868 4.16937 49.797 4.20776 49.7079L6.66996 44.2609C6.84145 43.8791 7.38661 43.8791 7.56066 44.2609L10.0203 49.7079C10.0613 49.797 10.1918 49.7868 10.2174 49.6927L11.7812 43.9555H14.2306Z" fill="white"/>
<path d="M28.5663 55.8295L30.578 44.3933C30.7034 43.958 31.3075 43.9198 31.4892 44.3322L35.011 51.1104C35.0724 51.2479 35.267 51.2479 35.3258 51.1104L38.8476 44.3322C39.0319 43.9198 39.636 43.958 39.7614 44.3933L41.7706 55.8295H39.3237L38.5252 50.3468C38.4996 50.2526 38.369 50.2424 38.3306 50.3315L35.6125 55.524C35.441 55.9058 34.8958 55.9058 34.7218 55.524L32.0062 50.3315C31.9652 50.2424 31.8347 50.2526 31.8091 50.3468L31.0131 55.8295H28.5637H28.5663Z" fill="white"/>
</svg>
